<?xml version="1.0" encoding="UTF-8" standalone="no"?>
<!DOCTYPE svg PUBLIC "-//W3C//DTD SVG 1.1//EN"
 "http://www.w3.org/Graphics/SVG/1.1/DTD/svg11.dtd">
<!-- Generated by graphviz version 2.40.1 (20161225.0304)
 -->
<!-- Title: o2::header::RAWDataHeaderV6 Pages: 1 -->
<!--zoomable 391 -->
<svg id="main" version="1.1" xmlns="http://www.w3.org/2000/svg" xmlns:xlink="http://www.w3.org/1999/xlink" xml:space="preserve" onload="init(evt)">
<style type="text/css"><![CDATA[
.edge:hover path { stroke: red; }
.edge:hover polygon { stroke: red; fill: red; }
]]></style>
<script type="text/javascript"><![CDATA[
var edges = document.getElementsByTagName('g');
if (edges && edges.length) {
  for (var i=0;i<edges.length;i++) {
    if (edges[i].id.substr(0,4)=='edge') {
      edges[i].setAttribute('class','edge');
    }
  }
}
]]></script>
        <defs>
                <circle id="rim" cx="0" cy="0" r="7"/>
                <circle id="rim2" cx="0" cy="0" r="3.5"/>
                <g id="zoomPlus">
                        <use xlink:href="#rim" fill="#404040">
                                <set attributeName="fill" to="#808080" begin="zoomplus.mouseover" end="zoomplus.mouseout"/>
                        </use>
                        <path d="M-4,0h8M0,-4v8" fill="none" stroke="white" stroke-width="1.5" pointer-events="none"/>
                </g>
                <g id="zoomMin">
                        <use xlink:href="#rim" fill="#404040">
                                <set attributeName="fill" to="#808080" begin="zoomminus.mouseover" end="zoomminus.mouseout"/>
                        </use>
                        <path d="M-4,0h8" fill="none" stroke="white" stroke-width="1.5" pointer-events="none"/>
                </g>
                <g id="dirArrow">
                        <path fill="none" stroke="white" stroke-width="1.5" d="M0,-3.0v7 M-2.5,-0.5L0,-3.0L2.5,-0.5"/>
                </g>
               <g id="resetDef">
                       <use xlink:href="#rim2" fill="#404040">
                               <set attributeName="fill" to="#808080" begin="reset.mouseover" end="reset.mouseout"/>
                       </use>
               </g>
        </defs>

<script type="text/javascript">
var viewWidth = 1252;
var viewHeight = 391;
var sectionId = 'dynsection-0';
</script>
<script xlink:href="../../svgpan.js"/>
<svg id="graph" class="graph">
<g id="viewport">
<title>o2::header::RAWDataHeaderV6</title>
<!-- Node1 -->
<g id="node1" class="node">
<title>Node1</title>
<polygon fill="#bfbfbf" stroke="#000000" points="466.5,-.5 466.5,-167.5 633.5,-167.5 633.5,-.5 466.5,-.5"/>
<text text-anchor="middle" x="550" y="-155.5" font-family="Helvetica,sans-Serif" font-size="10.00" fill="#000000">o2::header::RAWDataHeaderV6</text>
<polyline fill="none" stroke="#000000" points="466.5,-148.5 633.5,-148.5 "/>
<text text-anchor="start" x="474.5" y="-136.5" font-family="Helvetica,sans-Serif" font-size="10.00" fill="#000000">+ zero0</text>
<text text-anchor="start" x="474.5" y="-125.5" font-family="Helvetica,sans-Serif" font-size="10.00" fill="#000000">+ word1</text>
<text text-anchor="start" x="474.5" y="-114.5" font-family="Helvetica,sans-Serif" font-size="10.00" fill="#000000">+ word2</text>
<text text-anchor="start" x="474.5" y="-103.5" font-family="Helvetica,sans-Serif" font-size="10.00" fill="#000000">+ word3</text>
<text text-anchor="start" x="474.5" y="-92.5" font-family="Helvetica,sans-Serif" font-size="10.00" fill="#000000">+ word4</text>
<text text-anchor="start" x="474.5" y="-81.5" font-family="Helvetica,sans-Serif" font-size="10.00" fill="#000000">+ pageCnt</text>
<text text-anchor="start" x="474.5" y="-70.5" font-family="Helvetica,sans-Serif" font-size="10.00" fill="#000000">+ stop</text>
<text text-anchor="start" x="474.5" y="-59.5" font-family="Helvetica,sans-Serif" font-size="10.00" fill="#000000">+ zero4</text>
<text text-anchor="start" x="474.5" y="-48.5" font-family="Helvetica,sans-Serif" font-size="10.00" fill="#000000">+ word5</text>
<text text-anchor="start" x="474.5" y="-37.5" font-family="Helvetica,sans-Serif" font-size="10.00" fill="#000000">+ word6</text>
<text text-anchor="start" x="474.5" y="-26.5" font-family="Helvetica,sans-Serif" font-size="10.00" fill="#000000">+ detectorField</text>
<polyline fill="none" stroke="#000000" points="466.5,-19.5 633.5,-19.5 "/>
<text text-anchor="middle" x="550" y="-7.5" font-family="Helvetica,sans-Serif" font-size="10.00" fill="#000000"> </text>
</g>
<!-- Node2 -->
<g id="node2" class="node">
<title>Node2</title>
<g id="a_node2"><a xlink:href="../../d6/d30/classuint64__t.html" target="_top" xlink:title="{uint64_t\n||}">
<polygon fill="none" stroke="#000000" points="0,-325.5 0,-382.5 56,-382.5 56,-325.5 0,-325.5"/>
<text text-anchor="middle" x="28" y="-370.5" font-family="Helvetica,sans-Serif" font-size="10.00" fill="#000000">uint64_t</text>
<polyline fill="none" stroke="#000000" points="0,-363.5 56,-363.5 "/>
<text text-anchor="middle" x="28" y="-351.5" font-family="Helvetica,sans-Serif" font-size="10.00" fill="#000000"> </text>
<polyline fill="none" stroke="#000000" points="0,-344.5 56,-344.5 "/>
<text text-anchor="middle" x="28" y="-332.5" font-family="Helvetica,sans-Serif" font-size="10.00" fill="#000000"> </text>
</a>
</g>
</g>
<!-- Node2&#45;&gt;Node1 -->
<g id="edge1" class="edge">
<title>Node2&#45;&gt;Node1</title>
<path fill="none" stroke="#404040" d="M22.6764,-325.5C17.5174,-288.3442 14.9153,-223.6695 50,-186 103.7416,-128.299 324.4965,-101.5248 454.0174,-90.5664"/>
<polygon fill="none" stroke="#404040" points="454.299,-90.5433 459.9491,-86.0626 466.2582,-89.5548 460.6081,-94.0354 454.299,-90.5433"/>
<text text-anchor="middle" x="84" y="-299" font-family="Helvetica,sans-Serif" font-size="10.00" fill="#000000"> +word7</text>
<text text-anchor="middle" x="84" y="-288" font-family="Helvetica,sans-Serif" font-size="10.00" fill="#000000">+triggerType</text>
<text text-anchor="middle" x="84" y="-277" font-family="Helvetica,sans-Serif" font-size="10.00" fill="#000000">+sourceID</text>
<text text-anchor="middle" x="84" y="-266" font-family="Helvetica,sans-Serif" font-size="10.00" fill="#000000">+zero6</text>
<text text-anchor="middle" x="84" y="-255" font-family="Helvetica,sans-Serif" font-size="10.00" fill="#000000">+detectorPAR</text>
<text text-anchor="middle" x="84" y="-244" font-family="Helvetica,sans-Serif" font-size="10.00" fill="#000000">+feeId</text>
<text text-anchor="middle" x="84" y="-233" font-family="Helvetica,sans-Serif" font-size="10.00" fill="#000000">+priority</text>
<text text-anchor="middle" x="84" y="-222" font-family="Helvetica,sans-Serif" font-size="10.00" fill="#000000">+headerSize</text>
<text text-anchor="middle" x="84" y="-211" font-family="Helvetica,sans-Serif" font-size="10.00" fill="#000000">+version</text>
<text text-anchor="middle" x="84" y="-200" font-family="Helvetica,sans-Serif" font-size="10.00" fill="#000000">+word0</text>
<text text-anchor="middle" x="84" y="-189" font-family="Helvetica,sans-Serif" font-size="10.00" fill="#000000">...</text>
</g>
<!-- Node3 -->
<g id="node3" class="node">
<title>Node3</title>
<polygon fill="none" stroke="#bfbfbf" points="82,-325.5 82,-382.5 138,-382.5 138,-325.5 82,-325.5"/>
<text text-anchor="middle" x="110" y="-370.5" font-family="Helvetica,sans-Serif" font-size="10.00" fill="#000000">uint16_t</text>
<polyline fill="none" stroke="#bfbfbf" points="82,-363.5 138,-363.5 "/>
<text text-anchor="middle" x="110" y="-351.5" font-family="Helvetica,sans-Serif" font-size="10.00" fill="#000000"> </text>
<polyline fill="none" stroke="#bfbfbf" points="82,-344.5 138,-344.5 "/>
<text text-anchor="middle" x="110" y="-332.5" font-family="Helvetica,sans-Serif" font-size="10.00" fill="#000000"> </text>
</g>
<!-- Node3&#45;&gt;Node1 -->
<g id="edge2" class="edge">
<title>Node3&#45;&gt;Node1</title>
<path fill="none" stroke="#404040" d="M116.089,-325.4606C125.5789,-287.9567 147.5068,-222.573 191,-186 230.8476,-152.4925 362.1403,-120.8581 454.3644,-101.9497"/>
<polygon fill="none" stroke="#404040" points="454.4951,-101.9233 459.5801,-96.8102 466.2556,-99.5375 461.1706,-104.6505 454.4951,-101.9233"/>
<text text-anchor="middle" x="209.5" y="-244" font-family="Helvetica,sans-Serif" font-size="10.00" fill="#000000"> +cruID</text>
</g>
<!-- Node4 -->
<g id="node4" class="node">
<title>Node4</title>
<polygon fill="none" stroke="#bfbfbf" points="156.5,-325.5 156.5,-382.5 269.5,-382.5 269.5,-325.5 156.5,-325.5"/>
<text text-anchor="middle" x="213" y="-370.5" font-family="Helvetica,sans-Serif" font-size="10.00" fill="#000000">anonymous:+@102</text>
<polyline fill="none" stroke="#bfbfbf" points="156.5,-363.5 269.5,-363.5 "/>
<text text-anchor="middle" x="213" y="-351.5" font-family="Helvetica,sans-Serif" font-size="10.00" fill="#000000"> </text>
<polyline fill="none" stroke="#bfbfbf" points="156.5,-344.5 269.5,-344.5 "/>
<text text-anchor="middle" x="213" y="-332.5" font-family="Helvetica,sans-Serif" font-size="10.00" fill="#000000"> </text>
</g>
<!-- Node4&#45;&gt;Node1 -->
<g id="edge3" class="edge">
<title>Node4&#45;&gt;Node1</title>
<path fill="none" stroke="#404040" d="M222.7845,-325.2762C236.6477,-288.4716 265.2885,-224.8055 309,-186 350.3541,-149.2874 406.8628,-124.4275 454.7676,-108.4485"/>
<polygon fill="none" stroke="#404040" points="455.0112,-108.3698 459.4884,-102.7169 466.4284,-104.6755 461.9512,-110.3284 455.0112,-108.3698"/>
<text text-anchor="middle" x="329" y="-244" font-family="Helvetica,sans-Serif" font-size="10.00" fill="#000000"> +@102</text>
</g>
<!-- Node5 -->
<g id="node5" class="node">
<title>Node5</title>
<polygon fill="none" stroke="#bfbfbf" points="287.5,-325.5 287.5,-382.5 400.5,-382.5 400.5,-325.5 287.5,-325.5"/>
<text text-anchor="middle" x="344" y="-370.5" font-family="Helvetica,sans-Serif" font-size="10.00" fill="#000000">anonymous:+@104</text>
<polyline fill="none" stroke="#bfbfbf" points="287.5,-363.5 400.5,-363.5 "/>
<text text-anchor="middle" x="344" y="-351.5" font-family="Helvetica,sans-Serif" font-size="10.00" fill="#000000"> </text>
<polyline fill="none" stroke="#bfbfbf" points="287.5,-344.5 400.5,-344.5 "/>
<text text-anchor="middle" x="344" y="-332.5" font-family="Helvetica,sans-Serif" font-size="10.00" fill="#000000"> </text>
</g>
<!-- Node5&#45;&gt;Node1 -->
<g id="edge4" class="edge">
<title>Node5&#45;&gt;Node1</title>
<path fill="none" stroke="#404040" d="M348.2631,-325.2542C354.743,-289.5666 369.8859,-228.2533 402,-186 416.6997,-166.6593 436.1451,-149.6492 456.0907,-135.3407"/>
<polygon fill="none" stroke="#404040" points="456.3583,-135.1553 459.0125,-128.4504 466.2224,-128.3215 463.5683,-135.0265 456.3583,-135.1553"/>
<text text-anchor="middle" x="422" y="-244" font-family="Helvetica,sans-Serif" font-size="10.00" fill="#000000"> +@104</text>
</g>
<!-- Node6 -->
<g id="node6" class="node">
<title>Node6</title>
<g id="a_node6"><a xlink:href="../../d3/d87/classuint32__t.html" target="_top" xlink:title="{uint32_t\n||}">
<polygon fill="none" stroke="#000000" points="419,-325.5 419,-382.5 475,-382.5 475,-325.5 419,-325.5"/>
<text text-anchor="middle" x="447" y="-370.5" font-family="Helvetica,sans-Serif" font-size="10.00" fill="#000000">uint32_t</text>
<polyline fill="none" stroke="#000000" points="419,-363.5 475,-363.5 "/>
<text text-anchor="middle" x="447" y="-351.5" font-family="Helvetica,sans-Serif" font-size="10.00" fill="#000000"> </text>
<polyline fill="none" stroke="#000000" points="419,-344.5 475,-344.5 "/>
<text text-anchor="middle" x="447" y="-332.5" font-family="Helvetica,sans-Serif" font-size="10.00" fill="#000000"> </text>
</a>
</g>
</g>
<!-- Node6&#45;&gt;Node1 -->
<g id="edge5" class="edge">
<title>Node6&#45;&gt;Node1</title>
<path fill="none" stroke="#404040" d="M445.4012,-325.4154C444.5419,-290.9541 446.5328,-231.9454 466,-186 467.0726,-183.4686 468.2288,-180.9507 469.4585,-178.4505"/>
<polygon fill="none" stroke="#404040" points="469.6027,-178.1824 468.9237,-171.0033 475.2894,-167.6154 475.9684,-174.7945 469.6027,-178.1824"/>
<text text-anchor="middle" x="506" y="-282.5" font-family="Helvetica,sans-Serif" font-size="10.00" fill="#000000"> +linkID</text>
<text text-anchor="middle" x="506" y="-271.5" font-family="Helvetica,sans-Serif" font-size="10.00" fill="#000000">+endPointID</text>
<text text-anchor="middle" x="506" y="-260.5" font-family="Helvetica,sans-Serif" font-size="10.00" fill="#000000">+reserved2</text>
<text text-anchor="middle" x="506" y="-249.5" font-family="Helvetica,sans-Serif" font-size="10.00" fill="#000000">+memorySize</text>
<text text-anchor="middle" x="506" y="-238.5" font-family="Helvetica,sans-Serif" font-size="10.00" fill="#000000">+offsetToNext</text>
<text text-anchor="middle" x="506" y="-227.5" font-family="Helvetica,sans-Serif" font-size="10.00" fill="#000000">+orbit</text>
<text text-anchor="middle" x="506" y="-216.5" font-family="Helvetica,sans-Serif" font-size="10.00" fill="#000000">+packetCounter</text>
<text text-anchor="middle" x="506" y="-205.5" font-family="Helvetica,sans-Serif" font-size="10.00" fill="#000000">+bunchCrossing</text>
</g>
<!-- Node7 -->
<g id="node7" class="node">
<title>Node7</title>
<polygon fill="none" stroke="#bfbfbf" points="493.5,-325.5 493.5,-382.5 606.5,-382.5 606.5,-325.5 493.5,-325.5"/>
<text text-anchor="middle" x="550" y="-370.5" font-family="Helvetica,sans-Serif" font-size="10.00" fill="#000000">anonymous:+@106</text>
<polyline fill="none" stroke="#bfbfbf" points="493.5,-363.5 606.5,-363.5 "/>
<text text-anchor="middle" x="550" y="-351.5" font-family="Helvetica,sans-Serif" font-size="10.00" fill="#000000"> </text>
<polyline fill="none" stroke="#bfbfbf" points="493.5,-344.5 606.5,-344.5 "/>
<text text-anchor="middle" x="550" y="-332.5" font-family="Helvetica,sans-Serif" font-size="10.00" fill="#000000"> </text>
</g>
<!-- Node7&#45;&gt;Node1 -->
<g id="edge6" class="edge">
<title>Node7&#45;&gt;Node1</title>
<path fill="none" stroke="#404040" d="M550,-325.3609C550,-290.8712 550,-231.1584 550,-179.7577"/>
<polygon fill="none" stroke="#404040" points="550.0001,-179.5731 546,-173.5731 550,-167.5731 554,-173.573 550.0001,-179.5731"/>
<text text-anchor="middle" x="570" y="-244" font-family="Helvetica,sans-Serif" font-size="10.00" fill="#000000"> +@106</text>
</g>
<!-- Node8 -->
<g id="node8" class="node">
<title>Node8</title>
<polygon fill="none" stroke="#bfbfbf" points="624.5,-325.5 624.5,-382.5 731.5,-382.5 731.5,-325.5 624.5,-325.5"/>
<text text-anchor="middle" x="678" y="-370.5" font-family="Helvetica,sans-Serif" font-size="10.00" fill="#000000">anonymous:+@94</text>
<polyline fill="none" stroke="#bfbfbf" points="624.5,-363.5 731.5,-363.5 "/>
<text text-anchor="middle" x="678" y="-351.5" font-family="Helvetica,sans-Serif" font-size="10.00" fill="#000000"> </text>
<polyline fill="none" stroke="#bfbfbf" points="624.5,-344.5 731.5,-344.5 "/>
<text text-anchor="middle" x="678" y="-332.5" font-family="Helvetica,sans-Serif" font-size="10.00" fill="#000000"> </text>
</g>
<!-- Node8&#45;&gt;Node1 -->
<g id="edge7" class="edge">
<title>Node8&#45;&gt;Node1</title>
<path fill="none" stroke="#404040" d="M664.4229,-325.3609C647.9343,-290.5802 619.2853,-230.1488 594.7802,-178.4582"/>
<polygon fill="none" stroke="#404040" points="594.7604,-178.4163 588.5757,-174.7082 589.6198,-167.5731 595.8045,-171.2812 594.7604,-178.4163"/>
<text text-anchor="middle" x="670" y="-244" font-family="Helvetica,sans-Serif" font-size="10.00" fill="#000000"> +@94</text>
</g>
<!-- Node9 -->
<g id="node9" class="node">
<title>Node9</title>
<polygon fill="none" stroke="#bfbfbf" points="749.5,-325.5 749.5,-382.5 862.5,-382.5 862.5,-325.5 749.5,-325.5"/>
<text text-anchor="middle" x="806" y="-370.5" font-family="Helvetica,sans-Serif" font-size="10.00" fill="#000000">anonymous:+@108</text>
<polyline fill="none" stroke="#bfbfbf" points="749.5,-363.5 862.5,-363.5 "/>
<text text-anchor="middle" x="806" y="-351.5" font-family="Helvetica,sans-Serif" font-size="10.00" fill="#000000"> </text>
<polyline fill="none" stroke="#bfbfbf" points="749.5,-344.5 862.5,-344.5 "/>
<text text-anchor="middle" x="806" y="-332.5" font-family="Helvetica,sans-Serif" font-size="10.00" fill="#000000"> </text>
</g>
<!-- Node9&#45;&gt;Node1 -->
<g id="edge8" class="edge">
<title>Node9&#45;&gt;Node1</title>
<path fill="none" stroke="#404040" d="M790.5098,-325.3628C770.5376,-290.0594 733.3023,-229.4166 691,-186 676.7237,-171.3476 660.1354,-157.3105 643.4568,-144.5883"/>
<polygon fill="none" stroke="#404040" points="643.2557,-144.438 636.0549,-144.0506 633.643,-137.2548 640.8437,-137.6422 643.2557,-144.438"/>
<text text-anchor="middle" x="799" y="-244" font-family="Helvetica,sans-Serif" font-size="10.00" fill="#000000"> +@108</text>
</g>
<!-- Node10 -->
<g id="node10" class="node">
<title>Node10</title>
<polygon fill="none" stroke="#bfbfbf" points="880.5,-325.5 880.5,-382.5 987.5,-382.5 987.5,-325.5 880.5,-325.5"/>
<text text-anchor="middle" x="934" y="-370.5" font-family="Helvetica,sans-Serif" font-size="10.00" fill="#000000">anonymous:+@96</text>
<polyline fill="none" stroke="#bfbfbf" points="880.5,-363.5 987.5,-363.5 "/>
<text text-anchor="middle" x="934" y="-351.5" font-family="Helvetica,sans-Serif" font-size="10.00" fill="#000000"> </text>
<polyline fill="none" stroke="#bfbfbf" points="880.5,-344.5 987.5,-344.5 "/>
<text text-anchor="middle" x="934" y="-332.5" font-family="Helvetica,sans-Serif" font-size="10.00" fill="#000000"> </text>
</g>
<!-- Node10&#45;&gt;Node1 -->
<g id="edge9" class="edge">
<title>Node10&#45;&gt;Node1</title>
<path fill="none" stroke="#404040" d="M921.9252,-325.3105C904.9645,-288.2465 870.7292,-223.9885 823,-186 771.3502,-144.8911 701.4377,-119.1908 645.293,-103.8708"/>
<polygon fill="none" stroke="#404040" points="645.1332,-103.8285 638.3093,-106.1598 633.5329,-100.7574 640.3568,-98.4262 645.1332,-103.8285"/>
<text text-anchor="middle" x="928" y="-244" font-family="Helvetica,sans-Serif" font-size="10.00" fill="#000000"> +@96</text>
</g>
<!-- Node11 -->
<g id="node11" class="node">
<title>Node11</title>
<polygon fill="none" stroke="#bfbfbf" points="1005.5,-325.5 1005.5,-382.5 1112.5,-382.5 1112.5,-325.5 1005.5,-325.5"/>
<text text-anchor="middle" x="1059" y="-370.5" font-family="Helvetica,sans-Serif" font-size="10.00" fill="#000000">anonymous:+@98</text>
<polyline fill="none" stroke="#bfbfbf" points="1005.5,-363.5 1112.5,-363.5 "/>
<text text-anchor="middle" x="1059" y="-351.5" font-family="Helvetica,sans-Serif" font-size="10.00" fill="#000000"> </text>
<polyline fill="none" stroke="#bfbfbf" points="1005.5,-344.5 1112.5,-344.5 "/>
<text text-anchor="middle" x="1059" y="-332.5" font-family="Helvetica,sans-Serif" font-size="10.00" fill="#000000"> </text>
</g>
<!-- Node11&#45;&gt;Node1 -->
<g id="edge10" class="edge">
<title>Node11&#45;&gt;Node1</title>
<path fill="none" stroke="#404040" d="M1048.1105,-325.4898C1032.1883,-287.7095 998.9138,-221.6852 949,-186 900.7452,-151.5009 747.4176,-118.872 645.4989,-100.1826"/>
<polygon fill="none" stroke="#404040" points="645.451,-100.174 638.8326,-103.037 633.6443,-98.0289 640.2627,-95.1659 645.451,-100.174"/>
<text text-anchor="middle" x="1056" y="-244" font-family="Helvetica,sans-Serif" font-size="10.00" fill="#000000"> +@98</text>
</g>
<!-- Node12 -->
<g id="node12" class="node">
<title>Node12</title>
<polygon fill="none" stroke="#bfbfbf" points="1130.5,-325.5 1130.5,-382.5 1243.5,-382.5 1243.5,-325.5 1130.5,-325.5"/>
<text text-anchor="middle" x="1187" y="-370.5" font-family="Helvetica,sans-Serif" font-size="10.00" fill="#000000">anonymous:+@100</text>
<polyline fill="none" stroke="#bfbfbf" points="1130.5,-363.5 1243.5,-363.5 "/>
<text text-anchor="middle" x="1187" y="-351.5" font-family="Helvetica,sans-Serif" font-size="10.00" fill="#000000"> </text>
<polyline fill="none" stroke="#bfbfbf" points="1130.5,-344.5 1243.5,-344.5 "/>
<text text-anchor="middle" x="1187" y="-332.5" font-family="Helvetica,sans-Serif" font-size="10.00" fill="#000000"> </text>
</g>
<!-- Node12&#45;&gt;Node1 -->
<g id="edge11" class="edge">
<title>Node12&#45;&gt;Node1</title>
<path fill="none" stroke="#404040" d="M1176.5453,-325.3787C1161.0203,-287.1567 1128.091,-220.2921 1077,-186 1007.7803,-139.5399 777.9058,-108.1994 645.7447,-93.5378"/>
<polygon fill="none" stroke="#404040" points="645.5892,-93.5209 639.1891,-96.8434 633.6606,-92.2135 640.0607,-88.891 645.5892,-93.5209"/>
<text text-anchor="middle" x="1187" y="-244" font-family="Helvetica,sans-Serif" font-size="10.00" fill="#000000"> +@100</text>
</g>
</g>
</svg>
        <g id="navigator" transform="translate(0 0)" fill="#404254">
                <rect fill="#f2f5e9" fill-opacity="0.5" stroke="#606060" stroke-width=".5" x="0" y="0" width="60" height="60"/>
                <use id="zoomplus" xlink:href="#zoomPlus" x="17" y="9" onmousedown="handleZoom(evt,'in')"/>
                <use id="zoomminus" xlink:href="#zoomMin" x="42" y="9" onmousedown="handleZoom(evt,'out')"/>
                <use id="reset" xlink:href="#resetDef" x="30" y="36" onmousedown="handleReset()"/>
                <g id="arrowUp" xlink:href="#dirArrow" transform="translate(30 24)" onmousedown="handlePan(0,-1)">
                  <use xlink:href="#rim" fill="#404040">
                        <set attributeName="fill" to="#808080" begin="arrowUp.mouseover" end="arrowUp.mouseout"/>
                  </use>
                  <path fill="none" stroke="white" stroke-width="1.5" d="M0,-3.0v7 M-2.5,-0.5L0,-3.0L2.5,-0.5"/>
                </g>
                <g id="arrowRight" xlink:href="#dirArrow" transform="rotate(90) translate(36 -43)" onmousedown="handlePan(1,0)">
                  <use xlink:href="#rim" fill="#404040">
                        <set attributeName="fill" to="#808080" begin="arrowRight.mouseover" end="arrowRight.mouseout"/>
                  </use>
                  <path fill="none" stroke="white" stroke-width="1.5" d="M0,-3.0v7 M-2.5,-0.5L0,-3.0L2.5,-0.5"/>
                </g>
                <g id="arrowDown" xlink:href="#dirArrow" transform="rotate(180) translate(-30 -48)" onmousedown="handlePan(0,1)">
                  <use xlink:href="#rim" fill="#404040">
                        <set attributeName="fill" to="#808080" begin="arrowDown.mouseover" end="arrowDown.mouseout"/>
                  </use>
                  <path fill="none" stroke="white" stroke-width="1.5" d="M0,-3.0v7 M-2.5,-0.5L0,-3.0L2.5,-0.5"/>
                </g>
                <g id="arrowLeft" xlink:href="#dirArrow" transform="rotate(270) translate(-36 17)" onmousedown="handlePan(-1,0)">
                  <use xlink:href="#rim" fill="#404040">
                        <set attributeName="fill" to="#808080" begin="arrowLeft.mouseover" end="arrowLeft.mouseout"/>
                  </use>
                  <path fill="none" stroke="white" stroke-width="1.5" d="M0,-3.0v7 M-2.5,-0.5L0,-3.0L2.5,-0.5"/>
                </g>
        </g>
        <svg viewBox="0 0 15 15" width="100%" height="30px" preserveAspectRatio="xMaxYMin meet">
         <g id="arrow_out" transform="scale(0.3 0.3)">
          <a xlink:href="structo2_1_1header_1_1RAWDataHeaderV6__coll__graph_org.svg" target="_base">
           <rect id="button" ry="5" rx="5" y="6" x="6" height="38" width="38"
                fill="#f2f5e9" fill-opacity="0.5" stroke="#606060" stroke-width="1.0"/>
           <path id="arrow"
             d="M 11.500037,31.436501 C 11.940474,20.09759 22.043105,11.32322 32.158766,21.979434 L 37.068811,17.246167 C 37.068811,17.246167 37.088388,32 37.088388,32 L 22.160133,31.978069 C 22.160133,31.978069 26.997745,27.140456 26.997745,27.140456 C 18.528582,18.264221 13.291696,25.230495 11.500037,31.436501 z"
             style="fill:#404040;"/>
          </a>
         </g>
        </svg>
</svg>
