<?xml version="1.0" encoding="UTF-8" standalone="no"?>
<!DOCTYPE svg PUBLIC "-//W3C//DTD SVG 1.1//EN"
 "http://www.w3.org/Graphics/SVG/1.1/DTD/svg11.dtd">
<!-- Generated by graphviz version 2.40.1 (20161225.0304)
 -->
<!-- Title: o2::header::NameHeader&lt; N &gt; Pages: 1 -->
<svg width="1083pt" height="1080pt"
 viewBox="0.00 0.00 1082.90 1080.00" xmlns="http://www.w3.org/2000/svg" xmlns:xlink="http://www.w3.org/1999/xlink">
<g id="graph0" class="graph" transform="scale(1 1) rotate(0) translate(4 1076)">
<title>o2::header::NameHeader&lt; N &gt;</title>
<!-- Node2 -->
<g id="node1" class="node">
<title>Node2</title>
<polygon fill="#bfbfbf" stroke="#000000" points="736.4014,-.5 736.4014,-112.5 905.4014,-112.5 905.4014,-.5 736.4014,-.5"/>
<text text-anchor="middle" x="820.9014" y="-100.5" font-family="Helvetica,sans-Serif" font-size="10.00" fill="#000000">o2::header::NameHeader&lt; N &gt;</text>
<polyline fill="none" stroke="#000000" points="736.4014,-93.5 905.4014,-93.5 "/>
<text text-anchor="middle" x="820.9014" y="-81.5" font-family="Helvetica,sans-Serif" font-size="10.00" fill="#000000"> </text>
<polyline fill="none" stroke="#000000" points="736.4014,-74.5 905.4014,-74.5 "/>
<text text-anchor="start" x="744.4014" y="-62.5" font-family="Helvetica,sans-Serif" font-size="10.00" fill="#000000">+ NameHeader()</text>
<text text-anchor="start" x="744.4014" y="-51.5" font-family="Helvetica,sans-Serif" font-size="10.00" fill="#000000">+ NameHeader()</text>
<text text-anchor="start" x="744.4014" y="-40.5" font-family="Helvetica,sans-Serif" font-size="10.00" fill="#000000">+ getName()</text>
<text text-anchor="start" x="744.4014" y="-29.5" font-family="Helvetica,sans-Serif" font-size="10.00" fill="#000000">+ getNameLength()</text>
<text text-anchor="start" x="744.4014" y="-18.5" font-family="Helvetica,sans-Serif" font-size="10.00" fill="#000000">+ sHeaderType()</text>
<text text-anchor="start" x="744.4014" y="-7.5" font-family="Helvetica,sans-Serif" font-size="10.00" fill="#000000">+ sHeaderType()</text>
</g>
<!-- Node3 -->
<g id="node2" class="node">
<title>Node3</title>
<g id="a_node2"><a xlink:href="../../d8/dbd/structo2_1_1header_1_1BaseHeader.html" target="_top" xlink:title="the base header struct Every header type must begin (i.e. derive) with this. Don&#39;t use this struct di...">
<polygon fill="none" stroke="#000000" points="639.4014,-182.5 639.4014,-349.5 812.4014,-349.5 812.4014,-182.5 639.4014,-182.5"/>
<text text-anchor="middle" x="725.9014" y="-337.5" font-family="Helvetica,sans-Serif" font-size="10.00" fill="#000000">o2::header::BaseHeader</text>
<polyline fill="none" stroke="#000000" points="639.4014,-330.5 812.4014,-330.5 "/>
<text text-anchor="middle" x="725.9014" y="-318.5" font-family="Helvetica,sans-Serif" font-size="10.00" fill="#000000"> </text>
<polyline fill="none" stroke="#000000" points="639.4014,-311.5 812.4014,-311.5 "/>
<text text-anchor="start" x="647.4014" y="-299.5" font-family="Helvetica,sans-Serif" font-size="10.00" fill="#000000">+ BaseHeader()</text>
<text text-anchor="start" x="647.4014" y="-288.5" font-family="Helvetica,sans-Serif" font-size="10.00" fill="#000000">+ BaseHeader()</text>
<text text-anchor="start" x="647.4014" y="-277.5" font-family="Helvetica,sans-Serif" font-size="10.00" fill="#000000">+ BaseHeader()</text>
<text text-anchor="start" x="647.4014" y="-266.5" font-family="Helvetica,sans-Serif" font-size="10.00" fill="#000000">+ size()</text>
<text text-anchor="start" x="647.4014" y="-255.5" font-family="Helvetica,sans-Serif" font-size="10.00" fill="#000000">+ data()</text>
<text text-anchor="start" x="647.4014" y="-244.5" font-family="Helvetica,sans-Serif" font-size="10.00" fill="#000000">+ next()</text>
<text text-anchor="start" x="647.4014" y="-233.5" font-family="Helvetica,sans-Serif" font-size="10.00" fill="#000000">+ next()</text>
<text text-anchor="start" x="647.4014" y="-222.5" font-family="Helvetica,sans-Serif" font-size="10.00" fill="#000000">+ sanityCheck()</text>
<text text-anchor="start" x="647.4014" y="-211.5" font-family="Helvetica,sans-Serif" font-size="10.00" fill="#000000">+ throwInconsistentStackError()</text>
<text text-anchor="start" x="647.4014" y="-200.5" font-family="Helvetica,sans-Serif" font-size="10.00" fill="#000000">+ get()</text>
<text text-anchor="start" x="647.4014" y="-189.5" font-family="Helvetica,sans-Serif" font-size="10.00" fill="#000000">+ get()</text>
</a>
</g>
</g>
<!-- Node3&#45;&gt;Node2 -->
<g id="edge1" class="edge">
<title>Node3&#45;&gt;Node2</title>
<path fill="none" stroke="#191970" d="M768.1086,-172.922C777.4144,-152.4002 786.9946,-131.2734 795.3965,-112.7449"/>
<polygon fill="none" stroke="#191970" points="764.7998,-171.744 763.8575,-182.2969 771.1749,-174.6349 764.7998,-171.744"/>
</g>
<!-- Node4 -->
<g id="node3" class="node">
<title>Node4</title>
<g id="a_node3"><a xlink:href="../../d9/db3/structo2_1_1header_1_1Descriptor.html" target="_top" xlink:title="{o2::header::Descriptor\l\&lt; gSizeHeaderDescriptionString \&gt;\n||+ Descriptor()\l+ Descriptor()\l+ Descriptor()\l+ Descriptor()\l+ operator=()\l+ operator ItgType()\l+ runtimeInit()\l+ operator==()\l+ operator==()\l+ operator\&lt;()\l+ operator!=()\l+ operator!=()\l+ as()\l+ print()\l}">
<polygon fill="none" stroke="#000000" points="387.4014,-463.5 387.4014,-674.5 572.4014,-674.5 572.4014,-463.5 387.4014,-463.5"/>
<text text-anchor="start" x="395.4014" y="-662.5" font-family="Helvetica,sans-Serif" font-size="10.00" fill="#000000">o2::header::Descriptor</text>
<text text-anchor="middle" x="479.9014" y="-651.5" font-family="Helvetica,sans-Serif" font-size="10.00" fill="#000000">&lt; gSizeHeaderDescriptionString &gt;</text>
<polyline fill="none" stroke="#000000" points="387.4014,-644.5 572.4014,-644.5 "/>
<text text-anchor="middle" x="479.9014" y="-632.5" font-family="Helvetica,sans-Serif" font-size="10.00" fill="#000000"> </text>
<polyline fill="none" stroke="#000000" points="387.4014,-625.5 572.4014,-625.5 "/>
<text text-anchor="start" x="395.4014" y="-613.5" font-family="Helvetica,sans-Serif" font-size="10.00" fill="#000000">+ Descriptor()</text>
<text text-anchor="start" x="395.4014" y="-602.5" font-family="Helvetica,sans-Serif" font-size="10.00" fill="#000000">+ Descriptor()</text>
<text text-anchor="start" x="395.4014" y="-591.5" font-family="Helvetica,sans-Serif" font-size="10.00" fill="#000000">+ Descriptor()</text>
<text text-anchor="start" x="395.4014" y="-580.5" font-family="Helvetica,sans-Serif" font-size="10.00" fill="#000000">+ Descriptor()</text>
<text text-anchor="start" x="395.4014" y="-569.5" font-family="Helvetica,sans-Serif" font-size="10.00" fill="#000000">+ operator=()</text>
<text text-anchor="start" x="395.4014" y="-558.5" font-family="Helvetica,sans-Serif" font-size="10.00" fill="#000000">+ operator ItgType()</text>
<text text-anchor="start" x="395.4014" y="-547.5" font-family="Helvetica,sans-Serif" font-size="10.00" fill="#000000">+ runtimeInit()</text>
<text text-anchor="start" x="395.4014" y="-536.5" font-family="Helvetica,sans-Serif" font-size="10.00" fill="#000000">+ operator==()</text>
<text text-anchor="start" x="395.4014" y="-525.5" font-family="Helvetica,sans-Serif" font-size="10.00" fill="#000000">+ operator==()</text>
<text text-anchor="start" x="395.4014" y="-514.5" font-family="Helvetica,sans-Serif" font-size="10.00" fill="#000000">+ operator&lt;()</text>
<text text-anchor="start" x="395.4014" y="-503.5" font-family="Helvetica,sans-Serif" font-size="10.00" fill="#000000">+ operator!=()</text>
<text text-anchor="start" x="395.4014" y="-492.5" font-family="Helvetica,sans-Serif" font-size="10.00" fill="#000000">+ operator!=()</text>
<text text-anchor="start" x="395.4014" y="-481.5" font-family="Helvetica,sans-Serif" font-size="10.00" fill="#000000">+ as()</text>
<text text-anchor="start" x="395.4014" y="-470.5" font-family="Helvetica,sans-Serif" font-size="10.00" fill="#000000">+ print()</text>
</a>
</g>
</g>
<!-- Node4&#45;&gt;Node3 -->
<g id="edge2" class="edge">
<title>Node4&#45;&gt;Node3</title>
<path fill="none" stroke="#404040" d="M526.8816,-463.3481C544.0782,-430.8657 565.4137,-396.2592 589.9014,-368 601.634,-354.4603 615.4494,-341.6066 629.7,-329.8749"/>
<polygon fill="none" stroke="#404040" points="629.7471,-329.8372 631.9267,-322.9634 639.1101,-322.3315 636.9305,-329.2054 629.7471,-329.8372"/>
<text text-anchor="middle" x="622.9014" y="-404" font-family="Helvetica,sans-Serif" font-size="10.00" fill="#000000"> +description</text>
</g>
<!-- Node5 -->
<g id="node4" class="node">
<title>Node5</title>
<polygon fill="none" stroke="#bfbfbf" points="380.4014,-1014.5 380.4014,-1071.5 487.4014,-1071.5 487.4014,-1014.5 380.4014,-1014.5"/>
<text text-anchor="middle" x="433.9014" y="-1059.5" font-family="Helvetica,sans-Serif" font-size="10.00" fill="#000000">anonymous:+@78</text>
<polyline fill="none" stroke="#bfbfbf" points="380.4014,-1052.5 487.4014,-1052.5 "/>
<text text-anchor="middle" x="433.9014" y="-1040.5" font-family="Helvetica,sans-Serif" font-size="10.00" fill="#000000"> </text>
<polyline fill="none" stroke="#bfbfbf" points="380.4014,-1033.5 487.4014,-1033.5 "/>
<text text-anchor="middle" x="433.9014" y="-1021.5" font-family="Helvetica,sans-Serif" font-size="10.00" fill="#000000"> </text>
</g>
<!-- Node5&#45;&gt;Node4 -->
<g id="edge3" class="edge">
<title>Node5&#45;&gt;Node4</title>
<path fill="none" stroke="#404040" d="M487.5817,-1023.2765C503.1341,-1016.0909 519.5135,-1006.9786 532.9014,-996 554.7588,-978.0761 561.4241,-971.6307 570.9014,-945 608.4824,-839.3997 618.4678,-798.6055 580.9014,-693 579.9199,-690.241 578.8479,-687.4989 577.6945,-684.7769"/>
<polygon fill="none" stroke="#404040" points="577.6016,-684.5782 571.4362,-680.8382 572.5173,-673.7085 578.6827,-677.4486 577.6016,-684.5782"/>
<text text-anchor="middle" x="621.9014" y="-836.5" font-family="Helvetica,sans-Serif" font-size="10.00" fill="#000000"> +@78</text>
</g>
<!-- Node9 -->
<g id="node8" class="node">
<title>Node9</title>
<g id="a_node8"><a xlink:href="../../d9/db3/structo2_1_1header_1_1Descriptor.html" target="_top" xlink:title="{o2::header::Descriptor\l\&lt; N, PrinterPolicy \&gt;\n||+ Descriptor()\l+ Descriptor()\l+ Descriptor()\l+ operator=()\l+ operator ItgType()\l+ Descriptor()\l+ runtimeInit()\l+ operator==()\l+ operator\&lt;()\l+ operator!=()\l+ operator==()\l+ operator!=()\l+ as()\l+ print()\l}">
<polygon fill="none" stroke="#000000" points="249.4014,-733.5 249.4014,-944.5 374.4014,-944.5 374.4014,-733.5 249.4014,-733.5"/>
<text text-anchor="start" x="257.4014" y="-932.5" font-family="Helvetica,sans-Serif" font-size="10.00" fill="#000000">o2::header::Descriptor</text>
<text text-anchor="middle" x="311.9014" y="-921.5" font-family="Helvetica,sans-Serif" font-size="10.00" fill="#000000">&lt; N, PrinterPolicy &gt;</text>
<polyline fill="none" stroke="#000000" points="249.4014,-914.5 374.4014,-914.5 "/>
<text text-anchor="middle" x="311.9014" y="-902.5" font-family="Helvetica,sans-Serif" font-size="10.00" fill="#000000"> </text>
<polyline fill="none" stroke="#000000" points="249.4014,-895.5 374.4014,-895.5 "/>
<text text-anchor="start" x="257.4014" y="-883.5" font-family="Helvetica,sans-Serif" font-size="10.00" fill="#000000">+ Descriptor()</text>
<text text-anchor="start" x="257.4014" y="-872.5" font-family="Helvetica,sans-Serif" font-size="10.00" fill="#000000">+ Descriptor()</text>
<text text-anchor="start" x="257.4014" y="-861.5" font-family="Helvetica,sans-Serif" font-size="10.00" fill="#000000">+ Descriptor()</text>
<text text-anchor="start" x="257.4014" y="-850.5" font-family="Helvetica,sans-Serif" font-size="10.00" fill="#000000">+ operator=()</text>
<text text-anchor="start" x="257.4014" y="-839.5" font-family="Helvetica,sans-Serif" font-size="10.00" fill="#000000">+ operator ItgType()</text>
<text text-anchor="start" x="257.4014" y="-828.5" font-family="Helvetica,sans-Serif" font-size="10.00" fill="#000000">+ Descriptor()</text>
<text text-anchor="start" x="257.4014" y="-817.5" font-family="Helvetica,sans-Serif" font-size="10.00" fill="#000000">+ runtimeInit()</text>
<text text-anchor="start" x="257.4014" y="-806.5" font-family="Helvetica,sans-Serif" font-size="10.00" fill="#000000">+ operator==()</text>
<text text-anchor="start" x="257.4014" y="-795.5" font-family="Helvetica,sans-Serif" font-size="10.00" fill="#000000">+ operator&lt;()</text>
<text text-anchor="start" x="257.4014" y="-784.5" font-family="Helvetica,sans-Serif" font-size="10.00" fill="#000000">+ operator!=()</text>
<text text-anchor="start" x="257.4014" y="-773.5" font-family="Helvetica,sans-Serif" font-size="10.00" fill="#000000">+ operator==()</text>
<text text-anchor="start" x="257.4014" y="-762.5" font-family="Helvetica,sans-Serif" font-size="10.00" fill="#000000">+ operator!=()</text>
<text text-anchor="start" x="257.4014" y="-751.5" font-family="Helvetica,sans-Serif" font-size="10.00" fill="#000000">+ as()</text>
<text text-anchor="start" x="257.4014" y="-740.5" font-family="Helvetica,sans-Serif" font-size="10.00" fill="#000000">+ print()</text>
</a>
</g>
</g>
<!-- Node5&#45;&gt;Node9 -->
<g id="edge8" class="edge">
<title>Node5&#45;&gt;Node9</title>
<path fill="none" stroke="#404040" d="M401.4493,-1014.3858C395.8763,-1008.6221 390.4302,-1002.368 385.9014,-996 376.9252,-983.3785 368.5705,-969.4964 360.9494,-955.3687"/>
<polygon fill="none" stroke="#404040" points="360.8405,-955.1609 354.5112,-951.7055 355.2664,-944.534 361.5957,-947.9895 360.8405,-955.1609"/>
<text text-anchor="middle" x="402.9014" y="-977" font-family="Helvetica,sans-Serif" font-size="10.00" fill="#000000"> +@78</text>
</g>
<!-- Node11 -->
<g id="node10" class="node">
<title>Node11</title>
<g id="a_node10"><a xlink:href="../../d9/db3/structo2_1_1header_1_1Descriptor.html" target="_top" xlink:title="{o2::header::Descriptor\l\&lt; gSizeSerializationMethodString \&gt;\n||+ Descriptor()\l+ Descriptor()\l+ Descriptor()\l+ Descriptor()\l+ operator=()\l+ operator ItgType()\l+ runtimeInit()\l+ operator==()\l+ operator==()\l+ operator\&lt;()\l+ operator!=()\l+ operator!=()\l+ as()\l+ print()\l}">
<polygon fill="none" stroke="#000000" points="145.4014,-463.5 145.4014,-674.5 336.4014,-674.5 336.4014,-463.5 145.4014,-463.5"/>
<text text-anchor="start" x="153.4014" y="-662.5" font-family="Helvetica,sans-Serif" font-size="10.00" fill="#000000">o2::header::Descriptor</text>
<text text-anchor="middle" x="240.9014" y="-651.5" font-family="Helvetica,sans-Serif" font-size="10.00" fill="#000000">&lt; gSizeSerializationMethodString &gt;</text>
<polyline fill="none" stroke="#000000" points="145.4014,-644.5 336.4014,-644.5 "/>
<text text-anchor="middle" x="240.9014" y="-632.5" font-family="Helvetica,sans-Serif" font-size="10.00" fill="#000000"> </text>
<polyline fill="none" stroke="#000000" points="145.4014,-625.5 336.4014,-625.5 "/>
<text text-anchor="start" x="153.4014" y="-613.5" font-family="Helvetica,sans-Serif" font-size="10.00" fill="#000000">+ Descriptor()</text>
<text text-anchor="start" x="153.4014" y="-602.5" font-family="Helvetica,sans-Serif" font-size="10.00" fill="#000000">+ Descriptor()</text>
<text text-anchor="start" x="153.4014" y="-591.5" font-family="Helvetica,sans-Serif" font-size="10.00" fill="#000000">+ Descriptor()</text>
<text text-anchor="start" x="153.4014" y="-580.5" font-family="Helvetica,sans-Serif" font-size="10.00" fill="#000000">+ Descriptor()</text>
<text text-anchor="start" x="153.4014" y="-569.5" font-family="Helvetica,sans-Serif" font-size="10.00" fill="#000000">+ operator=()</text>
<text text-anchor="start" x="153.4014" y="-558.5" font-family="Helvetica,sans-Serif" font-size="10.00" fill="#000000">+ operator ItgType()</text>
<text text-anchor="start" x="153.4014" y="-547.5" font-family="Helvetica,sans-Serif" font-size="10.00" fill="#000000">+ runtimeInit()</text>
<text text-anchor="start" x="153.4014" y="-536.5" font-family="Helvetica,sans-Serif" font-size="10.00" fill="#000000">+ operator==()</text>
<text text-anchor="start" x="153.4014" y="-525.5" font-family="Helvetica,sans-Serif" font-size="10.00" fill="#000000">+ operator==()</text>
<text text-anchor="start" x="153.4014" y="-514.5" font-family="Helvetica,sans-Serif" font-size="10.00" fill="#000000">+ operator&lt;()</text>
<text text-anchor="start" x="153.4014" y="-503.5" font-family="Helvetica,sans-Serif" font-size="10.00" fill="#000000">+ operator!=()</text>
<text text-anchor="start" x="153.4014" y="-492.5" font-family="Helvetica,sans-Serif" font-size="10.00" fill="#000000">+ operator!=()</text>
<text text-anchor="start" x="153.4014" y="-481.5" font-family="Helvetica,sans-Serif" font-size="10.00" fill="#000000">+ as()</text>
<text text-anchor="start" x="153.4014" y="-470.5" font-family="Helvetica,sans-Serif" font-size="10.00" fill="#000000">+ print()</text>
</a>
</g>
</g>
<!-- Node5&#45;&gt;Node11 -->
<g id="edge15" class="edge">
<title>Node5&#45;&gt;Node11</title>
<path fill="none" stroke="#404040" d="M430.9395,-1014.3698C428.8312,-998.8933 425.3755,-979.6049 419.9014,-963 417.101,-954.5054 413.5231,-953.5514 410.9014,-945 383.0438,-854.1339 421.8694,-819.6844 382.9014,-733 373.0149,-711.0075 359.1919,-689.7578 344.0199,-670.2548"/>
<polygon fill="none" stroke="#404040" points="343.972,-670.195 337.1002,-668.0093 336.4747,-660.8254 343.3466,-663.0111 343.972,-670.195"/>
<text text-anchor="middle" x="427.9014" y="-836.5" font-family="Helvetica,sans-Serif" font-size="10.00" fill="#000000"> +@78</text>
</g>
<!-- Node6 -->
<g id="node5" class="node">
<title>Node6</title>
<polygon fill="none" stroke="#bfbfbf" points="292.4014,-1014.5 292.4014,-1071.5 331.4014,-1071.5 331.4014,-1014.5 292.4014,-1014.5"/>
<text text-anchor="middle" x="311.9014" y="-1059.5" font-family="Helvetica,sans-Serif" font-size="10.00" fill="#000000">Type</text>
<polyline fill="none" stroke="#bfbfbf" points="292.4014,-1052.5 331.4014,-1052.5 "/>
<text text-anchor="middle" x="311.9014" y="-1040.5" font-family="Helvetica,sans-Serif" font-size="10.00" fill="#000000"> </text>
<polyline fill="none" stroke="#bfbfbf" points="292.4014,-1033.5 331.4014,-1033.5 "/>
<text text-anchor="middle" x="311.9014" y="-1021.5" font-family="Helvetica,sans-Serif" font-size="10.00" fill="#000000"> </text>
</g>
<!-- Node6&#45;&gt;Node4 -->
<g id="edge4" class="edge">
<title>Node6&#45;&gt;Node4</title>
<path fill="none" stroke="#404040" d="M328.1291,-1014.3458C340.0746,-994.2323 355.9119,-969.7655 365.9014,-963 397.1546,-941.8333 422.2092,-971.6893 448.9014,-945 517.0806,-876.8282 433.232,-807.1127 494.9014,-733 508.1531,-717.0744 526.4233,-732.2479 537.9014,-715 543.8097,-706.1216 546.56,-696.5493 546.9792,-686.7022"/>
<polygon fill="none" stroke="#404040" points="546.9728,-686.5685 542.6861,-680.7699 546.39,-674.5827 550.6767,-680.3813 546.9728,-686.5685"/>
<text text-anchor="middle" x="507.4014" y="-836.5" font-family="Helvetica,sans-Serif" font-size="10.00" fill="#000000"> +itg</text>
</g>
<!-- Node6&#45;&gt;Node9 -->
<g id="edge9" class="edge">
<title>Node6&#45;&gt;Node9</title>
<path fill="none" stroke="#404040" d="M311.9014,-1014.2045C311.9014,-998.616 311.9014,-978.2061 311.9014,-956.8459"/>
<polygon fill="none" stroke="#404040" points="311.9015,-956.5491 307.9014,-950.5491 311.9014,-944.5491 315.9014,-950.5491 311.9015,-956.5491"/>
<text text-anchor="middle" x="324.4014" y="-977" font-family="Helvetica,sans-Serif" font-size="10.00" fill="#000000"> +itg</text>
</g>
<!-- Node6&#45;&gt;Node11 -->
<g id="edge16" class="edge">
<title>Node6&#45;&gt;Node11</title>
<path fill="none" stroke="#404040" d="M302.4847,-1014.3164C295.1195,-996.5852 283.0412,-974.9938 264.9014,-963 238.9201,-945.8216 146.4627,-968.3956 125.9014,-945 63.7013,-874.2259 97.5377,-822.8517 125.9014,-733 131.0472,-716.699 138.4569,-700.6113 147.0714,-685.2562"/>
<polygon fill="none" stroke="#404040" points="147.1578,-685.1083 146.7332,-677.9097 153.2147,-674.7491 153.6394,-681.9477 147.1578,-685.1083"/>
<text text-anchor="middle" x="138.4014" y="-836.5" font-family="Helvetica,sans-Serif" font-size="10.00" fill="#000000"> +itg</text>
</g>
<!-- Node7 -->
<g id="node6" class="node">
<title>Node7</title>
<polygon fill="none" stroke="#bfbfbf" points="609.9014,-1014.5 609.9014,-1071.5 647.9014,-1071.5 647.9014,-1014.5 609.9014,-1014.5"/>
<text text-anchor="middle" x="628.9014" y="-1059.5" font-family="Helvetica,sans-Serif" font-size="10.00" fill="#000000">char</text>
<polyline fill="none" stroke="#bfbfbf" points="609.9014,-1052.5 647.9014,-1052.5 "/>
<text text-anchor="middle" x="628.9014" y="-1040.5" font-family="Helvetica,sans-Serif" font-size="10.00" fill="#000000"> </text>
<polyline fill="none" stroke="#bfbfbf" points="609.9014,-1033.5 647.9014,-1033.5 "/>
<text text-anchor="middle" x="628.9014" y="-1021.5" font-family="Helvetica,sans-Serif" font-size="10.00" fill="#000000"> </text>
</g>
<!-- Node7&#45;&gt;Node3 -->
<g id="edge13" class="edge">
<title>Node7&#45;&gt;Node3</title>
<path fill="none" stroke="#404040" d="M648.0827,-1021.9113C663.7235,-1003.2271 684.6813,-974.4173 693.9014,-945 756.5788,-745.0238 747.6985,-495.7591 736.3767,-361.8125"/>
<polygon fill="none" stroke="#404040" points="736.3551,-361.5643 731.8484,-355.935 735.3113,-349.6098 739.8181,-355.2391 736.3551,-361.5643"/>
<text text-anchor="middle" x="773.9014" y="-701.5" font-family="Helvetica,sans-Serif" font-size="10.00" fill="#000000"> +magicString</text>
</g>
<!-- Node7&#45;&gt;Node4 -->
<g id="edge5" class="edge">
<title>Node7&#45;&gt;Node4</title>
<path fill="none" stroke="#404040" d="M638.2872,-1014.13C655.0113,-957.4689 684.5011,-828.8806 642.9014,-733 629.1734,-701.3592 611.1349,-701.2923 581.1925,-674.7694"/>
<polygon fill="none" stroke="#404040" points="581.1741,-674.7521 574.0619,-673.5617 572.4252,-666.5387 579.5374,-667.7291 581.1741,-674.7521"/>
<text text-anchor="middle" x="677.4014" y="-836.5" font-family="Helvetica,sans-Serif" font-size="10.00" fill="#000000"> +str</text>
</g>
<!-- Node7&#45;&gt;Node9 -->
<g id="edge10" class="edge">
<title>Node7&#45;&gt;Node9</title>
<path fill="none" stroke="#404040" d="M609.8586,-1035.9145C556.3703,-1015.9166 407.449,-959.5475 388.9014,-945 387.0222,-943.5261 385.1676,-941.9947 383.3387,-940.4131"/>
<polygon fill="none" stroke="#404040" points="383.2049,-940.2888 376.0868,-939.1346 374.4145,-932.12 381.5326,-933.2743 383.2049,-940.2888"/>
<text text-anchor="middle" x="516.4014" y="-977" font-family="Helvetica,sans-Serif" font-size="10.00" fill="#000000"> +str</text>
</g>
<!-- Node7&#45;&gt;Node11 -->
<g id="edge17" class="edge">
<title>Node7&#45;&gt;Node11</title>
<path fill="none" stroke="#404040" d="M609.5371,-1028.1272C588.5967,-1010.7592 556.2861,-979.9199 541.9014,-945 531.2201,-919.0707 547.087,-713.4531 527.9014,-693 504.9329,-668.5141 408.966,-687.7319 377.9014,-675 367.3687,-670.6831 356.9555,-665.3255 346.8569,-659.3292"/>
<polygon fill="none" stroke="#404040" points="346.6478,-659.1993 339.4404,-659.4303 336.4551,-652.8661 343.6626,-652.6351 346.6478,-659.1993"/>
<text text-anchor="middle" x="554.4014" y="-836.5" font-family="Helvetica,sans-Serif" font-size="10.00" fill="#000000"> +str</text>
</g>
<!-- Node8 -->
<g id="node7" class="node">
<title>Node8</title>
<polygon fill="none" stroke="#bfbfbf" points="158.4014,-1014.5 158.4014,-1071.5 187.4014,-1071.5 187.4014,-1014.5 158.4014,-1014.5"/>
<text text-anchor="middle" x="172.9014" y="-1059.5" font-family="Helvetica,sans-Serif" font-size="10.00" fill="#000000">int</text>
<polyline fill="none" stroke="#bfbfbf" points="158.4014,-1052.5 187.4014,-1052.5 "/>
<text text-anchor="middle" x="172.9014" y="-1040.5" font-family="Helvetica,sans-Serif" font-size="10.00" fill="#000000"> </text>
<polyline fill="none" stroke="#bfbfbf" points="158.4014,-1033.5 187.4014,-1033.5 "/>
<text text-anchor="middle" x="172.9014" y="-1021.5" font-family="Helvetica,sans-Serif" font-size="10.00" fill="#000000"> </text>
</g>
<!-- Node8&#45;&gt;Node4 -->
<g id="edge6" class="edge">
<title>Node8&#45;&gt;Node4</title>
<path fill="none" stroke="#404040" d="M169.9887,-1014.393C162.9185,-937.6687 148.9627,-730.5886 199.9014,-693 252.1541,-654.4417 284.9522,-699.9636 344.9014,-675 355.8363,-670.4466 366.6302,-664.7515 377.0633,-658.3792"/>
<polygon fill="none" stroke="#404040" points="377.2545,-658.2572 380.1583,-651.6566 387.368,-651.7984 384.4642,-658.399 377.2545,-658.2572"/>
<text text-anchor="middle" x="205.9014" y="-847.5" font-family="Helvetica,sans-Serif" font-size="10.00" fill="#000000"> +arraySize</text>
<text text-anchor="middle" x="205.9014" y="-836.5" font-family="Helvetica,sans-Serif" font-size="10.00" fill="#000000">+size</text>
<text text-anchor="middle" x="205.9014" y="-825.5" font-family="Helvetica,sans-Serif" font-size="10.00" fill="#000000">+bitcount</text>
</g>
<!-- Node8&#45;&gt;Node9 -->
<g id="edge11" class="edge">
<title>Node8&#45;&gt;Node9</title>
<path fill="none" stroke="#404040" d="M187.5141,-1021.554C200.8529,-1001.9777 221.5974,-971.5325 242.3482,-941.078"/>
<polygon fill="none" stroke="#404040" points="242.618,-940.6821 242.6909,-933.4713 249.375,-930.7653 249.3021,-937.9761 242.618,-940.6821"/>
<text text-anchor="middle" x="254.9014" y="-988" font-family="Helvetica,sans-Serif" font-size="10.00" fill="#000000"> +arraySize</text>
<text text-anchor="middle" x="254.9014" y="-977" font-family="Helvetica,sans-Serif" font-size="10.00" fill="#000000">+size</text>
<text text-anchor="middle" x="254.9014" y="-966" font-family="Helvetica,sans-Serif" font-size="10.00" fill="#000000">+bitcount</text>
</g>
<!-- Node8&#45;&gt;Node11 -->
<g id="edge18" class="edge">
<title>Node8&#45;&gt;Node11</title>
<path fill="none" stroke="#404040" d="M158.221,-1038.0765C127.9398,-1027.023 59.1095,-997.045 31.9014,-945 -11.7509,-861.4997 -9.3136,-817.7299 31.9014,-733 53.8943,-687.7868 95.0546,-651.3417 135.0703,-624.3957"/>
<polygon fill="none" stroke="#404040" points="135.1712,-624.3296 137.9958,-617.6947 145.2067,-617.7502 142.3821,-624.3851 135.1712,-624.3296"/>
<text text-anchor="middle" x="60.9014" y="-847.5" font-family="Helvetica,sans-Serif" font-size="10.00" fill="#000000"> +arraySize</text>
<text text-anchor="middle" x="60.9014" y="-836.5" font-family="Helvetica,sans-Serif" font-size="10.00" fill="#000000">+size</text>
<text text-anchor="middle" x="60.9014" y="-825.5" font-family="Helvetica,sans-Serif" font-size="10.00" fill="#000000">+bitcount</text>
</g>
<!-- Node9&#45;&gt;Node4 -->
<g id="edge7" class="edge">
<title>Node9&#45;&gt;Node4</title>
<path fill="none" stroke="#ffa500" d="M379.9686,-729.6063C391.2661,-711.4496 402.9627,-692.6515 414.2001,-674.5914"/>
<polygon fill="#ffa500" stroke="#ffa500" points="376.7697,-728.1223 374.4584,-738.462 382.7131,-731.8205 376.7697,-728.1223"/>
<text text-anchor="start" x="401.9014" y="-707" font-family="Helvetica,sans-Serif" font-size="10.00" fill="#000000"> &lt; gSizeHeaderDescription</text>
<text text-anchor="middle" x="467.9014" y="-696" font-family="Helvetica,sans-Serif" font-size="10.00" fill="#000000">String &gt;</text>
</g>
<!-- Node9&#45;&gt;Node11 -->
<g id="edge19" class="edge">
<title>Node9&#45;&gt;Node11</title>
<path fill="none" stroke="#ffa500" d="M242.662,-741.0655C240.1023,-738.2966 237.5129,-735.6006 234.9014,-733 225.1997,-723.3391 216.1434,-727.1858 209.9014,-715 203.463,-702.4308 201.171,-688.5963 201.5517,-674.6048"/>
<polygon fill="#ffa500" stroke="#ffa500" points="240.0848,-743.4341 249.3626,-748.55 245.3001,-738.765 240.0848,-743.4341"/>
<text text-anchor="start" x="209.9014" y="-707" font-family="Helvetica,sans-Serif" font-size="10.00" fill="#000000"> &lt; gSizeSerializationMethod</text>
<text text-anchor="middle" x="278.9014" y="-696" font-family="Helvetica,sans-Serif" font-size="10.00" fill="#000000">String &gt;</text>
</g>
<!-- Node10 -->
<g id="node9" class="node">
<title>Node10</title>
<polygon fill="none" stroke="#bfbfbf" points="590.4014,-540.5 590.4014,-597.5 697.4014,-597.5 697.4014,-540.5 590.4014,-540.5"/>
<text text-anchor="middle" x="643.9014" y="-585.5" font-family="Helvetica,sans-Serif" font-size="10.00" fill="#000000">anonymous:+@80</text>
<polyline fill="none" stroke="#bfbfbf" points="590.4014,-578.5 697.4014,-578.5 "/>
<text text-anchor="middle" x="643.9014" y="-566.5" font-family="Helvetica,sans-Serif" font-size="10.00" fill="#000000"> </text>
<polyline fill="none" stroke="#bfbfbf" points="590.4014,-559.5 697.4014,-559.5 "/>
<text text-anchor="middle" x="643.9014" y="-547.5" font-family="Helvetica,sans-Serif" font-size="10.00" fill="#000000"> </text>
</g>
<!-- Node10&#45;&gt;Node3 -->
<g id="edge12" class="edge">
<title>Node10&#45;&gt;Node3</title>
<path fill="none" stroke="#404040" d="M646.2644,-540.4675C650.0856,-500.9797 659.1675,-427.7762 677.9014,-368 678.6147,-365.7239 679.3689,-363.4334 680.1585,-361.1349"/>
<polygon fill="none" stroke="#404040" points="680.2529,-360.8765 678.5576,-353.8675 684.3754,-349.6068 686.0707,-356.6158 680.2529,-360.8765"/>
<text text-anchor="middle" x="694.9014" y="-404" font-family="Helvetica,sans-Serif" font-size="10.00" fill="#000000"> +@80</text>
</g>
<!-- Node11&#45;&gt;Node3 -->
<g id="edge14" class="edge">
<title>Node11&#45;&gt;Node3</title>
<path fill="none" stroke="#404040" d="M336.5015,-468.844C373.8324,-433.6569 418.5345,-395.9653 463.9014,-368 514.6894,-336.6931 576.7061,-312.0291 627.6512,-294.8015"/>
<polygon fill="none" stroke="#404040" points="627.9577,-294.6996 632.3882,-289.0101 639.3441,-290.9115 634.9136,-296.601 627.9577,-294.6996"/>
<text text-anchor="middle" x="499.9014" y="-404" font-family="Helvetica,sans-Serif" font-size="10.00" fill="#000000"> +serialization</text>
</g>
<!-- Node12 -->
<g id="node11" class="node">
<title>Node12</title>
<g id="a_node11"><a xlink:href="../../d3/d87/classuint32__t.html" target="_top" xlink:title="{uint32_t\n||}">
<polygon fill="none" stroke="#000000" points="753.9014,-540.5 753.9014,-597.5 809.9014,-597.5 809.9014,-540.5 753.9014,-540.5"/>
<text text-anchor="middle" x="781.9014" y="-585.5" font-family="Helvetica,sans-Serif" font-size="10.00" fill="#000000">uint32_t</text>
<polyline fill="none" stroke="#000000" points="753.9014,-578.5 809.9014,-578.5 "/>
<text text-anchor="middle" x="781.9014" y="-566.5" font-family="Helvetica,sans-Serif" font-size="10.00" fill="#000000"> </text>
<polyline fill="none" stroke="#000000" points="753.9014,-559.5 809.9014,-559.5 "/>
<text text-anchor="middle" x="781.9014" y="-547.5" font-family="Helvetica,sans-Serif" font-size="10.00" fill="#000000"> </text>
</a>
</g>
</g>
<!-- Node12&#45;&gt;Node3 -->
<g id="edge20" class="edge">
<title>Node12&#45;&gt;Node3</title>
<path fill="none" stroke="#404040" d="M776.633,-540.4945C769.1412,-499.9586 755.0498,-423.7139 743.616,-361.8486"/>
<polygon fill="none" stroke="#404040" points="743.5483,-361.4823 738.5245,-356.3092 741.3674,-349.6821 746.3912,-354.8552 743.5483,-361.4823"/>
<text text-anchor="middle" x="805.4014" y="-437" font-family="Helvetica,sans-Serif" font-size="10.00" fill="#000000"> +headerVersion</text>
<text text-anchor="middle" x="805.4014" y="-426" font-family="Helvetica,sans-Serif" font-size="10.00" fill="#000000">+headerSize</text>
<text text-anchor="middle" x="805.4014" y="-415" font-family="Helvetica,sans-Serif" font-size="10.00" fill="#000000">+sMagicString</text>
<text text-anchor="middle" x="805.4014" y="-404" font-family="Helvetica,sans-Serif" font-size="10.00" fill="#000000">+flagsNextHeader</text>
<text text-anchor="middle" x="805.4014" y="-393" font-family="Helvetica,sans-Serif" font-size="10.00" fill="#000000">+magicStringInt</text>
<text text-anchor="middle" x="805.4014" y="-382" font-family="Helvetica,sans-Serif" font-size="10.00" fill="#000000">+flagsUnused</text>
<text text-anchor="middle" x="805.4014" y="-371" font-family="Helvetica,sans-Serif" font-size="10.00" fill="#000000">+flags</text>
</g>
<!-- Node13 -->
<g id="node12" class="node">
<title>Node13</title>
<polygon fill="none" stroke="#bfbfbf" points="828.4014,-540.5 828.4014,-597.5 935.4014,-597.5 935.4014,-540.5 828.4014,-540.5"/>
<text text-anchor="middle" x="881.9014" y="-585.5" font-family="Helvetica,sans-Serif" font-size="10.00" fill="#000000">anonymous:+@82</text>
<polyline fill="none" stroke="#bfbfbf" points="828.4014,-578.5 935.4014,-578.5 "/>
<text text-anchor="middle" x="881.9014" y="-566.5" font-family="Helvetica,sans-Serif" font-size="10.00" fill="#000000"> </text>
<polyline fill="none" stroke="#bfbfbf" points="828.4014,-559.5 935.4014,-559.5 "/>
<text text-anchor="middle" x="881.9014" y="-547.5" font-family="Helvetica,sans-Serif" font-size="10.00" fill="#000000"> </text>
</g>
<!-- Node13&#45;&gt;Node3 -->
<g id="edge21" class="edge">
<title>Node13&#45;&gt;Node3</title>
<path fill="none" stroke="#404040" d="M885.6715,-540.1797C889.5745,-498.3756 890.8166,-420.2178 854.9014,-368 846.9871,-356.4933 838.8194,-358.3253 822.9229,-349.7424"/>
<polygon fill="none" stroke="#404040" points="822.7926,-349.6611 815.5847,-349.8764 812.6136,-343.3058 819.8215,-343.0905 822.7926,-349.6611"/>
<text text-anchor="middle" x="899.9014" y="-404" font-family="Helvetica,sans-Serif" font-size="10.00" fill="#000000"> +@82</text>
</g>
<!-- Node14 -->
<g id="node13" class="node">
<title>Node14</title>
<polygon fill="none" stroke="#bfbfbf" points="953.4014,-540.5 953.4014,-597.5 996.4014,-597.5 996.4014,-540.5 953.4014,-540.5"/>
<text text-anchor="middle" x="974.9014" y="-585.5" font-family="Helvetica,sans-Serif" font-size="10.00" fill="#000000">const</text>
<polyline fill="none" stroke="#bfbfbf" points="953.4014,-578.5 996.4014,-578.5 "/>
<text text-anchor="middle" x="974.9014" y="-566.5" font-family="Helvetica,sans-Serif" font-size="10.00" fill="#000000"> </text>
<polyline fill="none" stroke="#bfbfbf" points="953.4014,-559.5 996.4014,-559.5 "/>
<text text-anchor="middle" x="974.9014" y="-547.5" font-family="Helvetica,sans-Serif" font-size="10.00" fill="#000000"> </text>
</g>
<!-- Node14&#45;&gt;Node3 -->
<g id="edge22" class="edge">
<title>Node14&#45;&gt;Node3</title>
<path fill="none" stroke="#404040" d="M976.0999,-540.2141C976.2397,-496.2534 969.5487,-412.7861 920.9014,-368 890.5703,-340.0763 866.2605,-364.8486 823.65,-349.7518"/>
<polygon fill="none" stroke="#404040" points="823.4604,-349.6717 816.3763,-351.0192 812.4078,-344.9983 819.4919,-343.6508 823.4604,-349.6717"/>
<text text-anchor="middle" x="1019.4014" y="-415" font-family="Helvetica,sans-Serif" font-size="10.00" fill="#000000"> +sHeaderType</text>
<text text-anchor="middle" x="1019.4014" y="-404" font-family="Helvetica,sans-Serif" font-size="10.00" fill="#000000">+sSerializationMethod</text>
<text text-anchor="middle" x="1019.4014" y="-393" font-family="Helvetica,sans-Serif" font-size="10.00" fill="#000000">+sVersion</text>
</g>
<!-- Node15 -->
<g id="node14" class="node">
<title>Node15</title>
<polygon fill="none" stroke="#bfbfbf" points="830.9014,-237.5 830.9014,-294.5 874.9014,-294.5 874.9014,-237.5 830.9014,-237.5"/>
<text text-anchor="middle" x="852.9014" y="-282.5" font-family="Helvetica,sans-Serif" font-size="10.00" fill="#000000">static</text>
<polyline fill="none" stroke="#bfbfbf" points="830.9014,-275.5 874.9014,-275.5 "/>
<text text-anchor="middle" x="852.9014" y="-263.5" font-family="Helvetica,sans-Serif" font-size="10.00" fill="#000000"> </text>
<polyline fill="none" stroke="#bfbfbf" points="830.9014,-256.5 874.9014,-256.5 "/>
<text text-anchor="middle" x="852.9014" y="-244.5" font-family="Helvetica,sans-Serif" font-size="10.00" fill="#000000"> </text>
</g>
<!-- Node15&#45;&gt;Node2 -->
<g id="edge23" class="edge">
<title>Node15&#45;&gt;Node2</title>
<path fill="none" stroke="#404040" d="M848.519,-237.3092C844.117,-208.4899 837.1696,-163.0057 831.3443,-124.8682"/>
<polygon fill="none" stroke="#404040" points="831.309,-124.6369 826.4489,-119.3097 829.497,-112.7745 834.3572,-118.1017 831.309,-124.6369"/>
<text text-anchor="middle" x="892.4014" y="-156" font-family="Helvetica,sans-Serif" font-size="10.00" fill="#000000"> +sHeaderType</text>
<text text-anchor="middle" x="892.4014" y="-145" font-family="Helvetica,sans-Serif" font-size="10.00" fill="#000000">+sSerializationMethod</text>
<text text-anchor="middle" x="892.4014" y="-134" font-family="Helvetica,sans-Serif" font-size="10.00" fill="#000000">+sVersion</text>
</g>
</g>
</svg>
