<?xml version="1.0" encoding="UTF-8" standalone="no"?>
<!DOCTYPE svg PUBLIC "-//W3C//DTD SVG 1.1//EN"
 "http://www.w3.org/Graphics/SVG/1.1/DTD/svg11.dtd">
<!-- Generated by graphviz version 2.40.1 (20161225.0304)
 -->
<!-- Title: o2::header::DataIdentifier Pages: 1 -->
<!--zoomable 777 -->
<svg id="main" version="1.1" xmlns="http://www.w3.org/2000/svg" xmlns:xlink="http://www.w3.org/1999/xlink" xml:space="preserve" onload="init(evt)">
<style type="text/css"><![CDATA[
.edge:hover path { stroke: red; }
.edge:hover polygon { stroke: red; fill: red; }
]]></style>
<script type="text/javascript"><![CDATA[
var edges = document.getElementsByTagName('g');
if (edges && edges.length) {
  for (var i=0;i<edges.length;i++) {
    if (edges[i].id.substr(0,4)=='edge') {
      edges[i].setAttribute('class','edge');
    }
  }
}
]]></script>
        <defs>
                <circle id="rim" cx="0" cy="0" r="7"/>
                <circle id="rim2" cx="0" cy="0" r="3.5"/>
                <g id="zoomPlus">
                        <use xlink:href="#rim" fill="#404040">
                                <set attributeName="fill" to="#808080" begin="zoomplus.mouseover" end="zoomplus.mouseout"/>
                        </use>
                        <path d="M-4,0h8M0,-4v8" fill="none" stroke="white" stroke-width="1.5" pointer-events="none"/>
                </g>
                <g id="zoomMin">
                        <use xlink:href="#rim" fill="#404040">
                                <set attributeName="fill" to="#808080" begin="zoomminus.mouseover" end="zoomminus.mouseout"/>
                        </use>
                        <path d="M-4,0h8" fill="none" stroke="white" stroke-width="1.5" pointer-events="none"/>
                </g>
                <g id="dirArrow">
                        <path fill="none" stroke="white" stroke-width="1.5" d="M0,-3.0v7 M-2.5,-0.5L0,-3.0L2.5,-0.5"/>
                </g>
               <g id="resetDef">
                       <use xlink:href="#rim2" fill="#404040">
                               <set attributeName="fill" to="#808080" begin="reset.mouseover" end="reset.mouseout"/>
                       </use>
               </g>
        </defs>

<script type="text/javascript">
var viewWidth = 697;
var viewHeight = 777;
var sectionId = 'dynsection-0';
</script>
<script xlink:href="../../svgpan.js"/>
<svg id="graph" class="graph">
<g id="viewport">
<title>o2::header::DataIdentifier</title>
<!-- Node1 -->
<g id="node1" class="node">
<title>Node1</title>
<polygon fill="#bfbfbf" stroke="#000000" points="191.2962,-.5 191.2962,-101.5 332.2962,-101.5 332.2962,-.5 191.2962,-.5"/>
<text text-anchor="middle" x="261.7962" y="-89.5" font-family="Helvetica,sans-Serif" font-size="10.00" fill="#000000">o2::header::DataIdentifier</text>
<polyline fill="none" stroke="#000000" points="191.2962,-82.5 332.2962,-82.5 "/>
<text text-anchor="middle" x="261.7962" y="-70.5" font-family="Helvetica,sans-Serif" font-size="10.00" fill="#000000"> </text>
<polyline fill="none" stroke="#000000" points="191.2962,-63.5 332.2962,-63.5 "/>
<text text-anchor="start" x="199.2962" y="-51.5" font-family="Helvetica,sans-Serif" font-size="10.00" fill="#000000">+ DataIdentifier()</text>
<text text-anchor="start" x="199.2962" y="-40.5" font-family="Helvetica,sans-Serif" font-size="10.00" fill="#000000">+ DataIdentifier()</text>
<text text-anchor="start" x="199.2962" y="-29.5" font-family="Helvetica,sans-Serif" font-size="10.00" fill="#000000">+ DataIdentifier()</text>
<text text-anchor="start" x="199.2962" y="-18.5" font-family="Helvetica,sans-Serif" font-size="10.00" fill="#000000">+ operator==()</text>
<text text-anchor="start" x="199.2962" y="-7.5" font-family="Helvetica,sans-Serif" font-size="10.00" fill="#000000">+ print()</text>
</g>
<!-- Node2 -->
<g id="node2" class="node">
<title>Node2</title>
<g id="a_node2"><a xlink:href="../../d9/db3/structo2_1_1header_1_1Descriptor.html" target="_top" xlink:title="{o2::header::Descriptor\l\&lt; gSizeDataOriginString,\l printDataOrigin \&gt;\n||+ Descriptor()\l+ Descriptor()\l+ Descriptor()\l+ Descriptor()\l+ operator=()\l+ operator ItgType()\l+ runtimeInit()\l+ operator==()\l+ operator==()\l+ operator\&lt;()\l+ operator!=()\l+ operator!=()\l+ as()\l+ print()\l}">
<polygon fill="none" stroke="#000000" points="108.7962,-149.5 108.7962,-371.5 246.7962,-371.5 246.7962,-149.5 108.7962,-149.5"/>
<text text-anchor="start" x="116.7962" y="-359.5" font-family="Helvetica,sans-Serif" font-size="10.00" fill="#000000">o2::header::Descriptor</text>
<text text-anchor="start" x="116.7962" y="-348.5" font-family="Helvetica,sans-Serif" font-size="10.00" fill="#000000">&lt; gSizeDataOriginString,</text>
<text text-anchor="middle" x="177.7962" y="-337.5" font-family="Helvetica,sans-Serif" font-size="10.00" fill="#000000"> printDataOrigin &gt;</text>
<polyline fill="none" stroke="#000000" points="108.7962,-330.5 246.7962,-330.5 "/>
<text text-anchor="middle" x="177.7962" y="-318.5" font-family="Helvetica,sans-Serif" font-size="10.00" fill="#000000"> </text>
<polyline fill="none" stroke="#000000" points="108.7962,-311.5 246.7962,-311.5 "/>
<text text-anchor="start" x="116.7962" y="-299.5" font-family="Helvetica,sans-Serif" font-size="10.00" fill="#000000">+ Descriptor()</text>
<text text-anchor="start" x="116.7962" y="-288.5" font-family="Helvetica,sans-Serif" font-size="10.00" fill="#000000">+ Descriptor()</text>
<text text-anchor="start" x="116.7962" y="-277.5" font-family="Helvetica,sans-Serif" font-size="10.00" fill="#000000">+ Descriptor()</text>
<text text-anchor="start" x="116.7962" y="-266.5" font-family="Helvetica,sans-Serif" font-size="10.00" fill="#000000">+ Descriptor()</text>
<text text-anchor="start" x="116.7962" y="-255.5" font-family="Helvetica,sans-Serif" font-size="10.00" fill="#000000">+ operator=()</text>
<text text-anchor="start" x="116.7962" y="-244.5" font-family="Helvetica,sans-Serif" font-size="10.00" fill="#000000">+ operator ItgType()</text>
<text text-anchor="start" x="116.7962" y="-233.5" font-family="Helvetica,sans-Serif" font-size="10.00" fill="#000000">+ runtimeInit()</text>
<text text-anchor="start" x="116.7962" y="-222.5" font-family="Helvetica,sans-Serif" font-size="10.00" fill="#000000">+ operator==()</text>
<text text-anchor="start" x="116.7962" y="-211.5" font-family="Helvetica,sans-Serif" font-size="10.00" fill="#000000">+ operator==()</text>
<text text-anchor="start" x="116.7962" y="-200.5" font-family="Helvetica,sans-Serif" font-size="10.00" fill="#000000">+ operator&lt;()</text>
<text text-anchor="start" x="116.7962" y="-189.5" font-family="Helvetica,sans-Serif" font-size="10.00" fill="#000000">+ operator!=()</text>
<text text-anchor="start" x="116.7962" y="-178.5" font-family="Helvetica,sans-Serif" font-size="10.00" fill="#000000">+ operator!=()</text>
<text text-anchor="start" x="116.7962" y="-167.5" font-family="Helvetica,sans-Serif" font-size="10.00" fill="#000000">+ as()</text>
<text text-anchor="start" x="116.7962" y="-156.5" font-family="Helvetica,sans-Serif" font-size="10.00" fill="#000000">+ print()</text>
</a>
</g>
</g>
<!-- Node2&#45;&gt;Node1 -->
<g id="edge1" class="edge">
<title>Node2&#45;&gt;Node1</title>
<path fill="none" stroke="#404040" d="M222.3788,-149.309C227.3853,-136.8224 232.3428,-124.4583 236.9651,-112.93"/>
<polygon fill="none" stroke="#404040" points="236.9992,-112.8449 235.5194,-105.7872 241.4651,-101.7068 242.9448,-108.7645 236.9992,-112.8449"/>
<text text-anchor="middle" x="263.2962" y="-123" font-family="Helvetica,sans-Serif" font-size="10.00" fill="#000000"> +dataOrigin</text>
</g>
<!-- Node3 -->
<g id="node3" class="node">
<title>Node3</title>
<polygon fill="none" stroke="#bfbfbf" points="53.2962,-711.5 53.2962,-768.5 160.2962,-768.5 160.2962,-711.5 53.2962,-711.5"/>
<text text-anchor="middle" x="106.7962" y="-756.5" font-family="Helvetica,sans-Serif" font-size="10.00" fill="#000000">anonymous:+@78</text>
<polyline fill="none" stroke="#bfbfbf" points="53.2962,-749.5 160.2962,-749.5 "/>
<text text-anchor="middle" x="106.7962" y="-737.5" font-family="Helvetica,sans-Serif" font-size="10.00" fill="#000000"> </text>
<polyline fill="none" stroke="#bfbfbf" points="53.2962,-730.5 160.2962,-730.5 "/>
<text text-anchor="middle" x="106.7962" y="-718.5" font-family="Helvetica,sans-Serif" font-size="10.00" fill="#000000"> </text>
</g>
<!-- Node3&#45;&gt;Node2 -->
<g id="edge2" class="edge">
<title>Node3&#45;&gt;Node2</title>
<path fill="none" stroke="#404040" d="M73.4895,-711.4342C55.3106,-693.5727 34.5653,-668.8986 24.7962,-642 -7.3682,-553.4377 -9.0246,-517.943 24.7962,-430 40.3375,-389.5885 70.4667,-352.8069 99.9074,-323.9135"/>
<polygon fill="none" stroke="#404040" points="99.9271,-323.8947 101.4915,-316.8553 108.5911,-315.5918 107.0267,-322.6312 99.9271,-323.8947"/>
<text text-anchor="middle" x="41.7962" y="-533.5" font-family="Helvetica,sans-Serif" font-size="10.00" fill="#000000"> +@78</text>
</g>
<!-- Node7 -->
<g id="node7" class="node">
<title>Node7</title>
<g id="a_node7"><a xlink:href="../../d9/db3/structo2_1_1header_1_1Descriptor.html" target="_top" xlink:title="{o2::header::Descriptor\l\&lt; N, PrinterPolicy \&gt;\n||+ Descriptor()\l+ Descriptor()\l+ Descriptor()\l+ operator=()\l+ operator ItgType()\l+ Descriptor()\l+ runtimeInit()\l+ operator==()\l+ operator\&lt;()\l+ operator!=()\l+ operator==()\l+ operator!=()\l+ as()\l+ print()\l}">
<polygon fill="none" stroke="#000000" points="257.2962,-430.5 257.2962,-641.5 382.2962,-641.5 382.2962,-430.5 257.2962,-430.5"/>
<text text-anchor="start" x="265.2962" y="-629.5" font-family="Helvetica,sans-Serif" font-size="10.00" fill="#000000">o2::header::Descriptor</text>
<text text-anchor="middle" x="319.7962" y="-618.5" font-family="Helvetica,sans-Serif" font-size="10.00" fill="#000000">&lt; N, PrinterPolicy &gt;</text>
<polyline fill="none" stroke="#000000" points="257.2962,-611.5 382.2962,-611.5 "/>
<text text-anchor="middle" x="319.7962" y="-599.5" font-family="Helvetica,sans-Serif" font-size="10.00" fill="#000000"> </text>
<polyline fill="none" stroke="#000000" points="257.2962,-592.5 382.2962,-592.5 "/>
<text text-anchor="start" x="265.2962" y="-580.5" font-family="Helvetica,sans-Serif" font-size="10.00" fill="#000000">+ Descriptor()</text>
<text text-anchor="start" x="265.2962" y="-569.5" font-family="Helvetica,sans-Serif" font-size="10.00" fill="#000000">+ Descriptor()</text>
<text text-anchor="start" x="265.2962" y="-558.5" font-family="Helvetica,sans-Serif" font-size="10.00" fill="#000000">+ Descriptor()</text>
<text text-anchor="start" x="265.2962" y="-547.5" font-family="Helvetica,sans-Serif" font-size="10.00" fill="#000000">+ operator=()</text>
<text text-anchor="start" x="265.2962" y="-536.5" font-family="Helvetica,sans-Serif" font-size="10.00" fill="#000000">+ operator ItgType()</text>
<text text-anchor="start" x="265.2962" y="-525.5" font-family="Helvetica,sans-Serif" font-size="10.00" fill="#000000">+ Descriptor()</text>
<text text-anchor="start" x="265.2962" y="-514.5" font-family="Helvetica,sans-Serif" font-size="10.00" fill="#000000">+ runtimeInit()</text>
<text text-anchor="start" x="265.2962" y="-503.5" font-family="Helvetica,sans-Serif" font-size="10.00" fill="#000000">+ operator==()</text>
<text text-anchor="start" x="265.2962" y="-492.5" font-family="Helvetica,sans-Serif" font-size="10.00" fill="#000000">+ operator&lt;()</text>
<text text-anchor="start" x="265.2962" y="-481.5" font-family="Helvetica,sans-Serif" font-size="10.00" fill="#000000">+ operator!=()</text>
<text text-anchor="start" x="265.2962" y="-470.5" font-family="Helvetica,sans-Serif" font-size="10.00" fill="#000000">+ operator==()</text>
<text text-anchor="start" x="265.2962" y="-459.5" font-family="Helvetica,sans-Serif" font-size="10.00" fill="#000000">+ operator!=()</text>
<text text-anchor="start" x="265.2962" y="-448.5" font-family="Helvetica,sans-Serif" font-size="10.00" fill="#000000">+ as()</text>
<text text-anchor="start" x="265.2962" y="-437.5" font-family="Helvetica,sans-Serif" font-size="10.00" fill="#000000">+ print()</text>
</a>
</g>
</g>
<!-- Node3&#45;&gt;Node7 -->
<g id="edge7" class="edge">
<title>Node3&#45;&gt;Node7</title>
<path fill="none" stroke="#404040" d="M135.8987,-711.2239C153.6164,-694.7668 177.3015,-674.5669 200.7962,-660 218.0566,-649.2984 226.9249,-654.6707 242.7962,-642 244.6627,-640.5099 246.5056,-638.9638 248.3237,-637.3686"/>
<polygon fill="none" stroke="#404040" points="248.4611,-637.2393 250.0911,-630.2148 257.2022,-629.0177 255.5722,-636.0422 248.4611,-637.2393"/>
<text text-anchor="middle" x="217.7962" y="-674" font-family="Helvetica,sans-Serif" font-size="10.00" fill="#000000"> +@78</text>
</g>
<!-- Node8 -->
<g id="node8" class="node">
<title>Node8</title>
<g id="a_node8"><a xlink:href="../../d9/db3/structo2_1_1header_1_1Descriptor.html" target="_top" xlink:title="{o2::header::Descriptor\l\&lt; gSizeDataDescriptionString,\l printDataDescription \&gt;\n||+ Descriptor()\l+ Descriptor()\l+ Descriptor()\l+ Descriptor()\l+ operator=()\l+ operator ItgType()\l+ runtimeInit()\l+ operator==()\l+ operator==()\l+ operator\&lt;()\l+ operator!=()\l+ operator!=()\l+ as()\l+ print()\l}">
<polygon fill="none" stroke="#000000" points="285.7962,-149.5 285.7962,-371.5 449.7962,-371.5 449.7962,-149.5 285.7962,-149.5"/>
<text text-anchor="start" x="293.7962" y="-359.5" font-family="Helvetica,sans-Serif" font-size="10.00" fill="#000000">o2::header::Descriptor</text>
<text text-anchor="start" x="293.7962" y="-348.5" font-family="Helvetica,sans-Serif" font-size="10.00" fill="#000000">&lt; gSizeDataDescriptionString,</text>
<text text-anchor="middle" x="367.7962" y="-337.5" font-family="Helvetica,sans-Serif" font-size="10.00" fill="#000000"> printDataDescription &gt;</text>
<polyline fill="none" stroke="#000000" points="285.7962,-330.5 449.7962,-330.5 "/>
<text text-anchor="middle" x="367.7962" y="-318.5" font-family="Helvetica,sans-Serif" font-size="10.00" fill="#000000"> </text>
<polyline fill="none" stroke="#000000" points="285.7962,-311.5 449.7962,-311.5 "/>
<text text-anchor="start" x="293.7962" y="-299.5" font-family="Helvetica,sans-Serif" font-size="10.00" fill="#000000">+ Descriptor()</text>
<text text-anchor="start" x="293.7962" y="-288.5" font-family="Helvetica,sans-Serif" font-size="10.00" fill="#000000">+ Descriptor()</text>
<text text-anchor="start" x="293.7962" y="-277.5" font-family="Helvetica,sans-Serif" font-size="10.00" fill="#000000">+ Descriptor()</text>
<text text-anchor="start" x="293.7962" y="-266.5" font-family="Helvetica,sans-Serif" font-size="10.00" fill="#000000">+ Descriptor()</text>
<text text-anchor="start" x="293.7962" y="-255.5" font-family="Helvetica,sans-Serif" font-size="10.00" fill="#000000">+ operator=()</text>
<text text-anchor="start" x="293.7962" y="-244.5" font-family="Helvetica,sans-Serif" font-size="10.00" fill="#000000">+ operator ItgType()</text>
<text text-anchor="start" x="293.7962" y="-233.5" font-family="Helvetica,sans-Serif" font-size="10.00" fill="#000000">+ runtimeInit()</text>
<text text-anchor="start" x="293.7962" y="-222.5" font-family="Helvetica,sans-Serif" font-size="10.00" fill="#000000">+ operator==()</text>
<text text-anchor="start" x="293.7962" y="-211.5" font-family="Helvetica,sans-Serif" font-size="10.00" fill="#000000">+ operator==()</text>
<text text-anchor="start" x="293.7962" y="-200.5" font-family="Helvetica,sans-Serif" font-size="10.00" fill="#000000">+ operator&lt;()</text>
<text text-anchor="start" x="293.7962" y="-189.5" font-family="Helvetica,sans-Serif" font-size="10.00" fill="#000000">+ operator!=()</text>
<text text-anchor="start" x="293.7962" y="-178.5" font-family="Helvetica,sans-Serif" font-size="10.00" fill="#000000">+ operator!=()</text>
<text text-anchor="start" x="293.7962" y="-167.5" font-family="Helvetica,sans-Serif" font-size="10.00" fill="#000000">+ as()</text>
<text text-anchor="start" x="293.7962" y="-156.5" font-family="Helvetica,sans-Serif" font-size="10.00" fill="#000000">+ print()</text>
</a>
</g>
</g>
<!-- Node3&#45;&gt;Node8 -->
<g id="edge12" class="edge">
<title>Node3&#45;&gt;Node8</title>
<path fill="none" stroke="#404040" d="M111.2813,-711.4013C123.1261,-636.6051 155.0046,-440.2392 164.7962,-430 189.086,-404.5999 211.8958,-430.4697 241.7962,-412 251.1632,-406.2139 263.7855,-393.7598 277.4338,-378.3565"/>
<polygon fill="none" stroke="#404040" points="277.7086,-378.0397 278.6184,-370.8862 285.5715,-368.9746 284.6618,-376.1281 277.7086,-378.0397"/>
<text text-anchor="middle" x="181.7962" y="-533.5" font-family="Helvetica,sans-Serif" font-size="10.00" fill="#000000"> +@78</text>
</g>
<!-- Node4 -->
<g id="node4" class="node">
<title>Node4</title>
<polygon fill="none" stroke="#bfbfbf" points="194.2962,-711.5 194.2962,-768.5 233.2962,-768.5 233.2962,-711.5 194.2962,-711.5"/>
<text text-anchor="middle" x="213.7962" y="-756.5" font-family="Helvetica,sans-Serif" font-size="10.00" fill="#000000">Type</text>
<polyline fill="none" stroke="#bfbfbf" points="194.2962,-749.5 233.2962,-749.5 "/>
<text text-anchor="middle" x="213.7962" y="-737.5" font-family="Helvetica,sans-Serif" font-size="10.00" fill="#000000"> </text>
<polyline fill="none" stroke="#bfbfbf" points="194.2962,-730.5 233.2962,-730.5 "/>
<text text-anchor="middle" x="213.7962" y="-718.5" font-family="Helvetica,sans-Serif" font-size="10.00" fill="#000000"> </text>
</g>
<!-- Node4&#45;&gt;Node2 -->
<g id="edge3" class="edge">
<title>Node4&#45;&gt;Node2</title>
<path fill="none" stroke="#404040" d="M206.576,-711.2028C200.7769,-693.8869 190.8785,-672.7936 174.7962,-660 146.9538,-637.851 118.9452,-669.8424 96.7962,-642 38.8235,-569.1254 66.5184,-464.4442 104.5661,-383.1643"/>
<polygon fill="none" stroke="#404040" points="104.8015,-382.6741 103.7927,-375.5339 109.9957,-371.8565 111.0044,-378.9967 104.8015,-382.6741"/>
<text text-anchor="middle" x="109.2962" y="-533.5" font-family="Helvetica,sans-Serif" font-size="10.00" fill="#000000"> +itg</text>
</g>
<!-- Node4&#45;&gt;Node7 -->
<g id="edge8" class="edge">
<title>Node4&#45;&gt;Node7</title>
<path fill="none" stroke="#404040" d="M228.7586,-711.2045C237.0469,-695.2534 247.9582,-674.2542 259.3377,-652.3542"/>
<polygon fill="none" stroke="#404040" points="259.4191,-652.1974 258.6361,-645.0289 264.9521,-641.5491 265.735,-648.7176 259.4191,-652.1974"/>
<text text-anchor="middle" x="266.2962" y="-674" font-family="Helvetica,sans-Serif" font-size="10.00" fill="#000000"> +itg</text>
</g>
<!-- Node4&#45;&gt;Node8 -->
<g id="edge13" class="edge">
<title>Node4&#45;&gt;Node8</title>
<path fill="none" stroke="#404040" d="M210.8496,-711.3802C204.4508,-643.4116 192.2612,-474.64 223.7962,-430 236.4632,-412.069 252.792,-425.8864 269.7962,-412 280.7902,-403.0218 290.9627,-392.4754 300.2599,-381.1974"/>
<polygon fill="none" stroke="#404040" points="300.4254,-380.9877 301.0048,-373.7999 307.8625,-371.5701 307.2832,-378.7579 300.4254,-380.9877"/>
<text text-anchor="middle" x="236.2962" y="-533.5" font-family="Helvetica,sans-Serif" font-size="10.00" fill="#000000"> +itg</text>
</g>
<!-- Node5 -->
<g id="node5" class="node">
<title>Node5</title>
<polygon fill="none" stroke="#bfbfbf" points="399.7962,-711.5 399.7962,-768.5 437.7962,-768.5 437.7962,-711.5 399.7962,-711.5"/>
<text text-anchor="middle" x="418.7962" y="-756.5" font-family="Helvetica,sans-Serif" font-size="10.00" fill="#000000">char</text>
<polyline fill="none" stroke="#bfbfbf" points="399.7962,-749.5 437.7962,-749.5 "/>
<text text-anchor="middle" x="418.7962" y="-737.5" font-family="Helvetica,sans-Serif" font-size="10.00" fill="#000000"> </text>
<polyline fill="none" stroke="#bfbfbf" points="399.7962,-730.5 437.7962,-730.5 "/>
<text text-anchor="middle" x="418.7962" y="-718.5" font-family="Helvetica,sans-Serif" font-size="10.00" fill="#000000"> </text>
</g>
<!-- Node5&#45;&gt;Node2 -->
<g id="edge4" class="edge">
<title>Node5&#45;&gt;Node2</title>
<path fill="none" stroke="#404040" d="M419.7572,-711.4782C421.5051,-643.727 422.5435,-475.4018 391.7962,-430 387.7839,-424.0753 282.4668,-376.364 276.7962,-372 269.7442,-366.5729 262.801,-360.5928 256.0645,-354.3062"/>
<polygon fill="none" stroke="#404040" points="255.6473,-353.9033 248.5527,-352.6122 247.0159,-345.5667 254.1105,-346.8578 255.6473,-353.9033"/>
<text text-anchor="middle" x="432.2962" y="-533.5" font-family="Helvetica,sans-Serif" font-size="10.00" fill="#000000"> +str</text>
</g>
<!-- Node5&#45;&gt;Node7 -->
<g id="edge9" class="edge">
<title>Node5&#45;&gt;Node7</title>
<path fill="none" stroke="#404040" d="M399.4169,-735.2349C368.5569,-727.2109 310.5238,-710.1884 298.7962,-693 290.8245,-681.3164 286.9037,-667.9901 285.7278,-654.1529"/>
<polygon fill="none" stroke="#404040" points="285.7201,-653.8846 281.5459,-648.0044 285.3683,-641.8897 289.5425,-647.7699 285.7201,-653.8846"/>
<text text-anchor="middle" x="311.2962" y="-674" font-family="Helvetica,sans-Serif" font-size="10.00" fill="#000000"> +str</text>
</g>
<!-- Node5&#45;&gt;Node8 -->
<g id="edge14" class="edge">
<title>Node5&#45;&gt;Node8</title>
<path fill="none" stroke="#404040" d="M438.011,-725.3904C471.8906,-699.5344 538.9666,-647.8725 541.7962,-642 582.6965,-557.1178 578.4229,-516.8119 541.7962,-430 524.4883,-388.9771 491.8615,-352.9615 459.4952,-324.8005"/>
<polygon fill="none" stroke="#404040" points="459.086,-324.4536 451.9227,-323.6245 449.9329,-316.6933 457.0962,-317.5224 459.086,-324.4536"/>
<text text-anchor="middle" x="583.2962" y="-533.5" font-family="Helvetica,sans-Serif" font-size="10.00" fill="#000000"> +str</text>
</g>
<!-- Node6 -->
<g id="node6" class="node">
<title>Node6</title>
<polygon fill="none" stroke="#bfbfbf" points="465.2962,-711.5 465.2962,-768.5 494.2962,-768.5 494.2962,-711.5 465.2962,-711.5"/>
<text text-anchor="middle" x="479.7962" y="-756.5" font-family="Helvetica,sans-Serif" font-size="10.00" fill="#000000">int</text>
<polyline fill="none" stroke="#bfbfbf" points="465.2962,-749.5 494.2962,-749.5 "/>
<text text-anchor="middle" x="479.7962" y="-737.5" font-family="Helvetica,sans-Serif" font-size="10.00" fill="#000000"> </text>
<polyline fill="none" stroke="#bfbfbf" points="465.2962,-730.5 494.2962,-730.5 "/>
<text text-anchor="middle" x="479.7962" y="-718.5" font-family="Helvetica,sans-Serif" font-size="10.00" fill="#000000"> </text>
</g>
<!-- Node6&#45;&gt;Node2 -->
<g id="edge5" class="edge">
<title>Node6&#45;&gt;Node2</title>
<path fill="none" stroke="#404040" d="M478.7276,-711.3379C475.7688,-638.672 466.495,-451.466 448.7962,-430 431.0852,-408.5191 414.4701,-422.7686 388.7962,-412 370.0861,-404.1523 367.6836,-397.4108 348.7962,-390 318.0904,-377.952 305.0051,-389.0956 276.7962,-372 269.7309,-367.7182 262.8886,-362.7711 256.3235,-357.3911"/>
<polygon fill="none" stroke="#404040" points="255.9749,-357.0888 248.8213,-356.1793 246.9095,-349.2263 254.063,-350.1357 255.9749,-357.0888"/>
<text text-anchor="middle" x="503.7962" y="-544.5" font-family="Helvetica,sans-Serif" font-size="10.00" fill="#000000"> +arraySize</text>
<text text-anchor="middle" x="503.7962" y="-533.5" font-family="Helvetica,sans-Serif" font-size="10.00" fill="#000000">+size</text>
<text text-anchor="middle" x="503.7962" y="-522.5" font-family="Helvetica,sans-Serif" font-size="10.00" fill="#000000">+bitcount</text>
</g>
<!-- Node6&#45;&gt;Node7 -->
<g id="edge10" class="edge">
<title>Node6&#45;&gt;Node7</title>
<path fill="none" stroke="#404040" d="M465.091,-725.4509C459.6237,-720.4934 453.1898,-715.1587 446.7962,-711 430.7932,-700.5909 421.8143,-705.9591 407.7962,-693 394.933,-681.1086 383.4835,-666.8959 373.4452,-651.9491"/>
<polygon fill="none" stroke="#404040" points="373.2164,-651.5937 366.6054,-648.7137 366.7211,-641.5035 373.3322,-644.3835 373.2164,-651.5937"/>
<text text-anchor="middle" x="436.7962" y="-685" font-family="Helvetica,sans-Serif" font-size="10.00" fill="#000000"> +arraySize</text>
<text text-anchor="middle" x="436.7962" y="-674" font-family="Helvetica,sans-Serif" font-size="10.00" fill="#000000">+size</text>
<text text-anchor="middle" x="436.7962" y="-663" font-family="Helvetica,sans-Serif" font-size="10.00" fill="#000000">+bitcount</text>
</g>
<!-- Node6&#45;&gt;Node8 -->
<g id="edge15" class="edge">
<title>Node6&#45;&gt;Node8</title>
<path fill="none" stroke="#404040" d="M494.3956,-733.4361C521.2278,-720.4546 577.6595,-688.6591 599.7962,-642 640.1837,-556.8726 642.4608,-514.0093 599.7962,-430 570.6431,-372.5957 511.9135,-329.9893 460.8416,-301.8511"/>
<polygon fill="none" stroke="#404040" points="460.6443,-301.7452 453.4657,-302.4294 450.073,-296.0662 457.2516,-295.382 460.6443,-301.7452"/>
<text text-anchor="middle" x="659.7962" y="-544.5" font-family="Helvetica,sans-Serif" font-size="10.00" fill="#000000"> +arraySize</text>
<text text-anchor="middle" x="659.7962" y="-533.5" font-family="Helvetica,sans-Serif" font-size="10.00" fill="#000000">+size</text>
<text text-anchor="middle" x="659.7962" y="-522.5" font-family="Helvetica,sans-Serif" font-size="10.00" fill="#000000">+bitcount</text>
</g>
<!-- Node7&#45;&gt;Node2 -->
<g id="edge6" class="edge">
<title>Node7&#45;&gt;Node2</title>
<path fill="none" stroke="#ffa500" d="M249.2743,-434.6041C247.1569,-432.9907 244.9973,-431.4524 242.7962,-430 212.7395,-410.1661 186.254,-440.1503 163.7962,-412 154.4891,-400.3337 149.9721,-386.4374 148.5842,-371.8638"/>
<polygon fill="#ffa500" stroke="#ffa500" points="247.2919,-437.5062 257.2306,-441.1767 251.7501,-432.1095 247.2919,-437.5062"/>
<text text-anchor="start" x="163.7962" y="-404" font-family="Helvetica,sans-Serif" font-size="10.00" fill="#000000"> &lt; gSizeDataOriginString,</text>
<text text-anchor="middle" x="226.2962" y="-393" font-family="Helvetica,sans-Serif" font-size="10.00" fill="#000000"> printDataOrigin &gt;</text>
</g>
<!-- Node7&#45;&gt;Node8 -->
<g id="edge16" class="edge">
<title>Node7&#45;&gt;Node8</title>
<path fill="none" stroke="#ffa500" d="M340.2965,-420.5778C340.8023,-417.6899 341.3029,-414.8269 341.7962,-412 344.0672,-398.9868 346.4321,-385.3418 348.7696,-371.7959"/>
<polygon fill="#ffa500" stroke="#ffa500" points="336.8406,-420.0223 338.5597,-430.4767 343.7353,-421.2321 336.8406,-420.0223"/>
<text text-anchor="start" x="344.7962" y="-404" font-family="Helvetica,sans-Serif" font-size="10.00" fill="#000000"> &lt; gSizeDataDescriptionString,</text>
<text text-anchor="middle" x="420.2962" y="-393" font-family="Helvetica,sans-Serif" font-size="10.00" fill="#000000"> printDataDescription &gt;</text>
</g>
<!-- Node8&#45;&gt;Node1 -->
<g id="edge11" class="edge">
<title>Node8&#45;&gt;Node1</title>
<path fill="none" stroke="#404040" d="M313.7376,-149.4913C308.7319,-139.4962 303.6992,-129.549 298.7962,-120 297.5603,-117.5929 296.2929,-115.143 295.0063,-112.6715"/>
<polygon fill="none" stroke="#404040" points="294.8575,-112.3879 288.5274,-108.9338 289.2812,-101.7622 295.6112,-105.2162 294.8575,-112.3879"/>
<text text-anchor="middle" x="346.2962" y="-123" font-family="Helvetica,sans-Serif" font-size="10.00" fill="#000000"> +dataDescription</text>
</g>
</g>
</svg>
        <g id="navigator" transform="translate(0 0)" fill="#404254">
                <rect fill="#f2f5e9" fill-opacity="0.5" stroke="#606060" stroke-width=".5" x="0" y="0" width="60" height="60"/>
                <use id="zoomplus" xlink:href="#zoomPlus" x="17" y="9" onmousedown="handleZoom(evt,'in')"/>
                <use id="zoomminus" xlink:href="#zoomMin" x="42" y="9" onmousedown="handleZoom(evt,'out')"/>
                <use id="reset" xlink:href="#resetDef" x="30" y="36" onmousedown="handleReset()"/>
                <g id="arrowUp" xlink:href="#dirArrow" transform="translate(30 24)" onmousedown="handlePan(0,-1)">
                  <use xlink:href="#rim" fill="#404040">
                        <set attributeName="fill" to="#808080" begin="arrowUp.mouseover" end="arrowUp.mouseout"/>
                  </use>
                  <path fill="none" stroke="white" stroke-width="1.5" d="M0,-3.0v7 M-2.5,-0.5L0,-3.0L2.5,-0.5"/>
                </g>
                <g id="arrowRight" xlink:href="#dirArrow" transform="rotate(90) translate(36 -43)" onmousedown="handlePan(1,0)">
                  <use xlink:href="#rim" fill="#404040">
                        <set attributeName="fill" to="#808080" begin="arrowRight.mouseover" end="arrowRight.mouseout"/>
                  </use>
                  <path fill="none" stroke="white" stroke-width="1.5" d="M0,-3.0v7 M-2.5,-0.5L0,-3.0L2.5,-0.5"/>
                </g>
                <g id="arrowDown" xlink:href="#dirArrow" transform="rotate(180) translate(-30 -48)" onmousedown="handlePan(0,1)">
                  <use xlink:href="#rim" fill="#404040">
                        <set attributeName="fill" to="#808080" begin="arrowDown.mouseover" end="arrowDown.mouseout"/>
                  </use>
                  <path fill="none" stroke="white" stroke-width="1.5" d="M0,-3.0v7 M-2.5,-0.5L0,-3.0L2.5,-0.5"/>
                </g>
                <g id="arrowLeft" xlink:href="#dirArrow" transform="rotate(270) translate(-36 17)" onmousedown="handlePan(-1,0)">
                  <use xlink:href="#rim" fill="#404040">
                        <set attributeName="fill" to="#808080" begin="arrowLeft.mouseover" end="arrowLeft.mouseout"/>
                  </use>
                  <path fill="none" stroke="white" stroke-width="1.5" d="M0,-3.0v7 M-2.5,-0.5L0,-3.0L2.5,-0.5"/>
                </g>
        </g>
        <svg viewBox="0 0 15 15" width="100%" height="30px" preserveAspectRatio="xMaxYMin meet">
         <g id="arrow_out" transform="scale(0.3 0.3)">
          <a xlink:href="structo2_1_1header_1_1DataIdentifier__coll__graph_org.svg" target="_base">
           <rect id="button" ry="5" rx="5" y="6" x="6" height="38" width="38"
                fill="#f2f5e9" fill-opacity="0.5" stroke="#606060" stroke-width="1.0"/>
           <path id="arrow"
             d="M 11.500037,31.436501 C 11.940474,20.09759 22.043105,11.32322 32.158766,21.979434 L 37.068811,17.246167 C 37.068811,17.246167 37.088388,32 37.088388,32 L 22.160133,31.978069 C 22.160133,31.978069 26.997745,27.140456 26.997745,27.140456 C 18.528582,18.264221 13.291696,25.230495 11.500037,31.436501 z"
             style="fill:#404040;"/>
          </a>
         </g>
        </svg>
</svg>
