<?xml version="1.0" encoding="UTF-8" standalone="no"?>
<!DOCTYPE svg PUBLIC "-//W3C//DTD SVG 1.1//EN"
 "http://www.w3.org/Graphics/SVG/1.1/DTD/svg11.dtd">
<!-- Generated by graphviz version 2.40.1 (20161225.0304)
 -->
<!-- Title: o2::framework::OutputObjHeader Pages: 1 -->
<!--zoomable 1058 -->
<svg id="main" version="1.1" xmlns="http://www.w3.org/2000/svg" xmlns:xlink="http://www.w3.org/1999/xlink" xml:space="preserve" onload="init(evt)">
<style type="text/css"><![CDATA[
.edge:hover path { stroke: red; }
.edge:hover polygon { stroke: red; fill: red; }
]]></style>
<script type="text/javascript"><![CDATA[
var edges = document.getElementsByTagName('g');
if (edges && edges.length) {
  for (var i=0;i<edges.length;i++) {
    if (edges[i].id.substr(0,4)=='edge') {
      edges[i].setAttribute('class','edge');
    }
  }
}
]]></script>
        <defs>
                <circle id="rim" cx="0" cy="0" r="7"/>
                <circle id="rim2" cx="0" cy="0" r="3.5"/>
                <g id="zoomPlus">
                        <use xlink:href="#rim" fill="#404040">
                                <set attributeName="fill" to="#808080" begin="zoomplus.mouseover" end="zoomplus.mouseout"/>
                        </use>
                        <path d="M-4,0h8M0,-4v8" fill="none" stroke="white" stroke-width="1.5" pointer-events="none"/>
                </g>
                <g id="zoomMin">
                        <use xlink:href="#rim" fill="#404040">
                                <set attributeName="fill" to="#808080" begin="zoomminus.mouseover" end="zoomminus.mouseout"/>
                        </use>
                        <path d="M-4,0h8" fill="none" stroke="white" stroke-width="1.5" pointer-events="none"/>
                </g>
                <g id="dirArrow">
                        <path fill="none" stroke="white" stroke-width="1.5" d="M0,-3.0v7 M-2.5,-0.5L0,-3.0L2.5,-0.5"/>
                </g>
               <g id="resetDef">
                       <use xlink:href="#rim2" fill="#404040">
                               <set attributeName="fill" to="#808080" begin="reset.mouseover" end="reset.mouseout"/>
                       </use>
               </g>
        </defs>

<script type="text/javascript">
var viewWidth = 1137;
var viewHeight = 1058;
var sectionId = 'dynsection-1';
</script>
<script xlink:href="../../svgpan.js"/>
<svg id="graph" class="graph">
<g id="viewport">
<title>o2::framework::OutputObjHeader</title>
<!-- Node2 -->
<g id="node1" class="node">
<title>Node2</title>
<polygon fill="#bfbfbf" stroke="#000000" points="806.4137,-.5 806.4137,-90.5 949.4137,-90.5 949.4137,-.5 806.4137,-.5"/>
<text text-anchor="start" x="814.4137" y="-78.5" font-family="Helvetica,sans-Serif" font-size="10.00" fill="#000000">o2::framework::OutputObj</text>
<text text-anchor="middle" x="877.9137" y="-67.5" font-family="Helvetica,sans-Serif" font-size="10.00" fill="#000000">Header</text>
<polyline fill="none" stroke="#000000" points="806.4137,-60.5 949.4137,-60.5 "/>
<text text-anchor="middle" x="877.9137" y="-48.5" font-family="Helvetica,sans-Serif" font-size="10.00" fill="#000000"> </text>
<polyline fill="none" stroke="#000000" points="806.4137,-41.5 949.4137,-41.5 "/>
<text text-anchor="start" x="814.4137" y="-29.5" font-family="Helvetica,sans-Serif" font-size="10.00" fill="#000000">+ OutputObjHeader()</text>
<text text-anchor="start" x="814.4137" y="-18.5" font-family="Helvetica,sans-Serif" font-size="10.00" fill="#000000">+ OutputObjHeader()</text>
<text text-anchor="start" x="814.4137" y="-7.5" font-family="Helvetica,sans-Serif" font-size="10.00" fill="#000000">+ OutputObjHeader()</text>
</g>
<!-- Node3 -->
<g id="node2" class="node">
<title>Node3</title>
<g id="a_node2"><a xlink:href="../../d8/dbd/structo2_1_1header_1_1BaseHeader.html" target="_top" xlink:title="the base header struct Every header type must begin (i.e. derive) with this. Don&#39;t use this struct di...">
<polygon fill="none" stroke="#000000" points="379.4137,-160.5 379.4137,-327.5 552.4137,-327.5 552.4137,-160.5 379.4137,-160.5"/>
<text text-anchor="middle" x="465.9137" y="-315.5" font-family="Helvetica,sans-Serif" font-size="10.00" fill="#000000">BaseHeader</text>
<polyline fill="none" stroke="#000000" points="379.4137,-308.5 552.4137,-308.5 "/>
<text text-anchor="middle" x="465.9137" y="-296.5" font-family="Helvetica,sans-Serif" font-size="10.00" fill="#000000"> </text>
<polyline fill="none" stroke="#000000" points="379.4137,-289.5 552.4137,-289.5 "/>
<text text-anchor="start" x="387.4137" y="-277.5" font-family="Helvetica,sans-Serif" font-size="10.00" fill="#000000">+ BaseHeader()</text>
<text text-anchor="start" x="387.4137" y="-266.5" font-family="Helvetica,sans-Serif" font-size="10.00" fill="#000000">+ BaseHeader()</text>
<text text-anchor="start" x="387.4137" y="-255.5" font-family="Helvetica,sans-Serif" font-size="10.00" fill="#000000">+ BaseHeader()</text>
<text text-anchor="start" x="387.4137" y="-244.5" font-family="Helvetica,sans-Serif" font-size="10.00" fill="#000000">+ size()</text>
<text text-anchor="start" x="387.4137" y="-233.5" font-family="Helvetica,sans-Serif" font-size="10.00" fill="#000000">+ data()</text>
<text text-anchor="start" x="387.4137" y="-222.5" font-family="Helvetica,sans-Serif" font-size="10.00" fill="#000000">+ next()</text>
<text text-anchor="start" x="387.4137" y="-211.5" font-family="Helvetica,sans-Serif" font-size="10.00" fill="#000000">+ next()</text>
<text text-anchor="start" x="387.4137" y="-200.5" font-family="Helvetica,sans-Serif" font-size="10.00" fill="#000000">+ sanityCheck()</text>
<text text-anchor="start" x="387.4137" y="-189.5" font-family="Helvetica,sans-Serif" font-size="10.00" fill="#000000">+ throwInconsistentStackError()</text>
<text text-anchor="start" x="387.4137" y="-178.5" font-family="Helvetica,sans-Serif" font-size="10.00" fill="#000000">+ get()</text>
<text text-anchor="start" x="387.4137" y="-167.5" font-family="Helvetica,sans-Serif" font-size="10.00" fill="#000000">+ get()</text>
</a>
</g>
</g>
<!-- Node3&#45;&gt;Node2 -->
<g id="edge1" class="edge">
<title>Node3&#45;&gt;Node2</title>
<path fill="none" stroke="#191970" d="M561.9571,-197.7267C636.6037,-161.7622 738.4987,-112.6696 806.1621,-80.0696"/>
<polygon fill="none" stroke="#191970" points="560.0233,-194.7733 552.5335,-202.2669 563.0616,-201.0795 560.0233,-194.7733"/>
</g>
<!-- Node4 -->
<g id="node3" class="node">
<title>Node4</title>
<g id="a_node3"><a xlink:href="../../d9/db3/structo2_1_1header_1_1Descriptor.html" target="_top" xlink:title="{o2::header::Descriptor\l\&lt; gSizeHeaderDescriptionString \&gt;\n||+ Descriptor()\l+ Descriptor()\l+ Descriptor()\l+ Descriptor()\l+ operator=()\l+ operator ItgType()\l+ runtimeInit()\l+ operator==()\l+ operator==()\l+ operator\&lt;()\l+ operator!=()\l+ operator!=()\l+ as()\l+ print()\l}">
<polygon fill="none" stroke="#000000" points="48.4137,-441.5 48.4137,-652.5 233.4137,-652.5 233.4137,-441.5 48.4137,-441.5"/>
<text text-anchor="start" x="56.4137" y="-640.5" font-family="Helvetica,sans-Serif" font-size="10.00" fill="#000000">o2::header::Descriptor</text>
<text text-anchor="middle" x="140.9137" y="-629.5" font-family="Helvetica,sans-Serif" font-size="10.00" fill="#000000">&lt; gSizeHeaderDescriptionString &gt;</text>
<polyline fill="none" stroke="#000000" points="48.4137,-622.5 233.4137,-622.5 "/>
<text text-anchor="middle" x="140.9137" y="-610.5" font-family="Helvetica,sans-Serif" font-size="10.00" fill="#000000"> </text>
<polyline fill="none" stroke="#000000" points="48.4137,-603.5 233.4137,-603.5 "/>
<text text-anchor="start" x="56.4137" y="-591.5" font-family="Helvetica,sans-Serif" font-size="10.00" fill="#000000">+ Descriptor()</text>
<text text-anchor="start" x="56.4137" y="-580.5" font-family="Helvetica,sans-Serif" font-size="10.00" fill="#000000">+ Descriptor()</text>
<text text-anchor="start" x="56.4137" y="-569.5" font-family="Helvetica,sans-Serif" font-size="10.00" fill="#000000">+ Descriptor()</text>
<text text-anchor="start" x="56.4137" y="-558.5" font-family="Helvetica,sans-Serif" font-size="10.00" fill="#000000">+ Descriptor()</text>
<text text-anchor="start" x="56.4137" y="-547.5" font-family="Helvetica,sans-Serif" font-size="10.00" fill="#000000">+ operator=()</text>
<text text-anchor="start" x="56.4137" y="-536.5" font-family="Helvetica,sans-Serif" font-size="10.00" fill="#000000">+ operator ItgType()</text>
<text text-anchor="start" x="56.4137" y="-525.5" font-family="Helvetica,sans-Serif" font-size="10.00" fill="#000000">+ runtimeInit()</text>
<text text-anchor="start" x="56.4137" y="-514.5" font-family="Helvetica,sans-Serif" font-size="10.00" fill="#000000">+ operator==()</text>
<text text-anchor="start" x="56.4137" y="-503.5" font-family="Helvetica,sans-Serif" font-size="10.00" fill="#000000">+ operator==()</text>
<text text-anchor="start" x="56.4137" y="-492.5" font-family="Helvetica,sans-Serif" font-size="10.00" fill="#000000">+ operator&lt;()</text>
<text text-anchor="start" x="56.4137" y="-481.5" font-family="Helvetica,sans-Serif" font-size="10.00" fill="#000000">+ operator!=()</text>
<text text-anchor="start" x="56.4137" y="-470.5" font-family="Helvetica,sans-Serif" font-size="10.00" fill="#000000">+ operator!=()</text>
<text text-anchor="start" x="56.4137" y="-459.5" font-family="Helvetica,sans-Serif" font-size="10.00" fill="#000000">+ as()</text>
<text text-anchor="start" x="56.4137" y="-448.5" font-family="Helvetica,sans-Serif" font-size="10.00" fill="#000000">+ print()</text>
</a>
</g>
</g>
<!-- Node4&#45;&gt;Node3 -->
<g id="edge2" class="edge">
<title>Node4&#45;&gt;Node3</title>
<path fill="none" stroke="#404040" d="M181.8709,-441.2937C198.7634,-407.6917 221.0236,-372.4325 248.9137,-346 282.4003,-314.2635 327.5642,-290.8887 368.0181,-274.5838"/>
<polygon fill="none" stroke="#404040" points="368.1153,-274.5458 372.2443,-268.6338 379.2896,-270.1714 375.1606,-276.0834 368.1153,-274.5458"/>
<text text-anchor="middle" x="281.9137" y="-382" font-family="Helvetica,sans-Serif" font-size="10.00" fill="#000000"> +description</text>
</g>
<!-- Node5 -->
<g id="node4" class="node">
<title>Node5</title>
<polygon fill="none" stroke="#bfbfbf" points="494.4137,-992.5 494.4137,-1049.5 601.4137,-1049.5 601.4137,-992.5 494.4137,-992.5"/>
<text text-anchor="middle" x="547.9137" y="-1037.5" font-family="Helvetica,sans-Serif" font-size="10.00" fill="#000000">anonymous:+@78</text>
<polyline fill="none" stroke="#bfbfbf" points="494.4137,-1030.5 601.4137,-1030.5 "/>
<text text-anchor="middle" x="547.9137" y="-1018.5" font-family="Helvetica,sans-Serif" font-size="10.00" fill="#000000"> </text>
<polyline fill="none" stroke="#bfbfbf" points="494.4137,-1011.5 601.4137,-1011.5 "/>
<text text-anchor="middle" x="547.9137" y="-999.5" font-family="Helvetica,sans-Serif" font-size="10.00" fill="#000000"> </text>
</g>
<!-- Node5&#45;&gt;Node4 -->
<g id="edge3" class="edge">
<title>Node5&#45;&gt;Node4</title>
<path fill="none" stroke="#404040" d="M555.6831,-992.4259C569.8929,-933.4576 593.221,-796.6481 530.9137,-711 527.333,-706.0779 434.8335,-672.4163 428.9137,-671 351.3582,-652.4442 319.8578,-686.2305 244.4072,-653.5577"/>
<polygon fill="none" stroke="#404040" points="244.3511,-653.5318 237.2261,-654.6433 233.4597,-648.494 240.5847,-647.3824 244.3511,-653.5318"/>
<text text-anchor="middle" x="589.9137" y="-814.5" font-family="Helvetica,sans-Serif" font-size="10.00" fill="#000000"> +@78</text>
</g>
<!-- Node9 -->
<g id="node8" class="node">
<title>Node9</title>
<g id="a_node8"><a xlink:href="../../d9/db3/structo2_1_1header_1_1Descriptor.html" target="_top" xlink:title="{o2::header::Descriptor\l\&lt; N, PrinterPolicy \&gt;\n||+ Descriptor()\l+ Descriptor()\l+ Descriptor()\l+ operator=()\l+ operator ItgType()\l+ Descriptor()\l+ runtimeInit()\l+ operator==()\l+ operator\&lt;()\l+ operator!=()\l+ operator==()\l+ operator!=()\l+ as()\l+ print()\l}">
<polygon fill="none" stroke="#000000" points="397.4137,-711.5 397.4137,-922.5 522.4137,-922.5 522.4137,-711.5 397.4137,-711.5"/>
<text text-anchor="start" x="405.4137" y="-910.5" font-family="Helvetica,sans-Serif" font-size="10.00" fill="#000000">o2::header::Descriptor</text>
<text text-anchor="middle" x="459.9137" y="-899.5" font-family="Helvetica,sans-Serif" font-size="10.00" fill="#000000">&lt; N, PrinterPolicy &gt;</text>
<polyline fill="none" stroke="#000000" points="397.4137,-892.5 522.4137,-892.5 "/>
<text text-anchor="middle" x="459.9137" y="-880.5" font-family="Helvetica,sans-Serif" font-size="10.00" fill="#000000"> </text>
<polyline fill="none" stroke="#000000" points="397.4137,-873.5 522.4137,-873.5 "/>
<text text-anchor="start" x="405.4137" y="-861.5" font-family="Helvetica,sans-Serif" font-size="10.00" fill="#000000">+ Descriptor()</text>
<text text-anchor="start" x="405.4137" y="-850.5" font-family="Helvetica,sans-Serif" font-size="10.00" fill="#000000">+ Descriptor()</text>
<text text-anchor="start" x="405.4137" y="-839.5" font-family="Helvetica,sans-Serif" font-size="10.00" fill="#000000">+ Descriptor()</text>
<text text-anchor="start" x="405.4137" y="-828.5" font-family="Helvetica,sans-Serif" font-size="10.00" fill="#000000">+ operator=()</text>
<text text-anchor="start" x="405.4137" y="-817.5" font-family="Helvetica,sans-Serif" font-size="10.00" fill="#000000">+ operator ItgType()</text>
<text text-anchor="start" x="405.4137" y="-806.5" font-family="Helvetica,sans-Serif" font-size="10.00" fill="#000000">+ Descriptor()</text>
<text text-anchor="start" x="405.4137" y="-795.5" font-family="Helvetica,sans-Serif" font-size="10.00" fill="#000000">+ runtimeInit()</text>
<text text-anchor="start" x="405.4137" y="-784.5" font-family="Helvetica,sans-Serif" font-size="10.00" fill="#000000">+ operator==()</text>
<text text-anchor="start" x="405.4137" y="-773.5" font-family="Helvetica,sans-Serif" font-size="10.00" fill="#000000">+ operator&lt;()</text>
<text text-anchor="start" x="405.4137" y="-762.5" font-family="Helvetica,sans-Serif" font-size="10.00" fill="#000000">+ operator!=()</text>
<text text-anchor="start" x="405.4137" y="-751.5" font-family="Helvetica,sans-Serif" font-size="10.00" fill="#000000">+ operator==()</text>
<text text-anchor="start" x="405.4137" y="-740.5" font-family="Helvetica,sans-Serif" font-size="10.00" fill="#000000">+ operator!=()</text>
<text text-anchor="start" x="405.4137" y="-729.5" font-family="Helvetica,sans-Serif" font-size="10.00" fill="#000000">+ as()</text>
<text text-anchor="start" x="405.4137" y="-718.5" font-family="Helvetica,sans-Serif" font-size="10.00" fill="#000000">+ print()</text>
</a>
</g>
</g>
<!-- Node5&#45;&gt;Node9 -->
<g id="edge8" class="edge">
<title>Node5&#45;&gt;Node9</title>
<path fill="none" stroke="#404040" d="M494.2647,-1002.2893C481.8904,-995.3621 470.2254,-986.1316 462.9137,-974 455.7302,-962.081 451.2922,-948.6729 448.7904,-934.8434"/>
<polygon fill="none" stroke="#404040" points="448.741,-934.4917 443.9445,-929.1072 447.07,-922.6086 451.8665,-927.9931 448.741,-934.4917"/>
<text text-anchor="middle" x="479.9137" y="-955" font-family="Helvetica,sans-Serif" font-size="10.00" fill="#000000"> +@78</text>
</g>
<!-- Node11 -->
<g id="node10" class="node">
<title>Node11</title>
<g id="a_node10"><a xlink:href="../../d9/db3/structo2_1_1header_1_1Descriptor.html" target="_top" xlink:title="{o2::header::Descriptor\l\&lt; gSizeSerializationMethodString \&gt;\n||+ Descriptor()\l+ Descriptor()\l+ Descriptor()\l+ Descriptor()\l+ operator=()\l+ operator ItgType()\l+ runtimeInit()\l+ operator==()\l+ operator==()\l+ operator\&lt;()\l+ operator!=()\l+ operator!=()\l+ as()\l+ print()\l}">
<polygon fill="none" stroke="#000000" points="437.4137,-441.5 437.4137,-652.5 628.4137,-652.5 628.4137,-441.5 437.4137,-441.5"/>
<text text-anchor="start" x="445.4137" y="-640.5" font-family="Helvetica,sans-Serif" font-size="10.00" fill="#000000">o2::header::Descriptor</text>
<text text-anchor="middle" x="532.9137" y="-629.5" font-family="Helvetica,sans-Serif" font-size="10.00" fill="#000000">&lt; gSizeSerializationMethodString &gt;</text>
<polyline fill="none" stroke="#000000" points="437.4137,-622.5 628.4137,-622.5 "/>
<text text-anchor="middle" x="532.9137" y="-610.5" font-family="Helvetica,sans-Serif" font-size="10.00" fill="#000000"> </text>
<polyline fill="none" stroke="#000000" points="437.4137,-603.5 628.4137,-603.5 "/>
<text text-anchor="start" x="445.4137" y="-591.5" font-family="Helvetica,sans-Serif" font-size="10.00" fill="#000000">+ Descriptor()</text>
<text text-anchor="start" x="445.4137" y="-580.5" font-family="Helvetica,sans-Serif" font-size="10.00" fill="#000000">+ Descriptor()</text>
<text text-anchor="start" x="445.4137" y="-569.5" font-family="Helvetica,sans-Serif" font-size="10.00" fill="#000000">+ Descriptor()</text>
<text text-anchor="start" x="445.4137" y="-558.5" font-family="Helvetica,sans-Serif" font-size="10.00" fill="#000000">+ Descriptor()</text>
<text text-anchor="start" x="445.4137" y="-547.5" font-family="Helvetica,sans-Serif" font-size="10.00" fill="#000000">+ operator=()</text>
<text text-anchor="start" x="445.4137" y="-536.5" font-family="Helvetica,sans-Serif" font-size="10.00" fill="#000000">+ operator ItgType()</text>
<text text-anchor="start" x="445.4137" y="-525.5" font-family="Helvetica,sans-Serif" font-size="10.00" fill="#000000">+ runtimeInit()</text>
<text text-anchor="start" x="445.4137" y="-514.5" font-family="Helvetica,sans-Serif" font-size="10.00" fill="#000000">+ operator==()</text>
<text text-anchor="start" x="445.4137" y="-503.5" font-family="Helvetica,sans-Serif" font-size="10.00" fill="#000000">+ operator==()</text>
<text text-anchor="start" x="445.4137" y="-492.5" font-family="Helvetica,sans-Serif" font-size="10.00" fill="#000000">+ operator&lt;()</text>
<text text-anchor="start" x="445.4137" y="-481.5" font-family="Helvetica,sans-Serif" font-size="10.00" fill="#000000">+ operator!=()</text>
<text text-anchor="start" x="445.4137" y="-470.5" font-family="Helvetica,sans-Serif" font-size="10.00" fill="#000000">+ operator!=()</text>
<text text-anchor="start" x="445.4137" y="-459.5" font-family="Helvetica,sans-Serif" font-size="10.00" fill="#000000">+ as()</text>
<text text-anchor="start" x="445.4137" y="-448.5" font-family="Helvetica,sans-Serif" font-size="10.00" fill="#000000">+ print()</text>
</a>
</g>
</g>
<!-- Node5&#45;&gt;Node11 -->
<g id="edge15" class="edge">
<title>Node5&#45;&gt;Node11</title>
<path fill="none" stroke="#404040" d="M595.7123,-992.3746C619.146,-975.4506 645.0423,-951.7059 657.9137,-923 696.464,-837.025 674.7253,-803.7103 657.9137,-711 654.2122,-690.5873 645.7813,-671.0125 634.952,-652.9422"/>
<polygon fill="none" stroke="#404040" points="634.9321,-652.9107 628.3423,-649.9823 628.511,-642.7731 635.1008,-645.7016 634.9321,-652.9107"/>
<text text-anchor="middle" x="696.9137" y="-814.5" font-family="Helvetica,sans-Serif" font-size="10.00" fill="#000000"> +@78</text>
</g>
<!-- Node6 -->
<g id="node5" class="node">
<title>Node6</title>
<polygon fill="none" stroke="#bfbfbf" points="619.4137,-992.5 619.4137,-1049.5 658.4137,-1049.5 658.4137,-992.5 619.4137,-992.5"/>
<text text-anchor="middle" x="638.9137" y="-1037.5" font-family="Helvetica,sans-Serif" font-size="10.00" fill="#000000">Type</text>
<polyline fill="none" stroke="#bfbfbf" points="619.4137,-1030.5 658.4137,-1030.5 "/>
<text text-anchor="middle" x="638.9137" y="-1018.5" font-family="Helvetica,sans-Serif" font-size="10.00" fill="#000000"> </text>
<polyline fill="none" stroke="#bfbfbf" points="619.4137,-1011.5 658.4137,-1011.5 "/>
<text text-anchor="middle" x="638.9137" y="-999.5" font-family="Helvetica,sans-Serif" font-size="10.00" fill="#000000"> </text>
</g>
<!-- Node6&#45;&gt;Node4 -->
<g id="edge4" class="edge">
<title>Node6&#45;&gt;Node4</title>
<path fill="none" stroke="#404040" d="M635.6327,-992.3009C633.4879,-972.7818 630.7533,-946.3577 628.9137,-923 626.712,-895.0434 634.8153,-690.7572 614.9137,-671 587.3078,-643.5943 316.7962,-666.9195 245.2368,-652.3183"/>
<polygon fill="none" stroke="#404040" points="245.2042,-652.3086 238.3089,-654.4192 233.7086,-648.8661 240.6039,-646.7554 245.2042,-652.3086"/>
<text text-anchor="middle" x="641.4137" y="-814.5" font-family="Helvetica,sans-Serif" font-size="10.00" fill="#000000"> +itg</text>
</g>
<!-- Node6&#45;&gt;Node9 -->
<g id="edge9" class="edge">
<title>Node6&#45;&gt;Node9</title>
<path fill="none" stroke="#404040" d="M619.3961,-1001.2031C616.2524,-998.0955 613.0129,-994.9404 609.9137,-992 601.2382,-983.7691 598.668,-982.1471 589.9137,-974 565.9834,-951.7293 558.3812,-947.6534 536.9137,-923 534.7478,-920.5127 532.5803,-917.9671 530.4182,-915.3778"/>
<polygon fill="none" stroke="#404040" points="530.2171,-915.1315 523.3237,-913.0146 522.6264,-905.8373 529.5198,-907.9542 530.2171,-915.1315"/>
<text text-anchor="middle" x="602.4137" y="-955" font-family="Helvetica,sans-Serif" font-size="10.00" fill="#000000"> +itg</text>
</g>
<!-- Node6&#45;&gt;Node11 -->
<g id="edge16" class="edge">
<title>Node6&#45;&gt;Node11</title>
<path fill="none" stroke="#404040" d="M658.6398,-1004.2368C677.9778,-986.3865 706.2057,-956.1792 717.9137,-923 749.2673,-834.1474 760.3018,-795.1491 717.9137,-711 704.4773,-684.3258 688.3467,-688.1778 663.9137,-671 654.3277,-664.2605 649.8288,-662.661 638.0396,-653.5643"/>
<polygon fill="none" stroke="#404040" points="637.8987,-653.4506 630.7175,-652.7946 628.561,-645.9135 635.7422,-646.5695 637.8987,-653.4506"/>
<text text-anchor="middle" x="758.4137" y="-814.5" font-family="Helvetica,sans-Serif" font-size="10.00" fill="#000000"> +itg</text>
</g>
<!-- Node7 -->
<g id="node6" class="node">
<title>Node7</title>
<polygon fill="none" stroke="#bfbfbf" points="116.9137,-992.5 116.9137,-1049.5 154.9137,-1049.5 154.9137,-992.5 116.9137,-992.5"/>
<text text-anchor="middle" x="135.9137" y="-1037.5" font-family="Helvetica,sans-Serif" font-size="10.00" fill="#000000">char</text>
<polyline fill="none" stroke="#bfbfbf" points="116.9137,-1030.5 154.9137,-1030.5 "/>
<text text-anchor="middle" x="135.9137" y="-1018.5" font-family="Helvetica,sans-Serif" font-size="10.00" fill="#000000"> </text>
<polyline fill="none" stroke="#bfbfbf" points="116.9137,-1011.5 154.9137,-1011.5 "/>
<text text-anchor="middle" x="135.9137" y="-999.5" font-family="Helvetica,sans-Serif" font-size="10.00" fill="#000000"> </text>
</g>
<!-- Node7&#45;&gt;Node3 -->
<g id="edge13" class="edge">
<title>Node7&#45;&gt;Node3</title>
<path fill="none" stroke="#404040" d="M119.0287,-992.279C69.4653,-903.8859 -65.7268,-630.4606 38.9137,-441 104.0944,-322.9848 262.8605,-275.2512 367.3534,-256.2339"/>
<polygon fill="none" stroke="#404040" points="367.3645,-256.232 372.584,-251.2564 379.1844,-254.1607 373.9649,-259.1363 367.3645,-256.232"/>
<text text-anchor="middle" x="42.9137" y="-679.5" font-family="Helvetica,sans-Serif" font-size="10.00" fill="#000000"> +magicString</text>
</g>
<!-- Node7&#45;&gt;Node4 -->
<g id="edge5" class="edge">
<title>Node7&#45;&gt;Node4</title>
<path fill="none" stroke="#404040" d="M129.6241,-992.4384C125.6689,-972.9791 120.9429,-946.5699 118.9137,-923 110.8318,-829.125 112.6361,-805.0129 118.9137,-711 119.9105,-696.0726 121.4121,-680.4317 123.172,-664.9852"/>
<polygon fill="none" stroke="#404040" points="123.2208,-664.573 119.9553,-658.1436 124.6341,-652.6565 127.8996,-659.0858 123.2208,-664.573"/>
<text text-anchor="middle" x="131.4137" y="-814.5" font-family="Helvetica,sans-Serif" font-size="10.00" fill="#000000"> +str</text>
</g>
<!-- Node7&#45;&gt;Node9 -->
<g id="edge10" class="edge">
<title>Node7&#45;&gt;Node9</title>
<path fill="none" stroke="#404040" d="M155.0274,-1012.6424C189.6372,-997.6161 265.1125,-965.3369 329.9137,-941 353.2025,-932.2536 362.8857,-937.7561 382.9137,-923 384.6133,-921.7478 386.2909,-920.447 387.9458,-919.1029"/>
<polygon fill="none" stroke="#404040" points="388.1716,-918.9038 390.0259,-911.9352 397.1717,-910.9666 395.3174,-917.9353 388.1716,-918.9038"/>
<text text-anchor="middle" x="342.4137" y="-955" font-family="Helvetica,sans-Serif" font-size="10.00" fill="#000000"> +str</text>
</g>
<!-- Node7&#45;&gt;Node11 -->
<g id="edge17" class="edge">
<title>Node7&#45;&gt;Node11</title>
<path fill="none" stroke="#404040" d="M138.2909,-992.4458C144.6376,-916.8118 161.7794,-716.6639 165.9137,-711 233.9633,-617.7741 315.0137,-699.0664 426.0501,-653.0951"/>
<polygon fill="none" stroke="#404040" points="426.2962,-652.9846 430.1307,-646.8775 437.2429,-648.0682 433.4084,-654.1753 426.2962,-652.9846"/>
<text text-anchor="middle" x="178.4137" y="-814.5" font-family="Helvetica,sans-Serif" font-size="10.00" fill="#000000"> +str</text>
</g>
<!-- Node8 -->
<g id="node7" class="node">
<title>Node8</title>
<polygon fill="none" stroke="#bfbfbf" points="285.4137,-992.5 285.4137,-1049.5 314.4137,-1049.5 314.4137,-992.5 285.4137,-992.5"/>
<text text-anchor="middle" x="299.9137" y="-1037.5" font-family="Helvetica,sans-Serif" font-size="10.00" fill="#000000">int</text>
<polyline fill="none" stroke="#bfbfbf" points="285.4137,-1030.5 314.4137,-1030.5 "/>
<text text-anchor="middle" x="299.9137" y="-1018.5" font-family="Helvetica,sans-Serif" font-size="10.00" fill="#000000"> </text>
<polyline fill="none" stroke="#bfbfbf" points="285.4137,-1011.5 314.4137,-1011.5 "/>
<text text-anchor="middle" x="299.9137" y="-999.5" font-family="Helvetica,sans-Serif" font-size="10.00" fill="#000000"> </text>
</g>
<!-- Node8&#45;&gt;Node4 -->
<g id="edge6" class="edge">
<title>Node8&#45;&gt;Node4</title>
<path fill="none" stroke="#404040" d="M285.1702,-1001.0033C271.7506,-981.8878 252.3415,-951.7958 240.9137,-923 205.3491,-833.3844 220.2473,-804.0269 194.9137,-711 190.8026,-695.9037 186.1231,-680.1458 181.2779,-664.6236"/>
<polygon fill="none" stroke="#404040" points="181.1622,-664.2571 175.5405,-659.7408 177.5471,-652.8145 183.1688,-657.3308 181.1622,-664.2571"/>
<text text-anchor="middle" x="269.9137" y="-825.5" font-family="Helvetica,sans-Serif" font-size="10.00" fill="#000000"> +arraySize</text>
<text text-anchor="middle" x="269.9137" y="-814.5" font-family="Helvetica,sans-Serif" font-size="10.00" fill="#000000">+size</text>
<text text-anchor="middle" x="269.9137" y="-803.5" font-family="Helvetica,sans-Serif" font-size="10.00" fill="#000000">+bitcount</text>
</g>
<!-- Node8&#45;&gt;Node9 -->
<g id="edge11" class="edge">
<title>Node8&#45;&gt;Node9</title>
<path fill="none" stroke="#404040" d="M314.6058,-1011.3439C327.2695,-1002.5684 345.5668,-988.7681 358.9137,-974 370.3905,-961.3012 381.4304,-947.1601 391.7254,-932.7122"/>
<polygon fill="none" stroke="#404040" points="391.8625,-932.5156 392.0159,-925.3061 398.7298,-922.6748 398.5764,-929.8843 391.8625,-932.5156"/>
<text text-anchor="middle" x="413.9137" y="-966" font-family="Helvetica,sans-Serif" font-size="10.00" fill="#000000"> +arraySize</text>
<text text-anchor="middle" x="413.9137" y="-955" font-family="Helvetica,sans-Serif" font-size="10.00" fill="#000000">+size</text>
<text text-anchor="middle" x="413.9137" y="-944" font-family="Helvetica,sans-Serif" font-size="10.00" fill="#000000">+bitcount</text>
</g>
<!-- Node8&#45;&gt;Node11 -->
<g id="edge18" class="edge">
<title>Node8&#45;&gt;Node11</title>
<path fill="none" stroke="#404040" d="M299.4497,-992.3452C298.8591,-924.6901 300.4987,-757.2533 329.9137,-711 357.0736,-668.2926 388.001,-684.1216 427.9137,-653 428.0127,-652.9228 428.1116,-652.8456 428.2106,-652.7683"/>
<polygon fill="none" stroke="#404040" points="428.0685,-652.883 430.2239,-646.0016 437.4051,-645.3445 435.2496,-652.226 428.0685,-652.883"/>
<text text-anchor="middle" x="358.9137" y="-825.5" font-family="Helvetica,sans-Serif" font-size="10.00" fill="#000000"> +arraySize</text>
<text text-anchor="middle" x="358.9137" y="-814.5" font-family="Helvetica,sans-Serif" font-size="10.00" fill="#000000">+size</text>
<text text-anchor="middle" x="358.9137" y="-803.5" font-family="Helvetica,sans-Serif" font-size="10.00" fill="#000000">+bitcount</text>
</g>
<!-- Node9&#45;&gt;Node4 -->
<g id="edge7" class="edge">
<title>Node9&#45;&gt;Node4</title>
<path fill="none" stroke="#ffa500" d="M389.3062,-715.4604C387.2168,-713.8961 385.0858,-712.4059 382.9137,-711 350.131,-689.7813 332.609,-708.8362 296.9137,-693 269.2852,-680.7426 264.6539,-672.9114 241.9137,-653 239.1407,-650.572 236.3578,-648.0789 233.5751,-645.536"/>
<polygon fill="#ffa500" stroke="#ffa500" points="387.1892,-718.2499 397.1574,-721.8396 391.6034,-712.8172 387.1892,-718.2499"/>
<text text-anchor="start" x="296.9137" y="-685" font-family="Helvetica,sans-Serif" font-size="10.00" fill="#000000"> &lt; gSizeHeaderDescription</text>
<text text-anchor="middle" x="362.9137" y="-674" font-family="Helvetica,sans-Serif" font-size="10.00" fill="#000000">String &gt;</text>
</g>
<!-- Node9&#45;&gt;Node11 -->
<g id="edge19" class="edge">
<title>Node9&#45;&gt;Node11</title>
<path fill="none" stroke="#ffa500" d="M491.1494,-701.4709C495.5079,-685.3503 499.9687,-668.8513 504.2762,-652.9196"/>
<polygon fill="#ffa500" stroke="#ffa500" points="487.6824,-700.884 488.4511,-711.4509 494.4398,-702.711 487.6824,-700.884"/>
<text text-anchor="start" x="498.9137" y="-685" font-family="Helvetica,sans-Serif" font-size="10.00" fill="#000000"> &lt; gSizeSerializationMethod</text>
<text text-anchor="middle" x="567.9137" y="-674" font-family="Helvetica,sans-Serif" font-size="10.00" fill="#000000">String &gt;</text>
</g>
<!-- Node10 -->
<g id="node9" class="node">
<title>Node10</title>
<polygon fill="none" stroke="#bfbfbf" points="646.4137,-518.5 646.4137,-575.5 753.4137,-575.5 753.4137,-518.5 646.4137,-518.5"/>
<text text-anchor="middle" x="699.9137" y="-563.5" font-family="Helvetica,sans-Serif" font-size="10.00" fill="#000000">anonymous:+@80</text>
<polyline fill="none" stroke="#bfbfbf" points="646.4137,-556.5 753.4137,-556.5 "/>
<text text-anchor="middle" x="699.9137" y="-544.5" font-family="Helvetica,sans-Serif" font-size="10.00" fill="#000000"> </text>
<polyline fill="none" stroke="#bfbfbf" points="646.4137,-537.5 753.4137,-537.5 "/>
<text text-anchor="middle" x="699.9137" y="-525.5" font-family="Helvetica,sans-Serif" font-size="10.00" fill="#000000"> </text>
</g>
<!-- Node10&#45;&gt;Node3 -->
<g id="edge12" class="edge">
<title>Node10&#45;&gt;Node3</title>
<path fill="none" stroke="#404040" d="M685.1656,-518.0433C672.4655,-492.9805 653.7382,-455.7179 637.9137,-423 621.4649,-388.9912 625.7361,-375.3199 601.9137,-346 590.3871,-331.8134 576.4777,-318.5211 562.0132,-306.5207"/>
<polygon fill="none" stroke="#404040" points="561.7971,-306.3469 554.6148,-305.7025 552.4472,-298.8249 559.6295,-299.4693 561.7971,-306.3469"/>
<text text-anchor="middle" x="654.9137" y="-382" font-family="Helvetica,sans-Serif" font-size="10.00" fill="#000000"> +@80</text>
</g>
<!-- Node11&#45;&gt;Node3 -->
<g id="edge14" class="edge">
<title>Node11&#45;&gt;Node3</title>
<path fill="none" stroke="#404040" d="M527.4644,-441.2916C524.2269,-410.2268 519.082,-376.4288 510.9137,-346 510.3021,-343.7218 509.6468,-341.4292 508.9533,-339.129"/>
<polygon fill="none" stroke="#404040" points="508.9122,-339.0026 503.2495,-334.5378 505.1929,-327.5935 510.8556,-332.0583 508.9122,-339.0026"/>
<text text-anchor="middle" x="561.9137" y="-382" font-family="Helvetica,sans-Serif" font-size="10.00" fill="#000000"> +serialization</text>
</g>
<!-- Node12 -->
<g id="node11" class="node">
<title>Node12</title>
<g id="a_node11"><a xlink:href="../../d3/d87/classuint32__t.html" target="_top" xlink:title="{uint32_t\n||}">
<polygon fill="none" stroke="#000000" points="771.9137,-518.5 771.9137,-575.5 827.9137,-575.5 827.9137,-518.5 771.9137,-518.5"/>
<text text-anchor="middle" x="799.9137" y="-563.5" font-family="Helvetica,sans-Serif" font-size="10.00" fill="#000000">uint32_t</text>
<polyline fill="none" stroke="#000000" points="771.9137,-556.5 827.9137,-556.5 "/>
<text text-anchor="middle" x="799.9137" y="-544.5" font-family="Helvetica,sans-Serif" font-size="10.00" fill="#000000"> </text>
<polyline fill="none" stroke="#000000" points="771.9137,-537.5 827.9137,-537.5 "/>
<text text-anchor="middle" x="799.9137" y="-525.5" font-family="Helvetica,sans-Serif" font-size="10.00" fill="#000000"> </text>
</a>
</g>
</g>
<!-- Node12&#45;&gt;Node2 -->
<g id="edge24" class="edge">
<title>Node12&#45;&gt;Node2</title>
<path fill="none" stroke="#404040" d="M798.6873,-518.3645C795.6585,-440.6496 789.4103,-227.1176 808.9137,-160 814.8959,-139.4132 825.5445,-118.7756 836.7131,-100.8042"/>
<polygon fill="none" stroke="#404040" points="836.8191,-100.6395 836.7058,-93.4293 843.3178,-90.5515 843.4311,-97.7617 836.8191,-100.6395"/>
<text text-anchor="middle" x="842.9137" y="-241.5" font-family="Helvetica,sans-Serif" font-size="10.00" fill="#000000"> +mTaskHash</text>
</g>
<!-- Node12&#45;&gt;Node3 -->
<g id="edge20" class="edge">
<title>Node12&#45;&gt;Node3</title>
<path fill="none" stroke="#404040" d="M796.936,-518.2267C792.9429,-494.2879 783.623,-461.0032 761.9137,-441 739.2382,-420.1065 717.0174,-444.4975 694.9137,-423 669.3098,-398.0983 694.9406,-373.3023 671.9137,-346 643.8125,-312.6812 602.1935,-289.2266 563.7061,-273.2839"/>
<polygon fill="none" stroke="#404040" points="563.5619,-273.2264 556.5068,-274.7185 552.416,-268.78 559.4711,-267.2879 563.5619,-273.2264"/>
<text text-anchor="middle" x="740.4137" y="-415" font-family="Helvetica,sans-Serif" font-size="10.00" fill="#000000"> +headerVersion</text>
<text text-anchor="middle" x="740.4137" y="-404" font-family="Helvetica,sans-Serif" font-size="10.00" fill="#000000">+headerSize</text>
<text text-anchor="middle" x="740.4137" y="-393" font-family="Helvetica,sans-Serif" font-size="10.00" fill="#000000">+sMagicString</text>
<text text-anchor="middle" x="740.4137" y="-382" font-family="Helvetica,sans-Serif" font-size="10.00" fill="#000000">+flagsNextHeader</text>
<text text-anchor="middle" x="740.4137" y="-371" font-family="Helvetica,sans-Serif" font-size="10.00" fill="#000000">+magicStringInt</text>
<text text-anchor="middle" x="740.4137" y="-360" font-family="Helvetica,sans-Serif" font-size="10.00" fill="#000000">+flagsUnused</text>
<text text-anchor="middle" x="740.4137" y="-349" font-family="Helvetica,sans-Serif" font-size="10.00" fill="#000000">+flags</text>
</g>
<!-- Node13 -->
<g id="node12" class="node">
<title>Node13</title>
<polygon fill="none" stroke="#bfbfbf" points="251.4137,-518.5 251.4137,-575.5 358.4137,-575.5 358.4137,-518.5 251.4137,-518.5"/>
<text text-anchor="middle" x="304.9137" y="-563.5" font-family="Helvetica,sans-Serif" font-size="10.00" fill="#000000">anonymous:+@82</text>
<polyline fill="none" stroke="#bfbfbf" points="251.4137,-556.5 358.4137,-556.5 "/>
<text text-anchor="middle" x="304.9137" y="-544.5" font-family="Helvetica,sans-Serif" font-size="10.00" fill="#000000"> </text>
<polyline fill="none" stroke="#bfbfbf" points="251.4137,-537.5 358.4137,-537.5 "/>
<text text-anchor="middle" x="304.9137" y="-525.5" font-family="Helvetica,sans-Serif" font-size="10.00" fill="#000000"> </text>
</g>
<!-- Node13&#45;&gt;Node3 -->
<g id="edge21" class="edge">
<title>Node13&#45;&gt;Node3</title>
<path fill="none" stroke="#404040" d="M305.2107,-518.2933C306.8386,-477.3116 314.4299,-400.9259 346.9137,-346 353.4888,-334.8823 361.7171,-324.3806 370.7593,-314.6487"/>
<polygon fill="none" stroke="#404040" points="370.8858,-314.5191 372.2147,-307.4315 379.2682,-305.9321 377.9393,-313.0197 370.8858,-314.5191"/>
<text text-anchor="middle" x="363.9137" y="-382" font-family="Helvetica,sans-Serif" font-size="10.00" fill="#000000"> +@82</text>
</g>
<!-- Node14 -->
<g id="node13" class="node">
<title>Node14</title>
<polygon fill="none" stroke="#bfbfbf" points="376.4137,-518.5 376.4137,-575.5 419.4137,-575.5 419.4137,-518.5 376.4137,-518.5"/>
<text text-anchor="middle" x="397.9137" y="-563.5" font-family="Helvetica,sans-Serif" font-size="10.00" fill="#000000">const</text>
<polyline fill="none" stroke="#bfbfbf" points="376.4137,-556.5 419.4137,-556.5 "/>
<text text-anchor="middle" x="397.9137" y="-544.5" font-family="Helvetica,sans-Serif" font-size="10.00" fill="#000000"> </text>
<polyline fill="none" stroke="#bfbfbf" points="376.4137,-537.5 419.4137,-537.5 "/>
<text text-anchor="middle" x="397.9137" y="-525.5" font-family="Helvetica,sans-Serif" font-size="10.00" fill="#000000"> </text>
</g>
<!-- Node14&#45;&gt;Node3 -->
<g id="edge22" class="edge">
<title>Node14&#45;&gt;Node3</title>
<path fill="none" stroke="#404040" d="M392.2327,-518.2447C385.5772,-478.4985 377.6169,-404.9966 395.9137,-346 396.6593,-343.5961 397.4832,-341.1985 398.3769,-338.8117"/>
<polygon fill="none" stroke="#404040" points="398.3822,-338.7989 397.0213,-331.7173 403.0347,-327.7375 404.3956,-334.819 398.3822,-338.7989"/>
<text text-anchor="middle" x="451.4137" y="-393" font-family="Helvetica,sans-Serif" font-size="10.00" fill="#000000"> +sHeaderType</text>
<text text-anchor="middle" x="451.4137" y="-382" font-family="Helvetica,sans-Serif" font-size="10.00" fill="#000000">+sSerializationMethod</text>
<text text-anchor="middle" x="451.4137" y="-371" font-family="Helvetica,sans-Serif" font-size="10.00" fill="#000000">+sVersion</text>
</g>
<!-- Node15 -->
<g id="node14" class="node">
<title>Node15</title>
<polygon fill="none" stroke="#bfbfbf" points="886.4137,-215.5 886.4137,-272.5 1025.4137,-272.5 1025.4137,-215.5 886.4137,-215.5"/>
<text text-anchor="middle" x="955.9137" y="-260.5" font-family="Helvetica,sans-Serif" font-size="10.00" fill="#000000">OutputObjHandlingPolicy</text>
<polyline fill="none" stroke="#bfbfbf" points="886.4137,-253.5 1025.4137,-253.5 "/>
<text text-anchor="middle" x="955.9137" y="-241.5" font-family="Helvetica,sans-Serif" font-size="10.00" fill="#000000"> </text>
<polyline fill="none" stroke="#bfbfbf" points="886.4137,-234.5 1025.4137,-234.5 "/>
<text text-anchor="middle" x="955.9137" y="-222.5" font-family="Helvetica,sans-Serif" font-size="10.00" fill="#000000"> </text>
</g>
<!-- Node15&#45;&gt;Node2 -->
<g id="edge23" class="edge">
<title>Node15&#45;&gt;Node2</title>
<path fill="none" stroke="#404040" d="M944.5718,-215.1364C932.9815,-185.6406 914.6767,-139.0571 900.1791,-102.1626"/>
<polygon fill="none" stroke="#404040" points="900.008,-101.7269 894.0907,-97.6055 895.6192,-90.5582 901.5365,-94.6797 900.008,-101.7269"/>
<text text-anchor="middle" x="940.4137" y="-123" font-family="Helvetica,sans-Serif" font-size="10.00" fill="#000000"> +mPolicy</text>
</g>
<!-- Node16 -->
<g id="node15" class="node">
<title>Node16</title>
<polygon fill="none" stroke="#bfbfbf" points="1043.9137,-215.5 1043.9137,-272.5 1087.9137,-272.5 1087.9137,-215.5 1043.9137,-215.5"/>
<text text-anchor="middle" x="1065.9137" y="-260.5" font-family="Helvetica,sans-Serif" font-size="10.00" fill="#000000">static</text>
<polyline fill="none" stroke="#bfbfbf" points="1043.9137,-253.5 1087.9137,-253.5 "/>
<text text-anchor="middle" x="1065.9137" y="-241.5" font-family="Helvetica,sans-Serif" font-size="10.00" fill="#000000"> </text>
<polyline fill="none" stroke="#bfbfbf" points="1043.9137,-234.5 1087.9137,-234.5 "/>
<text text-anchor="middle" x="1065.9137" y="-222.5" font-family="Helvetica,sans-Serif" font-size="10.00" fill="#000000"> </text>
</g>
<!-- Node16&#45;&gt;Node2 -->
<g id="edge25" class="edge">
<title>Node16&#45;&gt;Node2</title>
<path fill="none" stroke="#404040" d="M1059.5339,-215.2494C1054.7395,-198.0702 1046.903,-176.4601 1034.9137,-160 1015.1,-132.7978 986.8885,-109.4093 959.8325,-90.9928"/>
<polygon fill="none" stroke="#404040" points="959.5463,-90.8035 952.3353,-90.8275 949.5396,-84.1804 956.7506,-84.1563 959.5463,-90.8035"/>
<text text-anchor="middle" x="1073.4137" y="-134" font-family="Helvetica,sans-Serif" font-size="10.00" fill="#000000"> +sHeaderType</text>
<text text-anchor="middle" x="1073.4137" y="-123" font-family="Helvetica,sans-Serif" font-size="10.00" fill="#000000">+sSerializationMethod</text>
<text text-anchor="middle" x="1073.4137" y="-112" font-family="Helvetica,sans-Serif" font-size="10.00" fill="#000000">+sVersion</text>
</g>
</g>
</svg>
        <g id="navigator" transform="translate(0 0)" fill="#404254">
                <rect fill="#f2f5e9" fill-opacity="0.5" stroke="#606060" stroke-width=".5" x="0" y="0" width="60" height="60"/>
                <use id="zoomplus" xlink:href="#zoomPlus" x="17" y="9" onmousedown="handleZoom(evt,'in')"/>
                <use id="zoomminus" xlink:href="#zoomMin" x="42" y="9" onmousedown="handleZoom(evt,'out')"/>
                <use id="reset" xlink:href="#resetDef" x="30" y="36" onmousedown="handleReset()"/>
                <g id="arrowUp" xlink:href="#dirArrow" transform="translate(30 24)" onmousedown="handlePan(0,-1)">
                  <use xlink:href="#rim" fill="#404040">
                        <set attributeName="fill" to="#808080" begin="arrowUp.mouseover" end="arrowUp.mouseout"/>
                  </use>
                  <path fill="none" stroke="white" stroke-width="1.5" d="M0,-3.0v7 M-2.5,-0.5L0,-3.0L2.5,-0.5"/>
                </g>
                <g id="arrowRight" xlink:href="#dirArrow" transform="rotate(90) translate(36 -43)" onmousedown="handlePan(1,0)">
                  <use xlink:href="#rim" fill="#404040">
                        <set attributeName="fill" to="#808080" begin="arrowRight.mouseover" end="arrowRight.mouseout"/>
                  </use>
                  <path fill="none" stroke="white" stroke-width="1.5" d="M0,-3.0v7 M-2.5,-0.5L0,-3.0L2.5,-0.5"/>
                </g>
                <g id="arrowDown" xlink:href="#dirArrow" transform="rotate(180) translate(-30 -48)" onmousedown="handlePan(0,1)">
                  <use xlink:href="#rim" fill="#404040">
                        <set attributeName="fill" to="#808080" begin="arrowDown.mouseover" end="arrowDown.mouseout"/>
                  </use>
                  <path fill="none" stroke="white" stroke-width="1.5" d="M0,-3.0v7 M-2.5,-0.5L0,-3.0L2.5,-0.5"/>
                </g>
                <g id="arrowLeft" xlink:href="#dirArrow" transform="rotate(270) translate(-36 17)" onmousedown="handlePan(-1,0)">
                  <use xlink:href="#rim" fill="#404040">
                        <set attributeName="fill" to="#808080" begin="arrowLeft.mouseover" end="arrowLeft.mouseout"/>
                  </use>
                  <path fill="none" stroke="white" stroke-width="1.5" d="M0,-3.0v7 M-2.5,-0.5L0,-3.0L2.5,-0.5"/>
                </g>
        </g>
        <svg viewBox="0 0 15 15" width="100%" height="30px" preserveAspectRatio="xMaxYMin meet">
         <g id="arrow_out" transform="scale(0.3 0.3)">
          <a xlink:href="structo2_1_1framework_1_1OutputObjHeader__coll__graph_org.svg" target="_base">
           <rect id="button" ry="5" rx="5" y="6" x="6" height="38" width="38"
                fill="#f2f5e9" fill-opacity="0.5" stroke="#606060" stroke-width="1.0"/>
           <path id="arrow"
             d="M 11.500037,31.436501 C 11.940474,20.09759 22.043105,11.32322 32.158766,21.979434 L 37.068811,17.246167 C 37.068811,17.246167 37.088388,32 37.088388,32 L 22.160133,31.978069 C 22.160133,31.978069 26.997745,27.140456 26.997745,27.140456 C 18.528582,18.264221 13.291696,25.230495 11.500037,31.436501 z"
             style="fill:#404040;"/>
          </a>
         </g>
        </svg>
</svg>
