<?xml version="1.0" encoding="UTF-8" standalone="no"?>
<!DOCTYPE svg PUBLIC "-//W3C//DTD SVG 1.1//EN"
 "http://www.w3.org/Graphics/SVG/1.1/DTD/svg11.dtd">
<!-- Generated by graphviz version 2.40.1 (20161225.0304)
 -->
<!-- Title: o2::tpc::zerosupp_link_based::Header Pages: 1 -->
<svg width="481pt" height="226pt"
 viewBox="0.00 0.00 481.00 226.00" xmlns="http://www.w3.org/2000/svg" xmlns:xlink="http://www.w3.org/1999/xlink">
<g id="graph0" class="graph" transform="scale(1 1) rotate(0) translate(4 222)">
<title>o2::tpc::zerosupp_link_based::Header</title>
<!-- Node1 -->
<g id="node1" class="node">
<title>Node1</title>
<polygon fill="#bfbfbf" stroke="#000000" points="172.5,-.5 172.5,-79.5 313.5,-79.5 313.5,-.5 172.5,-.5"/>
<text text-anchor="start" x="180.5" y="-67.5" font-family="Helvetica,sans-Serif" font-size="10.00" fill="#000000">o2::tpc::zerosupp_link</text>
<text text-anchor="middle" x="243" y="-56.5" font-family="Helvetica,sans-Serif" font-size="10.00" fill="#000000">_based::Header</text>
<polyline fill="none" stroke="#000000" points="172.5,-49.5 313.5,-49.5 "/>
<text text-anchor="middle" x="243" y="-37.5" font-family="Helvetica,sans-Serif" font-size="10.00" fill="#000000"> </text>
<polyline fill="none" stroke="#000000" points="172.5,-30.5 313.5,-30.5 "/>
<text text-anchor="start" x="180.5" y="-18.5" font-family="Helvetica,sans-Serif" font-size="10.00" fill="#000000">+ getChannelBits()</text>
<text text-anchor="start" x="180.5" y="-7.5" font-family="Helvetica,sans-Serif" font-size="10.00" fill="#000000">+ hasCorrectMagicWord()</text>
</g>
<!-- Node2 -->
<g id="node2" class="node">
<title>Node2</title>
<g id="a_node2"><a xlink:href="../../d6/d30/classuint64__t.html" target="_top" xlink:title="{uint64_t\n||}">
<polygon fill="none" stroke="#000000" points="0,-160.5 0,-217.5 56,-217.5 56,-160.5 0,-160.5"/>
<text text-anchor="middle" x="28" y="-205.5" font-family="Helvetica,sans-Serif" font-size="10.00" fill="#000000">uint64_t</text>
<polyline fill="none" stroke="#000000" points="0,-198.5 56,-198.5 "/>
<text text-anchor="middle" x="28" y="-186.5" font-family="Helvetica,sans-Serif" font-size="10.00" fill="#000000"> </text>
<polyline fill="none" stroke="#000000" points="0,-179.5 56,-179.5 "/>
<text text-anchor="middle" x="28" y="-167.5" font-family="Helvetica,sans-Serif" font-size="10.00" fill="#000000"> </text>
</a>
</g>
</g>
<!-- Node2&#45;&gt;Node1 -->
<g id="edge1" class="edge">
<title>Node2&#45;&gt;Node1</title>
<path fill="none" stroke="#404040" d="M26.0114,-160.1588C26.2377,-140.3389 29.907,-114.6878 45,-98 60.9479,-80.367 113.5981,-65.4252 160.5979,-55.1251"/>
<polygon fill="none" stroke="#404040" points="160.6635,-55.1111 165.697,-49.9474 172.3995,-52.6076 167.366,-57.7713 160.6635,-55.1111"/>
<text text-anchor="middle" x="80" y="-134" font-family="Helvetica,sans-Serif" font-size="10.00" fill="#000000"> +bitMaskLow</text>
<text text-anchor="middle" x="80" y="-123" font-family="Helvetica,sans-Serif" font-size="10.00" fill="#000000">+word0</text>
<text text-anchor="middle" x="80" y="-112" font-family="Helvetica,sans-Serif" font-size="10.00" fill="#000000">+word1</text>
<text text-anchor="middle" x="80" y="-101" font-family="Helvetica,sans-Serif" font-size="10.00" fill="#000000">+bitMaskHigh</text>
</g>
<!-- Node3 -->
<g id="node3" class="node">
<title>Node3</title>
<g id="a_node3"><a xlink:href="../../d3/d87/classuint32__t.html" target="_top" xlink:title="{uint32_t\n||}">
<polygon fill="none" stroke="#000000" points="93,-160.5 93,-217.5 149,-217.5 149,-160.5 93,-160.5"/>
<text text-anchor="middle" x="121" y="-205.5" font-family="Helvetica,sans-Serif" font-size="10.00" fill="#000000">uint32_t</text>
<polyline fill="none" stroke="#000000" points="93,-198.5 149,-198.5 "/>
<text text-anchor="middle" x="121" y="-186.5" font-family="Helvetica,sans-Serif" font-size="10.00" fill="#000000"> </text>
<polyline fill="none" stroke="#000000" points="93,-179.5 149,-179.5 "/>
<text text-anchor="middle" x="121" y="-167.5" font-family="Helvetica,sans-Serif" font-size="10.00" fill="#000000"> </text>
</a>
</g>
</g>
<!-- Node3&#45;&gt;Node1 -->
<g id="edge2" class="edge">
<title>Node3&#45;&gt;Node1</title>
<path fill="none" stroke="#404040" d="M117.8978,-160.3359C117.2923,-141.0975 119.5132,-116.0654 132,-98 139.7452,-86.7946 150.3471,-77.6 161.9438,-70.1032"/>
<polygon fill="none" stroke="#404040" points="162.0187,-70.0589 165.1432,-63.5598 172.344,-63.9443 169.2196,-70.4434 162.0187,-70.0589"/>
<text text-anchor="middle" x="181.5" y="-128.5" font-family="Helvetica,sans-Serif" font-size="10.00" fill="#000000"> +magicWord</text>
<text text-anchor="middle" x="181.5" y="-117.5" font-family="Helvetica,sans-Serif" font-size="10.00" fill="#000000">+numWordsPayload</text>
<text text-anchor="middle" x="181.5" y="-106.5" font-family="Helvetica,sans-Serif" font-size="10.00" fill="#000000">+bunchCrossing</text>
</g>
<!-- Node4 -->
<g id="node4" class="node">
<title>Node4</title>
<polygon fill="none" stroke="#bfbfbf" points="178.5,-160.5 178.5,-217.5 285.5,-217.5 285.5,-160.5 178.5,-160.5"/>
<text text-anchor="middle" x="232" y="-205.5" font-family="Helvetica,sans-Serif" font-size="10.00" fill="#000000">anonymous:+@42</text>
<polyline fill="none" stroke="#bfbfbf" points="178.5,-198.5 285.5,-198.5 "/>
<text text-anchor="middle" x="232" y="-186.5" font-family="Helvetica,sans-Serif" font-size="10.00" fill="#000000"> </text>
<polyline fill="none" stroke="#bfbfbf" points="178.5,-179.5 285.5,-179.5 "/>
<text text-anchor="middle" x="232" y="-167.5" font-family="Helvetica,sans-Serif" font-size="10.00" fill="#000000"> </text>
</g>
<!-- Node4&#45;&gt;Node1 -->
<g id="edge3" class="edge">
<title>Node4&#45;&gt;Node1</title>
<path fill="none" stroke="#404040" d="M234.1209,-160.2713C235.555,-140.8453 237.4896,-114.6404 239.1869,-91.6499"/>
<polygon fill="none" stroke="#404040" points="239.1912,-91.591 235.6438,-85.3127 240.0748,-79.6236 243.6221,-85.9018 239.1912,-91.591"/>
<text text-anchor="middle" x="255" y="-117.5" font-family="Helvetica,sans-Serif" font-size="10.00" fill="#000000"> +@42</text>
</g>
<!-- Node5 -->
<g id="node5" class="node">
<title>Node5</title>
<polygon fill="none" stroke="#bfbfbf" points="303.5,-160.5 303.5,-217.5 410.5,-217.5 410.5,-160.5 303.5,-160.5"/>
<text text-anchor="middle" x="357" y="-205.5" font-family="Helvetica,sans-Serif" font-size="10.00" fill="#000000">anonymous:+@44</text>
<polyline fill="none" stroke="#bfbfbf" points="303.5,-198.5 410.5,-198.5 "/>
<text text-anchor="middle" x="357" y="-186.5" font-family="Helvetica,sans-Serif" font-size="10.00" fill="#000000"> </text>
<polyline fill="none" stroke="#bfbfbf" points="303.5,-179.5 410.5,-179.5 "/>
<text text-anchor="middle" x="357" y="-167.5" font-family="Helvetica,sans-Serif" font-size="10.00" fill="#000000"> </text>
</g>
<!-- Node5&#45;&gt;Node1 -->
<g id="edge4" class="edge">
<title>Node5&#45;&gt;Node1</title>
<path fill="none" stroke="#404040" d="M335.0197,-160.2713C319.6774,-140.2186 298.8085,-112.9427 280.823,-89.4354"/>
<polygon fill="none" stroke="#404040" points="280.6078,-89.1541 273.7851,-86.8194 273.316,-79.6236 280.1387,-81.9582 280.6078,-89.1541"/>
<text text-anchor="middle" x="337" y="-117.5" font-family="Helvetica,sans-Serif" font-size="10.00" fill="#000000"> +@44</text>
</g>
<!-- Node6 -->
<g id="node6" class="node">
<title>Node6</title>
<polygon fill="none" stroke="#bfbfbf" points="429,-160.5 429,-217.5 473,-217.5 473,-160.5 429,-160.5"/>
<text text-anchor="middle" x="451" y="-205.5" font-family="Helvetica,sans-Serif" font-size="10.00" fill="#000000">static</text>
<polyline fill="none" stroke="#bfbfbf" points="429,-198.5 473,-198.5 "/>
<text text-anchor="middle" x="451" y="-186.5" font-family="Helvetica,sans-Serif" font-size="10.00" fill="#000000"> </text>
<polyline fill="none" stroke="#bfbfbf" points="429,-179.5 473,-179.5 "/>
<text text-anchor="middle" x="451" y="-167.5" font-family="Helvetica,sans-Serif" font-size="10.00" fill="#000000"> </text>
</g>
<!-- Node6&#45;&gt;Node1 -->
<g id="edge5" class="edge">
<title>Node6&#45;&gt;Node1</title>
<path fill="none" stroke="#404040" d="M428.736,-163.2576C410.9401,-143.7173 384.6427,-117.0536 358,-98 347.556,-90.5309 336.0113,-83.4944 324.3852,-77.0722"/>
<polygon fill="none" stroke="#404040" points="324.2908,-77.0216 317.1128,-77.7123 313.7145,-71.3521 320.8925,-70.6615 324.2908,-77.0216"/>
<text text-anchor="middle" x="438.5" y="-117.5" font-family="Helvetica,sans-Serif" font-size="10.00" fill="#000000"> +MagicWord</text>
</g>
</g>
</svg>
