<?xml version="1.0" encoding="UTF-8" standalone="no"?>
<!DOCTYPE svg PUBLIC "-//W3C//DTD SVG 1.1//EN"
 "http://www.w3.org/Graphics/SVG/1.1/DTD/svg11.dtd">
<!-- Generated by graphviz version 2.40.1 (20161225.0304)
 -->
<!-- Title: o2::emcal::EMCALBlockHeader Pages: 1 -->
<svg width="1097pt" height="1003pt"
 viewBox="0.00 0.00 1096.50 1003.00" xmlns="http://www.w3.org/2000/svg" xmlns:xlink="http://www.w3.org/1999/xlink">
<g id="graph0" class="graph" transform="scale(1 1) rotate(0) translate(4 999)">
<title>o2::emcal::EMCALBlockHeader</title>
<!-- Node2 -->
<g id="node1" class="node">
<title>Node2</title>
<polygon fill="#bfbfbf" stroke="#000000" points="865.5,-.5 865.5,-57.5 1031.5,-57.5 1031.5,-.5 865.5,-.5"/>
<text text-anchor="middle" x="948.5" y="-45.5" font-family="Helvetica,sans-Serif" font-size="10.00" fill="#000000">o2::emcal::EMCALBlockHeader</text>
<polyline fill="none" stroke="#000000" points="865.5,-38.5 1031.5,-38.5 "/>
<text text-anchor="middle" x="948.5" y="-26.5" font-family="Helvetica,sans-Serif" font-size="10.00" fill="#000000"> </text>
<polyline fill="none" stroke="#000000" points="865.5,-19.5 1031.5,-19.5 "/>
<text text-anchor="start" x="873.5" y="-7.5" font-family="Helvetica,sans-Serif" font-size="10.00" fill="#000000">+ EMCALBlockHeader()</text>
</g>
<!-- Node3 -->
<g id="node2" class="node">
<title>Node3</title>
<g id="a_node2"><a xlink:href="../../d8/dbd/structo2_1_1header_1_1BaseHeader.html" target="_top" xlink:title="the base header struct Every header type must begin (i.e. derive) with this. Don&#39;t use this struct di...">
<polygon fill="none" stroke="#000000" points="469,-105.5 469,-272.5 642,-272.5 642,-105.5 469,-105.5"/>
<text text-anchor="middle" x="555.5" y="-260.5" font-family="Helvetica,sans-Serif" font-size="10.00" fill="#000000">o2::header::BaseHeader</text>
<polyline fill="none" stroke="#000000" points="469,-253.5 642,-253.5 "/>
<text text-anchor="middle" x="555.5" y="-241.5" font-family="Helvetica,sans-Serif" font-size="10.00" fill="#000000"> </text>
<polyline fill="none" stroke="#000000" points="469,-234.5 642,-234.5 "/>
<text text-anchor="start" x="477" y="-222.5" font-family="Helvetica,sans-Serif" font-size="10.00" fill="#000000">+ BaseHeader()</text>
<text text-anchor="start" x="477" y="-211.5" font-family="Helvetica,sans-Serif" font-size="10.00" fill="#000000">+ BaseHeader()</text>
<text text-anchor="start" x="477" y="-200.5" font-family="Helvetica,sans-Serif" font-size="10.00" fill="#000000">+ BaseHeader()</text>
<text text-anchor="start" x="477" y="-189.5" font-family="Helvetica,sans-Serif" font-size="10.00" fill="#000000">+ size()</text>
<text text-anchor="start" x="477" y="-178.5" font-family="Helvetica,sans-Serif" font-size="10.00" fill="#000000">+ data()</text>
<text text-anchor="start" x="477" y="-167.5" font-family="Helvetica,sans-Serif" font-size="10.00" fill="#000000">+ next()</text>
<text text-anchor="start" x="477" y="-156.5" font-family="Helvetica,sans-Serif" font-size="10.00" fill="#000000">+ next()</text>
<text text-anchor="start" x="477" y="-145.5" font-family="Helvetica,sans-Serif" font-size="10.00" fill="#000000">+ sanityCheck()</text>
<text text-anchor="start" x="477" y="-134.5" font-family="Helvetica,sans-Serif" font-size="10.00" fill="#000000">+ throwInconsistentStackError()</text>
<text text-anchor="start" x="477" y="-123.5" font-family="Helvetica,sans-Serif" font-size="10.00" fill="#000000">+ get()</text>
<text text-anchor="start" x="477" y="-112.5" font-family="Helvetica,sans-Serif" font-size="10.00" fill="#000000">+ get()</text>
</a>
</g>
</g>
<!-- Node3&#45;&gt;Node2 -->
<g id="edge1" class="edge">
<title>Node3&#45;&gt;Node2</title>
<path fill="none" stroke="#191970" d="M651.5325,-149.9028C721.666,-121.3497 815.1582,-83.2867 878.3616,-57.5551"/>
<polygon fill="none" stroke="#191970" points="650.1741,-146.6768 642.232,-153.6892 652.8137,-153.1601 650.1741,-146.6768"/>
</g>
<!-- Node4 -->
<g id="node3" class="node">
<title>Node4</title>
<g id="a_node3"><a xlink:href="../../d9/db3/structo2_1_1header_1_1Descriptor.html" target="_top" xlink:title="{o2::header::Descriptor\l\&lt; gSizeHeaderDescriptionString \&gt;\n||+ Descriptor()\l+ Descriptor()\l+ Descriptor()\l+ Descriptor()\l+ operator=()\l+ operator ItgType()\l+ runtimeInit()\l+ operator==()\l+ operator==()\l+ operator\&lt;()\l+ operator!=()\l+ operator!=()\l+ as()\l+ print()\l}">
<polygon fill="none" stroke="#000000" points="343,-386.5 343,-597.5 528,-597.5 528,-386.5 343,-386.5"/>
<text text-anchor="start" x="351" y="-585.5" font-family="Helvetica,sans-Serif" font-size="10.00" fill="#000000">o2::header::Descriptor</text>
<text text-anchor="middle" x="435.5" y="-574.5" font-family="Helvetica,sans-Serif" font-size="10.00" fill="#000000">&lt; gSizeHeaderDescriptionString &gt;</text>
<polyline fill="none" stroke="#000000" points="343,-567.5 528,-567.5 "/>
<text text-anchor="middle" x="435.5" y="-555.5" font-family="Helvetica,sans-Serif" font-size="10.00" fill="#000000"> </text>
<polyline fill="none" stroke="#000000" points="343,-548.5 528,-548.5 "/>
<text text-anchor="start" x="351" y="-536.5" font-family="Helvetica,sans-Serif" font-size="10.00" fill="#000000">+ Descriptor()</text>
<text text-anchor="start" x="351" y="-525.5" font-family="Helvetica,sans-Serif" font-size="10.00" fill="#000000">+ Descriptor()</text>
<text text-anchor="start" x="351" y="-514.5" font-family="Helvetica,sans-Serif" font-size="10.00" fill="#000000">+ Descriptor()</text>
<text text-anchor="start" x="351" y="-503.5" font-family="Helvetica,sans-Serif" font-size="10.00" fill="#000000">+ Descriptor()</text>
<text text-anchor="start" x="351" y="-492.5" font-family="Helvetica,sans-Serif" font-size="10.00" fill="#000000">+ operator=()</text>
<text text-anchor="start" x="351" y="-481.5" font-family="Helvetica,sans-Serif" font-size="10.00" fill="#000000">+ operator ItgType()</text>
<text text-anchor="start" x="351" y="-470.5" font-family="Helvetica,sans-Serif" font-size="10.00" fill="#000000">+ runtimeInit()</text>
<text text-anchor="start" x="351" y="-459.5" font-family="Helvetica,sans-Serif" font-size="10.00" fill="#000000">+ operator==()</text>
<text text-anchor="start" x="351" y="-448.5" font-family="Helvetica,sans-Serif" font-size="10.00" fill="#000000">+ operator==()</text>
<text text-anchor="start" x="351" y="-437.5" font-family="Helvetica,sans-Serif" font-size="10.00" fill="#000000">+ operator&lt;()</text>
<text text-anchor="start" x="351" y="-426.5" font-family="Helvetica,sans-Serif" font-size="10.00" fill="#000000">+ operator!=()</text>
<text text-anchor="start" x="351" y="-415.5" font-family="Helvetica,sans-Serif" font-size="10.00" fill="#000000">+ operator!=()</text>
<text text-anchor="start" x="351" y="-404.5" font-family="Helvetica,sans-Serif" font-size="10.00" fill="#000000">+ as()</text>
<text text-anchor="start" x="351" y="-393.5" font-family="Helvetica,sans-Serif" font-size="10.00" fill="#000000">+ print()</text>
</a>
</g>
</g>
<!-- Node4&#45;&gt;Node3 -->
<g id="edge2" class="edge">
<title>Node4&#45;&gt;Node3</title>
<path fill="none" stroke="#404040" d="M466.4459,-386.4327C476.5663,-355.2934 488.564,-321.4197 501.5,-291 502.5512,-288.528 503.6404,-286.0353 504.7607,-283.5306"/>
<polygon fill="none" stroke="#404040" points="504.8226,-283.3963 503.7049,-276.2724 509.851,-272.5006 510.9687,-279.6246 504.8226,-283.3963"/>
<text text-anchor="middle" x="534.5" y="-327" font-family="Helvetica,sans-Serif" font-size="10.00" fill="#000000"> +description</text>
</g>
<!-- Node5 -->
<g id="node4" class="node">
<title>Node5</title>
<polygon fill="none" stroke="#bfbfbf" points="802,-937.5 802,-994.5 909,-994.5 909,-937.5 802,-937.5"/>
<text text-anchor="middle" x="855.5" y="-982.5" font-family="Helvetica,sans-Serif" font-size="10.00" fill="#000000">anonymous:+@78</text>
<polyline fill="none" stroke="#bfbfbf" points="802,-975.5 909,-975.5 "/>
<text text-anchor="middle" x="855.5" y="-963.5" font-family="Helvetica,sans-Serif" font-size="10.00" fill="#000000"> </text>
<polyline fill="none" stroke="#bfbfbf" points="802,-956.5 909,-956.5 "/>
<text text-anchor="middle" x="855.5" y="-944.5" font-family="Helvetica,sans-Serif" font-size="10.00" fill="#000000"> </text>
</g>
<!-- Node5&#45;&gt;Node4 -->
<g id="edge3" class="edge">
<title>Node5&#45;&gt;Node4</title>
<path fill="none" stroke="#404040" d="M852.2363,-937.4655C850.0395,-922.0171 846.5956,-902.7249 841.5,-886 838.9486,-877.6255 835.8753,-876.4261 833.5,-868 820.6066,-822.2624 836.3066,-692.1819 805.5,-656 787.4513,-634.802 772.0612,-646.3435 745.5,-638 715.5985,-628.6073 709.0751,-622.891 678.5,-616 620.0768,-602.8325 596.1284,-623.9283 539.1441,-598.655"/>
<polygon fill="none" stroke="#404040" points="538.9304,-598.5529 531.792,-599.5741 528.1037,-593.3776 535.2422,-592.3564 538.9304,-598.5529"/>
<text text-anchor="middle" x="850.5" y="-759.5" font-family="Helvetica,sans-Serif" font-size="10.00" fill="#000000"> +@78</text>
</g>
<!-- Node9 -->
<g id="node8" class="node">
<title>Node9</title>
<g id="a_node8"><a xlink:href="../../d9/db3/structo2_1_1header_1_1Descriptor.html" target="_top" xlink:title="{o2::header::Descriptor\l\&lt; N, PrinterPolicy \&gt;\n||+ Descriptor()\l+ Descriptor()\l+ Descriptor()\l+ operator=()\l+ operator ItgType()\l+ Descriptor()\l+ runtimeInit()\l+ operator==()\l+ operator\&lt;()\l+ operator!=()\l+ operator==()\l+ operator!=()\l+ as()\l+ print()\l}">
<polygon fill="none" stroke="#000000" points="672,-656.5 672,-867.5 797,-867.5 797,-656.5 672,-656.5"/>
<text text-anchor="start" x="680" y="-855.5" font-family="Helvetica,sans-Serif" font-size="10.00" fill="#000000">o2::header::Descriptor</text>
<text text-anchor="middle" x="734.5" y="-844.5" font-family="Helvetica,sans-Serif" font-size="10.00" fill="#000000">&lt; N, PrinterPolicy &gt;</text>
<polyline fill="none" stroke="#000000" points="672,-837.5 797,-837.5 "/>
<text text-anchor="middle" x="734.5" y="-825.5" font-family="Helvetica,sans-Serif" font-size="10.00" fill="#000000"> </text>
<polyline fill="none" stroke="#000000" points="672,-818.5 797,-818.5 "/>
<text text-anchor="start" x="680" y="-806.5" font-family="Helvetica,sans-Serif" font-size="10.00" fill="#000000">+ Descriptor()</text>
<text text-anchor="start" x="680" y="-795.5" font-family="Helvetica,sans-Serif" font-size="10.00" fill="#000000">+ Descriptor()</text>
<text text-anchor="start" x="680" y="-784.5" font-family="Helvetica,sans-Serif" font-size="10.00" fill="#000000">+ Descriptor()</text>
<text text-anchor="start" x="680" y="-773.5" font-family="Helvetica,sans-Serif" font-size="10.00" fill="#000000">+ operator=()</text>
<text text-anchor="start" x="680" y="-762.5" font-family="Helvetica,sans-Serif" font-size="10.00" fill="#000000">+ operator ItgType()</text>
<text text-anchor="start" x="680" y="-751.5" font-family="Helvetica,sans-Serif" font-size="10.00" fill="#000000">+ Descriptor()</text>
<text text-anchor="start" x="680" y="-740.5" font-family="Helvetica,sans-Serif" font-size="10.00" fill="#000000">+ runtimeInit()</text>
<text text-anchor="start" x="680" y="-729.5" font-family="Helvetica,sans-Serif" font-size="10.00" fill="#000000">+ operator==()</text>
<text text-anchor="start" x="680" y="-718.5" font-family="Helvetica,sans-Serif" font-size="10.00" fill="#000000">+ operator&lt;()</text>
<text text-anchor="start" x="680" y="-707.5" font-family="Helvetica,sans-Serif" font-size="10.00" fill="#000000">+ operator!=()</text>
<text text-anchor="start" x="680" y="-696.5" font-family="Helvetica,sans-Serif" font-size="10.00" fill="#000000">+ operator==()</text>
<text text-anchor="start" x="680" y="-685.5" font-family="Helvetica,sans-Serif" font-size="10.00" fill="#000000">+ operator!=()</text>
<text text-anchor="start" x="680" y="-674.5" font-family="Helvetica,sans-Serif" font-size="10.00" fill="#000000">+ as()</text>
<text text-anchor="start" x="680" y="-663.5" font-family="Helvetica,sans-Serif" font-size="10.00" fill="#000000">+ print()</text>
</a>
</g>
</g>
<!-- Node5&#45;&gt;Node9 -->
<g id="edge8" class="edge">
<title>Node5&#45;&gt;Node9</title>
<path fill="none" stroke="#404040" d="M823.0207,-937.4051C817.4503,-931.6396 812.0122,-925.3798 807.5,-919 798.5787,-906.386 790.2971,-892.5084 782.7579,-878.383"/>
<polygon fill="none" stroke="#404040" points="782.6641,-878.2022 776.3508,-874.7177 777.139,-867.5498 783.4524,-871.0343 782.6641,-878.2022"/>
<text text-anchor="middle" x="824.5" y="-900" font-family="Helvetica,sans-Serif" font-size="10.00" fill="#000000"> +@78</text>
</g>
<!-- Node11 -->
<g id="node10" class="node">
<title>Node11</title>
<g id="a_node10"><a xlink:href="../../d9/db3/structo2_1_1header_1_1Descriptor.html" target="_top" xlink:title="{o2::header::Descriptor\l\&lt; gSizeSerializationMethodString \&gt;\n||+ Descriptor()\l+ Descriptor()\l+ Descriptor()\l+ Descriptor()\l+ operator=()\l+ operator ItgType()\l+ runtimeInit()\l+ operator==()\l+ operator==()\l+ operator\&lt;()\l+ operator!=()\l+ operator!=()\l+ as()\l+ print()\l}">
<polygon fill="none" stroke="#000000" points="671,-386.5 671,-597.5 862,-597.5 862,-386.5 671,-386.5"/>
<text text-anchor="start" x="679" y="-585.5" font-family="Helvetica,sans-Serif" font-size="10.00" fill="#000000">o2::header::Descriptor</text>
<text text-anchor="middle" x="766.5" y="-574.5" font-family="Helvetica,sans-Serif" font-size="10.00" fill="#000000">&lt; gSizeSerializationMethodString &gt;</text>
<polyline fill="none" stroke="#000000" points="671,-567.5 862,-567.5 "/>
<text text-anchor="middle" x="766.5" y="-555.5" font-family="Helvetica,sans-Serif" font-size="10.00" fill="#000000"> </text>
<polyline fill="none" stroke="#000000" points="671,-548.5 862,-548.5 "/>
<text text-anchor="start" x="679" y="-536.5" font-family="Helvetica,sans-Serif" font-size="10.00" fill="#000000">+ Descriptor()</text>
<text text-anchor="start" x="679" y="-525.5" font-family="Helvetica,sans-Serif" font-size="10.00" fill="#000000">+ Descriptor()</text>
<text text-anchor="start" x="679" y="-514.5" font-family="Helvetica,sans-Serif" font-size="10.00" fill="#000000">+ Descriptor()</text>
<text text-anchor="start" x="679" y="-503.5" font-family="Helvetica,sans-Serif" font-size="10.00" fill="#000000">+ Descriptor()</text>
<text text-anchor="start" x="679" y="-492.5" font-family="Helvetica,sans-Serif" font-size="10.00" fill="#000000">+ operator=()</text>
<text text-anchor="start" x="679" y="-481.5" font-family="Helvetica,sans-Serif" font-size="10.00" fill="#000000">+ operator ItgType()</text>
<text text-anchor="start" x="679" y="-470.5" font-family="Helvetica,sans-Serif" font-size="10.00" fill="#000000">+ runtimeInit()</text>
<text text-anchor="start" x="679" y="-459.5" font-family="Helvetica,sans-Serif" font-size="10.00" fill="#000000">+ operator==()</text>
<text text-anchor="start" x="679" y="-448.5" font-family="Helvetica,sans-Serif" font-size="10.00" fill="#000000">+ operator==()</text>
<text text-anchor="start" x="679" y="-437.5" font-family="Helvetica,sans-Serif" font-size="10.00" fill="#000000">+ operator&lt;()</text>
<text text-anchor="start" x="679" y="-426.5" font-family="Helvetica,sans-Serif" font-size="10.00" fill="#000000">+ operator!=()</text>
<text text-anchor="start" x="679" y="-415.5" font-family="Helvetica,sans-Serif" font-size="10.00" fill="#000000">+ operator!=()</text>
<text text-anchor="start" x="679" y="-404.5" font-family="Helvetica,sans-Serif" font-size="10.00" fill="#000000">+ as()</text>
<text text-anchor="start" x="679" y="-393.5" font-family="Helvetica,sans-Serif" font-size="10.00" fill="#000000">+ print()</text>
</a>
</g>
</g>
<!-- Node5&#45;&gt;Node11 -->
<g id="edge15" class="edge">
<title>Node5&#45;&gt;Node11</title>
<path fill="none" stroke="#404040" d="M883.2911,-937.3787C899.0072,-919.134 917.1412,-894.0834 925.5,-868 954.2545,-778.2726 948.0546,-747.4829 925.5,-656 920.6936,-636.5049 918.5846,-630.3103 904.5,-616 894.7036,-606.0466 887.5563,-607.172 872.2446,-597.7046"/>
<polygon fill="none" stroke="#404040" points="872.0654,-597.5803 864.8555,-597.4484 862.2042,-590.7424 869.4141,-590.8743 872.0654,-597.5803"/>
<text text-anchor="middle" x="962.5" y="-759.5" font-family="Helvetica,sans-Serif" font-size="10.00" fill="#000000"> +@78</text>
</g>
<!-- Node6 -->
<g id="node5" class="node">
<title>Node6</title>
<polygon fill="none" stroke="#bfbfbf" points="714,-937.5 714,-994.5 753,-994.5 753,-937.5 714,-937.5"/>
<text text-anchor="middle" x="733.5" y="-982.5" font-family="Helvetica,sans-Serif" font-size="10.00" fill="#000000">Type</text>
<polyline fill="none" stroke="#bfbfbf" points="714,-975.5 753,-975.5 "/>
<text text-anchor="middle" x="733.5" y="-963.5" font-family="Helvetica,sans-Serif" font-size="10.00" fill="#000000"> </text>
<polyline fill="none" stroke="#bfbfbf" points="714,-956.5 753,-956.5 "/>
<text text-anchor="middle" x="733.5" y="-944.5" font-family="Helvetica,sans-Serif" font-size="10.00" fill="#000000"> </text>
</g>
<!-- Node6&#45;&gt;Node4 -->
<g id="edge4" class="edge">
<title>Node6&#45;&gt;Node4</title>
<path fill="none" stroke="#404040" d="M713.7479,-954.7644C699.1216,-945.9781 679.1089,-932.9472 663.5,-919 649.157,-906.1839 651.435,-896.7727 635.5,-886 614.5418,-871.8313 598.6889,-886.5619 581.5,-868 515.5105,-796.7394 564.5622,-746.1788 528.5,-656 522.1802,-640.1964 514.5906,-624.0464 506.5079,-608.3428"/>
<polygon fill="none" stroke="#404040" points="506.4209,-608.1769 500.0903,-604.7238 500.843,-597.5521 507.1736,-601.0052 506.4209,-608.1769"/>
<text text-anchor="middle" x="594" y="-759.5" font-family="Helvetica,sans-Serif" font-size="10.00" fill="#000000"> +itg</text>
</g>
<!-- Node6&#45;&gt;Node9 -->
<g id="edge9" class="edge">
<title>Node6&#45;&gt;Node9</title>
<path fill="none" stroke="#404040" d="M733.6412,-937.2045C733.7176,-921.616 733.8176,-901.2061 733.9223,-879.8459"/>
<polygon fill="none" stroke="#404040" points="733.9237,-879.549 729.9532,-873.5294 733.9826,-867.5491 737.9531,-873.5687 733.9237,-879.549"/>
<text text-anchor="middle" x="747" y="-900" font-family="Helvetica,sans-Serif" font-size="10.00" fill="#000000"> +itg</text>
</g>
<!-- Node6&#45;&gt;Node11 -->
<g id="edge16" class="edge">
<title>Node6&#45;&gt;Node11</title>
<path fill="none" stroke="#404040" d="M753.0648,-956.5608C770.3967,-947.8235 796.0495,-933.9566 816.5,-919 843.4079,-899.3207 856.9816,-898.0087 871.5,-868 916.1553,-775.7 885.4969,-740.4566 889.5,-638 889.8817,-628.2297 893.2418,-625.0335 889.5,-616 885.1704,-605.5475 879.481,-606.0189 871.5,-598 871.2088,-597.7074 870.9171,-597.4143 870.625,-597.1208"/>
<polygon fill="none" stroke="#404040" points="870.512,-597.0072 863.4448,-595.5736 862.0499,-588.4987 869.1171,-589.9322 870.512,-597.0072"/>
<text text-anchor="middle" x="909" y="-759.5" font-family="Helvetica,sans-Serif" font-size="10.00" fill="#000000"> +itg</text>
</g>
<!-- Node7 -->
<g id="node6" class="node">
<title>Node7</title>
<polygon fill="none" stroke="#bfbfbf" points="546.5,-937.5 546.5,-994.5 584.5,-994.5 584.5,-937.5 546.5,-937.5"/>
<text text-anchor="middle" x="565.5" y="-982.5" font-family="Helvetica,sans-Serif" font-size="10.00" fill="#000000">char</text>
<polyline fill="none" stroke="#bfbfbf" points="546.5,-975.5 584.5,-975.5 "/>
<text text-anchor="middle" x="565.5" y="-963.5" font-family="Helvetica,sans-Serif" font-size="10.00" fill="#000000"> </text>
<polyline fill="none" stroke="#bfbfbf" points="546.5,-956.5 584.5,-956.5 "/>
<text text-anchor="middle" x="565.5" y="-944.5" font-family="Helvetica,sans-Serif" font-size="10.00" fill="#000000"> </text>
</g>
<!-- Node7&#45;&gt;Node3 -->
<g id="edge13" class="edge">
<title>Node7&#45;&gt;Node3</title>
<path fill="none" stroke="#404040" d="M546.2703,-961.6558C491.3783,-948.8277 336.0685,-909.4116 307.5,-868 185.6769,-691.4106 236.2456,-577.2231 333.5,-386 361.7961,-330.3637 413.0194,-283.2713 459.1371,-249.094"/>
<polygon fill="none" stroke="#404040" points="459.1866,-249.058 461.6854,-242.2937 468.8905,-241.9986 466.3917,-248.7629 459.1866,-249.058"/>
<text text-anchor="middle" x="275.5" y="-624.5" font-family="Helvetica,sans-Serif" font-size="10.00" fill="#000000"> +magicString</text>
</g>
<!-- Node7&#45;&gt;Node4 -->
<g id="edge5" class="edge">
<title>Node7&#45;&gt;Node4</title>
<path fill="none" stroke="#404040" d="M546.0751,-950.5411C536.8903,-942.1791 526.6201,-931.0959 520.5,-919 466.9275,-813.1181 498.4597,-772.2193 474.5,-656 471.3921,-640.9248 467.9151,-625.1219 464.3519,-609.5264"/>
<polygon fill="none" stroke="#404040" points="464.3112,-609.3496 459.0653,-604.4018 461.6149,-597.6565 466.8608,-602.6043 464.3112,-609.3496"/>
<text text-anchor="middle" x="512" y="-759.5" font-family="Helvetica,sans-Serif" font-size="10.00" fill="#000000"> +str</text>
</g>
<!-- Node7&#45;&gt;Node9 -->
<g id="edge10" class="edge">
<title>Node7&#45;&gt;Node9</title>
<path fill="none" stroke="#404040" d="M584.5555,-956.8169C600.3524,-948.5287 622.6992,-935.1721 638.5,-919 650.5637,-906.6528 661.8115,-892.5239 672.0505,-877.9153"/>
<polygon fill="none" stroke="#404040" points="672.2234,-877.6613 672.2927,-870.4505 678.9754,-867.7411 678.9061,-874.9519 672.2234,-877.6613"/>
<text text-anchor="middle" x="677" y="-900" font-family="Helvetica,sans-Serif" font-size="10.00" fill="#000000"> +str</text>
</g>
<!-- Node7&#45;&gt;Node11 -->
<g id="edge17" class="edge">
<title>Node7&#45;&gt;Node11</title>
<path fill="none" stroke="#404040" d="M584.8278,-951.1317C594.2262,-942.7709 604.7173,-931.5102 610.5,-919 659.802,-812.3402 566.7355,-749.8051 637.5,-656 650.4725,-638.8037 666.2292,-652.116 682.5,-638 692.6652,-629.181 701.8901,-618.8147 710.1844,-607.7424"/>
<polygon fill="none" stroke="#404040" points="710.2691,-607.6235 710.4943,-600.4159 717.234,-597.8516 717.0089,-605.0592 710.2691,-607.6235"/>
<text text-anchor="middle" x="650" y="-759.5" font-family="Helvetica,sans-Serif" font-size="10.00" fill="#000000"> +str</text>
</g>
<!-- Node8 -->
<g id="node7" class="node">
<title>Node8</title>
<polygon fill="none" stroke="#bfbfbf" points="398,-937.5 398,-994.5 427,-994.5 427,-937.5 398,-937.5"/>
<text text-anchor="middle" x="412.5" y="-982.5" font-family="Helvetica,sans-Serif" font-size="10.00" fill="#000000">int</text>
<polyline fill="none" stroke="#bfbfbf" points="398,-975.5 427,-975.5 "/>
<text text-anchor="middle" x="412.5" y="-963.5" font-family="Helvetica,sans-Serif" font-size="10.00" fill="#000000"> </text>
<polyline fill="none" stroke="#bfbfbf" points="398,-956.5 427,-956.5 "/>
<text text-anchor="middle" x="412.5" y="-944.5" font-family="Helvetica,sans-Serif" font-size="10.00" fill="#000000"> </text>
</g>
<!-- Node8&#45;&gt;Node4 -->
<g id="edge6" class="edge">
<title>Node8&#45;&gt;Node4</title>
<path fill="none" stroke="#404040" d="M397.7466,-953.9382C378.4219,-937.078 345.475,-904.4122 332.5,-868 300.8731,-779.2443 306.4254,-746.5425 332.5,-656 332.6321,-655.5412 345.6535,-634.7361 362.3952,-608.0898"/>
<polygon fill="none" stroke="#404040" points="362.589,-607.7815 362.3952,-600.573 368.9747,-597.6216 369.1684,-604.8301 362.589,-607.7815"/>
<text text-anchor="middle" x="361.5" y="-770.5" font-family="Helvetica,sans-Serif" font-size="10.00" fill="#000000"> +arraySize</text>
<text text-anchor="middle" x="361.5" y="-759.5" font-family="Helvetica,sans-Serif" font-size="10.00" fill="#000000">+size</text>
<text text-anchor="middle" x="361.5" y="-748.5" font-family="Helvetica,sans-Serif" font-size="10.00" fill="#000000">+bitcount</text>
</g>
<!-- Node8&#45;&gt;Node9 -->
<g id="edge11" class="edge">
<title>Node8&#45;&gt;Node9</title>
<path fill="none" stroke="#404040" d="M427.3592,-957.263C455.5412,-941.0346 519.0824,-906.0692 576.5,-886 611.3129,-873.8318 626.6652,-888.2291 657.5,-868 659.2324,-866.8634 660.9391,-865.6735 662.6196,-864.4355"/>
<polygon fill="none" stroke="#404040" points="662.6395,-864.4194 664.7764,-857.5322 671.9558,-856.8558 669.8188,-863.743 662.6395,-864.4194"/>
<text text-anchor="middle" x="605.5" y="-911" font-family="Helvetica,sans-Serif" font-size="10.00" fill="#000000"> +arraySize</text>
<text text-anchor="middle" x="605.5" y="-900" font-family="Helvetica,sans-Serif" font-size="10.00" fill="#000000">+size</text>
<text text-anchor="middle" x="605.5" y="-889" font-family="Helvetica,sans-Serif" font-size="10.00" fill="#000000">+bitcount</text>
</g>
<!-- Node8&#45;&gt;Node11 -->
<g id="edge18" class="edge">
<title>Node8&#45;&gt;Node11</title>
<path fill="none" stroke="#404040" d="M408.4537,-937.3818C399.4704,-869.4169 381.0324,-700.6527 412.5,-656 475.7826,-566.2017 554.2913,-643.0126 659.8108,-598.0405"/>
<polygon fill="none" stroke="#404040" points="659.8883,-598.0047 663.6533,-591.8545 670.7785,-592.9644 667.0135,-599.1146 659.8883,-598.0047"/>
<text text-anchor="middle" x="441.5" y="-770.5" font-family="Helvetica,sans-Serif" font-size="10.00" fill="#000000"> +arraySize</text>
<text text-anchor="middle" x="441.5" y="-759.5" font-family="Helvetica,sans-Serif" font-size="10.00" fill="#000000">+size</text>
<text text-anchor="middle" x="441.5" y="-748.5" font-family="Helvetica,sans-Serif" font-size="10.00" fill="#000000">+bitcount</text>
</g>
<!-- Node9&#45;&gt;Node2 -->
<g id="edge25" class="edge">
<title>Node9&#45;&gt;Node2</title>
<path fill="none" stroke="#404040" d="M797.0011,-659.2735C798.4733,-658.1377 799.9729,-657.0451 801.5,-656 835.8829,-632.4689 855.533,-655.1582 893.5,-638 920.0704,-625.9922 931.4297,-623.5382 945.5,-598 1051.4296,-405.7336 1012.785,-321.3268 975.5,-105 973.4348,-93.0176 969.664,-80.4197 965.5824,-69.0025"/>
<polygon fill="none" stroke="#404040" points="965.5181,-68.8321 959.6549,-64.6341 961.2749,-57.6073 967.1381,-61.8053 965.5181,-68.8321"/>
<text text-anchor="middle" x="1051" y="-327" font-family="Helvetica,sans-Serif" font-size="10.00" fill="#000000"> +sHeaderType</text>
</g>
<!-- Node9&#45;&gt;Node4 -->
<g id="edge7" class="edge">
<title>Node9&#45;&gt;Node4</title>
<path fill="none" stroke="#ffa500" d="M663.9787,-660.3238C661.8632,-658.8008 659.7035,-657.356 657.5,-656 614.9362,-629.8065 589.3469,-663.7278 546.5,-638 540.8698,-634.6193 527.3405,-618.2547 511.5881,-597.6259"/>
<polygon fill="#ffa500" stroke="#ffa500" points="661.8928,-663.1361 671.9179,-666.5637 666.2184,-657.6325 661.8928,-663.1361"/>
<text text-anchor="start" x="546.5" y="-630" font-family="Helvetica,sans-Serif" font-size="10.00" fill="#000000"> &lt; gSizeHeaderDescription</text>
<text text-anchor="middle" x="612.5" y="-619" font-family="Helvetica,sans-Serif" font-size="10.00" fill="#000000">String &gt;</text>
</g>
<!-- Node9&#45;&gt;Node11 -->
<g id="edge19" class="edge">
<title>Node9&#45;&gt;Node11</title>
<path fill="none" stroke="#ffa500" d="M747.9427,-646.1391C749.1399,-635.9457 750.3382,-625.7878 751.5,-616 752.2157,-609.9706 752.9543,-603.7767 753.7022,-597.5265"/>
<polygon fill="#ffa500" stroke="#ffa500" points="744.436,-645.9924 746.7472,-656.332 751.3884,-646.8078 744.436,-645.9924"/>
<text text-anchor="start" x="751.5" y="-630" font-family="Helvetica,sans-Serif" font-size="10.00" fill="#000000"> &lt; gSizeSerializationMethod</text>
<text text-anchor="middle" x="820.5" y="-619" font-family="Helvetica,sans-Serif" font-size="10.00" fill="#000000">String &gt;</text>
</g>
<!-- Node10 -->
<g id="node9" class="node">
<title>Node10</title>
<polygon fill="none" stroke="#bfbfbf" points="546,-463.5 546,-520.5 653,-520.5 653,-463.5 546,-463.5"/>
<text text-anchor="middle" x="599.5" y="-508.5" font-family="Helvetica,sans-Serif" font-size="10.00" fill="#000000">anonymous:+@80</text>
<polyline fill="none" stroke="#bfbfbf" points="546,-501.5 653,-501.5 "/>
<text text-anchor="middle" x="599.5" y="-489.5" font-family="Helvetica,sans-Serif" font-size="10.00" fill="#000000"> </text>
<polyline fill="none" stroke="#bfbfbf" points="546,-482.5 653,-482.5 "/>
<text text-anchor="middle" x="599.5" y="-470.5" font-family="Helvetica,sans-Serif" font-size="10.00" fill="#000000"> </text>
</g>
<!-- Node10&#45;&gt;Node3 -->
<g id="edge12" class="edge">
<title>Node10&#45;&gt;Node3</title>
<path fill="none" stroke="#404040" d="M595.3606,-463.4945C589.4742,-422.9586 578.4023,-346.7139 569.4186,-284.8486"/>
<polygon fill="none" stroke="#404040" points="569.3764,-284.5575 564.5557,-279.1947 567.6519,-272.6821 572.4726,-278.045 569.3764,-284.5575"/>
<text text-anchor="middle" x="598.5" y="-327" font-family="Helvetica,sans-Serif" font-size="10.00" fill="#000000"> +@80</text>
</g>
<!-- Node11&#45;&gt;Node3 -->
<g id="edge14" class="edge">
<title>Node11&#45;&gt;Node3</title>
<path fill="none" stroke="#404040" d="M692.9986,-386.4507C669.5017,-352.7086 643.6656,-315.6075 620.7942,-282.7637"/>
<polygon fill="none" stroke="#404040" points="620.6547,-282.5634 613.9434,-279.9255 613.7972,-272.7158 620.5085,-275.3538 620.6547,-282.5634"/>
<text text-anchor="middle" x="716.5" y="-327" font-family="Helvetica,sans-Serif" font-size="10.00" fill="#000000"> +serialization</text>
</g>
<!-- Node12 -->
<g id="node11" class="node">
<title>Node12</title>
<g id="a_node11"><a xlink:href="../../d3/d87/classuint32__t.html" target="_top" xlink:title="{uint32_t\n||}">
<polygon fill="none" stroke="#000000" points="880.5,-463.5 880.5,-520.5 936.5,-520.5 936.5,-463.5 880.5,-463.5"/>
<text text-anchor="middle" x="908.5" y="-508.5" font-family="Helvetica,sans-Serif" font-size="10.00" fill="#000000">uint32_t</text>
<polyline fill="none" stroke="#000000" points="880.5,-501.5 936.5,-501.5 "/>
<text text-anchor="middle" x="908.5" y="-489.5" font-family="Helvetica,sans-Serif" font-size="10.00" fill="#000000"> </text>
<polyline fill="none" stroke="#000000" points="880.5,-482.5 936.5,-482.5 "/>
<text text-anchor="middle" x="908.5" y="-470.5" font-family="Helvetica,sans-Serif" font-size="10.00" fill="#000000"> </text>
</a>
</g>
</g>
<!-- Node12&#45;&gt;Node2 -->
<g id="edge23" class="edge">
<title>Node12&#45;&gt;Node2</title>
<path fill="none" stroke="#404040" d="M906.6801,-463.0417C903.23,-398.2435 898.1058,-236.8897 922.5,-105 924.7024,-93.0925 928.4022,-80.5187 932.3302,-69.1006"/>
<polygon fill="none" stroke="#404040" points="932.3731,-68.9818 930.6512,-61.9792 936.4529,-57.6966 938.1747,-64.6991 932.3731,-68.9818"/>
<text text-anchor="middle" x="949" y="-186.5" font-family="Helvetica,sans-Serif" font-size="10.00" fill="#000000"> +sVersion</text>
</g>
<!-- Node12&#45;&gt;Node3 -->
<g id="edge20" class="edge">
<title>Node12&#45;&gt;Node3</title>
<path fill="none" stroke="#404040" d="M905.5223,-463.2267C901.5292,-439.2879 892.2093,-406.0032 870.5,-386 847.8245,-365.1065 828.1833,-386.4784 803.5,-368 771.4037,-343.9722 785.9401,-318.2174 756.5,-291 726.9423,-263.6739 688.6845,-241.8392 653.4909,-225.4949"/>
<polygon fill="none" stroke="#404040" points="653.1203,-225.3273 646.005,-226.4986 642.187,-220.3812 649.3024,-219.2098 653.1203,-225.3273"/>
<text text-anchor="middle" x="849" y="-360" font-family="Helvetica,sans-Serif" font-size="10.00" fill="#000000"> +headerVersion</text>
<text text-anchor="middle" x="849" y="-349" font-family="Helvetica,sans-Serif" font-size="10.00" fill="#000000">+headerSize</text>
<text text-anchor="middle" x="849" y="-338" font-family="Helvetica,sans-Serif" font-size="10.00" fill="#000000">+sMagicString</text>
<text text-anchor="middle" x="849" y="-327" font-family="Helvetica,sans-Serif" font-size="10.00" fill="#000000">+flagsNextHeader</text>
<text text-anchor="middle" x="849" y="-316" font-family="Helvetica,sans-Serif" font-size="10.00" fill="#000000">+magicStringInt</text>
<text text-anchor="middle" x="849" y="-305" font-family="Helvetica,sans-Serif" font-size="10.00" fill="#000000">+flagsUnused</text>
<text text-anchor="middle" x="849" y="-294" font-family="Helvetica,sans-Serif" font-size="10.00" fill="#000000">+flags</text>
</g>
<!-- Node13 -->
<g id="node12" class="node">
<title>Node13</title>
<polygon fill="none" stroke="#bfbfbf" points="0,-463.5 0,-520.5 107,-520.5 107,-463.5 0,-463.5"/>
<text text-anchor="middle" x="53.5" y="-508.5" font-family="Helvetica,sans-Serif" font-size="10.00" fill="#000000">anonymous:+@82</text>
<polyline fill="none" stroke="#bfbfbf" points="0,-501.5 107,-501.5 "/>
<text text-anchor="middle" x="53.5" y="-489.5" font-family="Helvetica,sans-Serif" font-size="10.00" fill="#000000"> </text>
<polyline fill="none" stroke="#bfbfbf" points="0,-482.5 107,-482.5 "/>
<text text-anchor="middle" x="53.5" y="-470.5" font-family="Helvetica,sans-Serif" font-size="10.00" fill="#000000"> </text>
</g>
<!-- Node13&#45;&gt;Node3 -->
<g id="edge21" class="edge">
<title>Node13&#45;&gt;Node3</title>
<path fill="none" stroke="#404040" d="M48.9414,-463.3945C43.7943,-420.0553 41.1913,-337.8541 85.5,-291 135.3998,-238.2336 334.5054,-210.0806 456.9988,-197.4552"/>
<polygon fill="none" stroke="#404040" points="457.0334,-197.4518 462.6008,-192.8687 468.9726,-196.2452 463.4052,-200.8282 457.0334,-197.4518"/>
<text text-anchor="middle" x="102.5" y="-327" font-family="Helvetica,sans-Serif" font-size="10.00" fill="#000000"> +@82</text>
</g>
<!-- Node14 -->
<g id="node13" class="node">
<title>Node14</title>
<polygon fill="none" stroke="#bfbfbf" points="125,-463.5 125,-520.5 168,-520.5 168,-463.5 125,-463.5"/>
<text text-anchor="middle" x="146.5" y="-508.5" font-family="Helvetica,sans-Serif" font-size="10.00" fill="#000000">const</text>
<polyline fill="none" stroke="#bfbfbf" points="125,-501.5 168,-501.5 "/>
<text text-anchor="middle" x="146.5" y="-489.5" font-family="Helvetica,sans-Serif" font-size="10.00" fill="#000000"> </text>
<polyline fill="none" stroke="#bfbfbf" points="125,-482.5 168,-482.5 "/>
<text text-anchor="middle" x="146.5" y="-470.5" font-family="Helvetica,sans-Serif" font-size="10.00" fill="#000000"> </text>
</g>
<!-- Node14&#45;&gt;Node3 -->
<g id="edge22" class="edge">
<title>Node14&#45;&gt;Node3</title>
<path fill="none" stroke="#404040" d="M136.7701,-463.4987C124.2386,-421.0343 108.3977,-340.8252 147.5,-291 185.2994,-242.8349 348.6827,-214.0007 456.8796,-199.8412"/>
<polygon fill="none" stroke="#404040" points="456.903,-199.8382 462.3449,-195.1069 468.8054,-198.3104 463.3635,-203.0418 456.903,-199.8382"/>
<text text-anchor="middle" x="203" y="-338" font-family="Helvetica,sans-Serif" font-size="10.00" fill="#000000"> +sHeaderType</text>
<text text-anchor="middle" x="203" y="-327" font-family="Helvetica,sans-Serif" font-size="10.00" fill="#000000">+sSerializationMethod</text>
<text text-anchor="middle" x="203" y="-316" font-family="Helvetica,sans-Serif" font-size="10.00" fill="#000000">+sVersion</text>
</g>
<!-- Node15 -->
<g id="node14" class="node">
<title>Node15</title>
<polygon fill="none" stroke="#bfbfbf" points="1017.5,-160.5 1017.5,-217.5 1055.5,-217.5 1055.5,-160.5 1017.5,-160.5"/>
<text text-anchor="middle" x="1036.5" y="-205.5" font-family="Helvetica,sans-Serif" font-size="10.00" fill="#000000">bool</text>
<polyline fill="none" stroke="#bfbfbf" points="1017.5,-198.5 1055.5,-198.5 "/>
<text text-anchor="middle" x="1036.5" y="-186.5" font-family="Helvetica,sans-Serif" font-size="10.00" fill="#000000"> </text>
<polyline fill="none" stroke="#bfbfbf" points="1017.5,-179.5 1055.5,-179.5 "/>
<text text-anchor="middle" x="1036.5" y="-167.5" font-family="Helvetica,sans-Serif" font-size="10.00" fill="#000000"> </text>
</g>
<!-- Node15&#45;&gt;Node2 -->
<g id="edge24" class="edge">
<title>Node15&#45;&gt;Node2</title>
<path fill="none" stroke="#404040" d="M1032.7726,-160.1646C1028.6127,-136.1154 1020.1437,-101.7448 1003.5,-76 1001.352,-72.6774 998.8999,-69.4609 996.251,-66.3747"/>
<polygon fill="none" stroke="#404040" points="996.1009,-66.2172 989.0658,-64.6339 987.8215,-57.5309 994.8566,-59.1142 996.1009,-66.2172"/>
<text text-anchor="middle" x="1049" y="-79" font-family="Helvetica,sans-Serif" font-size="10.00" fill="#000000"> +mHasPayload</text>
</g>
</g>
</svg>
