<?xml version="1.0" encoding="UTF-8" standalone="no"?>
<!DOCTYPE svg PUBLIC "-//W3C//DTD SVG 1.1//EN"
 "http://www.w3.org/Graphics/SVG/1.1/DTD/svg11.dtd">
<!-- Generated by graphviz version 2.40.1 (20161225.0304)
 -->
<!-- Title: TPCSpectraTask Pages: 1 -->
<svg width="477pt" height="844pt"
 viewBox="0.00 0.00 477.00 844.00" xmlns="http://www.w3.org/2000/svg" xmlns:xlink="http://www.w3.org/1999/xlink">
<g id="graph0" class="graph" transform="scale(1 1) rotate(0) translate(4 840)">
<title>TPCSpectraTask</title>
<!-- Node1 -->
<g id="node1" class="node">
<title>Node1</title>
<polygon fill="#bfbfbf" stroke="#000000" points="108.5,-.5 108.5,-68.5 202.5,-68.5 202.5,-.5 108.5,-.5"/>
<text text-anchor="middle" x="155.5" y="-56.5" font-family="Helvetica,sans-Serif" font-size="10.00" fill="#000000">TPCSpectraTask</text>
<polyline fill="none" stroke="#000000" points="108.5,-49.5 202.5,-49.5 "/>
<text text-anchor="middle" x="155.5" y="-37.5" font-family="Helvetica,sans-Serif" font-size="10.00" fill="#000000"> </text>
<polyline fill="none" stroke="#000000" points="108.5,-30.5 202.5,-30.5 "/>
<text text-anchor="start" x="116.5" y="-18.5" font-family="Helvetica,sans-Serif" font-size="10.00" fill="#000000">+ init()</text>
<text text-anchor="start" x="116.5" y="-7.5" font-family="Helvetica,sans-Serif" font-size="10.00" fill="#000000">+ process()</text>
</g>
<!-- Node2 -->
<g id="node2" class="node">
<title>Node2</title>
<g id="a_node2"><a xlink:href="../../d8/d34/classo2_1_1framework_1_1HistogramRegistry.html" target="_top" xlink:title="{o2::framework::Histogram\lRegistry\n||+ HistogramRegistry()\l+ add()\l+ add()\l+ add()\l+ addClone()\l+ get()\l+ operator()()\l+ spec()\l+ ref()\l+ setHash()\l+ operator*()\l+ fill()\l+ fill()\l+ getSize()\l+ getSize()\l+ print()\l}">
<polygon fill="none" stroke="#000000" points="0,-138.5 0,-371.5 145,-371.5 145,-138.5 0,-138.5"/>
<text text-anchor="start" x="8" y="-359.5" font-family="Helvetica,sans-Serif" font-size="10.00" fill="#000000">o2::framework::Histogram</text>
<text text-anchor="middle" x="72.5" y="-348.5" font-family="Helvetica,sans-Serif" font-size="10.00" fill="#000000">Registry</text>
<polyline fill="none" stroke="#000000" points="0,-341.5 145,-341.5 "/>
<text text-anchor="middle" x="72.5" y="-329.5" font-family="Helvetica,sans-Serif" font-size="10.00" fill="#000000"> </text>
<polyline fill="none" stroke="#000000" points="0,-322.5 145,-322.5 "/>
<text text-anchor="start" x="8" y="-310.5" font-family="Helvetica,sans-Serif" font-size="10.00" fill="#000000">+ HistogramRegistry()</text>
<text text-anchor="start" x="8" y="-299.5" font-family="Helvetica,sans-Serif" font-size="10.00" fill="#000000">+ add()</text>
<text text-anchor="start" x="8" y="-288.5" font-family="Helvetica,sans-Serif" font-size="10.00" fill="#000000">+ add()</text>
<text text-anchor="start" x="8" y="-277.5" font-family="Helvetica,sans-Serif" font-size="10.00" fill="#000000">+ add()</text>
<text text-anchor="start" x="8" y="-266.5" font-family="Helvetica,sans-Serif" font-size="10.00" fill="#000000">+ addClone()</text>
<text text-anchor="start" x="8" y="-255.5" font-family="Helvetica,sans-Serif" font-size="10.00" fill="#000000">+ get()</text>
<text text-anchor="start" x="8" y="-244.5" font-family="Helvetica,sans-Serif" font-size="10.00" fill="#000000">+ operator()()</text>
<text text-anchor="start" x="8" y="-233.5" font-family="Helvetica,sans-Serif" font-size="10.00" fill="#000000">+ spec()</text>
<text text-anchor="start" x="8" y="-222.5" font-family="Helvetica,sans-Serif" font-size="10.00" fill="#000000">+ ref()</text>
<text text-anchor="start" x="8" y="-211.5" font-family="Helvetica,sans-Serif" font-size="10.00" fill="#000000">+ setHash()</text>
<text text-anchor="start" x="8" y="-200.5" font-family="Helvetica,sans-Serif" font-size="10.00" fill="#000000">+ operator*()</text>
<text text-anchor="start" x="8" y="-189.5" font-family="Helvetica,sans-Serif" font-size="10.00" fill="#000000">+ fill()</text>
<text text-anchor="start" x="8" y="-178.5" font-family="Helvetica,sans-Serif" font-size="10.00" fill="#000000">+ fill()</text>
<text text-anchor="start" x="8" y="-167.5" font-family="Helvetica,sans-Serif" font-size="10.00" fill="#000000">+ getSize()</text>
<text text-anchor="start" x="8" y="-156.5" font-family="Helvetica,sans-Serif" font-size="10.00" fill="#000000">+ getSize()</text>
<text text-anchor="start" x="8" y="-145.5" font-family="Helvetica,sans-Serif" font-size="10.00" fill="#000000">+ print()</text>
</a>
</g>
</g>
<!-- Node2&#45;&gt;Node1 -->
<g id="edge1" class="edge">
<title>Node2&#45;&gt;Node1</title>
<path fill="none" stroke="#404040" d="M116.4304,-138.2933C124.2025,-117.6457 131.8605,-97.3012 138.3091,-80.1697"/>
<polygon fill="none" stroke="#404040" points="138.3394,-80.0893 136.7095,-73.0647 142.5669,-68.8585 144.1967,-75.8831 138.3394,-80.0893"/>
<text text-anchor="middle" x="154.5" y="-112" font-family="Helvetica,sans-Serif" font-size="10.00" fill="#000000"> +p</text>
<text text-anchor="middle" x="154.5" y="-101" font-family="Helvetica,sans-Serif" font-size="10.00" fill="#000000">+histos</text>
<text text-anchor="middle" x="154.5" y="-90" font-family="Helvetica,sans-Serif" font-size="10.00" fill="#000000">+pt</text>
</g>
<!-- Node3 -->
<g id="node3" class="node">
<title>Node3</title>
<polygon fill="none" stroke="#bfbfbf" points="44.5,-425 44.5,-482 100.5,-482 100.5,-425 44.5,-425"/>
<text text-anchor="middle" x="72.5" y="-470" font-family="Helvetica,sans-Serif" font-size="10.00" fill="#000000">uint32_t</text>
<polyline fill="none" stroke="#bfbfbf" points="44.5,-463 100.5,-463 "/>
<text text-anchor="middle" x="72.5" y="-451" font-family="Helvetica,sans-Serif" font-size="10.00" fill="#000000"> </text>
<polyline fill="none" stroke="#bfbfbf" points="44.5,-444 100.5,-444 "/>
<text text-anchor="middle" x="72.5" y="-432" font-family="Helvetica,sans-Serif" font-size="10.00" fill="#000000"> </text>
</g>
<!-- Node3&#45;&gt;Node2 -->
<g id="edge2" class="edge">
<title>Node3&#45;&gt;Node2</title>
<path fill="none" stroke="#404040" d="M72.5,-424.6364C72.5,-413.1823 72.5,-399.1514 72.5,-384.1118"/>
<polygon fill="none" stroke="#404040" points="72.5001,-383.8639 68.5,-377.864 72.5,-371.8639 76.5,-377.8639 72.5001,-383.8639"/>
<text text-anchor="middle" x="95" y="-393" font-family="Helvetica,sans-Serif" font-size="10.00" fill="#000000"> +lookup</text>
</g>
<!-- Node4 -->
<g id="node4" class="node">
<title>Node4</title>
<g id="a_node4"><a xlink:href="../../d8/d71/structo2_1_1framework_1_1Configurable.html" target="_top" xlink:title="{o2::framework::Configurable\l\&lt; float \&gt;\n||+ Configurable()\l}">
<polygon fill="none" stroke="#000000" points="163,-221 163,-289 318,-289 318,-221 163,-221"/>
<text text-anchor="start" x="171" y="-277" font-family="Helvetica,sans-Serif" font-size="10.00" fill="#000000">o2::framework::Configurable</text>
<text text-anchor="middle" x="240.5" y="-266" font-family="Helvetica,sans-Serif" font-size="10.00" fill="#000000">&lt; float &gt;</text>
<polyline fill="none" stroke="#000000" points="163,-259 318,-259 "/>
<text text-anchor="middle" x="240.5" y="-247" font-family="Helvetica,sans-Serif" font-size="10.00" fill="#000000"> </text>
<polyline fill="none" stroke="#000000" points="163,-240 318,-240 "/>
<text text-anchor="start" x="171" y="-228" font-family="Helvetica,sans-Serif" font-size="10.00" fill="#000000">+ Configurable()</text>
</a>
</g>
</g>
<!-- Node4&#45;&gt;Node1 -->
<g id="edge3" class="edge">
<title>Node4&#45;&gt;Node1</title>
<path fill="none" stroke="#404040" d="M228.0885,-220.7471C215.6477,-186.6938 195.7697,-133.0358 177.5,-87 176.5744,-84.6677 175.616,-82.2816 174.6404,-79.8754"/>
<polygon fill="none" stroke="#404040" points="174.5664,-79.6949 168.5871,-75.6639 170.0083,-68.5942 175.9876,-72.6252 174.5664,-79.6949"/>
<text text-anchor="middle" x="222" y="-101" font-family="Helvetica,sans-Serif" font-size="10.00" fill="#000000"> +nsigmacut</text>
</g>
<!-- Node5 -->
<g id="node5" class="node">
<title>Node5</title>
<g id="a_node5"><a xlink:href="../../da/def/structo2_1_1framework_1_1ConfigurablePolicyConst.html" target="_top" xlink:title="{o2::framework::Configurable\lPolicyConst\&lt; float \&gt;\n||+ ConfigurablePolicyConst()\l}">
<polygon fill="none" stroke="#000000" points="141,-419.5 141,-487.5 296,-487.5 296,-419.5 141,-419.5"/>
<text text-anchor="start" x="149" y="-475.5" font-family="Helvetica,sans-Serif" font-size="10.00" fill="#000000">o2::framework::Configurable</text>
<text text-anchor="middle" x="218.5" y="-464.5" font-family="Helvetica,sans-Serif" font-size="10.00" fill="#000000">PolicyConst&lt; float &gt;</text>
<polyline fill="none" stroke="#000000" points="141,-457.5 296,-457.5 "/>
<text text-anchor="middle" x="218.5" y="-445.5" font-family="Helvetica,sans-Serif" font-size="10.00" fill="#000000"> </text>
<polyline fill="none" stroke="#000000" points="141,-438.5 296,-438.5 "/>
<text text-anchor="start" x="149" y="-426.5" font-family="Helvetica,sans-Serif" font-size="10.00" fill="#000000">+ ConfigurablePolicyConst()</text>
</a>
</g>
</g>
<!-- Node5&#45;&gt;Node4 -->
<g id="edge4" class="edge">
<title>Node5&#45;&gt;Node4</title>
<path fill="none" stroke="#191970" d="M223.4243,-409.069C227.4496,-372.7504 233.0563,-322.1623 236.7307,-289.0096"/>
<polygon fill="none" stroke="#191970" points="219.9049,-409.0519 222.2819,-419.3766 226.8623,-409.8231 219.9049,-409.0519"/>
</g>
<!-- Node6 -->
<g id="node6" class="node">
<title>Node6</title>
<g id="a_node6"><a xlink:href="../../da/d2f/structo2_1_1framework_1_1ConfigurableBase.html" target="_top" xlink:title="{o2::framework::Configurable\lBase\&lt; float \&gt;\n||+ ConfigurableBase()\l}">
<polygon fill="none" stroke="#000000" points="24,-535.5 24,-603.5 179,-603.5 179,-535.5 24,-535.5"/>
<text text-anchor="start" x="32" y="-591.5" font-family="Helvetica,sans-Serif" font-size="10.00" fill="#000000">o2::framework::Configurable</text>
<text text-anchor="middle" x="101.5" y="-580.5" font-family="Helvetica,sans-Serif" font-size="10.00" fill="#000000">Base&lt; float &gt;</text>
<polyline fill="none" stroke="#000000" points="24,-573.5 179,-573.5 "/>
<text text-anchor="middle" x="101.5" y="-561.5" font-family="Helvetica,sans-Serif" font-size="10.00" fill="#000000"> </text>
<polyline fill="none" stroke="#000000" points="24,-554.5 179,-554.5 "/>
<text text-anchor="start" x="32" y="-542.5" font-family="Helvetica,sans-Serif" font-size="10.00" fill="#000000">+ ConfigurableBase()</text>
</a>
</g>
</g>
<!-- Node6&#45;&gt;Node5 -->
<g id="edge5" class="edge">
<title>Node6&#45;&gt;Node5</title>
<path fill="none" stroke="#191970" d="M143.2184,-528.1382C156.5337,-514.9367 171.1161,-500.4789 183.871,-487.833"/>
<polygon fill="none" stroke="#191970" points="140.6082,-525.7974 135.971,-535.3236 145.5367,-530.7684 140.6082,-525.7974"/>
</g>
<!-- Node7 -->
<g id="node7" class="node">
<title>Node7</title>
<g id="a_node7"><a xlink:href="../../d4/dc3/classfloat.html" target="_top" xlink:title="{float\n||}">
<polygon fill="none" stroke="#000000" points="37.5,-657 37.5,-714 75.5,-714 75.5,-657 37.5,-657"/>
<text text-anchor="middle" x="56.5" y="-702" font-family="Helvetica,sans-Serif" font-size="10.00" fill="#000000">float</text>
<polyline fill="none" stroke="#000000" points="37.5,-695 75.5,-695 "/>
<text text-anchor="middle" x="56.5" y="-683" font-family="Helvetica,sans-Serif" font-size="10.00" fill="#000000"> </text>
<polyline fill="none" stroke="#000000" points="37.5,-676 75.5,-676 "/>
<text text-anchor="middle" x="56.5" y="-664" font-family="Helvetica,sans-Serif" font-size="10.00" fill="#000000"> </text>
</a>
</g>
</g>
<!-- Node7&#45;&gt;Node6 -->
<g id="edge6" class="edge">
<title>Node7&#45;&gt;Node6</title>
<path fill="none" stroke="#404040" d="M53.526,-656.9199C53.3451,-645.7152 54.3938,-632.9468 58.5,-622 59.5125,-619.3008 60.7243,-616.638 62.088,-614.0293"/>
<polygon fill="none" stroke="#404040" points="62.1707,-613.8938 61.8866,-606.6882 68.4285,-603.6546 68.7127,-610.8601 62.1707,-613.8938"/>
<text text-anchor="middle" x="78" y="-625" font-family="Helvetica,sans-Serif" font-size="10.00" fill="#000000"> +value</text>
</g>
<!-- Node8 -->
<g id="node8" class="node">
<title>Node8</title>
<polygon fill="none" stroke="#bfbfbf" points="116,-778.5 116,-835.5 145,-835.5 145,-778.5 116,-778.5"/>
<text text-anchor="middle" x="130.5" y="-823.5" font-family="Helvetica,sans-Serif" font-size="10.00" fill="#000000">int</text>
<polyline fill="none" stroke="#bfbfbf" points="116,-816.5 145,-816.5 "/>
<text text-anchor="middle" x="130.5" y="-804.5" font-family="Helvetica,sans-Serif" font-size="10.00" fill="#000000"> </text>
<polyline fill="none" stroke="#bfbfbf" points="116,-797.5 145,-797.5 "/>
<text text-anchor="middle" x="130.5" y="-785.5" font-family="Helvetica,sans-Serif" font-size="10.00" fill="#000000"> </text>
</g>
<!-- Node8&#45;&gt;Node6 -->
<g id="edge7" class="edge">
<title>Node8&#45;&gt;Node6</title>
<path fill="none" stroke="#404040" d="M127.0019,-778.352C122.0684,-737.9478 113.0125,-663.7836 107.1264,-615.578"/>
<polygon fill="none" stroke="#404040" points="107.1206,-615.5303 102.4228,-610.0594 105.6661,-603.6188 110.3639,-609.0897 107.1206,-615.5303"/>
<text text-anchor="middle" x="140.5" y="-688.5" font-family="Helvetica,sans-Serif" font-size="10.00" fill="#000000"> +name</text>
<text text-anchor="middle" x="140.5" y="-677.5" font-family="Helvetica,sans-Serif" font-size="10.00" fill="#000000">+help</text>
</g>
<!-- Node9 -->
<g id="node9" class="node">
<title>Node9</title>
<g id="a_node9"><a xlink:href="../../da/d2f/structo2_1_1framework_1_1ConfigurableBase.html" target="_top" xlink:title="{o2::framework::Configurable\lBase\&lt; T \&gt;\n||+ ConfigurableBase()\l}">
<polygon fill="none" stroke="#000000" points="170,-651.5 170,-719.5 325,-719.5 325,-651.5 170,-651.5"/>
<text text-anchor="start" x="178" y="-707.5" font-family="Helvetica,sans-Serif" font-size="10.00" fill="#000000">o2::framework::Configurable</text>
<text text-anchor="middle" x="247.5" y="-696.5" font-family="Helvetica,sans-Serif" font-size="10.00" fill="#000000">Base&lt; T &gt;</text>
<polyline fill="none" stroke="#000000" points="170,-689.5 325,-689.5 "/>
<text text-anchor="middle" x="247.5" y="-677.5" font-family="Helvetica,sans-Serif" font-size="10.00" fill="#000000"> </text>
<polyline fill="none" stroke="#000000" points="170,-670.5 325,-670.5 "/>
<text text-anchor="start" x="178" y="-658.5" font-family="Helvetica,sans-Serif" font-size="10.00" fill="#000000">+ ConfigurableBase()</text>
</a>
</g>
</g>
<!-- Node8&#45;&gt;Node9 -->
<g id="edge9" class="edge">
<title>Node8&#45;&gt;Node9</title>
<path fill="none" stroke="#404040" d="M145.3181,-791.6119C160.5586,-775.7853 184.9888,-750.4154 206.1402,-728.4506"/>
<polygon fill="none" stroke="#404040" points="206.3396,-728.2435 207.6202,-721.1469 214.6634,-719.5996 213.3828,-726.6961 206.3396,-728.2435"/>
<text text-anchor="middle" x="216.5" y="-752" font-family="Helvetica,sans-Serif" font-size="10.00" fill="#000000"> +name</text>
<text text-anchor="middle" x="216.5" y="-741" font-family="Helvetica,sans-Serif" font-size="10.00" fill="#000000">+help</text>
</g>
<!-- Node9&#45;&gt;Node6 -->
<g id="edge8" class="edge">
<title>Node9&#45;&gt;Node6</title>
<path fill="none" stroke="#ffa500" d="M196.3256,-644.8409C179.3855,-631.3816 160.7185,-616.5504 144.4598,-603.6324"/>
<polygon fill="#ffa500" stroke="#ffa500" points="194.478,-647.8431 204.4848,-651.3236 198.8325,-642.3624 194.478,-647.8431"/>
<text text-anchor="middle" x="203.5" y="-625" font-family="Helvetica,sans-Serif" font-size="10.00" fill="#000000"> &lt; float &gt;</text>
</g>
<!-- Node11 -->
<g id="node11" class="node">
<title>Node11</title>
<g id="a_node11"><a xlink:href="../../da/def/structo2_1_1framework_1_1ConfigurablePolicyConst.html" target="_top" xlink:title="{o2::framework::Configurable\lPolicyConst\&lt; T \&gt;\n||+ ConfigurablePolicyConst()\l}">
<polygon fill="none" stroke="#000000" points="197,-535.5 197,-603.5 352,-603.5 352,-535.5 197,-535.5"/>
<text text-anchor="start" x="205" y="-591.5" font-family="Helvetica,sans-Serif" font-size="10.00" fill="#000000">o2::framework::Configurable</text>
<text text-anchor="middle" x="274.5" y="-580.5" font-family="Helvetica,sans-Serif" font-size="10.00" fill="#000000">PolicyConst&lt; T &gt;</text>
<polyline fill="none" stroke="#000000" points="197,-573.5 352,-573.5 "/>
<text text-anchor="middle" x="274.5" y="-561.5" font-family="Helvetica,sans-Serif" font-size="10.00" fill="#000000"> </text>
<polyline fill="none" stroke="#000000" points="197,-554.5 352,-554.5 "/>
<text text-anchor="start" x="205" y="-542.5" font-family="Helvetica,sans-Serif" font-size="10.00" fill="#000000">+ ConfigurablePolicyConst()</text>
</a>
</g>
</g>
<!-- Node9&#45;&gt;Node11 -->
<g id="edge12" class="edge">
<title>Node9&#45;&gt;Node11</title>
<path fill="none" stroke="#191970" d="M257.7283,-641.5562C260.6345,-629.0702 263.756,-615.6593 266.5087,-603.833"/>
<polygon fill="none" stroke="#191970" points="254.313,-640.7905 255.4549,-651.3236 261.1308,-642.3774 254.313,-640.7905"/>
</g>
<!-- Node10 -->
<g id="node10" class="node">
<title>Node10</title>
<polygon fill="none" stroke="#bfbfbf" points="233,-778.5 233,-835.5 262,-835.5 262,-778.5 233,-778.5"/>
<text text-anchor="middle" x="247.5" y="-823.5" font-family="Helvetica,sans-Serif" font-size="10.00" fill="#000000">T</text>
<polyline fill="none" stroke="#bfbfbf" points="233,-816.5 262,-816.5 "/>
<text text-anchor="middle" x="247.5" y="-804.5" font-family="Helvetica,sans-Serif" font-size="10.00" fill="#000000"> </text>
<polyline fill="none" stroke="#bfbfbf" points="233,-797.5 262,-797.5 "/>
<text text-anchor="middle" x="247.5" y="-785.5" font-family="Helvetica,sans-Serif" font-size="10.00" fill="#000000"> </text>
</g>
<!-- Node10&#45;&gt;Node9 -->
<g id="edge10" class="edge">
<title>Node10&#45;&gt;Node9</title>
<path fill="none" stroke="#404040" d="M247.5,-778.2062C247.5,-764.3632 247.5,-747.4255 247.5,-731.8327"/>
<polygon fill="none" stroke="#404040" points="247.5001,-731.7007 243.5,-725.7008 247.5,-719.7007 251.5,-725.7007 247.5001,-731.7007"/>
<text text-anchor="middle" x="267" y="-746.5" font-family="Helvetica,sans-Serif" font-size="10.00" fill="#000000"> +value</text>
</g>
<!-- Node11&#45;&gt;Node5 -->
<g id="edge11" class="edge">
<title>Node11&#45;&gt;Node5</title>
<path fill="none" stroke="#ffa500" d="M253.6433,-526.2969C247.5147,-513.6019 240.8969,-499.8935 235.0745,-487.833"/>
<polygon fill="#ffa500" stroke="#ffa500" points="250.5016,-527.8397 258.001,-535.3236 256.8054,-524.7964 250.5016,-527.8397"/>
<text text-anchor="middle" x="272.5" y="-509" font-family="Helvetica,sans-Serif" font-size="10.00" fill="#000000"> &lt; float &gt;</text>
</g>
<!-- Node12 -->
<g id="node12" class="node">
<title>Node12</title>
<g id="a_node12"><a xlink:href="../../d8/d71/structo2_1_1framework_1_1Configurable.html" target="_top" xlink:title="{o2::framework::Configurable\l\&lt; T, IP \&gt;\n||+ Configurable()\l}">
<polygon fill="none" stroke="#000000" points="314,-419.5 314,-487.5 469,-487.5 469,-419.5 314,-419.5"/>
<text text-anchor="start" x="322" y="-475.5" font-family="Helvetica,sans-Serif" font-size="10.00" fill="#000000">o2::framework::Configurable</text>
<text text-anchor="middle" x="391.5" y="-464.5" font-family="Helvetica,sans-Serif" font-size="10.00" fill="#000000">&lt; T, IP &gt;</text>
<polyline fill="none" stroke="#000000" points="314,-457.5 469,-457.5 "/>
<text text-anchor="middle" x="391.5" y="-445.5" font-family="Helvetica,sans-Serif" font-size="10.00" fill="#000000"> </text>
<polyline fill="none" stroke="#000000" points="314,-438.5 469,-438.5 "/>
<text text-anchor="start" x="322" y="-426.5" font-family="Helvetica,sans-Serif" font-size="10.00" fill="#000000">+ Configurable()</text>
</a>
</g>
</g>
<!-- Node12&#45;&gt;Node4 -->
<g id="edge13" class="edge">
<title>Node12&#45;&gt;Node4</title>
<path fill="none" stroke="#ffa500" d="M359.4645,-411.3871C331.7311,-374.9296 292.1319,-322.8737 266.3713,-289.0096"/>
<polygon fill="#ffa500" stroke="#ffa500" points="356.7021,-413.5367 365.5422,-419.3766 362.2734,-409.2986 356.7021,-413.5367"/>
<text text-anchor="middle" x="375.5" y="-393" font-family="Helvetica,sans-Serif" font-size="10.00" fill="#000000"> &lt; float &gt;</text>
</g>
<!-- Node13 -->
<g id="node13" class="node">
<title>Node13</title>
<polygon fill="none" stroke="#bfbfbf" points="377,-541 377,-598 406,-598 406,-541 377,-541"/>
<text text-anchor="middle" x="391.5" y="-586" font-family="Helvetica,sans-Serif" font-size="10.00" fill="#000000">IP</text>
<polyline fill="none" stroke="#bfbfbf" points="377,-579 406,-579 "/>
<text text-anchor="middle" x="391.5" y="-567" font-family="Helvetica,sans-Serif" font-size="10.00" fill="#000000"> </text>
<polyline fill="none" stroke="#bfbfbf" points="377,-560 406,-560 "/>
<text text-anchor="middle" x="391.5" y="-548" font-family="Helvetica,sans-Serif" font-size="10.00" fill="#000000"> </text>
</g>
<!-- Node13&#45;&gt;Node12 -->
<g id="edge14" class="edge">
<title>Node13&#45;&gt;Node12</title>
<path fill="none" stroke="#191970" d="M391.5,-530.569C391.5,-516.6554 391.5,-501.0944 391.5,-487.6178"/>
<polygon fill="none" stroke="#191970" points="388.0001,-530.8258 391.5,-540.8258 395.0001,-530.8259 388.0001,-530.8258"/>
</g>
</g>
</svg>
