<?xml version="1.0" encoding="UTF-8" standalone="no"?>
<!DOCTYPE svg PUBLIC "-//W3C//DTD SVG 1.1//EN"
 "http://www.w3.org/Graphics/SVG/1.1/DTD/svg11.dtd">
<!-- Generated by graphviz version 2.40.1 (20161225.0304)
 -->
<!-- Title: /home/travis/build/AliceO2Group/AliceO2/Detectors/FIT Pages: 1 -->
<svg width="682pt" height="473pt"
 viewBox="0.00 0.00 681.99 473.44" xmlns="http://www.w3.org/2000/svg" xmlns:xlink="http://www.w3.org/1999/xlink">
<g id="graph0" class="graph" transform="scale(1 1) rotate(0) translate(4 469.4423)">
<title>/home/travis/build/AliceO2Group/AliceO2/Detectors/FIT</title>
<g id="clust1" class="cluster">
<title>clusterdir_051dca18e802f8e9474f2e30d29c04e0</title>
<g id="a_clust1"><a xlink:href="dir_051dca18e802f8e9474f2e30d29c04e0.html" target="_top" xlink:title="Detectors">
<polygon fill="#ddddee" stroke="#000000" points="161,-272 161,-431 541,-431 541,-272 161,-272"/>
<text text-anchor="middle" x="351" y="-419" font-family="Helvetica,sans-Serif" font-size="10.00" fill="#000000">Detectors</text>
</a>
</g>
</g>
<g id="clust2" class="cluster">
<title>clusterdir_d14e88a79bca429480864605ee348cef</title>
<g id="a_clust2"><a xlink:href="dir_d14e88a79bca429480864605ee348cef.html" target="_top">
<polygon fill="#eeeeff" stroke="#000000" points="169,-280 169,-404 533,-404 533,-280 169,-280"/>
</a>
</g>
</g>
<!-- dir_d14e88a79bca429480864605ee348cef -->
<g id="node1" class="node">
<title>dir_d14e88a79bca429480864605ee348cef</title>
<text text-anchor="middle" x="498" y="-375.5" font-family="Helvetica,sans-Serif" font-size="10.00" fill="#000000">FIT</text>
</g>
<!-- dir_e149fd8c00f4d2e1086cfbf4d58a065a -->
<g id="node2" class="node">
<title>dir_e149fd8c00f4d2e1086cfbf4d58a065a</title>
<g id="a_node2"><a xlink:href="dir_e149fd8c00f4d2e1086cfbf4d58a065a.html" target="_top" xlink:title="common">
<polygon fill="#ffffff" stroke="#ff0000" points="452.5,-396 393.5,-396 393.5,-360 452.5,-360 452.5,-396"/>
<text text-anchor="middle" x="423" y="-375.5" font-family="Helvetica,sans-Serif" font-size="10.00" fill="#000000">common</text>
</a>
</g>
</g>
<!-- dir_a5b1c90a9b4d60b6556bfe35a03caaa0 -->
<g id="node3" class="node">
<title>dir_a5b1c90a9b4d60b6556bfe35a03caaa0</title>
<g id="a_node3"><a xlink:href="dir_a5b1c90a9b4d60b6556bfe35a03caaa0.html" target="_top" xlink:title="FDD">
<polygon fill="#ffffff" stroke="#ff0000" points="375,-396 321,-396 321,-360 375,-360 375,-396"/>
<text text-anchor="middle" x="348" y="-375.5" font-family="Helvetica,sans-Serif" font-size="10.00" fill="#000000">FDD</text>
</a>
</g>
</g>
<!-- dir_4ab6b4cc6a7edbff49100e9123df213f -->
<g id="node7" class="node">
<title>dir_4ab6b4cc6a7edbff49100e9123df213f</title>
<g id="a_node7"><a xlink:href="dir_4ab6b4cc6a7edbff49100e9123df213f.html" target="_top" xlink:title="Common">
<polygon fill="none" stroke="#ff0000" points="655.5,-324 594.5,-324 594.5,-288 655.5,-288 655.5,-324"/>
<text text-anchor="middle" x="625" y="-303.5" font-family="Helvetica,sans-Serif" font-size="10.00" fill="#000000">Common</text>
</a>
</g>
</g>
<!-- dir_a5b1c90a9b4d60b6556bfe35a03caaa0&#45;&gt;dir_4ab6b4cc6a7edbff49100e9123df213f -->
<g id="edge25" class="edge">
<title>dir_a5b1c90a9b4d60b6556bfe35a03caaa0&#45;&gt;dir_4ab6b4cc6a7edbff49100e9123df213f</title>
<path fill="none" stroke="#000000" d="M375.1768,-363.9068C378.4409,-362.4754 381.7641,-361.1339 385,-360 403.6604,-353.4611 520.9168,-328.124 584.3553,-314.6079"/>
<polygon fill="#000000" stroke="#000000" points="585.3709,-317.9702 594.4236,-312.4657 583.9141,-311.1235 585.3709,-317.9702"/>
<g id="a_edge25&#45;headlabel"><a xlink:href="dir_000181_000036.html" target="_top" xlink:title="5">
<text text-anchor="middle" x="582.4458" y="-318.9953" font-family="Helvetica,sans-Serif" font-size="10.00" fill="#000000">5</text>
</a>
</g>
</g>
<!-- dir_37c90836491b695b472bf98d1be8336b -->
<g id="node9" class="node">
<title>dir_37c90836491b695b472bf98d1be8336b</title>
<g id="a_node9"><a xlink:href="dir_37c90836491b695b472bf98d1be8336b.html" target="_top" xlink:title="Base">
<polygon fill="none" stroke="#ff0000" points="314,-108 260,-108 260,-72 314,-72 314,-108"/>
<text text-anchor="middle" x="287" y="-87.5" font-family="Helvetica,sans-Serif" font-size="10.00" fill="#000000">Base</text>
</a>
</g>
</g>
<!-- dir_a5b1c90a9b4d60b6556bfe35a03caaa0&#45;&gt;dir_37c90836491b695b472bf98d1be8336b -->
<g id="edge26" class="edge">
<title>dir_a5b1c90a9b4d60b6556bfe35a03caaa0&#45;&gt;dir_37c90836491b695b472bf98d1be8336b</title>
<path fill="none" stroke="#000000" d="M343.3641,-359.794C334.5968,-325.0076 315.2774,-246.6241 302,-180 297.9043,-159.4482 294.0359,-136.103 291.2536,-118.3397"/>
<polygon fill="#000000" stroke="#000000" points="294.6936,-117.6819 289.7085,-108.3331 287.7756,-118.7501 294.6936,-117.6819"/>
<g id="a_edge26&#45;headlabel"><a xlink:href="dir_000181_000293.html" target="_top" xlink:title="1">
<text text-anchor="middle" x="298.0481" y="-118.3011" font-family="Helvetica,sans-Serif" font-size="10.00" fill="#000000">1</text>
</a>
</g>
</g>
<!-- dir_bcbb2cf9a3d3d83e5515c82071a07177 -->
<g id="node10" class="node">
<title>dir_bcbb2cf9a3d3d83e5515c82071a07177</title>
<g id="a_node10"><a xlink:href="dir_bcbb2cf9a3d3d83e5515c82071a07177.html" target="_top" xlink:title="Framework">
<polygon fill="none" stroke="#ff0000" points="483.5,-252 412.5,-252 412.5,-216 483.5,-216 483.5,-252"/>
<text text-anchor="middle" x="448" y="-231.5" font-family="Helvetica,sans-Serif" font-size="10.00" fill="#000000">Framework</text>
</a>
</g>
</g>
<!-- dir_a5b1c90a9b4d60b6556bfe35a03caaa0&#45;&gt;dir_bcbb2cf9a3d3d83e5515c82071a07177 -->
<g id="edge27" class="edge">
<title>dir_a5b1c90a9b4d60b6556bfe35a03caaa0&#45;&gt;dir_bcbb2cf9a3d3d83e5515c82071a07177</title>
<path fill="none" stroke="#000000" d="M375.2624,-364.1375C378.511,-362.6647 381.8073,-361.2504 385,-360 436.4511,-339.85 471.0672,-368.3697 504,-324 517.7743,-305.4422 514.8216,-292.421 504,-272 500.9673,-266.2771 496.6441,-261.2569 491.7267,-256.9021"/>
<polygon fill="#000000" stroke="#000000" points="493.6559,-253.9688 483.6105,-250.6012 489.3633,-259.4982 493.6559,-253.9688"/>
<g id="a_edge27&#45;headlabel"><a xlink:href="dir_000181_000063.html" target="_top" xlink:title="19">
<text text-anchor="middle" x="498.2364" y="-251.4304" font-family="Helvetica,sans-Serif" font-size="10.00" fill="#000000">19</text>
</a>
</g>
</g>
<!-- dir_2171f7ec022c5423887b07c69b2f5b48 -->
<g id="node12" class="node">
<title>dir_2171f7ec022c5423887b07c69b2f5b48</title>
<g id="a_node12"><a xlink:href="dir_2171f7ec022c5423887b07c69b2f5b48.html" target="_top" xlink:title="DataFormats">
<polygon fill="none" stroke="#ff0000" points="391,-180 311,-180 311,-144 391,-144 391,-180"/>
<text text-anchor="middle" x="351" y="-159.5" font-family="Helvetica,sans-Serif" font-size="10.00" fill="#000000">DataFormats</text>
</a>
</g>
</g>
<!-- dir_a5b1c90a9b4d60b6556bfe35a03caaa0&#45;&gt;dir_2171f7ec022c5423887b07c69b2f5b48 -->
<g id="edge28" class="edge">
<title>dir_a5b1c90a9b4d60b6556bfe35a03caaa0&#45;&gt;dir_2171f7ec022c5423887b07c69b2f5b48</title>
<path fill="none" stroke="#000000" d="M348.2506,-359.9555C348.7723,-322.3938 349.9784,-235.5541 350.6054,-190.4103"/>
<polygon fill="#000000" stroke="#000000" points="354.1087,-190.1927 350.748,-180.1451 347.1094,-190.0955 354.1087,-190.1927"/>
<g id="a_edge28&#45;headlabel"><a xlink:href="dir_000181_000090.html" target="_top" xlink:title="26">
<text text-anchor="middle" x="356.8979" y="-191.3264" font-family="Helvetica,sans-Serif" font-size="10.00" fill="#000000">26</text>
</a>
</g>
</g>
<!-- dir_732f729910dd598014f768fa2866f334 -->
<g id="node4" class="node">
<title>dir_732f729910dd598014f768fa2866f334</title>
<g id="a_node4"><a xlink:href="dir_732f729910dd598014f768fa2866f334.html" target="_top" xlink:title="FT0">
<polygon fill="#ffffff" stroke="#ff0000" points="303,-396 249,-396 249,-360 303,-360 303,-396"/>
<text text-anchor="middle" x="276" y="-375.5" font-family="Helvetica,sans-Serif" font-size="10.00" fill="#000000">FT0</text>
</a>
</g>
</g>
<!-- dir_9742c4beffa63bb41af6c796ac2f5cf0 -->
<g id="node6" class="node">
<title>dir_9742c4beffa63bb41af6c796ac2f5cf0</title>
<g id="a_node6"><a xlink:href="dir_9742c4beffa63bb41af6c796ac2f5cf0.html" target="_top" xlink:title="raw">
<polygon fill="#ffffff" stroke="#ff0000" points="424,-324 370,-324 370,-288 424,-288 424,-324"/>
<text text-anchor="middle" x="397" y="-303.5" font-family="Helvetica,sans-Serif" font-size="10.00" fill="#000000">raw</text>
</a>
</g>
</g>
<!-- dir_732f729910dd598014f768fa2866f334&#45;&gt;dir_9742c4beffa63bb41af6c796ac2f5cf0 -->
<g id="edge19" class="edge">
<title>dir_732f729910dd598014f768fa2866f334&#45;&gt;dir_9742c4beffa63bb41af6c796ac2f5cf0</title>
<path fill="none" stroke="#000000" d="M303.1548,-361.8418C320.2802,-351.6515 342.5894,-338.3765 361.1593,-327.3267"/>
<polygon fill="#000000" stroke="#000000" points="363.132,-330.2257 369.9359,-322.1043 359.5524,-324.2101 363.132,-330.2257"/>
<g id="a_edge19&#45;headlabel"><a xlink:href="dir_000305_000513.html" target="_top" xlink:title="3">
<text text-anchor="middle" x="361.4947" y="-332.0038" font-family="Helvetica,sans-Serif" font-size="10.00" fill="#000000">3</text>
</a>
</g>
</g>
<!-- dir_732f729910dd598014f768fa2866f334&#45;&gt;dir_4ab6b4cc6a7edbff49100e9123df213f -->
<g id="edge16" class="edge">
<title>dir_732f729910dd598014f768fa2866f334&#45;&gt;dir_4ab6b4cc6a7edbff49100e9123df213f</title>
<path fill="none" stroke="#000000" d="M303.1533,-363.349C306.0888,-362.0908 309.073,-360.9413 312,-360 408.409,-328.9951 437.3681,-342.1515 537,-324 552.4566,-321.184 569.3771,-317.7966 584.2152,-314.7237"/>
<polygon fill="#000000" stroke="#000000" points="585.038,-318.1274 594.1115,-312.6574 583.6072,-311.2752 585.038,-318.1274"/>
<g id="a_edge16&#45;headlabel"><a xlink:href="dir_000305_000036.html" target="_top" xlink:title="16">
<text text-anchor="middle" x="582.0995" y="-319.1414" font-family="Helvetica,sans-Serif" font-size="10.00" fill="#000000">16</text>
</a>
</g>
</g>
<!-- dir_b05a5fa85f84bfc9013183c9d87f9a36 -->
<g id="node8" class="node">
<title>dir_b05a5fa85f84bfc9013183c9d87f9a36</title>
<g id="a_node8"><a xlink:href="dir_b05a5fa85f84bfc9013183c9d87f9a36.html" target="_top" xlink:title="Utilities">
<polygon fill="none" stroke="#ff0000" points="378.5,-36 323.5,-36 323.5,0 378.5,0 378.5,-36"/>
<text text-anchor="middle" x="351" y="-15.5" font-family="Helvetica,sans-Serif" font-size="10.00" fill="#000000">Utilities</text>
</a>
</g>
</g>
<!-- dir_732f729910dd598014f768fa2866f334&#45;&gt;dir_b05a5fa85f84bfc9013183c9d87f9a36 -->
<g id="edge17" class="edge">
<title>dir_732f729910dd598014f768fa2866f334&#45;&gt;dir_b05a5fa85f84bfc9013183c9d87f9a36</title>
<path fill="none" stroke="#000000" d="M248.8141,-364.4013C219.2189,-349.4999 175.7062,-327.264 173,-324 121.6847,-262.107 117.0631,-214.8858 155,-144 188.2348,-81.9002 266.9282,-45.9872 313.87,-29.3664"/>
<polygon fill="#000000" stroke="#000000" points="315.0509,-32.6616 323.3772,-26.11 312.7826,-26.0393 315.0509,-32.6616"/>
<g id="a_edge17&#45;headlabel"><a xlink:href="dir_000305_000638.html" target="_top" xlink:title="1">
<text text-anchor="middle" x="312.5702" y="-34.0124" font-family="Helvetica,sans-Serif" font-size="10.00" fill="#000000">1</text>
</a>
</g>
</g>
<!-- dir_732f729910dd598014f768fa2866f334&#45;&gt;dir_37c90836491b695b472bf98d1be8336b -->
<g id="edge18" class="edge">
<title>dir_732f729910dd598014f768fa2866f334&#45;&gt;dir_37c90836491b695b472bf98d1be8336b</title>
<path fill="none" stroke="#000000" d="M251.1029,-359.8402C238.9238,-350.1311 224.636,-337.4267 214,-324 163.2301,-259.909 132.6371,-213.3174 176,-144 192.0537,-118.3375 224.1844,-104.5544 249.7635,-97.3542"/>
<polygon fill="#000000" stroke="#000000" points="250.7458,-100.7153 259.5506,-94.8224 248.9927,-93.9384 250.7458,-100.7153"/>
<g id="a_edge18&#45;headlabel"><a xlink:href="dir_000305_000293.html" target="_top" xlink:title="2">
<text text-anchor="middle" x="247.9768" y="-101.8643" font-family="Helvetica,sans-Serif" font-size="10.00" fill="#000000">2</text>
</a>
</g>
</g>
<!-- dir_732f729910dd598014f768fa2866f334&#45;&gt;dir_bcbb2cf9a3d3d83e5515c82071a07177 -->
<g id="edge20" class="edge">
<title>dir_732f729910dd598014f768fa2866f334&#45;&gt;dir_bcbb2cf9a3d3d83e5515c82071a07177</title>
<path fill="none" stroke="#000000" d="M303.2258,-363.5615C306.1471,-362.2618 309.1083,-361.0446 312,-360 378.1087,-336.1195 422.3193,-379.0694 466,-324 480.0411,-306.298 473.0053,-280.5942 463.9335,-261.1838"/>
<polygon fill="#000000" stroke="#000000" points="467.0376,-259.5662 459.3999,-252.2233 460.7915,-262.7264 467.0376,-259.5662"/>
<g id="a_edge20&#45;headlabel"><a xlink:href="dir_000305_000063.html" target="_top" xlink:title="65">
<text text-anchor="middle" x="471.1938" y="-258.9918" font-family="Helvetica,sans-Serif" font-size="10.00" fill="#000000">65</text>
</a>
</g>
</g>
<!-- dir_26637d1bd82229bc9ed97f7e706be743 -->
<g id="node11" class="node">
<title>dir_26637d1bd82229bc9ed97f7e706be743</title>
<g id="a_node11"><a xlink:href="dir_26637d1bd82229bc9ed97f7e706be743.html" target="_top" xlink:title="Raw">
<polygon fill="none" stroke="#ff0000" points="603,-396 549,-396 549,-360 603,-360 603,-396"/>
<text text-anchor="middle" x="576" y="-375.5" font-family="Helvetica,sans-Serif" font-size="10.00" fill="#000000">Raw</text>
</a>
</g>
</g>
<!-- dir_732f729910dd598014f768fa2866f334&#45;&gt;dir_26637d1bd82229bc9ed97f7e706be743 -->
<g id="edge21" class="edge">
<title>dir_732f729910dd598014f768fa2866f334&#45;&gt;dir_26637d1bd82229bc9ed97f7e706be743</title>
<path fill="none" stroke="#000000" d="M281.7294,-396.0384C288.2342,-413.1355 300.6695,-437.8155 321,-449 361.3037,-471.1724 487.3729,-470.5741 528,-449 545.3031,-439.8116 557.5051,-421.2922 565.2759,-405.4712"/>
<polygon fill="#000000" stroke="#000000" points="568.5944,-406.6286 569.5477,-396.0767 562.2223,-403.7311 568.5944,-406.6286"/>
<g id="a_edge21&#45;headlabel"><a xlink:href="dir_000305_000643.html" target="_top" xlink:title="6">
<text text-anchor="middle" x="569.6912" y="-408.5761" font-family="Helvetica,sans-Serif" font-size="10.00" fill="#000000">6</text>
</a>
</g>
</g>
<!-- dir_732f729910dd598014f768fa2866f334&#45;&gt;dir_2171f7ec022c5423887b07c69b2f5b48 -->
<g id="edge22" class="edge">
<title>dir_732f729910dd598014f768fa2866f334&#45;&gt;dir_2171f7ec022c5423887b07c69b2f5b48</title>
<path fill="none" stroke="#000000" d="M273.3891,-359.8167C269.7764,-328.5534 266.1444,-263.4084 290,-216 295.6622,-204.7475 304.7677,-194.7887 314.2354,-186.5853"/>
<polygon fill="#000000" stroke="#000000" points="316.6462,-189.1364 322.2058,-180.1174 312.2354,-183.7009 316.6462,-189.1364"/>
<g id="a_edge22&#45;headlabel"><a xlink:href="dir_000305_000090.html" target="_top" xlink:title="80">
<text text-anchor="middle" x="315.6441" y="-191.1061" font-family="Helvetica,sans-Serif" font-size="10.00" fill="#000000">80</text>
</a>
</g>
</g>
<!-- dir_47779a59737632a3da2336a4e8799b86 -->
<g id="node5" class="node">
<title>dir_47779a59737632a3da2336a4e8799b86</title>
<g id="a_node5"><a xlink:href="dir_47779a59737632a3da2336a4e8799b86.html" target="_top" xlink:title="FV0">
<polygon fill="#ffffff" stroke="#ff0000" points="231,-396 177,-396 177,-360 231,-360 231,-396"/>
<text text-anchor="middle" x="204" y="-375.5" font-family="Helvetica,sans-Serif" font-size="10.00" fill="#000000">FV0</text>
</a>
</g>
</g>
<!-- dir_47779a59737632a3da2336a4e8799b86&#45;&gt;dir_4ab6b4cc6a7edbff49100e9123df213f -->
<g id="edge10" class="edge">
<title>dir_47779a59737632a3da2336a4e8799b86&#45;&gt;dir_4ab6b4cc6a7edbff49100e9123df213f</title>
<path fill="none" stroke="#000000" d="M231.1176,-363.2342C234.06,-361.9983 237.0557,-360.8855 240,-360 367.3325,-321.706 405.7575,-345.3405 537,-324 552.5074,-321.4784 569.4387,-318.1537 584.2712,-315.0485"/>
<polygon fill="#000000" stroke="#000000" points="585.1075,-318.449 594.1613,-312.9464 583.6521,-311.602 585.1075,-318.449"/>
<g id="a_edge10&#45;headlabel"><a xlink:href="dir_000185_000036.html" target="_top" xlink:title="9">
<text text-anchor="middle" x="582.1817" y="-319.4735" font-family="Helvetica,sans-Serif" font-size="10.00" fill="#000000">9</text>
</a>
</g>
</g>
<!-- dir_47779a59737632a3da2336a4e8799b86&#45;&gt;dir_b05a5fa85f84bfc9013183c9d87f9a36 -->
<g id="edge11" class="edge">
<title>dir_47779a59737632a3da2336a4e8799b86&#45;&gt;dir_b05a5fa85f84bfc9013183c9d87f9a36</title>
<path fill="none" stroke="#000000" d="M176.9104,-372.2908C121.4184,-358.8376 0,-319.6189 0,-234 0,-234 0,-234 0,-162 0,-94.7726 223.1787,-43.1981 313.6135,-25.0591"/>
<polygon fill="#000000" stroke="#000000" points="314.3269,-28.4859 323.4576,-23.1119 312.9685,-21.619 314.3269,-28.4859"/>
<g id="a_edge11&#45;headlabel"><a xlink:href="dir_000185_000638.html" target="_top" xlink:title="1">
<text text-anchor="middle" x="311.3515" y="-29.4687" font-family="Helvetica,sans-Serif" font-size="10.00" fill="#000000">1</text>
</a>
</g>
</g>
<!-- dir_47779a59737632a3da2336a4e8799b86&#45;&gt;dir_37c90836491b695b472bf98d1be8336b -->
<g id="edge12" class="edge">
<title>dir_47779a59737632a3da2336a4e8799b86&#45;&gt;dir_37c90836491b695b472bf98d1be8336b</title>
<path fill="none" stroke="#000000" d="M191.6852,-359.961C164.6961,-317.9759 106.4741,-212.1177 155,-144 176.7484,-113.4709 218.9352,-100.165 249.7823,-94.3884"/>
<polygon fill="#000000" stroke="#000000" points="250.4847,-97.8194 259.7628,-92.704 249.3198,-90.917 250.4847,-97.8194"/>
<g id="a_edge12&#45;headlabel"><a xlink:href="dir_000185_000293.html" target="_top" xlink:title="2">
<text text-anchor="middle" x="247.4127" y="-98.7172" font-family="Helvetica,sans-Serif" font-size="10.00" fill="#000000">2</text>
</a>
</g>
</g>
<!-- dir_47779a59737632a3da2336a4e8799b86&#45;&gt;dir_bcbb2cf9a3d3d83e5515c82071a07177 -->
<g id="edge13" class="edge">
<title>dir_47779a59737632a3da2336a4e8799b86&#45;&gt;dir_bcbb2cf9a3d3d83e5515c82071a07177</title>
<path fill="none" stroke="#000000" d="M231.1787,-363.4264C234.1092,-362.1531 237.0854,-360.9789 240,-360 322.7164,-332.2183 371.8969,-386.2915 433,-324 448.7025,-307.9921 451.6257,-282.1686 451.1012,-262.2796"/>
<polygon fill="#000000" stroke="#000000" points="454.5918,-262.0113 450.5386,-252.2225 447.6027,-262.4024 454.5918,-262.0113"/>
<g id="a_edge13&#45;headlabel"><a xlink:href="dir_000185_000063.html" target="_top" xlink:title="22">
<text text-anchor="middle" x="457.6274" y="-262.9417" font-family="Helvetica,sans-Serif" font-size="10.00" fill="#000000">22</text>
</a>
</g>
</g>
<!-- dir_47779a59737632a3da2336a4e8799b86&#45;&gt;dir_26637d1bd82229bc9ed97f7e706be743 -->
<g id="edge14" class="edge">
<title>dir_47779a59737632a3da2336a4e8799b86&#45;&gt;dir_26637d1bd82229bc9ed97f7e706be743</title>
<path fill="none" stroke="#000000" d="M209.7294,-396.0384C216.2342,-413.1355 228.6695,-437.8155 249,-449 276.1612,-463.9423 500.6209,-463.5391 528,-449 545.3031,-439.8116 557.5051,-421.2922 565.2759,-405.4712"/>
<polygon fill="#000000" stroke="#000000" points="568.5944,-406.6286 569.5477,-396.0767 562.2223,-403.7311 568.5944,-406.6286"/>
<g id="a_edge14&#45;headlabel"><a xlink:href="dir_000185_000643.html" target="_top" xlink:title="4">
<text text-anchor="middle" x="569.6912" y="-408.5761" font-family="Helvetica,sans-Serif" font-size="10.00" fill="#000000">4</text>
</a>
</g>
</g>
<!-- dir_47779a59737632a3da2336a4e8799b86&#45;&gt;dir_2171f7ec022c5423887b07c69b2f5b48 -->
<g id="edge15" class="edge">
<title>dir_47779a59737632a3da2336a4e8799b86&#45;&gt;dir_2171f7ec022c5423887b07c69b2f5b48</title>
<path fill="none" stroke="#000000" d="M208.1392,-359.9742C216.1749,-328.0945 236.3963,-260.9003 273,-216 282.5548,-204.2795 295.2888,-194.0202 307.6926,-185.6815"/>
<polygon fill="#000000" stroke="#000000" points="309.666,-188.5738 316.184,-180.2211 305.8799,-182.6861 309.666,-188.5738"/>
<g id="a_edge15&#45;headlabel"><a xlink:href="dir_000185_000090.html" target="_top" xlink:title="29">
<text text-anchor="middle" x="308.1783" y="-190.4061" font-family="Helvetica,sans-Serif" font-size="10.00" fill="#000000">29</text>
</a>
</g>
</g>
<!-- dir_9742c4beffa63bb41af6c796ac2f5cf0&#45;&gt;dir_bcbb2cf9a3d3d83e5515c82071a07177 -->
<g id="edge23" class="edge">
<title>dir_9742c4beffa63bb41af6c796ac2f5cf0&#45;&gt;dir_bcbb2cf9a3d3d83e5515c82071a07177</title>
<path fill="none" stroke="#000000" d="M409.8695,-287.8314C415.6835,-279.6232 422.6696,-269.7606 429.0646,-260.7323"/>
<polygon fill="#000000" stroke="#000000" points="432.0331,-262.5966 434.9573,-252.4133 426.321,-258.5505 432.0331,-262.5966"/>
<g id="a_edge23&#45;headlabel"><a xlink:href="dir_000513_000063.html" target="_top" xlink:title="2">
<text text-anchor="middle" x="432.2723" y="-264.671" font-family="Helvetica,sans-Serif" font-size="10.00" fill="#000000">2</text>
</a>
</g>
</g>
<!-- dir_9742c4beffa63bb41af6c796ac2f5cf0&#45;&gt;dir_2171f7ec022c5423887b07c69b2f5b48 -->
<g id="edge24" class="edge">
<title>dir_9742c4beffa63bb41af6c796ac2f5cf0&#45;&gt;dir_2171f7ec022c5423887b07c69b2f5b48</title>
<path fill="none" stroke="#000000" d="M391.1741,-287.7623C383.2935,-263.0928 369.1635,-218.8598 359.9358,-189.9731"/>
<polygon fill="#000000" stroke="#000000" points="363.1557,-188.5503 356.7786,-180.0896 356.4876,-190.6805 363.1557,-188.5503"/>
<g id="a_edge24&#45;headlabel"><a xlink:href="dir_000513_000090.html" target="_top" xlink:title="4">
<text text-anchor="middle" x="366.9541" y="-188.6105" font-family="Helvetica,sans-Serif" font-size="10.00" fill="#000000">4</text>
</a>
</g>
</g>
<!-- dir_4ab6b4cc6a7edbff49100e9123df213f&#45;&gt;dir_bcbb2cf9a3d3d83e5515c82071a07177 -->
<g id="edge1" class="edge">
<title>dir_4ab6b4cc6a7edbff49100e9123df213f&#45;&gt;dir_bcbb2cf9a3d3d83e5515c82071a07177</title>
<path fill="none" stroke="#000000" d="M596.1462,-287.8348C588.2954,-282.0614 579.669,-276.1145 571,-272 540.0229,-257.2976 527.176,-261.7971 493.664,-253.1469"/>
<polygon fill="#000000" stroke="#000000" points="494.2055,-249.6637 483.6317,-250.3316 492.3141,-256.4034 494.2055,-249.6637"/>
<g id="a_edge1&#45;headlabel"><a xlink:href="dir_000036_000063.html" target="_top" xlink:title="2">
<text text-anchor="middle" x="498.4335" y="-245.4012" font-family="Helvetica,sans-Serif" font-size="10.00" fill="#000000">2</text>
</a>
</g>
</g>
<!-- dir_4ab6b4cc6a7edbff49100e9123df213f&#45;&gt;dir_2171f7ec022c5423887b07c69b2f5b48 -->
<g id="edge2" class="edge">
<title>dir_4ab6b4cc6a7edbff49100e9123df213f&#45;&gt;dir_2171f7ec022c5423887b07c69b2f5b48</title>
<path fill="none" stroke="#000000" d="M595.6106,-287.9933C567.6814,-268.4385 524.5744,-237.1702 484,-216 457.2523,-202.044 426.0571,-189.7786 400.532,-180.4793"/>
<polygon fill="#000000" stroke="#000000" points="401.6424,-177.1592 391.048,-177.0631 399.2702,-183.745 401.6424,-177.1592"/>
<g id="a_edge2&#45;headlabel"><a xlink:href="dir_000036_000090.html" target="_top" xlink:title="2">
<text text-anchor="middle" x="405.9865" y="-173.206" font-family="Helvetica,sans-Serif" font-size="10.00" fill="#000000">2</text>
</a>
</g>
</g>
<!-- dir_b05a5fa85f84bfc9013183c9d87f9a36&#45;&gt;dir_4ab6b4cc6a7edbff49100e9123df213f -->
<g id="edge3" class="edge">
<title>dir_b05a5fa85f84bfc9013183c9d87f9a36&#45;&gt;dir_4ab6b4cc6a7edbff49100e9123df213f</title>
<path fill="none" stroke="#000000" d="M376.7453,-36.1143C421.2854,-68.3886 513.8133,-139.6552 575,-216 590.5161,-235.36 603.9057,-260.1846 612.9133,-278.8564"/>
<polygon fill="#000000" stroke="#000000" points="609.7894,-280.4382 617.2123,-287.9981 616.124,-277.4593 609.7894,-280.4382"/>
<g id="a_edge3&#45;headlabel"><a xlink:href="dir_000638_000036.html" target="_top" xlink:title="1">
<text text-anchor="middle" x="605.6904" y="-275.8936" font-family="Helvetica,sans-Serif" font-size="10.00" fill="#000000">1</text>
</a>
</g>
</g>
<!-- dir_b05a5fa85f84bfc9013183c9d87f9a36&#45;&gt;dir_bcbb2cf9a3d3d83e5515c82071a07177 -->
<g id="edge4" class="edge">
<title>dir_b05a5fa85f84bfc9013183c9d87f9a36&#45;&gt;dir_bcbb2cf9a3d3d83e5515c82071a07177</title>
<path fill="none" stroke="#000000" d="M364.5395,-36.2345C381.5033,-59.9091 410.3616,-103.0567 427,-144 435.1296,-164.0052 440.5155,-187.8508 443.7956,-205.9696"/>
<polygon fill="#000000" stroke="#000000" points="440.3582,-206.6337 445.4884,-215.9036 447.2587,-205.4577 440.3582,-206.6337"/>
<g id="a_edge4&#45;headlabel"><a xlink:href="dir_000638_000063.html" target="_top" xlink:title="99">
<text text-anchor="middle" x="436.9555" y="-201.067" font-family="Helvetica,sans-Serif" font-size="10.00" fill="#000000">99</text>
</a>
</g>
</g>
<!-- dir_b05a5fa85f84bfc9013183c9d87f9a36&#45;&gt;dir_2171f7ec022c5423887b07c69b2f5b48 -->
<g id="edge5" class="edge">
<title>dir_b05a5fa85f84bfc9013183c9d87f9a36&#45;&gt;dir_2171f7ec022c5423887b07c69b2f5b48</title>
<path fill="none" stroke="#000000" d="M355.6583,-36.0896C358.1269,-60.5727 358.4104,-104.5174 356.5089,-133.4713"/>
<polygon fill="#000000" stroke="#000000" points="352.9942,-133.5118 355.6732,-143.7623 359.9712,-134.0785 352.9942,-133.5118"/>
<g id="a_edge5&#45;headlabel"><a xlink:href="dir_000638_000090.html" target="_top" xlink:title="59">
<text text-anchor="middle" x="350.4551" y="-127.1992" font-family="Helvetica,sans-Serif" font-size="10.00" fill="#000000">59</text>
</a>
</g>
</g>
<!-- dir_37c90836491b695b472bf98d1be8336b&#45;&gt;dir_4ab6b4cc6a7edbff49100e9123df213f -->
<g id="edge6" class="edge">
<title>dir_37c90836491b695b472bf98d1be8336b&#45;&gt;dir_4ab6b4cc6a7edbff49100e9123df213f</title>
<path fill="none" stroke="#000000" d="M314.1907,-98.4915C363.9157,-115.0033 471.0918,-155.2333 544,-216 566.9282,-235.1099 589.3403,-260.708 604.7555,-279.7183"/>
<polygon fill="#000000" stroke="#000000" points="602.1421,-282.0544 611.1184,-287.6827 607.6111,-277.6852 602.1421,-282.0544"/>
<g id="a_edge6&#45;headlabel"><a xlink:href="dir_000293_000036.html" target="_top" xlink:title="16">
<text text-anchor="middle" x="597.6802" y="-278.5182" font-family="Helvetica,sans-Serif" font-size="10.00" fill="#000000">16</text>
</a>
</g>
</g>
<!-- dir_37c90836491b695b472bf98d1be8336b&#45;&gt;dir_b05a5fa85f84bfc9013183c9d87f9a36 -->
<g id="edge7" class="edge">
<title>dir_37c90836491b695b472bf98d1be8336b&#45;&gt;dir_b05a5fa85f84bfc9013183c9d87f9a36</title>
<path fill="none" stroke="#000000" d="M303.1499,-71.8314C310.6717,-63.3694 319.7565,-53.1489 327.9804,-43.8971"/>
<polygon fill="#000000" stroke="#000000" points="330.6049,-46.2127 334.6327,-36.4133 325.373,-41.5621 330.6049,-46.2127"/>
<g id="a_edge7&#45;headlabel"><a xlink:href="dir_000293_000638.html" target="_top" xlink:title="1">
<text text-anchor="middle" x="330.3389" y="-48.2856" font-family="Helvetica,sans-Serif" font-size="10.00" fill="#000000">1</text>
</a>
</g>
</g>
<!-- dir_37c90836491b695b472bf98d1be8336b&#45;&gt;dir_bcbb2cf9a3d3d83e5515c82071a07177 -->
<g id="edge8" class="edge">
<title>dir_37c90836491b695b472bf98d1be8336b&#45;&gt;dir_bcbb2cf9a3d3d83e5515c82071a07177</title>
<path fill="none" stroke="#000000" d="M314.0377,-97.5478C338.8918,-105.6282 375.4918,-120.551 400,-144 418.0871,-161.3054 430.8349,-186.941 438.6251,-206.4306"/>
<polygon fill="#000000" stroke="#000000" points="435.4302,-207.8766 442.249,-215.9855 441.9753,-205.3942 435.4302,-207.8766"/>
<g id="a_edge8&#45;headlabel"><a xlink:href="dir_000293_000063.html" target="_top" xlink:title="1">
<text text-anchor="middle" x="431.5008" y="-203.0224" font-family="Helvetica,sans-Serif" font-size="10.00" fill="#000000">1</text>
</a>
</g>
</g>
<!-- dir_37c90836491b695b472bf98d1be8336b&#45;&gt;dir_2171f7ec022c5423887b07c69b2f5b48 -->
<g id="edge9" class="edge">
<title>dir_37c90836491b695b472bf98d1be8336b&#45;&gt;dir_2171f7ec022c5423887b07c69b2f5b48</title>
<path fill="none" stroke="#000000" d="M309.3434,-108.4133C317.54,-116.7389 326.6014,-126.7282 334.2458,-135.8144"/>
<polygon fill="#000000" stroke="#000000" points="331.7623,-138.3063 340.8025,-143.8314 337.1809,-133.8747 331.7623,-138.3063"/>
<g id="a_edge9&#45;headlabel"><a xlink:href="dir_000293_000090.html" target="_top" xlink:title="15">
<text text-anchor="middle" x="327.2888" y="-134.8213" font-family="Helvetica,sans-Serif" font-size="10.00" fill="#000000">15</text>
</a>
</g>
</g>
<!-- dir_bcbb2cf9a3d3d83e5515c82071a07177&#45;&gt;dir_4ab6b4cc6a7edbff49100e9123df213f -->
<g id="edge29" class="edge">
<title>dir_bcbb2cf9a3d3d83e5515c82071a07177&#45;&gt;dir_4ab6b4cc6a7edbff49100e9123df213f</title>
<path fill="none" stroke="#000000" d="M483.7429,-244.3389C491.4559,-246.9958 499.4908,-249.7396 507,-252 542.9206,-262.8129 555.1106,-255.9153 589,-272 594.5536,-274.6359 600.0897,-278.0237 605.1501,-281.6362"/>
<polygon fill="#000000" stroke="#000000" points="603.0906,-284.4683 613.1364,-287.8348 607.3826,-278.9384 603.0906,-284.4683"/>
<g id="a_edge29&#45;headlabel"><a xlink:href="dir_000063_000036.html" target="_top" xlink:title="8">
<text text-anchor="middle" x="598.5101" y="-282.0073" font-family="Helvetica,sans-Serif" font-size="10.00" fill="#000000">8</text>
</a>
</g>
</g>
<!-- dir_bcbb2cf9a3d3d83e5515c82071a07177&#45;&gt;dir_2171f7ec022c5423887b07c69b2f5b48 -->
<g id="edge30" class="edge">
<title>dir_bcbb2cf9a3d3d83e5515c82071a07177&#45;&gt;dir_2171f7ec022c5423887b07c69b2f5b48</title>
<path fill="none" stroke="#000000" d="M417.5704,-215.8314C404.7588,-206.9632 390.0475,-196.1637 377.6656,-186.5718"/>
<polygon fill="#000000" stroke="#000000" points="379.5413,-183.5943 369.5175,-180.1628 375.2136,-189.0962 379.5413,-183.5943"/>
<g id="a_edge30&#45;headlabel"><a xlink:href="dir_000063_000090.html" target="_top" xlink:title="73">
<text text-anchor="middle" x="384.122" y="-181.0849" font-family="Helvetica,sans-Serif" font-size="10.00" fill="#000000">73</text>
</a>
</g>
</g>
<!-- dir_26637d1bd82229bc9ed97f7e706be743&#45;&gt;dir_4ab6b4cc6a7edbff49100e9123df213f -->
<g id="edge31" class="edge">
<title>dir_26637d1bd82229bc9ed97f7e706be743&#45;&gt;dir_4ab6b4cc6a7edbff49100e9123df213f</title>
<path fill="none" stroke="#000000" d="M588.3648,-359.8314C593.9509,-351.6232 600.663,-341.7606 606.8072,-332.7323"/>
<polygon fill="#000000" stroke="#000000" points="609.736,-334.6496 612.4687,-324.4133 603.949,-330.7112 609.736,-334.6496"/>
<g id="a_edge31&#45;headlabel"><a xlink:href="dir_000643_000036.html" target="_top" xlink:title="10">
<text text-anchor="middle" x="610.0609" y="-336.7187" font-family="Helvetica,sans-Serif" font-size="10.00" fill="#000000">10</text>
</a>
</g>
</g>
<!-- dir_26637d1bd82229bc9ed97f7e706be743&#45;&gt;dir_bcbb2cf9a3d3d83e5515c82071a07177 -->
<g id="edge32" class="edge">
<title>dir_26637d1bd82229bc9ed97f7e706be743&#45;&gt;dir_bcbb2cf9a3d3d83e5515c82071a07177</title>
<path fill="none" stroke="#000000" d="M573.7935,-359.9532C570.0738,-336.814 560.5033,-296.7331 537,-272 533.5031,-268.3202 513.4713,-259.6452 493.2964,-251.5119"/>
<polygon fill="#000000" stroke="#000000" points="494.3506,-248.1642 483.7654,-247.7103 491.7572,-254.6661 494.3506,-248.1642"/>
<g id="a_edge32&#45;headlabel"><a xlink:href="dir_000643_000063.html" target="_top" xlink:title="25">
<text text-anchor="middle" x="498.7412" y="-244.3586" font-family="Helvetica,sans-Serif" font-size="10.00" fill="#000000">25</text>
</a>
</g>
</g>
<!-- dir_26637d1bd82229bc9ed97f7e706be743&#45;&gt;dir_2171f7ec022c5423887b07c69b2f5b48 -->
<g id="edge33" class="edge">
<title>dir_26637d1bd82229bc9ed97f7e706be743&#45;&gt;dir_2171f7ec022c5423887b07c69b2f5b48</title>
<path fill="none" stroke="#000000" d="M603.1493,-369.722C624.1826,-361.7151 651.8788,-347.3087 665,-324 676.3371,-303.8606 677.4456,-291.4738 665,-272 635.9532,-226.5501 482.1683,-188.8701 401.1076,-171.8128"/>
<polygon fill="#000000" stroke="#000000" points="401.6242,-168.3455 391.1213,-169.7384 400.2004,-175.1992 401.6242,-168.3455"/>
<g id="a_edge33&#45;headlabel"><a xlink:href="dir_000643_000090.html" target="_top" xlink:title="15">
<text text-anchor="middle" x="405.7211" y="-163.7966" font-family="Helvetica,sans-Serif" font-size="10.00" fill="#000000">15</text>
</a>
</g>
</g>
<!-- dir_2171f7ec022c5423887b07c69b2f5b48&#45;&gt;dir_732f729910dd598014f768fa2866f334 -->
<g id="edge38" class="edge">
<title>dir_2171f7ec022c5423887b07c69b2f5b48&#45;&gt;dir_732f729910dd598014f768fa2866f334</title>
<path fill="none" stroke="#000000" d="M344.6996,-180.1451C331.5716,-217.9537 301.2166,-305.3762 285.6251,-350.2797"/>
<polygon fill="#000000" stroke="#000000" points="282.2393,-349.3607 282.2655,-359.9555 288.852,-351.6568 282.2393,-349.3607"/>
<g id="a_edge38&#45;headlabel"><a xlink:href="dir_000090_000305.html" target="_top" xlink:title="1">
<text text-anchor="middle" x="280.7361" y="-342.5336" font-family="Helvetica,sans-Serif" font-size="10.00" fill="#000000">1</text>
</a>
</g>
</g>
<!-- dir_2171f7ec022c5423887b07c69b2f5b48&#45;&gt;dir_47779a59737632a3da2336a4e8799b86 -->
<g id="edge37" class="edge">
<title>dir_2171f7ec022c5423887b07c69b2f5b48&#45;&gt;dir_47779a59737632a3da2336a4e8799b86</title>
<path fill="none" stroke="#000000" d="M310.8486,-176.0424C289.6546,-184.9744 264.3196,-198.232 246,-216 209.7097,-251.1975 203.3486,-313.3884 202.9969,-349.6181"/>
<polygon fill="#000000" stroke="#000000" points="199.4988,-349.9893 203.0542,-359.9697 206.4987,-349.9505 199.4988,-349.9893"/>
<g id="a_edge37&#45;headlabel"><a xlink:href="dir_000090_000185.html" target="_top" xlink:title="2">
<text text-anchor="middle" x="196.6397" y="-343.9104" font-family="Helvetica,sans-Serif" font-size="10.00" fill="#000000">2</text>
</a>
</g>
</g>
<!-- dir_2171f7ec022c5423887b07c69b2f5b48&#45;&gt;dir_4ab6b4cc6a7edbff49100e9123df213f -->
<g id="edge34" class="edge">
<title>dir_2171f7ec022c5423887b07c69b2f5b48&#45;&gt;dir_4ab6b4cc6a7edbff49100e9123df213f</title>
<path fill="none" stroke="#000000" d="M391.1677,-172.1249C422.4894,-181.6904 466.2231,-197.3329 502,-216 538.2951,-234.9374 576.6167,-261.9552 600.8381,-281.4408"/>
<polygon fill="#000000" stroke="#000000" points="598.8476,-284.3357 608.7911,-287.9933 603.2988,-278.9332 598.8476,-284.3357"/>
<g id="a_edge34&#45;headlabel"><a xlink:href="dir_000090_000036.html" target="_top" xlink:title="38">
<text text-anchor="middle" x="594.2679" y="-281.7413" font-family="Helvetica,sans-Serif" font-size="10.00" fill="#000000">38</text>
</a>
</g>
</g>
<!-- dir_2171f7ec022c5423887b07c69b2f5b48&#45;&gt;dir_b05a5fa85f84bfc9013183c9d87f9a36 -->
<g id="edge35" class="edge">
<title>dir_2171f7ec022c5423887b07c69b2f5b48&#45;&gt;dir_b05a5fa85f84bfc9013183c9d87f9a36</title>
<path fill="none" stroke="#000000" d="M346.3268,-143.7623C343.867,-119.201 343.5923,-75.2474 345.5026,-46.3541"/>
<polygon fill="#000000" stroke="#000000" points="349.0152,-46.3416 346.3417,-36.0896 342.0385,-45.7712 349.0152,-46.3416"/>
<g id="a_edge35&#45;headlabel"><a xlink:href="dir_000090_000638.html" target="_top" xlink:title="1">
<text text-anchor="middle" x="351.5522" y="-47.6556" font-family="Helvetica,sans-Serif" font-size="10.00" fill="#000000">1</text>
</a>
</g>
</g>
<!-- dir_2171f7ec022c5423887b07c69b2f5b48&#45;&gt;dir_37c90836491b695b472bf98d1be8336b -->
<g id="edge36" class="edge">
<title>dir_2171f7ec022c5423887b07c69b2f5b48&#45;&gt;dir_37c90836491b695b472bf98d1be8336b</title>
<path fill="none" stroke="#000000" d="M328.8977,-143.8314C320.6348,-135.454 311.4665,-125.3531 303.7452,-116.1749"/>
<polygon fill="#000000" stroke="#000000" points="306.4341,-113.9341 297.3913,-108.4133 301.0175,-118.3683 306.4341,-113.9341"/>
<g id="a_edge36&#45;headlabel"><a xlink:href="dir_000090_000293.html" target="_top" xlink:title="1">
<text text-anchor="middle" x="310.908" y="-112.4171" font-family="Helvetica,sans-Serif" font-size="10.00" fill="#000000">1</text>
</a>
</g>
</g>
<!-- dir_2171f7ec022c5423887b07c69b2f5b48&#45;&gt;dir_bcbb2cf9a3d3d83e5515c82071a07177 -->
<g id="edge39" class="edge">
<title>dir_2171f7ec022c5423887b07c69b2f5b48&#45;&gt;dir_bcbb2cf9a3d3d83e5515c82071a07177</title>
<path fill="none" stroke="#000000" d="M381.4212,-180.1628C394.232,-189.0301 408.9433,-199.8295 421.3263,-209.4219"/>
<polygon fill="#000000" stroke="#000000" points="419.4514,-212.4001 429.4752,-215.8314 423.779,-206.8981 419.4514,-212.4001"/>
<g id="a_edge39&#45;headlabel"><a xlink:href="dir_000090_000063.html" target="_top" xlink:title="19">
<text text-anchor="middle" x="414.8707" y="-209.9095" font-family="Helvetica,sans-Serif" font-size="10.00" fill="#000000">19</text>
</a>
</g>
</g>
</g>
</svg>
