<?xml version="1.0" encoding="UTF-8" standalone="no"?>
<!DOCTYPE svg PUBLIC "-//W3C//DTD SVG 1.1//EN"
 "http://www.w3.org/Graphics/SVG/1.1/DTD/svg11.dtd">
<!-- Generated by graphviz version 2.40.1 (20161225.0304)
 -->
<!-- Title: /home/travis/build/AliceO2Group/AliceO2/Detectors/AOD Pages: 1 -->
<svg width="1046pt" height="519pt"
 viewBox="0.00 0.00 1046.00 519.00" xmlns="http://www.w3.org/2000/svg" xmlns:xlink="http://www.w3.org/1999/xlink">
<g id="graph0" class="graph" transform="scale(1 1) rotate(0) translate(4 515)">
<title>/home/travis/build/AliceO2Group/AliceO2/Detectors/AOD</title>
<g id="clust1" class="cluster">
<title>clusterdir_051dca18e802f8e9474f2e30d29c04e0</title>
<g id="a_clust1"><a xlink:href="dir_051dca18e802f8e9474f2e30d29c04e0.html" target="_top" xlink:title="Detectors">
<polygon fill="#ddddee" stroke="#000000" points="440,-344 440,-503 598,-503 598,-344 440,-344"/>
<text text-anchor="middle" x="519" y="-491" font-family="Helvetica,sans-Serif" font-size="10.00" fill="#000000">Detectors</text>
</a>
</g>
</g>
<g id="clust2" class="cluster">
<title>clusterdir_4bc9293565017e583d6e787c95b29081</title>
<g id="a_clust2"><a xlink:href="dir_4bc9293565017e583d6e787c95b29081.html" target="_top">
<polygon fill="#eeeeff" stroke="#000000" points="448,-352 448,-476 590,-476 590,-352 448,-352"/>
</a>
</g>
</g>
<!-- dir_4bc9293565017e583d6e787c95b29081 -->
<g id="node1" class="node">
<title>dir_4bc9293565017e583d6e787c95b29081</title>
<text text-anchor="middle" x="555" y="-447.5" font-family="Helvetica,sans-Serif" font-size="10.00" fill="#000000">AOD</text>
</g>
<!-- dir_2a799a2546bc995f3a3d129cb656175c -->
<g id="node2" class="node">
<title>dir_2a799a2546bc995f3a3d129cb656175c</title>
<g id="a_node2"><a xlink:href="dir_2a799a2546bc995f3a3d129cb656175c.html" target="_top" xlink:title="include">
<polygon fill="#ffffff" stroke="#ff0000" points="582,-396 528,-396 528,-360 582,-360 582,-396"/>
<text text-anchor="middle" x="555" y="-375.5" font-family="Helvetica,sans-Serif" font-size="10.00" fill="#000000">include</text>
</a>
</g>
</g>
<!-- dir_bcbb2cf9a3d3d83e5515c82071a07177 -->
<g id="node12" class="node">
<title>dir_bcbb2cf9a3d3d83e5515c82071a07177</title>
<g id="a_node12"><a xlink:href="dir_bcbb2cf9a3d3d83e5515c82071a07177.html" target="_top" xlink:title="Framework">
<polygon fill="none" stroke="#ff0000" points="593.5,-324 522.5,-324 522.5,-288 593.5,-288 593.5,-324"/>
<text text-anchor="middle" x="558" y="-303.5" font-family="Helvetica,sans-Serif" font-size="10.00" fill="#000000">Framework</text>
</a>
</g>
</g>
<!-- dir_2a799a2546bc995f3a3d129cb656175c&#45;&gt;dir_bcbb2cf9a3d3d83e5515c82071a07177 -->
<g id="edge21" class="edge">
<title>dir_2a799a2546bc995f3a3d129cb656175c&#45;&gt;dir_bcbb2cf9a3d3d83e5515c82071a07177</title>
<path fill="none" stroke="#000000" d="M555.757,-359.8314C556.0779,-352.131 556.4594,-342.9743 556.816,-334.4166"/>
<polygon fill="#000000" stroke="#000000" points="560.3133,-334.5503 557.2328,-324.4133 553.3194,-334.2589 560.3133,-334.5503"/>
<g id="a_edge21&#45;headlabel"><a xlink:href="dir_000290_000063.html" target="_top" xlink:title="4">
<text text-anchor="middle" x="563.0006" y="-335.76" font-family="Helvetica,sans-Serif" font-size="10.00" fill="#000000">4</text>
</a>
</g>
</g>
<!-- dir_2171f7ec022c5423887b07c69b2f5b48 -->
<g id="node13" class="node">
<title>dir_2171f7ec022c5423887b07c69b2f5b48</title>
<g id="a_node13"><a xlink:href="dir_2171f7ec022c5423887b07c69b2f5b48.html" target="_top" xlink:title="DataFormats">
<polygon fill="none" stroke="#ff0000" points="569,-108 489,-108 489,-72 569,-72 569,-108"/>
<text text-anchor="middle" x="529" y="-87.5" font-family="Helvetica,sans-Serif" font-size="10.00" fill="#000000">DataFormats</text>
</a>
</g>
</g>
<!-- dir_2a799a2546bc995f3a3d129cb656175c&#45;&gt;dir_2171f7ec022c5423887b07c69b2f5b48 -->
<g id="edge22" class="edge">
<title>dir_2a799a2546bc995f3a3d129cb656175c&#45;&gt;dir_2171f7ec022c5423887b07c69b2f5b48</title>
<path fill="none" stroke="#000000" d="M577.2213,-359.9032C587.1308,-350.3888 597.74,-337.8349 603,-324 608.6861,-309.0445 605.2627,-303.8392 603,-288 593.5719,-222.0034 587.5357,-205.158 561,-144 557.0501,-134.8965 551.8612,-125.4367 546.8146,-117.0261"/>
<polygon fill="#000000" stroke="#000000" points="549.7,-115.0374 541.4597,-108.3778 543.7485,-118.7225 549.7,-115.0374"/>
<g id="a_edge22&#45;headlabel"><a xlink:href="dir_000290_000090.html" target="_top" xlink:title="2">
<text text-anchor="middle" x="554.0062" y="-114.0989" font-family="Helvetica,sans-Serif" font-size="10.00" fill="#000000">2</text>
</a>
</g>
</g>
<!-- dir_987b5f226d08c625380477afd193b36d -->
<g id="node3" class="node">
<title>dir_987b5f226d08c625380477afd193b36d</title>
<g id="a_node3"><a xlink:href="dir_987b5f226d08c625380477afd193b36d.html" target="_top" xlink:title="src">
<polygon fill="#ffffff" stroke="#000000" points="510,-468 456,-468 456,-432 510,-432 510,-468"/>
<text text-anchor="middle" x="483" y="-447.5" font-family="Helvetica,sans-Serif" font-size="10.00" fill="#000000">src</text>
</a>
</g>
</g>
<!-- dir_987b5f226d08c625380477afd193b36d&#45;&gt;dir_2a799a2546bc995f3a3d129cb656175c -->
<g id="edge42" class="edge">
<title>dir_987b5f226d08c625380477afd193b36d&#45;&gt;dir_2a799a2546bc995f3a3d129cb656175c</title>
<path fill="none" stroke="#000000" d="M501.1686,-431.8314C509.7152,-423.2848 520.0557,-412.9443 529.3802,-403.6198"/>
<polygon fill="#000000" stroke="#000000" points="531.9905,-405.9592 536.5867,-396.4133 527.0408,-401.0095 531.9905,-405.9592"/>
<g id="a_edge42&#45;headlabel"><a xlink:href="dir_000292_000290.html" target="_top" xlink:title="4">
<text text-anchor="middle" x="531.4564" y="-408.0087" font-family="Helvetica,sans-Serif" font-size="10.00" fill="#000000">4</text>
</a>
</g>
</g>
<!-- dir_40b4a122691869ee86baf7f2711ed718 -->
<g id="node4" class="node">
<title>dir_40b4a122691869ee86baf7f2711ed718</title>
<g id="a_node4"><a xlink:href="dir_40b4a122691869ee86baf7f2711ed718.html" target="_top" xlink:title="Steer">
<polygon fill="none" stroke="#ff0000" points="799,-396 745,-396 745,-360 799,-360 799,-396"/>
<text text-anchor="middle" x="772" y="-375.5" font-family="Helvetica,sans-Serif" font-size="10.00" fill="#000000">Steer</text>
</a>
</g>
</g>
<!-- dir_987b5f226d08c625380477afd193b36d&#45;&gt;dir_40b4a122691869ee86baf7f2711ed718 -->
<g id="edge36" class="edge">
<title>dir_987b5f226d08c625380477afd193b36d&#45;&gt;dir_40b4a122691869ee86baf7f2711ed718</title>
<path fill="none" stroke="#000000" d="M510.2053,-435.5038C513.1306,-434.2154 516.0983,-433.0165 519,-432 593.3961,-405.9371 684.7038,-390.2289 734.7632,-382.928"/>
<polygon fill="#000000" stroke="#000000" points="735.3926,-386.3737 744.7983,-381.4969 734.4043,-379.4438 735.3926,-386.3737"/>
<g id="a_edge36&#45;headlabel"><a xlink:href="dir_000292_000507.html" target="_top" xlink:title="2">
<text text-anchor="middle" x="732.2348" y="-387.1919" font-family="Helvetica,sans-Serif" font-size="10.00" fill="#000000">2</text>
</a>
</g>
</g>
<!-- dir_4ab6b4cc6a7edbff49100e9123df213f -->
<g id="node5" class="node">
<title>dir_4ab6b4cc6a7edbff49100e9123df213f</title>
<g id="a_node5"><a xlink:href="dir_4ab6b4cc6a7edbff49100e9123df213f.html" target="_top" xlink:title="Common">
<polygon fill="none" stroke="#ff0000" points="453.5,-180 392.5,-180 392.5,-144 453.5,-144 453.5,-180"/>
<text text-anchor="middle" x="423" y="-159.5" font-family="Helvetica,sans-Serif" font-size="10.00" fill="#000000">Common</text>
</a>
</g>
</g>
<!-- dir_987b5f226d08c625380477afd193b36d&#45;&gt;dir_4ab6b4cc6a7edbff49100e9123df213f -->
<g id="edge37" class="edge">
<title>dir_987b5f226d08c625380477afd193b36d&#45;&gt;dir_4ab6b4cc6a7edbff49100e9123df213f</title>
<path fill="none" stroke="#000000" d="M472.0881,-431.7374C452.5441,-397.794 412.3612,-322.0577 399,-252 396.0025,-236.2833 395.6785,-231.6514 399,-216 400.8981,-207.0557 404.3835,-197.7941 408.1209,-189.5203"/>
<polygon fill="#000000" stroke="#000000" points="411.3568,-190.8676 412.5441,-180.3395 405.0505,-187.8294 411.3568,-190.8676"/>
<g id="a_edge37&#45;headlabel"><a xlink:href="dir_000292_000036.html" target="_top" xlink:title="1">
<text text-anchor="middle" x="412.3545" y="-192.8383" font-family="Helvetica,sans-Serif" font-size="10.00" fill="#000000">1</text>
</a>
</g>
</g>
<!-- dir_d14e88a79bca429480864605ee348cef -->
<g id="node6" class="node">
<title>dir_d14e88a79bca429480864605ee348cef</title>
<g id="a_node6"><a xlink:href="dir_d14e88a79bca429480864605ee348cef.html" target="_top" xlink:title="FIT">
<polygon fill="none" stroke="#ff0000" points="556,-36 502,-36 502,0 556,0 556,-36"/>
<text text-anchor="middle" x="529" y="-15.5" font-family="Helvetica,sans-Serif" font-size="10.00" fill="#000000">FIT</text>
</a>
</g>
</g>
<!-- dir_987b5f226d08c625380477afd193b36d&#45;&gt;dir_d14e88a79bca429480864605ee348cef -->
<g id="edge38" class="edge">
<title>dir_987b5f226d08c625380477afd193b36d&#45;&gt;dir_d14e88a79bca429480864605ee348cef</title>
<path fill="none" stroke="#000000" d="M510.1206,-435.2442C513.0624,-434.0064 516.0571,-432.8903 519,-432 730.5222,-368.0054 1000,-526.9908 1000,-306 1000,-306 1000,-306 1000,-234 1000,-126.7009 917.1824,-119.5608 821,-72 776.6953,-50.092 634.9492,-30.7084 566.5821,-22.3578"/>
<polygon fill="#000000" stroke="#000000" points="566.6129,-18.8363 556.2658,-21.1137 565.7747,-25.7859 566.6129,-18.8363"/>
<g id="a_edge38&#45;headlabel"><a xlink:href="dir_000292_000180.html" target="_top" xlink:title="2">
<text text-anchor="middle" x="570.5216" y="-13.9478" font-family="Helvetica,sans-Serif" font-size="10.00" fill="#000000">2</text>
</a>
</g>
</g>
<!-- dir_a597e8e061b11201a1dff411feb10d0b -->
<g id="node7" class="node">
<title>dir_a597e8e061b11201a1dff411feb10d0b</title>
<g id="a_node7"><a xlink:href="dir_a597e8e061b11201a1dff411feb10d0b.html" target="_top" xlink:title="TPC">
<polygon fill="none" stroke="#ff0000" points="462,-252 408,-252 408,-216 462,-216 462,-252"/>
<text text-anchor="middle" x="435" y="-231.5" font-family="Helvetica,sans-Serif" font-size="10.00" fill="#000000">TPC</text>
</a>
</g>
</g>
<!-- dir_987b5f226d08c625380477afd193b36d&#45;&gt;dir_a597e8e061b11201a1dff411feb10d0b -->
<g id="edge39" class="edge">
<title>dir_987b5f226d08c625380477afd193b36d&#45;&gt;dir_a597e8e061b11201a1dff411feb10d0b</title>
<path fill="none" stroke="#000000" d="M478.9901,-431.9555C470.6254,-394.3144 451.2637,-307.1867 441.2499,-262.1246"/>
<polygon fill="#000000" stroke="#000000" points="444.6183,-261.1477 439.0322,-252.1451 437.785,-262.6662 444.6183,-261.1477"/>
<g id="a_edge39&#45;headlabel"><a xlink:href="dir_000292_000059.html" target="_top" xlink:title="2">
<text text-anchor="middle" x="448.1696" y="-261.5408" font-family="Helvetica,sans-Serif" font-size="10.00" fill="#000000">2</text>
</a>
</g>
</g>
<!-- dir_1306292b77b40360479b729ac9ee7efe -->
<g id="node8" class="node">
<title>dir_1306292b77b40360479b729ac9ee7efe</title>
<g id="a_node8"><a xlink:href="dir_1306292b77b40360479b729ac9ee7efe.html" target="_top" xlink:title="ITSMFT">
<polygon fill="none" stroke="#ff0000" points="484,-36 430,-36 430,0 484,0 484,-36"/>
<text text-anchor="middle" x="457" y="-15.5" font-family="Helvetica,sans-Serif" font-size="10.00" fill="#000000">ITSMFT</text>
</a>
</g>
</g>
<!-- dir_987b5f226d08c625380477afd193b36d&#45;&gt;dir_1306292b77b40360479b729ac9ee7efe -->
<g id="edge40" class="edge">
<title>dir_987b5f226d08c625380477afd193b36d&#45;&gt;dir_1306292b77b40360479b729ac9ee7efe</title>
<path fill="none" stroke="#000000" d="M455.8361,-448.0978C380.1153,-442.4862 168.1042,-424.5798 105,-396 49.0109,-370.6426 0,-367.4636 0,-306 0,-306 0,-306 0,-162 0,-98.8326 52.324,-97.7604 110,-72 164.9617,-47.452 341.587,-28.6457 419.4884,-21.3286"/>
<polygon fill="#000000" stroke="#000000" points="420.1681,-24.7807 429.8025,-20.373 419.5222,-17.8105 420.1681,-24.7807"/>
<g id="a_edge40&#45;headlabel"><a xlink:href="dir_000292_000053.html" target="_top" xlink:title="2">
<text text-anchor="middle" x="416.8507" y="-25.4394" font-family="Helvetica,sans-Serif" font-size="10.00" fill="#000000">2</text>
</a>
</g>
</g>
<!-- dir_8ba487e25de5ee77e05e9dce7582cb98 -->
<g id="node9" class="node">
<title>dir_8ba487e25de5ee77e05e9dce7582cb98</title>
<g id="a_node9"><a xlink:href="dir_8ba487e25de5ee77e05e9dce7582cb98.html" target="_top" xlink:title="Algorithm">
<polygon fill="none" stroke="#ff0000" points="918.5,-36 853.5,-36 853.5,0 918.5,0 918.5,-36"/>
<text text-anchor="middle" x="886" y="-15.5" font-family="Helvetica,sans-Serif" font-size="10.00" fill="#000000">Algorithm</text>
</a>
</g>
</g>
<!-- dir_987b5f226d08c625380477afd193b36d&#45;&gt;dir_8ba487e25de5ee77e05e9dce7582cb98 -->
<g id="edge41" class="edge">
<title>dir_987b5f226d08c625380477afd193b36d&#45;&gt;dir_8ba487e25de5ee77e05e9dce7582cb98</title>
<path fill="none" stroke="#000000" d="M510.0775,-435.0951C513.0277,-433.8864 516.0362,-432.8179 519,-432 622.1122,-403.5457 911.8415,-458.0095 999,-396 1034.5214,-370.728 1038,-349.5941 1038,-306 1038,-306 1038,-306 1038,-162 1038,-101.0835 972.8659,-58.214 927.8725,-35.8677"/>
<polygon fill="#000000" stroke="#000000" points="929.1367,-32.592 918.6078,-31.4116 926.1026,-38.9002 929.1367,-32.592"/>
<g id="a_edge41&#45;headlabel"><a xlink:href="dir_000292_000000.html" target="_top" xlink:title="1">
<text text-anchor="middle" x="933.6067" y="-29.0913" font-family="Helvetica,sans-Serif" font-size="10.00" fill="#000000">1</text>
</a>
</g>
</g>
<!-- dir_18e0e8b4b629c3c13e7ad1457bcd5f89 -->
<g id="node10" class="node">
<title>dir_18e0e8b4b629c3c13e7ad1457bcd5f89</title>
<g id="a_node10"><a xlink:href="dir_18e0e8b4b629c3c13e7ad1457bcd5f89.html" target="_top" xlink:title="GlobalTracking">
<polygon fill="none" stroke="#ff0000" points="272.5,-324 183.5,-324 183.5,-288 272.5,-288 272.5,-324"/>
<text text-anchor="middle" x="228" y="-303.5" font-family="Helvetica,sans-Serif" font-size="10.00" fill="#000000">GlobalTracking</text>
</a>
</g>
</g>
<!-- dir_987b5f226d08c625380477afd193b36d&#45;&gt;dir_18e0e8b4b629c3c13e7ad1457bcd5f89 -->
<g id="edge43" class="edge">
<title>dir_987b5f226d08c625380477afd193b36d&#45;&gt;dir_18e0e8b4b629c3c13e7ad1457bcd5f89</title>
<path fill="none" stroke="#000000" d="M455.8462,-447.9165C398.2842,-442.9079 266.9007,-428.148 238,-396 223.2108,-379.549 221.6582,-353.9921 223.2593,-334.3096"/>
<polygon fill="#000000" stroke="#000000" points="226.7396,-334.6799 224.3696,-324.3535 219.7827,-333.904 226.7396,-334.6799"/>
<g id="a_edge43&#45;headlabel"><a xlink:href="dir_000292_000521.html" target="_top" xlink:title="2">
<text text-anchor="middle" x="229.1631" y="-336.067" font-family="Helvetica,sans-Serif" font-size="10.00" fill="#000000">2</text>
</a>
</g>
</g>
<!-- dir_109ace25e426b841fbcad1590c555213 -->
<g id="node11" class="node">
<title>dir_109ace25e426b841fbcad1590c555213</title>
<g id="a_node11"><a xlink:href="dir_109ace25e426b841fbcad1590c555213.html" target="_top" xlink:title="GlobalTrackingWorkflow">
<polygon fill="none" stroke="#ff0000" points="381,-396 247,-396 247,-360 381,-360 381,-396"/>
<text text-anchor="middle" x="314" y="-375.5" font-family="Helvetica,sans-Serif" font-size="10.00" fill="#000000">GlobalTrackingWorkflow</text>
</a>
</g>
</g>
<!-- dir_987b5f226d08c625380477afd193b36d&#45;&gt;dir_109ace25e426b841fbcad1590c555213 -->
<g id="edge44" class="edge">
<title>dir_987b5f226d08c625380477afd193b36d&#45;&gt;dir_109ace25e426b841fbcad1590c555213</title>
<path fill="none" stroke="#000000" d="M455.8472,-438.432C431.5995,-428.1016 395.423,-412.6891 365.674,-400.0149"/>
<polygon fill="#000000" stroke="#000000" points="366.836,-396.7057 356.2643,-396.0061 364.0924,-403.1456 366.836,-396.7057"/>
<g id="a_edge44&#45;headlabel"><a xlink:href="dir_000292_000525.html" target="_top" xlink:title="7">
<text text-anchor="middle" x="371.2559" y="-393.0024" font-family="Helvetica,sans-Serif" font-size="10.00" fill="#000000">7</text>
</a>
</g>
</g>
<!-- dir_987b5f226d08c625380477afd193b36d&#45;&gt;dir_bcbb2cf9a3d3d83e5515c82071a07177 -->
<g id="edge45" class="edge">
<title>dir_987b5f226d08c625380477afd193b36d&#45;&gt;dir_bcbb2cf9a3d3d83e5515c82071a07177</title>
<path fill="none" stroke="#000000" d="M486.4054,-431.9982C491.1604,-409.9598 501.2651,-372.1066 519,-344 521.7667,-339.6153 525.1379,-335.3652 528.7276,-331.3934"/>
<polygon fill="#000000" stroke="#000000" points="531.327,-333.7409 535.7986,-324.136 526.3132,-328.856 531.327,-333.7409"/>
<g id="a_edge45&#45;headlabel"><a xlink:href="dir_000292_000063.html" target="_top" xlink:title="13">
<text text-anchor="middle" x="530.8521" y="-335.7969" font-family="Helvetica,sans-Serif" font-size="10.00" fill="#000000">13</text>
</a>
</g>
</g>
<!-- dir_987b5f226d08c625380477afd193b36d&#45;&gt;dir_2171f7ec022c5423887b07c69b2f5b48 -->
<g id="edge46" class="edge">
<title>dir_987b5f226d08c625380477afd193b36d&#45;&gt;dir_2171f7ec022c5423887b07c69b2f5b48</title>
<path fill="none" stroke="#000000" d="M455.9115,-447.5409C407.1039,-442.4446 301.7763,-428.3862 219,-396 152.4867,-369.9767 71.0442,-353.2901 100,-288 138.6523,-200.8462 173.854,-186.8946 259,-144 296.8663,-124.9238 411.9003,-106.3558 478.974,-96.7516"/>
<polygon fill="#000000" stroke="#000000" points="479.4973,-100.2125 488.9075,-95.3445 478.5155,-93.2817 479.4973,-100.2125"/>
<g id="a_edge46&#45;headlabel"><a xlink:href="dir_000292_000090.html" target="_top" xlink:title="20">
<text text-anchor="middle" x="476.3364" y="-101.0278" font-family="Helvetica,sans-Serif" font-size="10.00" fill="#000000">20</text>
</a>
</g>
</g>
<!-- dir_40b4a122691869ee86baf7f2711ed718&#45;&gt;dir_4ab6b4cc6a7edbff49100e9123df213f -->
<g id="edge1" class="edge">
<title>dir_40b4a122691869ee86baf7f2711ed718&#45;&gt;dir_4ab6b4cc6a7edbff49100e9123df213f</title>
<path fill="none" stroke="#000000" d="M744.882,-360.8076C697.8478,-331.0403 598.0209,-268.0897 513,-216 496.5048,-205.8939 478.2127,-194.883 462.4509,-185.4558"/>
<polygon fill="#000000" stroke="#000000" points="463.8757,-182.23 453.4957,-180.107 460.2862,-188.2397 463.8757,-182.23"/>
<g id="a_edge1&#45;headlabel"><a xlink:href="dir_000507_000036.html" target="_top" xlink:title="12">
<text text-anchor="middle" x="468.4176" y="-179.1356" font-family="Helvetica,sans-Serif" font-size="10.00" fill="#000000">12</text>
</a>
</g>
</g>
<!-- dir_40b4a122691869ee86baf7f2711ed718&#45;&gt;dir_d14e88a79bca429480864605ee348cef -->
<g id="edge2" class="edge">
<title>dir_40b4a122691869ee86baf7f2711ed718&#45;&gt;dir_d14e88a79bca429480864605ee348cef</title>
<path fill="none" stroke="#000000" d="M799.0354,-375.2134C829.474,-370.4687 877.5985,-357.7641 900,-324 945.2033,-255.8686 911.4182,-209.1389 862,-144 847.9388,-125.4658 806.6059,-82.7996 786,-72 748.1124,-52.1431 627.6888,-32.3834 566.0806,-23.2468"/>
<polygon fill="#000000" stroke="#000000" points="566.4081,-19.7575 556.0062,-21.7698 565.3927,-26.6835 566.4081,-19.7575"/>
<g id="a_edge2&#45;headlabel"><a xlink:href="dir_000507_000180.html" target="_top" xlink:title="7">
<text text-anchor="middle" x="570.3766" y="-14.9696" font-family="Helvetica,sans-Serif" font-size="10.00" fill="#000000">7</text>
</a>
</g>
</g>
<!-- dir_40b4a122691869ee86baf7f2711ed718&#45;&gt;dir_a597e8e061b11201a1dff411feb10d0b -->
<g id="edge3" class="edge">
<title>dir_40b4a122691869ee86baf7f2711ed718&#45;&gt;dir_a597e8e061b11201a1dff411feb10d0b</title>
<path fill="none" stroke="#000000" d="M744.6933,-372.7675C680.3828,-360.379 524.0287,-329.8539 514,-324 487.7232,-308.6618 465.6726,-281.4489 451.6033,-260.9501"/>
<polygon fill="#000000" stroke="#000000" points="454.341,-258.7459 445.8938,-252.351 448.5094,-262.6179 454.341,-258.7459"/>
<g id="a_edge3&#45;headlabel"><a xlink:href="dir_000507_000059.html" target="_top" xlink:title="9">
<text text-anchor="middle" x="458.6947" y="-257.67" font-family="Helvetica,sans-Serif" font-size="10.00" fill="#000000">9</text>
</a>
</g>
</g>
<!-- dir_40b4a122691869ee86baf7f2711ed718&#45;&gt;dir_1306292b77b40360479b729ac9ee7efe -->
<g id="edge4" class="edge">
<title>dir_40b4a122691869ee86baf7f2711ed718&#45;&gt;dir_1306292b77b40360479b729ac9ee7efe</title>
<path fill="none" stroke="#000000" d="M767.5371,-359.6368C753.677,-306.5764 706.28,-151.7639 608,-72 568.7708,-40.1616 545.4139,-54.1901 493.9017,-35.8845"/>
<polygon fill="#000000" stroke="#000000" points="494.8997,-32.5192 484.3091,-32.2207 492.402,-39.0584 494.8997,-32.5192"/>
<g id="a_edge4&#45;headlabel"><a xlink:href="dir_000507_000053.html" target="_top" xlink:title="5">
<text text-anchor="middle" x="499.2708" y="-28.6493" font-family="Helvetica,sans-Serif" font-size="10.00" fill="#000000">5</text>
</a>
</g>
</g>
<!-- dir_40b4a122691869ee86baf7f2711ed718&#45;&gt;dir_8ba487e25de5ee77e05e9dce7582cb98 -->
<g id="edge5" class="edge">
<title>dir_40b4a122691869ee86baf7f2711ed718&#45;&gt;dir_8ba487e25de5ee77e05e9dce7582cb98</title>
<path fill="none" stroke="#000000" d="M799.1141,-372.4652C841.0363,-363.3846 918.7711,-344.2943 938,-324 966.4732,-293.9491 962,-275.3978 962,-234 962,-234 962,-234 962,-162 962,-120.6022 958.3382,-108.0574 938,-72 932.0654,-61.4787 923.5991,-51.4885 915.2167,-43.0273"/>
<polygon fill="#000000" stroke="#000000" points="917.5664,-40.4309 907.9378,-36.0103 912.7081,-45.4705 917.5664,-40.4309"/>
<g id="a_edge5&#45;headlabel"><a xlink:href="dir_000507_000000.html" target="_top" xlink:title="1">
<text text-anchor="middle" x="922.1248" y="-38.3815" font-family="Helvetica,sans-Serif" font-size="10.00" fill="#000000">1</text>
</a>
</g>
</g>
<!-- dir_40b4a122691869ee86baf7f2711ed718&#45;&gt;dir_bcbb2cf9a3d3d83e5515c82071a07177 -->
<g id="edge6" class="edge">
<title>dir_40b4a122691869ee86baf7f2711ed718&#45;&gt;dir_bcbb2cf9a3d3d83e5515c82071a07177</title>
<path fill="none" stroke="#000000" d="M744.8968,-368.8812C709.3162,-356.9101 646.3511,-335.7256 603.4266,-321.2837"/>
<polygon fill="#000000" stroke="#000000" points="604.3771,-317.9108 593.783,-318.0391 602.1448,-324.5453 604.3771,-317.9108"/>
<g id="a_edge6&#45;headlabel"><a xlink:href="dir_000507_000063.html" target="_top" xlink:title="176">
<text text-anchor="middle" x="608.6894" y="-313.8659" font-family="Helvetica,sans-Serif" font-size="10.00" fill="#000000">176</text>
</a>
</g>
</g>
<!-- dir_40b4a122691869ee86baf7f2711ed718&#45;&gt;dir_2171f7ec022c5423887b07c69b2f5b48 -->
<g id="edge7" class="edge">
<title>dir_40b4a122691869ee86baf7f2711ed718&#45;&gt;dir_2171f7ec022c5423887b07c69b2f5b48</title>
<path fill="none" stroke="#000000" d="M758.2536,-359.9152C727.7015,-319.9843 651.3704,-221.6684 582,-144 573.3862,-134.3559 563.5604,-124.1442 554.7283,-115.2275"/>
<polygon fill="#000000" stroke="#000000" points="557.1349,-112.6842 547.5914,-108.0828 552.1824,-117.6313 557.1349,-112.6842"/>
<g id="a_edge7&#45;headlabel"><a xlink:href="dir_000507_000090.html" target="_top" xlink:title="160">
<text text-anchor="middle" x="561.684" y="-110.7208" font-family="Helvetica,sans-Serif" font-size="10.00" fill="#000000">160</text>
</a>
</g>
</g>
<!-- dir_4ab6b4cc6a7edbff49100e9123df213f&#45;&gt;dir_bcbb2cf9a3d3d83e5515c82071a07177 -->
<g id="edge8" class="edge">
<title>dir_4ab6b4cc6a7edbff49100e9123df213f&#45;&gt;dir_bcbb2cf9a3d3d83e5515c82071a07177</title>
<path fill="none" stroke="#000000" d="M444.6173,-180.0896C470.8227,-205.3276 514.0942,-251.2462 539.0512,-280.1061"/>
<polygon fill="#000000" stroke="#000000" points="536.4254,-282.421 545.5753,-287.7623 541.7534,-277.8808 536.4254,-282.421"/>
<g id="a_edge8&#45;headlabel"><a xlink:href="dir_000036_000063.html" target="_top" xlink:title="2">
<text text-anchor="middle" x="531.9329" y="-279.0265" font-family="Helvetica,sans-Serif" font-size="10.00" fill="#000000">2</text>
</a>
</g>
</g>
<!-- dir_4ab6b4cc6a7edbff49100e9123df213f&#45;&gt;dir_2171f7ec022c5423887b07c69b2f5b48 -->
<g id="edge9" class="edge">
<title>dir_4ab6b4cc6a7edbff49100e9123df213f&#45;&gt;dir_2171f7ec022c5423887b07c69b2f5b48</title>
<path fill="none" stroke="#000000" d="M443.7959,-143.8314C456.3392,-134.7074 472.6358,-123.539 487.6527,-113.7449"/>
<polygon fill="#000000" stroke="#000000" points="489.8013,-116.5239 496.3085,-108.1628 486.0075,-110.6411 489.8013,-116.5239"/>
<g id="a_edge9&#45;headlabel"><a xlink:href="dir_000036_000090.html" target="_top" xlink:title="2">
<text text-anchor="middle" x="488.3192" y="-118.3582" font-family="Helvetica,sans-Serif" font-size="10.00" fill="#000000">2</text>
</a>
</g>
</g>
<!-- dir_d14e88a79bca429480864605ee348cef&#45;&gt;dir_4ab6b4cc6a7edbff49100e9123df213f -->
<g id="edge10" class="edge">
<title>dir_d14e88a79bca429480864605ee348cef&#45;&gt;dir_4ab6b4cc6a7edbff49100e9123df213f</title>
<path fill="none" stroke="#000000" d="M510.9365,-36.3034C501.3026,-46.4506 489.5091,-59.5104 480,-72 464.569,-92.2677 449.2432,-116.7778 438.3759,-135.0989"/>
<polygon fill="#000000" stroke="#000000" points="435.3101,-133.408 433.2706,-143.8046 441.3484,-136.949 435.3101,-133.408"/>
<g id="a_edge10&#45;headlabel"><a xlink:href="dir_000180_000036.html" target="_top" xlink:title="30">
<text text-anchor="middle" x="434.6793" y="-126.3709" font-family="Helvetica,sans-Serif" font-size="10.00" fill="#000000">30</text>
</a>
</g>
</g>
<!-- dir_d14e88a79bca429480864605ee348cef&#45;&gt;dir_bcbb2cf9a3d3d83e5515c82071a07177 -->
<g id="edge11" class="edge">
<title>dir_d14e88a79bca429480864605ee348cef&#45;&gt;dir_bcbb2cf9a3d3d83e5515c82071a07177</title>
<path fill="none" stroke="#000000" d="M556.0488,-24.3358C593.6007,-33.7422 658.4562,-52.4083 672,-72 717.492,-137.8063 714.7799,-184.3991 672,-252 656.9058,-275.8519 628.1128,-289.3745 603.2414,-296.9227"/>
<polygon fill="#000000" stroke="#000000" points="602.2733,-293.559 593.5854,-299.6229 604.1585,-300.3004 602.2733,-293.559"/>
<g id="a_edge11&#45;headlabel"><a xlink:href="dir_000180_000063.html" target="_top" xlink:title="108">
<text text-anchor="middle" x="604.9705" y="-287.3567" font-family="Helvetica,sans-Serif" font-size="10.00" fill="#000000">108</text>
</a>
</g>
</g>
<!-- dir_d14e88a79bca429480864605ee348cef&#45;&gt;dir_2171f7ec022c5423887b07c69b2f5b48 -->
<g id="edge12" class="edge">
<title>dir_d14e88a79bca429480864605ee348cef&#45;&gt;dir_2171f7ec022c5423887b07c69b2f5b48</title>
<path fill="none" stroke="#000000" d="M534.976,-36.4133C535.7071,-44.0593 535.9203,-53.1084 535.6155,-61.5726"/>
<polygon fill="#000000" stroke="#000000" points="532.1048,-61.6264 534.9524,-71.8314 539.0902,-62.078 532.1048,-61.6264"/>
<g id="a_edge12&#45;headlabel"><a xlink:href="dir_000180_000090.html" target="_top" xlink:title="139">
<text text-anchor="middle" x="529.5032" y="-55.3562" font-family="Helvetica,sans-Serif" font-size="10.00" fill="#000000">139</text>
</a>
</g>
</g>
<!-- dir_a597e8e061b11201a1dff411feb10d0b&#45;&gt;dir_4ab6b4cc6a7edbff49100e9123df213f -->
<g id="edge13" class="edge">
<title>dir_a597e8e061b11201a1dff411feb10d0b&#45;&gt;dir_4ab6b4cc6a7edbff49100e9123df213f</title>
<path fill="none" stroke="#000000" d="M431.9719,-215.8314C430.6885,-208.131 429.1624,-198.9743 427.7361,-190.4166"/>
<polygon fill="#000000" stroke="#000000" points="431.1653,-189.7018 426.0689,-180.4133 424.2606,-190.8526 431.1653,-189.7018"/>
<g id="a_edge13&#45;headlabel"><a xlink:href="dir_000059_000036.html" target="_top" xlink:title="42">
<text text-anchor="middle" x="434.5568" y="-190.2807" font-family="Helvetica,sans-Serif" font-size="10.00" fill="#000000">42</text>
</a>
</g>
</g>
<!-- dir_a597e8e061b11201a1dff411feb10d0b&#45;&gt;dir_8ba487e25de5ee77e05e9dce7582cb98 -->
<g id="edge14" class="edge">
<title>dir_a597e8e061b11201a1dff411feb10d0b&#45;&gt;dir_8ba487e25de5ee77e05e9dce7582cb98</title>
<path fill="none" stroke="#000000" d="M462.1964,-220.9747C538.1609,-184.5925 752.9897,-81.7034 844.2061,-38.0166"/>
<polygon fill="#000000" stroke="#000000" points="845.9071,-41.0827 853.4143,-33.6065 842.8834,-34.7694 845.9071,-41.0827"/>
<g id="a_edge14&#45;headlabel"><a xlink:href="dir_000059_000000.html" target="_top" xlink:title="5">
<text text-anchor="middle" x="843.8916" y="-42.696" font-family="Helvetica,sans-Serif" font-size="10.00" fill="#000000">5</text>
</a>
</g>
</g>
<!-- dir_a597e8e061b11201a1dff411feb10d0b&#45;&gt;dir_bcbb2cf9a3d3d83e5515c82071a07177 -->
<g id="edge15" class="edge">
<title>dir_a597e8e061b11201a1dff411feb10d0b&#45;&gt;dir_bcbb2cf9a3d3d83e5515c82071a07177</title>
<path fill="none" stroke="#000000" d="M462.0174,-246.7168C480.3857,-256.611 504.6684,-270.6146 524.2737,-282.5273"/>
<polygon fill="#000000" stroke="#000000" points="522.5608,-285.5827 532.9143,-287.8314 526.2229,-279.617 522.5608,-285.5827"/>
<g id="a_edge15&#45;headlabel"><a xlink:href="dir_000059_000063.html" target="_top" xlink:title="105">
<text text-anchor="middle" x="518.012" y="-283.622" font-family="Helvetica,sans-Serif" font-size="10.00" fill="#000000">105</text>
</a>
</g>
</g>
<!-- dir_a597e8e061b11201a1dff411feb10d0b&#45;&gt;dir_2171f7ec022c5423887b07c69b2f5b48 -->
<g id="edge16" class="edge">
<title>dir_a597e8e061b11201a1dff411feb10d0b&#45;&gt;dir_2171f7ec022c5423887b07c69b2f5b48</title>
<path fill="none" stroke="#000000" d="M446.9052,-215.7623C463.2914,-190.66 492.9003,-145.3017 511.7229,-116.4671"/>
<polygon fill="#000000" stroke="#000000" points="514.6561,-118.3766 517.1915,-108.0896 508.7944,-114.5502 514.6561,-118.3766"/>
<g id="a_edge16&#45;headlabel"><a xlink:href="dir_000059_000090.html" target="_top" xlink:title="186">
<text text-anchor="middle" x="515.0688" y="-120.4387" font-family="Helvetica,sans-Serif" font-size="10.00" fill="#000000">186</text>
</a>
</g>
</g>
<!-- dir_1306292b77b40360479b729ac9ee7efe&#45;&gt;dir_4ab6b4cc6a7edbff49100e9123df213f -->
<g id="edge17" class="edge">
<title>dir_1306292b77b40360479b729ac9ee7efe&#45;&gt;dir_4ab6b4cc6a7edbff49100e9123df213f</title>
<path fill="none" stroke="#000000" d="M452.7288,-36.0896C446.9227,-60.6805 436.4808,-104.905 429.6458,-133.8531"/>
<polygon fill="#000000" stroke="#000000" points="426.1978,-133.2256 427.3061,-143.7623 433.0105,-134.8342 426.1978,-133.2256"/>
<g id="a_edge17&#45;headlabel"><a xlink:href="dir_000053_000036.html" target="_top" xlink:title="75">
<text text-anchor="middle" x="424.2604" y="-126.5748" font-family="Helvetica,sans-Serif" font-size="10.00" fill="#000000">75</text>
</a>
</g>
</g>
<!-- dir_1306292b77b40360479b729ac9ee7efe&#45;&gt;dir_bcbb2cf9a3d3d83e5515c82071a07177 -->
<g id="edge18" class="edge">
<title>dir_1306292b77b40360479b729ac9ee7efe&#45;&gt;dir_bcbb2cf9a3d3d83e5515c82071a07177</title>
<path fill="none" stroke="#000000" d="M484.1854,-27.5677C490.1443,-30.3595 496.2892,-33.3661 502,-36 539.2549,-53.1823 564.3423,-37.7978 587,-72 629.3436,-135.9185 598.6889,-232.1924 575.8636,-278.8001"/>
<polygon fill="#000000" stroke="#000000" points="572.7479,-277.2058 571.284,-287.699 578.972,-280.409 572.7479,-277.2058"/>
<g id="a_edge18&#45;headlabel"><a xlink:href="dir_000053_000063.html" target="_top" xlink:title="111">
<text text-anchor="middle" x="571.8681" y="-270.2104" font-family="Helvetica,sans-Serif" font-size="10.00" fill="#000000">111</text>
</a>
</g>
</g>
<!-- dir_1306292b77b40360479b729ac9ee7efe&#45;&gt;dir_2171f7ec022c5423887b07c69b2f5b48 -->
<g id="edge19" class="edge">
<title>dir_1306292b77b40360479b729ac9ee7efe&#45;&gt;dir_2171f7ec022c5423887b07c69b2f5b48</title>
<path fill="none" stroke="#000000" d="M481.1147,-36.1628C490.4722,-44.6891 500.9667,-55.0016 509.8076,-64.3099"/>
<polygon fill="#000000" stroke="#000000" points="507.4173,-66.8796 516.7838,-71.8314 512.5496,-62.1194 507.4173,-66.8796"/>
<g id="a_edge19&#45;headlabel"><a xlink:href="dir_000053_000090.html" target="_top" xlink:title="241">
<text text-anchor="middle" x="502.8912" y="-63.6749" font-family="Helvetica,sans-Serif" font-size="10.00" fill="#000000">241</text>
</a>
</g>
</g>
<!-- dir_8ba487e25de5ee77e05e9dce7582cb98&#45;&gt;dir_2171f7ec022c5423887b07c69b2f5b48 -->
<g id="edge20" class="edge">
<title>dir_8ba487e25de5ee77e05e9dce7582cb98&#45;&gt;dir_2171f7ec022c5423887b07c69b2f5b48</title>
<path fill="none" stroke="#000000" d="M853.4014,-25.4437C790.744,-38.7104 653.5716,-66.4007 579.1892,-80.8226"/>
<polygon fill="#000000" stroke="#000000" points="578.2793,-77.4336 569.1246,-82.7667 579.6069,-84.3066 578.2793,-77.4336"/>
<g id="a_edge20&#45;headlabel"><a xlink:href="dir_000000_000090.html" target="_top" xlink:title="8">
<text text-anchor="middle" x="581.2702" y="-71.4642" font-family="Helvetica,sans-Serif" font-size="10.00" fill="#000000">8</text>
</a>
</g>
</g>
<!-- dir_18e0e8b4b629c3c13e7ad1457bcd5f89&#45;&gt;dir_4ab6b4cc6a7edbff49100e9123df213f -->
<g id="edge23" class="edge">
<title>dir_18e0e8b4b629c3c13e7ad1457bcd5f89&#45;&gt;dir_4ab6b4cc6a7edbff49100e9123df213f</title>
<path fill="none" stroke="#000000" d="M245.778,-287.8146C265.0239,-268.6682 297.1217,-238.271 328,-216 345.4267,-203.431 366.0281,-191.414 383.5842,-181.9207"/>
<polygon fill="#000000" stroke="#000000" points="385.2733,-184.9866 392.4544,-177.1968 381.9828,-178.8082 385.2733,-184.9866"/>
<g id="a_edge23&#45;headlabel"><a xlink:href="dir_000521_000036.html" target="_top" xlink:title="18">
<text text-anchor="middle" x="383.4351" y="-186.6823" font-family="Helvetica,sans-Serif" font-size="10.00" fill="#000000">18</text>
</a>
</g>
</g>
<!-- dir_18e0e8b4b629c3c13e7ad1457bcd5f89&#45;&gt;dir_d14e88a79bca429480864605ee348cef -->
<g id="edge24" class="edge">
<title>dir_18e0e8b4b629c3c13e7ad1457bcd5f89&#45;&gt;dir_d14e88a79bca429480864605ee348cef</title>
<path fill="none" stroke="#000000" d="M225.8044,-287.9819C222.8465,-254.8961 221.6783,-184.1764 259,-144 334.8259,-62.3744 386.8558,-84.3037 492.849,-35.9067"/>
<polygon fill="#000000" stroke="#000000" points="494.3496,-39.0688 501.9178,-31.6544 491.3778,-32.7309 494.3496,-39.0688"/>
<g id="a_edge24&#45;headlabel"><a xlink:href="dir_000521_000180.html" target="_top" xlink:title="1">
<text text-anchor="middle" x="492.3004" y="-40.6655" font-family="Helvetica,sans-Serif" font-size="10.00" fill="#000000">1</text>
</a>
</g>
</g>
<!-- dir_18e0e8b4b629c3c13e7ad1457bcd5f89&#45;&gt;dir_a597e8e061b11201a1dff411feb10d0b -->
<g id="edge25" class="edge">
<title>dir_18e0e8b4b629c3c13e7ad1457bcd5f89&#45;&gt;dir_a597e8e061b11201a1dff411feb10d0b</title>
<path fill="none" stroke="#000000" d="M272.6611,-290.4657C310.0893,-277.4472 362.8897,-259.0818 397.9932,-246.8719"/>
<polygon fill="#000000" stroke="#000000" points="399.5444,-250.0381 407.8395,-243.4471 397.2447,-243.4267 399.5444,-250.0381"/>
<g id="a_edge25&#45;headlabel"><a xlink:href="dir_000521_000059.html" target="_top" xlink:title="6">
<text text-anchor="middle" x="397.082" y="-251.4007" font-family="Helvetica,sans-Serif" font-size="10.00" fill="#000000">6</text>
</a>
</g>
</g>
<!-- dir_18e0e8b4b629c3c13e7ad1457bcd5f89&#45;&gt;dir_1306292b77b40360479b729ac9ee7efe -->
<g id="edge26" class="edge">
<title>dir_18e0e8b4b629c3c13e7ad1457bcd5f89&#45;&gt;dir_1306292b77b40360479b729ac9ee7efe</title>
<path fill="none" stroke="#000000" d="M203.4199,-287.7772C192.8518,-278.4022 181.6457,-266.0021 176,-252 146.0839,-177.8041 125.048,-133.6757 176,-72 206.546,-35.025 350.8722,-23.1066 419.9638,-19.4817"/>
<polygon fill="#000000" stroke="#000000" points="420.1687,-22.9759 429.9839,-18.9867 419.8233,-15.9845 420.1687,-22.9759"/>
<g id="a_edge26&#45;headlabel"><a xlink:href="dir_000521_000053.html" target="_top" xlink:title="2">
<text text-anchor="middle" x="416.7185" y="-23.489" font-family="Helvetica,sans-Serif" font-size="10.00" fill="#000000">2</text>
</a>
</g>
</g>
<!-- dir_18e0e8b4b629c3c13e7ad1457bcd5f89&#45;&gt;dir_2171f7ec022c5423887b07c69b2f5b48 -->
<g id="edge27" class="edge">
<title>dir_18e0e8b4b629c3c13e7ad1457bcd5f89&#45;&gt;dir_2171f7ec022c5423887b07c69b2f5b48</title>
<path fill="none" stroke="#000000" d="M229.4925,-287.7849C233.2716,-254.0514 246.2932,-181.8527 290,-144 317.8136,-119.9118 417.1738,-103.7203 478.6845,-95.7527"/>
<polygon fill="#000000" stroke="#000000" points="479.4773,-99.1804 488.9587,-94.4526 478.5984,-92.2358 479.4773,-99.1804"/>
<g id="a_edge27&#45;headlabel"><a xlink:href="dir_000521_000090.html" target="_top" xlink:title="34">
<text text-anchor="middle" x="476.2675" y="-99.9484" font-family="Helvetica,sans-Serif" font-size="10.00" fill="#000000">34</text>
</a>
</g>
</g>
<!-- dir_109ace25e426b841fbcad1590c555213&#45;&gt;dir_4ab6b4cc6a7edbff49100e9123df213f -->
<g id="edge28" class="edge">
<title>dir_109ace25e426b841fbcad1590c555213&#45;&gt;dir_4ab6b4cc6a7edbff49100e9123df213f</title>
<path fill="none" stroke="#000000" d="M316.7989,-359.7314C322.2476,-328.3393 336.4311,-263.0054 366,-216 372.7479,-205.2729 382.1121,-195.2153 391.3024,-186.7557"/>
<polygon fill="#000000" stroke="#000000" points="393.7294,-189.2821 398.9201,-180.0458 389.1026,-184.0292 393.7294,-189.2821"/>
<g id="a_edge28&#45;headlabel"><a xlink:href="dir_000525_000036.html" target="_top" xlink:title="11">
<text text-anchor="middle" x="392.9087" y="-191.2886" font-family="Helvetica,sans-Serif" font-size="10.00" fill="#000000">11</text>
</a>
</g>
</g>
<!-- dir_109ace25e426b841fbcad1590c555213&#45;&gt;dir_d14e88a79bca429480864605ee348cef -->
<g id="edge29" class="edge">
<title>dir_109ace25e426b841fbcad1590c555213&#45;&gt;dir_d14e88a79bca429480864605ee348cef</title>
<path fill="none" stroke="#000000" d="M246.8557,-359.995C215.4718,-350.0873 183.0271,-337.1572 174,-324 140.8545,-275.6896 176.5231,-236.33 234,-144 256.4713,-107.9024 260.0326,-93.0097 297,-72 371.2943,-29.7763 406.489,-61.6612 492.2443,-35.6609"/>
<polygon fill="#000000" stroke="#000000" points="493.3747,-38.974 501.824,-32.5819 491.2327,-32.3098 493.3747,-38.974"/>
<g id="a_edge29&#45;headlabel"><a xlink:href="dir_000525_000180.html" target="_top" xlink:title="5">
<text text-anchor="middle" x="490.8213" y="-40.277" font-family="Helvetica,sans-Serif" font-size="10.00" fill="#000000">5</text>
</a>
</g>
</g>
<!-- dir_109ace25e426b841fbcad1590c555213&#45;&gt;dir_a597e8e061b11201a1dff411feb10d0b -->
<g id="edge30" class="edge">
<title>dir_109ace25e426b841fbcad1590c555213&#45;&gt;dir_a597e8e061b11201a1dff411feb10d0b</title>
<path fill="none" stroke="#000000" d="M329.3247,-359.7623C350.5085,-334.5518 388.8601,-288.9103 413.0728,-260.0952"/>
<polygon fill="#000000" stroke="#000000" points="416.0461,-261.9973 419.7997,-252.0896 410.6869,-257.494 416.0461,-261.9973"/>
<g id="a_edge30&#45;headlabel"><a xlink:href="dir_000525_000059.html" target="_top" xlink:title="11">
<text text-anchor="middle" x="415.9074" y="-264.0758" font-family="Helvetica,sans-Serif" font-size="10.00" fill="#000000">11</text>
</a>
</g>
</g>
<!-- dir_109ace25e426b841fbcad1590c555213&#45;&gt;dir_1306292b77b40360479b729ac9ee7efe -->
<g id="edge31" class="edge">
<title>dir_109ace25e426b841fbcad1590c555213&#45;&gt;dir_1306292b77b40360479b729ac9ee7efe</title>
<path fill="none" stroke="#000000" d="M246.9995,-361.2205C184.3373,-345.5086 100.2953,-324.379 100,-324 50.8363,-260.8895 76.0915,-220.3439 100,-144 111.6432,-106.8212 117.1783,-92.9896 150,-72 194.2325,-43.7131 347.7865,-27.2836 419.5262,-20.9876"/>
<polygon fill="#000000" stroke="#000000" points="420.2374,-24.4396 429.9017,-20.0979 419.6392,-17.4651 420.2374,-24.4396"/>
<g id="a_edge31&#45;headlabel"><a xlink:href="dir_000525_000053.html" target="_top" xlink:title="8">
<text text-anchor="middle" x="416.8985" y="-25.0755" font-family="Helvetica,sans-Serif" font-size="10.00" fill="#000000">8</text>
</a>
</g>
</g>
<!-- dir_109ace25e426b841fbcad1590c555213&#45;&gt;dir_8ba487e25de5ee77e05e9dce7582cb98 -->
<g id="edge32" class="edge">
<title>dir_109ace25e426b841fbcad1590c555213&#45;&gt;dir_8ba487e25de5ee77e05e9dce7582cb98</title>
<path fill="none" stroke="#000000" d="M376.1085,-359.9909C397.4872,-354.264 421.666,-348.3061 444,-344 513.9355,-330.516 535.4402,-346.549 603,-324 664.1803,-303.5802 677.6083,-290.9729 729,-252 796.7604,-200.6139 815.4935,-183.3076 855,-108 865.3808,-88.2121 873.4439,-64.2195 878.7417,-45.9843"/>
<polygon fill="#000000" stroke="#000000" points="882.1416,-46.8226 881.4678,-36.2493 875.4009,-44.935 882.1416,-46.8226"/>
<g id="a_edge32&#45;headlabel"><a xlink:href="dir_000525_000000.html" target="_top" xlink:title="6">
<text text-anchor="middle" x="883.9064" y="-48.5497" font-family="Helvetica,sans-Serif" font-size="10.00" fill="#000000">6</text>
</a>
</g>
</g>
<!-- dir_109ace25e426b841fbcad1590c555213&#45;&gt;dir_18e0e8b4b629c3c13e7ad1457bcd5f89 -->
<g id="edge33" class="edge">
<title>dir_109ace25e426b841fbcad1590c555213&#45;&gt;dir_18e0e8b4b629c3c13e7ad1457bcd5f89</title>
<path fill="none" stroke="#000000" d="M292.2986,-359.8314C281.8079,-351.0485 269.0545,-340.3712 257.6806,-330.8489"/>
<polygon fill="#000000" stroke="#000000" points="259.6089,-327.8986 249.6945,-324.1628 255.1153,-333.2659 259.6089,-327.8986"/>
<g id="a_edge33&#45;headlabel"><a xlink:href="dir_000525_000521.html" target="_top" xlink:title="5">
<text text-anchor="middle" x="264.1877" y="-325.529" font-family="Helvetica,sans-Serif" font-size="10.00" fill="#000000">5</text>
</a>
</g>
</g>
<!-- dir_109ace25e426b841fbcad1590c555213&#45;&gt;dir_bcbb2cf9a3d3d83e5515c82071a07177 -->
<g id="edge34" class="edge">
<title>dir_109ace25e426b841fbcad1590c555213&#45;&gt;dir_bcbb2cf9a3d3d83e5515c82071a07177</title>
<path fill="none" stroke="#000000" d="M375.2566,-359.9243C417.8906,-347.3437 473.8121,-330.8423 512.5112,-319.4229"/>
<polygon fill="#000000" stroke="#000000" points="513.8509,-322.6769 522.4515,-316.4897 511.8697,-315.9631 513.8509,-322.6769"/>
<g id="a_edge34&#45;headlabel"><a xlink:href="dir_000525_000063.html" target="_top" xlink:title="99">
<text text-anchor="middle" x="511.2068" y="-323.9173" font-family="Helvetica,sans-Serif" font-size="10.00" fill="#000000">99</text>
</a>
</g>
</g>
<!-- dir_109ace25e426b841fbcad1590c555213&#45;&gt;dir_2171f7ec022c5423887b07c69b2f5b48 -->
<g id="edge35" class="edge">
<title>dir_109ace25e426b841fbcad1590c555213&#45;&gt;dir_2171f7ec022c5423887b07c69b2f5b48</title>
<path fill="none" stroke="#000000" d="M313.3038,-359.9641C312.6639,-315.5871 317.7191,-200.6026 383,-144 410.0589,-120.5382 448.2265,-106.8965 478.7511,-99.1949"/>
<polygon fill="#000000" stroke="#000000" points="479.866,-102.5274 488.7828,-96.8052 478.2439,-95.7179 479.866,-102.5274"/>
<g id="a_edge35&#45;headlabel"><a xlink:href="dir_000525_000090.html" target="_top" xlink:title="94">
<text text-anchor="middle" x="477.0272" y="-103.6223" font-family="Helvetica,sans-Serif" font-size="10.00" fill="#000000">94</text>
</a>
</g>
</g>
<!-- dir_bcbb2cf9a3d3d83e5515c82071a07177&#45;&gt;dir_4ab6b4cc6a7edbff49100e9123df213f -->
<g id="edge47" class="edge">
<title>dir_bcbb2cf9a3d3d83e5515c82071a07177&#45;&gt;dir_4ab6b4cc6a7edbff49100e9123df213f</title>
<path fill="none" stroke="#000000" d="M536.229,-287.7623C509.9571,-262.4436 466.6882,-216.5182 441.8028,-187.7251"/>
<polygon fill="#000000" stroke="#000000" points="444.4489,-185.434 435.3007,-180.0896 439.1194,-189.9724 444.4489,-185.434"/>
<g id="a_edge47&#45;headlabel"><a xlink:href="dir_000063_000036.html" target="_top" xlink:title="8">
<text text-anchor="middle" x="448.9411" y="-183.8299" font-family="Helvetica,sans-Serif" font-size="10.00" fill="#000000">8</text>
</a>
</g>
</g>
<!-- dir_bcbb2cf9a3d3d83e5515c82071a07177&#45;&gt;dir_a597e8e061b11201a1dff411feb10d0b -->
<g id="edge48" class="edge">
<title>dir_bcbb2cf9a3d3d83e5515c82071a07177&#45;&gt;dir_a597e8e061b11201a1dff411feb10d0b</title>
<path fill="none" stroke="#000000" d="M522.3469,-288.5708C505.4262,-279.2301 485.3804,-267.5924 468.7161,-257.4664"/>
<polygon fill="#000000" stroke="#000000" points="470.2004,-254.2707 459.8473,-252.0206 466.5375,-260.2359 470.2004,-254.2707"/>
<g id="a_edge48&#45;headlabel"><a xlink:href="dir_000063_000059.html" target="_top" xlink:title="1">
<text text-anchor="middle" x="474.7493" y="-251.2321" font-family="Helvetica,sans-Serif" font-size="10.00" fill="#000000">1</text>
</a>
</g>
</g>
<!-- dir_bcbb2cf9a3d3d83e5515c82071a07177&#45;&gt;dir_1306292b77b40360479b729ac9ee7efe -->
<g id="edge49" class="edge">
<title>dir_bcbb2cf9a3d3d83e5515c82071a07177&#45;&gt;dir_1306292b77b40360479b729ac9ee7efe</title>
<path fill="none" stroke="#000000" d="M561.9965,-287.699C576.1186,-245.6112 614.2608,-140.3221 569,-72 548.4585,-40.9922 525.92,-50.7411 494.1282,-40.0291"/>
<polygon fill="#000000" stroke="#000000" points="495.0226,-36.6192 484.436,-36.1999 492.4504,-43.1295 495.0226,-36.6192"/>
<g id="a_edge49&#45;headlabel"><a xlink:href="dir_000063_000053.html" target="_top" xlink:title="1">
<text text-anchor="middle" x="499.409" y="-32.7993" font-family="Helvetica,sans-Serif" font-size="10.00" fill="#000000">1</text>
</a>
</g>
</g>
<!-- dir_bcbb2cf9a3d3d83e5515c82071a07177&#45;&gt;dir_8ba487e25de5ee77e05e9dce7582cb98 -->
<g id="edge50" class="edge">
<title>dir_bcbb2cf9a3d3d83e5515c82071a07177&#45;&gt;dir_8ba487e25de5ee77e05e9dce7582cb98</title>
<path fill="none" stroke="#000000" d="M593.6722,-297.3604C622.8755,-289.0751 664.2389,-274.4683 695,-252 775.3928,-193.2801 841.5886,-92.9657 870.4328,-45.0401"/>
<polygon fill="#000000" stroke="#000000" points="873.5972,-46.5661 875.6967,-36.1813 867.5795,-42.9902 873.5972,-46.5661"/>
<g id="a_edge50&#45;headlabel"><a xlink:href="dir_000063_000000.html" target="_top" xlink:title="1">
<text text-anchor="middle" x="874.2019" y="-48.6066" font-family="Helvetica,sans-Serif" font-size="10.00" fill="#000000">1</text>
</a>
</g>
</g>
<!-- dir_bcbb2cf9a3d3d83e5515c82071a07177&#45;&gt;dir_2171f7ec022c5423887b07c69b2f5b48 -->
<g id="edge51" class="edge">
<title>dir_bcbb2cf9a3d3d83e5515c82071a07177&#45;&gt;dir_2171f7ec022c5423887b07c69b2f5b48</title>
<path fill="none" stroke="#000000" d="M551.6314,-287.9555C543.1373,-250.3938 531.2128,-163.5541 528.0719,-118.4103"/>
<polygon fill="#000000" stroke="#000000" points="531.55,-117.9274 527.481,-108.1451 524.5616,-118.3297 531.55,-117.9274"/>
<g id="a_edge51&#45;headlabel"><a xlink:href="dir_000063_000090.html" target="_top" xlink:title="73">
<text text-anchor="middle" x="534.5911" y="-118.8529" font-family="Helvetica,sans-Serif" font-size="10.00" fill="#000000">73</text>
</a>
</g>
</g>
<!-- dir_2171f7ec022c5423887b07c69b2f5b48&#45;&gt;dir_4ab6b4cc6a7edbff49100e9123df213f -->
<g id="edge52" class="edge">
<title>dir_2171f7ec022c5423887b07c69b2f5b48&#45;&gt;dir_4ab6b4cc6a7edbff49100e9123df213f</title>
<path fill="none" stroke="#000000" d="M508.3896,-108.0336C495.2148,-117.6241 477.847,-129.5022 462.1705,-139.671"/>
<polygon fill="#000000" stroke="#000000" points="460.2021,-136.7754 453.6727,-145.1192 463.9802,-142.6683 460.2021,-136.7754"/>
<g id="a_edge52&#45;headlabel"><a xlink:href="dir_000090_000036.html" target="_top" xlink:title="38">
<text text-anchor="middle" x="461.6958" y="-129.9452" font-family="Helvetica,sans-Serif" font-size="10.00" fill="#000000">38</text>
</a>
</g>
</g>
<!-- dir_2171f7ec022c5423887b07c69b2f5b48&#45;&gt;dir_d14e88a79bca429480864605ee348cef -->
<g id="edge53" class="edge">
<title>dir_2171f7ec022c5423887b07c69b2f5b48&#45;&gt;dir_d14e88a79bca429480864605ee348cef</title>
<path fill="none" stroke="#000000" d="M523.0476,-71.8314C522.2972,-64.131 522.0763,-54.9743 522.3849,-46.4166"/>
<polygon fill="#000000" stroke="#000000" points="525.8792,-46.6161 523.024,-36.4133 518.8935,-46.1697 525.8792,-46.6161"/>
<g id="a_edge53&#45;headlabel"><a xlink:href="dir_000090_000180.html" target="_top" xlink:title="3">
<text text-anchor="middle" x="528.4836" y="-47.8844" font-family="Helvetica,sans-Serif" font-size="10.00" fill="#000000">3</text>
</a>
</g>
</g>
<!-- dir_2171f7ec022c5423887b07c69b2f5b48&#45;&gt;dir_1306292b77b40360479b729ac9ee7efe -->
<g id="edge54" class="edge">
<title>dir_2171f7ec022c5423887b07c69b2f5b48&#45;&gt;dir_1306292b77b40360479b729ac9ee7efe</title>
<path fill="none" stroke="#000000" d="M504.879,-71.8314C495.5923,-63.3694 485.1867,-53.1489 476.3891,-43.8971"/>
<polygon fill="#000000" stroke="#000000" points="478.8075,-41.3579 469.4373,-36.4133 473.6788,-46.122 478.8075,-41.3579"/>
<g id="a_edge54&#45;headlabel"><a xlink:href="dir_000090_000053.html" target="_top" xlink:title="1">
<text text-anchor="middle" x="483.3342" y="-39.5592" font-family="Helvetica,sans-Serif" font-size="10.00" fill="#000000">1</text>
</a>
</g>
</g>
<!-- dir_2171f7ec022c5423887b07c69b2f5b48&#45;&gt;dir_8ba487e25de5ee77e05e9dce7582cb98 -->
<g id="edge55" class="edge">
<title>dir_2171f7ec022c5423887b07c69b2f5b48&#45;&gt;dir_8ba487e25de5ee77e05e9dce7582cb98</title>
<path fill="none" stroke="#000000" d="M569.1943,-80.9541C637.035,-66.6919 773.3228,-39.2234 843.0024,-25.7866"/>
<polygon fill="#000000" stroke="#000000" points="844.0274,-29.1539 853.1885,-23.8319 842.7081,-22.2793 844.0274,-29.1539"/>
<g id="a_edge55&#45;headlabel"><a xlink:href="dir_000090_000000.html" target="_top" xlink:title="2">
<text text-anchor="middle" x="841.0322" y="-30.1196" font-family="Helvetica,sans-Serif" font-size="10.00" fill="#000000">2</text>
</a>
</g>
</g>
<!-- dir_2171f7ec022c5423887b07c69b2f5b48&#45;&gt;dir_bcbb2cf9a3d3d83e5515c82071a07177 -->
<g id="edge56" class="edge">
<title>dir_2171f7ec022c5423887b07c69b2f5b48&#45;&gt;dir_bcbb2cf9a3d3d83e5515c82071a07177</title>
<path fill="none" stroke="#000000" d="M535.3913,-108.1451C543.8915,-145.7945 555.8113,-232.6409 558.9365,-277.7103"/>
<polygon fill="#000000" stroke="#000000" points="555.4571,-278.172 559.5233,-287.9555 562.4456,-277.7717 555.4571,-278.172"/>
<g id="a_edge56&#45;headlabel"><a xlink:href="dir_000090_000063.html" target="_top" xlink:title="19">
<text text-anchor="middle" x="552.417" y="-272.2456" font-family="Helvetica,sans-Serif" font-size="10.00" fill="#000000">19</text>
</a>
</g>
</g>
</g>
</svg>
