<?xml version="1.0" encoding="UTF-8" standalone="no"?>
<!DOCTYPE svg PUBLIC "-//W3C//DTD SVG 1.1//EN"
 "http://www.w3.org/Graphics/SVG/1.1/DTD/svg11.dtd">
<!-- Generated by graphviz version 2.40.1 (20161225.0304)
 -->
<!-- Title: /home/travis/build/AliceO2Group/AliceO2/GPU/GPUTracking/Standalone Pages: 1 -->
<svg width="710pt" height="483pt"
 viewBox="0.00 0.00 710.08 483.00" xmlns="http://www.w3.org/2000/svg" xmlns:xlink="http://www.w3.org/1999/xlink">
<g id="graph0" class="graph" transform="scale(1 1) rotate(0) translate(4 479)">
<title>/home/travis/build/AliceO2Group/AliceO2/GPU/GPUTracking/Standalone</title>
<g id="clust1" class="cluster">
<title>clusterdir_77030b149987c946eb2e85728f65acc0</title>
<g id="a_clust1"><a xlink:href="dir_77030b149987c946eb2e85728f65acc0.html" target="_top" xlink:title="GPUTracking">
<polygon fill="#ddddee" stroke="#000000" points="92.0814,-56 92.0814,-287 279.0814,-287 279.0814,-56 92.0814,-56"/>
<text text-anchor="middle" x="185.5814" y="-275" font-family="Helvetica,sans-Serif" font-size="10.00" fill="#000000">GPUTracking</text>
</a>
</g>
</g>
<g id="clust2" class="cluster">
<title>clusterdir_289ec97c7adb65139f0eb8343d5d21ae</title>
<g id="a_clust2"><a xlink:href="dir_289ec97c7adb65139f0eb8343d5d21ae.html" target="_top">
<polygon fill="#eeeeff" stroke="#000000" points="100.0814,-64 100.0814,-260 271.0814,-260 271.0814,-64 100.0814,-64"/>
</a>
</g>
</g>
<!-- dir_289ec97c7adb65139f0eb8343d5d21ae -->
<g id="node1" class="node">
<title>dir_289ec97c7adb65139f0eb8343d5d21ae</title>
<text text-anchor="middle" x="227.0814" y="-231.5" font-family="Helvetica,sans-Serif" font-size="10.00" fill="#000000">Standalone</text>
</g>
<!-- dir_dc84902369092e5202e1cdf6db24d51d -->
<g id="node4" class="node">
<title>dir_dc84902369092e5202e1cdf6db24d51d</title>
<g id="a_node4"><a xlink:href="dir_dc84902369092e5202e1cdf6db24d51d.html" target="_top" xlink:title="qa">
<polygon fill="#ffffff" stroke="#000000" points="234.0814,-180 180.0814,-180 180.0814,-144 234.0814,-144 234.0814,-180"/>
<text text-anchor="middle" x="207.0814" y="-159.5" font-family="Helvetica,sans-Serif" font-size="10.00" fill="#000000">qa</text>
</a>
</g>
</g>
<!-- dir_289ec97c7adb65139f0eb8343d5d21ae&#45;&gt;dir_dc84902369092e5202e1cdf6db24d51d -->
<g id="edge8" class="edge">
<title>dir_289ec97c7adb65139f0eb8343d5d21ae&#45;&gt;dir_dc84902369092e5202e1cdf6db24d51d</title>
<path fill="none" stroke="#000000" d="M222.0346,-215.8314C219.8721,-208.0463 217.2961,-198.7729 214.8966,-190.1347"/>
<polygon fill="#000000" stroke="#000000" points="218.245,-189.1117 212.1962,-180.4133 211.5004,-190.9852 218.245,-189.1117"/>
<g id="a_edge8&#45;headlabel"><a xlink:href="dir_000778_000784.html" target="_top" xlink:title="2">
<text text-anchor="middle" x="221.9427" y="-189.3153" font-family="Helvetica,sans-Serif" font-size="10.00" fill="#000000">2</text>
</a>
</g>
</g>
<!-- dir_ee87ad93049d1677c6ffb88a968be9d4 -->
<g id="node9" class="node">
<title>dir_ee87ad93049d1677c6ffb88a968be9d4</title>
<g id="a_node9"><a xlink:href="dir_ee87ad93049d1677c6ffb88a968be9d4.html" target="_top" xlink:title="TPCFastTransformation">
<polygon fill="none" stroke="#ff0000" points="415.0814,-108 287.0814,-108 287.0814,-72 415.0814,-72 415.0814,-108"/>
<text text-anchor="middle" x="351.0814" y="-87.5" font-family="Helvetica,sans-Serif" font-size="10.00" fill="#000000">TPCFastTransformation</text>
</a>
</g>
</g>
<!-- dir_289ec97c7adb65139f0eb8343d5d21ae&#45;&gt;dir_ee87ad93049d1677c6ffb88a968be9d4 -->
<g id="edge9" class="edge">
<title>dir_289ec97c7adb65139f0eb8343d5d21ae&#45;&gt;dir_ee87ad93049d1677c6ffb88a968be9d4</title>
<path fill="none" stroke="#000000" d="M236.7525,-215.9904C247.4245,-196.9909 265.7973,-166.7151 286.0814,-144 295.5036,-133.4486 307.0492,-123.1849 317.782,-114.489"/>
<polygon fill="#000000" stroke="#000000" points="320.1071,-117.1126 325.7824,-108.1661 315.7666,-111.6207 320.1071,-117.1126"/>
<g id="a_edge9&#45;headlabel"><a xlink:href="dir_000778_000789.html" target="_top" xlink:title="1">
<text text-anchor="middle" x="319.0474" y="-119.069" font-family="Helvetica,sans-Serif" font-size="10.00" fill="#000000">1</text>
</a>
</g>
</g>
<!-- dir_f75a703c2555322f99f9e21899df4536 -->
<g id="node2" class="node">
<title>dir_f75a703c2555322f99f9e21899df4536</title>
<g id="a_node2"><a xlink:href="dir_f75a703c2555322f99f9e21899df4536.html" target="_top" xlink:title="display">
<polygon fill="#ffffff" stroke="#ff0000" points="162.0814,-180 108.0814,-180 108.0814,-144 162.0814,-144 162.0814,-180"/>
<text text-anchor="middle" x="135.0814" y="-159.5" font-family="Helvetica,sans-Serif" font-size="10.00" fill="#000000">display</text>
</a>
</g>
</g>
<!-- dir_e9bb66071ff20a94d206d862bf4c4a75 -->
<g id="node5" class="node">
<title>dir_e9bb66071ff20a94d206d862bf4c4a75</title>
<g id="a_node5"><a xlink:href="dir_e9bb66071ff20a94d206d862bf4c4a75.html" target="_top" xlink:title="utils">
<polygon fill="#ffffff" stroke="#000000" points="263.0814,-108 209.0814,-108 209.0814,-72 263.0814,-72 263.0814,-108"/>
<text text-anchor="middle" x="236.0814" y="-87.5" font-family="Helvetica,sans-Serif" font-size="10.00" fill="#000000">utils</text>
</a>
</g>
</g>
<!-- dir_f75a703c2555322f99f9e21899df4536&#45;&gt;dir_e9bb66071ff20a94d206d862bf4c4a75 -->
<g id="edge52" class="edge">
<title>dir_f75a703c2555322f99f9e21899df4536&#45;&gt;dir_e9bb66071ff20a94d206d862bf4c4a75</title>
<path fill="none" stroke="#000000" d="M160.568,-143.8314C173.2473,-134.7927 188.741,-123.7476 202.387,-114.0198"/>
<polygon fill="#000000" stroke="#000000" points="204.4919,-116.8176 210.603,-108.1628 200.4285,-111.1176 204.4919,-116.8176"/>
<g id="a_edge52&#45;headlabel"><a xlink:href="dir_000779_000785.html" target="_top" xlink:title="1">
<text text-anchor="middle" x="203.213" y="-118.7161" font-family="Helvetica,sans-Serif" font-size="10.00" fill="#000000">1</text>
</a>
</g>
</g>
<!-- dir_ba48ca66118492a4424f86e9da0f6902 -->
<g id="node8" class="node">
<title>dir_ba48ca66118492a4424f86e9da0f6902</title>
<g id="a_node8"><a xlink:href="dir_ba48ca66118492a4424f86e9da0f6902.html" target="_top" xlink:title="Common">
<polygon fill="none" stroke="#000000" points="427.5814,-36 366.5814,-36 366.5814,0 427.5814,0 427.5814,-36"/>
<text text-anchor="middle" x="397.0814" y="-15.5" font-family="Helvetica,sans-Serif" font-size="10.00" fill="#000000">Common</text>
</a>
</g>
</g>
<!-- dir_f75a703c2555322f99f9e21899df4536&#45;&gt;dir_ba48ca66118492a4424f86e9da0f6902 -->
<g id="edge51" class="edge">
<title>dir_f75a703c2555322f99f9e21899df4536&#45;&gt;dir_ba48ca66118492a4424f86e9da0f6902</title>
<path fill="none" stroke="#000000" d="M138.1697,-143.801C143.2648,-119.7249 155.8311,-77.7974 184.0814,-56 210.3592,-35.7247 301.8572,-25.3338 356.0094,-20.8425"/>
<polygon fill="#000000" stroke="#000000" points="356.6211,-24.305 366.3115,-20.0217 356.0651,-17.3271 356.6211,-24.305"/>
<g id="a_edge51&#45;headlabel"><a xlink:href="dir_000779_000759.html" target="_top" xlink:title="7">
<text text-anchor="middle" x="353.2633" y="-24.9207" font-family="Helvetica,sans-Serif" font-size="10.00" fill="#000000">7</text>
</a>
</g>
</g>
<!-- dir_77357a4aa05272449297f3042e4af8aa -->
<g id="node3" class="node">
<title>dir_77357a4aa05272449297f3042e4af8aa</title>
<g id="a_node3"><a xlink:href="dir_77357a4aa05272449297f3042e4af8aa.html" target="_top" xlink:title="makefiles">
<polygon fill="#ffffff" stroke="#000000" points="173.5814,-252 108.5814,-252 108.5814,-216 173.5814,-216 173.5814,-252"/>
<text text-anchor="middle" x="141.0814" y="-231.5" font-family="Helvetica,sans-Serif" font-size="10.00" fill="#000000">makefiles</text>
</a>
</g>
</g>
<!-- dir_dc84902369092e5202e1cdf6db24d51d&#45;&gt;dir_e9bb66071ff20a94d206d862bf4c4a75 -->
<g id="edge13" class="edge">
<title>dir_dc84902369092e5202e1cdf6db24d51d&#45;&gt;dir_e9bb66071ff20a94d206d862bf4c4a75</title>
<path fill="none" stroke="#000000" d="M214.3993,-143.8314C217.5691,-135.9617 221.3514,-126.5712 224.8627,-117.8533"/>
<polygon fill="#000000" stroke="#000000" points="228.1753,-118.9968 228.665,-108.4133 221.6822,-116.3815 228.1753,-118.9968"/>
<g id="a_edge13&#45;headlabel"><a xlink:href="dir_000784_000785.html" target="_top" xlink:title="4">
<text text-anchor="middle" x="229.4661" y="-120.8919" font-family="Helvetica,sans-Serif" font-size="10.00" fill="#000000">4</text>
</a>
</g>
</g>
<!-- dir_6d1e342cb6193ce32747aa0856bf9c1e -->
<g id="node6" class="node">
<title>dir_6d1e342cb6193ce32747aa0856bf9c1e</title>
<g id="a_node6"><a xlink:href="dir_6d1e342cb6193ce32747aa0856bf9c1e.html" target="_top" xlink:title="HLTHeaders">
<polygon fill="none" stroke="#000000" points="545.0814,-108 471.0814,-108 471.0814,-72 545.0814,-72 545.0814,-108"/>
<text text-anchor="middle" x="508.0814" y="-87.5" font-family="Helvetica,sans-Serif" font-size="10.00" fill="#000000">HLTHeaders</text>
</a>
</g>
</g>
<!-- dir_dc84902369092e5202e1cdf6db24d51d&#45;&gt;dir_6d1e342cb6193ce32747aa0856bf9c1e -->
<g id="edge10" class="edge">
<title>dir_dc84902369092e5202e1cdf6db24d51d&#45;&gt;dir_6d1e342cb6193ce32747aa0856bf9c1e</title>
<path fill="none" stroke="#000000" d="M234.324,-155.4835C285.6989,-143.1945 397.4436,-116.4649 461.1409,-101.2283"/>
<polygon fill="#000000" stroke="#000000" points="462.0234,-104.616 470.9348,-98.8856 460.3949,-97.8081 462.0234,-104.616"/>
<g id="a_edge10&#45;headlabel"><a xlink:href="dir_000784_000771.html" target="_top" xlink:title="2">
<text text-anchor="middle" x="459.1879" y="-105.7136" font-family="Helvetica,sans-Serif" font-size="10.00" fill="#000000">2</text>
</a>
</g>
</g>
<!-- dir_808d5540d0c117816a4e0e1b180c8334 -->
<g id="node7" class="node">
<title>dir_808d5540d0c117816a4e0e1b180c8334</title>
<g id="a_node7"><a xlink:href="dir_808d5540d0c117816a4e0e1b180c8334.html" target="_top" xlink:title="Merger">
<polygon fill="none" stroke="#000000" points="427.0814,-403 373.0814,-403 373.0814,-367 427.0814,-367 427.0814,-403"/>
<text text-anchor="middle" x="400.0814" y="-382.5" font-family="Helvetica,sans-Serif" font-size="10.00" fill="#000000">Merger</text>
</a>
</g>
</g>
<!-- dir_dc84902369092e5202e1cdf6db24d51d&#45;&gt;dir_808d5540d0c117816a4e0e1b180c8334 -->
<g id="edge12" class="edge">
<title>dir_dc84902369092e5202e1cdf6db24d51d&#45;&gt;dir_808d5540d0c117816a4e0e1b180c8334</title>
<path fill="none" stroke="#000000" d="M179.8063,-176.3066C176.8946,-177.632 173.9492,-178.8913 171.0814,-180 115.9612,-201.3098 78.7662,-168.8944 43.0814,-216 11.4974,-257.6924 25.1401,-301.1362 68.0814,-331 115.3009,-363.8391 286.4252,-378.1134 362.8137,-382.9494"/>
<polygon fill="#000000" stroke="#000000" points="362.7455,-386.4517 372.941,-383.5701 363.1738,-379.4648 362.7455,-386.4517"/>
<g id="a_edge12&#45;headlabel"><a xlink:href="dir_000784_000774.html" target="_top" xlink:title="5">
<text text-anchor="middle" x="358.984" y="-386.5659" font-family="Helvetica,sans-Serif" font-size="10.00" fill="#000000">5</text>
</a>
</g>
</g>
<!-- dir_dc84902369092e5202e1cdf6db24d51d&#45;&gt;dir_ba48ca66118492a4424f86e9da0f6902 -->
<g id="edge11" class="edge">
<title>dir_dc84902369092e5202e1cdf6db24d51d&#45;&gt;dir_ba48ca66118492a4424f86e9da0f6902</title>
<path fill="none" stroke="#000000" d="M199.0986,-143.9576C190.2274,-120.8231 179.6516,-80.7472 200.0814,-56 219.4787,-32.5035 304.367,-23.3747 356.1759,-19.9495"/>
<polygon fill="#000000" stroke="#000000" points="356.615,-23.4292 366.3805,-19.32 356.1839,-16.4425 356.615,-23.4292"/>
<g id="a_edge11&#45;headlabel"><a xlink:href="dir_000784_000759.html" target="_top" xlink:title="2">
<text text-anchor="middle" x="353.202" y="-23.9843" font-family="Helvetica,sans-Serif" font-size="10.00" fill="#000000">2</text>
</a>
</g>
</g>
<!-- dir_aecab50d18d7ac5723d6b92dc6c0a5e0 -->
<g id="node10" class="node">
<title>dir_aecab50d18d7ac5723d6b92dc6c0a5e0</title>
<g id="a_node10"><a xlink:href="dir_aecab50d18d7ac5723d6b92dc6c0a5e0.html" target="_top" xlink:title="DataCompression">
<polygon fill="none" stroke="#000000" points="565.0814,-475 461.0814,-475 461.0814,-439 565.0814,-439 565.0814,-475"/>
<text text-anchor="middle" x="513.0814" y="-454.5" font-family="Helvetica,sans-Serif" font-size="10.00" fill="#000000">DataCompression</text>
</a>
</g>
</g>
<!-- dir_dc84902369092e5202e1cdf6db24d51d&#45;&gt;dir_aecab50d18d7ac5723d6b92dc6c0a5e0 -->
<g id="edge14" class="edge">
<title>dir_dc84902369092e5202e1cdf6db24d51d&#45;&gt;dir_aecab50d18d7ac5723d6b92dc6c0a5e0</title>
<path fill="none" stroke="#000000" d="M179.8492,-176.4209C176.9292,-177.7241 173.97,-178.9469 171.0814,-180 106.6687,-203.483 63.5284,-162.1604 21.0814,-216 -10.6594,-256.26 -5.189,-293.7932 30.0814,-331 87.6652,-391.7451 333.3555,-432.5587 450.4865,-448.9334"/>
<polygon fill="#000000" stroke="#000000" points="450.3469,-452.4473 460.7319,-450.3491 451.3051,-445.5132 450.3469,-452.4473"/>
<g id="a_edge14&#45;headlabel"><a xlink:href="dir_000784_000768.html" target="_top" xlink:title="1">
<text text-anchor="middle" x="446.3975" y="-452.2679" font-family="Helvetica,sans-Serif" font-size="10.00" fill="#000000">1</text>
</a>
</g>
</g>
<!-- dir_442920581a03c66cf8c08ae559108050 -->
<g id="node11" class="node">
<title>dir_442920581a03c66cf8c08ae559108050</title>
<g id="a_node11"><a xlink:href="dir_442920581a03c66cf8c08ae559108050.html" target="_top" xlink:title="Base">
<polygon fill="none" stroke="#ff0000" points="363.0814,-331 309.0814,-331 309.0814,-295 363.0814,-295 363.0814,-331"/>
<text text-anchor="middle" x="336.0814" y="-310.5" font-family="Helvetica,sans-Serif" font-size="10.00" fill="#000000">Base</text>
</a>
</g>
</g>
<!-- dir_dc84902369092e5202e1cdf6db24d51d&#45;&gt;dir_442920581a03c66cf8c08ae559108050 -->
<g id="edge15" class="edge">
<title>dir_dc84902369092e5202e1cdf6db24d51d&#45;&gt;dir_442920581a03c66cf8c08ae559108050</title>
<path fill="none" stroke="#000000" d="M179.8995,-175.611C148.2955,-191.4516 100.3737,-215.5251 100.0814,-216 83.5418,-242.8737 79.0254,-263.4969 100.0814,-287 113.0493,-301.475 234.9871,-308.7332 298.3055,-311.5521"/>
<polygon fill="#000000" stroke="#000000" points="298.5327,-315.0649 308.6736,-311.9972 298.833,-308.0714 298.5327,-315.0649"/>
<g id="a_edge15&#45;headlabel"><a xlink:href="dir_000784_000761.html" target="_top" xlink:title="1">
<text text-anchor="middle" x="294.8196" y="-315.2475" font-family="Helvetica,sans-Serif" font-size="10.00" fill="#000000">1</text>
</a>
</g>
</g>
<!-- dir_b1dd2c3d7fcd0d0d24ad7c8634d4eb04 -->
<g id="node12" class="node">
<title>dir_b1dd2c3d7fcd0d0d24ad7c8634d4eb04</title>
<g id="a_node12"><a xlink:href="dir_b1dd2c3d7fcd0d0d24ad7c8634d4eb04.html" target="_top" xlink:title="Global">
<polygon fill="none" stroke="#000000" points="382.0814,-180 328.0814,-180 328.0814,-144 382.0814,-144 382.0814,-180"/>
<text text-anchor="middle" x="355.0814" y="-159.5" font-family="Helvetica,sans-Serif" font-size="10.00" fill="#000000">Global</text>
</a>
</g>
</g>
<!-- dir_dc84902369092e5202e1cdf6db24d51d&#45;&gt;dir_b1dd2c3d7fcd0d0d24ad7c8634d4eb04 -->
<g id="edge16" class="edge">
<title>dir_dc84902369092e5202e1cdf6db24d51d&#45;&gt;dir_b1dd2c3d7fcd0d0d24ad7c8634d4eb04</title>
<path fill="none" stroke="#000000" d="M234.2533,-162C261.9972,-162 289.741,-162 317.4849,-162"/>
<polygon fill="#000000" stroke="#000000" points="317.7063,-165.5001 327.7063,-162 317.7063,-158.5001 317.7063,-165.5001"/>
<g id="a_edge16&#45;headlabel"><a xlink:href="dir_000784_000770.html" target="_top" xlink:title="2">
<text text-anchor="middle" x="314.1117" y="-165.8393" font-family="Helvetica,sans-Serif" font-size="10.00" fill="#000000">2</text>
</a>
</g>
</g>
<!-- dir_b1a191f241d56beebc4ffdb42af892eb -->
<g id="node13" class="node">
<title>dir_b1a191f241d56beebc4ffdb42af892eb</title>
<g id="a_node13"><a xlink:href="dir_b1a191f241d56beebc4ffdb42af892eb.html" target="_top" xlink:title="SliceTracker">
<polygon fill="none" stroke="#000000" points="550.5814,-252 475.5814,-252 475.5814,-216 550.5814,-216 550.5814,-252"/>
<text text-anchor="middle" x="513.0814" y="-231.5" font-family="Helvetica,sans-Serif" font-size="10.00" fill="#000000">SliceTracker</text>
</a>
</g>
</g>
<!-- dir_dc84902369092e5202e1cdf6db24d51d&#45;&gt;dir_b1a191f241d56beebc4ffdb42af892eb -->
<g id="edge17" class="edge">
<title>dir_dc84902369092e5202e1cdf6db24d51d&#45;&gt;dir_b1a191f241d56beebc4ffdb42af892eb</title>
<path fill="none" stroke="#000000" d="M234.1026,-168.3579C286.0773,-180.5873 400.5707,-207.5269 465.57,-222.8208"/>
<polygon fill="#000000" stroke="#000000" points="465.024,-226.2879 475.5598,-225.1714 466.6273,-219.474 465.024,-226.2879"/>
<g id="a_edge17&#45;headlabel"><a xlink:href="dir_000784_000777.html" target="_top" xlink:title="8">
<text text-anchor="middle" x="460.8746" y="-225.7284" font-family="Helvetica,sans-Serif" font-size="10.00" fill="#000000">8</text>
</a>
</g>
</g>
<!-- dir_808d5540d0c117816a4e0e1b180c8334&#45;&gt;dir_289ec97c7adb65139f0eb8343d5d21ae -->
<g id="edge2" class="edge">
<title>dir_808d5540d0c117816a4e0e1b180c8334&#45;&gt;dir_289ec97c7adb65139f0eb8343d5d21ae</title>
<path fill="none" stroke="#000000" d="M372.6551,-374.0631C351.3746,-364.7078 321.92,-349.7857 300.0814,-331 276.6983,-310.8857 256.1937,-282.0697 242.918,-261.0739"/>
<polygon fill="#000000" stroke="#000000" points="245.7449,-258.9902 237.5132,-252.3201 239.7887,-262.6678 245.7449,-258.9902"/>
<g id="a_edge2&#45;headlabel"><a xlink:href="dir_000774_000778.html" target="_top" xlink:title="1">
<text text-anchor="middle" x="250.0492" y="-258.0572" font-family="Helvetica,sans-Serif" font-size="10.00" fill="#000000">1</text>
</a>
</g>
</g>
<!-- dir_808d5540d0c117816a4e0e1b180c8334&#45;&gt;dir_dc84902369092e5202e1cdf6db24d51d -->
<g id="edge3" class="edge">
<title>dir_808d5540d0c117816a4e0e1b180c8334&#45;&gt;dir_dc84902369092e5202e1cdf6db24d51d</title>
<path fill="none" stroke="#000000" d="M372.9143,-381.3141C299.5262,-370.7463 100.2466,-337.8026 62.0814,-287 43.128,-261.7706 43.5953,-241.5738 62.0814,-216 90.2181,-177.0756 120.1827,-196.7791 170.1807,-179.7955"/>
<polygon fill="#000000" stroke="#000000" points="171.6384,-182.9862 179.7537,-176.1749 169.1621,-176.4388 171.6384,-182.9862"/>
<g id="a_edge3&#45;headlabel"><a xlink:href="dir_000774_000784.html" target="_top" xlink:title="1">
<text text-anchor="middle" x="169.2806" y="-184.4134" font-family="Helvetica,sans-Serif" font-size="10.00" fill="#000000">1</text>
</a>
</g>
</g>
<!-- dir_808d5540d0c117816a4e0e1b180c8334&#45;&gt;dir_ba48ca66118492a4424f86e9da0f6902 -->
<g id="edge1" class="edge">
<title>dir_808d5540d0c117816a4e0e1b180c8334&#45;&gt;dir_ba48ca66118492a4424f86e9da0f6902</title>
<path fill="none" stroke="#000000" d="M427.2323,-380.81C459.6425,-374.6536 514.0938,-360.5304 551.0814,-331 646.9592,-254.4526 653.4344,-150.4079 575.0814,-56 557.9146,-35.3156 484.9483,-25.3407 437.9312,-20.9763"/>
<polygon fill="#000000" stroke="#000000" points="438.0123,-17.47 427.7441,-20.0802 437.3988,-24.4431 438.0123,-17.47"/>
<g id="a_edge1&#45;headlabel"><a xlink:href="dir_000774_000759.html" target="_top" xlink:title="15">
<text text-anchor="middle" x="441.8419" y="-12.4566" font-family="Helvetica,sans-Serif" font-size="10.00" fill="#000000">15</text>
</a>
</g>
</g>
<!-- dir_808d5540d0c117816a4e0e1b180c8334&#45;&gt;dir_ee87ad93049d1677c6ffb88a968be9d4 -->
<g id="edge4" class="edge">
<title>dir_808d5540d0c117816a4e0e1b180c8334&#45;&gt;dir_ee87ad93049d1677c6ffb88a968be9d4</title>
<path fill="none" stroke="#000000" d="M427.3812,-377.4409C465.0875,-365.3599 531.665,-337.7281 560.0814,-287 575.5031,-259.4696 575.5999,-243.476 560.0814,-216 530.5854,-163.776 469.8016,-130.7806 421.3524,-111.7171"/>
<polygon fill="#000000" stroke="#000000" points="422.4307,-108.3824 411.8399,-108.0885 419.9358,-114.9228 422.4307,-108.3824"/>
<g id="a_edge4&#45;headlabel"><a xlink:href="dir_000774_000789.html" target="_top" xlink:title="2">
<text text-anchor="middle" x="426.8011" y="-104.5107" font-family="Helvetica,sans-Serif" font-size="10.00" fill="#000000">2</text>
</a>
</g>
</g>
<!-- dir_808d5540d0c117816a4e0e1b180c8334&#45;&gt;dir_442920581a03c66cf8c08ae559108050 -->
<g id="edge5" class="edge">
<title>dir_808d5540d0c117816a4e0e1b180c8334&#45;&gt;dir_442920581a03c66cf8c08ae559108050</title>
<path fill="none" stroke="#000000" d="M377.9791,-366.8314C369.7162,-358.454 360.548,-348.3531 352.8266,-339.1749"/>
<polygon fill="#000000" stroke="#000000" points="355.5155,-336.9341 346.4728,-331.4133 350.0989,-341.3683 355.5155,-336.9341"/>
<g id="a_edge5&#45;headlabel"><a xlink:href="dir_000774_000761.html" target="_top" xlink:title="23">
<text text-anchor="middle" x="359.9894" y="-335.4171" font-family="Helvetica,sans-Serif" font-size="10.00" fill="#000000">23</text>
</a>
</g>
</g>
<!-- dir_808d5540d0c117816a4e0e1b180c8334&#45;&gt;dir_b1dd2c3d7fcd0d0d24ad7c8634d4eb04 -->
<g id="edge6" class="edge">
<title>dir_808d5540d0c117816a4e0e1b180c8334&#45;&gt;dir_b1dd2c3d7fcd0d0d24ad7c8634d4eb04</title>
<path fill="none" stroke="#000000" d="M391.0089,-366.9888C381.279,-336.092 368.2157,-270.9996 357.0814,-216 355.3996,-207.6923 353.5644,-198.6674 352.2565,-190.4167"/>
<polygon fill="#000000" stroke="#000000" points="355.7242,-189.9417 350.9329,-180.4921 348.7856,-190.8671 355.7242,-189.9417"/>
<g id="a_edge6&#45;headlabel"><a xlink:href="dir_000774_000770.html" target="_top" xlink:title="1">
<text text-anchor="middle" x="359.0136" y="-190.6295" font-family="Helvetica,sans-Serif" font-size="10.00" fill="#000000">1</text>
</a>
</g>
</g>
<!-- dir_808d5540d0c117816a4e0e1b180c8334&#45;&gt;dir_b1a191f241d56beebc4ffdb42af892eb -->
<g id="edge7" class="edge">
<title>dir_808d5540d0c117816a4e0e1b180c8334&#45;&gt;dir_b1a191f241d56beebc4ffdb42af892eb</title>
<path fill="none" stroke="#000000" d="M409.1274,-366.7859C426.3427,-340.2571 463.0975,-290.8372 488.098,-260.343"/>
<polygon fill="#000000" stroke="#000000" points="491.1034,-262.2034 494.8117,-252.2787 485.7237,-257.7246 491.1034,-262.2034"/>
<g id="a_edge7&#45;headlabel"><a xlink:href="dir_000774_000777.html" target="_top" xlink:title="21">
<text text-anchor="middle" x="490.9856" y="-264.2825" font-family="Helvetica,sans-Serif" font-size="10.00" fill="#000000">21</text>
</a>
</g>
</g>
<!-- dir_ee87ad93049d1677c6ffb88a968be9d4&#45;&gt;dir_ba48ca66118492a4424f86e9da0f6902 -->
<g id="edge18" class="edge">
<title>dir_ee87ad93049d1677c6ffb88a968be9d4&#45;&gt;dir_ba48ca66118492a4424f86e9da0f6902</title>
<path fill="none" stroke="#000000" d="M362.6892,-71.8314C367.8792,-63.7079 374.1046,-53.9637 379.8239,-45.0118"/>
<polygon fill="#000000" stroke="#000000" points="382.8829,-46.7246 385.3174,-36.4133 376.984,-42.9559 382.8829,-46.7246"/>
<g id="a_edge18&#45;headlabel"><a xlink:href="dir_000789_000759.html" target="_top" xlink:title="21">
<text text-anchor="middle" x="383.3403" y="-48.7824" font-family="Helvetica,sans-Serif" font-size="10.00" fill="#000000">21</text>
</a>
</g>
</g>
<!-- dir_aecab50d18d7ac5723d6b92dc6c0a5e0&#45;&gt;dir_6d1e342cb6193ce32747aa0856bf9c1e -->
<g id="edge19" class="edge">
<title>dir_aecab50d18d7ac5723d6b92dc6c0a5e0&#45;&gt;dir_6d1e342cb6193ce32747aa0856bf9c1e</title>
<path fill="none" stroke="#000000" d="M555.1433,-438.8233C599.823,-416.3428 664.0814,-373.4955 664.0814,-313 664.0814,-313 664.0814,-313 664.0814,-234 664.0814,-173.8284 600.6409,-131.84 554.6728,-109.3137"/>
<polygon fill="#000000" stroke="#000000" points="555.9822,-106.061 545.4473,-104.9355 552.9809,-112.385 555.9822,-106.061"/>
<g id="a_edge19&#45;headlabel"><a xlink:href="dir_000768_000771.html" target="_top" xlink:title="1">
<text text-anchor="middle" x="560.447" y="-102.537" font-family="Helvetica,sans-Serif" font-size="10.00" fill="#000000">1</text>
</a>
</g>
</g>
<!-- dir_aecab50d18d7ac5723d6b92dc6c0a5e0&#45;&gt;dir_808d5540d0c117816a4e0e1b180c8334 -->
<g id="edge21" class="edge">
<title>dir_aecab50d18d7ac5723d6b92dc6c0a5e0&#45;&gt;dir_808d5540d0c117816a4e0e1b180c8334</title>
<path fill="none" stroke="#000000" d="M484.5668,-438.8314C469.7824,-429.4112 451.5777,-417.8118 435.8578,-407.7955"/>
<polygon fill="#000000" stroke="#000000" points="437.7319,-404.8396 427.4176,-402.4177 433.9703,-410.7431 437.7319,-404.8396"/>
<g id="a_edge21&#45;headlabel"><a xlink:href="dir_000768_000774.html" target="_top" xlink:title="8">
<text text-anchor="middle" x="442.2891" y="-401.8766" font-family="Helvetica,sans-Serif" font-size="10.00" fill="#000000">8</text>
</a>
</g>
</g>
<!-- dir_aecab50d18d7ac5723d6b92dc6c0a5e0&#45;&gt;dir_ba48ca66118492a4424f86e9da0f6902 -->
<g id="edge20" class="edge">
<title>dir_aecab50d18d7ac5723d6b92dc6c0a5e0&#45;&gt;dir_ba48ca66118492a4424f86e9da0f6902</title>
<path fill="none" stroke="#000000" d="M565.2268,-442.0432C621.1697,-422.4203 702.0814,-382.0957 702.0814,-313 702.0814,-313 702.0814,-313 702.0814,-162 702.0814,-98.1406 660.9633,-86.9069 605.0814,-56 576.9823,-40.459 490.1484,-28.4124 437.9799,-22.342"/>
<polygon fill="#000000" stroke="#000000" points="438.0537,-18.8278 427.7218,-21.1733 437.2613,-25.7829 438.0537,-18.8278"/>
<g id="a_edge20&#45;headlabel"><a xlink:href="dir_000768_000759.html" target="_top" xlink:title="5">
<text text-anchor="middle" x="441.9466" y="-13.9136" font-family="Helvetica,sans-Serif" font-size="10.00" fill="#000000">5</text>
</a>
</g>
</g>
<!-- dir_aecab50d18d7ac5723d6b92dc6c0a5e0&#45;&gt;dir_442920581a03c66cf8c08ae559108050 -->
<g id="edge22" class="edge">
<title>dir_aecab50d18d7ac5723d6b92dc6c0a5e0&#45;&gt;dir_442920581a03c66cf8c08ae559108050</title>
<path fill="none" stroke="#000000" d="M460.8064,-449.9873C428.8795,-443.1084 389.4496,-429.5647 364.0814,-403 348.1793,-386.3478 341.2991,-360.8108 338.3274,-341.1871"/>
<polygon fill="#000000" stroke="#000000" points="341.7998,-340.748 337.0742,-331.2655 334.855,-341.6253 341.7998,-340.748"/>
<g id="a_edge22&#45;headlabel"><a xlink:href="dir_000768_000761.html" target="_top" xlink:title="13">
<text text-anchor="middle" x="345.0671" y="-341.4585" font-family="Helvetica,sans-Serif" font-size="10.00" fill="#000000">13</text>
</a>
</g>
</g>
<!-- dir_aecab50d18d7ac5723d6b92dc6c0a5e0&#45;&gt;dir_b1a191f241d56beebc4ffdb42af892eb -->
<g id="edge23" class="edge">
<title>dir_aecab50d18d7ac5723d6b92dc6c0a5e0&#45;&gt;dir_b1a191f241d56beebc4ffdb42af892eb</title>
<path fill="none" stroke="#000000" d="M513.0814,-438.751C513.0814,-399.9417 513.0814,-308.9715 513.0814,-262.4661"/>
<polygon fill="#000000" stroke="#000000" points="516.5815,-262.1884 513.0814,-252.1884 509.5815,-262.1885 516.5815,-262.1884"/>
<g id="a_edge23&#45;headlabel"><a xlink:href="dir_000768_000777.html" target="_top" xlink:title="1">
<text text-anchor="middle" x="519.4207" y="-263.283" font-family="Helvetica,sans-Serif" font-size="10.00" fill="#000000">1</text>
</a>
</g>
</g>
<!-- dir_442920581a03c66cf8c08ae559108050&#45;&gt;dir_289ec97c7adb65139f0eb8343d5d21ae -->
<g id="edge27" class="edge">
<title>dir_442920581a03c66cf8c08ae559108050&#45;&gt;dir_289ec97c7adb65139f0eb8343d5d21ae</title>
<path fill="none" stroke="#000000" d="M309.0498,-301.6737C300.4392,-297.5658 291.0787,-292.5536 283.0814,-287 271.6294,-279.0474 260.2262,-268.7926 250.7277,-259.4254"/>
<polygon fill="#000000" stroke="#000000" points="253.072,-256.8182 243.554,-252.1644 248.0924,-261.738 253.072,-256.8182"/>
<g id="a_edge27&#45;headlabel"><a xlink:href="dir_000761_000778.html" target="_top" xlink:title="5">
<text text-anchor="middle" x="257.6181" y="-254.8798" font-family="Helvetica,sans-Serif" font-size="10.00" fill="#000000">5</text>
</a>
</g>
</g>
<!-- dir_442920581a03c66cf8c08ae559108050&#45;&gt;dir_f75a703c2555322f99f9e21899df4536 -->
<g id="edge33" class="edge">
<title>dir_442920581a03c66cf8c08ae559108050&#45;&gt;dir_f75a703c2555322f99f9e21899df4536</title>
<path fill="none" stroke="#000000" d="M308.7883,-312.449C242.7357,-310.8338 78.4791,-305.0273 62.0814,-287 40.8483,-263.6567 47.8762,-244.1774 62.0814,-216 66.4023,-207.4292 83.1301,-194.7938 99.4838,-183.8999"/>
<polygon fill="#000000" stroke="#000000" points="101.4672,-186.785 107.9339,-178.3926 97.6451,-180.9205 101.4672,-186.785"/>
<g id="a_edge33&#45;headlabel"><a xlink:href="dir_000761_000779.html" target="_top" xlink:title="1">
<text text-anchor="middle" x="100.006" y="-188.6263" font-family="Helvetica,sans-Serif" font-size="10.00" fill="#000000">1</text>
</a>
</g>
</g>
<!-- dir_442920581a03c66cf8c08ae559108050&#45;&gt;dir_dc84902369092e5202e1cdf6db24d51d -->
<g id="edge28" class="edge">
<title>dir_442920581a03c66cf8c08ae559108050&#45;&gt;dir_dc84902369092e5202e1cdf6db24d51d</title>
<path fill="none" stroke="#000000" d="M308.8404,-312.2436C246.2042,-310.2237 96.1445,-303.6771 81.0814,-287 59.9302,-263.5825 63.3905,-242.1301 81.0814,-216 103.6302,-182.6948 128.2657,-195.5816 170.7321,-179.6672"/>
<polygon fill="#000000" stroke="#000000" points="172.1657,-182.8619 180.0702,-175.8071 169.4916,-176.3928 172.1657,-182.8619"/>
<g id="a_edge28&#45;headlabel"><a xlink:href="dir_000761_000784.html" target="_top" xlink:title="1">
<text text-anchor="middle" x="169.9284" y="-184.3589" font-family="Helvetica,sans-Serif" font-size="10.00" fill="#000000">1</text>
</a>
</g>
</g>
<!-- dir_442920581a03c66cf8c08ae559108050&#45;&gt;dir_e9bb66071ff20a94d206d862bf4c4a75 -->
<g id="edge29" class="edge">
<title>dir_442920581a03c66cf8c08ae559108050&#45;&gt;dir_e9bb66071ff20a94d206d862bf4c4a75</title>
<path fill="none" stroke="#000000" d="M309.0406,-312.6251C240.0692,-311.3896 61.7744,-306.3384 44.0814,-287 -1.8838,-236.7602 44.7478,-185.045 99.0814,-144 129.0991,-121.3239 169.8732,-106.8748 199.12,-98.6871"/>
<polygon fill="#000000" stroke="#000000" points="200.1972,-102.022 208.9478,-96.0489 198.3822,-95.2613 200.1972,-102.022"/>
<g id="a_edge29&#45;headlabel"><a xlink:href="dir_000761_000785.html" target="_top" xlink:title="3">
<text text-anchor="middle" x="197.4616" y="-103.196" font-family="Helvetica,sans-Serif" font-size="10.00" fill="#000000">3</text>
</a>
</g>
</g>
<!-- dir_442920581a03c66cf8c08ae559108050&#45;&gt;dir_6d1e342cb6193ce32747aa0856bf9c1e -->
<g id="edge24" class="edge">
<title>dir_442920581a03c66cf8c08ae559108050&#45;&gt;dir_6d1e342cb6193ce32747aa0856bf9c1e</title>
<path fill="none" stroke="#000000" d="M358.264,-294.8214C360.9895,-292.2884 363.6632,-289.6451 366.0814,-287 417.3059,-230.9709 466.7231,-156.2974 491.5327,-116.9273"/>
<polygon fill="#000000" stroke="#000000" points="494.6766,-118.501 497.0133,-108.1671 488.7423,-114.7883 494.6766,-118.501"/>
<g id="a_edge24&#45;headlabel"><a xlink:href="dir_000761_000771.html" target="_top" xlink:title="5">
<text text-anchor="middle" x="495.1772" y="-120.5542" font-family="Helvetica,sans-Serif" font-size="10.00" fill="#000000">5</text>
</a>
</g>
</g>
<!-- dir_442920581a03c66cf8c08ae559108050&#45;&gt;dir_808d5540d0c117816a4e0e1b180c8334 -->
<g id="edge25" class="edge">
<title>dir_442920581a03c66cf8c08ae559108050&#45;&gt;dir_808d5540d0c117816a4e0e1b180c8334</title>
<path fill="none" stroke="#000000" d="M358.4248,-331.4133C366.6214,-339.7389 375.6828,-349.7282 383.3273,-358.8144"/>
<polygon fill="#000000" stroke="#000000" points="380.8437,-361.3063 389.8839,-366.8314 386.2623,-356.8747 380.8437,-361.3063"/>
<g id="a_edge25&#45;headlabel"><a xlink:href="dir_000761_000774.html" target="_top" xlink:title="10">
<text text-anchor="middle" x="376.3703" y="-357.8213" font-family="Helvetica,sans-Serif" font-size="10.00" fill="#000000">10</text>
</a>
</g>
</g>
<!-- dir_442920581a03c66cf8c08ae559108050&#45;&gt;dir_ba48ca66118492a4424f86e9da0f6902 -->
<g id="edge26" class="edge">
<title>dir_442920581a03c66cf8c08ae559108050&#45;&gt;dir_ba48ca66118492a4424f86e9da0f6902</title>
<path fill="none" stroke="#000000" d="M309.0502,-312.8144C236.279,-312.0354 40.4105,-307.9902 21.0814,-287 -.2943,-263.7872 14.3528,-246.8298 21.0814,-216 23.987,-202.6868 94.4204,-57.1998 96.0814,-56 116.7773,-41.0513 278.7712,-26.9495 356.1692,-20.986"/>
<polygon fill="#000000" stroke="#000000" points="356.8,-24.4482 366.5055,-20.1992 356.2687,-17.4684 356.8,-24.4482"/>
<g id="a_edge26&#45;headlabel"><a xlink:href="dir_000761_000759.html" target="_top" xlink:title="33">
<text text-anchor="middle" x="353.4312" y="-25.052" font-family="Helvetica,sans-Serif" font-size="10.00" fill="#000000">33</text>
</a>
</g>
</g>
<!-- dir_442920581a03c66cf8c08ae559108050&#45;&gt;dir_ee87ad93049d1677c6ffb88a968be9d4 -->
<g id="edge30" class="edge">
<title>dir_442920581a03c66cf8c08ae559108050&#45;&gt;dir_ee87ad93049d1677c6ffb88a968be9d4</title>
<path fill="none" stroke="#000000" d="M330.0188,-294.8797C320.4656,-263.547 304.4292,-197.4667 319.0814,-144 321.6619,-134.5837 326.3556,-125.1443 331.3674,-116.8513"/>
<polygon fill="#000000" stroke="#000000" points="334.3666,-118.6585 336.8455,-108.3577 328.484,-114.8644 334.3666,-118.6585"/>
<g id="a_edge30&#45;headlabel"><a xlink:href="dir_000761_000789.html" target="_top" xlink:title="2">
<text text-anchor="middle" x="334.8043" y="-120.7182" font-family="Helvetica,sans-Serif" font-size="10.00" fill="#000000">2</text>
</a>
</g>
</g>
<!-- dir_442920581a03c66cf8c08ae559108050&#45;&gt;dir_b1dd2c3d7fcd0d0d24ad7c8634d4eb04 -->
<g id="edge31" class="edge">
<title>dir_442920581a03c66cf8c08ae559108050&#45;&gt;dir_b1dd2c3d7fcd0d0d24ad7c8634d4eb04</title>
<path fill="none" stroke="#000000" d="M333.7888,-294.7859C334.4746,-268.824 340.226,-220.9387 346.1113,-190.3233"/>
<polygon fill="#000000" stroke="#000000" points="349.5908,-190.7806 348.1905,-180.2787 342.7361,-189.3616 349.5908,-190.7806"/>
<g id="a_edge31&#45;headlabel"><a xlink:href="dir_000761_000770.html" target="_top" xlink:title="6">
<text text-anchor="middle" x="351.6426" y="-192.3761" font-family="Helvetica,sans-Serif" font-size="10.00" fill="#000000">6</text>
</a>
</g>
</g>
<!-- dir_442920581a03c66cf8c08ae559108050&#45;&gt;dir_b1a191f241d56beebc4ffdb42af892eb -->
<g id="edge32" class="edge">
<title>dir_442920581a03c66cf8c08ae559108050&#45;&gt;dir_b1a191f241d56beebc4ffdb42af892eb</title>
<path fill="none" stroke="#000000" d="M363.0929,-308.2234C392.4219,-303.3817 436.6654,-295.4218 452.0814,-287 464.4315,-280.2531 475.705,-269.622 485.272,-259.6466"/>
<polygon fill="#000000" stroke="#000000" points="487.9508,-261.9069 492.245,-252.2213 482.848,-257.115 487.9508,-261.9069"/>
<g id="a_edge32&#45;headlabel"><a xlink:href="dir_000761_000777.html" target="_top" xlink:title="34">
<text text-anchor="middle" x="487.5598" y="-263.9708" font-family="Helvetica,sans-Serif" font-size="10.00" fill="#000000">34</text>
</a>
</g>
</g>
<!-- dir_b1dd2c3d7fcd0d0d24ad7c8634d4eb04&#45;&gt;dir_289ec97c7adb65139f0eb8343d5d21ae -->
<g id="edge37" class="edge">
<title>dir_b1dd2c3d7fcd0d0d24ad7c8634d4eb04&#45;&gt;dir_289ec97c7adb65139f0eb8343d5d21ae</title>
<path fill="none" stroke="#000000" d="M327.9848,-177.2418C310.6034,-187.0189 287.7056,-199.8989 268.1169,-210.9175"/>
<polygon fill="#000000" stroke="#000000" points="266.3811,-207.8782 259.3812,-215.8314 269.8129,-213.9792 266.3811,-207.8782"/>
<g id="a_edge37&#45;headlabel"><a xlink:href="dir_000770_000778.html" target="_top" xlink:title="6">
<text text-anchor="middle" x="268.1221" y="-201.1413" font-family="Helvetica,sans-Serif" font-size="10.00" fill="#000000">6</text>
</a>
</g>
</g>
<!-- dir_b1dd2c3d7fcd0d0d24ad7c8634d4eb04&#45;&gt;dir_f75a703c2555322f99f9e21899df4536 -->
<g id="edge43" class="edge">
<title>dir_b1dd2c3d7fcd0d0d24ad7c8634d4eb04&#45;&gt;dir_f75a703c2555322f99f9e21899df4536</title>
<path fill="none" stroke="#000000" d="M335.7694,-180.2475C327.0857,-187.2335 316.2795,-194.3881 305.0814,-198 252.2082,-215.0541 232.5052,-216.3893 180.0814,-198 172.9417,-195.4955 166.0933,-191.3291 159.9871,-186.7013"/>
<polygon fill="#000000" stroke="#000000" points="162.0959,-183.9032 152.1629,-180.2173 157.6293,-189.293 162.0959,-183.9032"/>
<g id="a_edge43&#45;headlabel"><a xlink:href="dir_000770_000779.html" target="_top" xlink:title="2">
<text text-anchor="middle" x="166.6753" y="-181.5107" font-family="Helvetica,sans-Serif" font-size="10.00" fill="#000000">2</text>
</a>
</g>
</g>
<!-- dir_b1dd2c3d7fcd0d0d24ad7c8634d4eb04&#45;&gt;dir_dc84902369092e5202e1cdf6db24d51d -->
<g id="edge38" class="edge">
<title>dir_b1dd2c3d7fcd0d0d24ad7c8634d4eb04&#45;&gt;dir_dc84902369092e5202e1cdf6db24d51d</title>
<path fill="none" stroke="#000000" d="M327.7063,-162C299.9624,-162 272.2186,-162 244.4747,-162"/>
<polygon fill="#000000" stroke="#000000" points="244.2533,-158.5001 234.2533,-162 244.2533,-165.5001 244.2533,-158.5001"/>
<g id="a_edge38&#45;headlabel"><a xlink:href="dir_000770_000784.html" target="_top" xlink:title="2">
<text text-anchor="middle" x="247.8479" y="-153.1607" font-family="Helvetica,sans-Serif" font-size="10.00" fill="#000000">2</text>
</a>
</g>
</g>
<!-- dir_b1dd2c3d7fcd0d0d24ad7c8634d4eb04&#45;&gt;dir_e9bb66071ff20a94d206d862bf4c4a75 -->
<g id="edge39" class="edge">
<title>dir_b1dd2c3d7fcd0d0d24ad7c8634d4eb04&#45;&gt;dir_e9bb66071ff20a94d206d862bf4c4a75</title>
<path fill="none" stroke="#000000" d="M328.0785,-145.6621C311.611,-135.6986 290.353,-122.8366 272.4207,-111.9868"/>
<polygon fill="#000000" stroke="#000000" points="273.7571,-108.7046 263.3894,-106.5225 270.1334,-114.6937 273.7571,-108.7046"/>
<g id="a_edge39&#45;headlabel"><a xlink:href="dir_000770_000785.html" target="_top" xlink:title="2">
<text text-anchor="middle" x="278.3024" y="-105.6362" font-family="Helvetica,sans-Serif" font-size="10.00" fill="#000000">2</text>
</a>
</g>
</g>
<!-- dir_b1dd2c3d7fcd0d0d24ad7c8634d4eb04&#45;&gt;dir_6d1e342cb6193ce32747aa0856bf9c1e -->
<g id="edge34" class="edge">
<title>dir_b1dd2c3d7fcd0d0d24ad7c8634d4eb04&#45;&gt;dir_6d1e342cb6193ce32747aa0856bf9c1e</title>
<path fill="none" stroke="#000000" d="M382.0826,-149.2936C404.0871,-138.9385 435.667,-124.0774 461.7056,-111.8239"/>
<polygon fill="#000000" stroke="#000000" points="463.4621,-114.8656 471.02,-107.4407 460.4815,-108.5318 463.4621,-114.8656"/>
<g id="a_edge34&#45;headlabel"><a xlink:href="dir_000770_000771.html" target="_top" xlink:title="6">
<text text-anchor="middle" x="461.4186" y="-116.4651" font-family="Helvetica,sans-Serif" font-size="10.00" fill="#000000">6</text>
</a>
</g>
</g>
<!-- dir_b1dd2c3d7fcd0d0d24ad7c8634d4eb04&#45;&gt;dir_808d5540d0c117816a4e0e1b180c8334 -->
<g id="edge36" class="edge">
<title>dir_b1dd2c3d7fcd0d0d24ad7c8634d4eb04&#45;&gt;dir_808d5540d0c117816a4e0e1b180c8334</title>
<path fill="none" stroke="#000000" d="M366.7868,-180.4921C369.9874,-190.9186 372.6895,-204.1846 375.0814,-216 385.1284,-265.6285 396.746,-323.4749 400.8718,-356.9999"/>
<polygon fill="#000000" stroke="#000000" points="397.3963,-357.4162 401.9366,-366.9888 404.3568,-356.6741 397.3963,-357.4162"/>
<g id="a_edge36&#45;headlabel"><a xlink:href="dir_000770_000774.html" target="_top" xlink:title="5">
<text text-anchor="middle" x="394.1921" y="-351.6427" font-family="Helvetica,sans-Serif" font-size="10.00" fill="#000000">5</text>
</a>
</g>
</g>
<!-- dir_b1dd2c3d7fcd0d0d24ad7c8634d4eb04&#45;&gt;dir_ba48ca66118492a4424f86e9da0f6902 -->
<g id="edge35" class="edge">
<title>dir_b1dd2c3d7fcd0d0d24ad7c8634d4eb04&#45;&gt;dir_ba48ca66118492a4424f86e9da0f6902</title>
<path fill="none" stroke="#000000" d="M382.1259,-148.7621C397.4898,-139.6343 415.3533,-125.914 424.0814,-108 434.2041,-87.2237 431.107,-78.0174 424.0814,-56 422.8436,-52.1209 421.0495,-48.2988 418.9655,-44.6611"/>
<polygon fill="#000000" stroke="#000000" points="421.7466,-42.5193 413.3399,-36.0712 415.8907,-46.3544 421.7466,-42.5193"/>
<g id="a_edge35&#45;headlabel"><a xlink:href="dir_000770_000759.html" target="_top" xlink:title="8">
<text text-anchor="middle" x="426.0912" y="-41.4708" font-family="Helvetica,sans-Serif" font-size="10.00" fill="#000000">8</text>
</a>
</g>
</g>
<!-- dir_b1dd2c3d7fcd0d0d24ad7c8634d4eb04&#45;&gt;dir_ee87ad93049d1677c6ffb88a968be9d4 -->
<g id="edge40" class="edge">
<title>dir_b1dd2c3d7fcd0d0d24ad7c8634d4eb04&#45;&gt;dir_ee87ad93049d1677c6ffb88a968be9d4</title>
<path fill="none" stroke="#000000" d="M354.0721,-143.8314C353.6443,-136.131 353.1356,-126.9743 352.6601,-118.4166"/>
<polygon fill="#000000" stroke="#000000" points="356.1538,-118.2037 352.1044,-108.4133 349.1646,-118.592 356.1538,-118.2037"/>
<g id="a_edge40&#45;headlabel"><a xlink:href="dir_000770_000789.html" target="_top" xlink:title="4">
<text text-anchor="middle" x="359.188" y="-119.1353" font-family="Helvetica,sans-Serif" font-size="10.00" fill="#000000">4</text>
</a>
</g>
</g>
<!-- dir_b1dd2c3d7fcd0d0d24ad7c8634d4eb04&#45;&gt;dir_442920581a03c66cf8c08ae559108050 -->
<g id="edge41" class="edge">
<title>dir_b1dd2c3d7fcd0d0d24ad7c8634d4eb04&#45;&gt;dir_442920581a03c66cf8c08ae559108050</title>
<path fill="none" stroke="#000000" d="M357.3724,-180.2787C356.6781,-206.2769 350.9224,-254.166 345.0369,-284.7528"/>
<polygon fill="#000000" stroke="#000000" points="341.5598,-284.2837 342.9578,-294.7859 348.4142,-285.7041 341.5598,-284.2837"/>
<g id="a_edge41&#45;headlabel"><a xlink:href="dir_000770_000761.html" target="_top" xlink:title="18">
<text text-anchor="middle" x="339.5089" y="-277.6877" font-family="Helvetica,sans-Serif" font-size="10.00" fill="#000000">18</text>
</a>
</g>
</g>
<!-- dir_b1dd2c3d7fcd0d0d24ad7c8634d4eb04&#45;&gt;dir_b1a191f241d56beebc4ffdb42af892eb -->
<g id="edge42" class="edge">
<title>dir_b1dd2c3d7fcd0d0d24ad7c8634d4eb04&#45;&gt;dir_b1a191f241d56beebc4ffdb42af892eb</title>
<path fill="none" stroke="#000000" d="M382.2341,-172.1536C406.4078,-182.3225 441.9741,-198.3113 469.9824,-211.4844"/>
<polygon fill="#000000" stroke="#000000" points="468.6278,-214.7155 479.1637,-215.8314 471.6233,-208.3888 468.6278,-214.7155"/>
<g id="a_edge42&#45;headlabel"><a xlink:href="dir_000770_000777.html" target="_top" xlink:title="14">
<text text-anchor="middle" x="464.164" y="-213.2435" font-family="Helvetica,sans-Serif" font-size="10.00" fill="#000000">14</text>
</a>
</g>
</g>
<!-- dir_b1a191f241d56beebc4ffdb42af892eb&#45;&gt;dir_289ec97c7adb65139f0eb8343d5d21ae -->
<g id="edge47" class="edge">
<title>dir_b1a191f241d56beebc4ffdb42af892eb&#45;&gt;dir_289ec97c7adb65139f0eb8343d5d21ae</title>
<path fill="none" stroke="#000000" d="M475.4462,-234C408.0351,-234 340.6241,-234 273.213,-234"/>
<polygon fill="#000000" stroke="#000000" points="272.8315,-230.5001 262.8314,-234 272.8314,-237.5001 272.8315,-230.5001"/>
<g id="a_edge47&#45;headlabel"><a xlink:href="dir_000777_000778.html" target="_top" xlink:title="1">
<text text-anchor="middle" x="276.426" y="-225.1607" font-family="Helvetica,sans-Serif" font-size="10.00" fill="#000000">1</text>
</a>
</g>
</g>
<!-- dir_b1a191f241d56beebc4ffdb42af892eb&#45;&gt;dir_e9bb66071ff20a94d206d862bf4c4a75 -->
<g id="edge48" class="edge">
<title>dir_b1a191f241d56beebc4ffdb42af892eb&#45;&gt;dir_e9bb66071ff20a94d206d862bf4c4a75</title>
<path fill="none" stroke="#000000" d="M485.1966,-215.9017C469.8576,-205.7082 450.6346,-192.5397 434.0814,-180 414.2139,-164.9496 412.9222,-156.0089 391.0814,-144 344.8935,-118.6041 327.4737,-126.403 278.0814,-108 276.446,-107.3906 274.7814,-106.7531 273.1049,-106.0967"/>
<polygon fill="#000000" stroke="#000000" points="274.0726,-102.7123 263.4903,-102.1961 271.441,-109.1988 274.0726,-102.7123"/>
<g id="a_edge48&#45;headlabel"><a xlink:href="dir_000777_000785.html" target="_top" xlink:title="1">
<text text-anchor="middle" x="278.4709" y="-98.9325" font-family="Helvetica,sans-Serif" font-size="10.00" fill="#000000">1</text>
</a>
</g>
</g>
<!-- dir_b1a191f241d56beebc4ffdb42af892eb&#45;&gt;dir_6d1e342cb6193ce32747aa0856bf9c1e -->
<g id="edge44" class="edge">
<title>dir_b1a191f241d56beebc4ffdb42af892eb&#45;&gt;dir_6d1e342cb6193ce32747aa0856bf9c1e</title>
<path fill="none" stroke="#000000" d="M512.4482,-215.7623C511.5953,-191.201 510.0692,-147.2474 509.0659,-118.3541"/>
<polygon fill="#000000" stroke="#000000" points="512.5545,-117.9621 508.7095,-108.0896 505.5587,-118.2051 512.5545,-117.9621"/>
<g id="a_edge44&#45;headlabel"><a xlink:href="dir_000777_000771.html" target="_top" xlink:title="2">
<text text-anchor="middle" x="515.5167" y="-118.9561" font-family="Helvetica,sans-Serif" font-size="10.00" fill="#000000">2</text>
</a>
</g>
</g>
<!-- dir_b1a191f241d56beebc4ffdb42af892eb&#45;&gt;dir_808d5540d0c117816a4e0e1b180c8334 -->
<g id="edge45" class="edge">
<title>dir_b1a191f241d56beebc4ffdb42af892eb&#45;&gt;dir_808d5540d0c117816a4e0e1b180c8334</title>
<path fill="none" stroke="#000000" d="M503.9935,-252.2787C486.7465,-278.8446 449.9855,-328.2677 425.004,-358.7311"/>
<polygon fill="#000000" stroke="#000000" points="422.0061,-356.8617 418.2964,-366.7859 427.3852,-361.3412 422.0061,-356.8617"/>
<g id="a_edge45&#45;headlabel"><a xlink:href="dir_000777_000774.html" target="_top" xlink:title="1">
<text text-anchor="middle" x="422.1246" y="-349.7826" font-family="Helvetica,sans-Serif" font-size="10.00" fill="#000000">1</text>
</a>
</g>
</g>
<!-- dir_b1a191f241d56beebc4ffdb42af892eb&#45;&gt;dir_ba48ca66118492a4424f86e9da0f6902 -->
<g id="edge46" class="edge">
<title>dir_b1a191f241d56beebc4ffdb42af892eb&#45;&gt;dir_ba48ca66118492a4424f86e9da0f6902</title>
<path fill="none" stroke="#000000" d="M526.0046,-215.9748C549.1848,-181.2426 592.026,-104.2243 554.0814,-56 539.8533,-37.9173 479.3588,-27.4033 437.7566,-22.1846"/>
<polygon fill="#000000" stroke="#000000" points="437.9719,-18.6855 427.6264,-20.9706 437.1389,-25.6357 437.9719,-18.6855"/>
<g id="a_edge46&#45;headlabel"><a xlink:href="dir_000777_000759.html" target="_top" xlink:title="19">
<text text-anchor="middle" x="441.8788" y="-13.794" font-family="Helvetica,sans-Serif" font-size="10.00" fill="#000000">19</text>
</a>
</g>
</g>
<!-- dir_b1a191f241d56beebc4ffdb42af892eb&#45;&gt;dir_442920581a03c66cf8c08ae559108050 -->
<g id="edge49" class="edge">
<title>dir_b1a191f241d56beebc4ffdb42af892eb&#45;&gt;dir_442920581a03c66cf8c08ae559108050</title>
<path fill="none" stroke="#000000" d="M507.4862,-252.2213C499.3823,-263.9499 485.5796,-278.5333 470.0814,-287 454.1274,-295.7157 407.2988,-303.9367 373.3436,-308.7188"/>
<polygon fill="#000000" stroke="#000000" points="372.7046,-305.2734 363.2675,-310.0892 373.648,-312.2095 372.7046,-305.2734"/>
<g id="a_edge49&#45;headlabel"><a xlink:href="dir_000777_000761.html" target="_top" xlink:title="30">
<text text-anchor="middle" x="375.8838" y="-299.4756" font-family="Helvetica,sans-Serif" font-size="10.00" fill="#000000">30</text>
</a>
</g>
</g>
<!-- dir_b1a191f241d56beebc4ffdb42af892eb&#45;&gt;dir_b1dd2c3d7fcd0d0d24ad7c8634d4eb04 -->
<g id="edge50" class="edge">
<title>dir_b1a191f241d56beebc4ffdb42af892eb&#45;&gt;dir_b1dd2c3d7fcd0d0d24ad7c8634d4eb04</title>
<path fill="none" stroke="#000000" d="M475.5591,-219.4297C450.0849,-208.4624 416.6915,-193.3231 391.4644,-181.3419"/>
<polygon fill="#000000" stroke="#000000" points="392.7602,-178.0818 382.2292,-176.9198 389.737,-184.3953 392.7602,-178.0818"/>
<g id="a_edge50&#45;headlabel"><a xlink:href="dir_000777_000770.html" target="_top" xlink:title="1">
<text text-anchor="middle" x="397.2284" y="-174.5733" font-family="Helvetica,sans-Serif" font-size="10.00" fill="#000000">1</text>
</a>
</g>
</g>
</g>
</svg>
