<?xml version="1.0" encoding="UTF-8" standalone="no"?>
<!DOCTYPE svg PUBLIC "-//W3C//DTD SVG 1.1//EN"
 "http://www.w3.org/Graphics/SVG/1.1/DTD/svg11.dtd">
<!-- Generated by graphviz version 2.40.1 (20161225.0304)
 -->
<!-- Title: /home/travis/build/AliceO2Group/AliceO2/Detectors/ITSMFT/MFT/tracking/include/MFTTracking/ROframe.h Pages: 1 -->
<svg width="3760pt" height="676pt"
 viewBox="0.00 0.00 3759.53 676.00" xmlns="http://www.w3.org/2000/svg" xmlns:xlink="http://www.w3.org/1999/xlink">
<g id="graph0" class="graph" transform="scale(1 1) rotate(0) translate(4 672)">
<title>/home/travis/build/AliceO2Group/AliceO2/Detectors/ITSMFT/MFT/tracking/include/MFTTracking/ROframe.h</title>
<!-- Node0 -->
<g id="node1" class="node">
<title>Node0</title>
<polygon fill="#bfbfbf" stroke="#000000" points="2618.0286,-604.5 2618.0286,-667.5 2779.0286,-667.5 2779.0286,-604.5 2618.0286,-604.5"/>
<text text-anchor="start" x="2626.0286" y="-655.5" font-family="Helvetica,sans-Serif" font-size="10.00" fill="#000000">/home/travis/build</text>
<text text-anchor="start" x="2626.0286" y="-644.5" font-family="Helvetica,sans-Serif" font-size="10.00" fill="#000000">/AliceO2Group/AliceO2</text>
<text text-anchor="start" x="2626.0286" y="-633.5" font-family="Helvetica,sans-Serif" font-size="10.00" fill="#000000">/Detectors/ITSMFT/MFT</text>
<text text-anchor="start" x="2626.0286" y="-622.5" font-family="Helvetica,sans-Serif" font-size="10.00" fill="#000000">/tracking/include/MFTTracking</text>
<text text-anchor="middle" x="2698.5286" y="-611.5" font-family="Helvetica,sans-Serif" font-size="10.00" fill="#000000">/ROframe.h</text>
</g>
<!-- Node1 -->
<g id="node2" class="node">
<title>Node1</title>
<polygon fill="none" stroke="#bfbfbf" points="3046.5286,-112.5 3046.5286,-131.5 3088.5286,-131.5 3088.5286,-112.5 3046.5286,-112.5"/>
<text text-anchor="middle" x="3067.5286" y="-119.5" font-family="Helvetica,sans-Serif" font-size="10.00" fill="#000000">array</text>
</g>
<!-- Node0&#45;&gt;Node1 -->
<g id="edge1" class="edge">
<title>Node0&#45;&gt;Node1</title>
<path fill="none" stroke="#191970" d="M2617.6615,-625.7354C2500.2709,-608.5394 2296.5286,-569.0378 2296.5286,-502 2296.5286,-502 2296.5286,-502 2296.5286,-373.5 2296.5286,-330.1576 2319.1953,-322.9081 2348.5286,-291 2379.2395,-257.5934 2469.1318,-184.1761 2511.5286,-168 2608.6535,-130.9429 2933.8067,-123.6888 3036.3038,-122.3122"/>
<polygon fill="#191970" stroke="#191970" points="3036.3737,-125.8117 3046.3292,-122.1871 3036.2862,-118.8123 3036.3737,-125.8117"/>
</g>
<!-- Node2 -->
<g id="node3" class="node">
<title>Node2</title>
<polygon fill="none" stroke="#bfbfbf" points="2975.0286,-230 2975.0286,-249 3022.0286,-249 3022.0286,-230 2975.0286,-230"/>
<text text-anchor="middle" x="2998.5286" y="-237" font-family="Helvetica,sans-Serif" font-size="10.00" fill="#000000">vector</text>
</g>
<!-- Node0&#45;&gt;Node2 -->
<g id="edge2" class="edge">
<title>Node0&#45;&gt;Node2</title>
<path fill="none" stroke="#191970" d="M2779.129,-630.3198C2881.9018,-621.7625 3052.534,-602.7435 3104.5286,-568 3191.7924,-509.6892 3233.816,-460.7714 3212.5286,-358 3205.9474,-326.2269 3207.9889,-312.3198 3183.5286,-291 3160.981,-271.3473 3079.158,-253.9439 3032.2282,-245.2913"/>
<polygon fill="#191970" stroke="#191970" points="3032.683,-241.8168 3022.2197,-243.4811 3031.4371,-248.7051 3032.683,-241.8168"/>
</g>
<!-- Node3 -->
<g id="node4" class="node">
<title>Node3</title>
<polygon fill="none" stroke="#bfbfbf" points="3079.0286,-297 3079.0286,-316 3124.0286,-316 3124.0286,-297 3079.0286,-297"/>
<text text-anchor="middle" x="3101.5286" y="-304" font-family="Helvetica,sans-Serif" font-size="10.00" fill="#000000">utility</text>
</g>
<!-- Node0&#45;&gt;Node3 -->
<g id="edge3" class="edge">
<title>Node0&#45;&gt;Node3</title>
<path fill="none" stroke="#191970" d="M2779.0513,-623.3989C2887.6256,-604.0933 3067.5286,-562.9142 3067.5286,-502 3067.5286,-502 3067.5286,-502 3067.5286,-440.5 3067.5286,-398.4981 3083.4168,-351.3024 3093.4711,-325.6413"/>
<polygon fill="#191970" stroke="#191970" points="3096.8498,-326.6227 3097.3596,-316.0401 3090.3617,-323.995 3096.8498,-326.6227"/>
</g>
<!-- Node4 -->
<g id="node5" class="node">
<title>Node4</title>
<polygon fill="none" stroke="#bfbfbf" points="1662.5286,-168.5 1662.5286,-187.5 1714.5286,-187.5 1714.5286,-168.5 1662.5286,-168.5"/>
<text text-anchor="middle" x="1688.5286" y="-175.5" font-family="Helvetica,sans-Serif" font-size="10.00" fill="#000000">cassert</text>
</g>
<!-- Node0&#45;&gt;Node4 -->
<g id="edge4" class="edge">
<title>Node0&#45;&gt;Node4</title>
<path fill="none" stroke="#191970" d="M2617.8427,-634.1505C2169.2613,-623.6102 2.5286,-569.2196 2.5286,-502 2.5286,-502 2.5286,-502 2.5286,-306.5 2.5286,-268.8735 -7.5859,-247.8348 21.5286,-224 54.1754,-197.2735 1410.2421,-181.0722 1651.8879,-178.3947"/>
<polygon fill="#191970" stroke="#191970" points="1652.2703,-181.8908 1662.2311,-178.2809 1652.1932,-174.8912 1652.2703,-181.8908"/>
</g>
<!-- Node5 -->
<g id="node6" class="node">
<title>Node5</title>
<polygon fill="none" stroke="#bfbfbf" points="1800.5286,-230 1800.5286,-249 1848.5286,-249 1848.5286,-230 1800.5286,-230"/>
<text text-anchor="middle" x="1824.5286" y="-237" font-family="Helvetica,sans-Serif" font-size="10.00" fill="#000000">gsl/gsl</text>
</g>
<!-- Node0&#45;&gt;Node5 -->
<g id="edge5" class="edge">
<title>Node0&#45;&gt;Node5</title>
<path fill="none" stroke="#191970" d="M2617.9276,-632.3493C2511.6635,-625.9659 2332.3242,-609.2681 2282.5286,-568 2258.4964,-548.0833 2258.5286,-533.2125 2258.5286,-502 2258.5286,-502 2258.5286,-502 2258.5286,-440.5 2258.5286,-402.7713 2265.8604,-384.0083 2238.5286,-358 2176.5826,-299.0535 2132.1211,-344.1469 2049.5286,-322 1962.2328,-298.5919 1941.2097,-289.1463 1857.5286,-255 1856.1368,-254.432 1854.7191,-253.8361 1853.2925,-253.2221"/>
<polygon fill="#191970" stroke="#191970" points="1854.4806,-249.9191 1843.9242,-249.0173 1851.6141,-256.3053 1854.4806,-249.9191"/>
</g>
<!-- Node6 -->
<g id="node7" class="node">
<title>Node6</title>
<polygon fill="none" stroke="#bfbfbf" points="3238.5286,-548.5 3238.5286,-567.5 3276.5286,-567.5 3276.5286,-548.5 3238.5286,-548.5"/>
<text text-anchor="middle" x="3257.5286" y="-555.5" font-family="Helvetica,sans-Serif" font-size="10.00" fill="#000000">map</text>
</g>
<!-- Node0&#45;&gt;Node6 -->
<g id="edge6" class="edge">
<title>Node0&#45;&gt;Node6</title>
<path fill="none" stroke="#191970" d="M2779.4345,-629.7317C2883.32,-620.7284 3068.7775,-601.4251 3224.5286,-568 3225.8127,-567.7244 3227.119,-567.4227 3228.4343,-567.1012"/>
<polygon fill="#191970" stroke="#191970" points="3229.7493,-570.3703 3238.4741,-564.3596 3227.9052,-563.6176 3229.7493,-570.3703"/>
</g>
<!-- Node7 -->
<g id="node8" class="node">
<title>Node7</title>
<g id="a_node8"><a xlink:href="../../d5/df9/Detectors_2ITSMFT_2MFT_2tracking_2include_2MFTTracking_2Cluster_8h.html" target="_top" xlink:title="MFTTracking/Cluster.h">
<polygon fill="none" stroke="#000000" points="2429.5286,-492.5 2429.5286,-511.5 2551.5286,-511.5 2551.5286,-492.5 2429.5286,-492.5"/>
<text text-anchor="middle" x="2490.5286" y="-499.5" font-family="Helvetica,sans-Serif" font-size="10.00" fill="#000000">MFTTracking/Cluster.h</text>
</a>
</g>
</g>
<!-- Node0&#45;&gt;Node7 -->
<g id="edge7" class="edge">
<title>Node0&#45;&gt;Node7</title>
<path fill="none" stroke="#191970" d="M2649.4989,-604.4136C2606.6833,-576.8304 2546.4242,-538.0096 2513.7679,-516.9715"/>
<polygon fill="#191970" stroke="#191970" points="2515.6287,-514.0068 2505.3266,-511.5333 2511.8376,-519.8914 2515.6287,-514.0068"/>
</g>
<!-- Node55 -->
<g id="node56" class="node">
<title>Node55</title>
<g id="a_node56"><a xlink:href="../../df/db8/Detectors_2ITSMFT_2MFT_2tracking_2include_2MFTTracking_2Constants_8h.html" target="_top" xlink:title="MFTTracking/Constants.h">
<polygon fill="none" stroke="#000000" points="2847.0286,-297 2847.0286,-316 2984.0286,-316 2984.0286,-297 2847.0286,-297"/>
<text text-anchor="middle" x="2915.5286" y="-304" font-family="Helvetica,sans-Serif" font-size="10.00" fill="#000000">MFTTracking/Constants.h</text>
</a>
</g>
</g>
<!-- Node0&#45;&gt;Node55 -->
<g id="edge85" class="edge">
<title>Node0&#45;&gt;Node55</title>
<path fill="none" stroke="#191970" d="M2755.6487,-604.4017C2804.2164,-573.7687 2870.1482,-522.2517 2896.5286,-456 2901.6255,-443.1997 2901.2189,-437.9549 2896.5286,-425 2889.4385,-405.4167 2873.6188,-408.5833 2866.5286,-389 2861.8383,-376.0451 2861.4148,-370.7936 2866.5286,-358 2872.0949,-344.0746 2883.4171,-331.7656 2893.7769,-322.676"/>
<polygon fill="#191970" stroke="#191970" points="2896.2577,-325.167 2901.7505,-316.1072 2891.8068,-319.7643 2896.2577,-325.167"/>
</g>
<!-- Node56 -->
<g id="node57" class="node">
<title>Node56</title>
<g id="a_node57"><a xlink:href="../../d1/d96/Detectors_2ITSMFT_2MFT_2tracking_2include_2MFTTracking_2Cell_8h.html" target="_top" xlink:title="MFTTracking/Cell.h">
<polygon fill="none" stroke="#000000" points="3096.0286,-364 3096.0286,-383 3203.0286,-383 3203.0286,-364 3096.0286,-364"/>
<text text-anchor="middle" x="3149.5286" y="-371" font-family="Helvetica,sans-Serif" font-size="10.00" fill="#000000">MFTTracking/Cell.h</text>
</a>
</g>
</g>
<!-- Node0&#45;&gt;Node56 -->
<g id="edge86" class="edge">
<title>Node0&#45;&gt;Node56</title>
<path fill="none" stroke="#191970" d="M2779.1737,-631.1301C2877.7731,-623.6038 3037.0417,-605.8595 3081.5286,-568 3134.8367,-522.6334 3146.3803,-432.9778 3148.8607,-393.2484"/>
<polygon fill="#191970" stroke="#191970" points="3152.3675,-393.1927 3149.3617,-383.0332 3145.3759,-392.8497 3152.3675,-393.1927"/>
</g>
<!-- Node57 -->
<g id="node58" class="node">
<title>Node57</title>
<g id="a_node58"><a xlink:href="../../d9/da4/TrackCA_8h.html" target="_top" xlink:title="Standalone classes for the track found by the Linear&#45;Track&#45;Finder (LTF) and by the Cellular&#45;Automaton...">
<polygon fill="none" stroke="#000000" points="2634.5286,-548.5 2634.5286,-567.5 2762.5286,-567.5 2762.5286,-548.5 2634.5286,-548.5"/>
<text text-anchor="middle" x="2698.5286" y="-555.5" font-family="Helvetica,sans-Serif" font-size="10.00" fill="#000000">MFTTracking/TrackCA.h</text>
</a>
</g>
</g>
<!-- Node0&#45;&gt;Node57 -->
<g id="edge91" class="edge">
<title>Node0&#45;&gt;Node57</title>
<path fill="none" stroke="#191970" d="M2698.5286,-604.2744C2698.5286,-595.3302 2698.5286,-585.8568 2698.5286,-577.8269"/>
<polygon fill="#191970" stroke="#191970" points="2702.0287,-577.6425 2698.5286,-567.6426 2695.0287,-577.6426 2702.0287,-577.6425"/>
</g>
<!-- Node62 -->
<g id="node63" class="node">
<title>Node62</title>
<g id="a_node63"><a xlink:href="../../d7/dcd/MCCompLabel_8h.html" target="_top" xlink:title="SimulationDataFormat\l/MCCompLabel.h">
<polygon fill="none" stroke="#000000" points="2514.0286,-358.5 2514.0286,-388.5 2641.0286,-388.5 2641.0286,-358.5 2514.0286,-358.5"/>
<text text-anchor="start" x="2522.0286" y="-376.5" font-family="Helvetica,sans-Serif" font-size="10.00" fill="#000000">SimulationDataFormat</text>
<text text-anchor="middle" x="2577.5286" y="-365.5" font-family="Helvetica,sans-Serif" font-size="10.00" fill="#000000">/MCCompLabel.h</text>
</a>
</g>
</g>
<!-- Node0&#45;&gt;Node62 -->
<g id="edge113" class="edge">
<title>Node0&#45;&gt;Node62</title>
<path fill="none" stroke="#191970" d="M2617.8606,-624.1726C2552.2946,-609.8471 2463.824,-578.7187 2420.5286,-512 2386.8862,-460.1567 2467.1957,-416.0815 2524.9258,-392.3263"/>
<polygon fill="#191970" stroke="#191970" points="2526.3573,-395.5232 2534.3338,-388.55 2523.7497,-389.0269 2526.3573,-395.5232"/>
</g>
<!-- Node65 -->
<g id="node66" class="node">
<title>Node65</title>
<g id="a_node66"><a xlink:href="../../d8/d7a/MFT_2tracking_2include_2MFTTracking_2Road_8h.html" target="_top" xlink:title="MFTTracking/Road.h">
<polygon fill="none" stroke="#000000" points="2774.0286,-431 2774.0286,-450 2887.0286,-450 2887.0286,-431 2774.0286,-431"/>
<text text-anchor="middle" x="2830.5286" y="-438" font-family="Helvetica,sans-Serif" font-size="10.00" fill="#000000">MFTTracking/Road.h</text>
</a>
</g>
</g>
<!-- Node0&#45;&gt;Node65 -->
<g id="edge109" class="edge">
<title>Node0&#45;&gt;Node65</title>
<path fill="none" stroke="#191970" d="M2738.1299,-604.2654C2749.8576,-593.5834 2762.0763,-581.0428 2771.5286,-568 2796.7012,-533.2656 2815.1332,-486.079 2824.2052,-459.9439"/>
<polygon fill="#191970" stroke="#191970" points="2827.6358,-460.7238 2827.5126,-450.1297 2821.0023,-458.4883 2827.6358,-460.7238"/>
</g>
<!-- Node66 -->
<g id="node67" class="node">
<title>Node66</title>
<g id="a_node67"><a xlink:href="../../db/d14/MCTruthContainer_8h.html" target="_top" xlink:title="Definition of a container to keep Monte Carlo truth external to simulation objects. ">
<polygon fill="none" stroke="#000000" points="1735.0286,-291.5 1735.0286,-321.5 1862.0286,-321.5 1862.0286,-291.5 1735.0286,-291.5"/>
<text text-anchor="start" x="1743.0286" y="-309.5" font-family="Helvetica,sans-Serif" font-size="10.00" fill="#000000">SimulationDataFormat</text>
<text text-anchor="middle" x="1798.5286" y="-298.5" font-family="Helvetica,sans-Serif" font-size="10.00" fill="#000000">/MCTruthContainer.h</text>
</a>
</g>
</g>
<!-- Node0&#45;&gt;Node66 -->
<g id="edge114" class="edge">
<title>Node0&#45;&gt;Node66</title>
<path fill="none" stroke="#191970" d="M2618.0102,-632.16C2400.5252,-620.7212 1817.5286,-582.5461 1817.5286,-502 1817.5286,-502 1817.5286,-502 1817.5286,-440.5 1817.5286,-402.2951 1809.8638,-358.5645 1804.2707,-331.7397"/>
<polygon fill="#191970" stroke="#191970" points="1807.6298,-330.7123 1802.1024,-321.6736 1800.7867,-332.1864 1807.6298,-330.7123"/>
</g>
<!-- Node7&#45;&gt;Node1 -->
<g id="edge8" class="edge">
<title>Node7&#45;&gt;Node1</title>
<path fill="none" stroke="#191970" d="M2551.6018,-495.8336C2566.9124,-494.4287 2583.3119,-493.0441 2598.5286,-492 2777.1762,-479.7417 3230.556,-502.3219 3403.5286,-456 3480.4317,-435.4054 3562.5286,-453.113 3562.5286,-373.5 3562.5286,-373.5 3562.5286,-373.5 3562.5286,-306.5 3562.5286,-293.2141 3612.9769,-294.7128 3458.5286,-224 3381.9704,-188.9485 3354.17,-208.6026 3272.5286,-188 3194.8617,-168.4004 3173.8613,-160.0783 3098.2682,-133.6164"/>
<polygon fill="#191970" stroke="#191970" points="3099.3662,-130.2926 3088.7714,-130.2974 3097.0568,-136.9007 3099.3662,-130.2926"/>
</g>
<!-- Node8 -->
<g id="node9" class="node">
<title>Node8</title>
<g id="a_node9"><a xlink:href="../../d4/de2/BaseCluster_8h.html" target="_top" xlink:title="ReconstructionDataFormats\l/BaseCluster.h">
<polygon fill="none" stroke="#000000" points="2059.5286,-425.5 2059.5286,-455.5 2211.5286,-455.5 2211.5286,-425.5 2059.5286,-425.5"/>
<text text-anchor="start" x="2067.5286" y="-443.5" font-family="Helvetica,sans-Serif" font-size="10.00" fill="#000000">ReconstructionDataFormats</text>
<text text-anchor="middle" x="2135.5286" y="-432.5" font-family="Helvetica,sans-Serif" font-size="10.00" fill="#000000">/BaseCluster.h</text>
</a>
</g>
</g>
<!-- Node7&#45;&gt;Node8 -->
<g id="edge9" class="edge">
<title>Node7&#45;&gt;Node8</title>
<path fill="none" stroke="#191970" d="M2435.4494,-492.4581C2378.3021,-482.5579 2288.1458,-466.9393 2221.5875,-455.4088"/>
<polygon fill="#191970" stroke="#191970" points="2221.9821,-451.9251 2211.5314,-453.6667 2220.7872,-458.8224 2221.9821,-451.9251"/>
</g>
<!-- Node10 -->
<g id="node11" class="node">
<title>Node10</title>
<g id="a_node11"><a xlink:href="../../df/d21/GPUCommonDef_8h.html" target="_top" xlink:title="GPUCommonDef.h">
<polygon fill="none" stroke="#000000" points="2401.0286,-56.5 2401.0286,-75.5 2508.0286,-75.5 2508.0286,-56.5 2401.0286,-56.5"/>
<text text-anchor="middle" x="2454.5286" y="-63.5" font-family="Helvetica,sans-Serif" font-size="10.00" fill="#000000">GPUCommonDef.h</text>
</a>
</g>
</g>
<!-- Node7&#45;&gt;Node10 -->
<g id="edge84" class="edge">
<title>Node7&#45;&gt;Node10</title>
<path fill="none" stroke="#191970" d="M2429.2378,-499.4396C2315.0186,-494.1151 2078.5903,-480.2783 2050.5286,-456 2027.2957,-435.8994 2037.3358,-419.4846 2033.5286,-389 2031.8212,-375.3284 2024.6688,-368.5513 2033.5286,-358 2093.0146,-287.1575 2153.104,-357.4946 2238.5286,-322 2260.6193,-312.8212 2261.8353,-303.0013 2282.5286,-291 2315.2082,-272.0472 2332.4388,-281.3306 2359.5286,-255 2410.3624,-205.5909 2438.5491,-123.2359 2449.3397,-85.7113"/>
<polygon fill="#191970" stroke="#191970" points="2452.8463,-86.1621 2452.1359,-75.5911 2446.0991,-84.2978 2452.8463,-86.1621"/>
</g>
<!-- Node54 -->
<g id="node55" class="node">
<title>Node54</title>
<g id="a_node55"><a xlink:href="../../df/d8e/MFT_2tracking_2include_2MFTTracking_2IndexTableUtils_8h.html" target="_top" xlink:title="MFTTracking/IndexTableUtils.h">
<polygon fill="none" stroke="#000000" points="2875.5286,-364 2875.5286,-383 3039.5286,-383 3039.5286,-364 2875.5286,-364"/>
<text text-anchor="middle" x="2957.5286" y="-371" font-family="Helvetica,sans-Serif" font-size="10.00" fill="#000000">MFTTracking/IndexTableUtils.h</text>
</a>
</g>
</g>
<!-- Node7&#45;&gt;Node54 -->
<g id="edge75" class="edge">
<title>Node7&#45;&gt;Node54</title>
<path fill="none" stroke="#191970" d="M2524.3645,-492.3974C2576.2239,-477.7088 2678.5044,-448.8538 2765.5286,-425 2815.331,-411.3489 2872.5078,-396.0619 2911.4247,-385.7148"/>
<polygon fill="#191970" stroke="#191970" points="2912.6361,-389.0145 2921.402,-383.064 2910.8386,-382.2492 2912.6361,-389.0145"/>
</g>
<!-- Node9 -->
<g id="node10" class="node">
<title>Node9</title>
<g id="a_node10"><a xlink:href="../../dc/d73/Cartesian_8h.html" target="_top" xlink:title="MathUtils/Cartesian.h">
<polygon fill="none" stroke="#000000" points="866.5286,-297 866.5286,-316 988.5286,-316 988.5286,-297 866.5286,-297"/>
<text text-anchor="middle" x="927.5286" y="-304" font-family="Helvetica,sans-Serif" font-size="10.00" fill="#000000">MathUtils/Cartesian.h</text>
</a>
</g>
</g>
<!-- Node8&#45;&gt;Node9 -->
<g id="edge10" class="edge">
<title>Node8&#45;&gt;Node9</title>
<path fill="none" stroke="#191970" d="M2059.5052,-432.0669C1840.6578,-407.7908 1211.2683,-337.9744 998.6664,-314.3911"/>
<polygon fill="#191970" stroke="#191970" points="998.8849,-310.894 988.5599,-313.27 998.1131,-317.8513 998.8849,-310.894"/>
</g>
<!-- Node23 -->
<g id="node24" class="node">
<title>Node23</title>
<polygon fill="none" stroke="#bfbfbf" points="31.0286,-230 31.0286,-249 80.0286,-249 80.0286,-230 31.0286,-230"/>
<text text-anchor="middle" x="55.5286" y="-237" font-family="Helvetica,sans-Serif" font-size="10.00" fill="#000000">iosfwd</text>
</g>
<!-- Node8&#45;&gt;Node23 -->
<g id="edge31" class="edge">
<title>Node8&#45;&gt;Node23</title>
<path fill="none" stroke="#191970" d="M2059.4374,-435.7541C1928.5761,-427.4293 1652.4893,-409.1538 1419.5286,-389 829.8385,-337.9851 669.5209,-395.4309 94.5286,-255 91.7417,-254.3193 88.8894,-253.4814 86.0579,-252.5506"/>
<polygon fill="#191970" stroke="#191970" points="87.2297,-249.2525 76.6356,-249.1222 84.8361,-255.8306 87.2297,-249.2525"/>
</g>
<!-- Node25 -->
<g id="node26" class="node">
<title>Node25</title>
<polygon fill="none" stroke="#bfbfbf" points="2043.0286,-364 2043.0286,-383 2106.0286,-383 2106.0286,-364 2043.0286,-364"/>
<text text-anchor="middle" x="2074.5286" y="-371" font-family="Helvetica,sans-Serif" font-size="10.00" fill="#000000">TObject.h</text>
</g>
<!-- Node8&#45;&gt;Node25 -->
<g id="edge27" class="edge">
<title>Node8&#45;&gt;Node25</title>
<path fill="none" stroke="#191970" d="M2121.6868,-425.2967C2112.275,-414.9591 2099.8103,-401.2684 2090.0597,-390.5588"/>
<polygon fill="#191970" stroke="#191970" points="2092.5482,-388.0931 2083.2279,-383.055 2087.3721,-392.8057 2092.5482,-388.0931"/>
</g>
<!-- Node26 -->
<g id="node27" class="node">
<title>Node26</title>
<polygon fill="none" stroke="#bfbfbf" points="1954.5286,-230 1954.5286,-249 1998.5286,-249 1998.5286,-230 1954.5286,-230"/>
<text text-anchor="middle" x="1976.5286" y="-237" font-family="Helvetica,sans-Serif" font-size="10.00" fill="#000000">bitset</text>
</g>
<!-- Node8&#45;&gt;Node26 -->
<g id="edge28" class="edge">
<title>Node8&#45;&gt;Node26</title>
<path fill="none" stroke="#191970" d="M2088.8796,-425.4999C2069.5995,-417.3141 2048.3406,-405.427 2033.5286,-389 1999.2354,-350.9677 1984.7735,-290.1797 1979.365,-259.1356"/>
<polygon fill="#191970" stroke="#191970" points="1982.8016,-258.4607 1977.762,-249.1412 1975.8899,-259.5694 1982.8016,-258.4607"/>
</g>
<!-- Node27 -->
<g id="node28" class="node">
<title>Node27</title>
<polygon fill="none" stroke="#bfbfbf" points="2124.5286,-364 2124.5286,-383 2180.5286,-383 2180.5286,-364 2124.5286,-364"/>
<text text-anchor="middle" x="2152.5286" y="-371" font-family="Helvetica,sans-Serif" font-size="10.00" fill="#000000">iomanip</text>
</g>
<!-- Node8&#45;&gt;Node27 -->
<g id="edge29" class="edge">
<title>Node8&#45;&gt;Node27</title>
<path fill="none" stroke="#191970" d="M2139.3862,-425.2967C2141.8292,-415.6685 2145.0101,-403.1318 2147.6307,-392.8038"/>
<polygon fill="#191970" stroke="#191970" points="2151.0373,-393.6086 2150.1042,-383.055 2144.2523,-391.887 2151.0373,-393.6086"/>
</g>
<!-- Node28 -->
<g id="node29" class="node">
<title>Node28</title>
<polygon fill="none" stroke="#bfbfbf" points="2199.0286,-364 2199.0286,-383 2230.0286,-383 2230.0286,-364 2199.0286,-364"/>
<text text-anchor="middle" x="2214.5286" y="-371" font-family="Helvetica,sans-Serif" font-size="10.00" fill="#000000">ios</text>
</g>
<!-- Node8&#45;&gt;Node28 -->
<g id="edge30" class="edge">
<title>Node8&#45;&gt;Node28</title>
<path fill="none" stroke="#191970" d="M2153.455,-425.2967C2166.0025,-414.6551 2182.7397,-400.4602 2195.5195,-389.6217"/>
<polygon fill="#191970" stroke="#191970" points="2197.8996,-392.1924 2203.2623,-383.055 2193.3719,-386.8538 2197.8996,-392.1924"/>
</g>
<!-- Node29 -->
<g id="node30" class="node">
<title>Node29</title>
<g id="a_node30"><a xlink:href="../../d4/d20/DetMatrixCache_8h.html" target="_top" xlink:title="DetectorsCommonDataFormats\l/DetMatrixCache.h">
<polygon fill="none" stroke="#000000" points="2325.0286,-358.5 2325.0286,-388.5 2496.0286,-388.5 2496.0286,-358.5 2325.0286,-358.5"/>
<text text-anchor="start" x="2333.0286" y="-376.5" font-family="Helvetica,sans-Serif" font-size="10.00" fill="#000000">DetectorsCommonDataFormats</text>
<text text-anchor="middle" x="2410.5286" y="-365.5" font-family="Helvetica,sans-Serif" font-size="10.00" fill="#000000">/DetMatrixCache.h</text>
</a>
</g>
</g>
<!-- Node8&#45;&gt;Node29 -->
<g id="edge32" class="edge">
<title>Node8&#45;&gt;Node29</title>
<path fill="none" stroke="#191970" d="M2197.244,-425.4639C2239.2026,-415.2412 2294.8533,-401.6827 2338.7878,-390.9787"/>
<polygon fill="#191970" stroke="#191970" points="2339.6568,-394.3694 2348.5441,-388.6017 2337.9998,-387.5684 2339.6568,-394.3694"/>
</g>
<!-- Node9&#45;&gt;Node10 -->
<g id="edge11" class="edge">
<title>Node9&#45;&gt;Node10</title>
<path fill="none" stroke="#191970" d="M866.2793,-304.6738C687.8829,-299.0599 179.7179,-280.8566 155.5286,-255 146.1161,-244.9386 148.1652,-235.6451 155.5286,-224 267.0143,-47.6884 306.5339,-147.866 925.5286,-112 1493.2579,-79.1044 2181.0168,-69.0559 2390.779,-66.649"/>
<polygon fill="#191970" stroke="#191970" points="2391.0312,-70.1465 2400.991,-66.5336 2390.952,-63.1469 2391.0312,-70.1465"/>
</g>
<!-- Node13 -->
<g id="node14" class="node">
<title>Node13</title>
<g id="a_node14"><a xlink:href="../../d2/d45/GPUCommonRtypes_8h.html" target="_top" xlink:title="GPUCommonRtypes.h">
<polygon fill="none" stroke="#000000" points="2521.0286,-230 2521.0286,-249 2646.0286,-249 2646.0286,-230 2521.0286,-230"/>
<text text-anchor="middle" x="2583.5286" y="-237" font-family="Helvetica,sans-Serif" font-size="10.00" fill="#000000">GPUCommonRtypes.h</text>
</a>
</g>
</g>
<!-- Node9&#45;&gt;Node13 -->
<g id="edge14" class="edge">
<title>Node9&#45;&gt;Node13</title>
<path fill="none" stroke="#191970" d="M988.6239,-305.027C1186.6704,-300.0971 1828.8225,-282.8969 2359.5286,-255 2410.0896,-252.3422 2467.0054,-248.3915 2510.813,-245.1439"/>
<polygon fill="#191970" stroke="#191970" points="2511.0904,-248.633 2520.8023,-244.3987 2510.5696,-241.6524 2511.0904,-248.633"/>
</g>
<!-- Node15 -->
<g id="node16" class="node">
<title>Node15</title>
<polygon fill="none" stroke="#bfbfbf" points="1428.5286,-224.5 1428.5286,-254.5 1592.5286,-254.5 1592.5286,-224.5 1428.5286,-224.5"/>
<text text-anchor="start" x="1436.5286" y="-242.5" font-family="Helvetica,sans-Serif" font-size="10.00" fill="#000000">Math/GenVector/Displacement</text>
<text text-anchor="middle" x="1510.5286" y="-231.5" font-family="Helvetica,sans-Serif" font-size="10.00" fill="#000000">Vector3D.h</text>
</g>
<!-- Node9&#45;&gt;Node15 -->
<g id="edge16" class="edge">
<title>Node9&#45;&gt;Node15</title>
<path fill="none" stroke="#191970" d="M988.6588,-301.3767C1079.924,-293.4458 1257.4174,-276.9361 1418.1523,-255.1391"/>
<polygon fill="#191970" stroke="#191970" points="1418.7911,-258.5844 1428.2254,-253.763 1417.8436,-251.6488 1418.7911,-258.5844"/>
</g>
<!-- Node16 -->
<g id="node17" class="node">
<title>Node16</title>
<polygon fill="none" stroke="#bfbfbf" points="175.0286,-230 175.0286,-249 364.0286,-249 364.0286,-230 175.0286,-230"/>
<text text-anchor="middle" x="269.5286" y="-237" font-family="Helvetica,sans-Serif" font-size="10.00" fill="#000000">Math/GenVector/PositionVector3D.h</text>
</g>
<!-- Node9&#45;&gt;Node16 -->
<g id="edge17" class="edge">
<title>Node9&#45;&gt;Node16</title>
<path fill="none" stroke="#191970" d="M866.3375,-301.9232C764.0954,-294.0271 552.1365,-276.5947 373.5286,-255 362.4552,-253.6612 350.7431,-252.0784 339.3281,-250.4445"/>
<polygon fill="#191970" stroke="#191970" points="339.7964,-246.9759 329.3968,-249.0003 338.789,-253.903 339.7964,-246.9759"/>
</g>
<!-- Node17 -->
<g id="node18" class="node">
<title>Node17</title>
<polygon fill="none" stroke="#bfbfbf" points="382.5286,-230 382.5286,-249 542.5286,-249 542.5286,-230 382.5286,-230"/>
<text text-anchor="middle" x="462.5286" y="-237" font-family="Helvetica,sans-Serif" font-size="10.00" fill="#000000">Math/GenVector/Rotation3D.h</text>
</g>
<!-- Node9&#45;&gt;Node17 -->
<g id="edge18" class="edge">
<title>Node9&#45;&gt;Node17</title>
<path fill="none" stroke="#191970" d="M866.2104,-298.7962C791.6985,-289.2744 662.2067,-272.2116 551.5286,-255 543.1744,-253.7008 534.3922,-252.2615 525.7327,-250.7987"/>
<polygon fill="#191970" stroke="#191970" points="526.1032,-247.3114 515.6566,-249.0777 524.9245,-254.2114 526.1032,-247.3114"/>
</g>
<!-- Node18 -->
<g id="node19" class="node">
<title>Node18</title>
<polygon fill="none" stroke="#bfbfbf" points="560.5286,-230 560.5286,-249 728.5286,-249 728.5286,-230 560.5286,-230"/>
<text text-anchor="middle" x="644.5286" y="-237" font-family="Helvetica,sans-Serif" font-size="10.00" fill="#000000">Math/GenVector/Transform3D.h</text>
</g>
<!-- Node9&#45;&gt;Node18 -->
<g id="edge19" class="edge">
<title>Node9&#45;&gt;Node18</title>
<path fill="none" stroke="#191970" d="M887.2822,-296.9717C836.7143,-284.9998 749.9163,-264.4504 694.9679,-251.4415"/>
<polygon fill="#191970" stroke="#191970" points="695.6318,-248.002 685.0944,-249.1039 694.0191,-254.8137 695.6318,-248.002"/>
</g>
<!-- Node19 -->
<g id="node20" class="node">
<title>Node19</title>
<polygon fill="none" stroke="#bfbfbf" points="747.0286,-230 747.0286,-249 920.0286,-249 920.0286,-230 747.0286,-230"/>
<text text-anchor="middle" x="833.5286" y="-237" font-family="Helvetica,sans-Serif" font-size="10.00" fill="#000000">Math/GenVector/Translation3D.h</text>
</g>
<!-- Node9&#45;&gt;Node19 -->
<g id="edge20" class="edge">
<title>Node9&#45;&gt;Node19</title>
<path fill="none" stroke="#191970" d="M914.0607,-296.9005C898.7042,-285.9549 873.3824,-267.9064 855.2311,-254.9688"/>
<polygon fill="#191970" stroke="#191970" points="857.1462,-252.0358 846.9716,-249.0817 853.0833,-257.736 857.1462,-252.0358"/>
</g>
<!-- Node20 -->
<g id="node21" class="node">
<title>Node20</title>
<polygon fill="none" stroke="#bfbfbf" points="938.5286,-224.5 938.5286,-254.5 1102.5286,-254.5 1102.5286,-224.5 938.5286,-224.5"/>
<text text-anchor="start" x="946.5286" y="-242.5" font-family="Helvetica,sans-Serif" font-size="10.00" fill="#000000">Math/GenVector/Displacement</text>
<text text-anchor="middle" x="1020.5286" y="-231.5" font-family="Helvetica,sans-Serif" font-size="10.00" fill="#000000">Vector2D.h</text>
</g>
<!-- Node9&#45;&gt;Node20 -->
<g id="edge21" class="edge">
<title>Node9&#45;&gt;Node20</title>
<path fill="none" stroke="#191970" d="M940.8533,-296.9005C953.9409,-287.4718 974.3445,-272.7725 991.2272,-260.6096"/>
<polygon fill="#191970" stroke="#191970" points="993.6097,-263.2069 999.6775,-254.5218 989.5179,-257.5274 993.6097,-263.2069"/>
</g>
<!-- Node21 -->
<g id="node22" class="node">
<title>Node21</title>
<polygon fill="none" stroke="#bfbfbf" points="1121.0286,-230 1121.0286,-249 1310.0286,-249 1310.0286,-230 1121.0286,-230"/>
<text text-anchor="middle" x="1215.5286" y="-237" font-family="Helvetica,sans-Serif" font-size="10.00" fill="#000000">Math/GenVector/PositionVector2D.h</text>
</g>
<!-- Node9&#45;&gt;Node21 -->
<g id="edge22" class="edge">
<title>Node9&#45;&gt;Node21</title>
<path fill="none" stroke="#191970" d="M968.4862,-296.9717C1019.9475,-284.9998 1108.279,-264.4504 1164.1982,-251.4415"/>
<polygon fill="#191970" stroke="#191970" points="1165.2993,-254.7788 1174.2461,-249.1039 1163.7131,-247.9609 1165.2993,-254.7788"/>
</g>
<!-- Node22 -->
<g id="node23" class="node">
<title>Node22</title>
<polygon fill="none" stroke="#bfbfbf" points="1328.5286,-230 1328.5286,-249 1410.5286,-249 1410.5286,-230 1328.5286,-230"/>
<text text-anchor="middle" x="1369.5286" y="-237" font-family="Helvetica,sans-Serif" font-size="10.00" fill="#000000">TGeoMatrix.h</text>
</g>
<!-- Node9&#45;&gt;Node22 -->
<g id="edge23" class="edge">
<title>Node9&#45;&gt;Node22</title>
<path fill="none" stroke="#191970" d="M988.6787,-301.5758C1066.0899,-294.6282 1203.2575,-279.9316 1318.5286,-255 1322.7006,-254.0977 1327.0248,-253.0173 1331.311,-251.8524"/>
<polygon fill="#191970" stroke="#191970" points="1332.5087,-255.1499 1341.1535,-249.0246 1330.5758,-248.4221 1332.5087,-255.1499"/>
</g>
<!-- Node9&#45;&gt;Node23 -->
<g id="edge24" class="edge">
<title>Node9&#45;&gt;Node23</title>
<path fill="none" stroke="#191970" d="M866.2749,-303.8318C686.6387,-295.8503 169.1178,-271.6812 94.5286,-255 91.6623,-254.359 88.7316,-253.5355 85.8279,-252.6029"/>
<polygon fill="#191970" stroke="#191970" points="86.7865,-249.2278 76.1922,-249.1184 84.406,-255.8106 86.7865,-249.2278"/>
</g>
<!-- Node24 -->
<g id="node25" class="node">
<title>Node24</title>
<g id="a_node25"><a xlink:href="../../d1/da8/GPUROOTCartesianFwd_8h.html" target="_top" xlink:title="GPUROOTCartesianFwd.h">
<polygon fill="none" stroke="#000000" points="934.5286,-112.5 934.5286,-131.5 1074.5286,-131.5 1074.5286,-112.5 934.5286,-112.5"/>
<text text-anchor="middle" x="1004.5286" y="-119.5" font-family="Helvetica,sans-Serif" font-size="10.00" fill="#000000">GPUROOTCartesianFwd.h</text>
</a>
</g>
</g>
<!-- Node9&#45;&gt;Node24 -->
<g id="edge25" class="edge">
<title>Node9&#45;&gt;Node24</title>
<path fill="none" stroke="#191970" d="M866.4442,-304.6234C689.795,-298.9023 189.3665,-280.5033 165.5286,-255 156.1205,-244.9345 156.393,-234.3135 165.5286,-224 215.4358,-167.658 724.31,-136.1075 924.3724,-125.8017"/>
<polygon fill="#191970" stroke="#191970" points="924.7153,-129.2889 934.5237,-125.2834 924.3582,-122.298 924.7153,-129.2889"/>
</g>
<!-- Node11 -->
<g id="node12" class="node">
<title>Node11</title>
<g id="a_node12"><a xlink:href="../../d5/d93/GPUCommonDefSettings_8h.html" target="_top" xlink:title="GPUCommonDefSettings.h">
<polygon fill="none" stroke="#000000" points="2303.5286,-.5 2303.5286,-19.5 2451.5286,-19.5 2451.5286,-.5 2303.5286,-.5"/>
<text text-anchor="middle" x="2377.5286" y="-7.5" font-family="Helvetica,sans-Serif" font-size="10.00" fill="#000000">GPUCommonDefSettings.h</text>
</a>
</g>
</g>
<!-- Node10&#45;&gt;Node11 -->
<g id="edge12" class="edge">
<title>Node10&#45;&gt;Node11</title>
<path fill="none" stroke="#191970" d="M2441.1163,-56.2455C2429.5229,-47.814 2412.5539,-35.4729 2399.0608,-25.6598"/>
<polygon fill="#191970" stroke="#191970" points="2400.9333,-22.6938 2390.7873,-19.6427 2396.8161,-28.355 2400.9333,-22.6938"/>
</g>
<!-- Node12 -->
<g id="node13" class="node">
<title>Node12</title>
<g id="a_node13"><a xlink:href="../../da/d5a/GPUCommonDefAPI_8h.html" target="_top" xlink:title="GPUCommonDefAPI.h">
<polygon fill="none" stroke="#000000" points="2469.5286,-.5 2469.5286,-19.5 2593.5286,-19.5 2593.5286,-.5 2469.5286,-.5"/>
<text text-anchor="middle" x="2531.5286" y="-7.5" font-family="Helvetica,sans-Serif" font-size="10.00" fill="#000000">GPUCommonDefAPI.h</text>
</a>
</g>
</g>
<!-- Node10&#45;&gt;Node12 -->
<g id="edge13" class="edge">
<title>Node10&#45;&gt;Node12</title>
<path fill="none" stroke="#191970" d="M2467.941,-56.2455C2479.5343,-47.814 2496.5034,-35.4729 2509.9965,-25.6598"/>
<polygon fill="#191970" stroke="#191970" points="2512.2412,-28.355 2518.27,-19.6427 2508.124,-22.6938 2512.2412,-28.355"/>
</g>
<!-- Node14 -->
<g id="node15" class="node">
<title>Node14</title>
<polygon fill="none" stroke="#bfbfbf" points="2589.0286,-168.5 2589.0286,-187.5 2648.0286,-187.5 2648.0286,-168.5 2589.0286,-168.5"/>
<text text-anchor="middle" x="2618.5286" y="-175.5" font-family="Helvetica,sans-Serif" font-size="10.00" fill="#000000">Rtypes.h</text>
</g>
<!-- Node13&#45;&gt;Node14 -->
<g id="edge15" class="edge">
<title>Node13&#45;&gt;Node14</title>
<path fill="none" stroke="#191970" d="M2588.9974,-229.8906C2594.0532,-221.0068 2601.7058,-207.5601 2607.954,-196.5811"/>
<polygon fill="#191970" stroke="#191970" points="2611.0785,-198.1672 2612.9828,-187.7449 2604.9947,-194.7048 2611.0785,-198.1672"/>
</g>
<!-- Node24&#45;&gt;Node10 -->
<g id="edge26" class="edge">
<title>Node24&#45;&gt;Node10</title>
<path fill="none" stroke="#191970" d="M1074.9552,-119.2801C1322.9411,-109.7027 2153.5185,-77.6252 2390.7555,-68.463"/>
<polygon fill="#191970" stroke="#191970" points="2391.0813,-71.9531 2400.9387,-68.0697 2390.811,-64.9583 2391.0813,-71.9531"/>
</g>
<!-- Node29&#45;&gt;Node1 -->
<g id="edge37" class="edge">
<title>Node29&#45;&gt;Node1</title>
<path fill="none" stroke="#191970" d="M2409.3552,-358.2549C2408.8265,-339.5649 2411.0521,-308.2543 2429.5286,-291 2503.8659,-221.5805 2561.9532,-294.8588 2655.5286,-255 2676.546,-246.0476 2676.0369,-234.0977 2696.5286,-224 2727.6659,-208.6565 2952.8273,-150.9841 3036.4082,-129.8365"/>
<polygon fill="#191970" stroke="#191970" points="3037.4914,-133.1728 3046.3292,-127.3296 3035.7765,-126.3861 3037.4914,-133.1728"/>
</g>
<!-- Node29&#45;&gt;Node2 -->
<g id="edge38" class="edge">
<title>Node29&#45;&gt;Node2</title>
<path fill="none" stroke="#191970" d="M2496.2094,-359.3592C2499.3538,-358.8916 2502.4681,-358.4369 2505.5286,-358 2635.8502,-339.3972 2678.1105,-372.8666 2799.5286,-322 2819.951,-313.4443 2819.0076,-301.45 2838.5286,-291 2879.5022,-269.0659 2931.4206,-254.4908 2964.8074,-246.6076"/>
<polygon fill="#191970" stroke="#191970" points="2965.9926,-249.9269 2974.9587,-244.2824 2964.4297,-243.1036 2965.9926,-249.9269"/>
</g>
<!-- Node29&#45;&gt;Node9 -->
<g id="edge39" class="edge">
<title>Node29&#45;&gt;Node9</title>
<path fill="none" stroke="#191970" d="M2324.8564,-364.9194C2297.3138,-362.3913 2266.6531,-359.8185 2238.5286,-358 1765.95,-327.444 1196.2863,-312.5518 998.9197,-308.0347"/>
<polygon fill="#191970" stroke="#191970" points="998.7626,-304.5303 988.6857,-307.8022 998.6036,-311.5285 998.7626,-304.5303"/>
</g>
<!-- Node29&#45;&gt;Node13 -->
<g id="edge36" class="edge">
<title>Node29&#45;&gt;Node13</title>
<path fill="none" stroke="#191970" d="M2389.2717,-358.2289C2368.0769,-341.1426 2341.0123,-312.9786 2358.5286,-291 2361.2309,-287.6094 2463.1661,-265.2546 2528.8913,-251.1341"/>
<polygon fill="#191970" stroke="#191970" points="2529.6652,-254.5478 2538.7087,-249.0282 2528.197,-247.7035 2529.6652,-254.5478"/>
</g>
<!-- Node30 -->
<g id="node31" class="node">
<title>Node30</title>
<g id="a_node31"><a xlink:href="../../df/d5b/GPUCommonLogger_8h.html" target="_top" xlink:title="GPUCommonLogger.h">
<polygon fill="none" stroke="#000000" points="2667.0286,-297 2667.0286,-316 2790.0286,-316 2790.0286,-297 2667.0286,-297"/>
<text text-anchor="middle" x="2728.5286" y="-304" font-family="Helvetica,sans-Serif" font-size="10.00" fill="#000000">GPUCommonLogger.h</text>
</a>
</g>
</g>
<!-- Node29&#45;&gt;Node30 -->
<g id="edge33" class="edge">
<title>Node29&#45;&gt;Node30</title>
<path fill="none" stroke="#191970" d="M2483.5193,-358.4686C2532.7124,-348.2919 2599.0527,-334.4788 2657.5286,-322 2663.2199,-320.7855 2669.1653,-319.5054 2675.0883,-318.2229"/>
<polygon fill="#191970" stroke="#191970" points="2675.9572,-321.6159 2684.9866,-316.0732 2674.4716,-314.7753 2675.9572,-321.6159"/>
</g>
<!-- Node33 -->
<g id="node34" class="node">
<title>Node33</title>
<g id="a_node34"><a xlink:href="../../d6/d31/DetID_8h.html" target="_top" xlink:title="DetectorsCommonDataFormats\l/DetID.h">
<polygon fill="none" stroke="#000000" points="2059.0286,-291.5 2059.0286,-321.5 2230.0286,-321.5 2230.0286,-291.5 2059.0286,-291.5"/>
<text text-anchor="start" x="2067.0286" y="-309.5" font-family="Helvetica,sans-Serif" font-size="10.00" fill="#000000">DetectorsCommonDataFormats</text>
<text text-anchor="middle" x="2144.5286" y="-298.5" font-family="Helvetica,sans-Serif" font-size="10.00" fill="#000000">/DetID.h</text>
</a>
</g>
</g>
<!-- Node29&#45;&gt;Node33 -->
<g id="edge40" class="edge">
<title>Node29&#45;&gt;Node33</title>
<path fill="none" stroke="#191970" d="M2350.833,-358.4639C2310.3329,-348.2627 2256.6444,-334.7397 2214.1896,-324.0462"/>
<polygon fill="#191970" stroke="#191970" points="2215.0366,-320.6503 2204.4846,-321.6017 2213.3268,-327.4383 2215.0366,-320.6503"/>
</g>
<!-- Node31 -->
<g id="node32" class="node">
<title>Node31</title>
<polygon fill="none" stroke="#bfbfbf" points="2772.5286,-230 2772.5286,-249 2832.5286,-249 2832.5286,-230 2772.5286,-230"/>
<text text-anchor="middle" x="2802.5286" y="-237" font-family="Helvetica,sans-Serif" font-size="10.00" fill="#000000">iostream</text>
</g>
<!-- Node30&#45;&gt;Node31 -->
<g id="edge34" class="edge">
<title>Node30&#45;&gt;Node31</title>
<path fill="none" stroke="#191970" d="M2739.131,-296.9005C2750.8905,-286.2535 2770.0729,-268.8856 2784.2623,-256.0385"/>
<polygon fill="#191970" stroke="#191970" points="2786.882,-258.388 2791.9459,-249.0817 2782.1838,-253.1989 2786.882,-258.388"/>
</g>
<!-- Node32 -->
<g id="node33" class="node">
<title>Node32</title>
<polygon fill="none" stroke="#bfbfbf" points="2705.5286,-230 2705.5286,-249 2751.5286,-249 2751.5286,-230 2705.5286,-230"/>
<text text-anchor="middle" x="2728.5286" y="-237" font-family="Helvetica,sans-Serif" font-size="10.00" fill="#000000">cstdio</text>
</g>
<!-- Node30&#45;&gt;Node32 -->
<g id="edge35" class="edge">
<title>Node30&#45;&gt;Node32</title>
<path fill="none" stroke="#191970" d="M2728.5286,-296.9005C2728.5286,-287.149 2728.5286,-271.7597 2728.5286,-259.3695"/>
<polygon fill="#191970" stroke="#191970" points="2732.0287,-259.0816 2728.5286,-249.0817 2725.0287,-259.0817 2732.0287,-259.0816"/>
</g>
<!-- Node33&#45;&gt;Node1 -->
<g id="edge42" class="edge">
<title>Node33&#45;&gt;Node1</title>
<path fill="none" stroke="#191970" d="M2225.9866,-291.4961C2276.6594,-281.302 2336.4302,-267.4582 2359.5286,-255 2377.2398,-245.4474 2376.7018,-236.4278 2392.5286,-224 2428.402,-195.8309 2435.3425,-182.675 2478.5286,-168 2583.3334,-132.3865 2930.0996,-124.1268 3036.325,-122.4117"/>
<polygon fill="#191970" stroke="#191970" points="3036.4535,-125.9102 3046.3987,-122.2573 3036.3462,-118.911 3036.4535,-125.9102"/>
</g>
<!-- Node33&#45;&gt;Node4 -->
<g id="edge44" class="edge">
<title>Node33&#45;&gt;Node4</title>
<path fill="none" stroke="#191970" d="M2114.7763,-291.4049C2096.013,-281.5921 2071.4588,-268.2075 2050.5286,-255 2030.6042,-242.4271 2029.3791,-232.8102 2007.5286,-224 1902.5998,-181.6922 1867.478,-204.3506 1755.5286,-188 1745.5096,-186.5367 1734.6518,-184.9266 1724.6524,-183.434"/>
<polygon fill="#191970" stroke="#191970" points="1725.0218,-179.9504 1714.614,-181.9321 1723.986,-186.8733 1725.0218,-179.9504"/>
</g>
<!-- Node33&#45;&gt;Node14 -->
<g id="edge41" class="edge">
<title>Node33&#45;&gt;Node14</title>
<path fill="none" stroke="#191970" d="M2229.7982,-291.492C2277.9236,-282.3495 2338.9721,-269.6242 2392.5286,-255 2461.5295,-236.1586 2540.1931,-207.7324 2584.1422,-191.2034"/>
<polygon fill="#191970" stroke="#191970" points="2585.6434,-194.3777 2593.7595,-187.5676 2583.1679,-187.83 2585.6434,-194.3777"/>
</g>
<!-- Node33&#45;&gt;Node26 -->
<g id="edge43" class="edge">
<title>Node33&#45;&gt;Node26</title>
<path fill="none" stroke="#191970" d="M2104.8203,-291.4189C2078.5402,-281.3368 2043.3666,-267.6501 2012.5286,-255 2011.1121,-254.4189 2009.6665,-253.8203 2008.2079,-253.2116"/>
<polygon fill="#191970" stroke="#191970" points="2009.1358,-249.8038 1998.5625,-249.1297 2006.4077,-256.2504 2009.1358,-249.8038"/>
</g>
<!-- Node34 -->
<g id="node35" class="node">
<title>Node34</title>
<polygon fill="none" stroke="#bfbfbf" points="1877.5286,-112.5 1877.5286,-131.5 1927.5286,-131.5 1927.5286,-112.5 1877.5286,-112.5"/>
<text text-anchor="middle" x="1902.5286" y="-119.5" font-family="Helvetica,sans-Serif" font-size="10.00" fill="#000000">cstdint</text>
</g>
<!-- Node33&#45;&gt;Node34 -->
<g id="edge45" class="edge">
<title>Node33&#45;&gt;Node34</title>
<path fill="none" stroke="#191970" d="M2126.6381,-291.4668C2098.9346,-268.2487 2048.325,-226.0994 2043.5286,-224 1991.1022,-201.0526 1826.0605,-231.2027 1788.5286,-188 1762.3412,-157.8559 1824.9069,-138.1288 1867.3405,-128.6316"/>
<polygon fill="#191970" stroke="#191970" points="1868.3166,-132.0022 1877.3651,-126.4909 1866.8547,-125.1565 1868.3166,-132.0022"/>
</g>
<!-- Node35 -->
<g id="node36" class="node">
<title>Node35</title>
<polygon fill="none" stroke="#bfbfbf" points="2277.0286,-230 2277.0286,-249 2350.0286,-249 2350.0286,-230 2277.0286,-230"/>
<text text-anchor="middle" x="2313.5286" y="-237" font-family="Helvetica,sans-Serif" font-size="10.00" fill="#000000">string_view</text>
</g>
<!-- Node33&#45;&gt;Node35 -->
<g id="edge46" class="edge">
<title>Node33&#45;&gt;Node35</title>
<path fill="none" stroke="#191970" d="M2182.4555,-291.4639C2211.7057,-279.8677 2251.7833,-263.9789 2279.8963,-252.8335"/>
<polygon fill="#191970" stroke="#191970" points="2281.2976,-256.0431 2289.3038,-249.1039 2278.7178,-249.5358 2281.2976,-256.0431"/>
</g>
<!-- Node36 -->
<g id="node37" class="node">
<title>Node36</title>
<polygon fill="none" stroke="#bfbfbf" points="2331.5286,-168.5 2331.5286,-187.5 2375.5286,-187.5 2375.5286,-168.5 2331.5286,-168.5"/>
<text text-anchor="middle" x="2353.5286" y="-175.5" font-family="Helvetica,sans-Serif" font-size="10.00" fill="#000000">string</text>
</g>
<!-- Node33&#45;&gt;Node36 -->
<g id="edge47" class="edge">
<title>Node33&#45;&gt;Node36</title>
<path fill="none" stroke="#191970" d="M2171.1616,-291.2946C2187.9466,-281.439 2209.8913,-268.0482 2228.5286,-255 2246.6672,-242.301 2249.0244,-236.16 2267.5286,-224 2285.5083,-212.1846 2306.8262,-200.7659 2323.7393,-192.2609"/>
<polygon fill="#191970" stroke="#191970" points="2325.7228,-195.1843 2333.1299,-187.6089 2322.6154,-188.9117 2325.7228,-195.1843"/>
</g>
<!-- Node37 -->
<g id="node38" class="node">
<title>Node37</title>
<polygon fill="none" stroke="#bfbfbf" points="1867.0286,-230 1867.0286,-249 1936.0286,-249 1936.0286,-230 1867.0286,-230"/>
<text text-anchor="middle" x="1901.5286" y="-237" font-family="Helvetica,sans-Serif" font-size="10.00" fill="#000000">type_traits</text>
</g>
<!-- Node33&#45;&gt;Node37 -->
<g id="edge48" class="edge">
<title>Node33&#45;&gt;Node37</title>
<path fill="none" stroke="#191970" d="M2080.5102,-291.4078C2041.307,-281.8013 1990.2457,-268.6353 1945.5286,-255 1942.7688,-254.1585 1939.925,-253.251 1937.0741,-252.3122"/>
<polygon fill="#191970" stroke="#191970" points="1938.0595,-248.9506 1927.4651,-249.0502 1935.8092,-255.5791 1938.0595,-248.9506"/>
</g>
<!-- Node38 -->
<g id="node39" class="node">
<title>Node38</title>
<g id="a_node39"><a xlink:href="../../d9/d52/Common_2MathUtils_2include_2MathUtils_2Utils_8h.html" target="_top" xlink:title="MathUtils/Utils.h">
<polygon fill="none" stroke="#000000" points="3351.5286,-230 3351.5286,-249 3449.5286,-249 3449.5286,-230 3351.5286,-230"/>
<text text-anchor="middle" x="3400.5286" y="-237" font-family="Helvetica,sans-Serif" font-size="10.00" fill="#000000">MathUtils/Utils.h</text>
</a>
</g>
</g>
<!-- Node33&#45;&gt;Node38 -->
<g id="edge49" class="edge">
<title>Node33&#45;&gt;Node38</title>
<path fill="none" stroke="#191970" d="M2230.2672,-301.8069C2286.8463,-298.7174 2362.6056,-294.5946 2429.5286,-291 2775.1633,-272.4353 3190.0278,-250.5718 3341.5028,-242.6029"/>
<polygon fill="#191970" stroke="#191970" points="3341.7207,-246.0964 3351.523,-242.0758 3341.3529,-239.1061 3341.7207,-246.0964"/>
</g>
<!-- Node47 -->
<g id="node48" class="node">
<title>Node47</title>
<g id="a_node48"><a xlink:href="../../dc/dcd/DataHeader_8h.html" target="_top" xlink:title="Headers/DataHeader.h">
<polygon fill="none" stroke="#000000" points="2093.0286,-230 2093.0286,-249 2220.0286,-249 2220.0286,-230 2093.0286,-230"/>
<text text-anchor="middle" x="2156.5286" y="-237" font-family="Helvetica,sans-Serif" font-size="10.00" fill="#000000">Headers/DataHeader.h</text>
</a>
</g>
</g>
<!-- Node33&#45;&gt;Node47 -->
<g id="edge64" class="edge">
<title>Node33&#45;&gt;Node47</title>
<path fill="none" stroke="#191970" d="M2147.2516,-291.2967C2148.9579,-281.7699 2151.1742,-269.3954 2153.0127,-259.1306"/>
<polygon fill="#191970" stroke="#191970" points="2156.4994,-259.5154 2154.8173,-249.055 2149.609,-258.2813 2156.4994,-259.5154"/>
</g>
<!-- Node39 -->
<g id="node40" class="node">
<title>Node39</title>
<g id="a_node40"><a xlink:href="../../de/def/bitOps_8h.html" target="_top" xlink:title="MathUtils/detail/bitOps.h">
<polygon fill="none" stroke="#000000" points="2666.0286,-168.5 2666.0286,-187.5 2803.0286,-187.5 2803.0286,-168.5 2666.0286,-168.5"/>
<text text-anchor="middle" x="2734.5286" y="-175.5" font-family="Helvetica,sans-Serif" font-size="10.00" fill="#000000">MathUtils/detail/bitOps.h</text>
</a>
</g>
</g>
<!-- Node38&#45;&gt;Node39 -->
<g id="edge50" class="edge">
<title>Node38&#45;&gt;Node39</title>
<path fill="none" stroke="#191970" d="M3351.2856,-234.9528C3236.8615,-224.3866 2952.2351,-198.1035 2813.3139,-185.2752"/>
<polygon fill="#191970" stroke="#191970" points="2813.4425,-181.7723 2803.1631,-184.3379 2812.7988,-188.7426 2813.4425,-181.7723"/>
</g>
<!-- Node40 -->
<g id="node41" class="node">
<title>Node40</title>
<g id="a_node41"><a xlink:href="../../d3/dfc/StatAccumulator_8h.html" target="_top" xlink:title="MathUtils/detail/StatAccumulator.h">
<polygon fill="none" stroke="#000000" points="3504.5286,-168.5 3504.5286,-187.5 3690.5286,-187.5 3690.5286,-168.5 3504.5286,-168.5"/>
<text text-anchor="middle" x="3597.5286" y="-175.5" font-family="Helvetica,sans-Serif" font-size="10.00" fill="#000000">MathUtils/detail/StatAccumulator.h</text>
</a>
</g>
</g>
<!-- Node38&#45;&gt;Node40 -->
<g id="edge52" class="edge">
<title>Node38&#45;&gt;Node40</title>
<path fill="none" stroke="#191970" d="M3431.3099,-229.8906C3465.2836,-219.2846 3520.0891,-202.1753 3557.4058,-190.5257"/>
<polygon fill="#191970" stroke="#191970" points="3558.4609,-193.8629 3566.9635,-187.5419 3556.3748,-187.181 3558.4609,-193.8629"/>
</g>
<!-- Node42 -->
<g id="node43" class="node">
<title>Node42</title>
<g id="a_node43"><a xlink:href="../../dd/d7d/trigonometric_8h.html" target="_top" xlink:title="MathUtils/detail/trigonometric.h">
<polygon fill="none" stroke="#000000" points="3314.5286,-168.5 3314.5286,-187.5 3486.5286,-187.5 3486.5286,-168.5 3314.5286,-168.5"/>
<text text-anchor="middle" x="3400.5286" y="-175.5" font-family="Helvetica,sans-Serif" font-size="10.00" fill="#000000">MathUtils/detail/trigonometric.h</text>
</a>
</g>
</g>
<!-- Node38&#45;&gt;Node42 -->
<g id="edge54" class="edge">
<title>Node38&#45;&gt;Node42</title>
<path fill="none" stroke="#191970" d="M3400.5286,-229.8906C3400.5286,-221.3657 3400.5286,-208.6392 3400.5286,-197.9235"/>
<polygon fill="#191970" stroke="#191970" points="3404.0287,-197.7448 3400.5286,-187.7449 3397.0287,-197.7449 3404.0287,-197.7448"/>
</g>
<!-- Node39&#45;&gt;Node34 -->
<g id="edge51" class="edge">
<title>Node39&#45;&gt;Node34</title>
<path fill="none" stroke="#191970" d="M2665.7079,-168.8256C2662.9471,-168.5326 2660.2125,-168.2557 2657.5286,-168 2380.7783,-141.6294 2045.438,-127.4161 1937.6672,-123.2867"/>
<polygon fill="#191970" stroke="#191970" points="1937.794,-119.7891 1927.6686,-122.9076 1937.5288,-126.784 1937.794,-119.7891"/>
</g>
<!-- Node41 -->
<g id="node42" class="node">
<title>Node41</title>
<polygon fill="none" stroke="#bfbfbf" points="3407.0286,-112.5 3407.0286,-131.5 3448.0286,-131.5 3448.0286,-112.5 3407.0286,-112.5"/>
<text text-anchor="middle" x="3427.5286" y="-119.5" font-family="Helvetica,sans-Serif" font-size="10.00" fill="#000000">tuple</text>
</g>
<!-- Node40&#45;&gt;Node41 -->
<g id="edge53" class="edge">
<title>Node40&#45;&gt;Node41</title>
<path fill="none" stroke="#191970" d="M3568.3046,-168.3733C3537.4663,-158.2148 3489.0914,-142.2795 3457.8461,-131.9869"/>
<polygon fill="#191970" stroke="#191970" points="3458.9404,-128.6625 3448.3474,-128.8579 3456.7502,-135.311 3458.9404,-128.6625"/>
</g>
<!-- Node42&#45;&gt;Node1 -->
<g id="edge55" class="edge">
<title>Node42&#45;&gt;Node1</title>
<path fill="none" stroke="#191970" d="M3343.6623,-168.4369C3272.9848,-156.5512 3154.8619,-136.6867 3098.8393,-127.2655"/>
<polygon fill="#191970" stroke="#191970" points="3099.2527,-123.7859 3088.8107,-125.579 3098.0917,-130.689 3099.2527,-123.7859"/>
</g>
<!-- Node42&#45;&gt;Node10 -->
<g id="edge58" class="edge">
<title>Node42&#45;&gt;Node10</title>
<path fill="none" stroke="#191970" d="M3360.312,-168.4893C3290.1624,-152.0262 3148.0861,-119.2766 3097.5286,-112 2886.7691,-81.6661 2634.1268,-71.0126 2518.2664,-67.5414"/>
<polygon fill="#191970" stroke="#191970" points="2518.2525,-64.0396 2508.1547,-67.2464 2518.0483,-71.0366 2518.2525,-64.0396"/>
</g>
<!-- Node42&#45;&gt;Node41 -->
<g id="edge57" class="edge">
<title>Node42&#45;&gt;Node41</title>
<path fill="none" stroke="#191970" d="M3405.2317,-168.2455C3408.871,-160.6973 3414.021,-150.0158 3418.4548,-140.8197"/>
<polygon fill="#191970" stroke="#191970" points="3421.6891,-142.1704 3422.8795,-131.6427 3415.3837,-139.1303 3421.6891,-142.1704"/>
</g>
<!-- Node43 -->
<g id="node44" class="node">
<title>Node43</title>
<polygon fill="none" stroke="#bfbfbf" points="3300.0286,-56.5 3300.0286,-75.5 3347.0286,-75.5 3347.0286,-56.5 3300.0286,-56.5"/>
<text text-anchor="middle" x="3323.5286" y="-63.5" font-family="Helvetica,sans-Serif" font-size="10.00" fill="#000000">cmath</text>
</g>
<!-- Node42&#45;&gt;Node43 -->
<g id="edge56" class="edge">
<title>Node42&#45;&gt;Node43</title>
<path fill="none" stroke="#191970" d="M3393.9637,-168.4509C3381.121,-149.7707 3352.4887,-108.1238 3335.956,-84.0761"/>
<polygon fill="#191970" stroke="#191970" points="3338.6265,-81.7825 3330.077,-75.5249 3332.8582,-85.7482 3338.6265,-81.7825"/>
</g>
<!-- Node44 -->
<g id="node45" class="node">
<title>Node44</title>
<g id="a_node45"><a xlink:href="../../d6/da2/GPUCommonMath_8h.html" target="_top" xlink:title="GPUCommonMath.h">
<polygon fill="none" stroke="#000000" points="3217.0286,-112.5 3217.0286,-131.5 3332.0286,-131.5 3332.0286,-112.5 3217.0286,-112.5"/>
<text text-anchor="middle" x="3274.5286" y="-119.5" font-family="Helvetica,sans-Serif" font-size="10.00" fill="#000000">GPUCommonMath.h</text>
</a>
</g>
</g>
<!-- Node42&#45;&gt;Node44 -->
<g id="edge59" class="edge">
<title>Node42&#45;&gt;Node44</title>
<path fill="none" stroke="#191970" d="M3378.8685,-168.3733C3358.5515,-159.3435 3327.9647,-145.7494 3305.1536,-135.6111"/>
<polygon fill="#191970" stroke="#191970" points="3306.4658,-132.3642 3295.9062,-131.5011 3303.6228,-138.7609 3306.4658,-132.3642"/>
</g>
<!-- Node46 -->
<g id="node47" class="node">
<title>Node46</title>
<g id="a_node47"><a xlink:href="../../d6/d84/MathConstants_8h.html" target="_top" xlink:title="useful math constants ">
<polygon fill="none" stroke="#000000" points="3557.5286,-112.5 3557.5286,-131.5 3751.5286,-131.5 3751.5286,-112.5 3557.5286,-112.5"/>
<text text-anchor="middle" x="3654.5286" y="-119.5" font-family="Helvetica,sans-Serif" font-size="10.00" fill="#000000">CommonConstants/MathConstants.h</text>
</a>
</g>
</g>
<!-- Node42&#45;&gt;Node46 -->
<g id="edge63" class="edge">
<title>Node42&#45;&gt;Node46</title>
<path fill="none" stroke="#191970" d="M3443.9042,-168.4369C3487.4656,-158.8328 3554.6563,-144.0191 3601.392,-133.7152"/>
<polygon fill="#191970" stroke="#191970" points="3602.3201,-137.0947 3611.332,-131.5237 3600.8129,-130.2588 3602.3201,-137.0947"/>
</g>
<!-- Node44&#45;&gt;Node10 -->
<g id="edge60" class="edge">
<title>Node44&#45;&gt;Node10</title>
<path fill="none" stroke="#191970" d="M3216.9469,-115.6201C3204.2987,-114.3254 3190.9689,-113.0427 3178.5286,-112 2934.9871,-91.5871 2644.6775,-75.6906 2518.4249,-69.1918"/>
<polygon fill="#191970" stroke="#191970" points="2518.3369,-65.6828 2508.1707,-68.6661 2517.9784,-72.6736 2518.3369,-65.6828"/>
</g>
<!-- Node44&#45;&gt;Node43 -->
<g id="edge61" class="edge">
<title>Node44&#45;&gt;Node43</title>
<path fill="none" stroke="#191970" d="M3283.0638,-112.2455C3290.0198,-104.2958 3300.0169,-92.8706 3308.3337,-83.3656"/>
<polygon fill="#191970" stroke="#191970" points="3311.1402,-85.4732 3315.0913,-75.6427 3305.8722,-80.8637 3311.1402,-85.4732"/>
</g>
<!-- Node45 -->
<g id="node46" class="node">
<title>Node45</title>
<polygon fill="none" stroke="#bfbfbf" points="2902.5286,-56.5 2902.5286,-75.5 2966.5286,-75.5 2966.5286,-56.5 2902.5286,-56.5"/>
<text text-anchor="middle" x="2934.5286" y="-63.5" font-family="Helvetica,sans-Serif" font-size="10.00" fill="#000000">algorithm</text>
</g>
<!-- Node44&#45;&gt;Node45 -->
<g id="edge62" class="edge">
<title>Node44&#45;&gt;Node45</title>
<path fill="none" stroke="#191970" d="M3216.8523,-112.5004C3148.7947,-101.2909 3037.264,-82.9211 2976.7624,-72.9561"/>
<polygon fill="#191970" stroke="#191970" points="2977.2286,-69.4859 2966.7927,-71.3141 2976.091,-76.3928 2977.2286,-69.4859"/>
</g>
<!-- Node47&#45;&gt;Node4 -->
<g id="edge67" class="edge">
<title>Node47&#45;&gt;Node4</title>
<path fill="none" stroke="#191970" d="M2093.0168,-230.9798C2075.972,-228.7024 2057.5493,-226.2493 2040.5286,-224 1925.0631,-208.7411 1788.2519,-190.9432 1724.5318,-182.6701"/>
<polygon fill="#191970" stroke="#191970" points="1724.9531,-179.1955 1714.5857,-181.379 1724.0519,-186.1372 1724.9531,-179.1955"/>
</g>
<!-- Node47&#45;&gt;Node34 -->
<g id="edge65" class="edge">
<title>Node47&#45;&gt;Node34</title>
<path fill="none" stroke="#191970" d="M2137.3351,-229.8543C2116.819,-219.5333 2083.3472,-202.6645 2054.5286,-188 2037.1674,-179.1657 2033.2332,-176.1244 2015.5286,-168 1989.7036,-156.1491 1959.915,-144.0871 1937.4081,-135.2893"/>
<polygon fill="#191970" stroke="#191970" points="1938.5199,-131.9665 1927.9311,-131.6093 1935.986,-138.4918 1938.5199,-131.9665"/>
</g>
<!-- Node47&#45;&gt;Node36 -->
<g id="edge71" class="edge">
<title>Node47&#45;&gt;Node36</title>
<path fill="none" stroke="#191970" d="M2187.3099,-229.8906C2223.9086,-218.4651 2284.6828,-199.4925 2321.725,-187.9285"/>
<polygon fill="#191970" stroke="#191970" points="2323.001,-191.1969 2331.5037,-184.8758 2320.915,-184.5149 2323.001,-191.1969"/>
</g>
<!-- Node47&#45;&gt;Node45 -->
<g id="edge69" class="edge">
<title>Node47&#45;&gt;Node45</title>
<path fill="none" stroke="#191970" d="M2182.1113,-229.8934C2207.962,-220.0076 2248.919,-203.8539 2283.5286,-188 2301.2386,-179.8875 2304.0348,-174.1184 2322.5286,-168 2529.4497,-99.5433 2791.5994,-75.5806 2892.4073,-68.5426"/>
<polygon fill="#191970" stroke="#191970" points="2892.7542,-72.0272 2902.4941,-67.8578 2892.2799,-65.0433 2892.7542,-72.0272"/>
</g>
<!-- Node48 -->
<g id="node49" class="node">
<title>Node48</title>
<polygon fill="none" stroke="#bfbfbf" points="1797.5286,-168.5 1797.5286,-187.5 1855.5286,-187.5 1855.5286,-168.5 1797.5286,-168.5"/>
<text text-anchor="middle" x="1826.5286" y="-175.5" font-family="Helvetica,sans-Serif" font-size="10.00" fill="#000000">memory</text>
</g>
<!-- Node47&#45;&gt;Node48 -->
<g id="edge66" class="edge">
<title>Node47&#45;&gt;Node48</title>
<path fill="none" stroke="#191970" d="M2109.5505,-229.9317C2099.3347,-227.9161 2088.5777,-225.8433 2078.5286,-224 1986.8137,-207.1767 1960.5442,-208.202 1865.9202,-188.1582"/>
<polygon fill="#191970" stroke="#191970" points="1866.4351,-184.6892 1855.9238,-186.017 1864.9689,-191.5339 1866.4351,-184.6892"/>
</g>
<!-- Node49 -->
<g id="node50" class="node">
<title>Node49</title>
<polygon fill="none" stroke="#bfbfbf" points="1873.5286,-168.5 1873.5286,-187.5 1923.5286,-187.5 1923.5286,-168.5 1873.5286,-168.5"/>
<text text-anchor="middle" x="1898.5286" y="-175.5" font-family="Helvetica,sans-Serif" font-size="10.00" fill="#000000">cstring</text>
</g>
<!-- Node47&#45;&gt;Node49 -->
<g id="edge68" class="edge">
<title>Node47&#45;&gt;Node49</title>
<path fill="none" stroke="#191970" d="M2111.2845,-229.9339C2068.0291,-220.6014 2000.7735,-205.6058 1933.6346,-188.1837"/>
<polygon fill="#191970" stroke="#191970" points="1934.2926,-184.7382 1923.7326,-185.596 1932.5227,-191.5107 1934.2926,-184.7382"/>
</g>
<!-- Node50 -->
<g id="node51" class="node">
<title>Node50</title>
<polygon fill="none" stroke="#bfbfbf" points="1942.0286,-168.5 1942.0286,-187.5 2007.0286,-187.5 2007.0286,-168.5 1942.0286,-168.5"/>
<text text-anchor="middle" x="1974.5286" y="-175.5" font-family="Helvetica,sans-Serif" font-size="10.00" fill="#000000">stdexcept</text>
</g>
<!-- Node47&#45;&gt;Node50 -->
<g id="edge70" class="edge">
<title>Node47&#45;&gt;Node50</title>
<path fill="none" stroke="#191970" d="M2128.0911,-229.8906C2096.9714,-219.3749 2046.9322,-202.466 2012.4801,-190.8243"/>
<polygon fill="#191970" stroke="#191970" points="2013.3607,-187.4274 2002.7664,-187.5419 2011.1197,-194.0591 2013.3607,-187.4274"/>
</g>
<!-- Node51 -->
<g id="node52" class="node">
<title>Node51</title>
<polygon fill="none" stroke="#bfbfbf" points="2520.5286,-168.5 2520.5286,-187.5 2570.5286,-187.5 2570.5286,-168.5 2520.5286,-168.5"/>
<text text-anchor="middle" x="2545.5286" y="-175.5" font-family="Helvetica,sans-Serif" font-size="10.00" fill="#000000">climits</text>
</g>
<!-- Node47&#45;&gt;Node51 -->
<g id="edge72" class="edge">
<title>Node47&#45;&gt;Node51</title>
<path fill="none" stroke="#191970" d="M2216.8831,-229.9581C2299.1253,-216.9558 2443.7569,-194.0899 2510.2618,-183.5756"/>
<polygon fill="#191970" stroke="#191970" points="2510.9123,-187.0163 2520.2431,-181.9976 2509.8192,-180.1022 2510.9123,-187.0163"/>
</g>
<!-- Node52 -->
<g id="node53" class="node">
<title>Node52</title>
<g id="a_node53"><a xlink:href="../../d7/df8/Types_8h.html" target="_top" xlink:title="MemoryResources/Types.h">
<polygon fill="none" stroke="#000000" points="2063.5286,-168.5 2063.5286,-187.5 2209.5286,-187.5 2209.5286,-168.5 2063.5286,-168.5"/>
<text text-anchor="middle" x="2136.5286" y="-175.5" font-family="Helvetica,sans-Serif" font-size="10.00" fill="#000000">MemoryResources/Types.h</text>
</a>
</g>
</g>
<!-- Node47&#45;&gt;Node52 -->
<g id="edge73" class="edge">
<title>Node47&#45;&gt;Node52</title>
<path fill="none" stroke="#191970" d="M2153.4036,-229.8906C2150.6021,-221.276 2146.4053,-208.3708 2142.898,-197.5858"/>
<polygon fill="#191970" stroke="#191970" points="2146.1188,-196.1722 2139.6977,-187.7449 2139.4619,-198.3371 2146.1188,-196.1722"/>
</g>
<!-- Node53 -->
<g id="node54" class="node">
<title>Node53</title>
<polygon fill="none" stroke="#bfbfbf" points="2228.0286,-168.5 2228.0286,-187.5 2275.0286,-187.5 2275.0286,-168.5 2228.0286,-168.5"/>
<text text-anchor="middle" x="2251.5286" y="-175.5" font-family="Helvetica,sans-Serif" font-size="10.00" fill="#000000">cerrno</text>
</g>
<!-- Node47&#45;&gt;Node53 -->
<g id="edge74" class="edge">
<title>Node47&#45;&gt;Node53</title>
<path fill="none" stroke="#191970" d="M2171.3724,-229.8906C2186.5705,-220.0519 2210.4135,-204.6167 2228.1493,-193.1351"/>
<polygon fill="#191970" stroke="#191970" points="2230.2966,-195.9144 2236.7891,-187.5419 2226.4925,-190.0382 2230.2966,-195.9144"/>
</g>
<!-- Node54&#45;&gt;Node1 -->
<g id="edge76" class="edge">
<title>Node54&#45;&gt;Node1</title>
<path fill="none" stroke="#191970" d="M2970.6696,-363.8669C2982.6515,-354.4401 3000.0375,-339.0447 3010.5286,-322 3046.8886,-262.9267 3060.7774,-179.8745 3065.4446,-142.1072"/>
<polygon fill="#191970" stroke="#191970" points="3068.951,-142.2502 3066.6116,-131.9168 3061.9964,-141.4536 3068.951,-142.2502"/>
</g>
<!-- Node54&#45;&gt;Node2 -->
<g id="edge78" class="edge">
<title>Node54&#45;&gt;Node2</title>
<path fill="none" stroke="#191970" d="M2966.8229,-363.7926C2975.4732,-354.0788 2987.857,-338.2762 2993.5286,-322 3000.6259,-301.6325 3001.1125,-276.7406 3000.3046,-259.6592"/>
<polygon fill="#191970" stroke="#191970" points="3003.7667,-258.9758 2999.6039,-249.233 2996.7825,-259.4453 3003.7667,-258.9758"/>
</g>
<!-- Node54&#45;&gt;Node3 -->
<g id="edge77" class="edge">
<title>Node54&#45;&gt;Node3</title>
<path fill="none" stroke="#191970" d="M2978.1603,-363.9005C3002.6476,-352.5072 3043.6755,-333.4178 3071.638,-320.4075"/>
<polygon fill="#191970" stroke="#191970" points="3073.3451,-323.4736 3080.9352,-316.0817 3070.3921,-317.1269 3073.3451,-323.4736"/>
</g>
<!-- Node54&#45;&gt;Node55 -->
<g id="edge79" class="edge">
<title>Node54&#45;&gt;Node55</title>
<path fill="none" stroke="#191970" d="M2951.5111,-363.9005C2945.1486,-353.751 2934.9577,-337.4941 2927.0428,-324.8679"/>
<polygon fill="#191970" stroke="#191970" points="2929.812,-322.6956 2921.535,-316.0817 2923.8809,-326.4135 2929.812,-322.6956"/>
</g>
<!-- Node55&#45;&gt;Node2 -->
<g id="edge81" class="edge">
<title>Node55&#45;&gt;Node2</title>
<path fill="none" stroke="#191970" d="M2927.4205,-296.9005C2940.7334,-286.1539 2962.5285,-268.5603 2978.4854,-255.6794"/>
<polygon fill="#191970" stroke="#191970" points="2981.076,-258.0863 2986.6588,-249.0817 2976.6792,-252.6395 2981.076,-258.0863"/>
</g>
<!-- Node55&#45;&gt;Node14 -->
<g id="edge82" class="edge">
<title>Node55&#45;&gt;Node14</title>
<path fill="none" stroke="#191970" d="M2914.9275,-296.8179C2913.2841,-279.3055 2907.1731,-242.4741 2884.5286,-224 2807.8515,-161.4443 2760.5767,-205.7395 2658.3405,-187.8624"/>
<polygon fill="#191970" stroke="#191970" points="2658.7523,-184.3777 2648.2722,-185.9326 2657.4345,-191.2525 2658.7523,-184.3777"/>
</g>
<!-- Node55&#45;&gt;Node46 -->
<g id="edge83" class="edge">
<title>Node55&#45;&gt;Node46</title>
<path fill="none" stroke="#191970" d="M2984.1908,-299.5273C3011.1092,-296.8216 3042.2635,-293.7245 3070.5286,-291 3211.5146,-277.4103 3613.8309,-300.7725 3699.5286,-188 3712.2198,-171.2992 3694.2065,-151.2942 3677.3403,-137.7191"/>
<polygon fill="#191970" stroke="#191970" points="3679.3746,-134.8693 3669.2922,-131.6142 3675.1441,-140.4463 3679.3746,-134.8693"/>
</g>
<!-- Node55&#45;&gt;Node51 -->
<g id="edge80" class="edge">
<title>Node55&#45;&gt;Node51</title>
<path fill="none" stroke="#191970" d="M2910.083,-296.8592C2899.4653,-279.0724 2874.152,-241.3323 2841.5286,-224 2738.1189,-169.0598 2695.1106,-212.1449 2580.5286,-188 2580.4281,-187.9788 2580.3275,-187.9575 2580.2268,-187.9361"/>
<polygon fill="#191970" stroke="#191970" points="2581.1981,-184.5699 2570.6573,-185.639 2579.5641,-191.3765 2581.1981,-184.5699"/>
</g>
<!-- Node56&#45;&gt;Node1 -->
<g id="edge87" class="edge">
<title>Node56&#45;&gt;Node1</title>
<path fill="none" stroke="#191970" d="M3158.5209,-363.7645C3166.8495,-354.03 3178.6597,-338.2123 3183.5286,-322 3187.4916,-308.8045 3187.6103,-304.1593 3183.5286,-291 3163.9538,-227.8913 3111.7537,-167.4262 3084.5503,-138.9672"/>
<polygon fill="#191970" stroke="#191970" points="3086.7651,-136.2249 3077.2805,-131.5033 3081.7506,-141.109 3086.7651,-136.2249"/>
</g>
<!-- Node56&#45;&gt;Node2 -->
<g id="edge88" class="edge">
<title>Node56&#45;&gt;Node2</title>
<path fill="none" stroke="#191970" d="M3155.9496,-363.8089C3166.0438,-347.2368 3182.8737,-313.1064 3166.5286,-291 3150.4936,-269.313 3076.4583,-253.0149 3032.1967,-245.0081"/>
<polygon fill="#191970" stroke="#191970" points="3032.6262,-241.5299 3022.1709,-243.2437 3031.4129,-248.424 3032.6262,-241.5299"/>
</g>
<!-- Node56&#45;&gt;Node31 -->
<g id="edge89" class="edge">
<title>Node56&#45;&gt;Node31</title>
<path fill="none" stroke="#191970" d="M3150.8392,-363.9844C3152.6258,-346.7425 3153.5964,-310.3346 3133.5286,-291 3112.8195,-271.0475 2926.5236,-251.1839 2842.8741,-243.1823"/>
<polygon fill="#191970" stroke="#191970" points="2843.0107,-239.6797 2832.7254,-242.2217 2842.351,-246.6486 2843.0107,-239.6797"/>
</g>
<!-- Node56&#45;&gt;Node55 -->
<g id="edge90" class="edge">
<title>Node56&#45;&gt;Node55</title>
<path fill="none" stroke="#191970" d="M3116.0021,-363.9005C3074.6465,-352.0594 3004.258,-331.9054 2958.8448,-318.9025"/>
<polygon fill="#191970" stroke="#191970" points="2959.5701,-315.4696 2948.9929,-316.0817 2957.6432,-322.1992 2959.5701,-315.4696"/>
</g>
<!-- Node57&#45;&gt;Node1 -->
<g id="edge92" class="edge">
<title>Node57&#45;&gt;Node1</title>
<path fill="none" stroke="#191970" d="M2762.6751,-556.3931C2968.7451,-550.3895 3600.5286,-525.0861 3600.5286,-440.5 3600.5286,-440.5 3600.5286,-440.5 3600.5286,-306.5 3600.5286,-249.9048 3554.6771,-248.225 3503.5286,-224 3422.6939,-185.7149 3391.932,-211.1183 3305.5286,-188 3279.9981,-181.169 3274.8918,-175.4283 3249.5286,-168 3184.4426,-148.9376 3163.5203,-152.4253 3098.6307,-133.4068"/>
<polygon fill="#191970" stroke="#191970" points="3099.3115,-129.9568 3088.7273,-130.4321 3097.2977,-136.6609 3099.3115,-129.9568"/>
</g>
<!-- Node57&#45;&gt;Node7 -->
<g id="edge107" class="edge">
<title>Node57&#45;&gt;Node7</title>
<path fill="none" stroke="#191970" d="M2662.7722,-548.3733C2627.586,-538.9001 2573.7406,-524.4032 2535.633,-514.1435"/>
<polygon fill="#191970" stroke="#191970" points="2536.3846,-510.7213 2525.8185,-511.5011 2534.5647,-517.4806 2536.3846,-510.7213"/>
</g>
<!-- Node57&#45;&gt;Node55 -->
<g id="edge106" class="edge">
<title>Node57&#45;&gt;Node55</title>
<path fill="none" stroke="#191970" d="M2704.321,-548.2449C2709.7366,-539.0116 2717.953,-524.7105 2724.5286,-512 2761.5886,-440.3645 2758.3297,-409.3457 2820.5286,-358 2839.3414,-342.4699 2863.5526,-329.4295 2882.8245,-320.3563"/>
<polygon fill="#191970" stroke="#191970" points="2884.4818,-323.447 2892.1196,-316.1044 2881.5699,-317.0814 2884.4818,-323.447"/>
</g>
<!-- Node58 -->
<g id="node59" class="node">
<title>Node58</title>
<g id="a_node59"><a xlink:href="../../db/dd0/TrackMFT_8h.html" target="_top" xlink:title="DataFormatsMFT/TrackMFT.h">
<polygon fill="none" stroke="#000000" points="3239.0286,-431 3239.0286,-450 3394.0286,-450 3394.0286,-431 3239.0286,-431"/>
<text text-anchor="middle" x="3316.5286" y="-438" font-family="Helvetica,sans-Serif" font-size="10.00" fill="#000000">DataFormatsMFT/TrackMFT.h</text>
</a>
</g>
</g>
<!-- Node57&#45;&gt;Node58 -->
<g id="edge93" class="edge">
<title>Node57&#45;&gt;Node58</title>
<path fill="none" stroke="#191970" d="M2748.5787,-548.484C2861.355,-527.0419 3134.9522,-475.023 3256.555,-451.9027"/>
<polygon fill="#191970" stroke="#191970" points="3257.2731,-455.329 3266.4434,-450.0227 3255.9656,-448.4522 3257.2731,-455.329"/>
</g>
<!-- Node57&#45;&gt;Node62 -->
<g id="edge105" class="edge">
<title>Node57&#45;&gt;Node62</title>
<path fill="none" stroke="#191970" d="M2655.7756,-548.4456C2635.3413,-541.6702 2612.3739,-530.4002 2598.5286,-512 2573.6545,-478.9425 2572.5651,-428.6635 2574.6341,-398.6465"/>
<polygon fill="#191970" stroke="#191970" points="2578.1305,-398.8371 2575.5011,-388.5738 2571.1563,-398.2368 2578.1305,-398.8371"/>
</g>
<!-- Node64 -->
<g id="node65" class="node">
<title>Node64</title>
<polygon fill="none" stroke="#bfbfbf" points="2607.5286,-492.5 2607.5286,-511.5 2715.5286,-511.5 2715.5286,-492.5 2607.5286,-492.5"/>
<text text-anchor="middle" x="2661.5286" y="-499.5" font-family="Helvetica,sans-Serif" font-size="10.00" fill="#000000">fairlogger/Logger.h</text>
</g>
<!-- Node57&#45;&gt;Node64 -->
<g id="edge108" class="edge">
<title>Node57&#45;&gt;Node64</title>
<path fill="none" stroke="#191970" d="M2692.0837,-548.2455C2686.9904,-540.5367 2679.7378,-529.5598 2673.5766,-520.2348"/>
<polygon fill="#191970" stroke="#191970" points="2676.3325,-518.0566 2667.8997,-511.6427 2670.4921,-521.9155 2676.3325,-518.0566"/>
</g>
<!-- Node58&#45;&gt;Node2 -->
<g id="edge94" class="edge">
<title>Node58&#45;&gt;Node2</title>
<path fill="none" stroke="#191970" d="M3314.7983,-430.9835C3309.4141,-404.2639 3290.3599,-328.0908 3242.5286,-291 3210.0113,-265.7845 3091.2555,-249.621 3032.2583,-242.9693"/>
<polygon fill="#191970" stroke="#191970" points="3032.6323,-239.4894 3022.3093,-241.8742 3031.8663,-246.4474 3032.6323,-239.4894"/>
</g>
<!-- Node59 -->
<g id="node60" class="node">
<title>Node59</title>
<polygon fill="none" stroke="#bfbfbf" points="3332.5286,-297 3332.5286,-316 3388.5286,-316 3388.5286,-297 3332.5286,-297"/>
<text text-anchor="middle" x="3360.5286" y="-304" font-family="Helvetica,sans-Serif" font-size="10.00" fill="#000000">TMath.h</text>
</g>
<!-- Node58&#45;&gt;Node59 -->
<g id="edge95" class="edge">
<title>Node58&#45;&gt;Node59</title>
<path fill="none" stroke="#191970" d="M3318.057,-430.6453C3320.6524,-414.9654 3326.5317,-383.5036 3335.5286,-358 3339.5041,-346.7309 3345.2599,-334.687 3350.2468,-325.082"/>
<polygon fill="#191970" stroke="#191970" points="3353.4263,-326.5584 3355.0585,-316.09 3347.2544,-323.2557 3353.4263,-326.5584"/>
</g>
<!-- Node60 -->
<g id="node61" class="node">
<title>Node60</title>
<polygon fill="none" stroke="#bfbfbf" points="3445.0286,-297 3445.0286,-316 3534.0286,-316 3534.0286,-297 3445.0286,-297"/>
<text text-anchor="middle" x="3489.5286" y="-304" font-family="Helvetica,sans-Serif" font-size="10.00" fill="#000000">Math/SMatrix.h</text>
</g>
<!-- Node58&#45;&gt;Node60 -->
<g id="edge96" class="edge">
<title>Node58&#45;&gt;Node60</title>
<path fill="none" stroke="#191970" d="M3383.3742,-430.9869C3431.5089,-422.6087 3490.5085,-408.6605 3505.5286,-389 3519.5784,-370.6096 3510.0738,-343.3346 3500.8106,-325.2461"/>
<polygon fill="#191970" stroke="#191970" points="3503.742,-323.3146 3495.8403,-316.2568 3497.6161,-326.7018 3503.742,-323.3146"/>
</g>
<!-- Node61 -->
<g id="node62" class="node">
<title>Node61</title>
<g id="a_node62"><a xlink:href="../../de/d64/RangeReference_8h.html" target="_top" xlink:title="Class to refer to the 1st entry and N elements of some group in the continuous container. ">
<polygon fill="none" stroke="#000000" points="2438.5286,-297 2438.5286,-316 2648.5286,-316 2648.5286,-297 2438.5286,-297"/>
<text text-anchor="middle" x="2543.5286" y="-304" font-family="Helvetica,sans-Serif" font-size="10.00" fill="#000000">CommonDataFormat/RangeReference.h</text>
</a>
</g>
</g>
<!-- Node58&#45;&gt;Node61 -->
<g id="edge97" class="edge">
<title>Node58&#45;&gt;Node61</title>
<path fill="none" stroke="#191970" d="M3238.8164,-434.8388C3148.7389,-427.5312 2996.0665,-412.841 2866.5286,-389 2763.813,-370.0955 2645.4126,-336.8497 2584.4774,-318.8743"/>
<polygon fill="#191970" stroke="#191970" points="2585.4299,-315.5062 2574.8475,-316.0193 2583.4401,-322.2174 2585.4299,-315.5062"/>
</g>
<!-- Node58&#45;&gt;Node62 -->
<g id="edge99" class="edge">
<title>Node58&#45;&gt;Node62</title>
<path fill="none" stroke="#191970" d="M3238.8699,-437.4323C3115.0201,-431.8704 2865.3381,-417.9163 2655.5286,-389 2654.2208,-388.8197 2652.9017,-388.6313 2651.5743,-388.4356"/>
<polygon fill="#191970" stroke="#191970" points="2651.6995,-384.912 2641.2754,-386.8065 2650.6057,-391.826 2651.6995,-384.912"/>
</g>
<!-- Node63 -->
<g id="node64" class="node">
<title>Node63</title>
<g id="a_node64"><a xlink:href="../../d7/df7/TrackFwd_8h.html" target="_top" xlink:title="Base forward track model, params only, w/o covariance. ">
<polygon fill="none" stroke="#000000" points="3344.5286,-358.5 3344.5286,-388.5 3496.5286,-388.5 3496.5286,-358.5 3344.5286,-358.5"/>
<text text-anchor="start" x="3352.5286" y="-376.5" font-family="Helvetica,sans-Serif" font-size="10.00" fill="#000000">ReconstructionDataFormats</text>
<text text-anchor="middle" x="3420.5286" y="-365.5" font-family="Helvetica,sans-Serif" font-size="10.00" fill="#000000">/TrackFwd.h</text>
</a>
</g>
</g>
<!-- Node58&#45;&gt;Node63 -->
<g id="edge101" class="edge">
<title>Node58&#45;&gt;Node63</title>
<path fill="none" stroke="#191970" d="M3331.4293,-430.9005C3346.3334,-421.2988 3369.7219,-406.2313 3388.7967,-393.9427"/>
<polygon fill="#191970" stroke="#191970" points="3390.7002,-396.8798 3397.2113,-388.5218 3386.9092,-390.9953 3390.7002,-396.8798"/>
</g>
<!-- Node61&#45;&gt;Node13 -->
<g id="edge98" class="edge">
<title>Node61&#45;&gt;Node13</title>
<path fill="none" stroke="#191970" d="M2549.2597,-296.9005C2555.3191,-286.751 2565.0247,-270.4941 2572.5627,-257.8679"/>
<polygon fill="#191970" stroke="#191970" points="2575.6873,-259.462 2577.8082,-249.0817 2569.6769,-255.8737 2575.6873,-259.462"/>
</g>
<!-- Node62&#45;&gt;Node13 -->
<g id="edge100" class="edge">
<title>Node62&#45;&gt;Node13</title>
<path fill="none" stroke="#191970" d="M2513.9166,-359.1507C2478.6601,-349.7696 2439.8923,-336.5795 2429.5286,-322 2421.5461,-310.7703 2421.4781,-302.181 2429.5286,-291 2441.2099,-274.7764 2487.2147,-260.7222 2525.9266,-251.413"/>
<polygon fill="#191970" stroke="#191970" points="2527.1605,-254.7189 2536.1003,-249.0329 2525.5659,-247.903 2527.1605,-254.7189"/>
</g>
<!-- Node63&#45;&gt;Node38 -->
<g id="edge104" class="edge">
<title>Node63&#45;&gt;Node38</title>
<path fill="none" stroke="#191970" d="M3418.2733,-358.389C3414.6441,-334.0735 3407.5084,-286.2644 3403.4793,-259.2698"/>
<polygon fill="#191970" stroke="#191970" points="3406.9,-258.4779 3401.9621,-249.1042 3399.9767,-259.5113 3406.9,-258.4779"/>
</g>
<!-- Node63&#45;&gt;Node59 -->
<g id="edge102" class="edge">
<title>Node63&#45;&gt;Node59</title>
<path fill="none" stroke="#191970" d="M3406.9137,-358.2967C3397.6562,-347.9591 3385.3959,-334.2684 3375.8051,-323.5588"/>
<polygon fill="#191970" stroke="#191970" points="3378.3639,-321.1696 3369.0853,-316.055 3373.1492,-325.8394 3378.3639,-321.1696"/>
</g>
<!-- Node63&#45;&gt;Node60 -->
<g id="edge103" class="edge">
<title>Node63&#45;&gt;Node60</title>
<path fill="none" stroke="#191970" d="M3436.1858,-358.2967C3446.9363,-347.8578 3461.2081,-333.9997 3472.2842,-323.2446"/>
<polygon fill="#191970" stroke="#191970" points="3474.9524,-325.5323 3479.6884,-316.055 3470.0759,-320.5103 3474.9524,-325.5323"/>
</g>
<!-- Node65&#45;&gt;Node55 -->
<g id="edge111" class="edge">
<title>Node65&#45;&gt;Node55</title>
<path fill="none" stroke="#191970" d="M2828.1465,-430.8105C2824.7093,-414.5359 2820.1376,-381.2165 2833.5286,-358 2843.4504,-340.7984 2861.6747,-328.5062 2878.4272,-320.2553"/>
<polygon fill="#191970" stroke="#191970" points="2879.8921,-323.4341 2887.5206,-316.0817 2876.9721,-317.0721 2879.8921,-323.4341"/>
</g>
<!-- Node65&#45;&gt;Node56 -->
<g id="edge110" class="edge">
<title>Node65&#45;&gt;Node56</title>
<path fill="none" stroke="#191970" d="M2875.8948,-430.9717C2933.3316,-418.9082 3032.2348,-398.1354 3094.0888,-385.1441"/>
<polygon fill="#191970" stroke="#191970" points="3094.994,-388.5304 3104.061,-383.0496 3093.5551,-381.6799 3094.994,-388.5304"/>
</g>
<!-- Node65&#45;&gt;Node62 -->
<g id="edge112" class="edge">
<title>Node65&#45;&gt;Node62</title>
<path fill="none" stroke="#191970" d="M2794.5486,-430.9717C2755.4936,-420.6291 2692.2652,-403.8848 2644.1057,-391.1311"/>
<polygon fill="#191970" stroke="#191970" points="2644.9422,-387.732 2634.3794,-388.5553 2643.1502,-394.4988 2644.9422,-387.732"/>
</g>
<!-- Node66&#45;&gt;Node2 -->
<g id="edge123" class="edge">
<title>Node66&#45;&gt;Node2</title>
<path fill="none" stroke="#191970" d="M1862.214,-302.2806C1912.9399,-298.9891 1985.7683,-294.4176 2049.5286,-291 2401.387,-272.1403 2490.076,-280.3185 2841.5286,-255 2884.1127,-251.9323 2933.0473,-246.8536 2964.8102,-243.3504"/>
<polygon fill="#191970" stroke="#191970" points="2965.3385,-246.8133 2974.8896,-242.2279 2964.5637,-239.8563 2965.3385,-246.8133"/>
</g>
<!-- Node66&#45;&gt;Node4 -->
<g id="edge117" class="edge">
<title>Node66&#45;&gt;Node4</title>
<path fill="none" stroke="#191970" d="M1759.735,-291.3156C1742.7754,-282.9131 1723.9567,-270.9051 1711.5286,-255 1698.5467,-238.386 1692.8767,-214.5537 1690.4099,-197.8153"/>
<polygon fill="#191970" stroke="#191970" points="1693.8419,-197.0423 1689.1633,-187.5364 1686.8928,-197.8851 1693.8419,-197.0423"/>
</g>
<!-- Node66&#45;&gt;Node5 -->
<g id="edge119" class="edge">
<title>Node66&#45;&gt;Node5</title>
<path fill="none" stroke="#191970" d="M1804.4284,-291.2967C1808.204,-281.5672 1813.1323,-268.8675 1817.1639,-258.4784"/>
<polygon fill="#191970" stroke="#191970" points="1820.4659,-259.6439 1820.8207,-249.055 1813.94,-257.1114 1820.4659,-259.6439"/>
</g>
<!-- Node66&#45;&gt;Node13 -->
<g id="edge115" class="edge">
<title>Node66&#45;&gt;Node13</title>
<path fill="none" stroke="#191970" d="M1862.1035,-301.0739C2006.431,-288.7555 2358.1174,-258.7389 2510.7962,-245.7077"/>
<polygon fill="#191970" stroke="#191970" points="2511.3343,-249.1746 2521.0004,-244.8368 2510.7389,-242.2 2511.3343,-249.1746"/>
</g>
<!-- Node66&#45;&gt;Node34 -->
<g id="edge116" class="edge">
<title>Node66&#45;&gt;Node34</title>
<path fill="none" stroke="#191970" d="M1760.8481,-291.4797C1705.3885,-267.2444 1612.5556,-217.2357 1653.5286,-168 1680.3101,-135.8177 1805.0916,-126.0598 1867.2094,-123.173"/>
<polygon fill="#191970" stroke="#191970" points="1867.4895,-126.6643 1877.3299,-122.7379 1867.1888,-119.6707 1867.4895,-126.6643"/>
</g>
<!-- Node66&#45;&gt;Node37 -->
<g id="edge120" class="edge">
<title>Node66&#45;&gt;Node37</title>
<path fill="none" stroke="#191970" d="M1821.6438,-291.4639C1838.4588,-280.526 1861.1449,-265.769 1878.0448,-254.7759"/>
<polygon fill="#191970" stroke="#191970" points="1880.2903,-257.4906 1886.7644,-249.1039 1876.4733,-251.6228 1880.2903,-257.4906"/>
</g>
<!-- Node66&#45;&gt;Node48 -->
<g id="edge122" class="edge">
<title>Node66&#45;&gt;Node48</title>
<path fill="none" stroke="#191970" d="M1760.8374,-291.3598C1745.4325,-283.0741 1729.2169,-271.1476 1720.5286,-255 1714.0005,-242.867 1712.9702,-235.5195 1720.5286,-224 1735.3582,-201.3987 1763.9448,-189.8457 1787.6972,-183.9721"/>
<polygon fill="#191970" stroke="#191970" points="1788.5245,-187.3737 1797.5266,-181.7868 1787.0054,-180.5405 1788.5245,-187.3737"/>
</g>
<!-- Node66&#45;&gt;Node49 -->
<g id="edge121" class="edge">
<title>Node66&#45;&gt;Node49</title>
<path fill="none" stroke="#191970" d="M1781.7338,-291.3263C1764.7113,-274.0791 1742.9394,-245.5314 1758.5286,-224 1761.7358,-219.5703 1823.1294,-200.5324 1863.5414,-188.3795"/>
<polygon fill="#191970" stroke="#191970" points="1864.7406,-191.674 1873.3153,-185.4512 1862.7315,-184.9685 1864.7406,-191.674"/>
</g>
<!-- Node66&#45;&gt;Node50 -->
<g id="edge118" class="edge">
<title>Node66&#45;&gt;Node50</title>
<path fill="none" stroke="#191970" d="M1791.6022,-291.3484C1784.5198,-273.3282 1776.5025,-243.2706 1791.5286,-224 1792.6316,-222.5855 1877.9442,-201.5603 1931.6826,-188.4302"/>
<polygon fill="#191970" stroke="#191970" points="1932.7637,-191.7692 1941.6483,-185.9973 1931.1035,-184.9689 1932.7637,-191.7692"/>
</g>
</g>
</svg>
