<?xml version="1.0" encoding="UTF-8" standalone="no"?>
<!DOCTYPE svg PUBLIC "-//W3C//DTD SVG 1.1//EN"
 "http://www.w3.org/Graphics/SVG/1.1/DTD/svg11.dtd">
<!-- Generated by graphviz version 2.40.1 (20161225.0304)
 -->
<!-- Title: DTask Pages: 1 -->
<svg width="902pt" height="1094pt"
 viewBox="0.00 0.00 902.44 1094.00" xmlns="http://www.w3.org/2000/svg" xmlns:xlink="http://www.w3.org/1999/xlink">
<g id="graph0" class="graph" transform="scale(1 1) rotate(0) translate(4 1090)">
<title>DTask</title>
<!-- Node1 -->
<g id="node1" class="node">
<title>Node1</title>
<polygon fill="#bfbfbf" stroke="#000000" points="686.4364,-.5 686.4364,-123.5 759.4364,-123.5 759.4364,-.5 686.4364,-.5"/>
<text text-anchor="middle" x="722.9364" y="-111.5" font-family="Helvetica,sans-Serif" font-size="10.00" fill="#000000">DTask</text>
<polyline fill="none" stroke="#000000" points="686.4364,-104.5 759.4364,-104.5 "/>
<text text-anchor="middle" x="722.9364" y="-92.5" font-family="Helvetica,sans-Serif" font-size="10.00" fill="#000000"> </text>
<polyline fill="none" stroke="#000000" points="686.4364,-85.5 759.4364,-85.5 "/>
<text text-anchor="start" x="694.4364" y="-73.5" font-family="Helvetica,sans-Serif" font-size="10.00" fill="#000000">+ process()</text>
<text text-anchor="start" x="694.4364" y="-62.5" font-family="Helvetica,sans-Serif" font-size="10.00" fill="#000000">+ init()</text>
<text text-anchor="start" x="694.4364" y="-51.5" font-family="Helvetica,sans-Serif" font-size="10.00" fill="#000000">+ process()</text>
<text text-anchor="start" x="694.4364" y="-40.5" font-family="Helvetica,sans-Serif" font-size="10.00" fill="#000000">+ init()</text>
<text text-anchor="start" x="694.4364" y="-29.5" font-family="Helvetica,sans-Serif" font-size="10.00" fill="#000000">+ process()</text>
<text text-anchor="start" x="694.4364" y="-18.5" font-family="Helvetica,sans-Serif" font-size="10.00" fill="#000000">+ process()</text>
<text text-anchor="start" x="694.4364" y="-7.5" font-family="Helvetica,sans-Serif" font-size="10.00" fill="#000000">+ process()</text>
</g>
<!-- Node2 -->
<g id="node2" class="node">
<title>Node2</title>
<g id="a_node2"><a xlink:href="../../d8/d34/classo2_1_1framework_1_1HistogramRegistry.html" target="_top" xlink:title="{o2::framework::Histogram\lRegistry\n||+ HistogramRegistry()\l+ add()\l+ add()\l+ add()\l+ addClone()\l+ get()\l+ operator()()\l+ spec()\l+ ref()\l+ setHash()\l+ operator*()\l+ fill()\l+ fill()\l+ getSize()\l+ getSize()\l+ print()\l}">
<polygon fill="none" stroke="#000000" points="749.4364,-368.5 749.4364,-601.5 894.4364,-601.5 894.4364,-368.5 749.4364,-368.5"/>
<text text-anchor="start" x="757.4364" y="-589.5" font-family="Helvetica,sans-Serif" font-size="10.00" fill="#000000">o2::framework::Histogram</text>
<text text-anchor="middle" x="821.9364" y="-578.5" font-family="Helvetica,sans-Serif" font-size="10.00" fill="#000000">Registry</text>
<polyline fill="none" stroke="#000000" points="749.4364,-571.5 894.4364,-571.5 "/>
<text text-anchor="middle" x="821.9364" y="-559.5" font-family="Helvetica,sans-Serif" font-size="10.00" fill="#000000"> </text>
<polyline fill="none" stroke="#000000" points="749.4364,-552.5 894.4364,-552.5 "/>
<text text-anchor="start" x="757.4364" y="-540.5" font-family="Helvetica,sans-Serif" font-size="10.00" fill="#000000">+ HistogramRegistry()</text>
<text text-anchor="start" x="757.4364" y="-529.5" font-family="Helvetica,sans-Serif" font-size="10.00" fill="#000000">+ add()</text>
<text text-anchor="start" x="757.4364" y="-518.5" font-family="Helvetica,sans-Serif" font-size="10.00" fill="#000000">+ add()</text>
<text text-anchor="start" x="757.4364" y="-507.5" font-family="Helvetica,sans-Serif" font-size="10.00" fill="#000000">+ add()</text>
<text text-anchor="start" x="757.4364" y="-496.5" font-family="Helvetica,sans-Serif" font-size="10.00" fill="#000000">+ addClone()</text>
<text text-anchor="start" x="757.4364" y="-485.5" font-family="Helvetica,sans-Serif" font-size="10.00" fill="#000000">+ get()</text>
<text text-anchor="start" x="757.4364" y="-474.5" font-family="Helvetica,sans-Serif" font-size="10.00" fill="#000000">+ operator()()</text>
<text text-anchor="start" x="757.4364" y="-463.5" font-family="Helvetica,sans-Serif" font-size="10.00" fill="#000000">+ spec()</text>
<text text-anchor="start" x="757.4364" y="-452.5" font-family="Helvetica,sans-Serif" font-size="10.00" fill="#000000">+ ref()</text>
<text text-anchor="start" x="757.4364" y="-441.5" font-family="Helvetica,sans-Serif" font-size="10.00" fill="#000000">+ setHash()</text>
<text text-anchor="start" x="757.4364" y="-430.5" font-family="Helvetica,sans-Serif" font-size="10.00" fill="#000000">+ operator*()</text>
<text text-anchor="start" x="757.4364" y="-419.5" font-family="Helvetica,sans-Serif" font-size="10.00" fill="#000000">+ fill()</text>
<text text-anchor="start" x="757.4364" y="-408.5" font-family="Helvetica,sans-Serif" font-size="10.00" fill="#000000">+ fill()</text>
<text text-anchor="start" x="757.4364" y="-397.5" font-family="Helvetica,sans-Serif" font-size="10.00" fill="#000000">+ getSize()</text>
<text text-anchor="start" x="757.4364" y="-386.5" font-family="Helvetica,sans-Serif" font-size="10.00" fill="#000000">+ getSize()</text>
<text text-anchor="start" x="757.4364" y="-375.5" font-family="Helvetica,sans-Serif" font-size="10.00" fill="#000000">+ print()</text>
</a>
</g>
</g>
<!-- Node2&#45;&gt;Node1 -->
<g id="edge1" class="edge">
<title>Node2&#45;&gt;Node1</title>
<path fill="none" stroke="#404040" d="M749.2308,-375.6672C739.8437,-361.343 733.3017,-351.145 732.9364,-350 710.5802,-279.9145 710.6067,-195.3258 714.6792,-136.0166"/>
<polygon fill="none" stroke="#404040" points="714.7011,-135.7248 711.1634,-129.4411 715.6031,-123.7587 719.1408,-130.0424 714.7011,-135.7248"/>
<text text-anchor="middle" x="760.4364" y="-263.5" font-family="Helvetica,sans-Serif" font-size="10.00" fill="#000000"> +etaStudy</text>
<text text-anchor="middle" x="760.4364" y="-252.5" font-family="Helvetica,sans-Serif" font-size="10.00" fill="#000000">+spectra</text>
</g>
<!-- Node3 -->
<g id="node3" class="node">
<title>Node3</title>
<polygon fill="none" stroke="#bfbfbf" points="701.9364,-863 701.9364,-920 757.9364,-920 757.9364,-863 701.9364,-863"/>
<text text-anchor="middle" x="729.9364" y="-908" font-family="Helvetica,sans-Serif" font-size="10.00" fill="#000000">uint32_t</text>
<polyline fill="none" stroke="#bfbfbf" points="701.9364,-901 757.9364,-901 "/>
<text text-anchor="middle" x="729.9364" y="-889" font-family="Helvetica,sans-Serif" font-size="10.00" fill="#000000"> </text>
<polyline fill="none" stroke="#bfbfbf" points="701.9364,-882 757.9364,-882 "/>
<text text-anchor="middle" x="729.9364" y="-870" font-family="Helvetica,sans-Serif" font-size="10.00" fill="#000000"> </text>
</g>
<!-- Node3&#45;&gt;Node2 -->
<g id="edge2" class="edge">
<title>Node3&#45;&gt;Node2</title>
<path fill="none" stroke="#404040" d="M756.4403,-862.6826C772.681,-843.1466 792.1695,-815.8893 801.9364,-788 821.2138,-732.9538 827.5646,-668.8963 828.5613,-613.8966"/>
<polygon fill="none" stroke="#404040" points="828.5647,-613.5801 824.632,-607.5358 828.6988,-601.5809 832.6315,-607.6252 828.5647,-613.5801"/>
<text text-anchor="middle" x="815.4364" y="-809" font-family="Helvetica,sans-Serif" font-size="10.00" fill="#000000"> +lookup</text>
</g>
<!-- Node5 -->
<g id="node5" class="node">
<title>Node5</title>
<g id="a_node5"><a xlink:href="../../d4/d79/structo2_1_1framework_1_1OutputObj.html" target="_top" xlink:title="{o2::framework::OutputObj\l\&lt; TList \&gt;\n||+ spec()\l+ OutputObj()\l+ OutputObj()\l+ setObject()\l+ setObject()\l+ setObject()\l+ setObject()\l+ setHash()\l+ operator&#45;\&gt;()\l+ operator*()\l+ ref()\l}">
<polygon fill="none" stroke="#000000" points="416.4364,-171.5 416.4364,-349.5 559.4364,-349.5 559.4364,-171.5 416.4364,-171.5"/>
<text text-anchor="start" x="424.4364" y="-337.5" font-family="Helvetica,sans-Serif" font-size="10.00" fill="#000000">o2::framework::OutputObj</text>
<text text-anchor="middle" x="487.9364" y="-326.5" font-family="Helvetica,sans-Serif" font-size="10.00" fill="#000000">&lt; TList &gt;</text>
<polyline fill="none" stroke="#000000" points="416.4364,-319.5 559.4364,-319.5 "/>
<text text-anchor="middle" x="487.9364" y="-307.5" font-family="Helvetica,sans-Serif" font-size="10.00" fill="#000000"> </text>
<polyline fill="none" stroke="#000000" points="416.4364,-300.5 559.4364,-300.5 "/>
<text text-anchor="start" x="424.4364" y="-288.5" font-family="Helvetica,sans-Serif" font-size="10.00" fill="#000000">+ spec()</text>
<text text-anchor="start" x="424.4364" y="-277.5" font-family="Helvetica,sans-Serif" font-size="10.00" fill="#000000">+ OutputObj()</text>
<text text-anchor="start" x="424.4364" y="-266.5" font-family="Helvetica,sans-Serif" font-size="10.00" fill="#000000">+ OutputObj()</text>
<text text-anchor="start" x="424.4364" y="-255.5" font-family="Helvetica,sans-Serif" font-size="10.00" fill="#000000">+ setObject()</text>
<text text-anchor="start" x="424.4364" y="-244.5" font-family="Helvetica,sans-Serif" font-size="10.00" fill="#000000">+ setObject()</text>
<text text-anchor="start" x="424.4364" y="-233.5" font-family="Helvetica,sans-Serif" font-size="10.00" fill="#000000">+ setObject()</text>
<text text-anchor="start" x="424.4364" y="-222.5" font-family="Helvetica,sans-Serif" font-size="10.00" fill="#000000">+ setObject()</text>
<text text-anchor="start" x="424.4364" y="-211.5" font-family="Helvetica,sans-Serif" font-size="10.00" fill="#000000">+ setHash()</text>
<text text-anchor="start" x="424.4364" y="-200.5" font-family="Helvetica,sans-Serif" font-size="10.00" fill="#000000">+ operator&#45;&gt;()</text>
<text text-anchor="start" x="424.4364" y="-189.5" font-family="Helvetica,sans-Serif" font-size="10.00" fill="#000000">+ operator*()</text>
<text text-anchor="start" x="424.4364" y="-178.5" font-family="Helvetica,sans-Serif" font-size="10.00" fill="#000000">+ ref()</text>
</a>
</g>
</g>
<!-- Node3&#45;&gt;Node5 -->
<g id="edge7" class="edge">
<title>Node3&#45;&gt;Node5</title>
<path fill="none" stroke="#404040" d="M725.3864,-862.8003C711.6615,-781.4035 665.8461,-543.6071 573.9364,-368 571.4696,-363.2868 568.7816,-358.5805 565.9296,-353.9156"/>
<polygon fill="none" stroke="#404040" points="565.9137,-353.8907 559.3106,-350.9926 559.4461,-343.7827 566.0493,-346.6808 565.9137,-353.8907"/>
<text text-anchor="middle" x="745.9364" y="-701.5" font-family="Helvetica,sans-Serif" font-size="10.00" fill="#000000"> +mTaskHash</text>
</g>
<!-- Node14 -->
<g id="node14" class="node">
<title>Node14</title>
<g id="a_node14"><a xlink:href="../../d4/d79/structo2_1_1framework_1_1OutputObj.html" target="_top" xlink:title="{o2::framework::OutputObj\&lt; T \&gt;\n||+ OutputObj()\l+ OutputObj()\l+ setObject()\l+ setObject()\l+ setObject()\l+ setObject()\l+ setHash()\l+ spec()\l+ operator&#45;\&gt;()\l+ operator*()\l+ ref()\l}">
<polygon fill="none" stroke="#000000" points="311.9364,-620.5 311.9364,-787.5 483.9364,-787.5 483.9364,-620.5 311.9364,-620.5"/>
<text text-anchor="middle" x="397.9364" y="-775.5" font-family="Helvetica,sans-Serif" font-size="10.00" fill="#000000">o2::framework::OutputObj&lt; T &gt;</text>
<polyline fill="none" stroke="#000000" points="311.9364,-768.5 483.9364,-768.5 "/>
<text text-anchor="middle" x="397.9364" y="-756.5" font-family="Helvetica,sans-Serif" font-size="10.00" fill="#000000"> </text>
<polyline fill="none" stroke="#000000" points="311.9364,-749.5 483.9364,-749.5 "/>
<text text-anchor="start" x="319.9364" y="-737.5" font-family="Helvetica,sans-Serif" font-size="10.00" fill="#000000">+ OutputObj()</text>
<text text-anchor="start" x="319.9364" y="-726.5" font-family="Helvetica,sans-Serif" font-size="10.00" fill="#000000">+ OutputObj()</text>
<text text-anchor="start" x="319.9364" y="-715.5" font-family="Helvetica,sans-Serif" font-size="10.00" fill="#000000">+ setObject()</text>
<text text-anchor="start" x="319.9364" y="-704.5" font-family="Helvetica,sans-Serif" font-size="10.00" fill="#000000">+ setObject()</text>
<text text-anchor="start" x="319.9364" y="-693.5" font-family="Helvetica,sans-Serif" font-size="10.00" fill="#000000">+ setObject()</text>
<text text-anchor="start" x="319.9364" y="-682.5" font-family="Helvetica,sans-Serif" font-size="10.00" fill="#000000">+ setObject()</text>
<text text-anchor="start" x="319.9364" y="-671.5" font-family="Helvetica,sans-Serif" font-size="10.00" fill="#000000">+ setHash()</text>
<text text-anchor="start" x="319.9364" y="-660.5" font-family="Helvetica,sans-Serif" font-size="10.00" fill="#000000">+ spec()</text>
<text text-anchor="start" x="319.9364" y="-649.5" font-family="Helvetica,sans-Serif" font-size="10.00" fill="#000000">+ operator&#45;&gt;()</text>
<text text-anchor="start" x="319.9364" y="-638.5" font-family="Helvetica,sans-Serif" font-size="10.00" fill="#000000">+ operator*()</text>
<text text-anchor="start" x="319.9364" y="-627.5" font-family="Helvetica,sans-Serif" font-size="10.00" fill="#000000">+ ref()</text>
</a>
</g>
</g>
<!-- Node3&#45;&gt;Node14 -->
<g id="edge17" class="edge">
<title>Node3&#45;&gt;Node14</title>
<path fill="none" stroke="#404040" d="M707.7901,-862.9992C698.6071,-852.8596 687.2257,-842.1873 674.9364,-835 639.8068,-814.4548 534.0508,-806.7604 497.9364,-788 496.9241,-787.4741 495.913,-786.9365 494.9033,-786.3877"/>
<polygon fill="none" stroke="#404040" points="494.5218,-786.1649 487.3234,-786.5934 484.1593,-780.1135 491.3577,-779.6851 494.5218,-786.1649"/>
<text text-anchor="middle" x="650.9364" y="-809" font-family="Helvetica,sans-Serif" font-size="10.00" fill="#000000"> +mTaskHash</text>
</g>
<!-- Node4 -->
<g id="node4" class="node">
<title>Node4</title>
<polygon fill="none" stroke="#bfbfbf" points="796.4364,-232 796.4364,-289 837.4364,-289 837.4364,-232 796.4364,-232"/>
<text text-anchor="middle" x="816.9364" y="-277" font-family="Helvetica,sans-Serif" font-size="10.00" fill="#000000">Filter</text>
<polyline fill="none" stroke="#bfbfbf" points="796.4364,-270 837.4364,-270 "/>
<text text-anchor="middle" x="816.9364" y="-258" font-family="Helvetica,sans-Serif" font-size="10.00" fill="#000000"> </text>
<polyline fill="none" stroke="#bfbfbf" points="796.4364,-251 837.4364,-251 "/>
<text text-anchor="middle" x="816.9364" y="-239" font-family="Helvetica,sans-Serif" font-size="10.00" fill="#000000"> </text>
</g>
<!-- Node4&#45;&gt;Node1 -->
<g id="edge3" class="edge">
<title>Node4&#45;&gt;Node1</title>
<path fill="none" stroke="#404040" d="M806.7811,-231.908C800.2219,-214.1481 791.2062,-190.977 781.9364,-171 776.3889,-159.0446 770.1185,-146.5705 763.7888,-134.5101"/>
<polygon fill="none" stroke="#404040" points="763.61,-134.1737 757.2619,-130.7529 757.9781,-123.5774 764.3262,-126.9982 763.61,-134.1737"/>
<text text-anchor="middle" x="805.9364" y="-145" font-family="Helvetica,sans-Serif" font-size="10.00" fill="#000000"> +notTracklet</text>
</g>
<!-- Node5&#45;&gt;Node1 -->
<g id="edge4" class="edge">
<title>Node5&#45;&gt;Node1</title>
<path fill="none" stroke="#404040" d="M559.7211,-199.8649C597.8052,-167.696 643.4803,-129.1151 676.8147,-100.9581"/>
<polygon fill="none" stroke="#404040" points="677.1391,-100.6842 679.1416,-93.7567 686.3064,-92.9407 684.3039,-99.8682 677.1391,-100.6842"/>
<text text-anchor="middle" x="640.4364" y="-145" font-family="Helvetica,sans-Serif" font-size="10.00" fill="#000000"> +list</text>
</g>
<!-- Node6 -->
<g id="node6" class="node">
<title>Node6</title>
<polygon fill="none" stroke="#bfbfbf" points="179.9364,-675.5 179.9364,-732.5 293.9364,-732.5 293.9364,-675.5 179.9364,-675.5"/>
<text text-anchor="middle" x="236.9364" y="-720.5" font-family="Helvetica,sans-Serif" font-size="10.00" fill="#000000">shared_ptr&lt; TList &gt;</text>
<polyline fill="none" stroke="#bfbfbf" points="179.9364,-713.5 293.9364,-713.5 "/>
<text text-anchor="middle" x="236.9364" y="-701.5" font-family="Helvetica,sans-Serif" font-size="10.00" fill="#000000"> </text>
<polyline fill="none" stroke="#bfbfbf" points="179.9364,-694.5 293.9364,-694.5 "/>
<text text-anchor="middle" x="236.9364" y="-682.5" font-family="Helvetica,sans-Serif" font-size="10.00" fill="#000000"> </text>
</g>
<!-- Node6&#45;&gt;Node5 -->
<g id="edge5" class="edge">
<title>Node6&#45;&gt;Node5</title>
<path fill="none" stroke="#404040" d="M243.2982,-675.3037C257.7763,-614.4334 297.5024,-469.6346 367.9364,-368 379.0191,-352.008 392.9392,-336.7695 407.3364,-323.0559"/>
<polygon fill="none" stroke="#404040" points="407.5345,-322.8724 409.2208,-315.8612 416.3412,-314.7211 414.655,-321.7323 407.5345,-322.8724"/>
<text text-anchor="middle" x="388.9364" y="-482.5" font-family="Helvetica,sans-Serif" font-size="10.00" fill="#000000"> +object</text>
</g>
<!-- Node7 -->
<g id="node7" class="node">
<title>Node7</title>
<polygon fill="none" stroke="#bfbfbf" points="103.4364,-863 103.4364,-920 242.4364,-920 242.4364,-863 103.4364,-863"/>
<text text-anchor="middle" x="172.9364" y="-908" font-family="Helvetica,sans-Serif" font-size="10.00" fill="#000000">OutputObjHandlingPolicy</text>
<polyline fill="none" stroke="#bfbfbf" points="103.4364,-901 242.4364,-901 "/>
<text text-anchor="middle" x="172.9364" y="-889" font-family="Helvetica,sans-Serif" font-size="10.00" fill="#000000"> </text>
<polyline fill="none" stroke="#bfbfbf" points="103.4364,-882 242.4364,-882 "/>
<text text-anchor="middle" x="172.9364" y="-870" font-family="Helvetica,sans-Serif" font-size="10.00" fill="#000000"> </text>
</g>
<!-- Node7&#45;&gt;Node5 -->
<g id="edge6" class="edge">
<title>Node7&#45;&gt;Node5</title>
<path fill="none" stroke="#404040" d="M157.2987,-862.5865C147.2739,-842.3517 135.1889,-814.333 129.9364,-788 115.3308,-714.7758 112.3234,-692.5596 129.9364,-620 159.6642,-497.5315 169.2477,-455.509 259.9364,-368 300.4486,-328.9083 357.8192,-301.959 404.8751,-284.82"/>
<polygon fill="none" stroke="#404040" points="404.977,-284.784 409.2982,-279.011 416.2891,-280.7793 411.968,-286.5524 404.977,-284.784"/>
<text text-anchor="middle" x="150.4364" y="-701.5" font-family="Helvetica,sans-Serif" font-size="10.00" fill="#000000"> +policy</text>
</g>
<!-- Node7&#45;&gt;Node14 -->
<g id="edge16" class="edge">
<title>Node7&#45;&gt;Node14</title>
<path fill="none" stroke="#404040" d="M209.7662,-862.9987C233.969,-844.0861 266.4367,-818.3709 302.6166,-788.1938"/>
<polygon fill="none" stroke="#404040" points="302.6916,-788.131 304.7238,-781.2122 311.8921,-780.427 309.8598,-787.3459 302.6916,-788.131"/>
<text text-anchor="middle" x="299.4364" y="-809" font-family="Helvetica,sans-Serif" font-size="10.00" fill="#000000"> +policy</text>
</g>
<!-- Node8 -->
<g id="node8" class="node">
<title>Node8</title>
<polygon fill="none" stroke="#bfbfbf" points="383.4364,-1012 383.4364,-1069 412.4364,-1069 412.4364,-1012 383.4364,-1012"/>
<text text-anchor="middle" x="397.9364" y="-1057" font-family="Helvetica,sans-Serif" font-size="10.00" fill="#000000">int</text>
<polyline fill="none" stroke="#bfbfbf" points="383.4364,-1050 412.4364,-1050 "/>
<text text-anchor="middle" x="397.9364" y="-1038" font-family="Helvetica,sans-Serif" font-size="10.00" fill="#000000"> </text>
<polyline fill="none" stroke="#bfbfbf" points="383.4364,-1031 412.4364,-1031 "/>
<text text-anchor="middle" x="397.9364" y="-1019" font-family="Helvetica,sans-Serif" font-size="10.00" fill="#000000"> </text>
</g>
<!-- Node8&#45;&gt;Node5 -->
<g id="edge8" class="edge">
<title>Node8&#45;&gt;Node5</title>
<path fill="none" stroke="#404040" d="M383.3574,-1038.3617C327.7076,-1029.8752 129.9827,-996.6461 93.9364,-948 15.2853,-841.8569 -86.3945,-636.6662 130.9364,-368 165.3883,-325.4103 310.346,-292.1452 404.6216,-274.4925"/>
<polygon fill="none" stroke="#404040" points="404.6266,-274.4917 409.8009,-269.4691 416.4273,-272.3137 411.2529,-277.3363 404.6266,-274.4917"/>
<text text-anchor="middle" x="40.9364" y="-809" font-family="Helvetica,sans-Serif" font-size="10.00" fill="#000000"> +label</text>
</g>
<!-- Node10 -->
<g id="node10" class="node">
<title>Node10</title>
<g id="a_node10"><a xlink:href="../../da/d96/structo2_1_1framework_1_1InputSpec.html" target="_top" xlink:title="{o2::framework::InputSpec\n||+ InputSpec()\l+ InputSpec()\l+ InputSpec()\l+ InputSpec()\l+ InputSpec()\l+ operator==()\l}">
<polygon fill="none" stroke="#000000" points="523.9364,-835.5 523.9364,-947.5 665.9364,-947.5 665.9364,-835.5 523.9364,-835.5"/>
<text text-anchor="middle" x="594.9364" y="-935.5" font-family="Helvetica,sans-Serif" font-size="10.00" fill="#000000">o2::framework::InputSpec</text>
<polyline fill="none" stroke="#000000" points="523.9364,-928.5 665.9364,-928.5 "/>
<text text-anchor="middle" x="594.9364" y="-916.5" font-family="Helvetica,sans-Serif" font-size="10.00" fill="#000000"> </text>
<polyline fill="none" stroke="#000000" points="523.9364,-909.5 665.9364,-909.5 "/>
<text text-anchor="start" x="531.9364" y="-897.5" font-family="Helvetica,sans-Serif" font-size="10.00" fill="#000000">+ InputSpec()</text>
<text text-anchor="start" x="531.9364" y="-886.5" font-family="Helvetica,sans-Serif" font-size="10.00" fill="#000000">+ InputSpec()</text>
<text text-anchor="start" x="531.9364" y="-875.5" font-family="Helvetica,sans-Serif" font-size="10.00" fill="#000000">+ InputSpec()</text>
<text text-anchor="start" x="531.9364" y="-864.5" font-family="Helvetica,sans-Serif" font-size="10.00" fill="#000000">+ InputSpec()</text>
<text text-anchor="start" x="531.9364" y="-853.5" font-family="Helvetica,sans-Serif" font-size="10.00" fill="#000000">+ InputSpec()</text>
<text text-anchor="start" x="531.9364" y="-842.5" font-family="Helvetica,sans-Serif" font-size="10.00" fill="#000000">+ operator==()</text>
</a>
</g>
</g>
<!-- Node8&#45;&gt;Node10 -->
<g id="edge14" class="edge">
<title>Node8&#45;&gt;Node10</title>
<path fill="none" stroke="#404040" d="M412.4767,-1019.7639C418.8257,-1011.519 426.6982,-1002.283 434.9364,-995 464.4086,-968.9452 476.8865,-969.3344 509.9364,-948 511.053,-947.2792 512.1771,-946.5522 513.3073,-945.8199"/>
<polygon fill="none" stroke="#404040" points="513.5509,-945.6613 516.3963,-939.0353 523.607,-939.1134 520.7616,-945.7394 513.5509,-945.6613"/>
<text text-anchor="middle" x="501.9364" y="-969" font-family="Helvetica,sans-Serif" font-size="10.00" fill="#000000"> +binding</text>
</g>
<!-- Node8&#45;&gt;Node14 -->
<g id="edge18" class="edge">
<title>Node8&#45;&gt;Node14</title>
<path fill="none" stroke="#404040" d="M397.9364,-1011.8102C397.9364,-965.3848 397.9364,-871.7449 397.9364,-799.874"/>
<polygon fill="none" stroke="#404040" points="397.9365,-799.6324 393.9365,-793.6324 397.9364,-787.6324 401.9365,-793.6324 397.9365,-799.6324"/>
<text text-anchor="middle" x="415.9364" y="-889" font-family="Helvetica,sans-Serif" font-size="10.00" fill="#000000"> +label</text>
</g>
<!-- Node9 -->
<g id="node9" class="node">
<title>Node9</title>
<polygon fill="none" stroke="#bfbfbf" points="462.9364,-863 462.9364,-920 500.9364,-920 500.9364,-863 462.9364,-863"/>
<text text-anchor="middle" x="481.9364" y="-908" font-family="Helvetica,sans-Serif" font-size="10.00" fill="#000000">bool</text>
<polyline fill="none" stroke="#bfbfbf" points="462.9364,-901 500.9364,-901 "/>
<text text-anchor="middle" x="481.9364" y="-889" font-family="Helvetica,sans-Serif" font-size="10.00" fill="#000000"> </text>
<polyline fill="none" stroke="#bfbfbf" points="462.9364,-882 500.9364,-882 "/>
<text text-anchor="middle" x="481.9364" y="-870" font-family="Helvetica,sans-Serif" font-size="10.00" fill="#000000"> </text>
</g>
<!-- Node9&#45;&gt;Node5 -->
<g id="edge9" class="edge">
<title>Node9&#45;&gt;Node5</title>
<path fill="none" stroke="#404040" d="M493.4241,-862.9983C498.333,-849.3282 503.4901,-832.5718 505.9364,-817 536.9065,-619.8623 522.4709,-566.8694 505.9364,-368 505.764,-365.9256 505.5731,-363.831 505.3657,-361.7218"/>
<polygon fill="none" stroke="#404040" points="505.3352,-361.4469 500.6974,-355.9252 504.0106,-349.5203 508.6485,-355.0421 505.3352,-361.4469"/>
<text text-anchor="middle" x="555.9364" y="-701.5" font-family="Helvetica,sans-Serif" font-size="10.00" fill="#000000"> +isdangling</text>
</g>
<!-- Node9&#45;&gt;Node14 -->
<g id="edge20" class="edge">
<title>Node9&#45;&gt;Node14</title>
<path fill="none" stroke="#404040" d="M466.5599,-862.7682C459.4035,-849.0477 450.9443,-832.3153 443.9364,-817 441.2374,-811.1014 438.5258,-804.997 435.8434,-798.8203"/>
<polygon fill="none" stroke="#404040" points="435.7842,-798.6822 429.7434,-794.744 431.0553,-787.6532 437.0961,-791.5914 435.7842,-798.6822"/>
<text text-anchor="middle" x="474.9364" y="-809" font-family="Helvetica,sans-Serif" font-size="10.00" fill="#000000"> +isdangling</text>
</g>
<!-- Node10&#45;&gt;Node5 -->
<g id="edge10" class="edge">
<title>Node10&#45;&gt;Node5</title>
<path fill="none" stroke="#404040" d="M597.7364,-835.347C599.6306,-780.2648 600.3196,-694.0074 590.9364,-620 576.4423,-505.6806 564.5382,-477.9169 529.9364,-368 529.2257,-365.7423 528.4912,-363.4642 527.7365,-361.1721"/>
<polygon fill="none" stroke="#404040" points="527.6745,-360.9894 521.9564,-356.5959 523.8127,-349.6278 529.5308,-354.0214 527.6745,-360.9894"/>
<text text-anchor="middle" x="615.9364" y="-701.5" font-family="Helvetica,sans-Serif" font-size="10.00" fill="#000000"> +spec</text>
</g>
<!-- Node10&#45;&gt;Node14 -->
<g id="edge21" class="edge">
<title>Node10&#45;&gt;Node14</title>
<path fill="none" stroke="#404040" d="M540.0063,-835.4472C530.0821,-825.5498 519.7649,-815.4075 509.9364,-806 504.4504,-800.749 498.7771,-795.3849 493.0285,-789.9999"/>
<polygon fill="none" stroke="#404040" points="492.7258,-789.7177 485.6096,-788.5514 483.9492,-781.5341 491.0654,-782.7003 492.7258,-789.7177"/>
<text text-anchor="middle" x="536.9364" y="-809" font-family="Helvetica,sans-Serif" font-size="10.00" fill="#000000"> +spec</text>
</g>
<!-- Node11 -->
<g id="node11" class="node">
<title>Node11</title>
<polygon fill="none" stroke="#bfbfbf" points="731.9364,-1006.5 731.9364,-1074.5 861.9364,-1074.5 861.9364,-1006.5 731.9364,-1006.5"/>
<text text-anchor="start" x="739.9364" y="-1062.5" font-family="Helvetica,sans-Serif" font-size="10.00" fill="#000000">vector&lt; o2::framework</text>
<text text-anchor="middle" x="796.9364" y="-1051.5" font-family="Helvetica,sans-Serif" font-size="10.00" fill="#000000">::ConfigParamSpec &gt;</text>
<polyline fill="none" stroke="#bfbfbf" points="731.9364,-1044.5 861.9364,-1044.5 "/>
<text text-anchor="middle" x="796.9364" y="-1032.5" font-family="Helvetica,sans-Serif" font-size="10.00" fill="#000000"> </text>
<polyline fill="none" stroke="#bfbfbf" points="731.9364,-1025.5 861.9364,-1025.5 "/>
<text text-anchor="middle" x="796.9364" y="-1013.5" font-family="Helvetica,sans-Serif" font-size="10.00" fill="#000000"> </text>
</g>
<!-- Node11&#45;&gt;Node10 -->
<g id="edge11" class="edge">
<title>Node11&#45;&gt;Node10</title>
<path fill="none" stroke="#404040" d="M750.5935,-1006.3164C728.4853,-990.0088 701.377,-970.0131 676.0142,-951.3049"/>
<polygon fill="none" stroke="#404040" points="675.6791,-951.0577 668.4761,-950.7151 666.022,-943.9344 673.225,-944.277 675.6791,-951.0577"/>
<text text-anchor="middle" x="738.4364" y="-969" font-family="Helvetica,sans-Serif" font-size="10.00" fill="#000000"> +metadata</text>
</g>
<!-- Node12 -->
<g id="node12" class="node">
<title>Node12</title>
<polygon fill="none" stroke="#bfbfbf" points="443.9364,-1012 443.9364,-1069 531.9364,-1069 531.9364,-1012 443.9364,-1012"/>
<text text-anchor="middle" x="487.9364" y="-1057" font-family="Helvetica,sans-Serif" font-size="10.00" fill="#000000">enum Lifetime</text>
<polyline fill="none" stroke="#bfbfbf" points="443.9364,-1050 531.9364,-1050 "/>
<text text-anchor="middle" x="487.9364" y="-1038" font-family="Helvetica,sans-Serif" font-size="10.00" fill="#000000"> </text>
<polyline fill="none" stroke="#bfbfbf" points="443.9364,-1031 531.9364,-1031 "/>
<text text-anchor="middle" x="487.9364" y="-1019" font-family="Helvetica,sans-Serif" font-size="10.00" fill="#000000"> </text>
</g>
<!-- Node12&#45;&gt;Node10 -->
<g id="edge12" class="edge">
<title>Node12&#45;&gt;Node10</title>
<path fill="none" stroke="#404040" d="M508.5671,-1011.7713C519.6856,-996.2885 533.8965,-976.4995 547.5664,-957.4639"/>
<polygon fill="none" stroke="#404040" points="547.6467,-957.352 547.8975,-950.1453 554.6463,-947.6049 554.3955,-954.8117 547.6467,-957.352"/>
<text text-anchor="middle" x="566.9364" y="-969" font-family="Helvetica,sans-Serif" font-size="10.00" fill="#000000"> +lifetime</text>
</g>
<!-- Node13 -->
<g id="node13" class="node">
<title>Node13</title>
<polygon fill="none" stroke="#bfbfbf" points="549.9364,-995.5 549.9364,-1085.5 713.9364,-1085.5 713.9364,-995.5 549.9364,-995.5"/>
<text text-anchor="start" x="557.9364" y="-1073.5" font-family="Helvetica,sans-Serif" font-size="10.00" fill="#000000">variant&lt; o2::framework</text>
<text text-anchor="start" x="557.9364" y="-1062.5" font-family="Helvetica,sans-Serif" font-size="10.00" fill="#000000">::ConcreteDataMatcher,</text>
<text text-anchor="start" x="557.9364" y="-1051.5" font-family="Helvetica,sans-Serif" font-size="10.00" fill="#000000"> o2::framework::data_matcher</text>
<text text-anchor="middle" x="631.9364" y="-1040.5" font-family="Helvetica,sans-Serif" font-size="10.00" fill="#000000">::DataDescriptorMatcher &gt;</text>
<polyline fill="none" stroke="#bfbfbf" points="549.9364,-1033.5 713.9364,-1033.5 "/>
<text text-anchor="middle" x="631.9364" y="-1021.5" font-family="Helvetica,sans-Serif" font-size="10.00" fill="#000000"> </text>
<polyline fill="none" stroke="#bfbfbf" points="549.9364,-1014.5 713.9364,-1014.5 "/>
<text text-anchor="middle" x="631.9364" y="-1002.5" font-family="Helvetica,sans-Serif" font-size="10.00" fill="#000000"> </text>
</g>
<!-- Node13&#45;&gt;Node10 -->
<g id="edge13" class="edge">
<title>Node13&#45;&gt;Node10</title>
<path fill="none" stroke="#404040" d="M620.7348,-995.3907C617.898,-983.9667 614.7884,-971.4446 611.7408,-959.1718"/>
<polygon fill="none" stroke="#404040" points="611.7409,-959.1716 606.4127,-954.3125 608.8488,-947.5254 614.1769,-952.3845 611.7409,-959.1716"/>
<text text-anchor="middle" x="641.9364" y="-969" font-family="Helvetica,sans-Serif" font-size="10.00" fill="#000000"> +matcher</text>
</g>
<!-- Node14&#45;&gt;Node5 -->
<g id="edge15" class="edge">
<title>Node14&#45;&gt;Node5</title>
<path fill="none" stroke="#ffa500" d="M411.6703,-610.0908C422.2371,-542.4096 438.1808,-449.0927 456.9364,-368 458.3151,-362.0389 459.8239,-355.9172 461.4099,-349.7646"/>
<polygon fill="#ffa500" stroke="#ffa500" points="408.16,-609.8879 410.0858,-620.3062 415.0773,-610.9609 408.16,-609.8879"/>
<text text-anchor="middle" x="481.4364" y="-482.5" font-family="Helvetica,sans-Serif" font-size="10.00" fill="#000000"> &lt; TList &gt;</text>
</g>
<!-- Node15 -->
<g id="node15" class="node">
<title>Node15</title>
<polygon fill="none" stroke="#bfbfbf" points="264.4364,-863 264.4364,-920 361.4364,-920 361.4364,-863 264.4364,-863"/>
<text text-anchor="middle" x="312.9364" y="-908" font-family="Helvetica,sans-Serif" font-size="10.00" fill="#000000">shared_ptr&lt; T &gt;</text>
<polyline fill="none" stroke="#bfbfbf" points="264.4364,-901 361.4364,-901 "/>
<text text-anchor="middle" x="312.9364" y="-889" font-family="Helvetica,sans-Serif" font-size="10.00" fill="#000000"> </text>
<polyline fill="none" stroke="#bfbfbf" points="264.4364,-882 361.4364,-882 "/>
<text text-anchor="middle" x="312.9364" y="-870" font-family="Helvetica,sans-Serif" font-size="10.00" fill="#000000"> </text>
</g>
<!-- Node15&#45;&gt;Node14 -->
<g id="edge19" class="edge">
<title>Node15&#45;&gt;Node14</title>
<path fill="none" stroke="#404040" d="M321.2535,-862.9154C326.4922,-846.073 333.7923,-824.5073 341.9364,-806 343.0107,-803.5587 344.1232,-801.0978 345.267,-798.626"/>
<polygon fill="none" stroke="#404040" points="345.292,-798.5735 344.2671,-791.4356 350.4618,-787.7442 351.4867,-794.8821 345.292,-798.5735"/>
<text text-anchor="middle" x="362.9364" y="-809" font-family="Helvetica,sans-Serif" font-size="10.00" fill="#000000"> +object</text>
</g>
</g>
</svg>
