<?xml version="1.0" encoding="UTF-8" standalone="no"?>
<!DOCTYPE svg PUBLIC "-//W3C//DTD SVG 1.1//EN"
 "http://www.w3.org/Graphics/SVG/1.1/DTD/svg11.dtd">
<!-- Generated by graphviz version 2.40.1 (20161225.0304)
 -->
<!-- Title: TrackQATask Pages: 1 -->
<svg width="646pt" height="822pt"
 viewBox="0.00 0.00 646.00 822.00" xmlns="http://www.w3.org/2000/svg" xmlns:xlink="http://www.w3.org/1999/xlink">
<g id="graph0" class="graph" transform="scale(1 1) rotate(0) translate(4 818)">
<title>TrackQATask</title>
<!-- Node1 -->
<g id="node1" class="node">
<title>Node1</title>
<polygon fill="#bfbfbf" stroke="#000000" points="304,-.5 304,-68.5 381,-68.5 381,-.5 304,-.5"/>
<text text-anchor="middle" x="342.5" y="-56.5" font-family="Helvetica,sans-Serif" font-size="10.00" fill="#000000">TrackQATask</text>
<polyline fill="none" stroke="#000000" points="304,-49.5 381,-49.5 "/>
<text text-anchor="middle" x="342.5" y="-37.5" font-family="Helvetica,sans-Serif" font-size="10.00" fill="#000000"> </text>
<polyline fill="none" stroke="#000000" points="304,-30.5 381,-30.5 "/>
<text text-anchor="start" x="312" y="-18.5" font-family="Helvetica,sans-Serif" font-size="10.00" fill="#000000">+ init()</text>
<text text-anchor="start" x="312" y="-7.5" font-family="Helvetica,sans-Serif" font-size="10.00" fill="#000000">+ process()</text>
</g>
<!-- Node2 -->
<g id="node2" class="node">
<title>Node2</title>
<g id="a_node2"><a xlink:href="../../d8/d34/classo2_1_1framework_1_1HistogramRegistry.html" target="_top" xlink:title="{o2::framework::Histogram\lRegistry\n||+ HistogramRegistry()\l+ add()\l+ add()\l+ add()\l+ addClone()\l+ get()\l+ operator()()\l+ spec()\l+ ref()\l+ setHash()\l+ operator*()\l+ fill()\l+ fill()\l+ getSize()\l+ getSize()\l+ print()\l}">
<polygon fill="none" stroke="#000000" points="38,-116.5 38,-349.5 183,-349.5 183,-116.5 38,-116.5"/>
<text text-anchor="start" x="46" y="-337.5" font-family="Helvetica,sans-Serif" font-size="10.00" fill="#000000">o2::framework::Histogram</text>
<text text-anchor="middle" x="110.5" y="-326.5" font-family="Helvetica,sans-Serif" font-size="10.00" fill="#000000">Registry</text>
<polyline fill="none" stroke="#000000" points="38,-319.5 183,-319.5 "/>
<text text-anchor="middle" x="110.5" y="-307.5" font-family="Helvetica,sans-Serif" font-size="10.00" fill="#000000"> </text>
<polyline fill="none" stroke="#000000" points="38,-300.5 183,-300.5 "/>
<text text-anchor="start" x="46" y="-288.5" font-family="Helvetica,sans-Serif" font-size="10.00" fill="#000000">+ HistogramRegistry()</text>
<text text-anchor="start" x="46" y="-277.5" font-family="Helvetica,sans-Serif" font-size="10.00" fill="#000000">+ add()</text>
<text text-anchor="start" x="46" y="-266.5" font-family="Helvetica,sans-Serif" font-size="10.00" fill="#000000">+ add()</text>
<text text-anchor="start" x="46" y="-255.5" font-family="Helvetica,sans-Serif" font-size="10.00" fill="#000000">+ add()</text>
<text text-anchor="start" x="46" y="-244.5" font-family="Helvetica,sans-Serif" font-size="10.00" fill="#000000">+ addClone()</text>
<text text-anchor="start" x="46" y="-233.5" font-family="Helvetica,sans-Serif" font-size="10.00" fill="#000000">+ get()</text>
<text text-anchor="start" x="46" y="-222.5" font-family="Helvetica,sans-Serif" font-size="10.00" fill="#000000">+ operator()()</text>
<text text-anchor="start" x="46" y="-211.5" font-family="Helvetica,sans-Serif" font-size="10.00" fill="#000000">+ spec()</text>
<text text-anchor="start" x="46" y="-200.5" font-family="Helvetica,sans-Serif" font-size="10.00" fill="#000000">+ ref()</text>
<text text-anchor="start" x="46" y="-189.5" font-family="Helvetica,sans-Serif" font-size="10.00" fill="#000000">+ setHash()</text>
<text text-anchor="start" x="46" y="-178.5" font-family="Helvetica,sans-Serif" font-size="10.00" fill="#000000">+ operator*()</text>
<text text-anchor="start" x="46" y="-167.5" font-family="Helvetica,sans-Serif" font-size="10.00" fill="#000000">+ fill()</text>
<text text-anchor="start" x="46" y="-156.5" font-family="Helvetica,sans-Serif" font-size="10.00" fill="#000000">+ fill()</text>
<text text-anchor="start" x="46" y="-145.5" font-family="Helvetica,sans-Serif" font-size="10.00" fill="#000000">+ getSize()</text>
<text text-anchor="start" x="46" y="-134.5" font-family="Helvetica,sans-Serif" font-size="10.00" fill="#000000">+ getSize()</text>
<text text-anchor="start" x="46" y="-123.5" font-family="Helvetica,sans-Serif" font-size="10.00" fill="#000000">+ print()</text>
</a>
</g>
</g>
<!-- Node2&#45;&gt;Node1 -->
<g id="edge1" class="edge">
<title>Node2&#45;&gt;Node1</title>
<path fill="none" stroke="#404040" d="M183.2697,-170.738C219.554,-139.693 262.4235,-103.0138 294.5351,-75.539"/>
<polygon fill="none" stroke="#404040" points="294.5953,-75.4874 296.5538,-68.5474 303.7133,-67.686 301.7548,-74.6261 294.5953,-75.4874"/>
<text text-anchor="middle" x="301" y="-90" font-family="Helvetica,sans-Serif" font-size="10.00" fill="#000000"> +histos</text>
</g>
<!-- Node3 -->
<g id="node3" class="node">
<title>Node3</title>
<polygon fill="none" stroke="#bfbfbf" points="66.5,-403 66.5,-460 122.5,-460 122.5,-403 66.5,-403"/>
<text text-anchor="middle" x="94.5" y="-448" font-family="Helvetica,sans-Serif" font-size="10.00" fill="#000000">uint32_t</text>
<polyline fill="none" stroke="#bfbfbf" points="66.5,-441 122.5,-441 "/>
<text text-anchor="middle" x="94.5" y="-429" font-family="Helvetica,sans-Serif" font-size="10.00" fill="#000000"> </text>
<polyline fill="none" stroke="#bfbfbf" points="66.5,-422 122.5,-422 "/>
<text text-anchor="middle" x="94.5" y="-410" font-family="Helvetica,sans-Serif" font-size="10.00" fill="#000000"> </text>
</g>
<!-- Node3&#45;&gt;Node2 -->
<g id="edge2" class="edge">
<title>Node3&#45;&gt;Node2</title>
<path fill="none" stroke="#404040" d="M96.8265,-402.6364C97.7498,-391.1823 98.8807,-377.1514 100.093,-362.1118"/>
<polygon fill="none" stroke="#404040" points="100.116,-361.8252 96.6111,-355.5231 101.0802,-349.8639 104.5852,-356.166 100.116,-361.8252"/>
<text text-anchor="middle" x="122" y="-371" font-family="Helvetica,sans-Serif" font-size="10.00" fill="#000000"> +lookup</text>
</g>
<!-- Node4 -->
<g id="node4" class="node">
<title>Node4</title>
<g id="a_node4"><a xlink:href="../../d8/d71/structo2_1_1framework_1_1Configurable.html" target="_top" xlink:title="{o2::framework::Configurable\l\&lt; int \&gt;\n||+ Configurable()\l}">
<polygon fill="none" stroke="#000000" points="265,-199 265,-267 420,-267 420,-199 265,-199"/>
<text text-anchor="start" x="273" y="-255" font-family="Helvetica,sans-Serif" font-size="10.00" fill="#000000">o2::framework::Configurable</text>
<text text-anchor="middle" x="342.5" y="-244" font-family="Helvetica,sans-Serif" font-size="10.00" fill="#000000">&lt; int &gt;</text>
<polyline fill="none" stroke="#000000" points="265,-237 420,-237 "/>
<text text-anchor="middle" x="342.5" y="-225" font-family="Helvetica,sans-Serif" font-size="10.00" fill="#000000"> </text>
<polyline fill="none" stroke="#000000" points="265,-218 420,-218 "/>
<text text-anchor="start" x="273" y="-206" font-family="Helvetica,sans-Serif" font-size="10.00" fill="#000000">+ Configurable()</text>
</a>
</g>
</g>
<!-- Node4&#45;&gt;Node1 -->
<g id="edge3" class="edge">
<title>Node4&#45;&gt;Node1</title>
<path fill="none" stroke="#404040" d="M342.5,-198.8766C342.5,-166.254 342.5,-116.8244 342.5,-80.6879"/>
<polygon fill="none" stroke="#404040" points="342.5001,-80.5096 338.5,-74.5097 342.5,-68.5096 346.5,-74.5096 342.5001,-80.5096"/>
<text text-anchor="middle" x="384.5" y="-90" font-family="Helvetica,sans-Serif" font-size="10.00" fill="#000000"> +selectedTracks</text>
</g>
<!-- Node5 -->
<g id="node5" class="node">
<title>Node5</title>
<g id="a_node5"><a xlink:href="../../da/def/structo2_1_1framework_1_1ConfigurablePolicyConst.html" target="_top" xlink:title="{o2::framework::Configurable\lPolicyConst\&lt; int \&gt;\n||+ ConfigurablePolicyConst()\l}">
<polygon fill="none" stroke="#000000" points="141,-397.5 141,-465.5 296,-465.5 296,-397.5 141,-397.5"/>
<text text-anchor="start" x="149" y="-453.5" font-family="Helvetica,sans-Serif" font-size="10.00" fill="#000000">o2::framework::Configurable</text>
<text text-anchor="middle" x="218.5" y="-442.5" font-family="Helvetica,sans-Serif" font-size="10.00" fill="#000000">PolicyConst&lt; int &gt;</text>
<polyline fill="none" stroke="#000000" points="141,-435.5 296,-435.5 "/>
<text text-anchor="middle" x="218.5" y="-423.5" font-family="Helvetica,sans-Serif" font-size="10.00" fill="#000000"> </text>
<polyline fill="none" stroke="#000000" points="141,-416.5 296,-416.5 "/>
<text text-anchor="start" x="149" y="-404.5" font-family="Helvetica,sans-Serif" font-size="10.00" fill="#000000">+ ConfigurablePolicyConst()</text>
</a>
</g>
</g>
<!-- Node5&#45;&gt;Node4 -->
<g id="edge4" class="edge">
<title>Node5&#45;&gt;Node4</title>
<path fill="none" stroke="#191970" d="M245.3835,-388.4647C268.1275,-352.056 300.2781,-300.5891 321.2547,-267.0096"/>
<polygon fill="none" stroke="#191970" points="242.1461,-387.0411 239.8164,-397.3766 248.0829,-390.7498 242.1461,-387.0411"/>
</g>
<!-- Node6 -->
<g id="node6" class="node">
<title>Node6</title>
<g id="a_node6"><a xlink:href="../../da/d2f/structo2_1_1framework_1_1ConfigurableBase.html" target="_top" xlink:title="{o2::framework::Configurable\lBase\&lt; int \&gt;\n||+ ConfigurableBase()\l}">
<polygon fill="none" stroke="#000000" points="0,-513.5 0,-581.5 155,-581.5 155,-513.5 0,-513.5"/>
<text text-anchor="start" x="8" y="-569.5" font-family="Helvetica,sans-Serif" font-size="10.00" fill="#000000">o2::framework::Configurable</text>
<text text-anchor="middle" x="77.5" y="-558.5" font-family="Helvetica,sans-Serif" font-size="10.00" fill="#000000">Base&lt; int &gt;</text>
<polyline fill="none" stroke="#000000" points="0,-551.5 155,-551.5 "/>
<text text-anchor="middle" x="77.5" y="-539.5" font-family="Helvetica,sans-Serif" font-size="10.00" fill="#000000"> </text>
<polyline fill="none" stroke="#000000" points="0,-532.5 155,-532.5 "/>
<text text-anchor="start" x="8" y="-520.5" font-family="Helvetica,sans-Serif" font-size="10.00" fill="#000000">+ ConfigurableBase()</text>
</a>
</g>
</g>
<!-- Node6&#45;&gt;Node5 -->
<g id="edge5" class="edge">
<title>Node6&#45;&gt;Node5</title>
<path fill="none" stroke="#191970" d="M126.8861,-506.8703C143.171,-493.4728 161.1116,-478.7131 176.7677,-465.833"/>
<polygon fill="none" stroke="#191970" points="124.5409,-504.2674 119.042,-513.3236 128.9882,-509.6732 124.5409,-504.2674"/>
</g>
<!-- Node7 -->
<g id="node7" class="node">
<title>Node7</title>
<polygon fill="none" stroke="#bfbfbf" points="81,-756.5 81,-813.5 110,-813.5 110,-756.5 81,-756.5"/>
<text text-anchor="middle" x="95.5" y="-801.5" font-family="Helvetica,sans-Serif" font-size="10.00" fill="#000000">int</text>
<polyline fill="none" stroke="#bfbfbf" points="81,-794.5 110,-794.5 "/>
<text text-anchor="middle" x="95.5" y="-782.5" font-family="Helvetica,sans-Serif" font-size="10.00" fill="#000000"> </text>
<polyline fill="none" stroke="#bfbfbf" points="81,-775.5 110,-775.5 "/>
<text text-anchor="middle" x="95.5" y="-763.5" font-family="Helvetica,sans-Serif" font-size="10.00" fill="#000000"> </text>
</g>
<!-- Node7&#45;&gt;Node6 -->
<g id="edge6" class="edge">
<title>Node7&#45;&gt;Node6</title>
<path fill="none" stroke="#404040" d="M92.2288,-756.4245C90.3657,-739.4621 88.0928,-717.5235 86.5,-698 83.6505,-663.0741 81.32,-623.519 79.745,-593.7278"/>
<polygon fill="none" stroke="#404040" points="79.7376,-593.5838 75.4326,-587.7988 79.1169,-581.5999 83.4219,-587.3849 79.7376,-593.5838"/>
<text text-anchor="middle" x="106" y="-672" font-family="Helvetica,sans-Serif" font-size="10.00" fill="#000000"> +value</text>
<text text-anchor="middle" x="106" y="-661" font-family="Helvetica,sans-Serif" font-size="10.00" fill="#000000">+name</text>
<text text-anchor="middle" x="106" y="-650" font-family="Helvetica,sans-Serif" font-size="10.00" fill="#000000">+help</text>
</g>
<!-- Node8 -->
<g id="node8" class="node">
<title>Node8</title>
<g id="a_node8"><a xlink:href="../../da/d2f/structo2_1_1framework_1_1ConfigurableBase.html" target="_top" xlink:title="{o2::framework::Configurable\lBase\&lt; T \&gt;\n||+ ConfigurableBase()\l}">
<polygon fill="none" stroke="#000000" points="135,-629.5 135,-697.5 290,-697.5 290,-629.5 135,-629.5"/>
<text text-anchor="start" x="143" y="-685.5" font-family="Helvetica,sans-Serif" font-size="10.00" fill="#000000">o2::framework::Configurable</text>
<text text-anchor="middle" x="212.5" y="-674.5" font-family="Helvetica,sans-Serif" font-size="10.00" fill="#000000">Base&lt; T &gt;</text>
<polyline fill="none" stroke="#000000" points="135,-667.5 290,-667.5 "/>
<text text-anchor="middle" x="212.5" y="-655.5" font-family="Helvetica,sans-Serif" font-size="10.00" fill="#000000"> </text>
<polyline fill="none" stroke="#000000" points="135,-648.5 290,-648.5 "/>
<text text-anchor="start" x="143" y="-636.5" font-family="Helvetica,sans-Serif" font-size="10.00" fill="#000000">+ ConfigurableBase()</text>
</a>
</g>
</g>
<!-- Node7&#45;&gt;Node8 -->
<g id="edge8" class="edge">
<title>Node7&#45;&gt;Node8</title>
<path fill="none" stroke="#404040" d="M110.3181,-769.6119C125.5586,-753.7853 149.9888,-728.4154 171.1402,-706.4506"/>
<polygon fill="none" stroke="#404040" points="171.3396,-706.2435 172.6202,-699.1469 179.6634,-697.5996 178.3828,-704.6961 171.3396,-706.2435"/>
<text text-anchor="middle" x="181.5" y="-730" font-family="Helvetica,sans-Serif" font-size="10.00" fill="#000000"> +name</text>
<text text-anchor="middle" x="181.5" y="-719" font-family="Helvetica,sans-Serif" font-size="10.00" fill="#000000">+help</text>
</g>
<!-- Node8&#45;&gt;Node6 -->
<g id="edge7" class="edge">
<title>Node8&#45;&gt;Node6</title>
<path fill="none" stroke="#ffa500" d="M164.7898,-622.5046C149.3114,-609.2046 132.31,-594.596 117.4565,-581.833"/>
<polygon fill="#ffa500" stroke="#ffa500" points="162.86,-625.461 172.7257,-629.3236 167.4221,-620.1518 162.86,-625.461"/>
<text text-anchor="middle" x="169" y="-603" font-family="Helvetica,sans-Serif" font-size="10.00" fill="#000000"> &lt; int &gt;</text>
</g>
<!-- Node10 -->
<g id="node10" class="node">
<title>Node10</title>
<g id="a_node10"><a xlink:href="../../da/def/structo2_1_1framework_1_1ConfigurablePolicyConst.html" target="_top" xlink:title="{o2::framework::Configurable\lPolicyConst\&lt; T \&gt;\n||+ ConfigurablePolicyConst()\l}">
<polygon fill="none" stroke="#000000" points="173,-513.5 173,-581.5 328,-581.5 328,-513.5 173,-513.5"/>
<text text-anchor="start" x="181" y="-569.5" font-family="Helvetica,sans-Serif" font-size="10.00" fill="#000000">o2::framework::Configurable</text>
<text text-anchor="middle" x="250.5" y="-558.5" font-family="Helvetica,sans-Serif" font-size="10.00" fill="#000000">PolicyConst&lt; T &gt;</text>
<polyline fill="none" stroke="#000000" points="173,-551.5 328,-551.5 "/>
<text text-anchor="middle" x="250.5" y="-539.5" font-family="Helvetica,sans-Serif" font-size="10.00" fill="#000000"> </text>
<polyline fill="none" stroke="#000000" points="173,-532.5 328,-532.5 "/>
<text text-anchor="start" x="181" y="-520.5" font-family="Helvetica,sans-Serif" font-size="10.00" fill="#000000">+ ConfigurablePolicyConst()</text>
</a>
</g>
</g>
<!-- Node8&#45;&gt;Node10 -->
<g id="edge11" class="edge">
<title>Node8&#45;&gt;Node10</title>
<path fill="none" stroke="#191970" d="M226.8954,-619.5562C230.9856,-607.0702 235.3788,-593.6593 239.253,-581.833"/>
<polygon fill="none" stroke="#191970" points="223.4828,-618.7309 223.6957,-629.3236 230.135,-620.9101 223.4828,-618.7309"/>
</g>
<!-- Node9 -->
<g id="node9" class="node">
<title>Node9</title>
<polygon fill="none" stroke="#bfbfbf" points="198,-756.5 198,-813.5 227,-813.5 227,-756.5 198,-756.5"/>
<text text-anchor="middle" x="212.5" y="-801.5" font-family="Helvetica,sans-Serif" font-size="10.00" fill="#000000">T</text>
<polyline fill="none" stroke="#bfbfbf" points="198,-794.5 227,-794.5 "/>
<text text-anchor="middle" x="212.5" y="-782.5" font-family="Helvetica,sans-Serif" font-size="10.00" fill="#000000"> </text>
<polyline fill="none" stroke="#bfbfbf" points="198,-775.5 227,-775.5 "/>
<text text-anchor="middle" x="212.5" y="-763.5" font-family="Helvetica,sans-Serif" font-size="10.00" fill="#000000"> </text>
</g>
<!-- Node9&#45;&gt;Node8 -->
<g id="edge9" class="edge">
<title>Node9&#45;&gt;Node8</title>
<path fill="none" stroke="#404040" d="M212.5,-756.2062C212.5,-742.3632 212.5,-725.4255 212.5,-709.8327"/>
<polygon fill="none" stroke="#404040" points="212.5001,-709.7007 208.5,-703.7008 212.5,-697.7007 216.5,-703.7007 212.5001,-709.7007"/>
<text text-anchor="middle" x="232" y="-724.5" font-family="Helvetica,sans-Serif" font-size="10.00" fill="#000000"> +value</text>
</g>
<!-- Node10&#45;&gt;Node5 -->
<g id="edge10" class="edge">
<title>Node10&#45;&gt;Node5</title>
<path fill="none" stroke="#ffa500" d="M238.3776,-503.5562C234.9332,-491.0702 231.2336,-477.6593 227.9712,-465.833"/>
<polygon fill="#ffa500" stroke="#ffa500" points="235.0387,-504.6144 241.072,-513.3236 241.7866,-502.7529 235.0387,-504.6144"/>
<text text-anchor="middle" x="255" y="-487" font-family="Helvetica,sans-Serif" font-size="10.00" fill="#000000"> &lt; int &gt;</text>
</g>
<!-- Node11 -->
<g id="node11" class="node">
<title>Node11</title>
<g id="a_node11"><a xlink:href="../../d8/d71/structo2_1_1framework_1_1Configurable.html" target="_top" xlink:title="{o2::framework::Configurable\l\&lt; T, IP \&gt;\n||+ Configurable()\l}">
<polygon fill="none" stroke="#000000" points="314,-397.5 314,-465.5 469,-465.5 469,-397.5 314,-397.5"/>
<text text-anchor="start" x="322" y="-453.5" font-family="Helvetica,sans-Serif" font-size="10.00" fill="#000000">o2::framework::Configurable</text>
<text text-anchor="middle" x="391.5" y="-442.5" font-family="Helvetica,sans-Serif" font-size="10.00" fill="#000000">&lt; T, IP &gt;</text>
<polyline fill="none" stroke="#000000" points="314,-435.5 469,-435.5 "/>
<text text-anchor="middle" x="391.5" y="-423.5" font-family="Helvetica,sans-Serif" font-size="10.00" fill="#000000"> </text>
<polyline fill="none" stroke="#000000" points="314,-416.5 469,-416.5 "/>
<text text-anchor="start" x="322" y="-404.5" font-family="Helvetica,sans-Serif" font-size="10.00" fill="#000000">+ Configurable()</text>
</a>
</g>
</g>
<!-- Node11&#45;&gt;Node4 -->
<g id="edge12" class="edge">
<title>Node11&#45;&gt;Node4</title>
<path fill="none" stroke="#ffa500" d="M380.6474,-387.5358C371.6741,-351.185 359.1142,-300.3046 350.8953,-267.0096"/>
<polygon fill="#ffa500" stroke="#ffa500" points="377.2819,-388.5069 383.0766,-397.3766 384.078,-386.8292 377.2819,-388.5069"/>
<text text-anchor="middle" x="398" y="-371" font-family="Helvetica,sans-Serif" font-size="10.00" fill="#000000"> &lt; int &gt;</text>
</g>
<!-- Node12 -->
<g id="node12" class="node">
<title>Node12</title>
<polygon fill="none" stroke="#bfbfbf" points="377,-519 377,-576 406,-576 406,-519 377,-519"/>
<text text-anchor="middle" x="391.5" y="-564" font-family="Helvetica,sans-Serif" font-size="10.00" fill="#000000">IP</text>
<polyline fill="none" stroke="#bfbfbf" points="377,-557 406,-557 "/>
<text text-anchor="middle" x="391.5" y="-545" font-family="Helvetica,sans-Serif" font-size="10.00" fill="#000000"> </text>
<polyline fill="none" stroke="#bfbfbf" points="377,-538 406,-538 "/>
<text text-anchor="middle" x="391.5" y="-526" font-family="Helvetica,sans-Serif" font-size="10.00" fill="#000000"> </text>
</g>
<!-- Node12&#45;&gt;Node11 -->
<g id="edge13" class="edge">
<title>Node12&#45;&gt;Node11</title>
<path fill="none" stroke="#191970" d="M391.5,-508.569C391.5,-494.6554 391.5,-479.0944 391.5,-465.6178"/>
<polygon fill="none" stroke="#191970" points="388.0001,-508.8258 391.5,-518.8258 395.0001,-508.8259 388.0001,-508.8258"/>
</g>
<!-- Node13 -->
<g id="node13" class="node">
<title>Node13</title>
<g id="a_node13"><a xlink:href="../../d1/d9a/structo2_1_1framework_1_1expressions_1_1Filter.html" target="_top" xlink:title="A struct, containing the root of the expression tree. ">
<polygon fill="none" stroke="#000000" points="470.5,-193.5 470.5,-272.5 622.5,-272.5 622.5,-193.5 470.5,-193.5"/>
<text text-anchor="start" x="478.5" y="-260.5" font-family="Helvetica,sans-Serif" font-size="10.00" fill="#000000">o2::framework::expressions</text>
<text text-anchor="middle" x="546.5" y="-249.5" font-family="Helvetica,sans-Serif" font-size="10.00" fill="#000000">::Filter</text>
<polyline fill="none" stroke="#000000" points="470.5,-242.5 622.5,-242.5 "/>
<text text-anchor="middle" x="546.5" y="-230.5" font-family="Helvetica,sans-Serif" font-size="10.00" fill="#000000"> </text>
<polyline fill="none" stroke="#000000" points="470.5,-223.5 622.5,-223.5 "/>
<text text-anchor="start" x="478.5" y="-211.5" font-family="Helvetica,sans-Serif" font-size="10.00" fill="#000000">+ Filter()</text>
<text text-anchor="start" x="478.5" y="-200.5" font-family="Helvetica,sans-Serif" font-size="10.00" fill="#000000">+ Filter()</text>
</a>
</g>
</g>
<!-- Node13&#45;&gt;Node1 -->
<g id="edge14" class="edge">
<title>Node13&#45;&gt;Node1</title>
<path fill="none" stroke="#404040" d="M521.0201,-193.4943C499.4753,-162.117 466.4419,-118.4382 430.5,-87 418.8775,-76.8339 405.0202,-67.5263 391.7796,-59.6637"/>
<polygon fill="none" stroke="#404040" points="391.7564,-59.6504 384.5615,-60.1343 381.3475,-53.679 388.5424,-53.1951 391.7564,-59.6504"/>
<text text-anchor="middle" x="473" y="-90" font-family="Helvetica,sans-Serif" font-size="10.00" fill="#000000"> +trackFilter</text>
</g>
<!-- Node14 -->
<g id="node14" class="node">
<title>Node14</title>
<polygon fill="none" stroke="#bfbfbf" points="487,-397.5 487,-465.5 638,-465.5 638,-397.5 487,-397.5"/>
<text text-anchor="start" x="495" y="-453.5" font-family="Helvetica,sans-Serif" font-size="10.00" fill="#000000">unique_ptr&lt; o2::framework</text>
<text text-anchor="middle" x="562.5" y="-442.5" font-family="Helvetica,sans-Serif" font-size="10.00" fill="#000000">::expressions::Node &gt;</text>
<polyline fill="none" stroke="#bfbfbf" points="487,-435.5 638,-435.5 "/>
<text text-anchor="middle" x="562.5" y="-423.5" font-family="Helvetica,sans-Serif" font-size="10.00" fill="#000000"> </text>
<polyline fill="none" stroke="#bfbfbf" points="487,-416.5 638,-416.5 "/>
<text text-anchor="middle" x="562.5" y="-404.5" font-family="Helvetica,sans-Serif" font-size="10.00" fill="#000000"> </text>
</g>
<!-- Node14&#45;&gt;Node13 -->
<g id="edge15" class="edge">
<title>Node14&#45;&gt;Node13</title>
<path fill="none" stroke="#404040" d="M559.7495,-397.3766C557.2558,-366.4397 553.5438,-320.3877 550.6827,-284.8919"/>
<polygon fill="none" stroke="#404040" points="550.6738,-284.7801 546.2046,-279.1209 549.7096,-272.8189 554.1788,-278.4781 550.6738,-284.7801"/>
<text text-anchor="middle" x="576.5" y="-371" font-family="Helvetica,sans-Serif" font-size="10.00" fill="#000000"> +node</text>
</g>
</g>
</svg>
