<?xml version="1.0" encoding="UTF-8" standalone="no"?>
<!DOCTYPE svg PUBLIC "-//W3C//DTD SVG 1.1//EN"
 "http://www.w3.org/Graphics/SVG/1.1/DTD/svg11.dtd">
<!-- Generated by graphviz version 2.40.1 (20161225.0304)
 -->
<!-- Title: o2::header::BaseHeader Pages: 1 -->
<svg width="1073pt" height="898pt"
 viewBox="0.00 0.00 1072.90 898.00" xmlns="http://www.w3.org/2000/svg" xmlns:xlink="http://www.w3.org/1999/xlink">
<g id="graph0" class="graph" transform="scale(1 1) rotate(0) translate(4 894)">
<title>o2::header::BaseHeader</title>
<!-- Node14 -->
<g id="node1" class="node">
<title>Node14</title>
<polygon fill="#bfbfbf" stroke="#000000" points="639.4014,-.5 639.4014,-167.5 812.4014,-167.5 812.4014,-.5 639.4014,-.5"/>
<text text-anchor="middle" x="725.9014" y="-155.5" font-family="Helvetica,sans-Serif" font-size="10.00" fill="#000000">o2::header::BaseHeader</text>
<polyline fill="none" stroke="#000000" points="639.4014,-148.5 812.4014,-148.5 "/>
<text text-anchor="middle" x="725.9014" y="-136.5" font-family="Helvetica,sans-Serif" font-size="10.00" fill="#000000"> </text>
<polyline fill="none" stroke="#000000" points="639.4014,-129.5 812.4014,-129.5 "/>
<text text-anchor="start" x="647.4014" y="-117.5" font-family="Helvetica,sans-Serif" font-size="10.00" fill="#000000">+ BaseHeader()</text>
<text text-anchor="start" x="647.4014" y="-106.5" font-family="Helvetica,sans-Serif" font-size="10.00" fill="#000000">+ BaseHeader()</text>
<text text-anchor="start" x="647.4014" y="-95.5" font-family="Helvetica,sans-Serif" font-size="10.00" fill="#000000">+ BaseHeader()</text>
<text text-anchor="start" x="647.4014" y="-84.5" font-family="Helvetica,sans-Serif" font-size="10.00" fill="#000000">+ size()</text>
<text text-anchor="start" x="647.4014" y="-73.5" font-family="Helvetica,sans-Serif" font-size="10.00" fill="#000000">+ data()</text>
<text text-anchor="start" x="647.4014" y="-62.5" font-family="Helvetica,sans-Serif" font-size="10.00" fill="#000000">+ next()</text>
<text text-anchor="start" x="647.4014" y="-51.5" font-family="Helvetica,sans-Serif" font-size="10.00" fill="#000000">+ next()</text>
<text text-anchor="start" x="647.4014" y="-40.5" font-family="Helvetica,sans-Serif" font-size="10.00" fill="#000000">+ sanityCheck()</text>
<text text-anchor="start" x="647.4014" y="-29.5" font-family="Helvetica,sans-Serif" font-size="10.00" fill="#000000">+ throwInconsistentStackError()</text>
<text text-anchor="start" x="647.4014" y="-18.5" font-family="Helvetica,sans-Serif" font-size="10.00" fill="#000000">+ get()</text>
<text text-anchor="start" x="647.4014" y="-7.5" font-family="Helvetica,sans-Serif" font-size="10.00" fill="#000000">+ get()</text>
</g>
<!-- Node15 -->
<g id="node2" class="node">
<title>Node15</title>
<g id="a_node2"><a xlink:href="../../d9/db3/structo2_1_1header_1_1Descriptor.html" target="_top" xlink:title="{o2::header::Descriptor\l\&lt; gSizeHeaderDescriptionString \&gt;\n||+ Descriptor()\l+ Descriptor()\l+ Descriptor()\l+ Descriptor()\l+ operator=()\l+ operator ItgType()\l+ runtimeInit()\l+ operator==()\l+ operator==()\l+ operator\&lt;()\l+ operator!=()\l+ operator!=()\l+ as()\l+ print()\l}">
<polygon fill="none" stroke="#000000" points="387.4014,-281.5 387.4014,-492.5 572.4014,-492.5 572.4014,-281.5 387.4014,-281.5"/>
<text text-anchor="start" x="395.4014" y="-480.5" font-family="Helvetica,sans-Serif" font-size="10.00" fill="#000000">o2::header::Descriptor</text>
<text text-anchor="middle" x="479.9014" y="-469.5" font-family="Helvetica,sans-Serif" font-size="10.00" fill="#000000">&lt; gSizeHeaderDescriptionString &gt;</text>
<polyline fill="none" stroke="#000000" points="387.4014,-462.5 572.4014,-462.5 "/>
<text text-anchor="middle" x="479.9014" y="-450.5" font-family="Helvetica,sans-Serif" font-size="10.00" fill="#000000"> </text>
<polyline fill="none" stroke="#000000" points="387.4014,-443.5 572.4014,-443.5 "/>
<text text-anchor="start" x="395.4014" y="-431.5" font-family="Helvetica,sans-Serif" font-size="10.00" fill="#000000">+ Descriptor()</text>
<text text-anchor="start" x="395.4014" y="-420.5" font-family="Helvetica,sans-Serif" font-size="10.00" fill="#000000">+ Descriptor()</text>
<text text-anchor="start" x="395.4014" y="-409.5" font-family="Helvetica,sans-Serif" font-size="10.00" fill="#000000">+ Descriptor()</text>
<text text-anchor="start" x="395.4014" y="-398.5" font-family="Helvetica,sans-Serif" font-size="10.00" fill="#000000">+ Descriptor()</text>
<text text-anchor="start" x="395.4014" y="-387.5" font-family="Helvetica,sans-Serif" font-size="10.00" fill="#000000">+ operator=()</text>
<text text-anchor="start" x="395.4014" y="-376.5" font-family="Helvetica,sans-Serif" font-size="10.00" fill="#000000">+ operator ItgType()</text>
<text text-anchor="start" x="395.4014" y="-365.5" font-family="Helvetica,sans-Serif" font-size="10.00" fill="#000000">+ runtimeInit()</text>
<text text-anchor="start" x="395.4014" y="-354.5" font-family="Helvetica,sans-Serif" font-size="10.00" fill="#000000">+ operator==()</text>
<text text-anchor="start" x="395.4014" y="-343.5" font-family="Helvetica,sans-Serif" font-size="10.00" fill="#000000">+ operator==()</text>
<text text-anchor="start" x="395.4014" y="-332.5" font-family="Helvetica,sans-Serif" font-size="10.00" fill="#000000">+ operator&lt;()</text>
<text text-anchor="start" x="395.4014" y="-321.5" font-family="Helvetica,sans-Serif" font-size="10.00" fill="#000000">+ operator!=()</text>
<text text-anchor="start" x="395.4014" y="-310.5" font-family="Helvetica,sans-Serif" font-size="10.00" fill="#000000">+ operator!=()</text>
<text text-anchor="start" x="395.4014" y="-299.5" font-family="Helvetica,sans-Serif" font-size="10.00" fill="#000000">+ as()</text>
<text text-anchor="start" x="395.4014" y="-288.5" font-family="Helvetica,sans-Serif" font-size="10.00" fill="#000000">+ print()</text>
</a>
</g>
</g>
<!-- Node15&#45;&gt;Node14 -->
<g id="edge1" class="edge">
<title>Node15&#45;&gt;Node14</title>
<path fill="none" stroke="#404040" d="M526.254,-281.282C543.2835,-248.796 564.4694,-214.2042 588.9014,-186 600.8464,-172.2108 614.9626,-159.1582 629.5166,-147.2846"/>
<polygon fill="none" stroke="#404040" points="629.7271,-147.1176 631.9392,-140.2541 639.1255,-139.6563 636.9134,-146.5198 629.7271,-147.1176"/>
<text text-anchor="middle" x="621.9014" y="-222" font-family="Helvetica,sans-Serif" font-size="10.00" fill="#000000"> +description</text>
</g>
<!-- Node16 -->
<g id="node3" class="node">
<title>Node16</title>
<polygon fill="none" stroke="#bfbfbf" points="380.4014,-832.5 380.4014,-889.5 487.4014,-889.5 487.4014,-832.5 380.4014,-832.5"/>
<text text-anchor="middle" x="433.9014" y="-877.5" font-family="Helvetica,sans-Serif" font-size="10.00" fill="#000000">anonymous:+@78</text>
<polyline fill="none" stroke="#bfbfbf" points="380.4014,-870.5 487.4014,-870.5 "/>
<text text-anchor="middle" x="433.9014" y="-858.5" font-family="Helvetica,sans-Serif" font-size="10.00" fill="#000000"> </text>
<polyline fill="none" stroke="#bfbfbf" points="380.4014,-851.5 487.4014,-851.5 "/>
<text text-anchor="middle" x="433.9014" y="-839.5" font-family="Helvetica,sans-Serif" font-size="10.00" fill="#000000"> </text>
</g>
<!-- Node16&#45;&gt;Node15 -->
<g id="edge2" class="edge">
<title>Node16&#45;&gt;Node15</title>
<path fill="none" stroke="#404040" d="M487.5817,-841.2765C503.1341,-834.0909 519.5135,-824.9786 532.9014,-814 554.7588,-796.0761 561.4241,-789.6307 570.9014,-763 608.4824,-657.3997 618.4678,-616.6055 580.9014,-511 579.9199,-508.241 578.8479,-505.4989 577.6945,-502.7769"/>
<polygon fill="none" stroke="#404040" points="577.6016,-502.5782 571.4362,-498.8382 572.5173,-491.7085 578.6827,-495.4486 577.6016,-502.5782"/>
<text text-anchor="middle" x="620.9014" y="-654.5" font-family="Helvetica,sans-Serif" font-size="10.00" fill="#000000"> +@78</text>
</g>
<!-- Node20 -->
<g id="node7" class="node">
<title>Node20</title>
<g id="a_node7"><a xlink:href="../../d9/db3/structo2_1_1header_1_1Descriptor.html" target="_top" xlink:title="{o2::header::Descriptor\l\&lt; N, PrinterPolicy \&gt;\n||+ Descriptor()\l+ Descriptor()\l+ Descriptor()\l+ operator=()\l+ operator ItgType()\l+ Descriptor()\l+ runtimeInit()\l+ operator==()\l+ operator\&lt;()\l+ operator!=()\l+ operator==()\l+ operator!=()\l+ as()\l+ print()\l}">
<polygon fill="none" stroke="#000000" points="249.4014,-551.5 249.4014,-762.5 374.4014,-762.5 374.4014,-551.5 249.4014,-551.5"/>
<text text-anchor="start" x="257.4014" y="-750.5" font-family="Helvetica,sans-Serif" font-size="10.00" fill="#000000">o2::header::Descriptor</text>
<text text-anchor="middle" x="311.9014" y="-739.5" font-family="Helvetica,sans-Serif" font-size="10.00" fill="#000000">&lt; N, PrinterPolicy &gt;</text>
<polyline fill="none" stroke="#000000" points="249.4014,-732.5 374.4014,-732.5 "/>
<text text-anchor="middle" x="311.9014" y="-720.5" font-family="Helvetica,sans-Serif" font-size="10.00" fill="#000000"> </text>
<polyline fill="none" stroke="#000000" points="249.4014,-713.5 374.4014,-713.5 "/>
<text text-anchor="start" x="257.4014" y="-701.5" font-family="Helvetica,sans-Serif" font-size="10.00" fill="#000000">+ Descriptor()</text>
<text text-anchor="start" x="257.4014" y="-690.5" font-family="Helvetica,sans-Serif" font-size="10.00" fill="#000000">+ Descriptor()</text>
<text text-anchor="start" x="257.4014" y="-679.5" font-family="Helvetica,sans-Serif" font-size="10.00" fill="#000000">+ Descriptor()</text>
<text text-anchor="start" x="257.4014" y="-668.5" font-family="Helvetica,sans-Serif" font-size="10.00" fill="#000000">+ operator=()</text>
<text text-anchor="start" x="257.4014" y="-657.5" font-family="Helvetica,sans-Serif" font-size="10.00" fill="#000000">+ operator ItgType()</text>
<text text-anchor="start" x="257.4014" y="-646.5" font-family="Helvetica,sans-Serif" font-size="10.00" fill="#000000">+ Descriptor()</text>
<text text-anchor="start" x="257.4014" y="-635.5" font-family="Helvetica,sans-Serif" font-size="10.00" fill="#000000">+ runtimeInit()</text>
<text text-anchor="start" x="257.4014" y="-624.5" font-family="Helvetica,sans-Serif" font-size="10.00" fill="#000000">+ operator==()</text>
<text text-anchor="start" x="257.4014" y="-613.5" font-family="Helvetica,sans-Serif" font-size="10.00" fill="#000000">+ operator&lt;()</text>
<text text-anchor="start" x="257.4014" y="-602.5" font-family="Helvetica,sans-Serif" font-size="10.00" fill="#000000">+ operator!=()</text>
<text text-anchor="start" x="257.4014" y="-591.5" font-family="Helvetica,sans-Serif" font-size="10.00" fill="#000000">+ operator==()</text>
<text text-anchor="start" x="257.4014" y="-580.5" font-family="Helvetica,sans-Serif" font-size="10.00" fill="#000000">+ operator!=()</text>
<text text-anchor="start" x="257.4014" y="-569.5" font-family="Helvetica,sans-Serif" font-size="10.00" fill="#000000">+ as()</text>
<text text-anchor="start" x="257.4014" y="-558.5" font-family="Helvetica,sans-Serif" font-size="10.00" fill="#000000">+ print()</text>
</a>
</g>
</g>
<!-- Node16&#45;&gt;Node20 -->
<g id="edge7" class="edge">
<title>Node16&#45;&gt;Node20</title>
<path fill="none" stroke="#404040" d="M401.4493,-832.3858C395.8763,-826.6221 390.4302,-820.368 385.9014,-814 376.9252,-801.3785 368.5705,-787.4964 360.9494,-773.3687"/>
<polygon fill="none" stroke="#404040" points="360.8405,-773.1609 354.5112,-769.7055 355.2664,-762.534 361.5957,-765.9895 360.8405,-773.1609"/>
<text text-anchor="middle" x="402.9014" y="-795" font-family="Helvetica,sans-Serif" font-size="10.00" fill="#000000"> +@78</text>
</g>
<!-- Node22 -->
<g id="node9" class="node">
<title>Node22</title>
<g id="a_node9"><a xlink:href="../../d9/db3/structo2_1_1header_1_1Descriptor.html" target="_top" xlink:title="{o2::header::Descriptor\l\&lt; gSizeSerializationMethodString \&gt;\n||+ Descriptor()\l+ Descriptor()\l+ Descriptor()\l+ Descriptor()\l+ operator=()\l+ operator ItgType()\l+ runtimeInit()\l+ operator==()\l+ operator==()\l+ operator\&lt;()\l+ operator!=()\l+ operator!=()\l+ as()\l+ print()\l}">
<polygon fill="none" stroke="#000000" points="145.4014,-281.5 145.4014,-492.5 336.4014,-492.5 336.4014,-281.5 145.4014,-281.5"/>
<text text-anchor="start" x="153.4014" y="-480.5" font-family="Helvetica,sans-Serif" font-size="10.00" fill="#000000">o2::header::Descriptor</text>
<text text-anchor="middle" x="240.9014" y="-469.5" font-family="Helvetica,sans-Serif" font-size="10.00" fill="#000000">&lt; gSizeSerializationMethodString &gt;</text>
<polyline fill="none" stroke="#000000" points="145.4014,-462.5 336.4014,-462.5 "/>
<text text-anchor="middle" x="240.9014" y="-450.5" font-family="Helvetica,sans-Serif" font-size="10.00" fill="#000000"> </text>
<polyline fill="none" stroke="#000000" points="145.4014,-443.5 336.4014,-443.5 "/>
<text text-anchor="start" x="153.4014" y="-431.5" font-family="Helvetica,sans-Serif" font-size="10.00" fill="#000000">+ Descriptor()</text>
<text text-anchor="start" x="153.4014" y="-420.5" font-family="Helvetica,sans-Serif" font-size="10.00" fill="#000000">+ Descriptor()</text>
<text text-anchor="start" x="153.4014" y="-409.5" font-family="Helvetica,sans-Serif" font-size="10.00" fill="#000000">+ Descriptor()</text>
<text text-anchor="start" x="153.4014" y="-398.5" font-family="Helvetica,sans-Serif" font-size="10.00" fill="#000000">+ Descriptor()</text>
<text text-anchor="start" x="153.4014" y="-387.5" font-family="Helvetica,sans-Serif" font-size="10.00" fill="#000000">+ operator=()</text>
<text text-anchor="start" x="153.4014" y="-376.5" font-family="Helvetica,sans-Serif" font-size="10.00" fill="#000000">+ operator ItgType()</text>
<text text-anchor="start" x="153.4014" y="-365.5" font-family="Helvetica,sans-Serif" font-size="10.00" fill="#000000">+ runtimeInit()</text>
<text text-anchor="start" x="153.4014" y="-354.5" font-family="Helvetica,sans-Serif" font-size="10.00" fill="#000000">+ operator==()</text>
<text text-anchor="start" x="153.4014" y="-343.5" font-family="Helvetica,sans-Serif" font-size="10.00" fill="#000000">+ operator==()</text>
<text text-anchor="start" x="153.4014" y="-332.5" font-family="Helvetica,sans-Serif" font-size="10.00" fill="#000000">+ operator&lt;()</text>
<text text-anchor="start" x="153.4014" y="-321.5" font-family="Helvetica,sans-Serif" font-size="10.00" fill="#000000">+ operator!=()</text>
<text text-anchor="start" x="153.4014" y="-310.5" font-family="Helvetica,sans-Serif" font-size="10.00" fill="#000000">+ operator!=()</text>
<text text-anchor="start" x="153.4014" y="-299.5" font-family="Helvetica,sans-Serif" font-size="10.00" fill="#000000">+ as()</text>
<text text-anchor="start" x="153.4014" y="-288.5" font-family="Helvetica,sans-Serif" font-size="10.00" fill="#000000">+ print()</text>
</a>
</g>
</g>
<!-- Node16&#45;&gt;Node22 -->
<g id="edge14" class="edge">
<title>Node16&#45;&gt;Node22</title>
<path fill="none" stroke="#404040" d="M430.9395,-832.3698C428.8312,-816.8933 425.3755,-797.6049 419.9014,-781 417.101,-772.5054 413.5231,-771.5514 410.9014,-763 383.0438,-672.1339 421.8694,-637.6844 382.9014,-551 373.0149,-529.0075 359.1919,-507.7578 344.0199,-488.2548"/>
<polygon fill="none" stroke="#404040" points="343.972,-488.195 337.1002,-486.0093 336.4747,-478.8254 343.3466,-481.0111 343.972,-488.195"/>
<text text-anchor="middle" x="427.9014" y="-654.5" font-family="Helvetica,sans-Serif" font-size="10.00" fill="#000000"> +@78</text>
</g>
<!-- Node17 -->
<g id="node4" class="node">
<title>Node17</title>
<polygon fill="none" stroke="#bfbfbf" points="292.4014,-832.5 292.4014,-889.5 331.4014,-889.5 331.4014,-832.5 292.4014,-832.5"/>
<text text-anchor="middle" x="311.9014" y="-877.5" font-family="Helvetica,sans-Serif" font-size="10.00" fill="#000000">Type</text>
<polyline fill="none" stroke="#bfbfbf" points="292.4014,-870.5 331.4014,-870.5 "/>
<text text-anchor="middle" x="311.9014" y="-858.5" font-family="Helvetica,sans-Serif" font-size="10.00" fill="#000000"> </text>
<polyline fill="none" stroke="#bfbfbf" points="292.4014,-851.5 331.4014,-851.5 "/>
<text text-anchor="middle" x="311.9014" y="-839.5" font-family="Helvetica,sans-Serif" font-size="10.00" fill="#000000"> </text>
</g>
<!-- Node17&#45;&gt;Node15 -->
<g id="edge3" class="edge">
<title>Node17&#45;&gt;Node15</title>
<path fill="none" stroke="#404040" d="M328.1291,-832.3458C340.0746,-812.2323 355.9119,-787.7655 365.9014,-781 397.1546,-759.8333 422.2092,-789.6893 448.9014,-763 517.0806,-694.8282 433.232,-625.1127 494.9014,-551 508.1531,-535.0744 526.4233,-550.2479 537.9014,-533 543.8097,-524.1216 546.56,-514.5493 546.9792,-504.7022"/>
<polygon fill="none" stroke="#404040" points="546.9728,-504.5685 542.6861,-498.7699 546.39,-492.5827 550.6767,-498.3813 546.9728,-504.5685"/>
<text text-anchor="middle" x="507.4014" y="-654.5" font-family="Helvetica,sans-Serif" font-size="10.00" fill="#000000"> +itg</text>
</g>
<!-- Node17&#45;&gt;Node20 -->
<g id="edge8" class="edge">
<title>Node17&#45;&gt;Node20</title>
<path fill="none" stroke="#404040" d="M311.9014,-832.2045C311.9014,-816.616 311.9014,-796.2061 311.9014,-774.8459"/>
<polygon fill="none" stroke="#404040" points="311.9015,-774.5491 307.9014,-768.5491 311.9014,-762.5491 315.9014,-768.5491 311.9015,-774.5491"/>
<text text-anchor="middle" x="324.4014" y="-795" font-family="Helvetica,sans-Serif" font-size="10.00" fill="#000000"> +itg</text>
</g>
<!-- Node17&#45;&gt;Node22 -->
<g id="edge15" class="edge">
<title>Node17&#45;&gt;Node22</title>
<path fill="none" stroke="#404040" d="M302.4847,-832.3164C295.1195,-814.5852 283.0412,-792.9938 264.9014,-781 238.9201,-763.8216 146.4627,-786.3956 125.9014,-763 63.7013,-692.2259 97.5377,-640.8517 125.9014,-551 131.0472,-534.699 138.4569,-518.6113 147.0714,-503.2562"/>
<polygon fill="none" stroke="#404040" points="147.1578,-503.1083 146.7332,-495.9097 153.2147,-492.7491 153.6394,-499.9477 147.1578,-503.1083"/>
<text text-anchor="middle" x="138.4014" y="-654.5" font-family="Helvetica,sans-Serif" font-size="10.00" fill="#000000"> +itg</text>
</g>
<!-- Node18 -->
<g id="node5" class="node">
<title>Node18</title>
<polygon fill="none" stroke="#bfbfbf" points="609.9014,-832.5 609.9014,-889.5 647.9014,-889.5 647.9014,-832.5 609.9014,-832.5"/>
<text text-anchor="middle" x="628.9014" y="-877.5" font-family="Helvetica,sans-Serif" font-size="10.00" fill="#000000">char</text>
<polyline fill="none" stroke="#bfbfbf" points="609.9014,-870.5 647.9014,-870.5 "/>
<text text-anchor="middle" x="628.9014" y="-858.5" font-family="Helvetica,sans-Serif" font-size="10.00" fill="#000000"> </text>
<polyline fill="none" stroke="#bfbfbf" points="609.9014,-851.5 647.9014,-851.5 "/>
<text text-anchor="middle" x="628.9014" y="-839.5" font-family="Helvetica,sans-Serif" font-size="10.00" fill="#000000"> </text>
</g>
<!-- Node18&#45;&gt;Node14 -->
<g id="edge12" class="edge">
<title>Node18&#45;&gt;Node14</title>
<path fill="none" stroke="#404040" d="M648.0624,-838.6111C662.8587,-819.806 682.2253,-791.5056 690.9014,-763 751.8945,-562.6056 745.145,-313.7591 735.2625,-179.9303"/>
<polygon fill="none" stroke="#404040" points="735.2452,-179.7028 730.7992,-174.0254 734.3298,-167.7378 738.7759,-173.4152 735.2452,-179.7028"/>
<text text-anchor="middle" x="769.9014" y="-519.5" font-family="Helvetica,sans-Serif" font-size="10.00" fill="#000000"> +magicString</text>
</g>
<!-- Node18&#45;&gt;Node15 -->
<g id="edge4" class="edge">
<title>Node18&#45;&gt;Node15</title>
<path fill="none" stroke="#404040" d="M638.0003,-832.187C654.202,-775.6258 682.709,-647.2044 641.9014,-551 627.4181,-516.8556 608.0974,-519.2559 581.9014,-493 581.7097,-492.8079 581.5179,-492.6156 581.3259,-492.423"/>
<polygon fill="none" stroke="#404040" points="581.0461,-492.141 573.9805,-490.6997 572.5934,-483.6232 579.659,-485.0646 581.0461,-492.141"/>
<text text-anchor="middle" x="674.4014" y="-654.5" font-family="Helvetica,sans-Serif" font-size="10.00" fill="#000000"> +str</text>
</g>
<!-- Node18&#45;&gt;Node20 -->
<g id="edge9" class="edge">
<title>Node18&#45;&gt;Node20</title>
<path fill="none" stroke="#404040" d="M609.8586,-853.9145C556.3703,-833.9166 407.449,-777.5475 388.9014,-763 387.0222,-761.5261 385.1676,-759.9947 383.3387,-758.4131"/>
<polygon fill="none" stroke="#404040" points="383.2049,-758.2888 376.0868,-757.1346 374.4145,-750.12 381.5326,-751.2743 383.2049,-758.2888"/>
<text text-anchor="middle" x="516.4014" y="-795" font-family="Helvetica,sans-Serif" font-size="10.00" fill="#000000"> +str</text>
</g>
<!-- Node18&#45;&gt;Node22 -->
<g id="edge16" class="edge">
<title>Node18&#45;&gt;Node22</title>
<path fill="none" stroke="#404040" d="M609.5371,-846.1272C588.5967,-828.7592 556.2861,-797.9199 541.9014,-763 531.2201,-737.0707 547.087,-531.4531 527.9014,-511 504.9329,-486.5141 408.966,-505.7319 377.9014,-493 367.3687,-488.6831 356.9555,-483.3255 346.8569,-477.3292"/>
<polygon fill="none" stroke="#404040" points="346.6478,-477.1993 339.4404,-477.4303 336.4551,-470.8661 343.6626,-470.6351 346.6478,-477.1993"/>
<text text-anchor="middle" x="554.4014" y="-654.5" font-family="Helvetica,sans-Serif" font-size="10.00" fill="#000000"> +str</text>
</g>
<!-- Node19 -->
<g id="node6" class="node">
<title>Node19</title>
<polygon fill="none" stroke="#bfbfbf" points="158.4014,-832.5 158.4014,-889.5 187.4014,-889.5 187.4014,-832.5 158.4014,-832.5"/>
<text text-anchor="middle" x="172.9014" y="-877.5" font-family="Helvetica,sans-Serif" font-size="10.00" fill="#000000">int</text>
<polyline fill="none" stroke="#bfbfbf" points="158.4014,-870.5 187.4014,-870.5 "/>
<text text-anchor="middle" x="172.9014" y="-858.5" font-family="Helvetica,sans-Serif" font-size="10.00" fill="#000000"> </text>
<polyline fill="none" stroke="#bfbfbf" points="158.4014,-851.5 187.4014,-851.5 "/>
<text text-anchor="middle" x="172.9014" y="-839.5" font-family="Helvetica,sans-Serif" font-size="10.00" fill="#000000"> </text>
</g>
<!-- Node19&#45;&gt;Node15 -->
<g id="edge5" class="edge">
<title>Node19&#45;&gt;Node15</title>
<path fill="none" stroke="#404040" d="M169.9887,-832.393C162.9185,-755.6687 148.9627,-548.5886 199.9014,-511 252.1541,-472.4417 284.9522,-517.9636 344.9014,-493 355.8363,-488.4466 366.6302,-482.7515 377.0633,-476.3792"/>
<polygon fill="none" stroke="#404040" points="377.2545,-476.2572 380.1583,-469.6566 387.368,-469.7984 384.4642,-476.399 377.2545,-476.2572"/>
<text text-anchor="middle" x="205.9014" y="-665.5" font-family="Helvetica,sans-Serif" font-size="10.00" fill="#000000"> +arraySize</text>
<text text-anchor="middle" x="205.9014" y="-654.5" font-family="Helvetica,sans-Serif" font-size="10.00" fill="#000000">+size</text>
<text text-anchor="middle" x="205.9014" y="-643.5" font-family="Helvetica,sans-Serif" font-size="10.00" fill="#000000">+bitcount</text>
</g>
<!-- Node19&#45;&gt;Node20 -->
<g id="edge10" class="edge">
<title>Node19&#45;&gt;Node20</title>
<path fill="none" stroke="#404040" d="M187.5141,-839.554C200.8529,-819.9777 221.5974,-789.5325 242.3482,-759.078"/>
<polygon fill="none" stroke="#404040" points="242.618,-758.6821 242.6909,-751.4713 249.375,-748.7653 249.3021,-755.9761 242.618,-758.6821"/>
<text text-anchor="middle" x="254.9014" y="-806" font-family="Helvetica,sans-Serif" font-size="10.00" fill="#000000"> +arraySize</text>
<text text-anchor="middle" x="254.9014" y="-795" font-family="Helvetica,sans-Serif" font-size="10.00" fill="#000000">+size</text>
<text text-anchor="middle" x="254.9014" y="-784" font-family="Helvetica,sans-Serif" font-size="10.00" fill="#000000">+bitcount</text>
</g>
<!-- Node19&#45;&gt;Node22 -->
<g id="edge17" class="edge">
<title>Node19&#45;&gt;Node22</title>
<path fill="none" stroke="#404040" d="M158.221,-856.0765C127.9398,-845.023 59.1095,-815.045 31.9014,-763 -11.7509,-679.4997 -9.3136,-635.7299 31.9014,-551 53.8943,-505.7868 95.0546,-469.3417 135.0703,-442.3957"/>
<polygon fill="none" stroke="#404040" points="135.1712,-442.3296 137.9958,-435.6947 145.2067,-435.7502 142.3821,-442.3851 135.1712,-442.3296"/>
<text text-anchor="middle" x="60.9014" y="-665.5" font-family="Helvetica,sans-Serif" font-size="10.00" fill="#000000"> +arraySize</text>
<text text-anchor="middle" x="60.9014" y="-654.5" font-family="Helvetica,sans-Serif" font-size="10.00" fill="#000000">+size</text>
<text text-anchor="middle" x="60.9014" y="-643.5" font-family="Helvetica,sans-Serif" font-size="10.00" fill="#000000">+bitcount</text>
</g>
<!-- Node20&#45;&gt;Node15 -->
<g id="edge6" class="edge">
<title>Node20&#45;&gt;Node15</title>
<path fill="none" stroke="#ffa500" d="M379.9686,-547.6063C391.2661,-529.4496 402.9627,-510.6515 414.2001,-492.5914"/>
<polygon fill="#ffa500" stroke="#ffa500" points="376.7697,-546.1223 374.4584,-556.462 382.7131,-549.8205 376.7697,-546.1223"/>
<text text-anchor="start" x="401.9014" y="-525" font-family="Helvetica,sans-Serif" font-size="10.00" fill="#000000"> &lt; gSizeHeaderDescription</text>
<text text-anchor="middle" x="467.9014" y="-514" font-family="Helvetica,sans-Serif" font-size="10.00" fill="#000000">String &gt;</text>
</g>
<!-- Node20&#45;&gt;Node22 -->
<g id="edge18" class="edge">
<title>Node20&#45;&gt;Node22</title>
<path fill="none" stroke="#ffa500" d="M242.662,-559.0655C240.1023,-556.2966 237.5129,-553.6006 234.9014,-551 225.1997,-541.3391 216.1434,-545.1858 209.9014,-533 203.463,-520.4308 201.171,-506.5963 201.5517,-492.6048"/>
<polygon fill="#ffa500" stroke="#ffa500" points="240.0848,-561.4341 249.3626,-566.55 245.3001,-556.765 240.0848,-561.4341"/>
<text text-anchor="start" x="209.9014" y="-525" font-family="Helvetica,sans-Serif" font-size="10.00" fill="#000000"> &lt; gSizeSerializationMethod</text>
<text text-anchor="middle" x="278.9014" y="-514" font-family="Helvetica,sans-Serif" font-size="10.00" fill="#000000">String &gt;</text>
</g>
<!-- Node21 -->
<g id="node8" class="node">
<title>Node21</title>
<polygon fill="none" stroke="#bfbfbf" points="590.4014,-358.5 590.4014,-415.5 697.4014,-415.5 697.4014,-358.5 590.4014,-358.5"/>
<text text-anchor="middle" x="643.9014" y="-403.5" font-family="Helvetica,sans-Serif" font-size="10.00" fill="#000000">anonymous:+@80</text>
<polyline fill="none" stroke="#bfbfbf" points="590.4014,-396.5 697.4014,-396.5 "/>
<text text-anchor="middle" x="643.9014" y="-384.5" font-family="Helvetica,sans-Serif" font-size="10.00" fill="#000000"> </text>
<polyline fill="none" stroke="#bfbfbf" points="590.4014,-377.5 697.4014,-377.5 "/>
<text text-anchor="middle" x="643.9014" y="-365.5" font-family="Helvetica,sans-Serif" font-size="10.00" fill="#000000"> </text>
</g>
<!-- Node21&#45;&gt;Node14 -->
<g id="edge11" class="edge">
<title>Node21&#45;&gt;Node14</title>
<path fill="none" stroke="#404040" d="M646.2644,-358.4675C650.0856,-318.9797 659.1675,-245.7762 677.9014,-186 678.6147,-183.7239 679.3689,-181.4334 680.1585,-179.1349"/>
<polygon fill="none" stroke="#404040" points="680.2529,-178.8765 678.5576,-171.8675 684.3754,-167.6068 686.0707,-174.6158 680.2529,-178.8765"/>
<text text-anchor="middle" x="694.9014" y="-222" font-family="Helvetica,sans-Serif" font-size="10.00" fill="#000000"> +@80</text>
</g>
<!-- Node22&#45;&gt;Node14 -->
<g id="edge13" class="edge">
<title>Node22&#45;&gt;Node14</title>
<path fill="none" stroke="#404040" d="M336.5339,-286.276C373.5779,-251.2314 417.8811,-213.7811 462.9014,-186 514.0469,-154.4391 576.5935,-129.6978 627.8574,-112.4903"/>
<polygon fill="none" stroke="#404040" points="627.8907,-112.4794 632.3334,-106.7994 639.2852,-108.7157 634.8425,-114.3957 627.8907,-112.4794"/>
<text text-anchor="middle" x="498.9014" y="-222" font-family="Helvetica,sans-Serif" font-size="10.00" fill="#000000"> +serialization</text>
</g>
<!-- Node23 -->
<g id="node10" class="node">
<title>Node23</title>
<g id="a_node10"><a xlink:href="../../d3/d87/classuint32__t.html" target="_top" xlink:title="{uint32_t\n||}">
<polygon fill="none" stroke="#000000" points="753.9014,-358.5 753.9014,-415.5 809.9014,-415.5 809.9014,-358.5 753.9014,-358.5"/>
<text text-anchor="middle" x="781.9014" y="-403.5" font-family="Helvetica,sans-Serif" font-size="10.00" fill="#000000">uint32_t</text>
<polyline fill="none" stroke="#000000" points="753.9014,-396.5 809.9014,-396.5 "/>
<text text-anchor="middle" x="781.9014" y="-384.5" font-family="Helvetica,sans-Serif" font-size="10.00" fill="#000000"> </text>
<polyline fill="none" stroke="#000000" points="753.9014,-377.5 809.9014,-377.5 "/>
<text text-anchor="middle" x="781.9014" y="-365.5" font-family="Helvetica,sans-Serif" font-size="10.00" fill="#000000"> </text>
</a>
</g>
</g>
<!-- Node23&#45;&gt;Node14 -->
<g id="edge19" class="edge">
<title>Node23&#45;&gt;Node14</title>
<path fill="none" stroke="#404040" d="M776.633,-358.4945C769.1412,-317.9586 755.0498,-241.7139 743.616,-179.8486"/>
<polygon fill="none" stroke="#404040" points="743.5483,-179.4823 738.5245,-174.3092 741.3674,-167.6821 746.3912,-172.8552 743.5483,-179.4823"/>
<text text-anchor="middle" x="804.4014" y="-255" font-family="Helvetica,sans-Serif" font-size="10.00" fill="#000000"> +headerVersion</text>
<text text-anchor="middle" x="804.4014" y="-244" font-family="Helvetica,sans-Serif" font-size="10.00" fill="#000000">+headerSize</text>
<text text-anchor="middle" x="804.4014" y="-233" font-family="Helvetica,sans-Serif" font-size="10.00" fill="#000000">+sMagicString</text>
<text text-anchor="middle" x="804.4014" y="-222" font-family="Helvetica,sans-Serif" font-size="10.00" fill="#000000">+flagsNextHeader</text>
<text text-anchor="middle" x="804.4014" y="-211" font-family="Helvetica,sans-Serif" font-size="10.00" fill="#000000">+magicStringInt</text>
<text text-anchor="middle" x="804.4014" y="-200" font-family="Helvetica,sans-Serif" font-size="10.00" fill="#000000">+flagsUnused</text>
<text text-anchor="middle" x="804.4014" y="-189" font-family="Helvetica,sans-Serif" font-size="10.00" fill="#000000">+flags</text>
</g>
<!-- Node24 -->
<g id="node11" class="node">
<title>Node24</title>
<polygon fill="none" stroke="#bfbfbf" points="828.4014,-358.5 828.4014,-415.5 935.4014,-415.5 935.4014,-358.5 828.4014,-358.5"/>
<text text-anchor="middle" x="881.9014" y="-403.5" font-family="Helvetica,sans-Serif" font-size="10.00" fill="#000000">anonymous:+@82</text>
<polyline fill="none" stroke="#bfbfbf" points="828.4014,-396.5 935.4014,-396.5 "/>
<text text-anchor="middle" x="881.9014" y="-384.5" font-family="Helvetica,sans-Serif" font-size="10.00" fill="#000000"> </text>
<polyline fill="none" stroke="#bfbfbf" points="828.4014,-377.5 935.4014,-377.5 "/>
<text text-anchor="middle" x="881.9014" y="-365.5" font-family="Helvetica,sans-Serif" font-size="10.00" fill="#000000"> </text>
</g>
<!-- Node24&#45;&gt;Node14 -->
<g id="edge20" class="edge">
<title>Node24&#45;&gt;Node14</title>
<path fill="none" stroke="#404040" d="M884.3039,-358.2557C886.382,-317.2282 885.1388,-240.7872 853.9014,-186 845.5773,-171.4004 834.2673,-158.1024 821.7954,-146.2838"/>
<polygon fill="none" stroke="#404040" points="821.4508,-145.9735 814.3156,-144.9298 812.5347,-137.9421 819.6699,-138.9857 821.4508,-145.9735"/>
<text text-anchor="middle" x="894.9014" y="-222" font-family="Helvetica,sans-Serif" font-size="10.00" fill="#000000"> +@82</text>
</g>
<!-- Node25 -->
<g id="node12" class="node">
<title>Node25</title>
<polygon fill="none" stroke="#bfbfbf" points="953.4014,-358.5 953.4014,-415.5 996.4014,-415.5 996.4014,-358.5 953.4014,-358.5"/>
<text text-anchor="middle" x="974.9014" y="-403.5" font-family="Helvetica,sans-Serif" font-size="10.00" fill="#000000">const</text>
<polyline fill="none" stroke="#bfbfbf" points="953.4014,-396.5 996.4014,-396.5 "/>
<text text-anchor="middle" x="974.9014" y="-384.5" font-family="Helvetica,sans-Serif" font-size="10.00" fill="#000000"> </text>
<polyline fill="none" stroke="#bfbfbf" points="953.4014,-377.5 996.4014,-377.5 "/>
<text text-anchor="middle" x="974.9014" y="-365.5" font-family="Helvetica,sans-Serif" font-size="10.00" fill="#000000"> </text>
</g>
<!-- Node25&#45;&gt;Node14 -->
<g id="edge21" class="edge">
<title>Node25&#45;&gt;Node14</title>
<path fill="none" stroke="#404040" d="M973.429,-358.4553C969.8628,-316.2943 957.6597,-236.8856 915.9014,-186 891.7894,-156.6178 856.9201,-134.4983 823.6179,-118.5022"/>
<polygon fill="none" stroke="#404040" points="823.2919,-118.3513 816.1666,-119.4609 812.4019,-113.3105 819.5272,-112.2009 823.2919,-118.3513"/>
<text text-anchor="middle" x="1009.4014" y="-233" font-family="Helvetica,sans-Serif" font-size="10.00" fill="#000000"> +sHeaderType</text>
<text text-anchor="middle" x="1009.4014" y="-222" font-family="Helvetica,sans-Serif" font-size="10.00" fill="#000000">+sSerializationMethod</text>
<text text-anchor="middle" x="1009.4014" y="-211" font-family="Helvetica,sans-Serif" font-size="10.00" fill="#000000">+sVersion</text>
</g>
</g>
</svg>
