<?xml version="1.0" encoding="UTF-8" standalone="no"?>
<!DOCTYPE svg PUBLIC "-//W3C//DTD SVG 1.1//EN"
 "http://www.w3.org/Graphics/SVG/1.1/DTD/svg11.dtd">
<!-- Generated by graphviz version 2.40.1 (20161225.0304)
 -->
<!-- Title: o2::header::RAWDataHeaderV2 Pages: 1 -->
<!--zoomable 369 -->
<svg id="main" version="1.1" xmlns="http://www.w3.org/2000/svg" xmlns:xlink="http://www.w3.org/1999/xlink" xml:space="preserve" onload="init(evt)">
<style type="text/css"><![CDATA[
.edge:hover path { stroke: red; }
.edge:hover polygon { stroke: red; fill: red; }
]]></style>
<script type="text/javascript"><![CDATA[
var edges = document.getElementsByTagName('g');
if (edges && edges.length) {
  for (var i=0;i<edges.length;i++) {
    if (edges[i].id.substr(0,4)=='edge') {
      edges[i].setAttribute('class','edge');
    }
  }
}
]]></script>
        <defs>
                <circle id="rim" cx="0" cy="0" r="7"/>
                <circle id="rim2" cx="0" cy="0" r="3.5"/>
                <g id="zoomPlus">
                        <use xlink:href="#rim" fill="#404040">
                                <set attributeName="fill" to="#808080" begin="zoomplus.mouseover" end="zoomplus.mouseout"/>
                        </use>
                        <path d="M-4,0h8M0,-4v8" fill="none" stroke="white" stroke-width="1.5" pointer-events="none"/>
                </g>
                <g id="zoomMin">
                        <use xlink:href="#rim" fill="#404040">
                                <set attributeName="fill" to="#808080" begin="zoomminus.mouseover" end="zoomminus.mouseout"/>
                        </use>
                        <path d="M-4,0h8" fill="none" stroke="white" stroke-width="1.5" pointer-events="none"/>
                </g>
                <g id="dirArrow">
                        <path fill="none" stroke="white" stroke-width="1.5" d="M0,-3.0v7 M-2.5,-0.5L0,-3.0L2.5,-0.5"/>
                </g>
               <g id="resetDef">
                       <use xlink:href="#rim2" fill="#404040">
                               <set attributeName="fill" to="#808080" begin="reset.mouseover" end="reset.mouseout"/>
                       </use>
               </g>
        </defs>

<script type="text/javascript">
var viewWidth = 682;
var viewHeight = 369;
var sectionId = 'dynsection-0';
</script>
<script xlink:href="../../svgpan.js"/>
<svg id="graph" class="graph">
<g id="viewport">
<title>o2::header::RAWDataHeaderV2</title>
<!-- Node1 -->
<g id="node1" class="node">
<title>Node1</title>
<polygon fill="#bfbfbf" stroke="#000000" points="207.5,-.5 207.5,-145.5 374.5,-145.5 374.5,-.5 207.5,-.5"/>
<text text-anchor="middle" x="291" y="-133.5" font-family="Helvetica,sans-Serif" font-size="10.00" fill="#000000">o2::header::RAWDataHeaderV2</text>
<polyline fill="none" stroke="#000000" points="207.5,-126.5 374.5,-126.5 "/>
<text text-anchor="start" x="215.5" y="-114.5" font-family="Helvetica,sans-Serif" font-size="10.00" fill="#000000">+ zero0</text>
<text text-anchor="start" x="215.5" y="-103.5" font-family="Helvetica,sans-Serif" font-size="10.00" fill="#000000">+ word1</text>
<text text-anchor="start" x="215.5" y="-92.5" font-family="Helvetica,sans-Serif" font-size="10.00" fill="#000000">+ word2</text>
<text text-anchor="start" x="215.5" y="-81.5" font-family="Helvetica,sans-Serif" font-size="10.00" fill="#000000">+ zero2</text>
<text text-anchor="start" x="215.5" y="-70.5" font-family="Helvetica,sans-Serif" font-size="10.00" fill="#000000">+ word3</text>
<text text-anchor="start" x="215.5" y="-59.5" font-family="Helvetica,sans-Serif" font-size="10.00" fill="#000000">+ pageCnt</text>
<text text-anchor="start" x="215.5" y="-48.5" font-family="Helvetica,sans-Serif" font-size="10.00" fill="#000000">+ stop</text>
<text text-anchor="start" x="215.5" y="-37.5" font-family="Helvetica,sans-Serif" font-size="10.00" fill="#000000">+ detectorField</text>
<text text-anchor="start" x="215.5" y="-26.5" font-family="Helvetica,sans-Serif" font-size="10.00" fill="#000000">+ zero3</text>
<polyline fill="none" stroke="#000000" points="207.5,-19.5 374.5,-19.5 "/>
<text text-anchor="middle" x="291" y="-7.5" font-family="Helvetica,sans-Serif" font-size="10.00" fill="#000000"> </text>
</g>
<!-- Node2 -->
<g id="node2" class="node">
<title>Node2</title>
<g id="a_node2"><a xlink:href="../../d6/d30/classuint64__t.html" target="_top" xlink:title="{uint64_t\n||}">
<polygon fill="none" stroke="#000000" points="0,-303.5 0,-360.5 56,-360.5 56,-303.5 0,-303.5"/>
<text text-anchor="middle" x="28" y="-348.5" font-family="Helvetica,sans-Serif" font-size="10.00" fill="#000000">uint64_t</text>
<polyline fill="none" stroke="#000000" points="0,-341.5 56,-341.5 "/>
<text text-anchor="middle" x="28" y="-329.5" font-family="Helvetica,sans-Serif" font-size="10.00" fill="#000000"> </text>
<polyline fill="none" stroke="#000000" points="0,-322.5 56,-322.5 "/>
<text text-anchor="middle" x="28" y="-310.5" font-family="Helvetica,sans-Serif" font-size="10.00" fill="#000000"> </text>
</a>
</g>
</g>
<!-- Node2&#45;&gt;Node1 -->
<g id="edge1" class="edge">
<title>Node2&#45;&gt;Node1</title>
<path fill="none" stroke="#404040" d="M22.4593,-303.4345C17.1265,-267.0911 13.8689,-204.2226 45,-164 64.3433,-139.0077 135.0309,-114.3646 195.698,-97.0394"/>
<polygon fill="none" stroke="#404040" points="195.7341,-97.0293 200.4281,-91.5552 207.2865,-93.7827 202.5925,-99.2568 195.7341,-97.0293"/>
<text text-anchor="middle" x="80" y="-277" font-family="Helvetica,sans-Serif" font-size="10.00" fill="#000000"> +triggerType</text>
<text text-anchor="middle" x="80" y="-266" font-family="Helvetica,sans-Serif" font-size="10.00" fill="#000000">+par</text>
<text text-anchor="middle" x="80" y="-255" font-family="Helvetica,sans-Serif" font-size="10.00" fill="#000000">+feeId</text>
<text text-anchor="middle" x="80" y="-244" font-family="Helvetica,sans-Serif" font-size="10.00" fill="#000000">+linkId</text>
<text text-anchor="middle" x="80" y="-233" font-family="Helvetica,sans-Serif" font-size="10.00" fill="#000000">+headerSize</text>
<text text-anchor="middle" x="80" y="-222" font-family="Helvetica,sans-Serif" font-size="10.00" fill="#000000">+version</text>
<text text-anchor="middle" x="80" y="-211" font-family="Helvetica,sans-Serif" font-size="10.00" fill="#000000">+triggerBC</text>
<text text-anchor="middle" x="80" y="-200" font-family="Helvetica,sans-Serif" font-size="10.00" fill="#000000">+blockLength</text>
<text text-anchor="middle" x="80" y="-189" font-family="Helvetica,sans-Serif" font-size="10.00" fill="#000000">+heartbeatBC</text>
<text text-anchor="middle" x="80" y="-178" font-family="Helvetica,sans-Serif" font-size="10.00" fill="#000000">+word0</text>
<text text-anchor="middle" x="80" y="-167" font-family="Helvetica,sans-Serif" font-size="10.00" fill="#000000">...</text>
</g>
<!-- Node3 -->
<g id="node3" class="node">
<title>Node3</title>
<g id="a_node3"><a xlink:href="../../d3/d87/classuint32__t.html" target="_top" xlink:title="{uint32_t\n||}">
<polygon fill="none" stroke="#000000" points="93,-303.5 93,-360.5 149,-360.5 149,-303.5 93,-303.5"/>
<text text-anchor="middle" x="121" y="-348.5" font-family="Helvetica,sans-Serif" font-size="10.00" fill="#000000">uint32_t</text>
<polyline fill="none" stroke="#000000" points="93,-341.5 149,-341.5 "/>
<text text-anchor="middle" x="121" y="-329.5" font-family="Helvetica,sans-Serif" font-size="10.00" fill="#000000"> </text>
<polyline fill="none" stroke="#000000" points="93,-322.5 149,-322.5 "/>
<text text-anchor="middle" x="121" y="-310.5" font-family="Helvetica,sans-Serif" font-size="10.00" fill="#000000"> </text>
</a>
</g>
</g>
<!-- Node3&#45;&gt;Node1 -->
<g id="edge2" class="edge">
<title>Node3&#45;&gt;Node1</title>
<path fill="none" stroke="#404040" d="M119.0217,-303.3201C117.9854,-267.7004 121.0001,-206.4571 149,-164 161.2297,-145.4558 178.6817,-129.9108 197.1867,-117.2161"/>
<polygon fill="none" stroke="#404040" points="197.1958,-117.2101 200.031,-110.5798 207.2418,-110.6467 204.4066,-117.2771 197.1958,-117.2101"/>
<text text-anchor="middle" x="190.5" y="-227.5" font-family="Helvetica,sans-Serif" font-size="10.00" fill="#000000"> +heartbeatOrbit</text>
<text text-anchor="middle" x="190.5" y="-216.5" font-family="Helvetica,sans-Serif" font-size="10.00" fill="#000000">+triggerOrbit</text>
</g>
<!-- Node4 -->
<g id="node4" class="node">
<title>Node4</title>
<polygon fill="none" stroke="#bfbfbf" points="167.5,-303.5 167.5,-360.5 280.5,-360.5 280.5,-303.5 167.5,-303.5"/>
<text text-anchor="middle" x="224" y="-348.5" font-family="Helvetica,sans-Serif" font-size="10.00" fill="#000000">anonymous:+@172</text>
<polyline fill="none" stroke="#bfbfbf" points="167.5,-341.5 280.5,-341.5 "/>
<text text-anchor="middle" x="224" y="-329.5" font-family="Helvetica,sans-Serif" font-size="10.00" fill="#000000"> </text>
<polyline fill="none" stroke="#bfbfbf" points="167.5,-322.5 280.5,-322.5 "/>
<text text-anchor="middle" x="224" y="-310.5" font-family="Helvetica,sans-Serif" font-size="10.00" fill="#000000"> </text>
</g>
<!-- Node4&#45;&gt;Node1 -->
<g id="edge3" class="edge">
<title>Node4&#45;&gt;Node1</title>
<path fill="none" stroke="#404040" d="M231.4262,-303.2929C240.463,-268.3595 256.1245,-207.8173 269.1218,-157.5739"/>
<polygon fill="none" stroke="#404040" points="269.1862,-157.3247 266.8164,-150.5142 272.1916,-145.7072 274.5614,-152.5177 269.1862,-157.3247"/>
<text text-anchor="middle" x="287" y="-222" font-family="Helvetica,sans-Serif" font-size="10.00" fill="#000000"> +@172</text>
</g>
<!-- Node5 -->
<g id="node5" class="node">
<title>Node5</title>
<polygon fill="none" stroke="#bfbfbf" points="298.5,-303.5 298.5,-360.5 411.5,-360.5 411.5,-303.5 298.5,-303.5"/>
<text text-anchor="middle" x="355" y="-348.5" font-family="Helvetica,sans-Serif" font-size="10.00" fill="#000000">anonymous:+@174</text>
<polyline fill="none" stroke="#bfbfbf" points="298.5,-341.5 411.5,-341.5 "/>
<text text-anchor="middle" x="355" y="-329.5" font-family="Helvetica,sans-Serif" font-size="10.00" fill="#000000"> </text>
<polyline fill="none" stroke="#bfbfbf" points="298.5,-322.5 411.5,-322.5 "/>
<text text-anchor="middle" x="355" y="-310.5" font-family="Helvetica,sans-Serif" font-size="10.00" fill="#000000"> </text>
</g>
<!-- Node5&#45;&gt;Node1 -->
<g id="edge4" class="edge">
<title>Node5&#45;&gt;Node1</title>
<path fill="none" stroke="#404040" d="M347.9063,-303.2929C339.2742,-268.3595 324.3139,-207.8173 311.8986,-157.5739"/>
<polygon fill="none" stroke="#404040" points="311.845,-157.3568 306.5224,-152.4915 308.9662,-145.7072 314.2888,-150.5724 311.845,-157.3568"/>
<text text-anchor="middle" x="362" y="-222" font-family="Helvetica,sans-Serif" font-size="10.00" fill="#000000"> +@174</text>
</g>
<!-- Node6 -->
<g id="node6" class="node">
<title>Node6</title>
<polygon fill="none" stroke="#bfbfbf" points="429.5,-303.5 429.5,-360.5 542.5,-360.5 542.5,-303.5 429.5,-303.5"/>
<text text-anchor="middle" x="486" y="-348.5" font-family="Helvetica,sans-Serif" font-size="10.00" fill="#000000">anonymous:+@176</text>
<polyline fill="none" stroke="#bfbfbf" points="429.5,-341.5 542.5,-341.5 "/>
<text text-anchor="middle" x="486" y="-329.5" font-family="Helvetica,sans-Serif" font-size="10.00" fill="#000000"> </text>
<polyline fill="none" stroke="#bfbfbf" points="429.5,-322.5 542.5,-322.5 "/>
<text text-anchor="middle" x="486" y="-310.5" font-family="Helvetica,sans-Serif" font-size="10.00" fill="#000000"> </text>
</g>
<!-- Node6&#45;&gt;Node1 -->
<g id="edge5" class="edge">
<title>Node6&#45;&gt;Node1</title>
<path fill="none" stroke="#404040" d="M472.0422,-303.4552C454.4207,-268.7752 422.0242,-209.2929 386,-164 383.5476,-160.9166 380.9944,-157.8356 378.365,-154.7706"/>
<polygon fill="none" stroke="#404040" points="378.2311,-154.6194 371.2582,-152.781 370.2733,-145.6375 377.2462,-147.4759 378.2311,-154.6194"/>
<text text-anchor="middle" x="480" y="-222" font-family="Helvetica,sans-Serif" font-size="10.00" fill="#000000"> +@176</text>
</g>
<!-- Node7 -->
<g id="node7" class="node">
<title>Node7</title>
<polygon fill="none" stroke="#bfbfbf" points="560.5,-303.5 560.5,-360.5 673.5,-360.5 673.5,-303.5 560.5,-303.5"/>
<text text-anchor="middle" x="617" y="-348.5" font-family="Helvetica,sans-Serif" font-size="10.00" fill="#000000">anonymous:+@178</text>
<polyline fill="none" stroke="#bfbfbf" points="560.5,-341.5 673.5,-341.5 "/>
<text text-anchor="middle" x="617" y="-329.5" font-family="Helvetica,sans-Serif" font-size="10.00" fill="#000000"> </text>
<polyline fill="none" stroke="#bfbfbf" points="560.5,-322.5 673.5,-322.5 "/>
<text text-anchor="middle" x="617" y="-310.5" font-family="Helvetica,sans-Serif" font-size="10.00" fill="#000000"> </text>
</g>
<!-- Node7&#45;&gt;Node1 -->
<g id="edge6" class="edge">
<title>Node7&#45;&gt;Node1</title>
<path fill="none" stroke="#404040" d="M604.1504,-303.3329C586.3916,-266.5894 551.1234,-202.9895 504,-164 469.8088,-135.7105 425.5141,-114.9005 386.1805,-100.3786"/>
<polygon fill="none" stroke="#404040" points="385.9882,-100.3097 378.9904,-102.0507 374.6918,-96.2608 381.6897,-94.5198 385.9882,-100.3097"/>
<text text-anchor="middle" x="613" y="-222" font-family="Helvetica,sans-Serif" font-size="10.00" fill="#000000"> +@178</text>
</g>
</g>
</svg>
        <g id="navigator" transform="translate(0 0)" fill="#404254">
                <rect fill="#f2f5e9" fill-opacity="0.5" stroke="#606060" stroke-width=".5" x="0" y="0" width="60" height="60"/>
                <use id="zoomplus" xlink:href="#zoomPlus" x="17" y="9" onmousedown="handleZoom(evt,'in')"/>
                <use id="zoomminus" xlink:href="#zoomMin" x="42" y="9" onmousedown="handleZoom(evt,'out')"/>
                <use id="reset" xlink:href="#resetDef" x="30" y="36" onmousedown="handleReset()"/>
                <g id="arrowUp" xlink:href="#dirArrow" transform="translate(30 24)" onmousedown="handlePan(0,-1)">
                  <use xlink:href="#rim" fill="#404040">
                        <set attributeName="fill" to="#808080" begin="arrowUp.mouseover" end="arrowUp.mouseout"/>
                  </use>
                  <path fill="none" stroke="white" stroke-width="1.5" d="M0,-3.0v7 M-2.5,-0.5L0,-3.0L2.5,-0.5"/>
                </g>
                <g id="arrowRight" xlink:href="#dirArrow" transform="rotate(90) translate(36 -43)" onmousedown="handlePan(1,0)">
                  <use xlink:href="#rim" fill="#404040">
                        <set attributeName="fill" to="#808080" begin="arrowRight.mouseover" end="arrowRight.mouseout"/>
                  </use>
                  <path fill="none" stroke="white" stroke-width="1.5" d="M0,-3.0v7 M-2.5,-0.5L0,-3.0L2.5,-0.5"/>
                </g>
                <g id="arrowDown" xlink:href="#dirArrow" transform="rotate(180) translate(-30 -48)" onmousedown="handlePan(0,1)">
                  <use xlink:href="#rim" fill="#404040">
                        <set attributeName="fill" to="#808080" begin="arrowDown.mouseover" end="arrowDown.mouseout"/>
                  </use>
                  <path fill="none" stroke="white" stroke-width="1.5" d="M0,-3.0v7 M-2.5,-0.5L0,-3.0L2.5,-0.5"/>
                </g>
                <g id="arrowLeft" xlink:href="#dirArrow" transform="rotate(270) translate(-36 17)" onmousedown="handlePan(-1,0)">
                  <use xlink:href="#rim" fill="#404040">
                        <set attributeName="fill" to="#808080" begin="arrowLeft.mouseover" end="arrowLeft.mouseout"/>
                  </use>
                  <path fill="none" stroke="white" stroke-width="1.5" d="M0,-3.0v7 M-2.5,-0.5L0,-3.0L2.5,-0.5"/>
                </g>
        </g>
        <svg viewBox="0 0 15 15" width="100%" height="30px" preserveAspectRatio="xMaxYMin meet">
         <g id="arrow_out" transform="scale(0.3 0.3)">
          <a xlink:href="structo2_1_1header_1_1RAWDataHeaderV2__coll__graph_org.svg" target="_base">
           <rect id="button" ry="5" rx="5" y="6" x="6" height="38" width="38"
                fill="#f2f5e9" fill-opacity="0.5" stroke="#606060" stroke-width="1.0"/>
           <path id="arrow"
             d="M 11.500037,31.436501 C 11.940474,20.09759 22.043105,11.32322 32.158766,21.979434 L 37.068811,17.246167 C 37.068811,17.246167 37.088388,32 37.088388,32 L 22.160133,31.978069 C 22.160133,31.978069 26.997745,27.140456 26.997745,27.140456 C 18.528582,18.264221 13.291696,25.230495 11.500037,31.436501 z"
             style="fill:#404040;"/>
          </a>
         </g>
        </svg>
</svg>
