<?xml version="1.0" encoding="UTF-8" standalone="no"?>
<!DOCTYPE svg PUBLIC "-//W3C//DTD SVG 1.1//EN"
 "http://www.w3.org/Graphics/SVG/1.1/DTD/svg11.dtd">
<!-- Generated by graphviz version 2.40.1 (20161225.0304)
 -->
<!-- Title: o2::framework::DataProcessingHeader Pages: 1 -->
<!--zoomable 1091 -->
<svg id="main" version="1.1" xmlns="http://www.w3.org/2000/svg" xmlns:xlink="http://www.w3.org/1999/xlink" xml:space="preserve" onload="init(evt)">
<style type="text/css"><![CDATA[
.edge:hover path { stroke: red; }
.edge:hover polygon { stroke: red; fill: red; }
]]></style>
<script type="text/javascript"><![CDATA[
var edges = document.getElementsByTagName('g');
if (edges && edges.length) {
  for (var i=0;i<edges.length;i++) {
    if (edges[i].id.substr(0,4)=='edge') {
      edges[i].setAttribute('class','edge');
    }
  }
}
]]></script>
        <defs>
                <circle id="rim" cx="0" cy="0" r="7"/>
                <circle id="rim2" cx="0" cy="0" r="3.5"/>
                <g id="zoomPlus">
                        <use xlink:href="#rim" fill="#404040">
                                <set attributeName="fill" to="#808080" begin="zoomplus.mouseover" end="zoomplus.mouseout"/>
                        </use>
                        <path d="M-4,0h8M0,-4v8" fill="none" stroke="white" stroke-width="1.5" pointer-events="none"/>
                </g>
                <g id="zoomMin">
                        <use xlink:href="#rim" fill="#404040">
                                <set attributeName="fill" to="#808080" begin="zoomminus.mouseover" end="zoomminus.mouseout"/>
                        </use>
                        <path d="M-4,0h8" fill="none" stroke="white" stroke-width="1.5" pointer-events="none"/>
                </g>
                <g id="dirArrow">
                        <path fill="none" stroke="white" stroke-width="1.5" d="M0,-3.0v7 M-2.5,-0.5L0,-3.0L2.5,-0.5"/>
                </g>
               <g id="resetDef">
                       <use xlink:href="#rim2" fill="#404040">
                               <set attributeName="fill" to="#808080" begin="reset.mouseover" end="reset.mouseout"/>
                       </use>
               </g>
        </defs>

<script type="text/javascript">
var viewWidth = 1083;
var viewHeight = 1091;
var sectionId = 'dynsection-1';
</script>
<script xlink:href="../../svgpan.js"/>
<svg id="graph" class="graph">
<g id="viewport">
<title>o2::framework::DataProcessingHeader</title>
<!-- Node2 -->
<g id="node1" class="node">
<title>Node2</title>
<polygon fill="#bfbfbf" stroke="#000000" points="773.9351,-.5 773.9351,-123.5 943.9351,-123.5 943.9351,-.5 773.9351,-.5"/>
<text text-anchor="start" x="781.9351" y="-111.5" font-family="Helvetica,sans-Serif" font-size="10.00" fill="#000000">o2::framework::DataProcessing</text>
<text text-anchor="middle" x="858.9351" y="-100.5" font-family="Helvetica,sans-Serif" font-size="10.00" fill="#000000">Header</text>
<polyline fill="none" stroke="#000000" points="773.9351,-93.5 943.9351,-93.5 "/>
<text text-anchor="middle" x="858.9351" y="-81.5" font-family="Helvetica,sans-Serif" font-size="10.00" fill="#000000"> </text>
<polyline fill="none" stroke="#000000" points="773.9351,-74.5 943.9351,-74.5 "/>
<text text-anchor="start" x="781.9351" y="-62.5" font-family="Helvetica,sans-Serif" font-size="10.00" fill="#000000">+ DataProcessingHeader()</text>
<text text-anchor="start" x="781.9351" y="-51.5" font-family="Helvetica,sans-Serif" font-size="10.00" fill="#000000">+ DataProcessingHeader()</text>
<text text-anchor="start" x="781.9351" y="-40.5" font-family="Helvetica,sans-Serif" font-size="10.00" fill="#000000">+ DataProcessingHeader()</text>
<text text-anchor="start" x="781.9351" y="-29.5" font-family="Helvetica,sans-Serif" font-size="10.00" fill="#000000">+ DataProcessingHeader()</text>
<text text-anchor="start" x="781.9351" y="-18.5" font-family="Helvetica,sans-Serif" font-size="10.00" fill="#000000">+ getCreationTime()</text>
<text text-anchor="start" x="781.9351" y="-7.5" font-family="Helvetica,sans-Serif" font-size="10.00" fill="#000000">+ Get()</text>
</g>
<!-- Node3 -->
<g id="node2" class="node">
<title>Node3</title>
<g id="a_node2"><a xlink:href="../../d8/dbd/structo2_1_1header_1_1BaseHeader.html" target="_top" xlink:title="the base header struct Every header type must begin (i.e. derive) with this. Don&#39;t use this struct di...">
<polygon fill="none" stroke="#000000" points="639.4351,-193.5 639.4351,-360.5 812.4351,-360.5 812.4351,-193.5 639.4351,-193.5"/>
<text text-anchor="middle" x="725.9351" y="-348.5" font-family="Helvetica,sans-Serif" font-size="10.00" fill="#000000">o2::header::BaseHeader</text>
<polyline fill="none" stroke="#000000" points="639.4351,-341.5 812.4351,-341.5 "/>
<text text-anchor="middle" x="725.9351" y="-329.5" font-family="Helvetica,sans-Serif" font-size="10.00" fill="#000000"> </text>
<polyline fill="none" stroke="#000000" points="639.4351,-322.5 812.4351,-322.5 "/>
<text text-anchor="start" x="647.4351" y="-310.5" font-family="Helvetica,sans-Serif" font-size="10.00" fill="#000000">+ BaseHeader()</text>
<text text-anchor="start" x="647.4351" y="-299.5" font-family="Helvetica,sans-Serif" font-size="10.00" fill="#000000">+ BaseHeader()</text>
<text text-anchor="start" x="647.4351" y="-288.5" font-family="Helvetica,sans-Serif" font-size="10.00" fill="#000000">+ BaseHeader()</text>
<text text-anchor="start" x="647.4351" y="-277.5" font-family="Helvetica,sans-Serif" font-size="10.00" fill="#000000">+ size()</text>
<text text-anchor="start" x="647.4351" y="-266.5" font-family="Helvetica,sans-Serif" font-size="10.00" fill="#000000">+ data()</text>
<text text-anchor="start" x="647.4351" y="-255.5" font-family="Helvetica,sans-Serif" font-size="10.00" fill="#000000">+ next()</text>
<text text-anchor="start" x="647.4351" y="-244.5" font-family="Helvetica,sans-Serif" font-size="10.00" fill="#000000">+ next()</text>
<text text-anchor="start" x="647.4351" y="-233.5" font-family="Helvetica,sans-Serif" font-size="10.00" fill="#000000">+ sanityCheck()</text>
<text text-anchor="start" x="647.4351" y="-222.5" font-family="Helvetica,sans-Serif" font-size="10.00" fill="#000000">+ throwInconsistentStackError()</text>
<text text-anchor="start" x="647.4351" y="-211.5" font-family="Helvetica,sans-Serif" font-size="10.00" fill="#000000">+ get()</text>
<text text-anchor="start" x="647.4351" y="-200.5" font-family="Helvetica,sans-Serif" font-size="10.00" fill="#000000">+ get()</text>
</a>
</g>
</g>
<!-- Node3&#45;&gt;Node2 -->
<g id="edge1" class="edge">
<title>Node3&#45;&gt;Node2</title>
<path fill="none" stroke="#191970" d="M783.1651,-184.4854C795.9093,-163.8838 809.1169,-142.5333 820.8658,-123.5407"/>
<polygon fill="none" stroke="#191970" points="780.0216,-182.9141 777.7372,-193.2598 785.9746,-186.5967 780.0216,-182.9141"/>
</g>
<!-- Node4 -->
<g id="node3" class="node">
<title>Node4</title>
<g id="a_node3"><a xlink:href="../../d9/db3/structo2_1_1header_1_1Descriptor.html" target="_top" xlink:title="{o2::header::Descriptor\l\&lt; gSizeHeaderDescriptionString \&gt;\n||+ Descriptor()\l+ Descriptor()\l+ Descriptor()\l+ Descriptor()\l+ operator=()\l+ operator ItgType()\l+ runtimeInit()\l+ operator==()\l+ operator==()\l+ operator\&lt;()\l+ operator!=()\l+ operator!=()\l+ as()\l+ print()\l}">
<polygon fill="none" stroke="#000000" points="387.4351,-474.5 387.4351,-685.5 572.4351,-685.5 572.4351,-474.5 387.4351,-474.5"/>
<text text-anchor="start" x="395.4351" y="-673.5" font-family="Helvetica,sans-Serif" font-size="10.00" fill="#000000">o2::header::Descriptor</text>
<text text-anchor="middle" x="479.9351" y="-662.5" font-family="Helvetica,sans-Serif" font-size="10.00" fill="#000000">&lt; gSizeHeaderDescriptionString &gt;</text>
<polyline fill="none" stroke="#000000" points="387.4351,-655.5 572.4351,-655.5 "/>
<text text-anchor="middle" x="479.9351" y="-643.5" font-family="Helvetica,sans-Serif" font-size="10.00" fill="#000000"> </text>
<polyline fill="none" stroke="#000000" points="387.4351,-636.5 572.4351,-636.5 "/>
<text text-anchor="start" x="395.4351" y="-624.5" font-family="Helvetica,sans-Serif" font-size="10.00" fill="#000000">+ Descriptor()</text>
<text text-anchor="start" x="395.4351" y="-613.5" font-family="Helvetica,sans-Serif" font-size="10.00" fill="#000000">+ Descriptor()</text>
<text text-anchor="start" x="395.4351" y="-602.5" font-family="Helvetica,sans-Serif" font-size="10.00" fill="#000000">+ Descriptor()</text>
<text text-anchor="start" x="395.4351" y="-591.5" font-family="Helvetica,sans-Serif" font-size="10.00" fill="#000000">+ Descriptor()</text>
<text text-anchor="start" x="395.4351" y="-580.5" font-family="Helvetica,sans-Serif" font-size="10.00" fill="#000000">+ operator=()</text>
<text text-anchor="start" x="395.4351" y="-569.5" font-family="Helvetica,sans-Serif" font-size="10.00" fill="#000000">+ operator ItgType()</text>
<text text-anchor="start" x="395.4351" y="-558.5" font-family="Helvetica,sans-Serif" font-size="10.00" fill="#000000">+ runtimeInit()</text>
<text text-anchor="start" x="395.4351" y="-547.5" font-family="Helvetica,sans-Serif" font-size="10.00" fill="#000000">+ operator==()</text>
<text text-anchor="start" x="395.4351" y="-536.5" font-family="Helvetica,sans-Serif" font-size="10.00" fill="#000000">+ operator==()</text>
<text text-anchor="start" x="395.4351" y="-525.5" font-family="Helvetica,sans-Serif" font-size="10.00" fill="#000000">+ operator&lt;()</text>
<text text-anchor="start" x="395.4351" y="-514.5" font-family="Helvetica,sans-Serif" font-size="10.00" fill="#000000">+ operator!=()</text>
<text text-anchor="start" x="395.4351" y="-503.5" font-family="Helvetica,sans-Serif" font-size="10.00" fill="#000000">+ operator!=()</text>
<text text-anchor="start" x="395.4351" y="-492.5" font-family="Helvetica,sans-Serif" font-size="10.00" fill="#000000">+ as()</text>
<text text-anchor="start" x="395.4351" y="-481.5" font-family="Helvetica,sans-Serif" font-size="10.00" fill="#000000">+ print()</text>
</a>
</g>
</g>
<!-- Node4&#45;&gt;Node3 -->
<g id="edge2" class="edge">
<title>Node4&#45;&gt;Node3</title>
<path fill="none" stroke="#404040" d="M526.9154,-474.3481C544.1119,-441.8657 565.4474,-407.2592 589.9351,-379 601.6678,-365.4603 615.4831,-352.6066 629.7338,-340.8749"/>
<polygon fill="none" stroke="#404040" points="629.7808,-340.8372 631.9604,-333.9634 639.1438,-333.3315 636.9642,-340.2054 629.7808,-340.8372"/>
<text text-anchor="middle" x="622.9351" y="-415" font-family="Helvetica,sans-Serif" font-size="10.00" fill="#000000"> +description</text>
</g>
<!-- Node5 -->
<g id="node4" class="node">
<title>Node5</title>
<polygon fill="none" stroke="#bfbfbf" points="380.4351,-1025.5 380.4351,-1082.5 487.4351,-1082.5 487.4351,-1025.5 380.4351,-1025.5"/>
<text text-anchor="middle" x="433.9351" y="-1070.5" font-family="Helvetica,sans-Serif" font-size="10.00" fill="#000000">anonymous:+@78</text>
<polyline fill="none" stroke="#bfbfbf" points="380.4351,-1063.5 487.4351,-1063.5 "/>
<text text-anchor="middle" x="433.9351" y="-1051.5" font-family="Helvetica,sans-Serif" font-size="10.00" fill="#000000"> </text>
<polyline fill="none" stroke="#bfbfbf" points="380.4351,-1044.5 487.4351,-1044.5 "/>
<text text-anchor="middle" x="433.9351" y="-1032.5" font-family="Helvetica,sans-Serif" font-size="10.00" fill="#000000"> </text>
</g>
<!-- Node5&#45;&gt;Node4 -->
<g id="edge3" class="edge">
<title>Node5&#45;&gt;Node4</title>
<path fill="none" stroke="#404040" d="M487.6154,-1034.2765C503.1678,-1027.0909 519.5472,-1017.9786 532.9351,-1007 554.7925,-989.0761 561.4578,-982.6307 570.9351,-956 608.5162,-850.3997 618.5015,-809.6055 580.9351,-704 579.9537,-701.241 578.8817,-698.4989 577.7282,-695.7769"/>
<polygon fill="none" stroke="#404040" points="577.6354,-695.5782 571.4699,-691.8382 572.551,-684.7085 578.7164,-688.4486 577.6354,-695.5782"/>
<text text-anchor="middle" x="621.9351" y="-847.5" font-family="Helvetica,sans-Serif" font-size="10.00" fill="#000000"> +@78</text>
</g>
<!-- Node9 -->
<g id="node8" class="node">
<title>Node9</title>
<g id="a_node8"><a xlink:href="../../d9/db3/structo2_1_1header_1_1Descriptor.html" target="_top" xlink:title="{o2::header::Descriptor\l\&lt; N, PrinterPolicy \&gt;\n||+ Descriptor()\l+ Descriptor()\l+ Descriptor()\l+ operator=()\l+ operator ItgType()\l+ Descriptor()\l+ runtimeInit()\l+ operator==()\l+ operator\&lt;()\l+ operator!=()\l+ operator==()\l+ operator!=()\l+ as()\l+ print()\l}">
<polygon fill="none" stroke="#000000" points="249.4351,-744.5 249.4351,-955.5 374.4351,-955.5 374.4351,-744.5 249.4351,-744.5"/>
<text text-anchor="start" x="257.4351" y="-943.5" font-family="Helvetica,sans-Serif" font-size="10.00" fill="#000000">o2::header::Descriptor</text>
<text text-anchor="middle" x="311.9351" y="-932.5" font-family="Helvetica,sans-Serif" font-size="10.00" fill="#000000">&lt; N, PrinterPolicy &gt;</text>
<polyline fill="none" stroke="#000000" points="249.4351,-925.5 374.4351,-925.5 "/>
<text text-anchor="middle" x="311.9351" y="-913.5" font-family="Helvetica,sans-Serif" font-size="10.00" fill="#000000"> </text>
<polyline fill="none" stroke="#000000" points="249.4351,-906.5 374.4351,-906.5 "/>
<text text-anchor="start" x="257.4351" y="-894.5" font-family="Helvetica,sans-Serif" font-size="10.00" fill="#000000">+ Descriptor()</text>
<text text-anchor="start" x="257.4351" y="-883.5" font-family="Helvetica,sans-Serif" font-size="10.00" fill="#000000">+ Descriptor()</text>
<text text-anchor="start" x="257.4351" y="-872.5" font-family="Helvetica,sans-Serif" font-size="10.00" fill="#000000">+ Descriptor()</text>
<text text-anchor="start" x="257.4351" y="-861.5" font-family="Helvetica,sans-Serif" font-size="10.00" fill="#000000">+ operator=()</text>
<text text-anchor="start" x="257.4351" y="-850.5" font-family="Helvetica,sans-Serif" font-size="10.00" fill="#000000">+ operator ItgType()</text>
<text text-anchor="start" x="257.4351" y="-839.5" font-family="Helvetica,sans-Serif" font-size="10.00" fill="#000000">+ Descriptor()</text>
<text text-anchor="start" x="257.4351" y="-828.5" font-family="Helvetica,sans-Serif" font-size="10.00" fill="#000000">+ runtimeInit()</text>
<text text-anchor="start" x="257.4351" y="-817.5" font-family="Helvetica,sans-Serif" font-size="10.00" fill="#000000">+ operator==()</text>
<text text-anchor="start" x="257.4351" y="-806.5" font-family="Helvetica,sans-Serif" font-size="10.00" fill="#000000">+ operator&lt;()</text>
<text text-anchor="start" x="257.4351" y="-795.5" font-family="Helvetica,sans-Serif" font-size="10.00" fill="#000000">+ operator!=()</text>
<text text-anchor="start" x="257.4351" y="-784.5" font-family="Helvetica,sans-Serif" font-size="10.00" fill="#000000">+ operator==()</text>
<text text-anchor="start" x="257.4351" y="-773.5" font-family="Helvetica,sans-Serif" font-size="10.00" fill="#000000">+ operator!=()</text>
<text text-anchor="start" x="257.4351" y="-762.5" font-family="Helvetica,sans-Serif" font-size="10.00" fill="#000000">+ as()</text>
<text text-anchor="start" x="257.4351" y="-751.5" font-family="Helvetica,sans-Serif" font-size="10.00" fill="#000000">+ print()</text>
</a>
</g>
</g>
<!-- Node5&#45;&gt;Node9 -->
<g id="edge8" class="edge">
<title>Node5&#45;&gt;Node9</title>
<path fill="none" stroke="#404040" d="M401.4831,-1025.3858C395.91,-1019.6221 390.4639,-1013.368 385.9351,-1007 376.959,-994.3785 368.6042,-980.4964 360.9831,-966.3687"/>
<polygon fill="none" stroke="#404040" points="360.8742,-966.1609 354.5449,-962.7055 355.3001,-955.534 361.6295,-958.9895 360.8742,-966.1609"/>
<text text-anchor="middle" x="402.9351" y="-988" font-family="Helvetica,sans-Serif" font-size="10.00" fill="#000000"> +@78</text>
</g>
<!-- Node11 -->
<g id="node10" class="node">
<title>Node11</title>
<g id="a_node10"><a xlink:href="../../d9/db3/structo2_1_1header_1_1Descriptor.html" target="_top" xlink:title="{o2::header::Descriptor\l\&lt; gSizeSerializationMethodString \&gt;\n||+ Descriptor()\l+ Descriptor()\l+ Descriptor()\l+ Descriptor()\l+ operator=()\l+ operator ItgType()\l+ runtimeInit()\l+ operator==()\l+ operator==()\l+ operator\&lt;()\l+ operator!=()\l+ operator!=()\l+ as()\l+ print()\l}">
<polygon fill="none" stroke="#000000" points="146.4351,-474.5 146.4351,-685.5 337.4351,-685.5 337.4351,-474.5 146.4351,-474.5"/>
<text text-anchor="start" x="154.4351" y="-673.5" font-family="Helvetica,sans-Serif" font-size="10.00" fill="#000000">o2::header::Descriptor</text>
<text text-anchor="middle" x="241.9351" y="-662.5" font-family="Helvetica,sans-Serif" font-size="10.00" fill="#000000">&lt; gSizeSerializationMethodString &gt;</text>
<polyline fill="none" stroke="#000000" points="146.4351,-655.5 337.4351,-655.5 "/>
<text text-anchor="middle" x="241.9351" y="-643.5" font-family="Helvetica,sans-Serif" font-size="10.00" fill="#000000"> </text>
<polyline fill="none" stroke="#000000" points="146.4351,-636.5 337.4351,-636.5 "/>
<text text-anchor="start" x="154.4351" y="-624.5" font-family="Helvetica,sans-Serif" font-size="10.00" fill="#000000">+ Descriptor()</text>
<text text-anchor="start" x="154.4351" y="-613.5" font-family="Helvetica,sans-Serif" font-size="10.00" fill="#000000">+ Descriptor()</text>
<text text-anchor="start" x="154.4351" y="-602.5" font-family="Helvetica,sans-Serif" font-size="10.00" fill="#000000">+ Descriptor()</text>
<text text-anchor="start" x="154.4351" y="-591.5" font-family="Helvetica,sans-Serif" font-size="10.00" fill="#000000">+ Descriptor()</text>
<text text-anchor="start" x="154.4351" y="-580.5" font-family="Helvetica,sans-Serif" font-size="10.00" fill="#000000">+ operator=()</text>
<text text-anchor="start" x="154.4351" y="-569.5" font-family="Helvetica,sans-Serif" font-size="10.00" fill="#000000">+ operator ItgType()</text>
<text text-anchor="start" x="154.4351" y="-558.5" font-family="Helvetica,sans-Serif" font-size="10.00" fill="#000000">+ runtimeInit()</text>
<text text-anchor="start" x="154.4351" y="-547.5" font-family="Helvetica,sans-Serif" font-size="10.00" fill="#000000">+ operator==()</text>
<text text-anchor="start" x="154.4351" y="-536.5" font-family="Helvetica,sans-Serif" font-size="10.00" fill="#000000">+ operator==()</text>
<text text-anchor="start" x="154.4351" y="-525.5" font-family="Helvetica,sans-Serif" font-size="10.00" fill="#000000">+ operator&lt;()</text>
<text text-anchor="start" x="154.4351" y="-514.5" font-family="Helvetica,sans-Serif" font-size="10.00" fill="#000000">+ operator!=()</text>
<text text-anchor="start" x="154.4351" y="-503.5" font-family="Helvetica,sans-Serif" font-size="10.00" fill="#000000">+ operator!=()</text>
<text text-anchor="start" x="154.4351" y="-492.5" font-family="Helvetica,sans-Serif" font-size="10.00" fill="#000000">+ as()</text>
<text text-anchor="start" x="154.4351" y="-481.5" font-family="Helvetica,sans-Serif" font-size="10.00" fill="#000000">+ print()</text>
</a>
</g>
</g>
<!-- Node5&#45;&gt;Node11 -->
<g id="edge15" class="edge">
<title>Node5&#45;&gt;Node11</title>
<path fill="none" stroke="#404040" d="M430.9733,-1025.3698C428.8649,-1009.8933 425.4092,-990.6049 419.9351,-974 417.1347,-965.5054 413.5568,-964.5514 410.9351,-956 383.0775,-865.1339 421.7516,-830.7524 382.9351,-744 373.2925,-722.4495 359.8807,-701.5917 345.1329,-682.3864"/>
<polygon fill="none" stroke="#404040" points="344.996,-682.2131 338.1374,-679.986 337.5553,-672.7984 344.4139,-675.0255 344.996,-682.2131"/>
<text text-anchor="middle" x="427.9351" y="-847.5" font-family="Helvetica,sans-Serif" font-size="10.00" fill="#000000"> +@78</text>
</g>
<!-- Node6 -->
<g id="node5" class="node">
<title>Node6</title>
<polygon fill="none" stroke="#bfbfbf" points="292.4351,-1025.5 292.4351,-1082.5 331.4351,-1082.5 331.4351,-1025.5 292.4351,-1025.5"/>
<text text-anchor="middle" x="311.9351" y="-1070.5" font-family="Helvetica,sans-Serif" font-size="10.00" fill="#000000">Type</text>
<polyline fill="none" stroke="#bfbfbf" points="292.4351,-1063.5 331.4351,-1063.5 "/>
<text text-anchor="middle" x="311.9351" y="-1051.5" font-family="Helvetica,sans-Serif" font-size="10.00" fill="#000000"> </text>
<polyline fill="none" stroke="#bfbfbf" points="292.4351,-1044.5 331.4351,-1044.5 "/>
<text text-anchor="middle" x="311.9351" y="-1032.5" font-family="Helvetica,sans-Serif" font-size="10.00" fill="#000000"> </text>
</g>
<!-- Node6&#45;&gt;Node4 -->
<g id="edge4" class="edge">
<title>Node6&#45;&gt;Node4</title>
<path fill="none" stroke="#404040" d="M328.1628,-1025.3458C340.1084,-1005.2323 355.9456,-980.7655 365.9351,-974 397.1883,-952.8333 422.2429,-982.6893 448.9351,-956 517.1143,-887.8282 433.2657,-818.1127 494.9351,-744 508.1869,-728.0744 526.4571,-743.2479 537.9351,-726 543.8434,-717.1216 546.5938,-707.5493 547.013,-697.7022"/>
<polygon fill="none" stroke="#404040" points="547.0066,-697.5685 542.7199,-691.7699 546.4237,-685.5827 550.7104,-691.3813 547.0066,-697.5685"/>
<text text-anchor="middle" x="507.4351" y="-847.5" font-family="Helvetica,sans-Serif" font-size="10.00" fill="#000000"> +itg</text>
</g>
<!-- Node6&#45;&gt;Node9 -->
<g id="edge9" class="edge">
<title>Node6&#45;&gt;Node9</title>
<path fill="none" stroke="#404040" d="M311.9351,-1025.2045C311.9351,-1009.616 311.9351,-989.2061 311.9351,-967.8459"/>
<polygon fill="none" stroke="#404040" points="311.9352,-967.5491 307.9352,-961.5491 311.9351,-955.5491 315.9352,-961.5491 311.9352,-967.5491"/>
<text text-anchor="middle" x="324.4351" y="-988" font-family="Helvetica,sans-Serif" font-size="10.00" fill="#000000"> +itg</text>
</g>
<!-- Node6&#45;&gt;Node11 -->
<g id="edge16" class="edge">
<title>Node6&#45;&gt;Node11</title>
<path fill="none" stroke="#404040" d="M302.5185,-1025.3164C295.1532,-1007.5852 283.075,-985.9938 264.9351,-974 238.9539,-956.8216 146.4964,-979.3956 125.9351,-956 63.735,-885.2259 97.3884,-833.7937 125.9351,-744 131.129,-727.6627 138.6052,-711.5527 147.2958,-696.1851"/>
<polygon fill="none" stroke="#404040" points="147.3997,-696.0087 147.0005,-688.8086 153.4932,-685.6709 153.8924,-692.8709 147.3997,-696.0087"/>
<text text-anchor="middle" x="138.4351" y="-847.5" font-family="Helvetica,sans-Serif" font-size="10.00" fill="#000000"> +itg</text>
</g>
<!-- Node7 -->
<g id="node6" class="node">
<title>Node7</title>
<polygon fill="none" stroke="#bfbfbf" points="609.9351,-1025.5 609.9351,-1082.5 647.9351,-1082.5 647.9351,-1025.5 609.9351,-1025.5"/>
<text text-anchor="middle" x="628.9351" y="-1070.5" font-family="Helvetica,sans-Serif" font-size="10.00" fill="#000000">char</text>
<polyline fill="none" stroke="#bfbfbf" points="609.9351,-1063.5 647.9351,-1063.5 "/>
<text text-anchor="middle" x="628.9351" y="-1051.5" font-family="Helvetica,sans-Serif" font-size="10.00" fill="#000000"> </text>
<polyline fill="none" stroke="#bfbfbf" points="609.9351,-1044.5 647.9351,-1044.5 "/>
<text text-anchor="middle" x="628.9351" y="-1032.5" font-family="Helvetica,sans-Serif" font-size="10.00" fill="#000000"> </text>
</g>
<!-- Node7&#45;&gt;Node3 -->
<g id="edge13" class="edge">
<title>Node7&#45;&gt;Node3</title>
<path fill="none" stroke="#404040" d="M648.1164,-1032.9113C663.7572,-1014.2271 684.715,-985.4173 693.9351,-956 756.6125,-756.0238 747.7322,-506.7591 736.4105,-372.8125"/>
<polygon fill="none" stroke="#404040" points="736.3889,-372.5643 731.8821,-366.935 735.3451,-360.6098 739.8518,-366.2391 736.3889,-372.5643"/>
<text text-anchor="middle" x="773.9351" y="-712.5" font-family="Helvetica,sans-Serif" font-size="10.00" fill="#000000"> +magicString</text>
</g>
<!-- Node7&#45;&gt;Node4 -->
<g id="edge5" class="edge">
<title>Node7&#45;&gt;Node4</title>
<path fill="none" stroke="#404040" d="M638.3209,-1025.13C655.0451,-968.4689 684.5348,-839.8806 642.9351,-744 629.2071,-712.3592 611.1686,-712.2923 581.2262,-685.7694"/>
<polygon fill="none" stroke="#404040" points="581.2078,-685.7521 574.0956,-684.5617 572.459,-677.5387 579.5712,-678.7291 581.2078,-685.7521"/>
<text text-anchor="middle" x="677.4351" y="-847.5" font-family="Helvetica,sans-Serif" font-size="10.00" fill="#000000"> +str</text>
</g>
<!-- Node7&#45;&gt;Node9 -->
<g id="edge10" class="edge">
<title>Node7&#45;&gt;Node9</title>
<path fill="none" stroke="#404040" d="M609.8924,-1046.9145C556.404,-1026.9166 407.4827,-970.5475 388.9351,-956 387.0559,-954.5261 385.2013,-952.9947 383.3724,-951.4131"/>
<polygon fill="none" stroke="#404040" points="383.2386,-951.2888 376.1205,-950.1346 374.4482,-943.12 381.5663,-944.2743 383.2386,-951.2888"/>
<text text-anchor="middle" x="516.4351" y="-988" font-family="Helvetica,sans-Serif" font-size="10.00" fill="#000000"> +str</text>
</g>
<!-- Node7&#45;&gt;Node11 -->
<g id="edge17" class="edge">
<title>Node7&#45;&gt;Node11</title>
<path fill="none" stroke="#404040" d="M609.5708,-1039.1272C588.6304,-1021.7592 556.3199,-990.9199 541.9351,-956 531.2539,-930.0707 547.1208,-724.4531 527.9351,-704 504.9666,-679.5141 408.9771,-698.787 377.9351,-686 367.7716,-681.8134 357.7257,-676.647 347.9729,-670.8681"/>
<polygon fill="none" stroke="#404040" points="347.7082,-670.7039 340.5009,-670.9375 337.5132,-664.3744 344.7206,-664.1408 347.7082,-670.7039"/>
<text text-anchor="middle" x="554.4351" y="-847.5" font-family="Helvetica,sans-Serif" font-size="10.00" fill="#000000"> +str</text>
</g>
<!-- Node8 -->
<g id="node7" class="node">
<title>Node8</title>
<polygon fill="none" stroke="#bfbfbf" points="158.4351,-1025.5 158.4351,-1082.5 187.4351,-1082.5 187.4351,-1025.5 158.4351,-1025.5"/>
<text text-anchor="middle" x="172.9351" y="-1070.5" font-family="Helvetica,sans-Serif" font-size="10.00" fill="#000000">int</text>
<polyline fill="none" stroke="#bfbfbf" points="158.4351,-1063.5 187.4351,-1063.5 "/>
<text text-anchor="middle" x="172.9351" y="-1051.5" font-family="Helvetica,sans-Serif" font-size="10.00" fill="#000000"> </text>
<polyline fill="none" stroke="#bfbfbf" points="158.4351,-1044.5 187.4351,-1044.5 "/>
<text text-anchor="middle" x="172.9351" y="-1032.5" font-family="Helvetica,sans-Serif" font-size="10.00" fill="#000000"> </text>
</g>
<!-- Node8&#45;&gt;Node4 -->
<g id="edge6" class="edge">
<title>Node8&#45;&gt;Node4</title>
<path fill="none" stroke="#404040" d="M170.0207,-1025.3907C162.9463,-948.6607 148.9807,-741.5673 199.9351,-704 252.559,-665.2019 285.6137,-711.2169 345.9351,-686 356.4973,-681.5846 366.9203,-676.0913 377.006,-669.9456"/>
<polygon fill="none" stroke="#404040" points="377.2698,-669.7773 380.1764,-663.178 387.3861,-663.3227 384.4795,-669.9221 377.2698,-669.7773"/>
<text text-anchor="middle" x="205.9351" y="-858.5" font-family="Helvetica,sans-Serif" font-size="10.00" fill="#000000"> +arraySize</text>
<text text-anchor="middle" x="205.9351" y="-847.5" font-family="Helvetica,sans-Serif" font-size="10.00" fill="#000000">+size</text>
<text text-anchor="middle" x="205.9351" y="-836.5" font-family="Helvetica,sans-Serif" font-size="10.00" fill="#000000">+bitcount</text>
</g>
<!-- Node8&#45;&gt;Node9 -->
<g id="edge11" class="edge">
<title>Node8&#45;&gt;Node9</title>
<path fill="none" stroke="#404040" d="M187.5478,-1032.554C200.8866,-1012.9777 221.6311,-982.5325 242.382,-952.078"/>
<polygon fill="none" stroke="#404040" points="242.6517,-951.6821 242.7246,-944.4713 249.4088,-941.7653 249.3358,-948.9761 242.6517,-951.6821"/>
<text text-anchor="middle" x="254.9351" y="-999" font-family="Helvetica,sans-Serif" font-size="10.00" fill="#000000"> +arraySize</text>
<text text-anchor="middle" x="254.9351" y="-988" font-family="Helvetica,sans-Serif" font-size="10.00" fill="#000000">+size</text>
<text text-anchor="middle" x="254.9351" y="-977" font-family="Helvetica,sans-Serif" font-size="10.00" fill="#000000">+bitcount</text>
</g>
<!-- Node8&#45;&gt;Node11 -->
<g id="edge18" class="edge">
<title>Node8&#45;&gt;Node11</title>
<path fill="none" stroke="#404040" d="M158.2548,-1049.0765C127.9735,-1038.023 59.1432,-1008.045 31.9351,-956 -11.7172,-872.4997 -9.378,-828.6821 31.9351,-744 54.1393,-698.4867 95.7549,-661.909 136.1199,-634.9474"/>
<polygon fill="none" stroke="#404040" points="136.2824,-634.8418 139.132,-628.2177 146.3427,-628.3004 143.493,-634.9246 136.2824,-634.8418"/>
<text text-anchor="middle" x="60.9351" y="-858.5" font-family="Helvetica,sans-Serif" font-size="10.00" fill="#000000"> +arraySize</text>
<text text-anchor="middle" x="60.9351" y="-847.5" font-family="Helvetica,sans-Serif" font-size="10.00" fill="#000000">+size</text>
<text text-anchor="middle" x="60.9351" y="-836.5" font-family="Helvetica,sans-Serif" font-size="10.00" fill="#000000">+bitcount</text>
</g>
<!-- Node9&#45;&gt;Node4 -->
<g id="edge7" class="edge">
<title>Node9&#45;&gt;Node4</title>
<path fill="none" stroke="#ffa500" d="M380.0023,-740.6063C391.2998,-722.4496 402.9964,-703.6515 414.2338,-685.5914"/>
<polygon fill="#ffa500" stroke="#ffa500" points="376.8035,-739.1223 374.4921,-749.462 382.7469,-742.8205 376.8035,-739.1223"/>
<text text-anchor="start" x="401.9351" y="-718" font-family="Helvetica,sans-Serif" font-size="10.00" fill="#000000"> &lt; gSizeHeaderDescription</text>
<text text-anchor="middle" x="467.9351" y="-707" font-family="Helvetica,sans-Serif" font-size="10.00" fill="#000000">String &gt;</text>
</g>
<!-- Node9&#45;&gt;Node11 -->
<g id="edge19" class="edge">
<title>Node9&#45;&gt;Node11</title>
<path fill="none" stroke="#ffa500" d="M242.6957,-752.0655C240.1361,-749.2966 237.5466,-746.6006 234.9351,-744 225.2334,-734.3391 216.1771,-738.1858 209.9351,-726 203.4877,-713.4131 201.2357,-699.5683 201.6852,-685.5718"/>
<polygon fill="#ffa500" stroke="#ffa500" points="240.1185,-754.4341 249.3964,-759.55 245.3338,-749.765 240.1185,-754.4341"/>
<text text-anchor="start" x="209.9351" y="-718" font-family="Helvetica,sans-Serif" font-size="10.00" fill="#000000"> &lt; gSizeSerializationMethod</text>
<text text-anchor="middle" x="278.9351" y="-707" font-family="Helvetica,sans-Serif" font-size="10.00" fill="#000000">String &gt;</text>
</g>
<!-- Node10 -->
<g id="node9" class="node">
<title>Node10</title>
<polygon fill="none" stroke="#bfbfbf" points="590.4351,-551.5 590.4351,-608.5 697.4351,-608.5 697.4351,-551.5 590.4351,-551.5"/>
<text text-anchor="middle" x="643.9351" y="-596.5" font-family="Helvetica,sans-Serif" font-size="10.00" fill="#000000">anonymous:+@80</text>
<polyline fill="none" stroke="#bfbfbf" points="590.4351,-589.5 697.4351,-589.5 "/>
<text text-anchor="middle" x="643.9351" y="-577.5" font-family="Helvetica,sans-Serif" font-size="10.00" fill="#000000"> </text>
<polyline fill="none" stroke="#bfbfbf" points="590.4351,-570.5 697.4351,-570.5 "/>
<text text-anchor="middle" x="643.9351" y="-558.5" font-family="Helvetica,sans-Serif" font-size="10.00" fill="#000000"> </text>
</g>
<!-- Node10&#45;&gt;Node3 -->
<g id="edge12" class="edge">
<title>Node10&#45;&gt;Node3</title>
<path fill="none" stroke="#404040" d="M646.2981,-551.4675C650.1193,-511.9797 659.2012,-438.7762 677.9351,-379 678.6484,-376.7239 679.4026,-374.4334 680.1922,-372.1349"/>
<polygon fill="none" stroke="#404040" points="680.2867,-371.8765 678.5914,-364.8675 684.4092,-360.6068 686.1045,-367.6158 680.2867,-371.8765"/>
<text text-anchor="middle" x="694.9351" y="-415" font-family="Helvetica,sans-Serif" font-size="10.00" fill="#000000"> +@80</text>
</g>
<!-- Node11&#45;&gt;Node3 -->
<g id="edge14" class="edge">
<title>Node11&#45;&gt;Node3</title>
<path fill="none" stroke="#404040" d="M337.5871,-479.3075C374.6332,-444.2663 418.9327,-406.8101 463.9351,-379 514.6881,-347.6363 576.7032,-322.9698 627.6562,-305.7551"/>
<polygon fill="none" stroke="#404040" points="627.9636,-305.6529 632.3958,-299.9647 639.3512,-301.8682 634.919,-307.5564 627.9636,-305.6529"/>
<text text-anchor="middle" x="499.9351" y="-415" font-family="Helvetica,sans-Serif" font-size="10.00" fill="#000000"> +serialization</text>
</g>
<!-- Node12 -->
<g id="node11" class="node">
<title>Node12</title>
<g id="a_node11"><a xlink:href="../../d3/d87/classuint32__t.html" target="_top" xlink:title="{uint32_t\n||}">
<polygon fill="none" stroke="#000000" points="753.9351,-551.5 753.9351,-608.5 809.9351,-608.5 809.9351,-551.5 753.9351,-551.5"/>
<text text-anchor="middle" x="781.9351" y="-596.5" font-family="Helvetica,sans-Serif" font-size="10.00" fill="#000000">uint32_t</text>
<polyline fill="none" stroke="#000000" points="753.9351,-589.5 809.9351,-589.5 "/>
<text text-anchor="middle" x="781.9351" y="-577.5" font-family="Helvetica,sans-Serif" font-size="10.00" fill="#000000"> </text>
<polyline fill="none" stroke="#000000" points="753.9351,-570.5 809.9351,-570.5 "/>
<text text-anchor="middle" x="781.9351" y="-558.5" font-family="Helvetica,sans-Serif" font-size="10.00" fill="#000000"> </text>
</a>
</g>
</g>
<!-- Node12&#45;&gt;Node3 -->
<g id="edge20" class="edge">
<title>Node12&#45;&gt;Node3</title>
<path fill="none" stroke="#404040" d="M776.6668,-551.4945C769.175,-510.9586 755.0835,-434.7139 743.6497,-372.8486"/>
<polygon fill="none" stroke="#404040" points="743.5821,-372.4823 738.5582,-367.3092 741.4011,-360.6821 746.425,-365.8552 743.5821,-372.4823"/>
<text text-anchor="middle" x="805.4351" y="-448" font-family="Helvetica,sans-Serif" font-size="10.00" fill="#000000"> +headerVersion</text>
<text text-anchor="middle" x="805.4351" y="-437" font-family="Helvetica,sans-Serif" font-size="10.00" fill="#000000">+headerSize</text>
<text text-anchor="middle" x="805.4351" y="-426" font-family="Helvetica,sans-Serif" font-size="10.00" fill="#000000">+sMagicString</text>
<text text-anchor="middle" x="805.4351" y="-415" font-family="Helvetica,sans-Serif" font-size="10.00" fill="#000000">+flagsNextHeader</text>
<text text-anchor="middle" x="805.4351" y="-404" font-family="Helvetica,sans-Serif" font-size="10.00" fill="#000000">+magicStringInt</text>
<text text-anchor="middle" x="805.4351" y="-393" font-family="Helvetica,sans-Serif" font-size="10.00" fill="#000000">+flagsUnused</text>
<text text-anchor="middle" x="805.4351" y="-382" font-family="Helvetica,sans-Serif" font-size="10.00" fill="#000000">+flags</text>
</g>
<!-- Node13 -->
<g id="node12" class="node">
<title>Node13</title>
<polygon fill="none" stroke="#bfbfbf" points="828.4351,-551.5 828.4351,-608.5 935.4351,-608.5 935.4351,-551.5 828.4351,-551.5"/>
<text text-anchor="middle" x="881.9351" y="-596.5" font-family="Helvetica,sans-Serif" font-size="10.00" fill="#000000">anonymous:+@82</text>
<polyline fill="none" stroke="#bfbfbf" points="828.4351,-589.5 935.4351,-589.5 "/>
<text text-anchor="middle" x="881.9351" y="-577.5" font-family="Helvetica,sans-Serif" font-size="10.00" fill="#000000"> </text>
<polyline fill="none" stroke="#bfbfbf" points="828.4351,-570.5 935.4351,-570.5 "/>
<text text-anchor="middle" x="881.9351" y="-558.5" font-family="Helvetica,sans-Serif" font-size="10.00" fill="#000000"> </text>
</g>
<!-- Node13&#45;&gt;Node3 -->
<g id="edge21" class="edge">
<title>Node13&#45;&gt;Node3</title>
<path fill="none" stroke="#404040" d="M885.7053,-551.1797C889.6082,-509.3756 890.8504,-431.2178 854.9351,-379 847.0208,-367.4933 838.8531,-369.3253 822.9566,-360.7424"/>
<polygon fill="none" stroke="#404040" points="822.8263,-360.6611 815.6184,-360.8764 812.6473,-354.3058 819.8552,-354.0905 822.8263,-360.6611"/>
<text text-anchor="middle" x="899.9351" y="-415" font-family="Helvetica,sans-Serif" font-size="10.00" fill="#000000"> +@82</text>
</g>
<!-- Node14 -->
<g id="node13" class="node">
<title>Node14</title>
<polygon fill="none" stroke="#bfbfbf" points="953.4351,-551.5 953.4351,-608.5 996.4351,-608.5 996.4351,-551.5 953.4351,-551.5"/>
<text text-anchor="middle" x="974.9351" y="-596.5" font-family="Helvetica,sans-Serif" font-size="10.00" fill="#000000">const</text>
<polyline fill="none" stroke="#bfbfbf" points="953.4351,-589.5 996.4351,-589.5 "/>
<text text-anchor="middle" x="974.9351" y="-577.5" font-family="Helvetica,sans-Serif" font-size="10.00" fill="#000000"> </text>
<polyline fill="none" stroke="#bfbfbf" points="953.4351,-570.5 996.4351,-570.5 "/>
<text text-anchor="middle" x="974.9351" y="-558.5" font-family="Helvetica,sans-Serif" font-size="10.00" fill="#000000"> </text>
</g>
<!-- Node14&#45;&gt;Node3 -->
<g id="edge22" class="edge">
<title>Node14&#45;&gt;Node3</title>
<path fill="none" stroke="#404040" d="M976.1336,-551.2141C976.2734,-507.2534 969.5825,-423.7861 920.9351,-379 890.604,-351.0763 866.2942,-375.8486 823.6838,-360.7518"/>
<polygon fill="none" stroke="#404040" points="823.4941,-360.6717 816.41,-362.0192 812.4415,-355.9983 819.5256,-354.6508 823.4941,-360.6717"/>
<text text-anchor="middle" x="1019.4351" y="-426" font-family="Helvetica,sans-Serif" font-size="10.00" fill="#000000"> +sHeaderType</text>
<text text-anchor="middle" x="1019.4351" y="-415" font-family="Helvetica,sans-Serif" font-size="10.00" fill="#000000">+sSerializationMethod</text>
<text text-anchor="middle" x="1019.4351" y="-404" font-family="Helvetica,sans-Serif" font-size="10.00" fill="#000000">+sVersion</text>
</g>
<!-- Node15 -->
<g id="node14" class="node">
<title>Node15</title>
<g id="a_node14"><a xlink:href="../../d6/d30/classuint64__t.html" target="_top" xlink:title="{uint64_t\n||}">
<polygon fill="none" stroke="#000000" points="830.9351,-248.5 830.9351,-305.5 886.9351,-305.5 886.9351,-248.5 830.9351,-248.5"/>
<text text-anchor="middle" x="858.9351" y="-293.5" font-family="Helvetica,sans-Serif" font-size="10.00" fill="#000000">uint64_t</text>
<polyline fill="none" stroke="#000000" points="830.9351,-286.5 886.9351,-286.5 "/>
<text text-anchor="middle" x="858.9351" y="-274.5" font-family="Helvetica,sans-Serif" font-size="10.00" fill="#000000"> </text>
<polyline fill="none" stroke="#000000" points="830.9351,-267.5 886.9351,-267.5 "/>
<text text-anchor="middle" x="858.9351" y="-255.5" font-family="Helvetica,sans-Serif" font-size="10.00" fill="#000000"> </text>
</a>
</g>
</g>
<!-- Node15&#45;&gt;Node2 -->
<g id="edge23" class="edge">
<title>Node15&#45;&gt;Node2</title>
<path fill="none" stroke="#404040" d="M858.9351,-248.4497C858.9351,-219.8369 858.9351,-174.5935 858.9351,-135.8408"/>
<polygon fill="none" stroke="#404040" points="858.9352,-135.7825 854.9352,-129.7825 858.9351,-123.7825 862.9352,-129.7825 858.9352,-135.7825"/>
<text text-anchor="middle" x="886.9351" y="-167" font-family="Helvetica,sans-Serif" font-size="10.00" fill="#000000"> +duration</text>
<text text-anchor="middle" x="886.9351" y="-156" font-family="Helvetica,sans-Serif" font-size="10.00" fill="#000000">+startTime</text>
<text text-anchor="middle" x="886.9351" y="-145" font-family="Helvetica,sans-Serif" font-size="10.00" fill="#000000">+creation</text>
</g>
<!-- Node16 -->
<g id="node15" class="node">
<title>Node16</title>
<polygon fill="none" stroke="#bfbfbf" points="915.9351,-248.5 915.9351,-305.5 959.9351,-305.5 959.9351,-248.5 915.9351,-248.5"/>
<text text-anchor="middle" x="937.9351" y="-293.5" font-family="Helvetica,sans-Serif" font-size="10.00" fill="#000000">static</text>
<polyline fill="none" stroke="#bfbfbf" points="915.9351,-286.5 959.9351,-286.5 "/>
<text text-anchor="middle" x="937.9351" y="-274.5" font-family="Helvetica,sans-Serif" font-size="10.00" fill="#000000"> </text>
<polyline fill="none" stroke="#bfbfbf" points="915.9351,-267.5 959.9351,-267.5 "/>
<text text-anchor="middle" x="937.9351" y="-255.5" font-family="Helvetica,sans-Serif" font-size="10.00" fill="#000000"> </text>
</g>
<!-- Node16&#45;&gt;Node2 -->
<g id="edge24" class="edge">
<title>Node16&#45;&gt;Node2</title>
<path fill="none" stroke="#404040" d="M937.024,-248.3164C935.2765,-220.264 930.2554,-176.8078 915.9351,-142 914.9071,-139.5013 913.788,-137.0054 912.593,-134.5216"/>
<polygon fill="none" stroke="#404040" points="912.5056,-134.3554 906.1709,-130.91 906.9149,-123.7373 913.2496,-127.1828 912.5056,-134.3554"/>
<text text-anchor="middle" x="963.4351" y="-161.5" font-family="Helvetica,sans-Serif" font-size="10.00" fill="#000000"> +sHeaderType</text>
<text text-anchor="middle" x="963.4351" y="-150.5" font-family="Helvetica,sans-Serif" font-size="10.00" fill="#000000">+sVersion</text>
</g>
</g>
</svg>
        <g id="navigator" transform="translate(0 0)" fill="#404254">
                <rect fill="#f2f5e9" fill-opacity="0.5" stroke="#606060" stroke-width=".5" x="0" y="0" width="60" height="60"/>
                <use id="zoomplus" xlink:href="#zoomPlus" x="17" y="9" onmousedown="handleZoom(evt,'in')"/>
                <use id="zoomminus" xlink:href="#zoomMin" x="42" y="9" onmousedown="handleZoom(evt,'out')"/>
                <use id="reset" xlink:href="#resetDef" x="30" y="36" onmousedown="handleReset()"/>
                <g id="arrowUp" xlink:href="#dirArrow" transform="translate(30 24)" onmousedown="handlePan(0,-1)">
                  <use xlink:href="#rim" fill="#404040">
                        <set attributeName="fill" to="#808080" begin="arrowUp.mouseover" end="arrowUp.mouseout"/>
                  </use>
                  <path fill="none" stroke="white" stroke-width="1.5" d="M0,-3.0v7 M-2.5,-0.5L0,-3.0L2.5,-0.5"/>
                </g>
                <g id="arrowRight" xlink:href="#dirArrow" transform="rotate(90) translate(36 -43)" onmousedown="handlePan(1,0)">
                  <use xlink:href="#rim" fill="#404040">
                        <set attributeName="fill" to="#808080" begin="arrowRight.mouseover" end="arrowRight.mouseout"/>
                  </use>
                  <path fill="none" stroke="white" stroke-width="1.5" d="M0,-3.0v7 M-2.5,-0.5L0,-3.0L2.5,-0.5"/>
                </g>
                <g id="arrowDown" xlink:href="#dirArrow" transform="rotate(180) translate(-30 -48)" onmousedown="handlePan(0,1)">
                  <use xlink:href="#rim" fill="#404040">
                        <set attributeName="fill" to="#808080" begin="arrowDown.mouseover" end="arrowDown.mouseout"/>
                  </use>
                  <path fill="none" stroke="white" stroke-width="1.5" d="M0,-3.0v7 M-2.5,-0.5L0,-3.0L2.5,-0.5"/>
                </g>
                <g id="arrowLeft" xlink:href="#dirArrow" transform="rotate(270) translate(-36 17)" onmousedown="handlePan(-1,0)">
                  <use xlink:href="#rim" fill="#404040">
                        <set attributeName="fill" to="#808080" begin="arrowLeft.mouseover" end="arrowLeft.mouseout"/>
                  </use>
                  <path fill="none" stroke="white" stroke-width="1.5" d="M0,-3.0v7 M-2.5,-0.5L0,-3.0L2.5,-0.5"/>
                </g>
        </g>
        <svg viewBox="0 0 15 15" width="100%" height="30px" preserveAspectRatio="xMaxYMin meet">
         <g id="arrow_out" transform="scale(0.3 0.3)">
          <a xlink:href="structo2_1_1framework_1_1DataProcessingHeader__coll__graph_org.svg" target="_base">
           <rect id="button" ry="5" rx="5" y="6" x="6" height="38" width="38"
                fill="#f2f5e9" fill-opacity="0.5" stroke="#606060" stroke-width="1.0"/>
           <path id="arrow"
             d="M 11.500037,31.436501 C 11.940474,20.09759 22.043105,11.32322 32.158766,21.979434 L 37.068811,17.246167 C 37.068811,17.246167 37.088388,32 37.088388,32 L 22.160133,31.978069 C 22.160133,31.978069 26.997745,27.140456 26.997745,27.140456 C 18.528582,18.264221 13.291696,25.230495 11.500037,31.436501 z"
             style="fill:#404040;"/>
          </a>
         </g>
        </svg>
</svg>
