<?xml version="1.0" encoding="UTF-8" standalone="no"?>
<!DOCTYPE svg PUBLIC "-//W3C//DTD SVG 1.1//EN"
 "http://www.w3.org/Graphics/SVG/1.1/DTD/svg11.dtd">
<!-- Generated by graphviz version 2.40.1 (20161225.0304)
 -->
<!-- Title: o2::phos::PHOSBlockHeader Pages: 1 -->
<!--zoomable 1003 -->
<svg id="main" version="1.1" xmlns="http://www.w3.org/2000/svg" xmlns:xlink="http://www.w3.org/1999/xlink" xml:space="preserve" onload="init(evt)">
<style type="text/css"><![CDATA[
.edge:hover path { stroke: red; }
.edge:hover polygon { stroke: red; fill: red; }
]]></style>
<script type="text/javascript"><![CDATA[
var edges = document.getElementsByTagName('g');
if (edges && edges.length) {
  for (var i=0;i<edges.length;i++) {
    if (edges[i].id.substr(0,4)=='edge') {
      edges[i].setAttribute('class','edge');
    }
  }
}
]]></script>
        <defs>
                <circle id="rim" cx="0" cy="0" r="7"/>
                <circle id="rim2" cx="0" cy="0" r="3.5"/>
                <g id="zoomPlus">
                        <use xlink:href="#rim" fill="#404040">
                                <set attributeName="fill" to="#808080" begin="zoomplus.mouseover" end="zoomplus.mouseout"/>
                        </use>
                        <path d="M-4,0h8M0,-4v8" fill="none" stroke="white" stroke-width="1.5" pointer-events="none"/>
                </g>
                <g id="zoomMin">
                        <use xlink:href="#rim" fill="#404040">
                                <set attributeName="fill" to="#808080" begin="zoomminus.mouseover" end="zoomminus.mouseout"/>
                        </use>
                        <path d="M-4,0h8" fill="none" stroke="white" stroke-width="1.5" pointer-events="none"/>
                </g>
                <g id="dirArrow">
                        <path fill="none" stroke="white" stroke-width="1.5" d="M0,-3.0v7 M-2.5,-0.5L0,-3.0L2.5,-0.5"/>
                </g>
               <g id="resetDef">
                       <use xlink:href="#rim2" fill="#404040">
                               <set attributeName="fill" to="#808080" begin="reset.mouseover" end="reset.mouseout"/>
                       </use>
               </g>
        </defs>

<script type="text/javascript">
var viewWidth = 935;
var viewHeight = 1003;
var sectionId = 'dynsection-1';
</script>
<script xlink:href="../../svgpan.js"/>
<svg id="graph" class="graph">
<g id="viewport">
<title>o2::phos::PHOSBlockHeader</title>
<!-- Node2 -->
<g id="node1" class="node">
<title>Node2</title>
<polygon fill="#bfbfbf" stroke="#000000" points="707.0395,-.5 707.0395,-57.5 860.0395,-57.5 860.0395,-.5 707.0395,-.5"/>
<text text-anchor="middle" x="783.5395" y="-45.5" font-family="Helvetica,sans-Serif" font-size="10.00" fill="#000000">o2::phos::PHOSBlockHeader</text>
<polyline fill="none" stroke="#000000" points="707.0395,-38.5 860.0395,-38.5 "/>
<text text-anchor="middle" x="783.5395" y="-26.5" font-family="Helvetica,sans-Serif" font-size="10.00" fill="#000000"> </text>
<polyline fill="none" stroke="#000000" points="707.0395,-19.5 860.0395,-19.5 "/>
<text text-anchor="start" x="715.0395" y="-7.5" font-family="Helvetica,sans-Serif" font-size="10.00" fill="#000000">+ PHOSBlockHeader()</text>
</g>
<!-- Node3 -->
<g id="node2" class="node">
<title>Node3</title>
<g id="a_node2"><a xlink:href="../../d8/dbd/structo2_1_1header_1_1BaseHeader.html" target="_top" xlink:title="the base header struct Every header type must begin (i.e. derive) with this. Don&#39;t use this struct di...">
<polygon fill="none" stroke="#000000" points="348.0395,-105.5 348.0395,-272.5 521.0395,-272.5 521.0395,-105.5 348.0395,-105.5"/>
<text text-anchor="middle" x="434.5395" y="-260.5" font-family="Helvetica,sans-Serif" font-size="10.00" fill="#000000">o2::header::BaseHeader</text>
<polyline fill="none" stroke="#000000" points="348.0395,-253.5 521.0395,-253.5 "/>
<text text-anchor="middle" x="434.5395" y="-241.5" font-family="Helvetica,sans-Serif" font-size="10.00" fill="#000000"> </text>
<polyline fill="none" stroke="#000000" points="348.0395,-234.5 521.0395,-234.5 "/>
<text text-anchor="start" x="356.0395" y="-222.5" font-family="Helvetica,sans-Serif" font-size="10.00" fill="#000000">+ BaseHeader()</text>
<text text-anchor="start" x="356.0395" y="-211.5" font-family="Helvetica,sans-Serif" font-size="10.00" fill="#000000">+ BaseHeader()</text>
<text text-anchor="start" x="356.0395" y="-200.5" font-family="Helvetica,sans-Serif" font-size="10.00" fill="#000000">+ BaseHeader()</text>
<text text-anchor="start" x="356.0395" y="-189.5" font-family="Helvetica,sans-Serif" font-size="10.00" fill="#000000">+ size()</text>
<text text-anchor="start" x="356.0395" y="-178.5" font-family="Helvetica,sans-Serif" font-size="10.00" fill="#000000">+ data()</text>
<text text-anchor="start" x="356.0395" y="-167.5" font-family="Helvetica,sans-Serif" font-size="10.00" fill="#000000">+ next()</text>
<text text-anchor="start" x="356.0395" y="-156.5" font-family="Helvetica,sans-Serif" font-size="10.00" fill="#000000">+ next()</text>
<text text-anchor="start" x="356.0395" y="-145.5" font-family="Helvetica,sans-Serif" font-size="10.00" fill="#000000">+ sanityCheck()</text>
<text text-anchor="start" x="356.0395" y="-134.5" font-family="Helvetica,sans-Serif" font-size="10.00" fill="#000000">+ throwInconsistentStackError()</text>
<text text-anchor="start" x="356.0395" y="-123.5" font-family="Helvetica,sans-Serif" font-size="10.00" fill="#000000">+ get()</text>
<text text-anchor="start" x="356.0395" y="-112.5" font-family="Helvetica,sans-Serif" font-size="10.00" fill="#000000">+ get()</text>
</a>
</g>
</g>
<!-- Node3&#45;&gt;Node2 -->
<g id="edge1" class="edge">
<title>Node3&#45;&gt;Node2</title>
<path fill="none" stroke="#191970" d="M530.4888,-145.0118C591.291,-117.1369 668.172,-81.8906 721.1473,-57.6039"/>
<polygon fill="none" stroke="#191970" points="528.8892,-141.8948 521.2576,-149.2439 531.8065,-148.2579 528.8892,-141.8948"/>
</g>
<!-- Node4 -->
<g id="node3" class="node">
<title>Node4</title>
<g id="a_node3"><a xlink:href="../../d9/db3/structo2_1_1header_1_1Descriptor.html" target="_top" xlink:title="{o2::header::Descriptor\l\&lt; gSizeHeaderDescriptionString \&gt;\n||+ Descriptor()\l+ Descriptor()\l+ Descriptor()\l+ Descriptor()\l+ operator=()\l+ operator ItgType()\l+ runtimeInit()\l+ operator==()\l+ operator==()\l+ operator\&lt;()\l+ operator!=()\l+ operator!=()\l+ as()\l+ print()\l}">
<polygon fill="none" stroke="#000000" points="225.0395,-386.5 225.0395,-597.5 410.0395,-597.5 410.0395,-386.5 225.0395,-386.5"/>
<text text-anchor="start" x="233.0395" y="-585.5" font-family="Helvetica,sans-Serif" font-size="10.00" fill="#000000">o2::header::Descriptor</text>
<text text-anchor="middle" x="317.5395" y="-574.5" font-family="Helvetica,sans-Serif" font-size="10.00" fill="#000000">&lt; gSizeHeaderDescriptionString &gt;</text>
<polyline fill="none" stroke="#000000" points="225.0395,-567.5 410.0395,-567.5 "/>
<text text-anchor="middle" x="317.5395" y="-555.5" font-family="Helvetica,sans-Serif" font-size="10.00" fill="#000000"> </text>
<polyline fill="none" stroke="#000000" points="225.0395,-548.5 410.0395,-548.5 "/>
<text text-anchor="start" x="233.0395" y="-536.5" font-family="Helvetica,sans-Serif" font-size="10.00" fill="#000000">+ Descriptor()</text>
<text text-anchor="start" x="233.0395" y="-525.5" font-family="Helvetica,sans-Serif" font-size="10.00" fill="#000000">+ Descriptor()</text>
<text text-anchor="start" x="233.0395" y="-514.5" font-family="Helvetica,sans-Serif" font-size="10.00" fill="#000000">+ Descriptor()</text>
<text text-anchor="start" x="233.0395" y="-503.5" font-family="Helvetica,sans-Serif" font-size="10.00" fill="#000000">+ Descriptor()</text>
<text text-anchor="start" x="233.0395" y="-492.5" font-family="Helvetica,sans-Serif" font-size="10.00" fill="#000000">+ operator=()</text>
<text text-anchor="start" x="233.0395" y="-481.5" font-family="Helvetica,sans-Serif" font-size="10.00" fill="#000000">+ operator ItgType()</text>
<text text-anchor="start" x="233.0395" y="-470.5" font-family="Helvetica,sans-Serif" font-size="10.00" fill="#000000">+ runtimeInit()</text>
<text text-anchor="start" x="233.0395" y="-459.5" font-family="Helvetica,sans-Serif" font-size="10.00" fill="#000000">+ operator==()</text>
<text text-anchor="start" x="233.0395" y="-448.5" font-family="Helvetica,sans-Serif" font-size="10.00" fill="#000000">+ operator==()</text>
<text text-anchor="start" x="233.0395" y="-437.5" font-family="Helvetica,sans-Serif" font-size="10.00" fill="#000000">+ operator&lt;()</text>
<text text-anchor="start" x="233.0395" y="-426.5" font-family="Helvetica,sans-Serif" font-size="10.00" fill="#000000">+ operator!=()</text>
<text text-anchor="start" x="233.0395" y="-415.5" font-family="Helvetica,sans-Serif" font-size="10.00" fill="#000000">+ operator!=()</text>
<text text-anchor="start" x="233.0395" y="-404.5" font-family="Helvetica,sans-Serif" font-size="10.00" fill="#000000">+ as()</text>
<text text-anchor="start" x="233.0395" y="-393.5" font-family="Helvetica,sans-Serif" font-size="10.00" fill="#000000">+ print()</text>
</a>
</g>
</g>
<!-- Node4&#45;&gt;Node3 -->
<g id="edge2" class="edge">
<title>Node4&#45;&gt;Node3</title>
<path fill="none" stroke="#404040" d="M358.2962,-386.4507C371.1568,-353.1449 385.2812,-316.5665 397.8409,-284.0399"/>
<polygon fill="none" stroke="#404040" points="397.8909,-283.9103 396.3208,-276.8722 402.2136,-272.7158 403.7837,-279.7539 397.8909,-283.9103"/>
<text text-anchor="middle" x="426.5395" y="-327" font-family="Helvetica,sans-Serif" font-size="10.00" fill="#000000"> +description</text>
</g>
<!-- Node5 -->
<g id="node4" class="node">
<title>Node5</title>
<polygon fill="none" stroke="#bfbfbf" points="541.0395,-937.5 541.0395,-994.5 648.0395,-994.5 648.0395,-937.5 541.0395,-937.5"/>
<text text-anchor="middle" x="594.5395" y="-982.5" font-family="Helvetica,sans-Serif" font-size="10.00" fill="#000000">anonymous:+@78</text>
<polyline fill="none" stroke="#bfbfbf" points="541.0395,-975.5 648.0395,-975.5 "/>
<text text-anchor="middle" x="594.5395" y="-963.5" font-family="Helvetica,sans-Serif" font-size="10.00" fill="#000000"> </text>
<polyline fill="none" stroke="#bfbfbf" points="541.0395,-956.5 648.0395,-956.5 "/>
<text text-anchor="middle" x="594.5395" y="-944.5" font-family="Helvetica,sans-Serif" font-size="10.00" fill="#000000"> </text>
</g>
<!-- Node5&#45;&gt;Node4 -->
<g id="edge3" class="edge">
<title>Node5&#45;&gt;Node4</title>
<path fill="none" stroke="#404040" d="M597.0835,-937.343C602.5297,-868.896 612.1765,-698.4348 577.5395,-656 558.0422,-632.1133 538.7954,-650.3418 510.5395,-638 493.7022,-630.6457 492.2132,-623.7181 475.5395,-616 454.4442,-606.2352 443.8829,-610.5424 420.8887,-598.6548"/>
<polygon fill="none" stroke="#404040" points="420.5954,-598.4854 413.399,-598.946 410.206,-592.4804 417.4023,-592.0197 420.5954,-598.4854"/>
<text text-anchor="middle" x="620.5395" y="-759.5" font-family="Helvetica,sans-Serif" font-size="10.00" fill="#000000"> +@78</text>
</g>
<!-- Node9 -->
<g id="node8" class="node">
<title>Node9</title>
<g id="a_node8"><a xlink:href="../../d9/db3/structo2_1_1header_1_1Descriptor.html" target="_top" xlink:title="{o2::header::Descriptor\l\&lt; N, PrinterPolicy \&gt;\n||+ Descriptor()\l+ Descriptor()\l+ Descriptor()\l+ operator=()\l+ operator ItgType()\l+ Descriptor()\l+ runtimeInit()\l+ operator==()\l+ operator\&lt;()\l+ operator!=()\l+ operator==()\l+ operator!=()\l+ as()\l+ print()\l}">
<polygon fill="none" stroke="#000000" points="444.0395,-656.5 444.0395,-867.5 569.0395,-867.5 569.0395,-656.5 444.0395,-656.5"/>
<text text-anchor="start" x="452.0395" y="-855.5" font-family="Helvetica,sans-Serif" font-size="10.00" fill="#000000">o2::header::Descriptor</text>
<text text-anchor="middle" x="506.5395" y="-844.5" font-family="Helvetica,sans-Serif" font-size="10.00" fill="#000000">&lt; N, PrinterPolicy &gt;</text>
<polyline fill="none" stroke="#000000" points="444.0395,-837.5 569.0395,-837.5 "/>
<text text-anchor="middle" x="506.5395" y="-825.5" font-family="Helvetica,sans-Serif" font-size="10.00" fill="#000000"> </text>
<polyline fill="none" stroke="#000000" points="444.0395,-818.5 569.0395,-818.5 "/>
<text text-anchor="start" x="452.0395" y="-806.5" font-family="Helvetica,sans-Serif" font-size="10.00" fill="#000000">+ Descriptor()</text>
<text text-anchor="start" x="452.0395" y="-795.5" font-family="Helvetica,sans-Serif" font-size="10.00" fill="#000000">+ Descriptor()</text>
<text text-anchor="start" x="452.0395" y="-784.5" font-family="Helvetica,sans-Serif" font-size="10.00" fill="#000000">+ Descriptor()</text>
<text text-anchor="start" x="452.0395" y="-773.5" font-family="Helvetica,sans-Serif" font-size="10.00" fill="#000000">+ operator=()</text>
<text text-anchor="start" x="452.0395" y="-762.5" font-family="Helvetica,sans-Serif" font-size="10.00" fill="#000000">+ operator ItgType()</text>
<text text-anchor="start" x="452.0395" y="-751.5" font-family="Helvetica,sans-Serif" font-size="10.00" fill="#000000">+ Descriptor()</text>
<text text-anchor="start" x="452.0395" y="-740.5" font-family="Helvetica,sans-Serif" font-size="10.00" fill="#000000">+ runtimeInit()</text>
<text text-anchor="start" x="452.0395" y="-729.5" font-family="Helvetica,sans-Serif" font-size="10.00" fill="#000000">+ operator==()</text>
<text text-anchor="start" x="452.0395" y="-718.5" font-family="Helvetica,sans-Serif" font-size="10.00" fill="#000000">+ operator&lt;()</text>
<text text-anchor="start" x="452.0395" y="-707.5" font-family="Helvetica,sans-Serif" font-size="10.00" fill="#000000">+ operator!=()</text>
<text text-anchor="start" x="452.0395" y="-696.5" font-family="Helvetica,sans-Serif" font-size="10.00" fill="#000000">+ operator==()</text>
<text text-anchor="start" x="452.0395" y="-685.5" font-family="Helvetica,sans-Serif" font-size="10.00" fill="#000000">+ operator!=()</text>
<text text-anchor="start" x="452.0395" y="-674.5" font-family="Helvetica,sans-Serif" font-size="10.00" fill="#000000">+ as()</text>
<text text-anchor="start" x="452.0395" y="-663.5" font-family="Helvetica,sans-Serif" font-size="10.00" fill="#000000">+ print()</text>
</a>
</g>
</g>
<!-- Node5&#45;&gt;Node9 -->
<g id="edge8" class="edge">
<title>Node5&#45;&gt;Node9</title>
<path fill="none" stroke="#404040" d="M540.8905,-947.2893C528.5162,-940.3621 516.8512,-931.1316 509.5395,-919 502.356,-907.081 497.918,-893.6729 495.4162,-879.8434"/>
<polygon fill="none" stroke="#404040" points="495.3668,-879.4917 490.5702,-874.1072 493.6957,-867.6086 498.4923,-872.9931 495.3668,-879.4917"/>
<text text-anchor="middle" x="526.5395" y="-900" font-family="Helvetica,sans-Serif" font-size="10.00" fill="#000000"> +@78</text>
</g>
<!-- Node11 -->
<g id="node10" class="node">
<title>Node11</title>
<g id="a_node10"><a xlink:href="../../d9/db3/structo2_1_1header_1_1Descriptor.html" target="_top" xlink:title="{o2::header::Descriptor\l\&lt; gSizeSerializationMethodString \&gt;\n||+ Descriptor()\l+ Descriptor()\l+ Descriptor()\l+ Descriptor()\l+ operator=()\l+ operator ItgType()\l+ runtimeInit()\l+ operator==()\l+ operator==()\l+ operator\&lt;()\l+ operator!=()\l+ operator!=()\l+ as()\l+ print()\l}">
<polygon fill="none" stroke="#000000" points="428.0395,-386.5 428.0395,-597.5 619.0395,-597.5 619.0395,-386.5 428.0395,-386.5"/>
<text text-anchor="start" x="436.0395" y="-585.5" font-family="Helvetica,sans-Serif" font-size="10.00" fill="#000000">o2::header::Descriptor</text>
<text text-anchor="middle" x="523.5395" y="-574.5" font-family="Helvetica,sans-Serif" font-size="10.00" fill="#000000">&lt; gSizeSerializationMethodString &gt;</text>
<polyline fill="none" stroke="#000000" points="428.0395,-567.5 619.0395,-567.5 "/>
<text text-anchor="middle" x="523.5395" y="-555.5" font-family="Helvetica,sans-Serif" font-size="10.00" fill="#000000"> </text>
<polyline fill="none" stroke="#000000" points="428.0395,-548.5 619.0395,-548.5 "/>
<text text-anchor="start" x="436.0395" y="-536.5" font-family="Helvetica,sans-Serif" font-size="10.00" fill="#000000">+ Descriptor()</text>
<text text-anchor="start" x="436.0395" y="-525.5" font-family="Helvetica,sans-Serif" font-size="10.00" fill="#000000">+ Descriptor()</text>
<text text-anchor="start" x="436.0395" y="-514.5" font-family="Helvetica,sans-Serif" font-size="10.00" fill="#000000">+ Descriptor()</text>
<text text-anchor="start" x="436.0395" y="-503.5" font-family="Helvetica,sans-Serif" font-size="10.00" fill="#000000">+ Descriptor()</text>
<text text-anchor="start" x="436.0395" y="-492.5" font-family="Helvetica,sans-Serif" font-size="10.00" fill="#000000">+ operator=()</text>
<text text-anchor="start" x="436.0395" y="-481.5" font-family="Helvetica,sans-Serif" font-size="10.00" fill="#000000">+ operator ItgType()</text>
<text text-anchor="start" x="436.0395" y="-470.5" font-family="Helvetica,sans-Serif" font-size="10.00" fill="#000000">+ runtimeInit()</text>
<text text-anchor="start" x="436.0395" y="-459.5" font-family="Helvetica,sans-Serif" font-size="10.00" fill="#000000">+ operator==()</text>
<text text-anchor="start" x="436.0395" y="-448.5" font-family="Helvetica,sans-Serif" font-size="10.00" fill="#000000">+ operator==()</text>
<text text-anchor="start" x="436.0395" y="-437.5" font-family="Helvetica,sans-Serif" font-size="10.00" fill="#000000">+ operator&lt;()</text>
<text text-anchor="start" x="436.0395" y="-426.5" font-family="Helvetica,sans-Serif" font-size="10.00" fill="#000000">+ operator!=()</text>
<text text-anchor="start" x="436.0395" y="-415.5" font-family="Helvetica,sans-Serif" font-size="10.00" fill="#000000">+ operator!=()</text>
<text text-anchor="start" x="436.0395" y="-404.5" font-family="Helvetica,sans-Serif" font-size="10.00" fill="#000000">+ as()</text>
<text text-anchor="start" x="436.0395" y="-393.5" font-family="Helvetica,sans-Serif" font-size="10.00" fill="#000000">+ print()</text>
</a>
</g>
</g>
<!-- Node5&#45;&gt;Node11 -->
<g id="edge15" class="edge">
<title>Node5&#45;&gt;Node11</title>
<path fill="none" stroke="#404040" d="M642.3381,-937.3746C665.7718,-920.4506 691.6681,-896.7059 704.5395,-868 743.0898,-782.025 721.3511,-748.7103 704.5395,-656 701.1518,-637.318 703.4669,-628.9044 689.5395,-616 670.9585,-598.7838 656.0593,-609.4096 630.2162,-598.4156"/>
<polygon fill="none" stroke="#404040" points="629.9719,-598.2894 622.8051,-599.0875 619.312,-592.7789 626.4788,-591.9808 629.9719,-598.2894"/>
<text text-anchor="middle" x="743.5395" y="-759.5" font-family="Helvetica,sans-Serif" font-size="10.00" fill="#000000"> +@78</text>
</g>
<!-- Node6 -->
<g id="node5" class="node">
<title>Node6</title>
<polygon fill="none" stroke="#bfbfbf" points="666.0395,-937.5 666.0395,-994.5 705.0395,-994.5 705.0395,-937.5 666.0395,-937.5"/>
<text text-anchor="middle" x="685.5395" y="-982.5" font-family="Helvetica,sans-Serif" font-size="10.00" fill="#000000">Type</text>
<polyline fill="none" stroke="#bfbfbf" points="666.0395,-975.5 705.0395,-975.5 "/>
<text text-anchor="middle" x="685.5395" y="-963.5" font-family="Helvetica,sans-Serif" font-size="10.00" fill="#000000"> </text>
<polyline fill="none" stroke="#bfbfbf" points="666.0395,-956.5 705.0395,-956.5 "/>
<text text-anchor="middle" x="685.5395" y="-944.5" font-family="Helvetica,sans-Serif" font-size="10.00" fill="#000000"> </text>
</g>
<!-- Node6&#45;&gt;Node4 -->
<g id="edge4" class="edge">
<title>Node6&#45;&gt;Node4</title>
<path fill="none" stroke="#404040" d="M682.3482,-937.2935C680.2424,-917.7713 677.5175,-891.3464 675.5395,-868 673.1703,-840.0365 678.3089,-635.9183 658.5395,-616 623.1445,-580.3385 485.0984,-615.9949 421.3902,-597.7988"/>
<polygon fill="none" stroke="#404040" points="421.2923,-597.7624 414.2738,-599.4179 410.0462,-593.576 417.0647,-591.9205 421.2923,-597.7624"/>
<text text-anchor="middle" x="688.0395" y="-759.5" font-family="Helvetica,sans-Serif" font-size="10.00" fill="#000000"> +itg</text>
</g>
<!-- Node6&#45;&gt;Node9 -->
<g id="edge9" class="edge">
<title>Node6&#45;&gt;Node9</title>
<path fill="none" stroke="#404040" d="M666.0219,-946.2031C662.8782,-943.0955 659.6387,-939.9404 656.5395,-937 647.864,-928.7691 645.2938,-927.1471 636.5395,-919 612.6092,-896.7293 605.007,-892.6534 583.5395,-868 581.3736,-865.5127 579.2061,-862.9671 577.044,-860.3778"/>
<polygon fill="none" stroke="#404040" points="576.8429,-860.1315 569.9495,-858.0146 569.2522,-850.8373 576.1456,-852.9542 576.8429,-860.1315"/>
<text text-anchor="middle" x="649.0395" y="-900" font-family="Helvetica,sans-Serif" font-size="10.00" fill="#000000"> +itg</text>
</g>
<!-- Node6&#45;&gt;Node11 -->
<g id="edge16" class="edge">
<title>Node6&#45;&gt;Node11</title>
<path fill="none" stroke="#404040" d="M705.2656,-949.2368C724.6036,-931.3865 752.8315,-901.1792 764.5395,-868 795.8931,-779.1474 806.9276,-740.1491 764.5395,-656 751.1031,-629.3258 737.7428,-628.33 710.5395,-616 679.3828,-601.8782 663.673,-613.5467 630.1679,-598.5938"/>
<polygon fill="none" stroke="#404040" points="629.8752,-598.4462 622.7165,-599.3145 619.1616,-593.0405 626.3203,-592.1722 629.8752,-598.4462"/>
<text text-anchor="middle" x="805.0395" y="-759.5" font-family="Helvetica,sans-Serif" font-size="10.00" fill="#000000"> +itg</text>
</g>
<!-- Node7 -->
<g id="node6" class="node">
<title>Node7</title>
<polygon fill="none" stroke="#bfbfbf" points="163.5395,-937.5 163.5395,-994.5 201.5395,-994.5 201.5395,-937.5 163.5395,-937.5"/>
<text text-anchor="middle" x="182.5395" y="-982.5" font-family="Helvetica,sans-Serif" font-size="10.00" fill="#000000">char</text>
<polyline fill="none" stroke="#bfbfbf" points="163.5395,-975.5 201.5395,-975.5 "/>
<text text-anchor="middle" x="182.5395" y="-963.5" font-family="Helvetica,sans-Serif" font-size="10.00" fill="#000000"> </text>
<polyline fill="none" stroke="#bfbfbf" points="163.5395,-956.5 201.5395,-956.5 "/>
<text text-anchor="middle" x="182.5395" y="-944.5" font-family="Helvetica,sans-Serif" font-size="10.00" fill="#000000"> </text>
</g>
<!-- Node7&#45;&gt;Node3 -->
<g id="edge13" class="edge">
<title>Node7&#45;&gt;Node3</title>
<path fill="none" stroke="#404040" d="M163.3652,-938.9523C106.9335,-855.9041 -50.5093,-597.4037 16.5395,-386 57.3912,-257.1954 225.4387,-212.6038 335.6197,-197.1686"/>
<polygon fill="none" stroke="#404040" points="335.8621,-197.1364 341.2817,-192.3796 347.7571,-195.5528 342.3375,-200.3096 335.8621,-197.1364"/>
<text text-anchor="middle" x="55.5395" y="-624.5" font-family="Helvetica,sans-Serif" font-size="10.00" fill="#000000"> +magicString</text>
</g>
<!-- Node7&#45;&gt;Node4 -->
<g id="edge5" class="edge">
<title>Node7&#45;&gt;Node4</title>
<path fill="none" stroke="#404040" d="M173.3136,-937.3884C156.8111,-881.1801 127.3641,-753.3489 165.5395,-656 167.2574,-651.6193 189.4824,-627.027 216.4326,-598.1633"/>
<polygon fill="none" stroke="#404040" points="216.7294,-597.8462 217.91,-590.7324 224.9307,-589.0861 223.7501,-596.1999 216.7294,-597.8462"/>
<text text-anchor="middle" x="178.0395" y="-759.5" font-family="Helvetica,sans-Serif" font-size="10.00" fill="#000000"> +str</text>
</g>
<!-- Node7&#45;&gt;Node9 -->
<g id="edge10" class="edge">
<title>Node7&#45;&gt;Node9</title>
<path fill="none" stroke="#404040" d="M201.6532,-957.6424C236.263,-942.6161 311.7383,-910.3369 376.5395,-886 399.8283,-877.2536 409.5115,-882.7561 429.5395,-868 431.2391,-866.7478 432.9167,-865.447 434.5716,-864.1029"/>
<polygon fill="none" stroke="#404040" points="434.7974,-863.9038 436.6517,-856.9352 443.7975,-855.9666 441.9432,-862.9353 434.7974,-863.9038"/>
<text text-anchor="middle" x="389.0395" y="-900" font-family="Helvetica,sans-Serif" font-size="10.00" fill="#000000"> +str</text>
</g>
<!-- Node7&#45;&gt;Node11 -->
<g id="edge17" class="edge">
<title>Node7&#45;&gt;Node11</title>
<path fill="none" stroke="#404040" d="M185.0355,-937.3115C191.4628,-869.1903 210.5082,-700.1057 244.5395,-656 269.3104,-623.8962 288.0939,-628.8912 326.5395,-616 362.8017,-603.841 379.064,-615.4122 417.2309,-597.9179"/>
<polygon fill="none" stroke="#404040" points="417.2966,-597.8849 420.86,-591.6157 428.0175,-592.4939 424.454,-598.763 417.2966,-597.8849"/>
<text text-anchor="middle" x="257.0395" y="-759.5" font-family="Helvetica,sans-Serif" font-size="10.00" fill="#000000"> +str</text>
</g>
<!-- Node8 -->
<g id="node7" class="node">
<title>Node8</title>
<polygon fill="none" stroke="#bfbfbf" points="332.0395,-937.5 332.0395,-994.5 361.0395,-994.5 361.0395,-937.5 332.0395,-937.5"/>
<text text-anchor="middle" x="346.5395" y="-982.5" font-family="Helvetica,sans-Serif" font-size="10.00" fill="#000000">int</text>
<polyline fill="none" stroke="#bfbfbf" points="332.0395,-975.5 361.0395,-975.5 "/>
<text text-anchor="middle" x="346.5395" y="-963.5" font-family="Helvetica,sans-Serif" font-size="10.00" fill="#000000"> </text>
<polyline fill="none" stroke="#bfbfbf" points="332.0395,-956.5 361.0395,-956.5 "/>
<text text-anchor="middle" x="346.5395" y="-944.5" font-family="Helvetica,sans-Serif" font-size="10.00" fill="#000000"> </text>
</g>
<!-- Node8&#45;&gt;Node4 -->
<g id="edge6" class="edge">
<title>Node8&#45;&gt;Node4</title>
<path fill="none" stroke="#404040" d="M332,-948.6025C317.4899,-930.0086 296.1506,-898.9983 287.5395,-868 264.0807,-783.5525 273.351,-684.6323 287.54,-609.4547"/>
<polygon fill="none" stroke="#404040" points="287.5552,-609.3765 284.7794,-602.721 289.8553,-597.5989 292.6311,-604.2544 287.5552,-609.3765"/>
<text text-anchor="middle" x="316.5395" y="-770.5" font-family="Helvetica,sans-Serif" font-size="10.00" fill="#000000"> +arraySize</text>
<text text-anchor="middle" x="316.5395" y="-759.5" font-family="Helvetica,sans-Serif" font-size="10.00" fill="#000000">+size</text>
<text text-anchor="middle" x="316.5395" y="-748.5" font-family="Helvetica,sans-Serif" font-size="10.00" fill="#000000">+bitcount</text>
</g>
<!-- Node8&#45;&gt;Node9 -->
<g id="edge11" class="edge">
<title>Node8&#45;&gt;Node9</title>
<path fill="none" stroke="#404040" d="M361.2316,-956.3439C373.8953,-947.5684 392.1926,-933.7681 405.5395,-919 417.0163,-906.3012 428.0562,-892.1601 438.3512,-877.7122"/>
<polygon fill="none" stroke="#404040" points="438.4883,-877.5156 438.6417,-870.3061 445.3556,-867.6748 445.2022,-874.8843 438.4883,-877.5156"/>
<text text-anchor="middle" x="460.5395" y="-911" font-family="Helvetica,sans-Serif" font-size="10.00" fill="#000000"> +arraySize</text>
<text text-anchor="middle" x="460.5395" y="-900" font-family="Helvetica,sans-Serif" font-size="10.00" fill="#000000">+size</text>
<text text-anchor="middle" x="460.5395" y="-889" font-family="Helvetica,sans-Serif" font-size="10.00" fill="#000000">+bitcount</text>
</g>
<!-- Node8&#45;&gt;Node11 -->
<g id="edge18" class="edge">
<title>Node8&#45;&gt;Node11</title>
<path fill="none" stroke="#404040" d="M347.4473,-937.2856C350.008,-864.4943 358.3191,-677.0134 376.5395,-656 398.7137,-630.4268 424.0694,-659.0954 450.5395,-638 461.1669,-629.5305 470.3743,-619.1112 478.3208,-607.7697"/>
<polygon fill="none" stroke="#404040" points="478.4112,-607.6315 478.3506,-600.4206 484.9835,-597.5913 485.0441,-604.8022 478.4112,-607.6315"/>
<text text-anchor="middle" x="405.5395" y="-770.5" font-family="Helvetica,sans-Serif" font-size="10.00" fill="#000000"> +arraySize</text>
<text text-anchor="middle" x="405.5395" y="-759.5" font-family="Helvetica,sans-Serif" font-size="10.00" fill="#000000">+size</text>
<text text-anchor="middle" x="405.5395" y="-748.5" font-family="Helvetica,sans-Serif" font-size="10.00" fill="#000000">+bitcount</text>
</g>
<!-- Node9&#45;&gt;Node4 -->
<g id="edge7" class="edge">
<title>Node9&#45;&gt;Node4</title>
<path fill="none" stroke="#ffa500" d="M435.932,-660.4604C433.8426,-658.8961 431.7116,-657.4059 429.5395,-656 396.7568,-634.7813 370.7338,-666.0251 343.5395,-638 332.6923,-626.8214 325.52,-612.7722 320.8914,-597.8336"/>
<polygon fill="#ffa500" stroke="#ffa500" points="433.815,-663.2499 443.7832,-666.8396 438.2292,-657.8172 433.815,-663.2499"/>
<text text-anchor="start" x="343.5395" y="-630" font-family="Helvetica,sans-Serif" font-size="10.00" fill="#000000"> &lt; gSizeHeaderDescription</text>
<text text-anchor="middle" x="409.5395" y="-619" font-family="Helvetica,sans-Serif" font-size="10.00" fill="#000000">String &gt;</text>
</g>
<!-- Node9&#45;&gt;Node11 -->
<g id="edge19" class="edge">
<title>Node9&#45;&gt;Node11</title>
<path fill="none" stroke="#ffa500" d="M513.8423,-646.0145C514.8482,-630.039 515.8769,-613.701 516.8705,-597.9196"/>
<polygon fill="#ffa500" stroke="#ffa500" points="510.3206,-646.2507 513.1852,-656.4509 517.3068,-646.6906 510.3206,-646.2507"/>
<text text-anchor="start" x="516.5395" y="-630" font-family="Helvetica,sans-Serif" font-size="10.00" fill="#000000"> &lt; gSizeSerializationMethod</text>
<text text-anchor="middle" x="585.5395" y="-619" font-family="Helvetica,sans-Serif" font-size="10.00" fill="#000000">String &gt;</text>
</g>
<!-- Node10 -->
<g id="node9" class="node">
<title>Node10</title>
<polygon fill="none" stroke="#bfbfbf" points="637.0395,-463.5 637.0395,-520.5 744.0395,-520.5 744.0395,-463.5 637.0395,-463.5"/>
<text text-anchor="middle" x="690.5395" y="-508.5" font-family="Helvetica,sans-Serif" font-size="10.00" fill="#000000">anonymous:+@80</text>
<polyline fill="none" stroke="#bfbfbf" points="637.0395,-501.5 744.0395,-501.5 "/>
<text text-anchor="middle" x="690.5395" y="-489.5" font-family="Helvetica,sans-Serif" font-size="10.00" fill="#000000"> </text>
<polyline fill="none" stroke="#bfbfbf" points="637.0395,-482.5 744.0395,-482.5 "/>
<text text-anchor="middle" x="690.5395" y="-470.5" font-family="Helvetica,sans-Serif" font-size="10.00" fill="#000000"> </text>
</g>
<!-- Node10&#45;&gt;Node3 -->
<g id="edge12" class="edge">
<title>Node10&#45;&gt;Node3</title>
<path fill="none" stroke="#404040" d="M677.6774,-463.2284C666.5937,-440.5453 649.0075,-409.0097 627.5395,-386 617.9517,-375.7236 610.7204,-378.6415 601.5395,-368 576.6104,-339.1048 587.5388,-320.672 563.5395,-291 553.8103,-278.9711 542.42,-267.4644 530.5079,-256.7979"/>
<polygon fill="none" stroke="#404040" points="530.3738,-256.6814 523.2211,-255.7651 521.3158,-248.8102 528.4685,-249.7265 530.3738,-256.6814"/>
<text text-anchor="middle" x="618.5395" y="-327" font-family="Helvetica,sans-Serif" font-size="10.00" fill="#000000"> +@80</text>
</g>
<!-- Node11&#45;&gt;Node3 -->
<g id="edge14" class="edge">
<title>Node11&#45;&gt;Node3</title>
<path fill="none" stroke="#404040" d="M492.5366,-386.4507C482.7964,-353.2903 472.1034,-316.8859 462.5808,-284.4662"/>
<polygon fill="none" stroke="#404040" points="462.5113,-284.2294 456.9824,-279.6 459.1293,-272.7158 464.6582,-277.3453 462.5113,-284.2294"/>
<text text-anchor="middle" x="523.5395" y="-327" font-family="Helvetica,sans-Serif" font-size="10.00" fill="#000000"> +serialization</text>
</g>
<!-- Node12 -->
<g id="node11" class="node">
<title>Node12</title>
<g id="a_node11"><a xlink:href="../../d3/d87/classuint32__t.html" target="_top" xlink:title="{uint32_t\n||}">
<polygon fill="none" stroke="#000000" points="25.5395,-463.5 25.5395,-520.5 81.5395,-520.5 81.5395,-463.5 25.5395,-463.5"/>
<text text-anchor="middle" x="53.5395" y="-508.5" font-family="Helvetica,sans-Serif" font-size="10.00" fill="#000000">uint32_t</text>
<polyline fill="none" stroke="#000000" points="25.5395,-501.5 81.5395,-501.5 "/>
<text text-anchor="middle" x="53.5395" y="-489.5" font-family="Helvetica,sans-Serif" font-size="10.00" fill="#000000"> </text>
<polyline fill="none" stroke="#000000" points="25.5395,-482.5 81.5395,-482.5 "/>
<text text-anchor="middle" x="53.5395" y="-470.5" font-family="Helvetica,sans-Serif" font-size="10.00" fill="#000000"> </text>
</a>
</g>
</g>
<!-- Node12&#45;&gt;Node3 -->
<g id="edge20" class="edge">
<title>Node12&#45;&gt;Node3</title>
<path fill="none" stroke="#404040" d="M57.3205,-463.463C64.6288,-419.8354 84.8177,-336.8066 136.5395,-291 192.1113,-241.7838 272.5419,-216.0822 335.8409,-202.7961"/>
<polygon fill="none" stroke="#404040" points="336.0905,-202.746 341.1837,-197.6411 347.8548,-200.379 342.7617,-205.4839 336.0905,-202.746"/>
<text text-anchor="middle" x="182.0395" y="-360" font-family="Helvetica,sans-Serif" font-size="10.00" fill="#000000"> +headerVersion</text>
<text text-anchor="middle" x="182.0395" y="-349" font-family="Helvetica,sans-Serif" font-size="10.00" fill="#000000">+headerSize</text>
<text text-anchor="middle" x="182.0395" y="-338" font-family="Helvetica,sans-Serif" font-size="10.00" fill="#000000">+sMagicString</text>
<text text-anchor="middle" x="182.0395" y="-327" font-family="Helvetica,sans-Serif" font-size="10.00" fill="#000000">+flagsNextHeader</text>
<text text-anchor="middle" x="182.0395" y="-316" font-family="Helvetica,sans-Serif" font-size="10.00" fill="#000000">+magicStringInt</text>
<text text-anchor="middle" x="182.0395" y="-305" font-family="Helvetica,sans-Serif" font-size="10.00" fill="#000000">+flagsUnused</text>
<text text-anchor="middle" x="182.0395" y="-294" font-family="Helvetica,sans-Serif" font-size="10.00" fill="#000000">+flags</text>
</g>
<!-- Node13 -->
<g id="node12" class="node">
<title>Node13</title>
<polygon fill="none" stroke="#bfbfbf" points="100.0395,-463.5 100.0395,-520.5 207.0395,-520.5 207.0395,-463.5 100.0395,-463.5"/>
<text text-anchor="middle" x="153.5395" y="-508.5" font-family="Helvetica,sans-Serif" font-size="10.00" fill="#000000">anonymous:+@82</text>
<polyline fill="none" stroke="#bfbfbf" points="100.0395,-501.5 207.0395,-501.5 "/>
<text text-anchor="middle" x="153.5395" y="-489.5" font-family="Helvetica,sans-Serif" font-size="10.00" fill="#000000"> </text>
<polyline fill="none" stroke="#bfbfbf" points="100.0395,-482.5 207.0395,-482.5 "/>
<text text-anchor="middle" x="153.5395" y="-470.5" font-family="Helvetica,sans-Serif" font-size="10.00" fill="#000000"> </text>
</g>
<!-- Node13&#45;&gt;Node3 -->
<g id="edge21" class="edge">
<title>Node13&#45;&gt;Node3</title>
<path fill="none" stroke="#404040" d="M167.1526,-463.4713C178.4761,-441.2137 195.877,-410.1298 215.5395,-386 251.5791,-341.7724 297.7972,-298.6805 338.4785,-264.1336"/>
<polygon fill="none" stroke="#404040" points="338.6977,-263.9491 340.7108,-257.0246 347.8769,-256.2196 345.8638,-263.144 338.6977,-263.9491"/>
<text text-anchor="middle" x="322.5395" y="-327" font-family="Helvetica,sans-Serif" font-size="10.00" fill="#000000"> +@82</text>
</g>
<!-- Node14 -->
<g id="node13" class="node">
<title>Node14</title>
<polygon fill="none" stroke="#bfbfbf" points="762.0395,-463.5 762.0395,-520.5 805.0395,-520.5 805.0395,-463.5 762.0395,-463.5"/>
<text text-anchor="middle" x="783.5395" y="-508.5" font-family="Helvetica,sans-Serif" font-size="10.00" fill="#000000">const</text>
<polyline fill="none" stroke="#bfbfbf" points="762.0395,-501.5 805.0395,-501.5 "/>
<text text-anchor="middle" x="783.5395" y="-489.5" font-family="Helvetica,sans-Serif" font-size="10.00" fill="#000000"> </text>
<polyline fill="none" stroke="#bfbfbf" points="762.0395,-482.5 805.0395,-482.5 "/>
<text text-anchor="middle" x="783.5395" y="-470.5" font-family="Helvetica,sans-Serif" font-size="10.00" fill="#000000"> </text>
</g>
<!-- Node14&#45;&gt;Node2 -->
<g id="edge24" class="edge">
<title>Node14&#45;&gt;Node2</title>
<path fill="none" stroke="#404040" d="M783.5395,-463.3867C783.5395,-384.2064 783.5395,-161.9757 783.5395,-69.8285"/>
<polygon fill="none" stroke="#404040" points="783.5396,-69.7179 779.5396,-63.7179 783.5395,-57.7179 787.5396,-63.7178 783.5396,-69.7179"/>
<text text-anchor="middle" x="821.0395" y="-192" font-family="Helvetica,sans-Serif" font-size="10.00" fill="#000000"> +sHeaderType</text>
<text text-anchor="middle" x="821.0395" y="-181" font-family="Helvetica,sans-Serif" font-size="10.00" fill="#000000">+sVersion</text>
</g>
<!-- Node14&#45;&gt;Node3 -->
<g id="edge22" class="edge">
<title>Node14&#45;&gt;Node3</title>
<path fill="none" stroke="#404040" d="M783.0256,-463.4372C780.9908,-439.2963 774.1058,-405.6027 752.5395,-386 721.0626,-357.389 690.0985,-396.5204 658.5395,-368 632.0408,-344.0527 658.4317,-318.4153 635.5395,-291 608.7749,-258.9472 569.3985,-235.8931 532.5751,-219.905"/>
<polygon fill="none" stroke="#404040" points="532.3171,-219.7972 525.2384,-221.1729 521.2459,-215.1679 528.3246,-213.7922 532.3171,-219.7972"/>
<text text-anchor="middle" x="714.0395" y="-338" font-family="Helvetica,sans-Serif" font-size="10.00" fill="#000000"> +sHeaderType</text>
<text text-anchor="middle" x="714.0395" y="-327" font-family="Helvetica,sans-Serif" font-size="10.00" fill="#000000">+sSerializationMethod</text>
<text text-anchor="middle" x="714.0395" y="-316" font-family="Helvetica,sans-Serif" font-size="10.00" fill="#000000">+sVersion</text>
</g>
<!-- Node15 -->
<g id="node14" class="node">
<title>Node15</title>
<polygon fill="none" stroke="#bfbfbf" points="876.5395,-160.5 876.5395,-217.5 914.5395,-217.5 914.5395,-160.5 876.5395,-160.5"/>
<text text-anchor="middle" x="895.5395" y="-205.5" font-family="Helvetica,sans-Serif" font-size="10.00" fill="#000000">bool</text>
<polyline fill="none" stroke="#bfbfbf" points="876.5395,-198.5 914.5395,-198.5 "/>
<text text-anchor="middle" x="895.5395" y="-186.5" font-family="Helvetica,sans-Serif" font-size="10.00" fill="#000000"> </text>
<polyline fill="none" stroke="#bfbfbf" points="876.5395,-179.5 914.5395,-179.5 "/>
<text text-anchor="middle" x="895.5395" y="-167.5" font-family="Helvetica,sans-Serif" font-size="10.00" fill="#000000"> </text>
</g>
<!-- Node15&#45;&gt;Node2 -->
<g id="edge23" class="edge">
<title>Node15&#45;&gt;Node2</title>
<path fill="none" stroke="#404040" d="M887.6564,-160.2885C882.1971,-143.3273 873.8642,-121.9305 862.5395,-105 853.1801,-91.0076 840.8571,-77.6113 828.7358,-66.0697"/>
<polygon fill="none" stroke="#404040" points="828.3893,-65.751 821.2655,-64.6322 819.5583,-57.6261 826.6821,-58.7449 828.3893,-65.751"/>
<text text-anchor="middle" x="887.0395" y="-79" font-family="Helvetica,sans-Serif" font-size="10.00" fill="#000000"> +mHasPayload</text>
</g>
</g>
</svg>
        <g id="navigator" transform="translate(0 0)" fill="#404254">
                <rect fill="#f2f5e9" fill-opacity="0.5" stroke="#606060" stroke-width=".5" x="0" y="0" width="60" height="60"/>
                <use id="zoomplus" xlink:href="#zoomPlus" x="17" y="9" onmousedown="handleZoom(evt,'in')"/>
                <use id="zoomminus" xlink:href="#zoomMin" x="42" y="9" onmousedown="handleZoom(evt,'out')"/>
                <use id="reset" xlink:href="#resetDef" x="30" y="36" onmousedown="handleReset()"/>
                <g id="arrowUp" xlink:href="#dirArrow" transform="translate(30 24)" onmousedown="handlePan(0,-1)">
                  <use xlink:href="#rim" fill="#404040">
                        <set attributeName="fill" to="#808080" begin="arrowUp.mouseover" end="arrowUp.mouseout"/>
                  </use>
                  <path fill="none" stroke="white" stroke-width="1.5" d="M0,-3.0v7 M-2.5,-0.5L0,-3.0L2.5,-0.5"/>
                </g>
                <g id="arrowRight" xlink:href="#dirArrow" transform="rotate(90) translate(36 -43)" onmousedown="handlePan(1,0)">
                  <use xlink:href="#rim" fill="#404040">
                        <set attributeName="fill" to="#808080" begin="arrowRight.mouseover" end="arrowRight.mouseout"/>
                  </use>
                  <path fill="none" stroke="white" stroke-width="1.5" d="M0,-3.0v7 M-2.5,-0.5L0,-3.0L2.5,-0.5"/>
                </g>
                <g id="arrowDown" xlink:href="#dirArrow" transform="rotate(180) translate(-30 -48)" onmousedown="handlePan(0,1)">
                  <use xlink:href="#rim" fill="#404040">
                        <set attributeName="fill" to="#808080" begin="arrowDown.mouseover" end="arrowDown.mouseout"/>
                  </use>
                  <path fill="none" stroke="white" stroke-width="1.5" d="M0,-3.0v7 M-2.5,-0.5L0,-3.0L2.5,-0.5"/>
                </g>
                <g id="arrowLeft" xlink:href="#dirArrow" transform="rotate(270) translate(-36 17)" onmousedown="handlePan(-1,0)">
                  <use xlink:href="#rim" fill="#404040">
                        <set attributeName="fill" to="#808080" begin="arrowLeft.mouseover" end="arrowLeft.mouseout"/>
                  </use>
                  <path fill="none" stroke="white" stroke-width="1.5" d="M0,-3.0v7 M-2.5,-0.5L0,-3.0L2.5,-0.5"/>
                </g>
        </g>
        <svg viewBox="0 0 15 15" width="100%" height="30px" preserveAspectRatio="xMaxYMin meet">
         <g id="arrow_out" transform="scale(0.3 0.3)">
          <a xlink:href="structo2_1_1phos_1_1PHOSBlockHeader__coll__graph_org.svg" target="_base">
           <rect id="button" ry="5" rx="5" y="6" x="6" height="38" width="38"
                fill="#f2f5e9" fill-opacity="0.5" stroke="#606060" stroke-width="1.0"/>
           <path id="arrow"
             d="M 11.500037,31.436501 C 11.940474,20.09759 22.043105,11.32322 32.158766,21.979434 L 37.068811,17.246167 C 37.068811,17.246167 37.088388,32 37.088388,32 L 22.160133,31.978069 C 22.160133,31.978069 26.997745,27.140456 26.997745,27.140456 C 18.528582,18.264221 13.291696,25.230495 11.500037,31.436501 z"
             style="fill:#404040;"/>
          </a>
         </g>
        </svg>
</svg>
