<?xml version="1.0" encoding="UTF-8" standalone="no"?>
<!DOCTYPE svg PUBLIC "-//W3C//DTD SVG 1.1//EN"
 "http://www.w3.org/Graphics/SVG/1.1/DTD/svg11.dtd">
<!-- Generated by graphviz version 2.40.1 (20161225.0304)
 -->
<!-- Title: o2::header::Descriptor&lt; N, PrinterPolicy &gt; Pages: 1 -->
<svg width="301pt" height="347pt"
 viewBox="0.00 0.00 300.50 347.00" xmlns="http://www.w3.org/2000/svg" xmlns:xlink="http://www.w3.org/1999/xlink">
<g id="graph0" class="graph" transform="scale(1 1) rotate(0) translate(4 343)">
<title>o2::header::Descriptor&lt; N, PrinterPolicy &gt;</title>
<!-- Node6 -->
<g id="node1" class="node">
<title>Node6</title>
<polygon fill="#bfbfbf" stroke="#000000" points="110,-.5 110,-211.5 235,-211.5 235,-.5 110,-.5"/>
<text text-anchor="start" x="118" y="-199.5" font-family="Helvetica,sans-Serif" font-size="10.00" fill="#000000">o2::header::Descriptor</text>
<text text-anchor="middle" x="172.5" y="-188.5" font-family="Helvetica,sans-Serif" font-size="10.00" fill="#000000">&lt; N, PrinterPolicy &gt;</text>
<polyline fill="none" stroke="#000000" points="110,-181.5 235,-181.5 "/>
<text text-anchor="middle" x="172.5" y="-169.5" font-family="Helvetica,sans-Serif" font-size="10.00" fill="#000000"> </text>
<polyline fill="none" stroke="#000000" points="110,-162.5 235,-162.5 "/>
<text text-anchor="start" x="118" y="-150.5" font-family="Helvetica,sans-Serif" font-size="10.00" fill="#000000">+ Descriptor()</text>
<text text-anchor="start" x="118" y="-139.5" font-family="Helvetica,sans-Serif" font-size="10.00" fill="#000000">+ Descriptor()</text>
<text text-anchor="start" x="118" y="-128.5" font-family="Helvetica,sans-Serif" font-size="10.00" fill="#000000">+ Descriptor()</text>
<text text-anchor="start" x="118" y="-117.5" font-family="Helvetica,sans-Serif" font-size="10.00" fill="#000000">+ operator=()</text>
<text text-anchor="start" x="118" y="-106.5" font-family="Helvetica,sans-Serif" font-size="10.00" fill="#000000">+ operator ItgType()</text>
<text text-anchor="start" x="118" y="-95.5" font-family="Helvetica,sans-Serif" font-size="10.00" fill="#000000">+ Descriptor()</text>
<text text-anchor="start" x="118" y="-84.5" font-family="Helvetica,sans-Serif" font-size="10.00" fill="#000000">+ runtimeInit()</text>
<text text-anchor="start" x="118" y="-73.5" font-family="Helvetica,sans-Serif" font-size="10.00" fill="#000000">+ operator==()</text>
<text text-anchor="start" x="118" y="-62.5" font-family="Helvetica,sans-Serif" font-size="10.00" fill="#000000">+ operator&lt;()</text>
<text text-anchor="start" x="118" y="-51.5" font-family="Helvetica,sans-Serif" font-size="10.00" fill="#000000">+ operator!=()</text>
<text text-anchor="start" x="118" y="-40.5" font-family="Helvetica,sans-Serif" font-size="10.00" fill="#000000">+ operator==()</text>
<text text-anchor="start" x="118" y="-29.5" font-family="Helvetica,sans-Serif" font-size="10.00" fill="#000000">+ operator!=()</text>
<text text-anchor="start" x="118" y="-18.5" font-family="Helvetica,sans-Serif" font-size="10.00" fill="#000000">+ as()</text>
<text text-anchor="start" x="118" y="-7.5" font-family="Helvetica,sans-Serif" font-size="10.00" fill="#000000">+ print()</text>
</g>
<!-- Node7 -->
<g id="node2" class="node">
<title>Node7</title>
<polygon fill="none" stroke="#bfbfbf" points="0,-281.5 0,-338.5 107,-338.5 107,-281.5 0,-281.5"/>
<text text-anchor="middle" x="53.5" y="-326.5" font-family="Helvetica,sans-Serif" font-size="10.00" fill="#000000">anonymous:+@78</text>
<polyline fill="none" stroke="#bfbfbf" points="0,-319.5 107,-319.5 "/>
<text text-anchor="middle" x="53.5" y="-307.5" font-family="Helvetica,sans-Serif" font-size="10.00" fill="#000000"> </text>
<polyline fill="none" stroke="#bfbfbf" points="0,-300.5 107,-300.5 "/>
<text text-anchor="middle" x="53.5" y="-288.5" font-family="Helvetica,sans-Serif" font-size="10.00" fill="#000000"> </text>
</g>
<!-- Node7&#45;&gt;Node6 -->
<g id="edge1" class="edge">
<title>Node7&#45;&gt;Node6</title>
<path fill="none" stroke="#404040" d="M70.2974,-281.2045C79.6445,-265.1809 91.9631,-244.0632 104.8009,-222.0555"/>
<polygon fill="none" stroke="#404040" points="104.8832,-221.9145 104.4513,-214.7163 110.9297,-211.5491 111.3616,-218.7473 104.8832,-221.9145"/>
<text text-anchor="middle" x="116.5" y="-244" font-family="Helvetica,sans-Serif" font-size="10.00" fill="#000000"> +@78</text>
</g>
<!-- Node8 -->
<g id="node3" class="node">
<title>Node8</title>
<polygon fill="none" stroke="#bfbfbf" points="125,-281.5 125,-338.5 164,-338.5 164,-281.5 125,-281.5"/>
<text text-anchor="middle" x="144.5" y="-326.5" font-family="Helvetica,sans-Serif" font-size="10.00" fill="#000000">Type</text>
<polyline fill="none" stroke="#bfbfbf" points="125,-319.5 164,-319.5 "/>
<text text-anchor="middle" x="144.5" y="-307.5" font-family="Helvetica,sans-Serif" font-size="10.00" fill="#000000"> </text>
<polyline fill="none" stroke="#bfbfbf" points="125,-300.5 164,-300.5 "/>
<text text-anchor="middle" x="144.5" y="-288.5" font-family="Helvetica,sans-Serif" font-size="10.00" fill="#000000"> </text>
</g>
<!-- Node8&#45;&gt;Node6 -->
<g id="edge2" class="edge">
<title>Node8&#45;&gt;Node6</title>
<path fill="none" stroke="#404040" d="M147.9268,-281.4727C149.7971,-266.1958 152.1956,-247.0614 154.5,-230 154.793,-227.8308 155.0908,-225.6405 155.3925,-223.4341"/>
<polygon fill="none" stroke="#404040" points="155.3974,-223.3977 152.2558,-216.9069 157.039,-211.5105 160.1806,-218.0012 155.3974,-223.3977"/>
<text text-anchor="middle" x="167" y="-244" font-family="Helvetica,sans-Serif" font-size="10.00" fill="#000000"> +itg</text>
</g>
<!-- Node9 -->
<g id="node4" class="node">
<title>Node9</title>
<polygon fill="none" stroke="#bfbfbf" points="182.5,-281.5 182.5,-338.5 220.5,-338.5 220.5,-281.5 182.5,-281.5"/>
<text text-anchor="middle" x="201.5" y="-326.5" font-family="Helvetica,sans-Serif" font-size="10.00" fill="#000000">char</text>
<polyline fill="none" stroke="#bfbfbf" points="182.5,-319.5 220.5,-319.5 "/>
<text text-anchor="middle" x="201.5" y="-307.5" font-family="Helvetica,sans-Serif" font-size="10.00" fill="#000000"> </text>
<polyline fill="none" stroke="#bfbfbf" points="182.5,-300.5 220.5,-300.5 "/>
<text text-anchor="middle" x="201.5" y="-288.5" font-family="Helvetica,sans-Serif" font-size="10.00" fill="#000000"> </text>
</g>
<!-- Node9&#45;&gt;Node6 -->
<g id="edge3" class="edge">
<title>Node9&#45;&gt;Node6</title>
<path fill="none" stroke="#404040" d="M197.4065,-281.2045C195.1802,-265.5434 192.2621,-245.0161 189.2102,-223.5478"/>
<polygon fill="none" stroke="#404040" points="189.1935,-223.4297 184.3888,-218.0524 187.5045,-211.5491 192.3092,-216.9264 189.1935,-223.4297"/>
<text text-anchor="middle" x="206" y="-244" font-family="Helvetica,sans-Serif" font-size="10.00" fill="#000000"> +str</text>
</g>
<!-- Node10 -->
<g id="node5" class="node">
<title>Node10</title>
<polygon fill="none" stroke="#bfbfbf" points="239,-281.5 239,-338.5 268,-338.5 268,-281.5 239,-281.5"/>
<text text-anchor="middle" x="253.5" y="-326.5" font-family="Helvetica,sans-Serif" font-size="10.00" fill="#000000">int</text>
<polyline fill="none" stroke="#bfbfbf" points="239,-319.5 268,-319.5 "/>
<text text-anchor="middle" x="253.5" y="-307.5" font-family="Helvetica,sans-Serif" font-size="10.00" fill="#000000"> </text>
<polyline fill="none" stroke="#bfbfbf" points="239,-300.5 268,-300.5 "/>
<text text-anchor="middle" x="253.5" y="-288.5" font-family="Helvetica,sans-Serif" font-size="10.00" fill="#000000"> </text>
</g>
<!-- Node10&#45;&gt;Node6 -->
<g id="edge4" class="edge">
<title>Node10&#45;&gt;Node6</title>
<path fill="none" stroke="#404040" d="M242.5465,-281.4537C236.6553,-266.1715 229.2358,-247.0379 222.5,-230 221.5833,-227.6812 220.6554,-225.3386 219.719,-222.9784"/>
<polygon fill="none" stroke="#404040" points="219.7186,-222.9771 213.7844,-218.8801 215.2839,-211.8266 221.2181,-215.9236 219.7186,-222.9771"/>
<text text-anchor="middle" x="263.5" y="-255" font-family="Helvetica,sans-Serif" font-size="10.00" fill="#000000"> +arraySize</text>
<text text-anchor="middle" x="263.5" y="-244" font-family="Helvetica,sans-Serif" font-size="10.00" fill="#000000">+size</text>
<text text-anchor="middle" x="263.5" y="-233" font-family="Helvetica,sans-Serif" font-size="10.00" fill="#000000">+bitcount</text>
</g>
</g>
</svg>
