<?xml version="1.0" encoding="UTF-8" standalone="no"?>
<!DOCTYPE svg PUBLIC "-//W3C//DTD SVG 1.1//EN"
 "http://www.w3.org/Graphics/SVG/1.1/DTD/svg11.dtd">
<!-- Generated by graphviz version 2.40.1 (20161225.0304)
 -->
<!-- Title: o2::tpc::zerosupp_link_based::ContainerT&lt; DataBitSizeT, SignificantBitsT, true &gt; Pages: 1 -->
<svg width="481pt" height="386pt"
 viewBox="0.00 0.00 481.00 386.00" xmlns="http://www.w3.org/2000/svg" xmlns:xlink="http://www.w3.org/1999/xlink">
<g id="graph0" class="graph" transform="scale(1 1) rotate(0) translate(4 382)">
<title>o2::tpc::zerosupp_link_based::ContainerT&lt; DataBitSizeT, SignificantBitsT, true &gt;</title>
<!-- Node1 -->
<g id="node1" class="node">
<title>Node1</title>
<polygon fill="#bfbfbf" stroke="#000000" points="226.5,-.5 226.5,-112.5 405.5,-112.5 405.5,-.5 226.5,-.5"/>
<text text-anchor="start" x="234.5" y="-100.5" font-family="Helvetica,sans-Serif" font-size="10.00" fill="#000000">o2::tpc::zerosupp_link</text>
<text text-anchor="start" x="234.5" y="-89.5" font-family="Helvetica,sans-Serif" font-size="10.00" fill="#000000">_based::ContainerT&lt; DataBitSize</text>
<text text-anchor="middle" x="316" y="-78.5" font-family="Helvetica,sans-Serif" font-size="10.00" fill="#000000">T, SignificantBitsT, true &gt;</text>
<polyline fill="none" stroke="#000000" points="226.5,-71.5 405.5,-71.5 "/>
<text text-anchor="middle" x="316" y="-59.5" font-family="Helvetica,sans-Serif" font-size="10.00" fill="#000000"> </text>
<polyline fill="none" stroke="#000000" points="226.5,-52.5 405.5,-52.5 "/>
<text text-anchor="start" x="234.5" y="-40.5" font-family="Helvetica,sans-Serif" font-size="10.00" fill="#000000">+ getBunchCrossing()</text>
<text text-anchor="start" x="234.5" y="-29.5" font-family="Helvetica,sans-Serif" font-size="10.00" fill="#000000">+ getDataWords()</text>
<text text-anchor="start" x="234.5" y="-18.5" font-family="Helvetica,sans-Serif" font-size="10.00" fill="#000000">+ getTotalWords()</text>
<text text-anchor="start" x="234.5" y="-7.5" font-family="Helvetica,sans-Serif" font-size="10.00" fill="#000000">+ getChannelBits()</text>
</g>
<!-- Node2 -->
<g id="node2" class="node">
<title>Node2</title>
<g id="a_node2"><a xlink:href="../../d0/de2/structo2_1_1tpc_1_1zerosupp__link__based_1_1Header.html" target="_top" xlink:title="header definition of the zero suppressed link based data format ">
<polygon fill="none" stroke="#000000" points="172.5,-160.5 172.5,-239.5 313.5,-239.5 313.5,-160.5 172.5,-160.5"/>
<text text-anchor="start" x="180.5" y="-227.5" font-family="Helvetica,sans-Serif" font-size="10.00" fill="#000000">o2::tpc::zerosupp_link</text>
<text text-anchor="middle" x="243" y="-216.5" font-family="Helvetica,sans-Serif" font-size="10.00" fill="#000000">_based::Header</text>
<polyline fill="none" stroke="#000000" points="172.5,-209.5 313.5,-209.5 "/>
<text text-anchor="middle" x="243" y="-197.5" font-family="Helvetica,sans-Serif" font-size="10.00" fill="#000000"> </text>
<polyline fill="none" stroke="#000000" points="172.5,-190.5 313.5,-190.5 "/>
<text text-anchor="start" x="180.5" y="-178.5" font-family="Helvetica,sans-Serif" font-size="10.00" fill="#000000">+ getChannelBits()</text>
<text text-anchor="start" x="180.5" y="-167.5" font-family="Helvetica,sans-Serif" font-size="10.00" fill="#000000">+ hasCorrectMagicWord()</text>
</a>
</g>
</g>
<!-- Node2&#45;&gt;Node1 -->
<g id="edge1" class="edge">
<title>Node2&#45;&gt;Node1</title>
<path fill="none" stroke="#404040" d="M263.1408,-160.4081C268.9509,-148.987 275.4582,-136.1951 281.8678,-123.5955"/>
<polygon fill="none" stroke="#404040" points="282.0143,-123.3075 281.1696,-116.146 287.4553,-112.6118 288.3,-119.7733 282.0143,-123.3075"/>
<text text-anchor="middle" x="301" y="-134" font-family="Helvetica,sans-Serif" font-size="10.00" fill="#000000"> +header</text>
</g>
<!-- Node3 -->
<g id="node3" class="node">
<title>Node3</title>
<g id="a_node3"><a xlink:href="../../d6/d30/classuint64__t.html" target="_top" xlink:title="{uint64_t\n||}">
<polygon fill="none" stroke="#000000" points="0,-320.5 0,-377.5 56,-377.5 56,-320.5 0,-320.5"/>
<text text-anchor="middle" x="28" y="-365.5" font-family="Helvetica,sans-Serif" font-size="10.00" fill="#000000">uint64_t</text>
<polyline fill="none" stroke="#000000" points="0,-358.5 56,-358.5 "/>
<text text-anchor="middle" x="28" y="-346.5" font-family="Helvetica,sans-Serif" font-size="10.00" fill="#000000"> </text>
<polyline fill="none" stroke="#000000" points="0,-339.5 56,-339.5 "/>
<text text-anchor="middle" x="28" y="-327.5" font-family="Helvetica,sans-Serif" font-size="10.00" fill="#000000"> </text>
</a>
</g>
</g>
<!-- Node3&#45;&gt;Node2 -->
<g id="edge2" class="edge">
<title>Node3&#45;&gt;Node2</title>
<path fill="none" stroke="#404040" d="M26.3749,-320.1367C26.8409,-300.3063 30.7992,-274.6518 46,-258 61.8655,-240.62 113.7518,-225.7419 160.2913,-215.4068"/>
<polygon fill="none" stroke="#404040" points="160.5668,-215.3473 165.5865,-210.1701 172.2961,-212.8124 167.2764,-217.9896 160.5668,-215.3473"/>
<text text-anchor="middle" x="81" y="-294" font-family="Helvetica,sans-Serif" font-size="10.00" fill="#000000"> +bitMaskLow</text>
<text text-anchor="middle" x="81" y="-283" font-family="Helvetica,sans-Serif" font-size="10.00" fill="#000000">+word0</text>
<text text-anchor="middle" x="81" y="-272" font-family="Helvetica,sans-Serif" font-size="10.00" fill="#000000">+word1</text>
<text text-anchor="middle" x="81" y="-261" font-family="Helvetica,sans-Serif" font-size="10.00" fill="#000000">+bitMaskHigh</text>
</g>
<!-- Node4 -->
<g id="node4" class="node">
<title>Node4</title>
<g id="a_node4"><a xlink:href="../../d3/d87/classuint32__t.html" target="_top" xlink:title="{uint32_t\n||}">
<polygon fill="none" stroke="#000000" points="93,-320.5 93,-377.5 149,-377.5 149,-320.5 93,-320.5"/>
<text text-anchor="middle" x="121" y="-365.5" font-family="Helvetica,sans-Serif" font-size="10.00" fill="#000000">uint32_t</text>
<polyline fill="none" stroke="#000000" points="93,-358.5 149,-358.5 "/>
<text text-anchor="middle" x="121" y="-346.5" font-family="Helvetica,sans-Serif" font-size="10.00" fill="#000000"> </text>
<polyline fill="none" stroke="#000000" points="93,-339.5 149,-339.5 "/>
<text text-anchor="middle" x="121" y="-327.5" font-family="Helvetica,sans-Serif" font-size="10.00" fill="#000000"> </text>
</a>
</g>
</g>
<!-- Node4&#45;&gt;Node2 -->
<g id="edge3" class="edge">
<title>Node4&#45;&gt;Node2</title>
<path fill="none" stroke="#404040" d="M118.2877,-320.3233C117.9269,-301.0793 120.4321,-276.0456 133,-258 140.51,-247.2167 150.6673,-238.2823 161.7884,-230.9273"/>
<polygon fill="none" stroke="#404040" points="161.9591,-230.8239 165.02,-224.2947 172.2243,-224.6089 169.1634,-231.1381 161.9591,-230.8239"/>
<text text-anchor="middle" x="182.5" y="-288.5" font-family="Helvetica,sans-Serif" font-size="10.00" fill="#000000"> +magicWord</text>
<text text-anchor="middle" x="182.5" y="-277.5" font-family="Helvetica,sans-Serif" font-size="10.00" fill="#000000">+numWordsPayload</text>
<text text-anchor="middle" x="182.5" y="-266.5" font-family="Helvetica,sans-Serif" font-size="10.00" fill="#000000">+bunchCrossing</text>
</g>
<!-- Node5 -->
<g id="node5" class="node">
<title>Node5</title>
<polygon fill="none" stroke="#bfbfbf" points="178.5,-320.5 178.5,-377.5 285.5,-377.5 285.5,-320.5 178.5,-320.5"/>
<text text-anchor="middle" x="232" y="-365.5" font-family="Helvetica,sans-Serif" font-size="10.00" fill="#000000">anonymous:+@42</text>
<polyline fill="none" stroke="#bfbfbf" points="178.5,-358.5 285.5,-358.5 "/>
<text text-anchor="middle" x="232" y="-346.5" font-family="Helvetica,sans-Serif" font-size="10.00" fill="#000000"> </text>
<polyline fill="none" stroke="#bfbfbf" points="178.5,-339.5 285.5,-339.5 "/>
<text text-anchor="middle" x="232" y="-327.5" font-family="Helvetica,sans-Serif" font-size="10.00" fill="#000000"> </text>
</g>
<!-- Node5&#45;&gt;Node2 -->
<g id="edge4" class="edge">
<title>Node5&#45;&gt;Node2</title>
<path fill="none" stroke="#404040" d="M234.1209,-320.2713C235.555,-300.8453 237.4896,-274.6404 239.1869,-251.6499"/>
<polygon fill="none" stroke="#404040" points="239.1912,-251.591 235.6438,-245.3127 240.0748,-239.6236 243.6221,-245.9018 239.1912,-251.591"/>
<text text-anchor="middle" x="256" y="-277.5" font-family="Helvetica,sans-Serif" font-size="10.00" fill="#000000"> +@42</text>
</g>
<!-- Node6 -->
<g id="node6" class="node">
<title>Node6</title>
<polygon fill="none" stroke="#bfbfbf" points="303.5,-320.5 303.5,-377.5 410.5,-377.5 410.5,-320.5 303.5,-320.5"/>
<text text-anchor="middle" x="357" y="-365.5" font-family="Helvetica,sans-Serif" font-size="10.00" fill="#000000">anonymous:+@44</text>
<polyline fill="none" stroke="#bfbfbf" points="303.5,-358.5 410.5,-358.5 "/>
<text text-anchor="middle" x="357" y="-346.5" font-family="Helvetica,sans-Serif" font-size="10.00" fill="#000000"> </text>
<polyline fill="none" stroke="#bfbfbf" points="303.5,-339.5 410.5,-339.5 "/>
<text text-anchor="middle" x="357" y="-327.5" font-family="Helvetica,sans-Serif" font-size="10.00" fill="#000000"> </text>
</g>
<!-- Node6&#45;&gt;Node2 -->
<g id="edge5" class="edge">
<title>Node6&#45;&gt;Node2</title>
<path fill="none" stroke="#404040" d="M335.0197,-320.2713C319.6774,-300.2186 298.8085,-272.9427 280.823,-249.4354"/>
<polygon fill="none" stroke="#404040" points="280.6078,-249.1541 273.7851,-246.8194 273.316,-239.6236 280.1387,-241.9582 280.6078,-249.1541"/>
<text text-anchor="middle" x="337" y="-277.5" font-family="Helvetica,sans-Serif" font-size="10.00" fill="#000000"> +@44</text>
</g>
<!-- Node7 -->
<g id="node7" class="node">
<title>Node7</title>
<polygon fill="none" stroke="#bfbfbf" points="429,-320.5 429,-377.5 473,-377.5 473,-320.5 429,-320.5"/>
<text text-anchor="middle" x="451" y="-365.5" font-family="Helvetica,sans-Serif" font-size="10.00" fill="#000000">static</text>
<polyline fill="none" stroke="#bfbfbf" points="429,-358.5 473,-358.5 "/>
<text text-anchor="middle" x="451" y="-346.5" font-family="Helvetica,sans-Serif" font-size="10.00" fill="#000000"> </text>
<polyline fill="none" stroke="#bfbfbf" points="429,-339.5 473,-339.5 "/>
<text text-anchor="middle" x="451" y="-327.5" font-family="Helvetica,sans-Serif" font-size="10.00" fill="#000000"> </text>
</g>
<!-- Node7&#45;&gt;Node2 -->
<g id="edge6" class="edge">
<title>Node7&#45;&gt;Node2</title>
<path fill="none" stroke="#404040" d="M428.736,-323.2576C410.9401,-303.7173 384.6427,-277.0536 358,-258 356.9832,-257.2729 342.6387,-249.9736 324.4036,-240.7835"/>
<polygon fill="none" stroke="#404040" points="324.3313,-240.7472 317.1735,-241.6226 313.6124,-235.3521 320.7702,-234.4767 324.3313,-240.7472"/>
<text text-anchor="middle" x="438.5" y="-277.5" font-family="Helvetica,sans-Serif" font-size="10.00" fill="#000000"> +MagicWord</text>
</g>
<!-- Node8 -->
<g id="node8" class="node">
<title>Node8</title>
<polygon fill="none" stroke="#bfbfbf" points="331.5,-166 331.5,-234 448.5,-234 448.5,-166 331.5,-166"/>
<text text-anchor="start" x="339.5" y="-222" font-family="Helvetica,sans-Serif" font-size="10.00" fill="#000000">Data&lt; DataBitSizeT,</text>
<text text-anchor="middle" x="390" y="-211" font-family="Helvetica,sans-Serif" font-size="10.00" fill="#000000"> SignificantBitsT &gt;</text>
<polyline fill="none" stroke="#bfbfbf" points="331.5,-204 448.5,-204 "/>
<text text-anchor="middle" x="390" y="-192" font-family="Helvetica,sans-Serif" font-size="10.00" fill="#000000"> </text>
<polyline fill="none" stroke="#bfbfbf" points="331.5,-185 448.5,-185 "/>
<text text-anchor="middle" x="390" y="-173" font-family="Helvetica,sans-Serif" font-size="10.00" fill="#000000"> </text>
</g>
<!-- Node8&#45;&gt;Node1 -->
<g id="edge7" class="edge">
<title>Node8&#45;&gt;Node1</title>
<path fill="none" stroke="#404040" d="M372.463,-165.9925C365.8597,-153.1874 358.1002,-138.1403 350.4836,-123.3702"/>
<polygon fill="none" stroke="#404040" points="350.4813,-123.3657 344.1762,-119.8663 344.9813,-112.7002 351.2864,-116.1996 350.4813,-123.3657"/>
<text text-anchor="middle" x="376" y="-134" font-family="Helvetica,sans-Serif" font-size="10.00" fill="#000000"> +data</text>
</g>
</g>
</svg>
