<?xml version="1.0" encoding="UTF-8" standalone="no"?>
<!DOCTYPE svg PUBLIC "-//W3C//DTD SVG 1.1//EN"
 "http://www.w3.org/Graphics/SVG/1.1/DTD/svg11.dtd">
<!-- Generated by graphviz version 2.40.1 (20161225.0304)
 -->
<!-- Title: CTask&lt; InputTable &gt; Pages: 1 -->
<svg width="1218pt" height="1243pt"
 viewBox="0.00 0.00 1217.50 1243.00" xmlns="http://www.w3.org/2000/svg" xmlns:xlink="http://www.w3.org/1999/xlink">
<g id="graph0" class="graph" transform="scale(1 1) rotate(0) translate(4 1239)">
<title>CTask&lt; InputTable &gt;</title>
<!-- Node1 -->
<g id="node1" class="node">
<title>Node1</title>
<polygon fill="#bfbfbf" stroke="#000000" points="452.5,-.5 452.5,-145.5 570.5,-145.5 570.5,-.5 452.5,-.5"/>
<text text-anchor="middle" x="511.5" y="-133.5" font-family="Helvetica,sans-Serif" font-size="10.00" fill="#000000">CTask&lt; InputTable &gt;</text>
<polyline fill="none" stroke="#000000" points="452.5,-126.5 570.5,-126.5 "/>
<text text-anchor="middle" x="511.5" y="-114.5" font-family="Helvetica,sans-Serif" font-size="10.00" fill="#000000"> </text>
<polyline fill="none" stroke="#000000" points="452.5,-107.5 570.5,-107.5 "/>
<text text-anchor="start" x="460.5" y="-95.5" font-family="Helvetica,sans-Serif" font-size="10.00" fill="#000000">+ process()</text>
<text text-anchor="start" x="460.5" y="-84.5" font-family="Helvetica,sans-Serif" font-size="10.00" fill="#000000">+ init()</text>
<text text-anchor="start" x="460.5" y="-73.5" font-family="Helvetica,sans-Serif" font-size="10.00" fill="#000000">+ process()</text>
<text text-anchor="start" x="460.5" y="-62.5" font-family="Helvetica,sans-Serif" font-size="10.00" fill="#000000">+ init()</text>
<text text-anchor="start" x="460.5" y="-51.5" font-family="Helvetica,sans-Serif" font-size="10.00" fill="#000000">+ process()</text>
<text text-anchor="start" x="460.5" y="-40.5" font-family="Helvetica,sans-Serif" font-size="10.00" fill="#000000">+ process()</text>
<text text-anchor="start" x="460.5" y="-29.5" font-family="Helvetica,sans-Serif" font-size="10.00" fill="#000000">+ process()</text>
<text text-anchor="start" x="460.5" y="-18.5" font-family="Helvetica,sans-Serif" font-size="10.00" fill="#000000">+ process()</text>
<text text-anchor="start" x="460.5" y="-7.5" font-family="Helvetica,sans-Serif" font-size="10.00" fill="#000000">+ process()</text>
</g>
<!-- Node2 -->
<g id="node2" class="node">
<title>Node2</title>
<g id="a_node2"><a xlink:href="../../d8/d34/classo2_1_1framework_1_1HistogramRegistry.html" target="_top" xlink:title="{o2::framework::Histogram\lRegistry\n||+ HistogramRegistry()\l+ add()\l+ add()\l+ add()\l+ addClone()\l+ get()\l+ operator()()\l+ spec()\l+ ref()\l+ setHash()\l+ operator*()\l+ fill()\l+ fill()\l+ getSize()\l+ getSize()\l+ print()\l}">
<polygon fill="none" stroke="#000000" points="469,-506.5 469,-739.5 614,-739.5 614,-506.5 469,-506.5"/>
<text text-anchor="start" x="477" y="-727.5" font-family="Helvetica,sans-Serif" font-size="10.00" fill="#000000">o2::framework::Histogram</text>
<text text-anchor="middle" x="541.5" y="-716.5" font-family="Helvetica,sans-Serif" font-size="10.00" fill="#000000">Registry</text>
<polyline fill="none" stroke="#000000" points="469,-709.5 614,-709.5 "/>
<text text-anchor="middle" x="541.5" y="-697.5" font-family="Helvetica,sans-Serif" font-size="10.00" fill="#000000"> </text>
<polyline fill="none" stroke="#000000" points="469,-690.5 614,-690.5 "/>
<text text-anchor="start" x="477" y="-678.5" font-family="Helvetica,sans-Serif" font-size="10.00" fill="#000000">+ HistogramRegistry()</text>
<text text-anchor="start" x="477" y="-667.5" font-family="Helvetica,sans-Serif" font-size="10.00" fill="#000000">+ add()</text>
<text text-anchor="start" x="477" y="-656.5" font-family="Helvetica,sans-Serif" font-size="10.00" fill="#000000">+ add()</text>
<text text-anchor="start" x="477" y="-645.5" font-family="Helvetica,sans-Serif" font-size="10.00" fill="#000000">+ add()</text>
<text text-anchor="start" x="477" y="-634.5" font-family="Helvetica,sans-Serif" font-size="10.00" fill="#000000">+ addClone()</text>
<text text-anchor="start" x="477" y="-623.5" font-family="Helvetica,sans-Serif" font-size="10.00" fill="#000000">+ get()</text>
<text text-anchor="start" x="477" y="-612.5" font-family="Helvetica,sans-Serif" font-size="10.00" fill="#000000">+ operator()()</text>
<text text-anchor="start" x="477" y="-601.5" font-family="Helvetica,sans-Serif" font-size="10.00" fill="#000000">+ spec()</text>
<text text-anchor="start" x="477" y="-590.5" font-family="Helvetica,sans-Serif" font-size="10.00" fill="#000000">+ ref()</text>
<text text-anchor="start" x="477" y="-579.5" font-family="Helvetica,sans-Serif" font-size="10.00" fill="#000000">+ setHash()</text>
<text text-anchor="start" x="477" y="-568.5" font-family="Helvetica,sans-Serif" font-size="10.00" fill="#000000">+ operator*()</text>
<text text-anchor="start" x="477" y="-557.5" font-family="Helvetica,sans-Serif" font-size="10.00" fill="#000000">+ fill()</text>
<text text-anchor="start" x="477" y="-546.5" font-family="Helvetica,sans-Serif" font-size="10.00" fill="#000000">+ fill()</text>
<text text-anchor="start" x="477" y="-535.5" font-family="Helvetica,sans-Serif" font-size="10.00" fill="#000000">+ getSize()</text>
<text text-anchor="start" x="477" y="-524.5" font-family="Helvetica,sans-Serif" font-size="10.00" fill="#000000">+ getSize()</text>
<text text-anchor="start" x="477" y="-513.5" font-family="Helvetica,sans-Serif" font-size="10.00" fill="#000000">+ print()</text>
</a>
</g>
</g>
<!-- Node2&#45;&gt;Node1 -->
<g id="edge1" class="edge">
<title>Node2&#45;&gt;Node1</title>
<path fill="none" stroke="#404040" d="M542.5502,-506.2033C542.2755,-413.255 539.4034,-279.988 527.5,-164 527.2917,-161.9705 527.0646,-159.9179 526.8211,-157.8498"/>
<polygon fill="none" stroke="#404040" points="526.8126,-157.7839 522.0716,-152.3504 525.2636,-145.8843 530.0047,-151.3178 526.8126,-157.7839"/>
<text text-anchor="middle" x="561" y="-283" font-family="Helvetica,sans-Serif" font-size="10.00" fill="#000000"> +registry</text>
</g>
<!-- Node3 -->
<g id="node3" class="node">
<title>Node3</title>
<polygon fill="none" stroke="#bfbfbf" points="458.5,-1001 458.5,-1058 514.5,-1058 514.5,-1001 458.5,-1001"/>
<text text-anchor="middle" x="486.5" y="-1046" font-family="Helvetica,sans-Serif" font-size="10.00" fill="#000000">uint32_t</text>
<polyline fill="none" stroke="#bfbfbf" points="458.5,-1039 514.5,-1039 "/>
<text text-anchor="middle" x="486.5" y="-1027" font-family="Helvetica,sans-Serif" font-size="10.00" fill="#000000"> </text>
<polyline fill="none" stroke="#bfbfbf" points="458.5,-1020 514.5,-1020 "/>
<text text-anchor="middle" x="486.5" y="-1008" font-family="Helvetica,sans-Serif" font-size="10.00" fill="#000000"> </text>
</g>
<!-- Node3&#45;&gt;Node2 -->
<g id="edge2" class="edge">
<title>Node3&#45;&gt;Node2</title>
<path fill="none" stroke="#404040" d="M499.2973,-1000.6899C507.7434,-980.2687 518.1957,-951.9888 523.5,-926 535.0116,-869.5976 539.9765,-806.1591 541.8856,-751.9593"/>
<polygon fill="none" stroke="#404040" points="541.8899,-751.8215 538.0808,-745.6985 542.2679,-739.8275 546.0769,-745.9505 541.8899,-751.8215"/>
<text text-anchor="middle" x="541" y="-947" font-family="Helvetica,sans-Serif" font-size="10.00" fill="#000000"> +lookup</text>
</g>
<!-- Node15 -->
<g id="node15" class="node">
<title>Node15</title>
<g id="a_node15"><a xlink:href="../../d4/d79/structo2_1_1framework_1_1OutputObj.html" target="_top" xlink:title="{o2::framework::OutputObj\l\&lt; TH1F \&gt;\n||+ spec()\l+ OutputObj()\l+ OutputObj()\l+ setObject()\l+ setObject()\l+ setObject()\l+ setObject()\l+ setHash()\l+ operator&#45;\&gt;()\l+ operator*()\l+ ref()\l}">
<polygon fill="none" stroke="#000000" points="619,-309.5 619,-487.5 762,-487.5 762,-309.5 619,-309.5"/>
<text text-anchor="start" x="627" y="-475.5" font-family="Helvetica,sans-Serif" font-size="10.00" fill="#000000">o2::framework::OutputObj</text>
<text text-anchor="middle" x="690.5" y="-464.5" font-family="Helvetica,sans-Serif" font-size="10.00" fill="#000000">&lt; TH1F &gt;</text>
<polyline fill="none" stroke="#000000" points="619,-457.5 762,-457.5 "/>
<text text-anchor="middle" x="690.5" y="-445.5" font-family="Helvetica,sans-Serif" font-size="10.00" fill="#000000"> </text>
<polyline fill="none" stroke="#000000" points="619,-438.5 762,-438.5 "/>
<text text-anchor="start" x="627" y="-426.5" font-family="Helvetica,sans-Serif" font-size="10.00" fill="#000000">+ spec()</text>
<text text-anchor="start" x="627" y="-415.5" font-family="Helvetica,sans-Serif" font-size="10.00" fill="#000000">+ OutputObj()</text>
<text text-anchor="start" x="627" y="-404.5" font-family="Helvetica,sans-Serif" font-size="10.00" fill="#000000">+ OutputObj()</text>
<text text-anchor="start" x="627" y="-393.5" font-family="Helvetica,sans-Serif" font-size="10.00" fill="#000000">+ setObject()</text>
<text text-anchor="start" x="627" y="-382.5" font-family="Helvetica,sans-Serif" font-size="10.00" fill="#000000">+ setObject()</text>
<text text-anchor="start" x="627" y="-371.5" font-family="Helvetica,sans-Serif" font-size="10.00" fill="#000000">+ setObject()</text>
<text text-anchor="start" x="627" y="-360.5" font-family="Helvetica,sans-Serif" font-size="10.00" fill="#000000">+ setObject()</text>
<text text-anchor="start" x="627" y="-349.5" font-family="Helvetica,sans-Serif" font-size="10.00" fill="#000000">+ setHash()</text>
<text text-anchor="start" x="627" y="-338.5" font-family="Helvetica,sans-Serif" font-size="10.00" fill="#000000">+ operator&#45;&gt;()</text>
<text text-anchor="start" x="627" y="-327.5" font-family="Helvetica,sans-Serif" font-size="10.00" fill="#000000">+ operator*()</text>
<text text-anchor="start" x="627" y="-316.5" font-family="Helvetica,sans-Serif" font-size="10.00" fill="#000000">+ ref()</text>
</a>
</g>
</g>
<!-- Node3&#45;&gt;Node15 -->
<g id="edge18" class="edge">
<title>Node3&#45;&gt;Node15</title>
<path fill="none" stroke="#404040" d="M473.9322,-1000.7072C465.7306,-980.2939 455.7799,-952.0163 451.5,-926 436.3413,-833.8534 413.5215,-583.5824 465.5,-506 497.6236,-458.0528 557.3064,-430.8906 607.1341,-415.8683"/>
<polygon fill="none" stroke="#404040" points="607.3753,-415.7991 612.0373,-410.2976 618.9086,-412.485 614.2467,-417.9864 607.3753,-415.7991"/>
<text text-anchor="middle" x="485.5" y="-839.5" font-family="Helvetica,sans-Serif" font-size="10.00" fill="#000000"> +mTaskHash</text>
</g>
<!-- Node23 -->
<g id="node23" class="node">
<title>Node23</title>
<g id="a_node23"><a xlink:href="../../d4/d79/structo2_1_1framework_1_1OutputObj.html" target="_top" xlink:title="{o2::framework::OutputObj\&lt; T \&gt;\n||+ OutputObj()\l+ OutputObj()\l+ setObject()\l+ setObject()\l+ setObject()\l+ setObject()\l+ setHash()\l+ spec()\l+ operator&#45;\&gt;()\l+ operator*()\l+ ref()\l}">
<polygon fill="none" stroke="#000000" points="688.5,-758.5 688.5,-925.5 860.5,-925.5 860.5,-758.5 688.5,-758.5"/>
<text text-anchor="middle" x="774.5" y="-913.5" font-family="Helvetica,sans-Serif" font-size="10.00" fill="#000000">o2::framework::OutputObj&lt; T &gt;</text>
<polyline fill="none" stroke="#000000" points="688.5,-906.5 860.5,-906.5 "/>
<text text-anchor="middle" x="774.5" y="-894.5" font-family="Helvetica,sans-Serif" font-size="10.00" fill="#000000"> </text>
<polyline fill="none" stroke="#000000" points="688.5,-887.5 860.5,-887.5 "/>
<text text-anchor="start" x="696.5" y="-875.5" font-family="Helvetica,sans-Serif" font-size="10.00" fill="#000000">+ OutputObj()</text>
<text text-anchor="start" x="696.5" y="-864.5" font-family="Helvetica,sans-Serif" font-size="10.00" fill="#000000">+ OutputObj()</text>
<text text-anchor="start" x="696.5" y="-853.5" font-family="Helvetica,sans-Serif" font-size="10.00" fill="#000000">+ setObject()</text>
<text text-anchor="start" x="696.5" y="-842.5" font-family="Helvetica,sans-Serif" font-size="10.00" fill="#000000">+ setObject()</text>
<text text-anchor="start" x="696.5" y="-831.5" font-family="Helvetica,sans-Serif" font-size="10.00" fill="#000000">+ setObject()</text>
<text text-anchor="start" x="696.5" y="-820.5" font-family="Helvetica,sans-Serif" font-size="10.00" fill="#000000">+ setObject()</text>
<text text-anchor="start" x="696.5" y="-809.5" font-family="Helvetica,sans-Serif" font-size="10.00" fill="#000000">+ setHash()</text>
<text text-anchor="start" x="696.5" y="-798.5" font-family="Helvetica,sans-Serif" font-size="10.00" fill="#000000">+ spec()</text>
<text text-anchor="start" x="696.5" y="-787.5" font-family="Helvetica,sans-Serif" font-size="10.00" fill="#000000">+ operator&#45;&gt;()</text>
<text text-anchor="start" x="696.5" y="-776.5" font-family="Helvetica,sans-Serif" font-size="10.00" fill="#000000">+ operator*()</text>
<text text-anchor="start" x="696.5" y="-765.5" font-family="Helvetica,sans-Serif" font-size="10.00" fill="#000000">+ ref()</text>
</a>
</g>
</g>
<!-- Node3&#45;&gt;Node23 -->
<g id="edge29" class="edge">
<title>Node3&#45;&gt;Node23</title>
<path fill="none" stroke="#404040" d="M514.5408,-1006.0117C527.5859,-995.4753 543.5039,-983.1599 558.5,-973 579.768,-958.5908 584.7978,-953.9073 608.5,-944 636.5527,-932.2743 647.5658,-940.1064 674.5,-926 675.5105,-925.4707 676.52,-924.9298 677.528,-924.378"/>
<polygon fill="none" stroke="#404040" points="677.9104,-924.1534 681.0576,-917.6653 688.257,-918.075 685.1098,-924.5631 677.9104,-924.1534"/>
<text text-anchor="middle" x="642.5" y="-947" font-family="Helvetica,sans-Serif" font-size="10.00" fill="#000000"> +mTaskHash</text>
</g>
<!-- Node4 -->
<g id="node4" class="node">
<title>Node4</title>
<polygon fill="none" stroke="#bfbfbf" points="462,-199 462,-256 503,-256 503,-199 462,-199"/>
<text text-anchor="middle" x="482.5" y="-244" font-family="Helvetica,sans-Serif" font-size="10.00" fill="#000000">Filter</text>
<polyline fill="none" stroke="#bfbfbf" points="462,-237 503,-237 "/>
<text text-anchor="middle" x="482.5" y="-225" font-family="Helvetica,sans-Serif" font-size="10.00" fill="#000000"> </text>
<polyline fill="none" stroke="#bfbfbf" points="462,-218 503,-218 "/>
<text text-anchor="middle" x="482.5" y="-206" font-family="Helvetica,sans-Serif" font-size="10.00" fill="#000000"> </text>
</g>
<!-- Node4&#45;&gt;Node1 -->
<g id="edge3" class="edge">
<title>Node4&#45;&gt;Node1</title>
<path fill="none" stroke="#404040" d="M481.2413,-198.9029C481.2043,-187.9289 481.7057,-175.3254 483.5,-164 483.8439,-161.8292 484.2277,-159.6383 484.6461,-157.4354"/>
<polygon fill="none" stroke="#404040" points="484.6712,-157.3181 482.0178,-150.6129 487.1867,-145.5847 489.8401,-152.2899 484.6712,-157.3181"/>
<text text-anchor="middle" x="505.5" y="-167" font-family="Helvetica,sans-Serif" font-size="10.00" fill="#000000"> +ptfilter</text>
</g>
<!-- Node5 -->
<g id="node5" class="node">
<title>Node5</title>
<g id="a_node5"><a xlink:href="../../d8/d71/structo2_1_1framework_1_1Configurable.html" target="_top" xlink:title="{o2::framework::Configurable\l\&lt; float \&gt;\n||+ Configurable()\l}">
<polygon fill="none" stroke="#000000" points="286,-193.5 286,-261.5 441,-261.5 441,-193.5 286,-193.5"/>
<text text-anchor="start" x="294" y="-249.5" font-family="Helvetica,sans-Serif" font-size="10.00" fill="#000000">o2::framework::Configurable</text>
<text text-anchor="middle" x="363.5" y="-238.5" font-family="Helvetica,sans-Serif" font-size="10.00" fill="#000000">&lt; float &gt;</text>
<polyline fill="none" stroke="#000000" points="286,-231.5 441,-231.5 "/>
<text text-anchor="middle" x="363.5" y="-219.5" font-family="Helvetica,sans-Serif" font-size="10.00" fill="#000000"> </text>
<polyline fill="none" stroke="#000000" points="286,-212.5 441,-212.5 "/>
<text text-anchor="start" x="294" y="-200.5" font-family="Helvetica,sans-Serif" font-size="10.00" fill="#000000">+ Configurable()</text>
</a>
</g>
</g>
<!-- Node5&#45;&gt;Node1 -->
<g id="edge4" class="edge">
<title>Node5&#45;&gt;Node1</title>
<path fill="none" stroke="#404040" d="M396.346,-193.2114C410.3422,-178.6005 427.2184,-160.9832 443.6834,-143.795"/>
<polygon fill="none" stroke="#404040" points="443.9376,-143.5296 445.1996,-136.4298 452.2387,-134.864 450.9767,-141.9638 443.9376,-143.5296"/>
<text text-anchor="middle" x="443.5" y="-167" font-family="Helvetica,sans-Serif" font-size="10.00" fill="#000000"> +pTCut</text>
</g>
<!-- Node6 -->
<g id="node6" class="node">
<title>Node6</title>
<g id="a_node6"><a xlink:href="../../da/def/structo2_1_1framework_1_1ConfigurablePolicyConst.html" target="_top" xlink:title="{o2::framework::Configurable\lPolicyConst\&lt; float \&gt;\n||+ ConfigurablePolicyConst()\l}">
<polygon fill="none" stroke="#000000" points="113,-364.5 113,-432.5 268,-432.5 268,-364.5 113,-364.5"/>
<text text-anchor="start" x="121" y="-420.5" font-family="Helvetica,sans-Serif" font-size="10.00" fill="#000000">o2::framework::Configurable</text>
<text text-anchor="middle" x="190.5" y="-409.5" font-family="Helvetica,sans-Serif" font-size="10.00" fill="#000000">PolicyConst&lt; float &gt;</text>
<polyline fill="none" stroke="#000000" points="113,-402.5 268,-402.5 "/>
<text text-anchor="middle" x="190.5" y="-390.5" font-family="Helvetica,sans-Serif" font-size="10.00" fill="#000000"> </text>
<polyline fill="none" stroke="#000000" points="113,-383.5 268,-383.5 "/>
<text text-anchor="start" x="121" y="-371.5" font-family="Helvetica,sans-Serif" font-size="10.00" fill="#000000">+ ConfigurablePolicyConst()</text>
</a>
</g>
</g>
<!-- Node6&#45;&gt;Node5 -->
<g id="edge5" class="edge">
<title>Node6&#45;&gt;Node5</title>
<path fill="none" stroke="#191970" d="M229.6966,-356.8014C244.2258,-341.5866 260.9506,-324.3533 276.5,-309 292.5525,-293.1499 310.7075,-276.022 326.2644,-261.578"/>
<polygon fill="none" stroke="#191970" points="227.1164,-354.4356 222.7552,-364.0912 232.1858,-359.2627 227.1164,-354.4356"/>
</g>
<!-- Node7 -->
<g id="node7" class="node">
<title>Node7</title>
<g id="a_node7"><a xlink:href="../../da/d2f/structo2_1_1framework_1_1ConfigurableBase.html" target="_top" xlink:title="{o2::framework::Configurable\lBase\&lt; float \&gt;\n||+ ConfigurableBase()\l}">
<polygon fill="none" stroke="#000000" points="173,-808 173,-876 328,-876 328,-808 173,-808"/>
<text text-anchor="start" x="181" y="-864" font-family="Helvetica,sans-Serif" font-size="10.00" fill="#000000">o2::framework::Configurable</text>
<text text-anchor="middle" x="250.5" y="-853" font-family="Helvetica,sans-Serif" font-size="10.00" fill="#000000">Base&lt; float &gt;</text>
<polyline fill="none" stroke="#000000" points="173,-846 328,-846 "/>
<text text-anchor="middle" x="250.5" y="-834" font-family="Helvetica,sans-Serif" font-size="10.00" fill="#000000"> </text>
<polyline fill="none" stroke="#000000" points="173,-827 328,-827 "/>
<text text-anchor="start" x="181" y="-815" font-family="Helvetica,sans-Serif" font-size="10.00" fill="#000000">+ ConfigurableBase()</text>
</a>
</g>
</g>
<!-- Node7&#45;&gt;Node6 -->
<g id="edge6" class="edge">
<title>Node7&#45;&gt;Node6</title>
<path fill="none" stroke="#191970" d="M244.5423,-797.9627C232.5837,-709.5687 205.8828,-512.2045 195.1242,-432.6803"/>
<polygon fill="none" stroke="#191970" points="241.0824,-798.4952 245.8915,-807.9357 248.0192,-797.5567 241.0824,-798.4952"/>
</g>
<!-- Node8 -->
<g id="node8" class="node">
<title>Node8</title>
<g id="a_node8"><a xlink:href="../../d4/dc3/classfloat.html" target="_top" xlink:title="{float\n||}">
<polygon fill="none" stroke="#000000" points="238.5,-1001 238.5,-1058 276.5,-1058 276.5,-1001 238.5,-1001"/>
<text text-anchor="middle" x="257.5" y="-1046" font-family="Helvetica,sans-Serif" font-size="10.00" fill="#000000">float</text>
<polyline fill="none" stroke="#000000" points="238.5,-1039 276.5,-1039 "/>
<text text-anchor="middle" x="257.5" y="-1027" font-family="Helvetica,sans-Serif" font-size="10.00" fill="#000000"> </text>
<polyline fill="none" stroke="#000000" points="238.5,-1020 276.5,-1020 "/>
<text text-anchor="middle" x="257.5" y="-1008" font-family="Helvetica,sans-Serif" font-size="10.00" fill="#000000"> </text>
</a>
</g>
</g>
<!-- Node8&#45;&gt;Node7 -->
<g id="edge7" class="edge">
<title>Node8&#45;&gt;Node7</title>
<path fill="none" stroke="#404040" d="M256.4216,-1000.614C255.3047,-970.697 253.5425,-923.4945 252.2304,-888.3509"/>
<polygon fill="none" stroke="#404040" points="252.2172,-887.9949 247.9961,-882.1483 251.7695,-876.0032 255.9906,-881.8498 252.2172,-887.9949"/>
<text text-anchor="middle" x="275" y="-947" font-family="Helvetica,sans-Serif" font-size="10.00" fill="#000000"> +value</text>
</g>
<!-- Node9 -->
<g id="node9" class="node">
<title>Node9</title>
<polygon fill="none" stroke="#bfbfbf" points="388,-1161 388,-1218 417,-1218 417,-1161 388,-1161"/>
<text text-anchor="middle" x="402.5" y="-1206" font-family="Helvetica,sans-Serif" font-size="10.00" fill="#000000">int</text>
<polyline fill="none" stroke="#bfbfbf" points="388,-1199 417,-1199 "/>
<text text-anchor="middle" x="402.5" y="-1187" font-family="Helvetica,sans-Serif" font-size="10.00" fill="#000000"> </text>
<polyline fill="none" stroke="#bfbfbf" points="388,-1180 417,-1180 "/>
<text text-anchor="middle" x="402.5" y="-1168" font-family="Helvetica,sans-Serif" font-size="10.00" fill="#000000"> </text>
</g>
<!-- Node9&#45;&gt;Node7 -->
<g id="edge8" class="edge">
<title>Node9&#45;&gt;Node7</title>
<path fill="none" stroke="#404040" d="M387.9223,-1164.0502C376.4118,-1143.3975 360.3682,-1113.3271 348.5,-1086 321.8465,-1024.6288 323.8885,-1005.9053 298.5,-944 290.7265,-925.0459 281.2849,-904.5386 272.8389,-886.9172"/>
<polygon fill="none" stroke="#404040" points="272.8221,-886.8824 266.6086,-883.2228 267.5968,-876.0797 273.8103,-879.7393 272.8221,-886.8824"/>
<text text-anchor="middle" x="368.5" y="-1032.5" font-family="Helvetica,sans-Serif" font-size="10.00" fill="#000000"> +name</text>
<text text-anchor="middle" x="368.5" y="-1021.5" font-family="Helvetica,sans-Serif" font-size="10.00" fill="#000000">+help</text>
</g>
<!-- Node10 -->
<g id="node10" class="node">
<title>Node10</title>
<g id="a_node10"><a xlink:href="../../da/d2f/structo2_1_1framework_1_1ConfigurableBase.html" target="_top" xlink:title="{o2::framework::Configurable\lBase\&lt; T \&gt;\n||+ ConfigurableBase()\l}">
<polygon fill="none" stroke="#000000" points="65,-995.5 65,-1063.5 220,-1063.5 220,-995.5 65,-995.5"/>
<text text-anchor="start" x="73" y="-1051.5" font-family="Helvetica,sans-Serif" font-size="10.00" fill="#000000">o2::framework::Configurable</text>
<text text-anchor="middle" x="142.5" y="-1040.5" font-family="Helvetica,sans-Serif" font-size="10.00" fill="#000000">Base&lt; T &gt;</text>
<polyline fill="none" stroke="#000000" points="65,-1033.5 220,-1033.5 "/>
<text text-anchor="middle" x="142.5" y="-1021.5" font-family="Helvetica,sans-Serif" font-size="10.00" fill="#000000"> </text>
<polyline fill="none" stroke="#000000" points="65,-1014.5 220,-1014.5 "/>
<text text-anchor="start" x="73" y="-1002.5" font-family="Helvetica,sans-Serif" font-size="10.00" fill="#000000">+ ConfigurableBase()</text>
</a>
</g>
</g>
<!-- Node9&#45;&gt;Node10 -->
<g id="edge10" class="edge">
<title>Node9&#45;&gt;Node10</title>
<path fill="none" stroke="#404040" d="M387.7387,-1183.2625C363.2956,-1172.7097 313.1752,-1150.116 273.5,-1126 246.4652,-1109.5672 218.0116,-1089.0424 194.5553,-1071.1515"/>
<polygon fill="none" stroke="#404040" points="194.3371,-1070.9836 187.1426,-1070.4941 184.8273,-1063.6648 192.0218,-1064.1542 194.3371,-1070.9836"/>
<text text-anchor="middle" x="293.5" y="-1118" font-family="Helvetica,sans-Serif" font-size="10.00" fill="#000000"> +name</text>
<text text-anchor="middle" x="293.5" y="-1107" font-family="Helvetica,sans-Serif" font-size="10.00" fill="#000000">+help</text>
</g>
<!-- Node9&#45;&gt;Node15 -->
<g id="edge19" class="edge">
<title>Node9&#45;&gt;Node15</title>
<path fill="none" stroke="#404040" d="M401.7854,-1160.6478C398.9785,-1037.563 390.6319,-560.2122 428.5,-506 439.5074,-490.2418 534.8363,-453.6207 607.3595,-427.5063"/>
<polygon fill="none" stroke="#404040" points="607.4906,-427.4594 611.789,-421.6694 618.7868,-423.4101 614.4885,-429.2002 607.4906,-427.4594"/>
<text text-anchor="middle" x="417.5" y="-947" font-family="Helvetica,sans-Serif" font-size="10.00" fill="#000000"> +label</text>
</g>
<!-- Node18 -->
<g id="node18" class="node">
<title>Node18</title>
<g id="a_node18"><a xlink:href="../../da/d96/structo2_1_1framework_1_1InputSpec.html" target="_top" xlink:title="{o2::framework::InputSpec\n||+ InputSpec()\l+ InputSpec()\l+ InputSpec()\l+ InputSpec()\l+ InputSpec()\l+ operator==()\l}">
<polygon fill="none" stroke="#000000" points="912.5,-973.5 912.5,-1085.5 1054.5,-1085.5 1054.5,-973.5 912.5,-973.5"/>
<text text-anchor="middle" x="983.5" y="-1073.5" font-family="Helvetica,sans-Serif" font-size="10.00" fill="#000000">o2::framework::InputSpec</text>
<polyline fill="none" stroke="#000000" points="912.5,-1066.5 1054.5,-1066.5 "/>
<text text-anchor="middle" x="983.5" y="-1054.5" font-family="Helvetica,sans-Serif" font-size="10.00" fill="#000000"> </text>
<polyline fill="none" stroke="#000000" points="912.5,-1047.5 1054.5,-1047.5 "/>
<text text-anchor="start" x="920.5" y="-1035.5" font-family="Helvetica,sans-Serif" font-size="10.00" fill="#000000">+ InputSpec()</text>
<text text-anchor="start" x="920.5" y="-1024.5" font-family="Helvetica,sans-Serif" font-size="10.00" fill="#000000">+ InputSpec()</text>
<text text-anchor="start" x="920.5" y="-1013.5" font-family="Helvetica,sans-Serif" font-size="10.00" fill="#000000">+ InputSpec()</text>
<text text-anchor="start" x="920.5" y="-1002.5" font-family="Helvetica,sans-Serif" font-size="10.00" fill="#000000">+ InputSpec()</text>
<text text-anchor="start" x="920.5" y="-991.5" font-family="Helvetica,sans-Serif" font-size="10.00" fill="#000000">+ InputSpec()</text>
<text text-anchor="start" x="920.5" y="-980.5" font-family="Helvetica,sans-Serif" font-size="10.00" fill="#000000">+ operator==()</text>
</a>
</g>
</g>
<!-- Node9&#45;&gt;Node18 -->
<g id="edge25" class="edge">
<title>Node9&#45;&gt;Node18</title>
<path fill="none" stroke="#404040" d="M417.0918,-1187.3554C465.6088,-1180.1242 625.8423,-1155.4349 756.5,-1126 786.6885,-1119.1991 858.9206,-1103.4662 901.2002,-1086.4113"/>
<polygon fill="none" stroke="#404040" points="901.2756,-1086.3784 905.1713,-1080.3101 912.2711,-1081.5722 908.3754,-1087.6404 901.2756,-1086.3784"/>
<text text-anchor="middle" x="871.5" y="-1112.5" font-family="Helvetica,sans-Serif" font-size="10.00" fill="#000000"> +binding</text>
</g>
<!-- Node9&#45;&gt;Node23 -->
<g id="edge30" class="edge">
<title>Node9&#45;&gt;Node23</title>
<path fill="none" stroke="#404040" d="M417.1788,-1186.6056C473.2559,-1175.2651 672.9438,-1132.2019 715.5,-1086 725.954,-1074.6504 742.8981,-1001.1834 755.952,-937.8008"/>
<polygon fill="none" stroke="#404040" points="756.0239,-937.4483 753.3052,-930.7693 758.4247,-925.6909 761.1434,-932.3699 756.0239,-937.4483"/>
<text text-anchor="middle" x="765.5" y="-1027" font-family="Helvetica,sans-Serif" font-size="10.00" fill="#000000"> +label</text>
</g>
<!-- Node10&#45;&gt;Node7 -->
<g id="edge9" class="edge">
<title>Node10&#45;&gt;Node7</title>
<path fill="none" stroke="#ffa500" d="M167.5435,-986.0217C186.8044,-952.5826 213.0444,-907.027 230.8167,-876.1724"/>
<polygon fill="#ffa500" stroke="#ffa500" points="164.2673,-984.6973 162.3089,-995.1096 170.333,-988.1912 164.2673,-984.6973"/>
<text text-anchor="middle" x="214.5" y="-947" font-family="Helvetica,sans-Serif" font-size="10.00" fill="#000000"> &lt; float &gt;</text>
</g>
<!-- Node12 -->
<g id="node12" class="node">
<title>Node12</title>
<g id="a_node12"><a xlink:href="../../da/def/structo2_1_1framework_1_1ConfigurablePolicyConst.html" target="_top" xlink:title="{o2::framework::Configurable\lPolicyConst\&lt; T \&gt;\n||+ ConfigurablePolicyConst()\l}">
<polygon fill="none" stroke="#000000" points="0,-808 0,-876 155,-876 155,-808 0,-808"/>
<text text-anchor="start" x="8" y="-864" font-family="Helvetica,sans-Serif" font-size="10.00" fill="#000000">o2::framework::Configurable</text>
<text text-anchor="middle" x="77.5" y="-853" font-family="Helvetica,sans-Serif" font-size="10.00" fill="#000000">PolicyConst&lt; T &gt;</text>
<polyline fill="none" stroke="#000000" points="0,-846 155,-846 "/>
<text text-anchor="middle" x="77.5" y="-834" font-family="Helvetica,sans-Serif" font-size="10.00" fill="#000000"> </text>
<polyline fill="none" stroke="#000000" points="0,-827 155,-827 "/>
<text text-anchor="start" x="8" y="-815" font-family="Helvetica,sans-Serif" font-size="10.00" fill="#000000">+ ConfigurablePolicyConst()</text>
</a>
</g>
</g>
<!-- Node10&#45;&gt;Node12 -->
<g id="edge13" class="edge">
<title>Node10&#45;&gt;Node12</title>
<path fill="none" stroke="#191970" d="M127.2787,-985.5923C115.7004,-952.1935 99.997,-906.8952 89.3464,-876.1724"/>
<polygon fill="none" stroke="#191970" points="123.9956,-986.8077 130.578,-995.1096 130.6094,-984.5148 123.9956,-986.8077"/>
</g>
<!-- Node11 -->
<g id="node11" class="node">
<title>Node11</title>
<polygon fill="none" stroke="#bfbfbf" points="128,-1161 128,-1218 157,-1218 157,-1161 128,-1161"/>
<text text-anchor="middle" x="142.5" y="-1206" font-family="Helvetica,sans-Serif" font-size="10.00" fill="#000000">T</text>
<polyline fill="none" stroke="#bfbfbf" points="128,-1199 157,-1199 "/>
<text text-anchor="middle" x="142.5" y="-1187" font-family="Helvetica,sans-Serif" font-size="10.00" fill="#000000"> </text>
<polyline fill="none" stroke="#bfbfbf" points="128,-1180 157,-1180 "/>
<text text-anchor="middle" x="142.5" y="-1168" font-family="Helvetica,sans-Serif" font-size="10.00" fill="#000000"> </text>
</g>
<!-- Node11&#45;&gt;Node10 -->
<g id="edge11" class="edge">
<title>Node11&#45;&gt;Node10</title>
<path fill="none" stroke="#404040" d="M142.5,-1160.8952C142.5,-1137.2769 142.5,-1103.2944 142.5,-1075.806"/>
<polygon fill="none" stroke="#404040" points="142.5001,-1075.6937 138.5,-1069.6937 142.5,-1063.6937 146.5,-1069.6936 142.5001,-1075.6937"/>
<text text-anchor="middle" x="162" y="-1112.5" font-family="Helvetica,sans-Serif" font-size="10.00" fill="#000000"> +value</text>
</g>
<!-- Node12&#45;&gt;Node6 -->
<g id="edge12" class="edge">
<title>Node12&#45;&gt;Node6</title>
<path fill="none" stroke="#ffa500" d="M86.4279,-798.0681C99.8152,-733.6022 126.6197,-609.7747 155.5,-506 162.3936,-481.2294 171.397,-453.6604 178.5458,-432.6434"/>
<polygon fill="#ffa500" stroke="#ffa500" points="82.994,-797.391 84.3963,-807.8926 89.8489,-798.8086 82.994,-797.391"/>
<text text-anchor="middle" x="179.5" y="-620.5" font-family="Helvetica,sans-Serif" font-size="10.00" fill="#000000"> &lt; float &gt;</text>
</g>
<!-- Node13 -->
<g id="node13" class="node">
<title>Node13</title>
<g id="a_node13"><a xlink:href="../../d8/d71/structo2_1_1framework_1_1Configurable.html" target="_top" xlink:title="{o2::framework::Configurable\l\&lt; T, IP \&gt;\n||+ Configurable()\l}">
<polygon fill="none" stroke="#000000" points="286,-364.5 286,-432.5 441,-432.5 441,-364.5 286,-364.5"/>
<text text-anchor="start" x="294" y="-420.5" font-family="Helvetica,sans-Serif" font-size="10.00" fill="#000000">o2::framework::Configurable</text>
<text text-anchor="middle" x="363.5" y="-409.5" font-family="Helvetica,sans-Serif" font-size="10.00" fill="#000000">&lt; T, IP &gt;</text>
<polyline fill="none" stroke="#000000" points="286,-402.5 441,-402.5 "/>
<text text-anchor="middle" x="363.5" y="-390.5" font-family="Helvetica,sans-Serif" font-size="10.00" fill="#000000"> </text>
<polyline fill="none" stroke="#000000" points="286,-383.5 441,-383.5 "/>
<text text-anchor="start" x="294" y="-371.5" font-family="Helvetica,sans-Serif" font-size="10.00" fill="#000000">+ Configurable()</text>
</a>
</g>
</g>
<!-- Node13&#45;&gt;Node5 -->
<g id="edge14" class="edge">
<title>Node13&#45;&gt;Node5</title>
<path fill="none" stroke="#ffa500" d="M363.5,-354.0807C363.5,-325.2253 363.5,-288.1808 363.5,-261.6342"/>
<polygon fill="#ffa500" stroke="#ffa500" points="360.0001,-354.3065 363.5,-364.3066 367.0001,-354.3066 360.0001,-354.3065"/>
<text text-anchor="middle" x="387.5" y="-283" font-family="Helvetica,sans-Serif" font-size="10.00" fill="#000000"> &lt; float &gt;</text>
</g>
<!-- Node14 -->
<g id="node14" class="node">
<title>Node14</title>
<polygon fill="none" stroke="#bfbfbf" points="346,-813.5 346,-870.5 375,-870.5 375,-813.5 346,-813.5"/>
<text text-anchor="middle" x="360.5" y="-858.5" font-family="Helvetica,sans-Serif" font-size="10.00" fill="#000000">IP</text>
<polyline fill="none" stroke="#bfbfbf" points="346,-851.5 375,-851.5 "/>
<text text-anchor="middle" x="360.5" y="-839.5" font-family="Helvetica,sans-Serif" font-size="10.00" fill="#000000"> </text>
<polyline fill="none" stroke="#bfbfbf" points="346,-832.5 375,-832.5 "/>
<text text-anchor="middle" x="360.5" y="-820.5" font-family="Helvetica,sans-Serif" font-size="10.00" fill="#000000"> </text>
</g>
<!-- Node14&#45;&gt;Node13 -->
<g id="edge15" class="edge">
<title>Node14&#45;&gt;Node13</title>
<path fill="none" stroke="#191970" d="M360.7627,-803.1603C361.3421,-717.5135 362.7213,-513.6173 363.2695,-432.5693"/>
<polygon fill="none" stroke="#191970" points="357.2623,-803.219 360.6945,-813.2424 364.2622,-803.2664 357.2623,-803.219"/>
</g>
<!-- Node15&#45;&gt;Node1 -->
<g id="edge16" class="edge">
<title>Node15&#45;&gt;Node1</title>
<path fill="none" stroke="#404040" d="M641.3507,-309.1252C615.1376,-261.4582 583.0838,-203.1705 557.3821,-156.4337"/>
<polygon fill="none" stroke="#404040" points="557.2799,-156.2477 550.8837,-152.9177 551.4974,-145.7328 557.8936,-149.0628 557.2799,-156.2477"/>
<text text-anchor="middle" x="635" y="-241.5" font-family="Helvetica,sans-Serif" font-size="10.00" fill="#000000"> +etaDiff</text>
<text text-anchor="middle" x="635" y="-230.5" font-family="Helvetica,sans-Serif" font-size="10.00" fill="#000000">+ptH</text>
<text text-anchor="middle" x="635" y="-219.5" font-family="Helvetica,sans-Serif" font-size="10.00" fill="#000000">+trZ</text>
<text text-anchor="middle" x="635" y="-208.5" font-family="Helvetica,sans-Serif" font-size="10.00" fill="#000000">+phiDiff</text>
</g>
<!-- Node16 -->
<g id="node16" class="node">
<title>Node16</title>
<polygon fill="none" stroke="#bfbfbf" points="567,-1001 567,-1058 706,-1058 706,-1001 567,-1001"/>
<text text-anchor="middle" x="636.5" y="-1046" font-family="Helvetica,sans-Serif" font-size="10.00" fill="#000000">OutputObjHandlingPolicy</text>
<polyline fill="none" stroke="#bfbfbf" points="567,-1039 706,-1039 "/>
<text text-anchor="middle" x="636.5" y="-1027" font-family="Helvetica,sans-Serif" font-size="10.00" fill="#000000"> </text>
<polyline fill="none" stroke="#bfbfbf" points="567,-1020 706,-1020 "/>
<text text-anchor="middle" x="636.5" y="-1008" font-family="Helvetica,sans-Serif" font-size="10.00" fill="#000000"> </text>
</g>
<!-- Node16&#45;&gt;Node15 -->
<g id="edge17" class="edge">
<title>Node16&#45;&gt;Node15</title>
<path fill="none" stroke="#404040" d="M635.4334,-1000.9124C633.87,-951.3654 631.8151,-846.3645 638.5,-758 645.1331,-670.3199 659.9668,-571.5037 672.1002,-499.6931"/>
<polygon fill="none" stroke="#404040" points="672.1606,-499.3381 669.2255,-492.7513 674.1768,-487.5086 677.1118,-494.0954 672.1606,-499.3381"/>
<text text-anchor="middle" x="659" y="-839.5" font-family="Helvetica,sans-Serif" font-size="10.00" fill="#000000"> +policy</text>
</g>
<!-- Node16&#45;&gt;Node23 -->
<g id="edge28" class="edge">
<title>Node16&#45;&gt;Node23</title>
<path fill="none" stroke="#404040" d="M652.1092,-1000.6296C661.66,-983.689 674.5085,-962.1203 687.5,-944 689.5343,-941.1627 691.6288,-938.3076 693.7696,-935.4467"/>
<polygon fill="none" stroke="#404040" points="693.9204,-935.2494 694.3849,-928.0532 701.2061,-925.7142 700.7417,-932.9104 693.9204,-935.2494"/>
<text text-anchor="middle" x="708" y="-947" font-family="Helvetica,sans-Serif" font-size="10.00" fill="#000000"> +policy</text>
</g>
<!-- Node17 -->
<g id="node17" class="node">
<title>Node17</title>
<polygon fill="none" stroke="#bfbfbf" points="1097.5,-1001 1097.5,-1058 1135.5,-1058 1135.5,-1001 1097.5,-1001"/>
<text text-anchor="middle" x="1116.5" y="-1046" font-family="Helvetica,sans-Serif" font-size="10.00" fill="#000000">bool</text>
<polyline fill="none" stroke="#bfbfbf" points="1097.5,-1039 1135.5,-1039 "/>
<text text-anchor="middle" x="1116.5" y="-1027" font-family="Helvetica,sans-Serif" font-size="10.00" fill="#000000"> </text>
<polyline fill="none" stroke="#bfbfbf" points="1097.5,-1020 1135.5,-1020 "/>
<text text-anchor="middle" x="1116.5" y="-1008" font-family="Helvetica,sans-Serif" font-size="10.00" fill="#000000"> </text>
</g>
<!-- Node17&#45;&gt;Node15 -->
<g id="edge20" class="edge">
<title>Node17&#45;&gt;Node15</title>
<path fill="none" stroke="#404040" d="M1119.6644,-1000.9986C1127.6092,-914.3602 1139.1282,-651.1963 1006.5,-506 974.8372,-471.3368 856.6638,-437.4875 774.1752,-417.3081"/>
<polygon fill="none" stroke="#404040" points="773.9422,-417.2518 767.1701,-419.7297 762.2783,-414.4315 769.0503,-411.9537 773.9422,-417.2518"/>
<text text-anchor="middle" x="1154.5" y="-839.5" font-family="Helvetica,sans-Serif" font-size="10.00" fill="#000000"> +isdangling</text>
</g>
<!-- Node17&#45;&gt;Node23 -->
<g id="edge32" class="edge">
<title>Node17&#45;&gt;Node23</title>
<path fill="none" stroke="#404040" d="M1097.4116,-1003.1783C1088.2869,-992.345 1076.5155,-980.5827 1063.5,-973 1027.8668,-952.2405 924.8032,-947.1913 871.8734,-926.1658"/>
<polygon fill="none" stroke="#404040" points="871.6946,-926.0844 864.576,-927.2357 860.7753,-921.1075 867.8939,-919.9562 871.6946,-926.0844"/>
<text text-anchor="middle" x="1029.5" y="-947" font-family="Helvetica,sans-Serif" font-size="10.00" fill="#000000"> +isdangling</text>
</g>
<!-- Node18&#45;&gt;Node15 -->
<g id="edge21" class="edge">
<title>Node18&#45;&gt;Node15</title>
<path fill="none" stroke="#404040" d="M999.9179,-973.4726C1026.8947,-868.6866 1067.2679,-641.43 956.5,-506 911.5094,-450.9924 834.0485,-423.9085 774.2829,-410.709"/>
<polygon fill="none" stroke="#404040" points="773.9433,-410.6378 767.2498,-413.3207 762.1989,-408.1741 768.8924,-405.4912 773.9433,-410.6378"/>
<text text-anchor="middle" x="1046.5" y="-839.5" font-family="Helvetica,sans-Serif" font-size="10.00" fill="#000000"> +spec</text>
</g>
<!-- Node18&#45;&gt;Node23 -->
<g id="edge33" class="edge">
<title>Node18&#45;&gt;Node23</title>
<path fill="none" stroke="#404040" d="M921.0762,-973.4978C904.8924,-958.9788 887.0923,-943.0098 869.6429,-927.3555"/>
<polygon fill="none" stroke="#404040" points="869.4927,-927.2208 862.3555,-926.1915 860.5605,-919.2073 867.6977,-920.2366 869.4927,-927.2208"/>
<text text-anchor="middle" x="914.5" y="-947" font-family="Helvetica,sans-Serif" font-size="10.00" fill="#000000"> +spec</text>
</g>
<!-- Node19 -->
<g id="node19" class="node">
<title>Node19</title>
<polygon fill="none" stroke="#bfbfbf" points="791.5,-1155.5 791.5,-1223.5 921.5,-1223.5 921.5,-1155.5 791.5,-1155.5"/>
<text text-anchor="start" x="799.5" y="-1211.5" font-family="Helvetica,sans-Serif" font-size="10.00" fill="#000000">vector&lt; o2::framework</text>
<text text-anchor="middle" x="856.5" y="-1200.5" font-family="Helvetica,sans-Serif" font-size="10.00" fill="#000000">::ConfigParamSpec &gt;</text>
<polyline fill="none" stroke="#bfbfbf" points="791.5,-1193.5 921.5,-1193.5 "/>
<text text-anchor="middle" x="856.5" y="-1181.5" font-family="Helvetica,sans-Serif" font-size="10.00" fill="#000000"> </text>
<polyline fill="none" stroke="#bfbfbf" points="791.5,-1174.5 921.5,-1174.5 "/>
<text text-anchor="middle" x="856.5" y="-1162.5" font-family="Helvetica,sans-Serif" font-size="10.00" fill="#000000"> </text>
</g>
<!-- Node19&#45;&gt;Node18 -->
<g id="edge22" class="edge">
<title>Node19&#45;&gt;Node18</title>
<path fill="none" stroke="#404040" d="M881.2733,-1155.4429C892.9573,-1139.6315 907.221,-1120.6834 920.5,-1104 922.7993,-1101.1112 925.1637,-1098.1743 927.5656,-1095.2184"/>
<polygon fill="none" stroke="#404040" points="927.7212,-1095.0285 928.4323,-1087.8525 935.3298,-1085.7489 934.6187,-1092.9249 927.7212,-1095.0285"/>
<text text-anchor="middle" x="950" y="-1112.5" font-family="Helvetica,sans-Serif" font-size="10.00" fill="#000000"> +metadata</text>
</g>
<!-- Node20 -->
<g id="node20" class="node">
<title>Node20</title>
<polygon fill="none" stroke="#bfbfbf" points="939.5,-1161 939.5,-1218 1027.5,-1218 1027.5,-1161 939.5,-1161"/>
<text text-anchor="middle" x="983.5" y="-1206" font-family="Helvetica,sans-Serif" font-size="10.00" fill="#000000">enum Lifetime</text>
<polyline fill="none" stroke="#bfbfbf" points="939.5,-1199 1027.5,-1199 "/>
<text text-anchor="middle" x="983.5" y="-1187" font-family="Helvetica,sans-Serif" font-size="10.00" fill="#000000"> </text>
<polyline fill="none" stroke="#bfbfbf" points="939.5,-1180 1027.5,-1180 "/>
<text text-anchor="middle" x="983.5" y="-1168" font-family="Helvetica,sans-Serif" font-size="10.00" fill="#000000"> </text>
</g>
<!-- Node20&#45;&gt;Node18 -->
<g id="edge23" class="edge">
<title>Node20&#45;&gt;Node18</title>
<path fill="none" stroke="#404040" d="M983.5,-1160.8952C983.5,-1143.3 983.5,-1119.9527 983.5,-1097.8235"/>
<polygon fill="none" stroke="#404040" points="983.5001,-1097.6991 979.5,-1091.6991 983.5,-1085.6991 987.5,-1091.6991 983.5001,-1097.6991"/>
<text text-anchor="middle" x="1008.5" y="-1112.5" font-family="Helvetica,sans-Serif" font-size="10.00" fill="#000000"> +lifetime</text>
</g>
<!-- Node21 -->
<g id="node21" class="node">
<title>Node21</title>
<polygon fill="none" stroke="#bfbfbf" points="1045.5,-1144.5 1045.5,-1234.5 1209.5,-1234.5 1209.5,-1144.5 1045.5,-1144.5"/>
<text text-anchor="start" x="1053.5" y="-1222.5" font-family="Helvetica,sans-Serif" font-size="10.00" fill="#000000">variant&lt; o2::framework</text>
<text text-anchor="start" x="1053.5" y="-1211.5" font-family="Helvetica,sans-Serif" font-size="10.00" fill="#000000">::ConcreteDataMatcher,</text>
<text text-anchor="start" x="1053.5" y="-1200.5" font-family="Helvetica,sans-Serif" font-size="10.00" fill="#000000"> o2::framework::data_matcher</text>
<text text-anchor="middle" x="1127.5" y="-1189.5" font-family="Helvetica,sans-Serif" font-size="10.00" fill="#000000">::DataDescriptorMatcher &gt;</text>
<polyline fill="none" stroke="#bfbfbf" points="1045.5,-1182.5 1209.5,-1182.5 "/>
<text text-anchor="middle" x="1127.5" y="-1170.5" font-family="Helvetica,sans-Serif" font-size="10.00" fill="#000000"> </text>
<polyline fill="none" stroke="#bfbfbf" points="1045.5,-1163.5 1209.5,-1163.5 "/>
<text text-anchor="middle" x="1127.5" y="-1151.5" font-family="Helvetica,sans-Serif" font-size="10.00" fill="#000000"> </text>
</g>
<!-- Node21&#45;&gt;Node18 -->
<g id="edge24" class="edge">
<title>Node21&#45;&gt;Node18</title>
<path fill="none" stroke="#404040" d="M1086.6206,-1144.0784C1072.7995,-1128.7217 1057.084,-1111.2599 1042.1607,-1094.6785"/>
<polygon fill="none" stroke="#404040" points="1041.9961,-1094.4957 1035.0091,-1092.7118 1033.9685,-1085.5761 1040.9555,-1087.36 1041.9961,-1094.4957"/>
<text text-anchor="middle" x="1093.5" y="-1112.5" font-family="Helvetica,sans-Serif" font-size="10.00" fill="#000000"> +matcher</text>
</g>
<!-- Node22 -->
<g id="node22" class="node">
<title>Node22</title>
<polygon fill="none" stroke="#bfbfbf" points="878.5,-813.5 878.5,-870.5 994.5,-870.5 994.5,-813.5 878.5,-813.5"/>
<text text-anchor="middle" x="936.5" y="-858.5" font-family="Helvetica,sans-Serif" font-size="10.00" fill="#000000">shared_ptr&lt; TH1F &gt;</text>
<polyline fill="none" stroke="#bfbfbf" points="878.5,-851.5 994.5,-851.5 "/>
<text text-anchor="middle" x="936.5" y="-839.5" font-family="Helvetica,sans-Serif" font-size="10.00" fill="#000000"> </text>
<polyline fill="none" stroke="#bfbfbf" points="878.5,-832.5 994.5,-832.5 "/>
<text text-anchor="middle" x="936.5" y="-820.5" font-family="Helvetica,sans-Serif" font-size="10.00" fill="#000000"> </text>
</g>
<!-- Node22&#45;&gt;Node15 -->
<g id="edge26" class="edge">
<title>Node22&#45;&gt;Node15</title>
<path fill="none" stroke="#404040" d="M930.3752,-813.3443C916.4037,-752.5519 877.9036,-607.8938 808.5,-506 798.0059,-490.5933 784.8798,-475.8611 771.2293,-462.5127"/>
<polygon fill="none" stroke="#404040" points="770.9092,-462.2088 763.8036,-460.9793 762.2057,-453.9475 769.3112,-455.177 770.9092,-462.2088"/>
<text text-anchor="middle" x="931.5" y="-620.5" font-family="Helvetica,sans-Serif" font-size="10.00" fill="#000000"> +object</text>
</g>
<!-- Node23&#45;&gt;Node15 -->
<g id="edge27" class="edge">
<title>Node23&#45;&gt;Node15</title>
<path fill="none" stroke="#ffa500" d="M756.7253,-748.1539C742.1559,-671.2308 721.6768,-563.1059 707.3617,-487.526"/>
<polygon fill="#ffa500" stroke="#ffa500" points="753.351,-749.1465 758.6509,-758.3205 760.2287,-747.8438 753.351,-749.1465"/>
<text text-anchor="middle" x="779" y="-620.5" font-family="Helvetica,sans-Serif" font-size="10.00" fill="#000000"> &lt; TH1F &gt;</text>
</g>
<!-- Node24 -->
<g id="node24" class="node">
<title>Node24</title>
<polygon fill="none" stroke="#bfbfbf" points="797,-1001 797,-1058 894,-1058 894,-1001 797,-1001"/>
<text text-anchor="middle" x="845.5" y="-1046" font-family="Helvetica,sans-Serif" font-size="10.00" fill="#000000">shared_ptr&lt; T &gt;</text>
<polyline fill="none" stroke="#bfbfbf" points="797,-1039 894,-1039 "/>
<text text-anchor="middle" x="845.5" y="-1027" font-family="Helvetica,sans-Serif" font-size="10.00" fill="#000000"> </text>
<polyline fill="none" stroke="#bfbfbf" points="797,-1020 894,-1020 "/>
<text text-anchor="middle" x="845.5" y="-1008" font-family="Helvetica,sans-Serif" font-size="10.00" fill="#000000"> </text>
</g>
<!-- Node24&#45;&gt;Node23 -->
<g id="edge31" class="edge">
<title>Node24&#45;&gt;Node23</title>
<path fill="none" stroke="#404040" d="M834.5618,-1000.614C828.0099,-983.3113 819.2685,-960.2266 810.4873,-937.037"/>
<polygon fill="none" stroke="#404040" points="810.4324,-936.8917 804.5668,-932.6971 806.1828,-925.6694 812.0484,-929.864 810.4324,-936.8917"/>
<text text-anchor="middle" x="836.5" y="-947" font-family="Helvetica,sans-Serif" font-size="10.00" fill="#000000"> +object</text>
</g>
</g>
</svg>
