<?xml version="1.0" encoding="UTF-8" standalone="no"?>
<!DOCTYPE svg PUBLIC "-//W3C//DTD SVG 1.1//EN"
 "http://www.w3.org/Graphics/SVG/1.1/DTD/svg11.dtd">
<!-- Generated by graphviz version 2.40.1 (20161225.0304)
 -->
<!-- Title: o2::tof::WindowFiller Pages: 1 -->
<svg width="1663pt" height="1229pt"
 viewBox="0.00 0.00 1663.00 1229.00" xmlns="http://www.w3.org/2000/svg" xmlns:xlink="http://www.w3.org/1999/xlink">
<g id="graph0" class="graph" transform="scale(1 1) rotate(0) translate(4 1225)">
<title>o2::tof::WindowFiller</title>
<!-- Node3 -->
<g id="node1" class="node">
<title>Node3</title>
<polygon fill="#bfbfbf" stroke="#000000" points="702.5,-.5 702.5,-332.5 891.5,-332.5 891.5,-.5 702.5,-.5"/>
<text text-anchor="middle" x="797" y="-320.5" font-family="Helvetica,sans-Serif" font-size="10.00" fill="#000000">o2::tof::WindowFiller</text>
<polyline fill="none" stroke="#000000" points="702.5,-313.5 891.5,-313.5 "/>
<text text-anchor="middle" x="797" y="-301.5" font-family="Helvetica,sans-Serif" font-size="10.00" fill="#000000"> </text>
<polyline fill="none" stroke="#000000" points="702.5,-294.5 891.5,-294.5 "/>
<text text-anchor="start" x="710.5" y="-282.5" font-family="Helvetica,sans-Serif" font-size="10.00" fill="#000000">+ WindowFiller()</text>
<text text-anchor="start" x="710.5" y="-271.5" font-family="Helvetica,sans-Serif" font-size="10.00" fill="#000000">+ ~WindowFiller()</text>
<text text-anchor="start" x="710.5" y="-260.5" font-family="Helvetica,sans-Serif" font-size="10.00" fill="#000000">+ initObj()</text>
<text text-anchor="start" x="710.5" y="-249.5" font-family="Helvetica,sans-Serif" font-size="10.00" fill="#000000">+ reset()</text>
<text text-anchor="start" x="710.5" y="-238.5" font-family="Helvetica,sans-Serif" font-size="10.00" fill="#000000">+ getCurrentReadoutWindow()</text>
<text text-anchor="start" x="710.5" y="-227.5" font-family="Helvetica,sans-Serif" font-size="10.00" fill="#000000">+ setCurrentReadoutWindow()</text>
<text text-anchor="start" x="710.5" y="-216.5" font-family="Helvetica,sans-Serif" font-size="10.00" fill="#000000">+ setEventTime()</text>
<text text-anchor="start" x="710.5" y="-205.5" font-family="Helvetica,sans-Serif" font-size="10.00" fill="#000000">+ getDigitPerTimeFrame()</text>
<text text-anchor="start" x="710.5" y="-194.5" font-family="Helvetica,sans-Serif" font-size="10.00" fill="#000000">+ getReadoutWindowData()</text>
<text text-anchor="start" x="710.5" y="-183.5" font-family="Helvetica,sans-Serif" font-size="10.00" fill="#000000">+ getReadoutWindowDataFiltered()</text>
<text text-anchor="start" x="710.5" y="-172.5" font-family="Helvetica,sans-Serif" font-size="10.00" fill="#000000">+ fillOutputContainer()</text>
<text text-anchor="start" x="710.5" y="-161.5" font-family="Helvetica,sans-Serif" font-size="10.00" fill="#000000">+ flushOutputContainer()</text>
<text text-anchor="start" x="710.5" y="-150.5" font-family="Helvetica,sans-Serif" font-size="10.00" fill="#000000">+ setContinuous()</text>
<text text-anchor="start" x="710.5" y="-139.5" font-family="Helvetica,sans-Serif" font-size="10.00" fill="#000000">+ isContinuous()</text>
<text text-anchor="start" x="710.5" y="-128.5" font-family="Helvetica,sans-Serif" font-size="10.00" fill="#000000">+ resizeVectorFutureDigit()</text>
<text text-anchor="start" x="710.5" y="-117.5" font-family="Helvetica,sans-Serif" font-size="10.00" fill="#000000">+ setFirstIR()</text>
<text text-anchor="start" x="710.5" y="-106.5" font-family="Helvetica,sans-Serif" font-size="10.00" fill="#000000">+ maskNoiseRate()</text>
<text text-anchor="start" x="710.5" y="-95.5" font-family="Helvetica,sans-Serif" font-size="10.00" fill="#000000">+ clearCounts()</text>
<text text-anchor="start" x="710.5" y="-84.5" font-family="Helvetica,sans-Serif" font-size="10.00" fill="#000000">+ getPatterns()</text>
<text text-anchor="start" x="710.5" y="-73.5" font-family="Helvetica,sans-Serif" font-size="10.00" fill="#000000">+ addPattern()</text>
<text text-anchor="start" x="710.5" y="-62.5" font-family="Helvetica,sans-Serif" font-size="10.00" fill="#000000"># fillDigitsInStrip()</text>
<text text-anchor="start" x="710.5" y="-51.5" font-family="Helvetica,sans-Serif" font-size="10.00" fill="#000000"># checkIfReuseFutureDigits()</text>
<text text-anchor="start" x="710.5" y="-40.5" font-family="Helvetica,sans-Serif" font-size="10.00" fill="#000000"># checkIfReuseFutureDigitsRO()</text>
<text text-anchor="start" x="710.5" y="-29.5" font-family="Helvetica,sans-Serif" font-size="10.00" fill="#000000"># insertDigitInFuture()</text>
<text text-anchor="start" x="710.5" y="-18.5" font-family="Helvetica,sans-Serif" font-size="10.00" fill="#000000"># isMergable()</text>
<text text-anchor="start" x="710.5" y="-7.5" font-family="Helvetica,sans-Serif" font-size="10.00" fill="#000000"># ClassDefNV()</text>
</g>
<!-- Node4 -->
<g id="node2" class="node">
<title>Node4</title>
<polygon fill="none" stroke="#bfbfbf" points="0,-485 0,-542 138,-542 138,-485 0,-485"/>
<text text-anchor="middle" x="69" y="-530" font-family="Helvetica,sans-Serif" font-size="10.00" fill="#000000">vector&lt; o2::tof::Strip &gt; *</text>
<polyline fill="none" stroke="#bfbfbf" points="0,-523 138,-523 "/>
<text text-anchor="middle" x="69" y="-511" font-family="Helvetica,sans-Serif" font-size="10.00" fill="#000000"> </text>
<polyline fill="none" stroke="#bfbfbf" points="0,-504 138,-504 "/>
<text text-anchor="middle" x="69" y="-492" font-family="Helvetica,sans-Serif" font-size="10.00" fill="#000000"> </text>
</g>
<!-- Node4&#45;&gt;Node3 -->
<g id="edge1" class="edge">
<title>Node4&#45;&gt;Node3</title>
<path fill="none" stroke="#404040" d="M74.8755,-484.963C83.8621,-448.5485 104.5314,-386.0868 146,-351 228.404,-281.2775 527.9858,-216.578 690.4658,-185.6209"/>
<polygon fill="none" stroke="#404040" points="690.6105,-185.5935 695.7614,-180.5469 702.4009,-183.3606 697.25,-188.4072 690.6105,-185.5935"/>
<text text-anchor="middle" x="187" y="-370.5" font-family="Helvetica,sans-Serif" font-size="10.00" fill="#000000"> #mStripsNext</text>
<text text-anchor="middle" x="187" y="-359.5" font-family="Helvetica,sans-Serif" font-size="10.00" fill="#000000">#mStripsCurrent</text>
</g>
<!-- Node5 -->
<g id="node3" class="node">
<title>Node5</title>
<g id="a_node3"><a xlink:href="../../d1/d21/structo2_1_1InteractionRecord.html" target="_top" xlink:title="{o2::InteractionRecord\n||+ InteractionRecord()\l+ InteractionRecord()\l+ InteractionRecord()\l+ InteractionRecord()\l+ clear()\l+ isDummy()\l+ setFromNS()\l+ bc2ns()\l+ operator==()\l+ operator!=()\l+ differenceInBC()\l+ differenceInBCNS()\l+ differenceInBCMS()\l+ toLong()\l+ setFromLong()\l+ operator\&gt;()\l+ operator\&gt;=()\l+ operator\&lt;()\l+ operator\&lt;=()\l+ operator&#45;&#45;()\l+ operator&#45;&#45;()\l+ operator++()\l+ operator++()\l+ operator+=()\l+ operator&#45;=()\l+ operator+=()\l+ operator&#45;=()\l+ operator+()\l+ operator&#45;()\l+ operator+()\l+ operator&#45;()\l+ print()\l+ asString()\l+ ClassDefNV()\l+ bc2ns()\l+ ns2bc()\l}">
<polygon fill="none" stroke="#000000" points="277.5,-662.5 277.5,-1104.5 398.5,-1104.5 398.5,-662.5 277.5,-662.5"/>
<text text-anchor="middle" x="338" y="-1092.5" font-family="Helvetica,sans-Serif" font-size="10.00" fill="#000000">o2::InteractionRecord</text>
<polyline fill="none" stroke="#000000" points="277.5,-1085.5 398.5,-1085.5 "/>
<text text-anchor="middle" x="338" y="-1073.5" font-family="Helvetica,sans-Serif" font-size="10.00" fill="#000000"> </text>
<polyline fill="none" stroke="#000000" points="277.5,-1066.5 398.5,-1066.5 "/>
<text text-anchor="start" x="285.5" y="-1054.5" font-family="Helvetica,sans-Serif" font-size="10.00" fill="#000000">+ InteractionRecord()</text>
<text text-anchor="start" x="285.5" y="-1043.5" font-family="Helvetica,sans-Serif" font-size="10.00" fill="#000000">+ InteractionRecord()</text>
<text text-anchor="start" x="285.5" y="-1032.5" font-family="Helvetica,sans-Serif" font-size="10.00" fill="#000000">+ InteractionRecord()</text>
<text text-anchor="start" x="285.5" y="-1021.5" font-family="Helvetica,sans-Serif" font-size="10.00" fill="#000000">+ InteractionRecord()</text>
<text text-anchor="start" x="285.5" y="-1010.5" font-family="Helvetica,sans-Serif" font-size="10.00" fill="#000000">+ clear()</text>
<text text-anchor="start" x="285.5" y="-999.5" font-family="Helvetica,sans-Serif" font-size="10.00" fill="#000000">+ isDummy()</text>
<text text-anchor="start" x="285.5" y="-988.5" font-family="Helvetica,sans-Serif" font-size="10.00" fill="#000000">+ setFromNS()</text>
<text text-anchor="start" x="285.5" y="-977.5" font-family="Helvetica,sans-Serif" font-size="10.00" fill="#000000">+ bc2ns()</text>
<text text-anchor="start" x="285.5" y="-966.5" font-family="Helvetica,sans-Serif" font-size="10.00" fill="#000000">+ operator==()</text>
<text text-anchor="start" x="285.5" y="-955.5" font-family="Helvetica,sans-Serif" font-size="10.00" fill="#000000">+ operator!=()</text>
<text text-anchor="start" x="285.5" y="-944.5" font-family="Helvetica,sans-Serif" font-size="10.00" fill="#000000">+ differenceInBC()</text>
<text text-anchor="start" x="285.5" y="-933.5" font-family="Helvetica,sans-Serif" font-size="10.00" fill="#000000">+ differenceInBCNS()</text>
<text text-anchor="start" x="285.5" y="-922.5" font-family="Helvetica,sans-Serif" font-size="10.00" fill="#000000">+ differenceInBCMS()</text>
<text text-anchor="start" x="285.5" y="-911.5" font-family="Helvetica,sans-Serif" font-size="10.00" fill="#000000">+ toLong()</text>
<text text-anchor="start" x="285.5" y="-900.5" font-family="Helvetica,sans-Serif" font-size="10.00" fill="#000000">+ setFromLong()</text>
<text text-anchor="start" x="285.5" y="-889.5" font-family="Helvetica,sans-Serif" font-size="10.00" fill="#000000">+ operator&gt;()</text>
<text text-anchor="start" x="285.5" y="-878.5" font-family="Helvetica,sans-Serif" font-size="10.00" fill="#000000">+ operator&gt;=()</text>
<text text-anchor="start" x="285.5" y="-867.5" font-family="Helvetica,sans-Serif" font-size="10.00" fill="#000000">+ operator&lt;()</text>
<text text-anchor="start" x="285.5" y="-856.5" font-family="Helvetica,sans-Serif" font-size="10.00" fill="#000000">+ operator&lt;=()</text>
<text text-anchor="start" x="285.5" y="-845.5" font-family="Helvetica,sans-Serif" font-size="10.00" fill="#000000">+ operator&#45;&#45;()</text>
<text text-anchor="start" x="285.5" y="-834.5" font-family="Helvetica,sans-Serif" font-size="10.00" fill="#000000">+ operator&#45;&#45;()</text>
<text text-anchor="start" x="285.5" y="-823.5" font-family="Helvetica,sans-Serif" font-size="10.00" fill="#000000">+ operator++()</text>
<text text-anchor="start" x="285.5" y="-812.5" font-family="Helvetica,sans-Serif" font-size="10.00" fill="#000000">+ operator++()</text>
<text text-anchor="start" x="285.5" y="-801.5" font-family="Helvetica,sans-Serif" font-size="10.00" fill="#000000">+ operator+=()</text>
<text text-anchor="start" x="285.5" y="-790.5" font-family="Helvetica,sans-Serif" font-size="10.00" fill="#000000">+ operator&#45;=()</text>
<text text-anchor="start" x="285.5" y="-779.5" font-family="Helvetica,sans-Serif" font-size="10.00" fill="#000000">+ operator+=()</text>
<text text-anchor="start" x="285.5" y="-768.5" font-family="Helvetica,sans-Serif" font-size="10.00" fill="#000000">+ operator&#45;=()</text>
<text text-anchor="start" x="285.5" y="-757.5" font-family="Helvetica,sans-Serif" font-size="10.00" fill="#000000">+ operator+()</text>
<text text-anchor="start" x="285.5" y="-746.5" font-family="Helvetica,sans-Serif" font-size="10.00" fill="#000000">+ operator&#45;()</text>
<text text-anchor="start" x="285.5" y="-735.5" font-family="Helvetica,sans-Serif" font-size="10.00" fill="#000000">+ operator+()</text>
<text text-anchor="start" x="285.5" y="-724.5" font-family="Helvetica,sans-Serif" font-size="10.00" fill="#000000">+ operator&#45;()</text>
<text text-anchor="start" x="285.5" y="-713.5" font-family="Helvetica,sans-Serif" font-size="10.00" fill="#000000">+ print()</text>
<text text-anchor="start" x="285.5" y="-702.5" font-family="Helvetica,sans-Serif" font-size="10.00" fill="#000000">+ asString()</text>
<text text-anchor="start" x="285.5" y="-691.5" font-family="Helvetica,sans-Serif" font-size="10.00" fill="#000000">+ ClassDefNV()</text>
<text text-anchor="start" x="285.5" y="-680.5" font-family="Helvetica,sans-Serif" font-size="10.00" fill="#000000">+ bc2ns()</text>
<text text-anchor="start" x="285.5" y="-669.5" font-family="Helvetica,sans-Serif" font-size="10.00" fill="#000000">+ ns2bc()</text>
</a>
</g>
</g>
<!-- Node5&#45;&gt;Node3 -->
<g id="edge2" class="edge">
<title>Node5&#45;&gt;Node3</title>
<path fill="none" stroke="#404040" d="M320.8096,-662.458C316.8617,-557.4547 320.1004,-445.5148 347,-402 422.1899,-280.3671 582.7004,-218.3329 690.2605,-189.199"/>
<polygon fill="none" stroke="#404040" points="690.5255,-189.129 695.3029,-183.7275 702.1264,-186.0599 697.349,-191.4614 690.5255,-189.129"/>
<text text-anchor="middle" x="373" y="-511" font-family="Helvetica,sans-Serif" font-size="10.00" fill="#000000"> #mFirstIR</text>
</g>
<!-- Node19 -->
<g id="node17" class="node">
<title>Node19</title>
<g id="a_node17"><a xlink:href="../../d8/d98/structo2_1_1InteractionTimeRecord.html" target="_top" xlink:title="{o2::InteractionTimeRecord\n||+ InteractionTimeRecord()\l+ InteractionTimeRecord()\l+ InteractionTimeRecord()\l+ setFromNS()\l+ clear()\l+ getTimeOffsetWrtBC()\l+ getTimeNS()\l+ operator==()\l+ operator!=()\l+ operator\&gt;()\l+ operator\&gt;=()\l+ operator\&lt;()\l+ operator\&lt;=()\l+ print()\l+ asString()\l+ ClassDefNV()\l}">
<polygon fill="none" stroke="#000000" points="156,-402.5 156,-624.5 302,-624.5 302,-402.5 156,-402.5"/>
<text text-anchor="middle" x="229" y="-612.5" font-family="Helvetica,sans-Serif" font-size="10.00" fill="#000000">o2::InteractionTimeRecord</text>
<polyline fill="none" stroke="#000000" points="156,-605.5 302,-605.5 "/>
<text text-anchor="middle" x="229" y="-593.5" font-family="Helvetica,sans-Serif" font-size="10.00" fill="#000000"> </text>
<polyline fill="none" stroke="#000000" points="156,-586.5 302,-586.5 "/>
<text text-anchor="start" x="164" y="-574.5" font-family="Helvetica,sans-Serif" font-size="10.00" fill="#000000">+ InteractionTimeRecord()</text>
<text text-anchor="start" x="164" y="-563.5" font-family="Helvetica,sans-Serif" font-size="10.00" fill="#000000">+ InteractionTimeRecord()</text>
<text text-anchor="start" x="164" y="-552.5" font-family="Helvetica,sans-Serif" font-size="10.00" fill="#000000">+ InteractionTimeRecord()</text>
<text text-anchor="start" x="164" y="-541.5" font-family="Helvetica,sans-Serif" font-size="10.00" fill="#000000">+ setFromNS()</text>
<text text-anchor="start" x="164" y="-530.5" font-family="Helvetica,sans-Serif" font-size="10.00" fill="#000000">+ clear()</text>
<text text-anchor="start" x="164" y="-519.5" font-family="Helvetica,sans-Serif" font-size="10.00" fill="#000000">+ getTimeOffsetWrtBC()</text>
<text text-anchor="start" x="164" y="-508.5" font-family="Helvetica,sans-Serif" font-size="10.00" fill="#000000">+ getTimeNS()</text>
<text text-anchor="start" x="164" y="-497.5" font-family="Helvetica,sans-Serif" font-size="10.00" fill="#000000">+ operator==()</text>
<text text-anchor="start" x="164" y="-486.5" font-family="Helvetica,sans-Serif" font-size="10.00" fill="#000000">+ operator!=()</text>
<text text-anchor="start" x="164" y="-475.5" font-family="Helvetica,sans-Serif" font-size="10.00" fill="#000000">+ operator&gt;()</text>
<text text-anchor="start" x="164" y="-464.5" font-family="Helvetica,sans-Serif" font-size="10.00" fill="#000000">+ operator&gt;=()</text>
<text text-anchor="start" x="164" y="-453.5" font-family="Helvetica,sans-Serif" font-size="10.00" fill="#000000">+ operator&lt;()</text>
<text text-anchor="start" x="164" y="-442.5" font-family="Helvetica,sans-Serif" font-size="10.00" fill="#000000">+ operator&lt;=()</text>
<text text-anchor="start" x="164" y="-431.5" font-family="Helvetica,sans-Serif" font-size="10.00" fill="#000000">+ print()</text>
<text text-anchor="start" x="164" y="-420.5" font-family="Helvetica,sans-Serif" font-size="10.00" fill="#000000">+ asString()</text>
<text text-anchor="start" x="164" y="-409.5" font-family="Helvetica,sans-Serif" font-size="10.00" fill="#000000">+ ClassDefNV()</text>
</a>
</g>
</g>
<!-- Node5&#45;&gt;Node19 -->
<g id="edge17" class="edge">
<title>Node5&#45;&gt;Node19</title>
<path fill="none" stroke="#191970" d="M274.5471,-668.1096C270.1548,-653.1998 265.8423,-638.5609 261.7278,-624.5945"/>
<polygon fill="none" stroke="#191970" points="271.2605,-669.3388 277.4438,-677.9421 277.9752,-667.3606 271.2605,-669.3388"/>
</g>
<!-- Node6 -->
<g id="node4" class="node">
<title>Node6</title>
<polygon fill="none" stroke="#bfbfbf" points="189,-1163.5 189,-1220.5 239,-1220.5 239,-1163.5 189,-1163.5"/>
<text text-anchor="middle" x="214" y="-1208.5" font-family="Helvetica,sans-Serif" font-size="10.00" fill="#000000">double</text>
<polyline fill="none" stroke="#bfbfbf" points="189,-1201.5 239,-1201.5 "/>
<text text-anchor="middle" x="214" y="-1189.5" font-family="Helvetica,sans-Serif" font-size="10.00" fill="#000000"> </text>
<polyline fill="none" stroke="#bfbfbf" points="189,-1182.5 239,-1182.5 "/>
<text text-anchor="middle" x="214" y="-1170.5" font-family="Helvetica,sans-Serif" font-size="10.00" fill="#000000"> </text>
</g>
<!-- Node6&#45;&gt;Node5 -->
<g id="edge3" class="edge">
<title>Node6&#45;&gt;Node5</title>
<path fill="none" stroke="#404040" d="M230.2739,-1163.2523C244.2664,-1138.5122 262.3113,-1106.5435 263,-1105 266.3734,-1097.44 269.6853,-1089.6791 272.924,-1081.7972"/>
<polygon fill="none" stroke="#404040" points="272.9597,-1081.7087 271.4973,-1074.6475 277.4529,-1070.5817 278.9153,-1077.6429 272.9597,-1081.7087"/>
<text text-anchor="middle" x="289" y="-1131.5" font-family="Helvetica,sans-Serif" font-size="10.00" fill="#000000"> +DummyTime</text>
</g>
<!-- Node6&#45;&gt;Node19 -->
<g id="edge18" class="edge">
<title>Node6&#45;&gt;Node19</title>
<path fill="none" stroke="#404040" d="M207.7546,-1163.1604C204.4228,-1146.2971 200.6728,-1124.5471 199,-1105 182.2125,-908.8281 179.4088,-857.9118 199,-662 199.8272,-653.7284 200.9073,-645.2357 202.1655,-636.7026"/>
<polygon fill="none" stroke="#404040" points="202.1992,-636.4863 199.1752,-629.9399 204.0549,-624.6306 207.079,-631.177 202.1992,-636.4863"/>
<text text-anchor="middle" x="234" y="-881" font-family="Helvetica,sans-Serif" font-size="10.00" fill="#000000"> +timeInBCNS</text>
</g>
<!-- Node7 -->
<g id="node5" class="node">
<title>Node7</title>
<polygon fill="none" stroke="#bfbfbf" points="305,-1163.5 305,-1220.5 361,-1220.5 361,-1163.5 305,-1163.5"/>
<text text-anchor="middle" x="333" y="-1208.5" font-family="Helvetica,sans-Serif" font-size="10.00" fill="#000000">uint16_t</text>
<polyline fill="none" stroke="#bfbfbf" points="305,-1201.5 361,-1201.5 "/>
<text text-anchor="middle" x="333" y="-1189.5" font-family="Helvetica,sans-Serif" font-size="10.00" fill="#000000"> </text>
<polyline fill="none" stroke="#bfbfbf" points="305,-1182.5 361,-1182.5 "/>
<text text-anchor="middle" x="333" y="-1170.5" font-family="Helvetica,sans-Serif" font-size="10.00" fill="#000000"> </text>
</g>
<!-- Node7&#45;&gt;Node5 -->
<g id="edge4" class="edge">
<title>Node7&#45;&gt;Node5</title>
<path fill="none" stroke="#404040" d="M333.3994,-1163.4647C333.5771,-1151.0349 333.7926,-1136.2967 334,-1123 334.0323,-1120.9275 334.0649,-1118.8448 334.0977,-1116.7533"/>
<polygon fill="none" stroke="#404040" points="334.0987,-1116.6839 330.1939,-1110.6215 334.2881,-1104.6854 338.1929,-1110.7477 334.0987,-1116.6839"/>
<text text-anchor="middle" x="366" y="-1137" font-family="Helvetica,sans-Serif" font-size="10.00" fill="#000000"> +DummyBC</text>
<text text-anchor="middle" x="366" y="-1126" font-family="Helvetica,sans-Serif" font-size="10.00" fill="#000000">+bc</text>
</g>
<!-- Node8 -->
<g id="node6" class="node">
<title>Node8</title>
<g id="a_node6"><a xlink:href="../../d3/d87/classuint32__t.html" target="_top" xlink:title="{uint32_t\n||}">
<polygon fill="none" stroke="#000000" points="392,-1163.5 392,-1220.5 448,-1220.5 448,-1163.5 392,-1163.5"/>
<text text-anchor="middle" x="420" y="-1208.5" font-family="Helvetica,sans-Serif" font-size="10.00" fill="#000000">uint32_t</text>
<polyline fill="none" stroke="#000000" points="392,-1201.5 448,-1201.5 "/>
<text text-anchor="middle" x="420" y="-1189.5" font-family="Helvetica,sans-Serif" font-size="10.00" fill="#000000"> </text>
<polyline fill="none" stroke="#000000" points="392,-1182.5 448,-1182.5 "/>
<text text-anchor="middle" x="420" y="-1170.5" font-family="Helvetica,sans-Serif" font-size="10.00" fill="#000000"> </text>
</a>
</g>
</g>
<!-- Node8&#45;&gt;Node5 -->
<g id="edge5" class="edge">
<title>Node8&#45;&gt;Node5</title>
<path fill="none" stroke="#404040" d="M412.3593,-1163.2541C409.0004,-1150.6172 404.7254,-1134.5338 399.9281,-1116.4855"/>
<polygon fill="none" stroke="#404040" points="399.8739,-1116.2815 394.4668,-1111.5104 396.7912,-1104.6841 402.1984,-1109.4553 399.8739,-1116.2815"/>
<text text-anchor="middle" x="442" y="-1137" font-family="Helvetica,sans-Serif" font-size="10.00" fill="#000000"> +orbit</text>
<text text-anchor="middle" x="442" y="-1126" font-family="Helvetica,sans-Serif" font-size="10.00" fill="#000000">+DummyOrbit</text>
</g>
<!-- Node9 -->
<g id="node7" class="node">
<title>Node9</title>
<g id="a_node7"><a xlink:href="../../d6/d30/classuint64__t.html" target="_top" xlink:title="{uint64_t\n||}">
<polygon fill="none" stroke="#000000" points="408,-485 408,-542 464,-542 464,-485 408,-485"/>
<text text-anchor="middle" x="436" y="-530" font-family="Helvetica,sans-Serif" font-size="10.00" fill="#000000">uint64_t</text>
<polyline fill="none" stroke="#000000" points="408,-523 464,-523 "/>
<text text-anchor="middle" x="436" y="-511" font-family="Helvetica,sans-Serif" font-size="10.00" fill="#000000"> </text>
<polyline fill="none" stroke="#000000" points="408,-504 464,-504 "/>
<text text-anchor="middle" x="436" y="-492" font-family="Helvetica,sans-Serif" font-size="10.00" fill="#000000"> </text>
</a>
</g>
</g>
<!-- Node9&#45;&gt;Node3 -->
<g id="edge6" class="edge">
<title>Node9&#45;&gt;Node3</title>
<path fill="none" stroke="#404040" d="M435.5607,-484.7968C436.4409,-449.8968 442.6405,-390.7436 472,-351 526.067,-277.8101 618.4358,-229.4391 690.9127,-200.6599"/>
<polygon fill="none" stroke="#404040" points="691.1803,-200.556 695.3235,-194.6539 702.3651,-196.2084 698.2218,-202.1105 691.1803,-200.556"/>
<text text-anchor="middle" x="540" y="-365" font-family="Helvetica,sans-Serif" font-size="10.00" fill="#000000"> #mReadoutWindowCurrent</text>
</g>
<!-- Node10 -->
<g id="node8" class="node">
<title>Node10</title>
<polygon fill="none" stroke="#bfbfbf" points="482,-479.5 482,-547.5 640,-547.5 640,-479.5 482,-479.5"/>
<text text-anchor="start" x="490" y="-535.5" font-family="Helvetica,sans-Serif" font-size="10.00" fill="#000000">vector&lt; o2::tof::WindowFiller</text>
<text text-anchor="middle" x="561" y="-524.5" font-family="Helvetica,sans-Serif" font-size="10.00" fill="#000000">::PatternData &gt;</text>
<polyline fill="none" stroke="#bfbfbf" points="482,-517.5 640,-517.5 "/>
<text text-anchor="middle" x="561" y="-505.5" font-family="Helvetica,sans-Serif" font-size="10.00" fill="#000000"> </text>
<polyline fill="none" stroke="#bfbfbf" points="482,-498.5 640,-498.5 "/>
<text text-anchor="middle" x="561" y="-486.5" font-family="Helvetica,sans-Serif" font-size="10.00" fill="#000000"> </text>
</g>
<!-- Node10&#45;&gt;Node3 -->
<g id="edge7" class="edge">
<title>Node10&#45;&gt;Node3</title>
<path fill="none" stroke="#404040" d="M571.4199,-479.4915C582.7119,-445.4233 602.6991,-392.2623 629,-351 647.538,-321.9166 670.7937,-293.0786 694.04,-267.1463"/>
<polygon fill="none" stroke="#404040" points="694.1878,-266.9835 695.2597,-259.8525 702.2544,-258.0992 701.1825,-265.2302 694.1878,-266.9835"/>
<text text-anchor="middle" x="673" y="-365" font-family="Helvetica,sans-Serif" font-size="10.00" fill="#000000"> #mCratePatterns</text>
</g>
<!-- Node11 -->
<g id="node9" class="node">
<title>Node11</title>
<polygon fill="none" stroke="#bfbfbf" points="658,-485 658,-542 788,-542 788,-485 658,-485"/>
<text text-anchor="middle" x="723" y="-530" font-family="Helvetica,sans-Serif" font-size="10.00" fill="#000000">vector&lt; o2::tof::Strip &gt;</text>
<polyline fill="none" stroke="#bfbfbf" points="658,-523 788,-523 "/>
<text text-anchor="middle" x="723" y="-511" font-family="Helvetica,sans-Serif" font-size="10.00" fill="#000000"> </text>
<polyline fill="none" stroke="#bfbfbf" points="658,-504 788,-504 "/>
<text text-anchor="middle" x="723" y="-492" font-family="Helvetica,sans-Serif" font-size="10.00" fill="#000000"> </text>
</g>
<!-- Node11&#45;&gt;Node3 -->
<g id="edge8" class="edge">
<title>Node11&#45;&gt;Node3</title>
<path fill="none" stroke="#404040" d="M720.541,-484.7096C718.4332,-451.9792 716.9932,-397.1092 726,-351 726.4256,-348.821 726.8751,-346.6344 727.3469,-344.4418"/>
<polygon fill="none" stroke="#404040" points="727.3657,-344.3604 724.8234,-337.6123 730.0747,-332.6702 732.6169,-339.4183 727.3657,-344.3604"/>
<text text-anchor="middle" x="750.5" y="-365" font-family="Helvetica,sans-Serif" font-size="10.00" fill="#000000"> #mStrips</text>
</g>
<!-- Node12 -->
<g id="node10" class="node">
<title>Node12</title>
<polygon fill="none" stroke="#bfbfbf" points="806,-479.5 806,-547.5 942,-547.5 942,-479.5 806,-479.5"/>
<text text-anchor="start" x="814" y="-535.5" font-family="Helvetica,sans-Serif" font-size="10.00" fill="#000000">vector&lt; o2::tof::Readout</text>
<text text-anchor="middle" x="874" y="-524.5" font-family="Helvetica,sans-Serif" font-size="10.00" fill="#000000">WindowData &gt;</text>
<polyline fill="none" stroke="#bfbfbf" points="806,-517.5 942,-517.5 "/>
<text text-anchor="middle" x="874" y="-505.5" font-family="Helvetica,sans-Serif" font-size="10.00" fill="#000000"> </text>
<polyline fill="none" stroke="#bfbfbf" points="806,-498.5 942,-498.5 "/>
<text text-anchor="middle" x="874" y="-486.5" font-family="Helvetica,sans-Serif" font-size="10.00" fill="#000000"> </text>
</g>
<!-- Node12&#45;&gt;Node3 -->
<g id="edge9" class="edge">
<title>Node12&#45;&gt;Node3</title>
<path fill="none" stroke="#404040" d="M847.0826,-479.2416C829.3209,-454.3734 807.6176,-419.0706 798,-384 794.5402,-371.3837 791.9985,-358.1989 790.1898,-344.8303"/>
<polygon fill="none" stroke="#404040" points="790.1423,-344.429 785.4637,-338.9417 788.7295,-332.5125 793.4081,-337.9998 790.1423,-344.429"/>
<text text-anchor="middle" x="878" y="-370.5" font-family="Helvetica,sans-Serif" font-size="10.00" fill="#000000"> #mReadoutWindowDataFiltered</text>
<text text-anchor="middle" x="878" y="-359.5" font-family="Helvetica,sans-Serif" font-size="10.00" fill="#000000">#mReadoutWindowData</text>
</g>
<!-- Node13 -->
<g id="node11" class="node">
<title>Node13</title>
<polygon fill="none" stroke="#bfbfbf" points="960.5,-485 960.5,-542 1091.5,-542 1091.5,-485 960.5,-485"/>
<text text-anchor="middle" x="1026" y="-530" font-family="Helvetica,sans-Serif" font-size="10.00" fill="#000000">vector&lt; o2::tof::Digit &gt;</text>
<polyline fill="none" stroke="#bfbfbf" points="960.5,-523 1091.5,-523 "/>
<text text-anchor="middle" x="1026" y="-511" font-family="Helvetica,sans-Serif" font-size="10.00" fill="#000000"> </text>
<polyline fill="none" stroke="#bfbfbf" points="960.5,-504 1091.5,-504 "/>
<text text-anchor="middle" x="1026" y="-492" font-family="Helvetica,sans-Serif" font-size="10.00" fill="#000000"> </text>
</g>
<!-- Node13&#45;&gt;Node3 -->
<g id="edge10" class="edge">
<title>Node13&#45;&gt;Node3</title>
<path fill="none" stroke="#404040" d="M1017.1442,-484.8566C1006.079,-451.3037 985.2373,-394.7446 958,-351 941.2632,-324.1198 920.6364,-297.2626 899.7999,-272.6907"/>
<polygon fill="none" stroke="#404040" points="899.6302,-272.4931 892.6865,-270.5477 891.8115,-263.3898 898.7553,-265.3352 899.6302,-272.4931"/>
<text text-anchor="middle" x="1033" y="-370.5" font-family="Helvetica,sans-Serif" font-size="10.00" fill="#000000"> #mFutureDigits</text>
<text text-anchor="middle" x="1033" y="-359.5" font-family="Helvetica,sans-Serif" font-size="10.00" fill="#000000">#mDigitsPerTimeFrame</text>
</g>
<!-- Node14 -->
<g id="node12" class="node">
<title>Node14</title>
<polygon fill="none" stroke="#bfbfbf" points="1109.5,-485 1109.5,-542 1138.5,-542 1138.5,-485 1109.5,-485"/>
<text text-anchor="middle" x="1124" y="-530" font-family="Helvetica,sans-Serif" font-size="10.00" fill="#000000">int</text>
<polyline fill="none" stroke="#bfbfbf" points="1109.5,-523 1138.5,-523 "/>
<text text-anchor="middle" x="1124" y="-511" font-family="Helvetica,sans-Serif" font-size="10.00" fill="#000000"> </text>
<polyline fill="none" stroke="#bfbfbf" points="1109.5,-504 1138.5,-504 "/>
<text text-anchor="middle" x="1124" y="-492" font-family="Helvetica,sans-Serif" font-size="10.00" fill="#000000"> </text>
</g>
<!-- Node14&#45;&gt;Node3 -->
<g id="edge11" class="edge">
<title>Node14&#45;&gt;Node3</title>
<path fill="none" stroke="#404040" d="M1125.8618,-484.7625C1126.6753,-450.0949 1123.3293,-391.4416 1096,-351 1049.8322,-282.6815 969.0509,-235.069 903.0843,-205.3445"/>
<polygon fill="none" stroke="#404040" points="902.7734,-205.2074 895.6694,-206.4459 891.7939,-200.3648 898.8978,-199.1263 902.7734,-205.2074"/>
<text text-anchor="middle" x="1178.5" y="-376" font-family="Helvetica,sans-Serif" font-size="10.00" fill="#000000"> #mMaskNoiseRate</text>
<text text-anchor="middle" x="1178.5" y="-365" font-family="Helvetica,sans-Serif" font-size="10.00" fill="#000000">#mIcurrentReadoutWindow</text>
<text text-anchor="middle" x="1178.5" y="-354" font-family="Helvetica,sans-Serif" font-size="10.00" fill="#000000">#mChannelCounts</text>
</g>
<!-- Node15 -->
<g id="node13" class="node">
<title>Node15</title>
<polygon fill="none" stroke="#bfbfbf" points="1220,-485 1220,-542 1330,-542 1330,-485 1220,-485"/>
<text text-anchor="middle" x="1275" y="-530" font-family="Helvetica,sans-Serif" font-size="10.00" fill="#000000">vector&lt; uint32_t &gt;</text>
<polyline fill="none" stroke="#bfbfbf" points="1220,-523 1330,-523 "/>
<text text-anchor="middle" x="1275" y="-511" font-family="Helvetica,sans-Serif" font-size="10.00" fill="#000000"> </text>
<polyline fill="none" stroke="#bfbfbf" points="1220,-504 1330,-504 "/>
<text text-anchor="middle" x="1275" y="-492" font-family="Helvetica,sans-Serif" font-size="10.00" fill="#000000"> </text>
</g>
<!-- Node15&#45;&gt;Node3 -->
<g id="edge12" class="edge">
<title>Node15&#45;&gt;Node3</title>
<path fill="none" stroke="#404040" d="M1278.5181,-484.9403C1281.2508,-449.6421 1280.4234,-389.5325 1250,-351 1165.5082,-243.9877 1008.8037,-198.6331 903.7063,-179.6892"/>
<polygon fill="none" stroke="#404040" points="903.6143,-179.6733 897.017,-182.5847 891.7921,-177.6146 898.3894,-174.7033 903.6143,-179.6733"/>
<text text-anchor="middle" x="1297.5" y="-365" font-family="Helvetica,sans-Serif" font-size="10.00" fill="#000000"> #mPatterns</text>
</g>
<!-- Node16 -->
<g id="node14" class="node">
<title>Node16</title>
<polygon fill="none" stroke="#bfbfbf" points="1348,-485 1348,-542 1386,-542 1386,-485 1348,-485"/>
<text text-anchor="middle" x="1367" y="-530" font-family="Helvetica,sans-Serif" font-size="10.00" fill="#000000">bool</text>
<polyline fill="none" stroke="#bfbfbf" points="1348,-523 1386,-523 "/>
<text text-anchor="middle" x="1367" y="-511" font-family="Helvetica,sans-Serif" font-size="10.00" fill="#000000"> </text>
<polyline fill="none" stroke="#bfbfbf" points="1348,-504 1386,-504 "/>
<text text-anchor="middle" x="1367" y="-492" font-family="Helvetica,sans-Serif" font-size="10.00" fill="#000000"> </text>
</g>
<!-- Node16&#45;&gt;Node3 -->
<g id="edge13" class="edge">
<title>Node16&#45;&gt;Node3</title>
<path fill="none" stroke="#404040" d="M1368.7996,-484.8016C1369.4369,-449.0802 1365.0277,-388.2473 1332,-351 1274.5205,-286.1769 1042.3307,-223.1058 903.4277,-190.1372"/>
<polygon fill="none" stroke="#404040" points="903.2067,-190.0851 896.449,-192.6018 891.5268,-187.3319 898.2845,-184.8152 903.2067,-190.0851"/>
<text text-anchor="middle" x="1404" y="-370.5" font-family="Helvetica,sans-Serif" font-size="10.00" fill="#000000"> #mFutureToBeSorted</text>
<text text-anchor="middle" x="1404" y="-359.5" font-family="Helvetica,sans-Serif" font-size="10.00" fill="#000000">#mContinuous</text>
</g>
<!-- Node17 -->
<g id="node15" class="node">
<title>Node17</title>
<polygon fill="none" stroke="#bfbfbf" points="1470,-485 1470,-542 1514,-542 1514,-485 1470,-485"/>
<text text-anchor="middle" x="1492" y="-530" font-family="Helvetica,sans-Serif" font-size="10.00" fill="#000000">static</text>
<polyline fill="none" stroke="#bfbfbf" points="1470,-523 1514,-523 "/>
<text text-anchor="middle" x="1492" y="-511" font-family="Helvetica,sans-Serif" font-size="10.00" fill="#000000"> </text>
<polyline fill="none" stroke="#bfbfbf" points="1470,-504 1514,-504 "/>
<text text-anchor="middle" x="1492" y="-492" font-family="Helvetica,sans-Serif" font-size="10.00" fill="#000000"> </text>
</g>
<!-- Node17&#45;&gt;Node3 -->
<g id="edge14" class="edge">
<title>Node17&#45;&gt;Node3</title>
<path fill="none" stroke="#404040" d="M1494.9502,-484.8586C1496.98,-448.9129 1494.6546,-387.553 1461,-351 1385.9032,-269.4357 1071.5315,-209.2709 903.6915,-182.2696"/>
<polygon fill="none" stroke="#404040" points="903.4691,-182.2342 896.9139,-185.2392 891.6189,-180.344 898.1741,-177.3391 903.4691,-182.2342"/>
<text text-anchor="middle" x="1521.5" y="-365" font-family="Helvetica,sans-Serif" font-size="10.00" fill="#000000"> #MAXWINDOWS</text>
</g>
<!-- Node18 -->
<g id="node16" class="node">
<title>Node18</title>
<polygon fill="none" stroke="#bfbfbf" points="1545,-485 1545,-542 1655,-542 1655,-485 1545,-485"/>
<text text-anchor="middle" x="1600" y="-530" font-family="Helvetica,sans-Serif" font-size="10.00" fill="#000000">vector&lt; uint64_t &gt;</text>
<polyline fill="none" stroke="#bfbfbf" points="1545,-523 1655,-523 "/>
<text text-anchor="middle" x="1600" y="-511" font-family="Helvetica,sans-Serif" font-size="10.00" fill="#000000"> </text>
<polyline fill="none" stroke="#bfbfbf" points="1545,-504 1655,-504 "/>
<text text-anchor="middle" x="1600" y="-492" font-family="Helvetica,sans-Serif" font-size="10.00" fill="#000000"> </text>
</g>
<!-- Node18&#45;&gt;Node3 -->
<g id="edge15" class="edge">
<title>Node18&#45;&gt;Node3</title>
<path fill="none" stroke="#404040" d="M1602.9381,-484.9588C1604.9703,-448.8316 1602.5552,-386.9819 1568,-351 1477.0468,-256.2915 1093.3475,-200.2663 903.8301,-177.8744"/>
<polygon fill="none" stroke="#404040" points="903.5517,-177.842 897.1277,-181.118 891.6329,-176.4481 898.057,-173.1721 903.5517,-177.842"/>
<text text-anchor="middle" x="1612" y="-365" font-family="Helvetica,sans-Serif" font-size="10.00" fill="#000000"> #mErrors</text>
</g>
<!-- Node19&#45;&gt;Node3 -->
<g id="edge16" class="edge">
<title>Node19&#45;&gt;Node3</title>
<path fill="none" stroke="#404040" d="M226.7631,-402.241C230.8211,-383.6179 238.0025,-365.6256 250,-351 306.4538,-282.1798 547.9222,-220.0353 690.4719,-188.4364"/>
<polygon fill="none" stroke="#404040" points="690.5336,-188.4229 695.534,-183.2271 702.2533,-185.8444 697.253,-191.0402 690.5336,-188.4229"/>
<text text-anchor="middle" x="287" y="-365" font-family="Helvetica,sans-Serif" font-size="10.00" fill="#000000"> #mEventTime</text>
</g>
</g>
</svg>
