<?xml version="1.0" encoding="UTF-8" standalone="no"?>
<!DOCTYPE svg PUBLIC "-//W3C//DTD SVG 1.1//EN"
 "http://www.w3.org/Graphics/SVG/1.1/DTD/svg11.dtd">
<!-- Generated by graphviz version 2.40.1 (20161225.0304)
 -->
<!-- Title: o2::trd::TRDFeeID Pages: 1 -->
<svg width="335pt" height="215pt"
 viewBox="0.00 0.00 335.00 215.00" xmlns="http://www.w3.org/2000/svg" xmlns:xlink="http://www.w3.org/1999/xlink">
<g id="graph0" class="graph" transform="scale(1 1) rotate(0) translate(4 211)">
<title>o2::trd::TRDFeeID</title>
<!-- Node1 -->
<g id="node1" class="node">
<title>Node1</title>
<polygon fill="#bfbfbf" stroke="#000000" points="97.5,-.5 97.5,-57.5 198.5,-57.5 198.5,-.5 97.5,-.5"/>
<text text-anchor="middle" x="148" y="-45.5" font-family="Helvetica,sans-Serif" font-size="10.00" fill="#000000">o2::trd::TRDFeeID</text>
<polyline fill="none" stroke="#000000" points="97.5,-38.5 198.5,-38.5 "/>
<text text-anchor="middle" x="148" y="-26.5" font-family="Helvetica,sans-Serif" font-size="10.00" fill="#000000"> </text>
<polyline fill="none" stroke="#000000" points="97.5,-19.5 198.5,-19.5 "/>
<text text-anchor="middle" x="148" y="-7.5" font-family="Helvetica,sans-Serif" font-size="10.00" fill="#000000"> </text>
</g>
<!-- Node2 -->
<g id="node2" class="node">
<title>Node2</title>
<polygon fill="none" stroke="#bfbfbf" points="0,-149.5 0,-206.5 56,-206.5 56,-149.5 0,-149.5"/>
<text text-anchor="middle" x="28" y="-194.5" font-family="Helvetica,sans-Serif" font-size="10.00" fill="#000000">uint16_t</text>
<polyline fill="none" stroke="#bfbfbf" points="0,-187.5 56,-187.5 "/>
<text text-anchor="middle" x="28" y="-175.5" font-family="Helvetica,sans-Serif" font-size="10.00" fill="#000000"> </text>
<polyline fill="none" stroke="#bfbfbf" points="0,-168.5 56,-168.5 "/>
<text text-anchor="middle" x="28" y="-156.5" font-family="Helvetica,sans-Serif" font-size="10.00" fill="#000000"> </text>
</g>
<!-- Node2&#45;&gt;Node1 -->
<g id="edge1" class="edge">
<title>Node2&#45;&gt;Node1</title>
<path fill="none" stroke="#404040" d="M50.1113,-149.1791C66.0068,-128.6158 88.0635,-100.3978 108,-76 110.3645,-73.1064 112.8271,-70.129 115.3172,-67.1442"/>
<polygon fill="none" stroke="#404040" points="115.5535,-66.8632 116.3545,-59.6967 123.2777,-57.6796 122.4768,-64.8462 115.5535,-66.8632"/>
<text text-anchor="middle" x="126" y="-101" font-family="Helvetica,sans-Serif" font-size="10.00" fill="#000000"> +word</text>
</g>
<!-- Node3 -->
<g id="node3" class="node">
<title>Node3</title>
<polygon fill="none" stroke="#bfbfbf" points="74,-149.5 74,-206.5 222,-206.5 222,-149.5 74,-149.5"/>
<text text-anchor="middle" x="148" y="-194.5" font-family="Helvetica,sans-Serif" font-size="10.00" fill="#000000">anonymous:+__attribute__</text>
<polyline fill="none" stroke="#bfbfbf" points="74,-187.5 222,-187.5 "/>
<text text-anchor="middle" x="148" y="-175.5" font-family="Helvetica,sans-Serif" font-size="10.00" fill="#000000"> </text>
<polyline fill="none" stroke="#bfbfbf" points="74,-168.5 222,-168.5 "/>
<text text-anchor="middle" x="148" y="-156.5" font-family="Helvetica,sans-Serif" font-size="10.00" fill="#000000"> </text>
</g>
<!-- Node3&#45;&gt;Node1 -->
<g id="edge2" class="edge">
<title>Node3&#45;&gt;Node1</title>
<path fill="none" stroke="#404040" d="M148,-149.2713C148,-126.7002 148,-94.9774 148,-69.7784"/>
<polygon fill="none" stroke="#404040" points="148.0001,-69.6405 144,-63.6405 148,-57.6405 152,-63.6405 148.0001,-69.6405"/>
<text text-anchor="middle" x="185.5" y="-101" font-family="Helvetica,sans-Serif" font-size="10.00" fill="#000000"> +__attribute__</text>
</g>
<!-- Node4 -->
<g id="node4" class="node">
<title>Node4</title>
<polygon fill="none" stroke="#bfbfbf" points="240,-149.5 240,-206.5 290,-206.5 290,-149.5 240,-149.5"/>
<text text-anchor="middle" x="265" y="-194.5" font-family="Helvetica,sans-Serif" font-size="10.00" fill="#000000">uint8_t</text>
<polyline fill="none" stroke="#bfbfbf" points="240,-187.5 290,-187.5 "/>
<text text-anchor="middle" x="265" y="-175.5" font-family="Helvetica,sans-Serif" font-size="10.00" fill="#000000"> </text>
<polyline fill="none" stroke="#bfbfbf" points="240,-168.5 290,-168.5 "/>
<text text-anchor="middle" x="265" y="-156.5" font-family="Helvetica,sans-Serif" font-size="10.00" fill="#000000"> </text>
</g>
<!-- Node4&#45;&gt;Node1 -->
<g id="edge3" class="edge">
<title>Node4&#45;&gt;Node1</title>
<path fill="none" stroke="#404040" d="M259.772,-149.4207C254.5501,-127.3813 244.676,-97.1842 227,-76 223.729,-72.0798 217.158,-67.1831 209.141,-62.043"/>
<polygon fill="none" stroke="#404040" points="209.0074,-61.9614 201.8018,-62.2443 198.7694,-55.7018 205.9749,-55.4189 209.0074,-61.9614"/>
<text text-anchor="middle" x="290.5" y="-123" font-family="Helvetica,sans-Serif" font-size="10.00" fill="#000000"> +side</text>
<text text-anchor="middle" x="290.5" y="-112" font-family="Helvetica,sans-Serif" font-size="10.00" fill="#000000">+endpoint</text>
<text text-anchor="middle" x="290.5" y="-101" font-family="Helvetica,sans-Serif" font-size="10.00" fill="#000000">+supermodule</text>
<text text-anchor="middle" x="290.5" y="-90" font-family="Helvetica,sans-Serif" font-size="10.00" fill="#000000">+unused1</text>
<text text-anchor="middle" x="290.5" y="-79" font-family="Helvetica,sans-Serif" font-size="10.00" fill="#000000">+unused2</text>
</g>
</g>
</svg>
