<?xml version="1.0" encoding="UTF-8" standalone="no"?>
<!DOCTYPE svg PUBLIC "-//W3C//DTD SVG 1.1//EN"
 "http://www.w3.org/Graphics/SVG/1.1/DTD/svg11.dtd">
<!-- Generated by graphviz version 2.40.1 (20161225.0304)
 -->
<!-- Title: o2::fv0::EventHeader Pages: 1 -->
<svg width="339pt" height="248pt"
 viewBox="0.00 0.00 338.50 248.00" xmlns="http://www.w3.org/2000/svg" xmlns:xlink="http://www.w3.org/1999/xlink">
<g id="graph0" class="graph" transform="scale(1 1) rotate(0) translate(4 244)">
<title>o2::fv0::EventHeader</title>
<!-- Node1 -->
<g id="node1" class="node">
<title>Node1</title>
<polygon fill="#bfbfbf" stroke="#000000" points="94,-.5 94,-57.5 213,-57.5 213,-.5 94,-.5"/>
<text text-anchor="middle" x="153.5" y="-45.5" font-family="Helvetica,sans-Serif" font-size="10.00" fill="#000000">o2::fv0::EventHeader</text>
<polyline fill="none" stroke="#000000" points="94,-38.5 213,-38.5 "/>
<text text-anchor="middle" x="153.5" y="-26.5" font-family="Helvetica,sans-Serif" font-size="10.00" fill="#000000"> </text>
<polyline fill="none" stroke="#000000" points="94,-19.5 213,-19.5 "/>
<text text-anchor="middle" x="153.5" y="-7.5" font-family="Helvetica,sans-Serif" font-size="10.00" fill="#000000"> </text>
</g>
<!-- Node2 -->
<g id="node2" class="node">
<title>Node2</title>
<polygon fill="none" stroke="#bfbfbf" points="0,-182.5 0,-239.5 107,-239.5 107,-182.5 0,-182.5"/>
<text text-anchor="middle" x="53.5" y="-227.5" font-family="Helvetica,sans-Serif" font-size="10.00" fill="#000000">anonymous:+@21</text>
<polyline fill="none" stroke="#bfbfbf" points="0,-220.5 107,-220.5 "/>
<text text-anchor="middle" x="53.5" y="-208.5" font-family="Helvetica,sans-Serif" font-size="10.00" fill="#000000"> </text>
<polyline fill="none" stroke="#bfbfbf" points="0,-201.5 107,-201.5 "/>
<text text-anchor="middle" x="53.5" y="-189.5" font-family="Helvetica,sans-Serif" font-size="10.00" fill="#000000"> </text>
</g>
<!-- Node2&#45;&gt;Node1 -->
<g id="edge1" class="edge">
<title>Node2&#45;&gt;Node1</title>
<path fill="none" stroke="#404040" d="M64.2526,-182.2861C75.3194,-154.211 93.9516,-110.7382 115.5,-76 117.2294,-73.2121 119.1031,-70.4041 121.0602,-67.6225"/>
<polygon fill="none" stroke="#404040" points="121.2422,-67.3778 121.6128,-60.1762 128.403,-57.7485 128.0323,-64.9501 121.2422,-67.3778"/>
<text text-anchor="middle" x="132.5" y="-117.5" font-family="Helvetica,sans-Serif" font-size="10.00" fill="#000000"> +@21</text>
</g>
<!-- Node3 -->
<g id="node3" class="node">
<title>Node3</title>
<g id="a_node3"><a xlink:href="../../d6/d30/classuint64__t.html" target="_top" xlink:title="{uint64_t\n||}">
<polygon fill="none" stroke="#000000" points="125.5,-182.5 125.5,-239.5 181.5,-239.5 181.5,-182.5 125.5,-182.5"/>
<text text-anchor="middle" x="153.5" y="-227.5" font-family="Helvetica,sans-Serif" font-size="10.00" fill="#000000">uint64_t</text>
<polyline fill="none" stroke="#000000" points="125.5,-220.5 181.5,-220.5 "/>
<text text-anchor="middle" x="153.5" y="-208.5" font-family="Helvetica,sans-Serif" font-size="10.00" fill="#000000"> </text>
<polyline fill="none" stroke="#000000" points="125.5,-201.5 181.5,-201.5 "/>
<text text-anchor="middle" x="153.5" y="-189.5" font-family="Helvetica,sans-Serif" font-size="10.00" fill="#000000"> </text>
</a>
</g>
</g>
<!-- Node3&#45;&gt;Node1 -->
<g id="edge2" class="edge">
<title>Node3&#45;&gt;Node1</title>
<path fill="none" stroke="#404040" d="M153.5,-182.1616C153.5,-151.943 153.5,-104.2065 153.5,-70.0602"/>
<polygon fill="none" stroke="#404040" points="153.5001,-69.7035 149.5,-63.7036 153.5,-57.7035 157.5,-63.7035 153.5001,-69.7035"/>
<text text-anchor="middle" x="194.5" y="-156" font-family="Helvetica,sans-Serif" font-size="10.00" fill="#000000"> +word</text>
<text text-anchor="middle" x="194.5" y="-145" font-family="Helvetica,sans-Serif" font-size="10.00" fill="#000000">+nGBTWords</text>
<text text-anchor="middle" x="194.5" y="-134" font-family="Helvetica,sans-Serif" font-size="10.00" fill="#000000">+startDescriptor</text>
<text text-anchor="middle" x="194.5" y="-123" font-family="Helvetica,sans-Serif" font-size="10.00" fill="#000000">+reservedField1</text>
<text text-anchor="middle" x="194.5" y="-112" font-family="Helvetica,sans-Serif" font-size="10.00" fill="#000000">+reservedField2</text>
<text text-anchor="middle" x="194.5" y="-101" font-family="Helvetica,sans-Serif" font-size="10.00" fill="#000000">+bc</text>
<text text-anchor="middle" x="194.5" y="-90" font-family="Helvetica,sans-Serif" font-size="10.00" fill="#000000">+reservedField3</text>
<text text-anchor="middle" x="194.5" y="-79" font-family="Helvetica,sans-Serif" font-size="10.00" fill="#000000">+orbit</text>
</g>
<!-- Node4 -->
<g id="node4" class="node">
<title>Node4</title>
<polygon fill="none" stroke="#bfbfbf" points="244,-182.5 244,-239.5 273,-239.5 273,-182.5 244,-182.5"/>
<text text-anchor="middle" x="258.5" y="-227.5" font-family="Helvetica,sans-Serif" font-size="10.00" fill="#000000">int</text>
<polyline fill="none" stroke="#bfbfbf" points="244,-220.5 273,-220.5 "/>
<text text-anchor="middle" x="258.5" y="-208.5" font-family="Helvetica,sans-Serif" font-size="10.00" fill="#000000"> </text>
<polyline fill="none" stroke="#bfbfbf" points="244,-201.5 273,-201.5 "/>
<text text-anchor="middle" x="258.5" y="-189.5" font-family="Helvetica,sans-Serif" font-size="10.00" fill="#000000"> </text>
</g>
<!-- Node4&#45;&gt;Node1 -->
<g id="edge3" class="edge">
<title>Node4&#45;&gt;Node1</title>
<path fill="none" stroke="#404040" d="M260.6823,-182.2572C261.4419,-152.9586 258.4243,-107.4661 236.5,-76 232.7133,-70.5653 228.0836,-65.6814 222.9667,-61.309"/>
<polygon fill="none" stroke="#404040" points="222.8682,-61.2343 215.6704,-60.7954 213.3072,-53.9825 220.5049,-54.4214 222.8682,-61.2343"/>
<text text-anchor="middle" x="295.5" y="-117.5" font-family="Helvetica,sans-Serif" font-size="10.00" fill="#000000"> +PayloadSize</text>
</g>
</g>
</svg>
