<?xml version="1.0" encoding="UTF-8" standalone="no"?>
<!DOCTYPE svg PUBLIC "-//W3C//DTD SVG 1.1//EN"
 "http://www.w3.org/Graphics/SVG/1.1/DTD/svg11.dtd">
<!-- Generated by graphviz version 2.40.1 (20161225.0304)
 -->
<!-- Title: o2::framework::SourceInfoHeader Pages: 1 -->
<svg width="1083pt" height="1047pt"
 viewBox="0.00 0.00 1082.94 1047.00" xmlns="http://www.w3.org/2000/svg" xmlns:xlink="http://www.w3.org/1999/xlink">
<g id="graph0" class="graph" transform="scale(1 1) rotate(0) translate(4 1043)">
<title>o2::framework::SourceInfoHeader</title>
<!-- Node2 -->
<g id="node1" class="node">
<title>Node2</title>
<polygon fill="#bfbfbf" stroke="#000000" points="810.9351,-.5 810.9351,-90.5 956.9351,-90.5 956.9351,-.5 810.9351,-.5"/>
<text text-anchor="start" x="818.9351" y="-78.5" font-family="Helvetica,sans-Serif" font-size="10.00" fill="#000000">o2::framework::SourceInfo</text>
<text text-anchor="middle" x="883.9351" y="-67.5" font-family="Helvetica,sans-Serif" font-size="10.00" fill="#000000">Header</text>
<polyline fill="none" stroke="#000000" points="810.9351,-60.5 956.9351,-60.5 "/>
<text text-anchor="middle" x="883.9351" y="-48.5" font-family="Helvetica,sans-Serif" font-size="10.00" fill="#000000"> </text>
<polyline fill="none" stroke="#000000" points="810.9351,-41.5 956.9351,-41.5 "/>
<text text-anchor="start" x="818.9351" y="-29.5" font-family="Helvetica,sans-Serif" font-size="10.00" fill="#000000">+ SourceInfoHeader()</text>
<text text-anchor="start" x="818.9351" y="-18.5" font-family="Helvetica,sans-Serif" font-size="10.00" fill="#000000">+ SourceInfoHeader()</text>
<text text-anchor="start" x="818.9351" y="-7.5" font-family="Helvetica,sans-Serif" font-size="10.00" fill="#000000">+ Get()</text>
</g>
<!-- Node3 -->
<g id="node2" class="node">
<title>Node3</title>
<g id="a_node2"><a xlink:href="../../d8/dbd/structo2_1_1header_1_1BaseHeader.html" target="_top" xlink:title="the base header struct Every header type must begin (i.e. derive) with this. Don&#39;t use this struct di...">
<polygon fill="none" stroke="#000000" points="639.4351,-149.5 639.4351,-316.5 812.4351,-316.5 812.4351,-149.5 639.4351,-149.5"/>
<text text-anchor="middle" x="725.9351" y="-304.5" font-family="Helvetica,sans-Serif" font-size="10.00" fill="#000000">o2::header::BaseHeader</text>
<polyline fill="none" stroke="#000000" points="639.4351,-297.5 812.4351,-297.5 "/>
<text text-anchor="middle" x="725.9351" y="-285.5" font-family="Helvetica,sans-Serif" font-size="10.00" fill="#000000"> </text>
<polyline fill="none" stroke="#000000" points="639.4351,-278.5 812.4351,-278.5 "/>
<text text-anchor="start" x="647.4351" y="-266.5" font-family="Helvetica,sans-Serif" font-size="10.00" fill="#000000">+ BaseHeader()</text>
<text text-anchor="start" x="647.4351" y="-255.5" font-family="Helvetica,sans-Serif" font-size="10.00" fill="#000000">+ BaseHeader()</text>
<text text-anchor="start" x="647.4351" y="-244.5" font-family="Helvetica,sans-Serif" font-size="10.00" fill="#000000">+ BaseHeader()</text>
<text text-anchor="start" x="647.4351" y="-233.5" font-family="Helvetica,sans-Serif" font-size="10.00" fill="#000000">+ size()</text>
<text text-anchor="start" x="647.4351" y="-222.5" font-family="Helvetica,sans-Serif" font-size="10.00" fill="#000000">+ data()</text>
<text text-anchor="start" x="647.4351" y="-211.5" font-family="Helvetica,sans-Serif" font-size="10.00" fill="#000000">+ next()</text>
<text text-anchor="start" x="647.4351" y="-200.5" font-family="Helvetica,sans-Serif" font-size="10.00" fill="#000000">+ next()</text>
<text text-anchor="start" x="647.4351" y="-189.5" font-family="Helvetica,sans-Serif" font-size="10.00" fill="#000000">+ sanityCheck()</text>
<text text-anchor="start" x="647.4351" y="-178.5" font-family="Helvetica,sans-Serif" font-size="10.00" fill="#000000">+ throwInconsistentStackError()</text>
<text text-anchor="start" x="647.4351" y="-167.5" font-family="Helvetica,sans-Serif" font-size="10.00" fill="#000000">+ get()</text>
<text text-anchor="start" x="647.4351" y="-156.5" font-family="Helvetica,sans-Serif" font-size="10.00" fill="#000000">+ get()</text>
</a>
</g>
</g>
<!-- Node3&#45;&gt;Node2 -->
<g id="edge1" class="edge">
<title>Node3&#45;&gt;Node2</title>
<path fill="none" stroke="#191970" d="M803.1945,-141.3156C818.0409,-123.6973 832.9692,-105.9817 845.8809,-90.6593"/>
<polygon fill="none" stroke="#191970" points="800.154,-139.4923 796.3865,-149.3947 805.5069,-144.003 800.154,-139.4923"/>
</g>
<!-- Node4 -->
<g id="node3" class="node">
<title>Node4</title>
<g id="a_node3"><a xlink:href="../../d9/db3/structo2_1_1header_1_1Descriptor.html" target="_top" xlink:title="{o2::header::Descriptor\l\&lt; gSizeHeaderDescriptionString \&gt;\n||+ Descriptor()\l+ Descriptor()\l+ Descriptor()\l+ Descriptor()\l+ operator=()\l+ operator ItgType()\l+ runtimeInit()\l+ operator==()\l+ operator==()\l+ operator\&lt;()\l+ operator!=()\l+ operator!=()\l+ as()\l+ print()\l}">
<polygon fill="none" stroke="#000000" points="387.4351,-430.5 387.4351,-641.5 572.4351,-641.5 572.4351,-430.5 387.4351,-430.5"/>
<text text-anchor="start" x="395.4351" y="-629.5" font-family="Helvetica,sans-Serif" font-size="10.00" fill="#000000">o2::header::Descriptor</text>
<text text-anchor="middle" x="479.9351" y="-618.5" font-family="Helvetica,sans-Serif" font-size="10.00" fill="#000000">&lt; gSizeHeaderDescriptionString &gt;</text>
<polyline fill="none" stroke="#000000" points="387.4351,-611.5 572.4351,-611.5 "/>
<text text-anchor="middle" x="479.9351" y="-599.5" font-family="Helvetica,sans-Serif" font-size="10.00" fill="#000000"> </text>
<polyline fill="none" stroke="#000000" points="387.4351,-592.5 572.4351,-592.5 "/>
<text text-anchor="start" x="395.4351" y="-580.5" font-family="Helvetica,sans-Serif" font-size="10.00" fill="#000000">+ Descriptor()</text>
<text text-anchor="start" x="395.4351" y="-569.5" font-family="Helvetica,sans-Serif" font-size="10.00" fill="#000000">+ Descriptor()</text>
<text text-anchor="start" x="395.4351" y="-558.5" font-family="Helvetica,sans-Serif" font-size="10.00" fill="#000000">+ Descriptor()</text>
<text text-anchor="start" x="395.4351" y="-547.5" font-family="Helvetica,sans-Serif" font-size="10.00" fill="#000000">+ Descriptor()</text>
<text text-anchor="start" x="395.4351" y="-536.5" font-family="Helvetica,sans-Serif" font-size="10.00" fill="#000000">+ operator=()</text>
<text text-anchor="start" x="395.4351" y="-525.5" font-family="Helvetica,sans-Serif" font-size="10.00" fill="#000000">+ operator ItgType()</text>
<text text-anchor="start" x="395.4351" y="-514.5" font-family="Helvetica,sans-Serif" font-size="10.00" fill="#000000">+ runtimeInit()</text>
<text text-anchor="start" x="395.4351" y="-503.5" font-family="Helvetica,sans-Serif" font-size="10.00" fill="#000000">+ operator==()</text>
<text text-anchor="start" x="395.4351" y="-492.5" font-family="Helvetica,sans-Serif" font-size="10.00" fill="#000000">+ operator==()</text>
<text text-anchor="start" x="395.4351" y="-481.5" font-family="Helvetica,sans-Serif" font-size="10.00" fill="#000000">+ operator&lt;()</text>
<text text-anchor="start" x="395.4351" y="-470.5" font-family="Helvetica,sans-Serif" font-size="10.00" fill="#000000">+ operator!=()</text>
<text text-anchor="start" x="395.4351" y="-459.5" font-family="Helvetica,sans-Serif" font-size="10.00" fill="#000000">+ operator!=()</text>
<text text-anchor="start" x="395.4351" y="-448.5" font-family="Helvetica,sans-Serif" font-size="10.00" fill="#000000">+ as()</text>
<text text-anchor="start" x="395.4351" y="-437.5" font-family="Helvetica,sans-Serif" font-size="10.00" fill="#000000">+ print()</text>
</a>
</g>
</g>
<!-- Node4&#45;&gt;Node3 -->
<g id="edge2" class="edge">
<title>Node4&#45;&gt;Node3</title>
<path fill="none" stroke="#404040" d="M526.9154,-430.3481C544.1119,-397.8657 565.4474,-363.2592 589.9351,-335 601.6678,-321.4603 615.4831,-308.6066 629.7338,-296.8749"/>
<polygon fill="none" stroke="#404040" points="629.7808,-296.8372 631.9604,-289.9634 639.1438,-289.3315 636.9642,-296.2054 629.7808,-296.8372"/>
<text text-anchor="middle" x="622.9351" y="-371" font-family="Helvetica,sans-Serif" font-size="10.00" fill="#000000"> +description</text>
</g>
<!-- Node5 -->
<g id="node4" class="node">
<title>Node5</title>
<polygon fill="none" stroke="#bfbfbf" points="380.4351,-981.5 380.4351,-1038.5 487.4351,-1038.5 487.4351,-981.5 380.4351,-981.5"/>
<text text-anchor="middle" x="433.9351" y="-1026.5" font-family="Helvetica,sans-Serif" font-size="10.00" fill="#000000">anonymous:+@78</text>
<polyline fill="none" stroke="#bfbfbf" points="380.4351,-1019.5 487.4351,-1019.5 "/>
<text text-anchor="middle" x="433.9351" y="-1007.5" font-family="Helvetica,sans-Serif" font-size="10.00" fill="#000000"> </text>
<polyline fill="none" stroke="#bfbfbf" points="380.4351,-1000.5 487.4351,-1000.5 "/>
<text text-anchor="middle" x="433.9351" y="-988.5" font-family="Helvetica,sans-Serif" font-size="10.00" fill="#000000"> </text>
</g>
<!-- Node5&#45;&gt;Node4 -->
<g id="edge3" class="edge">
<title>Node5&#45;&gt;Node4</title>
<path fill="none" stroke="#404040" d="M487.6154,-990.2765C503.1678,-983.0909 519.5472,-973.9786 532.9351,-963 554.7925,-945.0761 561.4578,-938.6307 570.9351,-912 608.5162,-806.3997 618.5015,-765.6055 580.9351,-660 579.9537,-657.241 578.8817,-654.4989 577.7282,-651.7769"/>
<polygon fill="none" stroke="#404040" points="577.6354,-651.5782 571.4699,-647.8382 572.551,-640.7085 578.7164,-644.4486 577.6354,-651.5782"/>
<text text-anchor="middle" x="621.9351" y="-803.5" font-family="Helvetica,sans-Serif" font-size="10.00" fill="#000000"> +@78</text>
</g>
<!-- Node9 -->
<g id="node8" class="node">
<title>Node9</title>
<g id="a_node8"><a xlink:href="../../d9/db3/structo2_1_1header_1_1Descriptor.html" target="_top" xlink:title="{o2::header::Descriptor\l\&lt; N, PrinterPolicy \&gt;\n||+ Descriptor()\l+ Descriptor()\l+ Descriptor()\l+ operator=()\l+ operator ItgType()\l+ Descriptor()\l+ runtimeInit()\l+ operator==()\l+ operator\&lt;()\l+ operator!=()\l+ operator==()\l+ operator!=()\l+ as()\l+ print()\l}">
<polygon fill="none" stroke="#000000" points="249.4351,-700.5 249.4351,-911.5 374.4351,-911.5 374.4351,-700.5 249.4351,-700.5"/>
<text text-anchor="start" x="257.4351" y="-899.5" font-family="Helvetica,sans-Serif" font-size="10.00" fill="#000000">o2::header::Descriptor</text>
<text text-anchor="middle" x="311.9351" y="-888.5" font-family="Helvetica,sans-Serif" font-size="10.00" fill="#000000">&lt; N, PrinterPolicy &gt;</text>
<polyline fill="none" stroke="#000000" points="249.4351,-881.5 374.4351,-881.5 "/>
<text text-anchor="middle" x="311.9351" y="-869.5" font-family="Helvetica,sans-Serif" font-size="10.00" fill="#000000"> </text>
<polyline fill="none" stroke="#000000" points="249.4351,-862.5 374.4351,-862.5 "/>
<text text-anchor="start" x="257.4351" y="-850.5" font-family="Helvetica,sans-Serif" font-size="10.00" fill="#000000">+ Descriptor()</text>
<text text-anchor="start" x="257.4351" y="-839.5" font-family="Helvetica,sans-Serif" font-size="10.00" fill="#000000">+ Descriptor()</text>
<text text-anchor="start" x="257.4351" y="-828.5" font-family="Helvetica,sans-Serif" font-size="10.00" fill="#000000">+ Descriptor()</text>
<text text-anchor="start" x="257.4351" y="-817.5" font-family="Helvetica,sans-Serif" font-size="10.00" fill="#000000">+ operator=()</text>
<text text-anchor="start" x="257.4351" y="-806.5" font-family="Helvetica,sans-Serif" font-size="10.00" fill="#000000">+ operator ItgType()</text>
<text text-anchor="start" x="257.4351" y="-795.5" font-family="Helvetica,sans-Serif" font-size="10.00" fill="#000000">+ Descriptor()</text>
<text text-anchor="start" x="257.4351" y="-784.5" font-family="Helvetica,sans-Serif" font-size="10.00" fill="#000000">+ runtimeInit()</text>
<text text-anchor="start" x="257.4351" y="-773.5" font-family="Helvetica,sans-Serif" font-size="10.00" fill="#000000">+ operator==()</text>
<text text-anchor="start" x="257.4351" y="-762.5" font-family="Helvetica,sans-Serif" font-size="10.00" fill="#000000">+ operator&lt;()</text>
<text text-anchor="start" x="257.4351" y="-751.5" font-family="Helvetica,sans-Serif" font-size="10.00" fill="#000000">+ operator!=()</text>
<text text-anchor="start" x="257.4351" y="-740.5" font-family="Helvetica,sans-Serif" font-size="10.00" fill="#000000">+ operator==()</text>
<text text-anchor="start" x="257.4351" y="-729.5" font-family="Helvetica,sans-Serif" font-size="10.00" fill="#000000">+ operator!=()</text>
<text text-anchor="start" x="257.4351" y="-718.5" font-family="Helvetica,sans-Serif" font-size="10.00" fill="#000000">+ as()</text>
<text text-anchor="start" x="257.4351" y="-707.5" font-family="Helvetica,sans-Serif" font-size="10.00" fill="#000000">+ print()</text>
</a>
</g>
</g>
<!-- Node5&#45;&gt;Node9 -->
<g id="edge8" class="edge">
<title>Node5&#45;&gt;Node9</title>
<path fill="none" stroke="#404040" d="M401.4831,-981.3858C395.91,-975.6221 390.4639,-969.368 385.9351,-963 376.959,-950.3785 368.6042,-936.4964 360.9831,-922.3687"/>
<polygon fill="none" stroke="#404040" points="360.8742,-922.1609 354.5449,-918.7055 355.3001,-911.534 361.6295,-914.9895 360.8742,-922.1609"/>
<text text-anchor="middle" x="402.9351" y="-944" font-family="Helvetica,sans-Serif" font-size="10.00" fill="#000000"> +@78</text>
</g>
<!-- Node11 -->
<g id="node10" class="node">
<title>Node11</title>
<g id="a_node10"><a xlink:href="../../d9/db3/structo2_1_1header_1_1Descriptor.html" target="_top" xlink:title="{o2::header::Descriptor\l\&lt; gSizeSerializationMethodString \&gt;\n||+ Descriptor()\l+ Descriptor()\l+ Descriptor()\l+ Descriptor()\l+ operator=()\l+ operator ItgType()\l+ runtimeInit()\l+ operator==()\l+ operator==()\l+ operator\&lt;()\l+ operator!=()\l+ operator!=()\l+ as()\l+ print()\l}">
<polygon fill="none" stroke="#000000" points="146.4351,-430.5 146.4351,-641.5 337.4351,-641.5 337.4351,-430.5 146.4351,-430.5"/>
<text text-anchor="start" x="154.4351" y="-629.5" font-family="Helvetica,sans-Serif" font-size="10.00" fill="#000000">o2::header::Descriptor</text>
<text text-anchor="middle" x="241.9351" y="-618.5" font-family="Helvetica,sans-Serif" font-size="10.00" fill="#000000">&lt; gSizeSerializationMethodString &gt;</text>
<polyline fill="none" stroke="#000000" points="146.4351,-611.5 337.4351,-611.5 "/>
<text text-anchor="middle" x="241.9351" y="-599.5" font-family="Helvetica,sans-Serif" font-size="10.00" fill="#000000"> </text>
<polyline fill="none" stroke="#000000" points="146.4351,-592.5 337.4351,-592.5 "/>
<text text-anchor="start" x="154.4351" y="-580.5" font-family="Helvetica,sans-Serif" font-size="10.00" fill="#000000">+ Descriptor()</text>
<text text-anchor="start" x="154.4351" y="-569.5" font-family="Helvetica,sans-Serif" font-size="10.00" fill="#000000">+ Descriptor()</text>
<text text-anchor="start" x="154.4351" y="-558.5" font-family="Helvetica,sans-Serif" font-size="10.00" fill="#000000">+ Descriptor()</text>
<text text-anchor="start" x="154.4351" y="-547.5" font-family="Helvetica,sans-Serif" font-size="10.00" fill="#000000">+ Descriptor()</text>
<text text-anchor="start" x="154.4351" y="-536.5" font-family="Helvetica,sans-Serif" font-size="10.00" fill="#000000">+ operator=()</text>
<text text-anchor="start" x="154.4351" y="-525.5" font-family="Helvetica,sans-Serif" font-size="10.00" fill="#000000">+ operator ItgType()</text>
<text text-anchor="start" x="154.4351" y="-514.5" font-family="Helvetica,sans-Serif" font-size="10.00" fill="#000000">+ runtimeInit()</text>
<text text-anchor="start" x="154.4351" y="-503.5" font-family="Helvetica,sans-Serif" font-size="10.00" fill="#000000">+ operator==()</text>
<text text-anchor="start" x="154.4351" y="-492.5" font-family="Helvetica,sans-Serif" font-size="10.00" fill="#000000">+ operator==()</text>
<text text-anchor="start" x="154.4351" y="-481.5" font-family="Helvetica,sans-Serif" font-size="10.00" fill="#000000">+ operator&lt;()</text>
<text text-anchor="start" x="154.4351" y="-470.5" font-family="Helvetica,sans-Serif" font-size="10.00" fill="#000000">+ operator!=()</text>
<text text-anchor="start" x="154.4351" y="-459.5" font-family="Helvetica,sans-Serif" font-size="10.00" fill="#000000">+ operator!=()</text>
<text text-anchor="start" x="154.4351" y="-448.5" font-family="Helvetica,sans-Serif" font-size="10.00" fill="#000000">+ as()</text>
<text text-anchor="start" x="154.4351" y="-437.5" font-family="Helvetica,sans-Serif" font-size="10.00" fill="#000000">+ print()</text>
</a>
</g>
</g>
<!-- Node5&#45;&gt;Node11 -->
<g id="edge15" class="edge">
<title>Node5&#45;&gt;Node11</title>
<path fill="none" stroke="#404040" d="M430.9733,-981.3698C428.8649,-965.8933 425.4092,-946.6049 419.9351,-930 417.1347,-921.5054 413.5568,-920.5514 410.9351,-912 383.0775,-821.1339 421.7516,-786.7524 382.9351,-700 373.2925,-678.4495 359.8807,-657.5917 345.1329,-638.3864"/>
<polygon fill="none" stroke="#404040" points="344.996,-638.2131 338.1374,-635.986 337.5553,-628.7984 344.4139,-631.0255 344.996,-638.2131"/>
<text text-anchor="middle" x="427.9351" y="-803.5" font-family="Helvetica,sans-Serif" font-size="10.00" fill="#000000"> +@78</text>
</g>
<!-- Node6 -->
<g id="node5" class="node">
<title>Node6</title>
<polygon fill="none" stroke="#bfbfbf" points="292.4351,-981.5 292.4351,-1038.5 331.4351,-1038.5 331.4351,-981.5 292.4351,-981.5"/>
<text text-anchor="middle" x="311.9351" y="-1026.5" font-family="Helvetica,sans-Serif" font-size="10.00" fill="#000000">Type</text>
<polyline fill="none" stroke="#bfbfbf" points="292.4351,-1019.5 331.4351,-1019.5 "/>
<text text-anchor="middle" x="311.9351" y="-1007.5" font-family="Helvetica,sans-Serif" font-size="10.00" fill="#000000"> </text>
<polyline fill="none" stroke="#bfbfbf" points="292.4351,-1000.5 331.4351,-1000.5 "/>
<text text-anchor="middle" x="311.9351" y="-988.5" font-family="Helvetica,sans-Serif" font-size="10.00" fill="#000000"> </text>
</g>
<!-- Node6&#45;&gt;Node4 -->
<g id="edge4" class="edge">
<title>Node6&#45;&gt;Node4</title>
<path fill="none" stroke="#404040" d="M328.1628,-981.3458C340.1084,-961.2323 355.9456,-936.7655 365.9351,-930 397.1883,-908.8333 422.2429,-938.6893 448.9351,-912 517.1143,-843.8282 433.2657,-774.1127 494.9351,-700 508.1869,-684.0744 526.4571,-699.2479 537.9351,-682 543.8434,-673.1216 546.5938,-663.5493 547.013,-653.7022"/>
<polygon fill="none" stroke="#404040" points="547.0066,-653.5685 542.7199,-647.7699 546.4237,-641.5827 550.7104,-647.3813 547.0066,-653.5685"/>
<text text-anchor="middle" x="507.4351" y="-803.5" font-family="Helvetica,sans-Serif" font-size="10.00" fill="#000000"> +itg</text>
</g>
<!-- Node6&#45;&gt;Node9 -->
<g id="edge9" class="edge">
<title>Node6&#45;&gt;Node9</title>
<path fill="none" stroke="#404040" d="M311.9351,-981.2045C311.9351,-965.616 311.9351,-945.2061 311.9351,-923.8459"/>
<polygon fill="none" stroke="#404040" points="311.9352,-923.5491 307.9352,-917.5491 311.9351,-911.5491 315.9352,-917.5491 311.9352,-923.5491"/>
<text text-anchor="middle" x="324.4351" y="-944" font-family="Helvetica,sans-Serif" font-size="10.00" fill="#000000"> +itg</text>
</g>
<!-- Node6&#45;&gt;Node11 -->
<g id="edge16" class="edge">
<title>Node6&#45;&gt;Node11</title>
<path fill="none" stroke="#404040" d="M302.5185,-981.3164C295.1532,-963.5852 283.075,-941.9938 264.9351,-930 238.9539,-912.8216 146.4964,-935.3956 125.9351,-912 63.735,-841.2259 97.3884,-789.7937 125.9351,-700 131.129,-683.6627 138.6052,-667.5527 147.2958,-652.1851"/>
<polygon fill="none" stroke="#404040" points="147.3997,-652.0087 147.0005,-644.8086 153.4932,-641.6709 153.8924,-648.8709 147.3997,-652.0087"/>
<text text-anchor="middle" x="138.4351" y="-803.5" font-family="Helvetica,sans-Serif" font-size="10.00" fill="#000000"> +itg</text>
</g>
<!-- Node7 -->
<g id="node6" class="node">
<title>Node7</title>
<polygon fill="none" stroke="#bfbfbf" points="609.9351,-981.5 609.9351,-1038.5 647.9351,-1038.5 647.9351,-981.5 609.9351,-981.5"/>
<text text-anchor="middle" x="628.9351" y="-1026.5" font-family="Helvetica,sans-Serif" font-size="10.00" fill="#000000">char</text>
<polyline fill="none" stroke="#bfbfbf" points="609.9351,-1019.5 647.9351,-1019.5 "/>
<text text-anchor="middle" x="628.9351" y="-1007.5" font-family="Helvetica,sans-Serif" font-size="10.00" fill="#000000"> </text>
<polyline fill="none" stroke="#bfbfbf" points="609.9351,-1000.5 647.9351,-1000.5 "/>
<text text-anchor="middle" x="628.9351" y="-988.5" font-family="Helvetica,sans-Serif" font-size="10.00" fill="#000000"> </text>
</g>
<!-- Node7&#45;&gt;Node3 -->
<g id="edge13" class="edge">
<title>Node7&#45;&gt;Node3</title>
<path fill="none" stroke="#404040" d="M648.1164,-988.9113C663.7572,-970.2271 684.715,-941.4173 693.9351,-912 756.6125,-712.0238 747.7322,-462.7591 736.4105,-328.8125"/>
<polygon fill="none" stroke="#404040" points="736.3889,-328.5643 731.8821,-322.935 735.3451,-316.6098 739.8518,-322.2391 736.3889,-328.5643"/>
<text text-anchor="middle" x="773.9351" y="-668.5" font-family="Helvetica,sans-Serif" font-size="10.00" fill="#000000"> +magicString</text>
</g>
<!-- Node7&#45;&gt;Node4 -->
<g id="edge5" class="edge">
<title>Node7&#45;&gt;Node4</title>
<path fill="none" stroke="#404040" d="M638.3209,-981.13C655.0451,-924.4689 684.5348,-795.8806 642.9351,-700 629.2071,-668.3592 611.1686,-668.2923 581.2262,-641.7694"/>
<polygon fill="none" stroke="#404040" points="581.2078,-641.7521 574.0956,-640.5617 572.459,-633.5387 579.5712,-634.7291 581.2078,-641.7521"/>
<text text-anchor="middle" x="677.4351" y="-803.5" font-family="Helvetica,sans-Serif" font-size="10.00" fill="#000000"> +str</text>
</g>
<!-- Node7&#45;&gt;Node9 -->
<g id="edge10" class="edge">
<title>Node7&#45;&gt;Node9</title>
<path fill="none" stroke="#404040" d="M609.8924,-1002.9145C556.404,-982.9166 407.4827,-926.5475 388.9351,-912 387.0559,-910.5261 385.2013,-908.9947 383.3724,-907.4131"/>
<polygon fill="none" stroke="#404040" points="383.2386,-907.2888 376.1205,-906.1346 374.4482,-899.12 381.5663,-900.2743 383.2386,-907.2888"/>
<text text-anchor="middle" x="516.4351" y="-944" font-family="Helvetica,sans-Serif" font-size="10.00" fill="#000000"> +str</text>
</g>
<!-- Node7&#45;&gt;Node11 -->
<g id="edge17" class="edge">
<title>Node7&#45;&gt;Node11</title>
<path fill="none" stroke="#404040" d="M609.5708,-995.1272C588.6304,-977.7592 556.3199,-946.9199 541.9351,-912 531.2539,-886.0707 547.1208,-680.4531 527.9351,-660 504.9666,-635.5141 408.9771,-654.787 377.9351,-642 367.7716,-637.8134 357.7257,-632.647 347.9729,-626.8681"/>
<polygon fill="none" stroke="#404040" points="347.7082,-626.7039 340.5009,-626.9375 337.5132,-620.3744 344.7206,-620.1408 347.7082,-626.7039"/>
<text text-anchor="middle" x="554.4351" y="-803.5" font-family="Helvetica,sans-Serif" font-size="10.00" fill="#000000"> +str</text>
</g>
<!-- Node8 -->
<g id="node7" class="node">
<title>Node8</title>
<polygon fill="none" stroke="#bfbfbf" points="158.4351,-981.5 158.4351,-1038.5 187.4351,-1038.5 187.4351,-981.5 158.4351,-981.5"/>
<text text-anchor="middle" x="172.9351" y="-1026.5" font-family="Helvetica,sans-Serif" font-size="10.00" fill="#000000">int</text>
<polyline fill="none" stroke="#bfbfbf" points="158.4351,-1019.5 187.4351,-1019.5 "/>
<text text-anchor="middle" x="172.9351" y="-1007.5" font-family="Helvetica,sans-Serif" font-size="10.00" fill="#000000"> </text>
<polyline fill="none" stroke="#bfbfbf" points="158.4351,-1000.5 187.4351,-1000.5 "/>
<text text-anchor="middle" x="172.9351" y="-988.5" font-family="Helvetica,sans-Serif" font-size="10.00" fill="#000000"> </text>
</g>
<!-- Node8&#45;&gt;Node4 -->
<g id="edge6" class="edge">
<title>Node8&#45;&gt;Node4</title>
<path fill="none" stroke="#404040" d="M170.0207,-981.3907C162.9463,-904.6607 148.9807,-697.5673 199.9351,-660 252.559,-621.2019 285.6137,-667.2169 345.9351,-642 356.4973,-637.5846 366.9203,-632.0913 377.006,-625.9456"/>
<polygon fill="none" stroke="#404040" points="377.2698,-625.7773 380.1764,-619.178 387.3861,-619.3227 384.4795,-625.9221 377.2698,-625.7773"/>
<text text-anchor="middle" x="205.9351" y="-814.5" font-family="Helvetica,sans-Serif" font-size="10.00" fill="#000000"> +arraySize</text>
<text text-anchor="middle" x="205.9351" y="-803.5" font-family="Helvetica,sans-Serif" font-size="10.00" fill="#000000">+size</text>
<text text-anchor="middle" x="205.9351" y="-792.5" font-family="Helvetica,sans-Serif" font-size="10.00" fill="#000000">+bitcount</text>
</g>
<!-- Node8&#45;&gt;Node9 -->
<g id="edge11" class="edge">
<title>Node8&#45;&gt;Node9</title>
<path fill="none" stroke="#404040" d="M187.5478,-988.554C200.8866,-968.9777 221.6311,-938.5325 242.382,-908.078"/>
<polygon fill="none" stroke="#404040" points="242.6517,-907.6821 242.7246,-900.4713 249.4088,-897.7653 249.3358,-904.9761 242.6517,-907.6821"/>
<text text-anchor="middle" x="254.9351" y="-955" font-family="Helvetica,sans-Serif" font-size="10.00" fill="#000000"> +arraySize</text>
<text text-anchor="middle" x="254.9351" y="-944" font-family="Helvetica,sans-Serif" font-size="10.00" fill="#000000">+size</text>
<text text-anchor="middle" x="254.9351" y="-933" font-family="Helvetica,sans-Serif" font-size="10.00" fill="#000000">+bitcount</text>
</g>
<!-- Node8&#45;&gt;Node11 -->
<g id="edge18" class="edge">
<title>Node8&#45;&gt;Node11</title>
<path fill="none" stroke="#404040" d="M158.2548,-1005.0765C127.9735,-994.023 59.1432,-964.045 31.9351,-912 -11.7172,-828.4997 -9.378,-784.6821 31.9351,-700 54.1393,-654.4867 95.7549,-617.909 136.1199,-590.9474"/>
<polygon fill="none" stroke="#404040" points="136.2824,-590.8418 139.132,-584.2177 146.3427,-584.3004 143.493,-590.9246 136.2824,-590.8418"/>
<text text-anchor="middle" x="60.9351" y="-814.5" font-family="Helvetica,sans-Serif" font-size="10.00" fill="#000000"> +arraySize</text>
<text text-anchor="middle" x="60.9351" y="-803.5" font-family="Helvetica,sans-Serif" font-size="10.00" fill="#000000">+size</text>
<text text-anchor="middle" x="60.9351" y="-792.5" font-family="Helvetica,sans-Serif" font-size="10.00" fill="#000000">+bitcount</text>
</g>
<!-- Node9&#45;&gt;Node4 -->
<g id="edge7" class="edge">
<title>Node9&#45;&gt;Node4</title>
<path fill="none" stroke="#ffa500" d="M380.0023,-696.6063C391.2998,-678.4496 402.9964,-659.6515 414.2338,-641.5914"/>
<polygon fill="#ffa500" stroke="#ffa500" points="376.8035,-695.1223 374.4921,-705.462 382.7469,-698.8205 376.8035,-695.1223"/>
<text text-anchor="start" x="401.9351" y="-674" font-family="Helvetica,sans-Serif" font-size="10.00" fill="#000000"> &lt; gSizeHeaderDescription</text>
<text text-anchor="middle" x="467.9351" y="-663" font-family="Helvetica,sans-Serif" font-size="10.00" fill="#000000">String &gt;</text>
</g>
<!-- Node9&#45;&gt;Node11 -->
<g id="edge19" class="edge">
<title>Node9&#45;&gt;Node11</title>
<path fill="none" stroke="#ffa500" d="M242.6957,-708.0655C240.1361,-705.2966 237.5466,-702.6006 234.9351,-700 225.2334,-690.3391 216.1771,-694.1858 209.9351,-682 203.4877,-669.4131 201.2357,-655.5683 201.6852,-641.5718"/>
<polygon fill="#ffa500" stroke="#ffa500" points="240.1185,-710.4341 249.3964,-715.55 245.3338,-705.765 240.1185,-710.4341"/>
<text text-anchor="start" x="209.9351" y="-674" font-family="Helvetica,sans-Serif" font-size="10.00" fill="#000000"> &lt; gSizeSerializationMethod</text>
<text text-anchor="middle" x="278.9351" y="-663" font-family="Helvetica,sans-Serif" font-size="10.00" fill="#000000">String &gt;</text>
</g>
<!-- Node10 -->
<g id="node9" class="node">
<title>Node10</title>
<polygon fill="none" stroke="#bfbfbf" points="590.4351,-507.5 590.4351,-564.5 697.4351,-564.5 697.4351,-507.5 590.4351,-507.5"/>
<text text-anchor="middle" x="643.9351" y="-552.5" font-family="Helvetica,sans-Serif" font-size="10.00" fill="#000000">anonymous:+@80</text>
<polyline fill="none" stroke="#bfbfbf" points="590.4351,-545.5 697.4351,-545.5 "/>
<text text-anchor="middle" x="643.9351" y="-533.5" font-family="Helvetica,sans-Serif" font-size="10.00" fill="#000000"> </text>
<polyline fill="none" stroke="#bfbfbf" points="590.4351,-526.5 697.4351,-526.5 "/>
<text text-anchor="middle" x="643.9351" y="-514.5" font-family="Helvetica,sans-Serif" font-size="10.00" fill="#000000"> </text>
</g>
<!-- Node10&#45;&gt;Node3 -->
<g id="edge12" class="edge">
<title>Node10&#45;&gt;Node3</title>
<path fill="none" stroke="#404040" d="M646.2981,-507.4675C650.1193,-467.9797 659.2012,-394.7762 677.9351,-335 678.6484,-332.7239 679.4026,-330.4334 680.1922,-328.1349"/>
<polygon fill="none" stroke="#404040" points="680.2867,-327.8765 678.5914,-320.8675 684.4092,-316.6068 686.1045,-323.6158 680.2867,-327.8765"/>
<text text-anchor="middle" x="694.9351" y="-371" font-family="Helvetica,sans-Serif" font-size="10.00" fill="#000000"> +@80</text>
</g>
<!-- Node11&#45;&gt;Node3 -->
<g id="edge14" class="edge">
<title>Node11&#45;&gt;Node3</title>
<path fill="none" stroke="#404040" d="M337.5871,-435.3075C374.6332,-400.2663 418.9327,-362.8101 463.9351,-335 514.6881,-303.6363 576.7032,-278.9698 627.6562,-261.7551"/>
<polygon fill="none" stroke="#404040" points="627.9636,-261.6529 632.3958,-255.9647 639.3512,-257.8682 634.919,-263.5564 627.9636,-261.6529"/>
<text text-anchor="middle" x="499.9351" y="-371" font-family="Helvetica,sans-Serif" font-size="10.00" fill="#000000"> +serialization</text>
</g>
<!-- Node12 -->
<g id="node11" class="node">
<title>Node12</title>
<g id="a_node11"><a xlink:href="../../d3/d87/classuint32__t.html" target="_top" xlink:title="{uint32_t\n||}">
<polygon fill="none" stroke="#000000" points="753.9351,-507.5 753.9351,-564.5 809.9351,-564.5 809.9351,-507.5 753.9351,-507.5"/>
<text text-anchor="middle" x="781.9351" y="-552.5" font-family="Helvetica,sans-Serif" font-size="10.00" fill="#000000">uint32_t</text>
<polyline fill="none" stroke="#000000" points="753.9351,-545.5 809.9351,-545.5 "/>
<text text-anchor="middle" x="781.9351" y="-533.5" font-family="Helvetica,sans-Serif" font-size="10.00" fill="#000000"> </text>
<polyline fill="none" stroke="#000000" points="753.9351,-526.5 809.9351,-526.5 "/>
<text text-anchor="middle" x="781.9351" y="-514.5" font-family="Helvetica,sans-Serif" font-size="10.00" fill="#000000"> </text>
</a>
</g>
</g>
<!-- Node12&#45;&gt;Node3 -->
<g id="edge20" class="edge">
<title>Node12&#45;&gt;Node3</title>
<path fill="none" stroke="#404040" d="M776.6668,-507.4945C769.175,-466.9586 755.0835,-390.7139 743.6497,-328.8486"/>
<polygon fill="none" stroke="#404040" points="743.5821,-328.4823 738.5582,-323.3092 741.4011,-316.6821 746.425,-321.8552 743.5821,-328.4823"/>
<text text-anchor="middle" x="805.4351" y="-404" font-family="Helvetica,sans-Serif" font-size="10.00" fill="#000000"> +headerVersion</text>
<text text-anchor="middle" x="805.4351" y="-393" font-family="Helvetica,sans-Serif" font-size="10.00" fill="#000000">+headerSize</text>
<text text-anchor="middle" x="805.4351" y="-382" font-family="Helvetica,sans-Serif" font-size="10.00" fill="#000000">+sMagicString</text>
<text text-anchor="middle" x="805.4351" y="-371" font-family="Helvetica,sans-Serif" font-size="10.00" fill="#000000">+flagsNextHeader</text>
<text text-anchor="middle" x="805.4351" y="-360" font-family="Helvetica,sans-Serif" font-size="10.00" fill="#000000">+magicStringInt</text>
<text text-anchor="middle" x="805.4351" y="-349" font-family="Helvetica,sans-Serif" font-size="10.00" fill="#000000">+flagsUnused</text>
<text text-anchor="middle" x="805.4351" y="-338" font-family="Helvetica,sans-Serif" font-size="10.00" fill="#000000">+flags</text>
</g>
<!-- Node13 -->
<g id="node12" class="node">
<title>Node13</title>
<polygon fill="none" stroke="#bfbfbf" points="828.4351,-507.5 828.4351,-564.5 935.4351,-564.5 935.4351,-507.5 828.4351,-507.5"/>
<text text-anchor="middle" x="881.9351" y="-552.5" font-family="Helvetica,sans-Serif" font-size="10.00" fill="#000000">anonymous:+@82</text>
<polyline fill="none" stroke="#bfbfbf" points="828.4351,-545.5 935.4351,-545.5 "/>
<text text-anchor="middle" x="881.9351" y="-533.5" font-family="Helvetica,sans-Serif" font-size="10.00" fill="#000000"> </text>
<polyline fill="none" stroke="#bfbfbf" points="828.4351,-526.5 935.4351,-526.5 "/>
<text text-anchor="middle" x="881.9351" y="-514.5" font-family="Helvetica,sans-Serif" font-size="10.00" fill="#000000"> </text>
</g>
<!-- Node13&#45;&gt;Node3 -->
<g id="edge21" class="edge">
<title>Node13&#45;&gt;Node3</title>
<path fill="none" stroke="#404040" d="M885.7053,-507.1797C889.6082,-465.3756 890.8504,-387.2178 854.9351,-335 847.0208,-323.4933 838.8531,-325.3253 822.9566,-316.7424"/>
<polygon fill="none" stroke="#404040" points="822.8263,-316.6611 815.6184,-316.8764 812.6473,-310.3058 819.8552,-310.0905 822.8263,-316.6611"/>
<text text-anchor="middle" x="900.9351" y="-371" font-family="Helvetica,sans-Serif" font-size="10.00" fill="#000000"> +@82</text>
</g>
<!-- Node14 -->
<g id="node13" class="node">
<title>Node14</title>
<polygon fill="none" stroke="#bfbfbf" points="953.4351,-507.5 953.4351,-564.5 996.4351,-564.5 996.4351,-507.5 953.4351,-507.5"/>
<text text-anchor="middle" x="974.9351" y="-552.5" font-family="Helvetica,sans-Serif" font-size="10.00" fill="#000000">const</text>
<polyline fill="none" stroke="#bfbfbf" points="953.4351,-545.5 996.4351,-545.5 "/>
<text text-anchor="middle" x="974.9351" y="-533.5" font-family="Helvetica,sans-Serif" font-size="10.00" fill="#000000"> </text>
<polyline fill="none" stroke="#bfbfbf" points="953.4351,-526.5 996.4351,-526.5 "/>
<text text-anchor="middle" x="974.9351" y="-514.5" font-family="Helvetica,sans-Serif" font-size="10.00" fill="#000000"> </text>
</g>
<!-- Node14&#45;&gt;Node3 -->
<g id="edge22" class="edge">
<title>Node14&#45;&gt;Node3</title>
<path fill="none" stroke="#404040" d="M976.3007,-507.2177C976.6913,-463.2618 970.4578,-379.8008 921.9351,-335 891.2833,-306.6993 866.6496,-332.0369 823.5021,-316.6857"/>
<polygon fill="none" stroke="#404040" points="823.4899,-316.6806 816.4057,-318.0272 812.438,-312.0057 819.5222,-310.6592 823.4899,-316.6806"/>
<text text-anchor="middle" x="1019.4351" y="-382" font-family="Helvetica,sans-Serif" font-size="10.00" fill="#000000"> +sHeaderType</text>
<text text-anchor="middle" x="1019.4351" y="-371" font-family="Helvetica,sans-Serif" font-size="10.00" fill="#000000">+sSerializationMethod</text>
<text text-anchor="middle" x="1019.4351" y="-360" font-family="Helvetica,sans-Serif" font-size="10.00" fill="#000000">+sVersion</text>
</g>
<!-- Node15 -->
<g id="node14" class="node">
<title>Node15</title>
<polygon fill="none" stroke="#bfbfbf" points="830.4351,-204.5 830.4351,-261.5 937.4351,-261.5 937.4351,-204.5 830.4351,-204.5"/>
<text text-anchor="middle" x="883.9351" y="-249.5" font-family="Helvetica,sans-Serif" font-size="10.00" fill="#000000">InputChannelState</text>
<polyline fill="none" stroke="#bfbfbf" points="830.4351,-242.5 937.4351,-242.5 "/>
<text text-anchor="middle" x="883.9351" y="-230.5" font-family="Helvetica,sans-Serif" font-size="10.00" fill="#000000"> </text>
<polyline fill="none" stroke="#bfbfbf" points="830.4351,-223.5 937.4351,-223.5 "/>
<text text-anchor="middle" x="883.9351" y="-211.5" font-family="Helvetica,sans-Serif" font-size="10.00" fill="#000000"> </text>
</g>
<!-- Node15&#45;&gt;Node2 -->
<g id="edge23" class="edge">
<title>Node15&#45;&gt;Node2</title>
<path fill="none" stroke="#404040" d="M883.9351,-204.114C883.9351,-177.3341 883.9351,-136.7038 883.9351,-103.2704"/>
<polygon fill="none" stroke="#404040" points="883.9352,-102.853 879.9352,-96.8531 883.9351,-90.853 887.9352,-96.853 883.9352,-102.853"/>
<text text-anchor="middle" x="902.4351" y="-117.5" font-family="Helvetica,sans-Serif" font-size="10.00" fill="#000000"> +state</text>
</g>
<!-- Node16 -->
<g id="node15" class="node">
<title>Node16</title>
<polygon fill="none" stroke="#bfbfbf" points="955.9351,-204.5 955.9351,-261.5 999.9351,-261.5 999.9351,-204.5 955.9351,-204.5"/>
<text text-anchor="middle" x="977.9351" y="-249.5" font-family="Helvetica,sans-Serif" font-size="10.00" fill="#000000">static</text>
<polyline fill="none" stroke="#bfbfbf" points="955.9351,-242.5 999.9351,-242.5 "/>
<text text-anchor="middle" x="977.9351" y="-230.5" font-family="Helvetica,sans-Serif" font-size="10.00" fill="#000000"> </text>
<polyline fill="none" stroke="#bfbfbf" points="955.9351,-223.5 999.9351,-223.5 "/>
<text text-anchor="middle" x="977.9351" y="-211.5" font-family="Helvetica,sans-Serif" font-size="10.00" fill="#000000"> </text>
</g>
<!-- Node16&#45;&gt;Node2 -->
<g id="edge24" class="edge">
<title>Node16&#45;&gt;Node2</title>
<path fill="none" stroke="#404040" d="M967.955,-204.2703C962.0229,-187.8809 954.0837,-167.0666 945.9351,-149 937.6797,-130.6967 935.0577,-126.3405 924.9351,-109 923.4011,-106.3722 921.8086,-103.6994 920.1809,-101.0115"/>
<polygon fill="none" stroke="#404040" points="920.0775,-100.8439 913.5228,-97.8378 913.7765,-90.6312 920.3312,-93.6372 920.0775,-100.8439"/>
<text text-anchor="middle" x="974.4351" y="-123" font-family="Helvetica,sans-Serif" font-size="10.00" fill="#000000"> +sHeaderType</text>
<text text-anchor="middle" x="974.4351" y="-112" font-family="Helvetica,sans-Serif" font-size="10.00" fill="#000000">+sVersion</text>
</g>
</g>
</svg>
