<?xml version="1.0" encoding="UTF-8" standalone="no"?>
<!DOCTYPE svg PUBLIC "-//W3C//DTD SVG 1.1//EN"
 "http://www.w3.org/Graphics/SVG/1.1/DTD/svg11.dtd">
<!-- Generated by graphviz version 2.40.1 (20161225.0304)
 -->
<!-- Title: o2::tpc::TPCSectorHeader Pages: 1 -->
<svg width="1166pt" height="1058pt"
 viewBox="0.00 0.00 1165.94 1058.00" xmlns="http://www.w3.org/2000/svg" xmlns:xlink="http://www.w3.org/1999/xlink">
<g id="graph0" class="graph" transform="scale(1 1) rotate(0) translate(4 1054)">
<title>o2::tpc::TPCSectorHeader</title>
<!-- Node2 -->
<g id="node1" class="node">
<title>Node2</title>
<polygon fill="#bfbfbf" stroke="#000000" points="852.9351,-.5 852.9351,-68.5 992.9351,-68.5 992.9351,-.5 852.9351,-.5"/>
<text text-anchor="middle" x="922.9351" y="-56.5" font-family="Helvetica,sans-Serif" font-size="10.00" fill="#000000">o2::tpc::TPCSectorHeader</text>
<polyline fill="none" stroke="#000000" points="852.9351,-49.5 992.9351,-49.5 "/>
<text text-anchor="middle" x="922.9351" y="-37.5" font-family="Helvetica,sans-Serif" font-size="10.00" fill="#000000"> </text>
<polyline fill="none" stroke="#000000" points="852.9351,-30.5 992.9351,-30.5 "/>
<text text-anchor="start" x="860.9351" y="-18.5" font-family="Helvetica,sans-Serif" font-size="10.00" fill="#000000">+ TPCSectorHeader()</text>
<text text-anchor="start" x="860.9351" y="-7.5" font-family="Helvetica,sans-Serif" font-size="10.00" fill="#000000">+ sector()</text>
</g>
<!-- Node3 -->
<g id="node2" class="node">
<title>Node3</title>
<g id="a_node2"><a xlink:href="../../d8/dbd/structo2_1_1header_1_1BaseHeader.html" target="_top" xlink:title="the base header struct Every header type must begin (i.e. derive) with this. Don&#39;t use this struct di...">
<polygon fill="none" stroke="#000000" points="639.4351,-160.5 639.4351,-327.5 812.4351,-327.5 812.4351,-160.5 639.4351,-160.5"/>
<text text-anchor="middle" x="725.9351" y="-315.5" font-family="Helvetica,sans-Serif" font-size="10.00" fill="#000000">o2::header::BaseHeader</text>
<polyline fill="none" stroke="#000000" points="639.4351,-308.5 812.4351,-308.5 "/>
<text text-anchor="middle" x="725.9351" y="-296.5" font-family="Helvetica,sans-Serif" font-size="10.00" fill="#000000"> </text>
<polyline fill="none" stroke="#000000" points="639.4351,-289.5 812.4351,-289.5 "/>
<text text-anchor="start" x="647.4351" y="-277.5" font-family="Helvetica,sans-Serif" font-size="10.00" fill="#000000">+ BaseHeader()</text>
<text text-anchor="start" x="647.4351" y="-266.5" font-family="Helvetica,sans-Serif" font-size="10.00" fill="#000000">+ BaseHeader()</text>
<text text-anchor="start" x="647.4351" y="-255.5" font-family="Helvetica,sans-Serif" font-size="10.00" fill="#000000">+ BaseHeader()</text>
<text text-anchor="start" x="647.4351" y="-244.5" font-family="Helvetica,sans-Serif" font-size="10.00" fill="#000000">+ size()</text>
<text text-anchor="start" x="647.4351" y="-233.5" font-family="Helvetica,sans-Serif" font-size="10.00" fill="#000000">+ data()</text>
<text text-anchor="start" x="647.4351" y="-222.5" font-family="Helvetica,sans-Serif" font-size="10.00" fill="#000000">+ next()</text>
<text text-anchor="start" x="647.4351" y="-211.5" font-family="Helvetica,sans-Serif" font-size="10.00" fill="#000000">+ next()</text>
<text text-anchor="start" x="647.4351" y="-200.5" font-family="Helvetica,sans-Serif" font-size="10.00" fill="#000000">+ sanityCheck()</text>
<text text-anchor="start" x="647.4351" y="-189.5" font-family="Helvetica,sans-Serif" font-size="10.00" fill="#000000">+ throwInconsistentStackError()</text>
<text text-anchor="start" x="647.4351" y="-178.5" font-family="Helvetica,sans-Serif" font-size="10.00" fill="#000000">+ get()</text>
<text text-anchor="start" x="647.4351" y="-167.5" font-family="Helvetica,sans-Serif" font-size="10.00" fill="#000000">+ get()</text>
</a>
</g>
</g>
<!-- Node3&#45;&gt;Node2 -->
<g id="edge1" class="edge">
<title>Node3&#45;&gt;Node2</title>
<path fill="none" stroke="#191970" d="M811.7438,-152.7466C839.8103,-122.8992 869.2748,-91.5652 890.8164,-68.6567"/>
<polygon fill="none" stroke="#191970" points="808.9447,-150.6141 804.644,-160.2969 814.0442,-155.4094 808.9447,-150.6141"/>
</g>
<!-- Node4 -->
<g id="node3" class="node">
<title>Node4</title>
<g id="a_node3"><a xlink:href="../../d9/db3/structo2_1_1header_1_1Descriptor.html" target="_top" xlink:title="{o2::header::Descriptor\l\&lt; gSizeHeaderDescriptionString \&gt;\n||+ Descriptor()\l+ Descriptor()\l+ Descriptor()\l+ Descriptor()\l+ operator=()\l+ operator ItgType()\l+ runtimeInit()\l+ operator==()\l+ operator==()\l+ operator\&lt;()\l+ operator!=()\l+ operator!=()\l+ as()\l+ print()\l}">
<polygon fill="none" stroke="#000000" points="387.4351,-441.5 387.4351,-652.5 572.4351,-652.5 572.4351,-441.5 387.4351,-441.5"/>
<text text-anchor="start" x="395.4351" y="-640.5" font-family="Helvetica,sans-Serif" font-size="10.00" fill="#000000">o2::header::Descriptor</text>
<text text-anchor="middle" x="479.9351" y="-629.5" font-family="Helvetica,sans-Serif" font-size="10.00" fill="#000000">&lt; gSizeHeaderDescriptionString &gt;</text>
<polyline fill="none" stroke="#000000" points="387.4351,-622.5 572.4351,-622.5 "/>
<text text-anchor="middle" x="479.9351" y="-610.5" font-family="Helvetica,sans-Serif" font-size="10.00" fill="#000000"> </text>
<polyline fill="none" stroke="#000000" points="387.4351,-603.5 572.4351,-603.5 "/>
<text text-anchor="start" x="395.4351" y="-591.5" font-family="Helvetica,sans-Serif" font-size="10.00" fill="#000000">+ Descriptor()</text>
<text text-anchor="start" x="395.4351" y="-580.5" font-family="Helvetica,sans-Serif" font-size="10.00" fill="#000000">+ Descriptor()</text>
<text text-anchor="start" x="395.4351" y="-569.5" font-family="Helvetica,sans-Serif" font-size="10.00" fill="#000000">+ Descriptor()</text>
<text text-anchor="start" x="395.4351" y="-558.5" font-family="Helvetica,sans-Serif" font-size="10.00" fill="#000000">+ Descriptor()</text>
<text text-anchor="start" x="395.4351" y="-547.5" font-family="Helvetica,sans-Serif" font-size="10.00" fill="#000000">+ operator=()</text>
<text text-anchor="start" x="395.4351" y="-536.5" font-family="Helvetica,sans-Serif" font-size="10.00" fill="#000000">+ operator ItgType()</text>
<text text-anchor="start" x="395.4351" y="-525.5" font-family="Helvetica,sans-Serif" font-size="10.00" fill="#000000">+ runtimeInit()</text>
<text text-anchor="start" x="395.4351" y="-514.5" font-family="Helvetica,sans-Serif" font-size="10.00" fill="#000000">+ operator==()</text>
<text text-anchor="start" x="395.4351" y="-503.5" font-family="Helvetica,sans-Serif" font-size="10.00" fill="#000000">+ operator==()</text>
<text text-anchor="start" x="395.4351" y="-492.5" font-family="Helvetica,sans-Serif" font-size="10.00" fill="#000000">+ operator&lt;()</text>
<text text-anchor="start" x="395.4351" y="-481.5" font-family="Helvetica,sans-Serif" font-size="10.00" fill="#000000">+ operator!=()</text>
<text text-anchor="start" x="395.4351" y="-470.5" font-family="Helvetica,sans-Serif" font-size="10.00" fill="#000000">+ operator!=()</text>
<text text-anchor="start" x="395.4351" y="-459.5" font-family="Helvetica,sans-Serif" font-size="10.00" fill="#000000">+ as()</text>
<text text-anchor="start" x="395.4351" y="-448.5" font-family="Helvetica,sans-Serif" font-size="10.00" fill="#000000">+ print()</text>
</a>
</g>
</g>
<!-- Node4&#45;&gt;Node3 -->
<g id="edge2" class="edge">
<title>Node4&#45;&gt;Node3</title>
<path fill="none" stroke="#404040" d="M526.9154,-441.3481C544.1119,-408.8657 565.4474,-374.2592 589.9351,-346 601.6678,-332.4603 615.4831,-319.6066 629.7338,-307.8749"/>
<polygon fill="none" stroke="#404040" points="629.7808,-307.8372 631.9604,-300.9634 639.1438,-300.3315 636.9642,-307.2054 629.7808,-307.8372"/>
<text text-anchor="middle" x="622.9351" y="-382" font-family="Helvetica,sans-Serif" font-size="10.00" fill="#000000"> +description</text>
</g>
<!-- Node5 -->
<g id="node4" class="node">
<title>Node5</title>
<polygon fill="none" stroke="#bfbfbf" points="380.4351,-992.5 380.4351,-1049.5 487.4351,-1049.5 487.4351,-992.5 380.4351,-992.5"/>
<text text-anchor="middle" x="433.9351" y="-1037.5" font-family="Helvetica,sans-Serif" font-size="10.00" fill="#000000">anonymous:+@78</text>
<polyline fill="none" stroke="#bfbfbf" points="380.4351,-1030.5 487.4351,-1030.5 "/>
<text text-anchor="middle" x="433.9351" y="-1018.5" font-family="Helvetica,sans-Serif" font-size="10.00" fill="#000000"> </text>
<polyline fill="none" stroke="#bfbfbf" points="380.4351,-1011.5 487.4351,-1011.5 "/>
<text text-anchor="middle" x="433.9351" y="-999.5" font-family="Helvetica,sans-Serif" font-size="10.00" fill="#000000"> </text>
</g>
<!-- Node5&#45;&gt;Node4 -->
<g id="edge3" class="edge">
<title>Node5&#45;&gt;Node4</title>
<path fill="none" stroke="#404040" d="M487.6154,-1001.2765C503.1678,-994.0909 519.5472,-984.9786 532.9351,-974 554.7925,-956.0761 561.4578,-949.6307 570.9351,-923 608.5162,-817.3997 618.5015,-776.6055 580.9351,-671 579.9537,-668.241 578.8817,-665.4989 577.7282,-662.7769"/>
<polygon fill="none" stroke="#404040" points="577.6354,-662.5782 571.4699,-658.8382 572.551,-651.7085 578.7164,-655.4486 577.6354,-662.5782"/>
<text text-anchor="middle" x="621.9351" y="-814.5" font-family="Helvetica,sans-Serif" font-size="10.00" fill="#000000"> +@78</text>
</g>
<!-- Node9 -->
<g id="node8" class="node">
<title>Node9</title>
<g id="a_node8"><a xlink:href="../../d9/db3/structo2_1_1header_1_1Descriptor.html" target="_top" xlink:title="{o2::header::Descriptor\l\&lt; N, PrinterPolicy \&gt;\n||+ Descriptor()\l+ Descriptor()\l+ Descriptor()\l+ operator=()\l+ operator ItgType()\l+ Descriptor()\l+ runtimeInit()\l+ operator==()\l+ operator\&lt;()\l+ operator!=()\l+ operator==()\l+ operator!=()\l+ as()\l+ print()\l}">
<polygon fill="none" stroke="#000000" points="249.4351,-711.5 249.4351,-922.5 374.4351,-922.5 374.4351,-711.5 249.4351,-711.5"/>
<text text-anchor="start" x="257.4351" y="-910.5" font-family="Helvetica,sans-Serif" font-size="10.00" fill="#000000">o2::header::Descriptor</text>
<text text-anchor="middle" x="311.9351" y="-899.5" font-family="Helvetica,sans-Serif" font-size="10.00" fill="#000000">&lt; N, PrinterPolicy &gt;</text>
<polyline fill="none" stroke="#000000" points="249.4351,-892.5 374.4351,-892.5 "/>
<text text-anchor="middle" x="311.9351" y="-880.5" font-family="Helvetica,sans-Serif" font-size="10.00" fill="#000000"> </text>
<polyline fill="none" stroke="#000000" points="249.4351,-873.5 374.4351,-873.5 "/>
<text text-anchor="start" x="257.4351" y="-861.5" font-family="Helvetica,sans-Serif" font-size="10.00" fill="#000000">+ Descriptor()</text>
<text text-anchor="start" x="257.4351" y="-850.5" font-family="Helvetica,sans-Serif" font-size="10.00" fill="#000000">+ Descriptor()</text>
<text text-anchor="start" x="257.4351" y="-839.5" font-family="Helvetica,sans-Serif" font-size="10.00" fill="#000000">+ Descriptor()</text>
<text text-anchor="start" x="257.4351" y="-828.5" font-family="Helvetica,sans-Serif" font-size="10.00" fill="#000000">+ operator=()</text>
<text text-anchor="start" x="257.4351" y="-817.5" font-family="Helvetica,sans-Serif" font-size="10.00" fill="#000000">+ operator ItgType()</text>
<text text-anchor="start" x="257.4351" y="-806.5" font-family="Helvetica,sans-Serif" font-size="10.00" fill="#000000">+ Descriptor()</text>
<text text-anchor="start" x="257.4351" y="-795.5" font-family="Helvetica,sans-Serif" font-size="10.00" fill="#000000">+ runtimeInit()</text>
<text text-anchor="start" x="257.4351" y="-784.5" font-family="Helvetica,sans-Serif" font-size="10.00" fill="#000000">+ operator==()</text>
<text text-anchor="start" x="257.4351" y="-773.5" font-family="Helvetica,sans-Serif" font-size="10.00" fill="#000000">+ operator&lt;()</text>
<text text-anchor="start" x="257.4351" y="-762.5" font-family="Helvetica,sans-Serif" font-size="10.00" fill="#000000">+ operator!=()</text>
<text text-anchor="start" x="257.4351" y="-751.5" font-family="Helvetica,sans-Serif" font-size="10.00" fill="#000000">+ operator==()</text>
<text text-anchor="start" x="257.4351" y="-740.5" font-family="Helvetica,sans-Serif" font-size="10.00" fill="#000000">+ operator!=()</text>
<text text-anchor="start" x="257.4351" y="-729.5" font-family="Helvetica,sans-Serif" font-size="10.00" fill="#000000">+ as()</text>
<text text-anchor="start" x="257.4351" y="-718.5" font-family="Helvetica,sans-Serif" font-size="10.00" fill="#000000">+ print()</text>
</a>
</g>
</g>
<!-- Node5&#45;&gt;Node9 -->
<g id="edge8" class="edge">
<title>Node5&#45;&gt;Node9</title>
<path fill="none" stroke="#404040" d="M401.4831,-992.3858C395.91,-986.6221 390.4639,-980.368 385.9351,-974 376.959,-961.3785 368.6042,-947.4964 360.9831,-933.3687"/>
<polygon fill="none" stroke="#404040" points="360.8742,-933.1609 354.5449,-929.7055 355.3001,-922.534 361.6295,-925.9895 360.8742,-933.1609"/>
<text text-anchor="middle" x="402.9351" y="-955" font-family="Helvetica,sans-Serif" font-size="10.00" fill="#000000"> +@78</text>
</g>
<!-- Node11 -->
<g id="node10" class="node">
<title>Node11</title>
<g id="a_node10"><a xlink:href="../../d9/db3/structo2_1_1header_1_1Descriptor.html" target="_top" xlink:title="{o2::header::Descriptor\l\&lt; gSizeSerializationMethodString \&gt;\n||+ Descriptor()\l+ Descriptor()\l+ Descriptor()\l+ Descriptor()\l+ operator=()\l+ operator ItgType()\l+ runtimeInit()\l+ operator==()\l+ operator==()\l+ operator\&lt;()\l+ operator!=()\l+ operator!=()\l+ as()\l+ print()\l}">
<polygon fill="none" stroke="#000000" points="146.4351,-441.5 146.4351,-652.5 337.4351,-652.5 337.4351,-441.5 146.4351,-441.5"/>
<text text-anchor="start" x="154.4351" y="-640.5" font-family="Helvetica,sans-Serif" font-size="10.00" fill="#000000">o2::header::Descriptor</text>
<text text-anchor="middle" x="241.9351" y="-629.5" font-family="Helvetica,sans-Serif" font-size="10.00" fill="#000000">&lt; gSizeSerializationMethodString &gt;</text>
<polyline fill="none" stroke="#000000" points="146.4351,-622.5 337.4351,-622.5 "/>
<text text-anchor="middle" x="241.9351" y="-610.5" font-family="Helvetica,sans-Serif" font-size="10.00" fill="#000000"> </text>
<polyline fill="none" stroke="#000000" points="146.4351,-603.5 337.4351,-603.5 "/>
<text text-anchor="start" x="154.4351" y="-591.5" font-family="Helvetica,sans-Serif" font-size="10.00" fill="#000000">+ Descriptor()</text>
<text text-anchor="start" x="154.4351" y="-580.5" font-family="Helvetica,sans-Serif" font-size="10.00" fill="#000000">+ Descriptor()</text>
<text text-anchor="start" x="154.4351" y="-569.5" font-family="Helvetica,sans-Serif" font-size="10.00" fill="#000000">+ Descriptor()</text>
<text text-anchor="start" x="154.4351" y="-558.5" font-family="Helvetica,sans-Serif" font-size="10.00" fill="#000000">+ Descriptor()</text>
<text text-anchor="start" x="154.4351" y="-547.5" font-family="Helvetica,sans-Serif" font-size="10.00" fill="#000000">+ operator=()</text>
<text text-anchor="start" x="154.4351" y="-536.5" font-family="Helvetica,sans-Serif" font-size="10.00" fill="#000000">+ operator ItgType()</text>
<text text-anchor="start" x="154.4351" y="-525.5" font-family="Helvetica,sans-Serif" font-size="10.00" fill="#000000">+ runtimeInit()</text>
<text text-anchor="start" x="154.4351" y="-514.5" font-family="Helvetica,sans-Serif" font-size="10.00" fill="#000000">+ operator==()</text>
<text text-anchor="start" x="154.4351" y="-503.5" font-family="Helvetica,sans-Serif" font-size="10.00" fill="#000000">+ operator==()</text>
<text text-anchor="start" x="154.4351" y="-492.5" font-family="Helvetica,sans-Serif" font-size="10.00" fill="#000000">+ operator&lt;()</text>
<text text-anchor="start" x="154.4351" y="-481.5" font-family="Helvetica,sans-Serif" font-size="10.00" fill="#000000">+ operator!=()</text>
<text text-anchor="start" x="154.4351" y="-470.5" font-family="Helvetica,sans-Serif" font-size="10.00" fill="#000000">+ operator!=()</text>
<text text-anchor="start" x="154.4351" y="-459.5" font-family="Helvetica,sans-Serif" font-size="10.00" fill="#000000">+ as()</text>
<text text-anchor="start" x="154.4351" y="-448.5" font-family="Helvetica,sans-Serif" font-size="10.00" fill="#000000">+ print()</text>
</a>
</g>
</g>
<!-- Node5&#45;&gt;Node11 -->
<g id="edge15" class="edge">
<title>Node5&#45;&gt;Node11</title>
<path fill="none" stroke="#404040" d="M430.9733,-992.3698C428.8649,-976.8933 425.4092,-957.6049 419.9351,-941 417.1347,-932.5054 413.5568,-931.5514 410.9351,-923 383.0775,-832.1339 421.7516,-797.7524 382.9351,-711 373.2925,-689.4495 359.8807,-668.5917 345.1329,-649.3864"/>
<polygon fill="none" stroke="#404040" points="344.996,-649.2131 338.1374,-646.986 337.5553,-639.7984 344.4139,-642.0255 344.996,-649.2131"/>
<text text-anchor="middle" x="427.9351" y="-814.5" font-family="Helvetica,sans-Serif" font-size="10.00" fill="#000000"> +@78</text>
</g>
<!-- Node6 -->
<g id="node5" class="node">
<title>Node6</title>
<polygon fill="none" stroke="#bfbfbf" points="292.4351,-992.5 292.4351,-1049.5 331.4351,-1049.5 331.4351,-992.5 292.4351,-992.5"/>
<text text-anchor="middle" x="311.9351" y="-1037.5" font-family="Helvetica,sans-Serif" font-size="10.00" fill="#000000">Type</text>
<polyline fill="none" stroke="#bfbfbf" points="292.4351,-1030.5 331.4351,-1030.5 "/>
<text text-anchor="middle" x="311.9351" y="-1018.5" font-family="Helvetica,sans-Serif" font-size="10.00" fill="#000000"> </text>
<polyline fill="none" stroke="#bfbfbf" points="292.4351,-1011.5 331.4351,-1011.5 "/>
<text text-anchor="middle" x="311.9351" y="-999.5" font-family="Helvetica,sans-Serif" font-size="10.00" fill="#000000"> </text>
</g>
<!-- Node6&#45;&gt;Node4 -->
<g id="edge4" class="edge">
<title>Node6&#45;&gt;Node4</title>
<path fill="none" stroke="#404040" d="M328.1628,-992.3458C340.1084,-972.2323 355.9456,-947.7655 365.9351,-941 397.1883,-919.8333 422.2429,-949.6893 448.9351,-923 517.1143,-854.8282 433.2657,-785.1127 494.9351,-711 508.1869,-695.0744 526.4571,-710.2479 537.9351,-693 543.8434,-684.1216 546.5938,-674.5493 547.013,-664.7022"/>
<polygon fill="none" stroke="#404040" points="547.0066,-664.5685 542.7199,-658.7699 546.4237,-652.5827 550.7104,-658.3813 547.0066,-664.5685"/>
<text text-anchor="middle" x="507.4351" y="-814.5" font-family="Helvetica,sans-Serif" font-size="10.00" fill="#000000"> +itg</text>
</g>
<!-- Node6&#45;&gt;Node9 -->
<g id="edge9" class="edge">
<title>Node6&#45;&gt;Node9</title>
<path fill="none" stroke="#404040" d="M311.9351,-992.2045C311.9351,-976.616 311.9351,-956.2061 311.9351,-934.8459"/>
<polygon fill="none" stroke="#404040" points="311.9352,-934.5491 307.9352,-928.5491 311.9351,-922.5491 315.9352,-928.5491 311.9352,-934.5491"/>
<text text-anchor="middle" x="324.4351" y="-955" font-family="Helvetica,sans-Serif" font-size="10.00" fill="#000000"> +itg</text>
</g>
<!-- Node6&#45;&gt;Node11 -->
<g id="edge16" class="edge">
<title>Node6&#45;&gt;Node11</title>
<path fill="none" stroke="#404040" d="M302.5185,-992.3164C295.1532,-974.5852 283.075,-952.9938 264.9351,-941 238.9539,-923.8216 146.4964,-946.3956 125.9351,-923 63.735,-852.2259 97.3884,-800.7937 125.9351,-711 131.129,-694.6627 138.6052,-678.5527 147.2958,-663.1851"/>
<polygon fill="none" stroke="#404040" points="147.3997,-663.0087 147.0005,-655.8086 153.4932,-652.6709 153.8924,-659.8709 147.3997,-663.0087"/>
<text text-anchor="middle" x="138.4351" y="-814.5" font-family="Helvetica,sans-Serif" font-size="10.00" fill="#000000"> +itg</text>
</g>
<!-- Node7 -->
<g id="node6" class="node">
<title>Node7</title>
<polygon fill="none" stroke="#bfbfbf" points="609.9351,-992.5 609.9351,-1049.5 647.9351,-1049.5 647.9351,-992.5 609.9351,-992.5"/>
<text text-anchor="middle" x="628.9351" y="-1037.5" font-family="Helvetica,sans-Serif" font-size="10.00" fill="#000000">char</text>
<polyline fill="none" stroke="#bfbfbf" points="609.9351,-1030.5 647.9351,-1030.5 "/>
<text text-anchor="middle" x="628.9351" y="-1018.5" font-family="Helvetica,sans-Serif" font-size="10.00" fill="#000000"> </text>
<polyline fill="none" stroke="#bfbfbf" points="609.9351,-1011.5 647.9351,-1011.5 "/>
<text text-anchor="middle" x="628.9351" y="-999.5" font-family="Helvetica,sans-Serif" font-size="10.00" fill="#000000"> </text>
</g>
<!-- Node7&#45;&gt;Node3 -->
<g id="edge13" class="edge">
<title>Node7&#45;&gt;Node3</title>
<path fill="none" stroke="#404040" d="M648.1164,-999.9113C663.7572,-981.2271 684.715,-952.4173 693.9351,-923 756.6125,-723.0238 747.7322,-473.7591 736.4105,-339.8125"/>
<polygon fill="none" stroke="#404040" points="736.3889,-339.5643 731.8821,-333.935 735.3451,-327.6098 739.8518,-333.2391 736.3889,-339.5643"/>
<text text-anchor="middle" x="773.9351" y="-679.5" font-family="Helvetica,sans-Serif" font-size="10.00" fill="#000000"> +magicString</text>
</g>
<!-- Node7&#45;&gt;Node4 -->
<g id="edge5" class="edge">
<title>Node7&#45;&gt;Node4</title>
<path fill="none" stroke="#404040" d="M638.3209,-992.13C655.0451,-935.4689 684.5348,-806.8806 642.9351,-711 629.2071,-679.3592 611.1686,-679.2923 581.2262,-652.7694"/>
<polygon fill="none" stroke="#404040" points="581.2078,-652.7521 574.0956,-651.5617 572.459,-644.5387 579.5712,-645.7291 581.2078,-652.7521"/>
<text text-anchor="middle" x="677.4351" y="-814.5" font-family="Helvetica,sans-Serif" font-size="10.00" fill="#000000"> +str</text>
</g>
<!-- Node7&#45;&gt;Node9 -->
<g id="edge10" class="edge">
<title>Node7&#45;&gt;Node9</title>
<path fill="none" stroke="#404040" d="M609.8924,-1013.9145C556.404,-993.9166 407.4827,-937.5475 388.9351,-923 387.0559,-921.5261 385.2013,-919.9947 383.3724,-918.4131"/>
<polygon fill="none" stroke="#404040" points="383.2386,-918.2888 376.1205,-917.1346 374.4482,-910.12 381.5663,-911.2743 383.2386,-918.2888"/>
<text text-anchor="middle" x="516.4351" y="-955" font-family="Helvetica,sans-Serif" font-size="10.00" fill="#000000"> +str</text>
</g>
<!-- Node7&#45;&gt;Node11 -->
<g id="edge17" class="edge">
<title>Node7&#45;&gt;Node11</title>
<path fill="none" stroke="#404040" d="M609.5708,-1006.1272C588.6304,-988.7592 556.3199,-957.9199 541.9351,-923 531.2539,-897.0707 547.1208,-691.4531 527.9351,-671 504.9666,-646.5141 408.9771,-665.787 377.9351,-653 367.7716,-648.8134 357.7257,-643.647 347.9729,-637.8681"/>
<polygon fill="none" stroke="#404040" points="347.7082,-637.7039 340.5009,-637.9375 337.5132,-631.3744 344.7206,-631.1408 347.7082,-637.7039"/>
<text text-anchor="middle" x="554.4351" y="-814.5" font-family="Helvetica,sans-Serif" font-size="10.00" fill="#000000"> +str</text>
</g>
<!-- Node8 -->
<g id="node7" class="node">
<title>Node8</title>
<polygon fill="none" stroke="#bfbfbf" points="158.4351,-992.5 158.4351,-1049.5 187.4351,-1049.5 187.4351,-992.5 158.4351,-992.5"/>
<text text-anchor="middle" x="172.9351" y="-1037.5" font-family="Helvetica,sans-Serif" font-size="10.00" fill="#000000">int</text>
<polyline fill="none" stroke="#bfbfbf" points="158.4351,-1030.5 187.4351,-1030.5 "/>
<text text-anchor="middle" x="172.9351" y="-1018.5" font-family="Helvetica,sans-Serif" font-size="10.00" fill="#000000"> </text>
<polyline fill="none" stroke="#bfbfbf" points="158.4351,-1011.5 187.4351,-1011.5 "/>
<text text-anchor="middle" x="172.9351" y="-999.5" font-family="Helvetica,sans-Serif" font-size="10.00" fill="#000000"> </text>
</g>
<!-- Node8&#45;&gt;Node4 -->
<g id="edge6" class="edge">
<title>Node8&#45;&gt;Node4</title>
<path fill="none" stroke="#404040" d="M170.0207,-992.3907C162.9463,-915.6607 148.9807,-708.5673 199.9351,-671 252.559,-632.2019 285.6137,-678.2169 345.9351,-653 356.4973,-648.5846 366.9203,-643.0913 377.006,-636.9456"/>
<polygon fill="none" stroke="#404040" points="377.2698,-636.7773 380.1764,-630.178 387.3861,-630.3227 384.4795,-636.9221 377.2698,-636.7773"/>
<text text-anchor="middle" x="205.9351" y="-825.5" font-family="Helvetica,sans-Serif" font-size="10.00" fill="#000000"> +arraySize</text>
<text text-anchor="middle" x="205.9351" y="-814.5" font-family="Helvetica,sans-Serif" font-size="10.00" fill="#000000">+size</text>
<text text-anchor="middle" x="205.9351" y="-803.5" font-family="Helvetica,sans-Serif" font-size="10.00" fill="#000000">+bitcount</text>
</g>
<!-- Node8&#45;&gt;Node9 -->
<g id="edge11" class="edge">
<title>Node8&#45;&gt;Node9</title>
<path fill="none" stroke="#404040" d="M187.5478,-999.554C200.8866,-979.9777 221.6311,-949.5325 242.382,-919.078"/>
<polygon fill="none" stroke="#404040" points="242.6517,-918.6821 242.7246,-911.4713 249.4088,-908.7653 249.3358,-915.9761 242.6517,-918.6821"/>
<text text-anchor="middle" x="254.9351" y="-966" font-family="Helvetica,sans-Serif" font-size="10.00" fill="#000000"> +arraySize</text>
<text text-anchor="middle" x="254.9351" y="-955" font-family="Helvetica,sans-Serif" font-size="10.00" fill="#000000">+size</text>
<text text-anchor="middle" x="254.9351" y="-944" font-family="Helvetica,sans-Serif" font-size="10.00" fill="#000000">+bitcount</text>
</g>
<!-- Node8&#45;&gt;Node11 -->
<g id="edge18" class="edge">
<title>Node8&#45;&gt;Node11</title>
<path fill="none" stroke="#404040" d="M158.2548,-1016.0765C127.9735,-1005.023 59.1432,-975.045 31.9351,-923 -11.7172,-839.4997 -9.378,-795.6821 31.9351,-711 54.1393,-665.4867 95.7549,-628.909 136.1199,-601.9474"/>
<polygon fill="none" stroke="#404040" points="136.2824,-601.8418 139.132,-595.2177 146.3427,-595.3004 143.493,-601.9246 136.2824,-601.8418"/>
<text text-anchor="middle" x="60.9351" y="-825.5" font-family="Helvetica,sans-Serif" font-size="10.00" fill="#000000"> +arraySize</text>
<text text-anchor="middle" x="60.9351" y="-814.5" font-family="Helvetica,sans-Serif" font-size="10.00" fill="#000000">+size</text>
<text text-anchor="middle" x="60.9351" y="-803.5" font-family="Helvetica,sans-Serif" font-size="10.00" fill="#000000">+bitcount</text>
</g>
<!-- Node9&#45;&gt;Node4 -->
<g id="edge7" class="edge">
<title>Node9&#45;&gt;Node4</title>
<path fill="none" stroke="#ffa500" d="M380.0023,-707.6063C391.2998,-689.4496 402.9964,-670.6515 414.2338,-652.5914"/>
<polygon fill="#ffa500" stroke="#ffa500" points="376.8035,-706.1223 374.4921,-716.462 382.7469,-709.8205 376.8035,-706.1223"/>
<text text-anchor="start" x="401.9351" y="-685" font-family="Helvetica,sans-Serif" font-size="10.00" fill="#000000"> &lt; gSizeHeaderDescription</text>
<text text-anchor="middle" x="467.9351" y="-674" font-family="Helvetica,sans-Serif" font-size="10.00" fill="#000000">String &gt;</text>
</g>
<!-- Node9&#45;&gt;Node11 -->
<g id="edge19" class="edge">
<title>Node9&#45;&gt;Node11</title>
<path fill="none" stroke="#ffa500" d="M242.6957,-719.0655C240.1361,-716.2966 237.5466,-713.6006 234.9351,-711 225.2334,-701.3391 216.1771,-705.1858 209.9351,-693 203.4877,-680.4131 201.2357,-666.5683 201.6852,-652.5718"/>
<polygon fill="#ffa500" stroke="#ffa500" points="240.1185,-721.4341 249.3964,-726.55 245.3338,-716.765 240.1185,-721.4341"/>
<text text-anchor="start" x="209.9351" y="-685" font-family="Helvetica,sans-Serif" font-size="10.00" fill="#000000"> &lt; gSizeSerializationMethod</text>
<text text-anchor="middle" x="278.9351" y="-674" font-family="Helvetica,sans-Serif" font-size="10.00" fill="#000000">String &gt;</text>
</g>
<!-- Node10 -->
<g id="node9" class="node">
<title>Node10</title>
<polygon fill="none" stroke="#bfbfbf" points="590.4351,-518.5 590.4351,-575.5 697.4351,-575.5 697.4351,-518.5 590.4351,-518.5"/>
<text text-anchor="middle" x="643.9351" y="-563.5" font-family="Helvetica,sans-Serif" font-size="10.00" fill="#000000">anonymous:+@80</text>
<polyline fill="none" stroke="#bfbfbf" points="590.4351,-556.5 697.4351,-556.5 "/>
<text text-anchor="middle" x="643.9351" y="-544.5" font-family="Helvetica,sans-Serif" font-size="10.00" fill="#000000"> </text>
<polyline fill="none" stroke="#bfbfbf" points="590.4351,-537.5 697.4351,-537.5 "/>
<text text-anchor="middle" x="643.9351" y="-525.5" font-family="Helvetica,sans-Serif" font-size="10.00" fill="#000000"> </text>
</g>
<!-- Node10&#45;&gt;Node3 -->
<g id="edge12" class="edge">
<title>Node10&#45;&gt;Node3</title>
<path fill="none" stroke="#404040" d="M646.2981,-518.4675C650.1193,-478.9797 659.2012,-405.7762 677.9351,-346 678.6484,-343.7239 679.4026,-341.4334 680.1922,-339.1349"/>
<polygon fill="none" stroke="#404040" points="680.2867,-338.8765 678.5914,-331.8675 684.4092,-327.6068 686.1045,-334.6158 680.2867,-338.8765"/>
<text text-anchor="middle" x="694.9351" y="-382" font-family="Helvetica,sans-Serif" font-size="10.00" fill="#000000"> +@80</text>
</g>
<!-- Node11&#45;&gt;Node3 -->
<g id="edge14" class="edge">
<title>Node11&#45;&gt;Node3</title>
<path fill="none" stroke="#404040" d="M337.5871,-446.3075C374.6332,-411.2663 418.9327,-373.8101 463.9351,-346 514.6881,-314.6363 576.7032,-289.9698 627.6562,-272.7551"/>
<polygon fill="none" stroke="#404040" points="627.9636,-272.6529 632.3958,-266.9647 639.3512,-268.8682 634.919,-274.5564 627.9636,-272.6529"/>
<text text-anchor="middle" x="499.9351" y="-382" font-family="Helvetica,sans-Serif" font-size="10.00" fill="#000000"> +serialization</text>
</g>
<!-- Node12 -->
<g id="node11" class="node">
<title>Node12</title>
<g id="a_node11"><a xlink:href="../../d3/d87/classuint32__t.html" target="_top" xlink:title="{uint32_t\n||}">
<polygon fill="none" stroke="#000000" points="753.9351,-518.5 753.9351,-575.5 809.9351,-575.5 809.9351,-518.5 753.9351,-518.5"/>
<text text-anchor="middle" x="781.9351" y="-563.5" font-family="Helvetica,sans-Serif" font-size="10.00" fill="#000000">uint32_t</text>
<polyline fill="none" stroke="#000000" points="753.9351,-556.5 809.9351,-556.5 "/>
<text text-anchor="middle" x="781.9351" y="-544.5" font-family="Helvetica,sans-Serif" font-size="10.00" fill="#000000"> </text>
<polyline fill="none" stroke="#000000" points="753.9351,-537.5 809.9351,-537.5 "/>
<text text-anchor="middle" x="781.9351" y="-525.5" font-family="Helvetica,sans-Serif" font-size="10.00" fill="#000000"> </text>
</a>
</g>
</g>
<!-- Node12&#45;&gt;Node3 -->
<g id="edge20" class="edge">
<title>Node12&#45;&gt;Node3</title>
<path fill="none" stroke="#404040" d="M776.6668,-518.4945C769.175,-477.9586 755.0835,-401.7139 743.6497,-339.8486"/>
<polygon fill="none" stroke="#404040" points="743.5821,-339.4823 738.5582,-334.3092 741.4011,-327.6821 746.425,-332.8552 743.5821,-339.4823"/>
<text text-anchor="middle" x="805.4351" y="-415" font-family="Helvetica,sans-Serif" font-size="10.00" fill="#000000"> +headerVersion</text>
<text text-anchor="middle" x="805.4351" y="-404" font-family="Helvetica,sans-Serif" font-size="10.00" fill="#000000">+headerSize</text>
<text text-anchor="middle" x="805.4351" y="-393" font-family="Helvetica,sans-Serif" font-size="10.00" fill="#000000">+sMagicString</text>
<text text-anchor="middle" x="805.4351" y="-382" font-family="Helvetica,sans-Serif" font-size="10.00" fill="#000000">+flagsNextHeader</text>
<text text-anchor="middle" x="805.4351" y="-371" font-family="Helvetica,sans-Serif" font-size="10.00" fill="#000000">+magicStringInt</text>
<text text-anchor="middle" x="805.4351" y="-360" font-family="Helvetica,sans-Serif" font-size="10.00" fill="#000000">+flagsUnused</text>
<text text-anchor="middle" x="805.4351" y="-349" font-family="Helvetica,sans-Serif" font-size="10.00" fill="#000000">+flags</text>
</g>
<!-- Node13 -->
<g id="node12" class="node">
<title>Node13</title>
<polygon fill="none" stroke="#bfbfbf" points="828.4351,-518.5 828.4351,-575.5 935.4351,-575.5 935.4351,-518.5 828.4351,-518.5"/>
<text text-anchor="middle" x="881.9351" y="-563.5" font-family="Helvetica,sans-Serif" font-size="10.00" fill="#000000">anonymous:+@82</text>
<polyline fill="none" stroke="#bfbfbf" points="828.4351,-556.5 935.4351,-556.5 "/>
<text text-anchor="middle" x="881.9351" y="-544.5" font-family="Helvetica,sans-Serif" font-size="10.00" fill="#000000"> </text>
<polyline fill="none" stroke="#bfbfbf" points="828.4351,-537.5 935.4351,-537.5 "/>
<text text-anchor="middle" x="881.9351" y="-525.5" font-family="Helvetica,sans-Serif" font-size="10.00" fill="#000000"> </text>
</g>
<!-- Node13&#45;&gt;Node3 -->
<g id="edge21" class="edge">
<title>Node13&#45;&gt;Node3</title>
<path fill="none" stroke="#404040" d="M885.7053,-518.1797C889.6082,-476.3756 890.8504,-398.2178 854.9351,-346 847.0208,-334.4933 838.8531,-336.3253 822.9566,-327.7424"/>
<polygon fill="none" stroke="#404040" points="822.8263,-327.6611 815.6184,-327.8764 812.6473,-321.3058 819.8552,-321.0905 822.8263,-327.6611"/>
<text text-anchor="middle" x="899.9351" y="-382" font-family="Helvetica,sans-Serif" font-size="10.00" fill="#000000"> +@82</text>
</g>
<!-- Node14 -->
<g id="node13" class="node">
<title>Node14</title>
<polygon fill="none" stroke="#bfbfbf" points="953.4351,-518.5 953.4351,-575.5 996.4351,-575.5 996.4351,-518.5 953.4351,-518.5"/>
<text text-anchor="middle" x="974.9351" y="-563.5" font-family="Helvetica,sans-Serif" font-size="10.00" fill="#000000">const</text>
<polyline fill="none" stroke="#bfbfbf" points="953.4351,-556.5 996.4351,-556.5 "/>
<text text-anchor="middle" x="974.9351" y="-544.5" font-family="Helvetica,sans-Serif" font-size="10.00" fill="#000000"> </text>
<polyline fill="none" stroke="#bfbfbf" points="953.4351,-537.5 996.4351,-537.5 "/>
<text text-anchor="middle" x="974.9351" y="-525.5" font-family="Helvetica,sans-Serif" font-size="10.00" fill="#000000"> </text>
</g>
<!-- Node14&#45;&gt;Node3 -->
<g id="edge22" class="edge">
<title>Node14&#45;&gt;Node3</title>
<path fill="none" stroke="#404040" d="M976.1336,-518.2141C976.2734,-474.2534 969.5825,-390.7861 920.9351,-346 890.604,-318.0763 866.2942,-342.8486 823.6838,-327.7518"/>
<polygon fill="none" stroke="#404040" points="823.4941,-327.6717 816.41,-329.0192 812.4415,-322.9983 819.5256,-321.6508 823.4941,-327.6717"/>
<text text-anchor="middle" x="1019.4351" y="-393" font-family="Helvetica,sans-Serif" font-size="10.00" fill="#000000"> +sHeaderType</text>
<text text-anchor="middle" x="1019.4351" y="-382" font-family="Helvetica,sans-Serif" font-size="10.00" fill="#000000">+sSerializationMethod</text>
<text text-anchor="middle" x="1019.4351" y="-371" font-family="Helvetica,sans-Serif" font-size="10.00" fill="#000000">+sVersion</text>
</g>
<!-- Node15 -->
<g id="node14" class="node">
<title>Node15</title>
<polygon fill="none" stroke="#bfbfbf" points="830.4351,-215.5 830.4351,-272.5 937.4351,-272.5 937.4351,-215.5 830.4351,-215.5"/>
<text text-anchor="middle" x="883.9351" y="-260.5" font-family="Helvetica,sans-Serif" font-size="10.00" fill="#000000">anonymous:+@38</text>
<polyline fill="none" stroke="#bfbfbf" points="830.4351,-253.5 937.4351,-253.5 "/>
<text text-anchor="middle" x="883.9351" y="-241.5" font-family="Helvetica,sans-Serif" font-size="10.00" fill="#000000"> </text>
<polyline fill="none" stroke="#bfbfbf" points="830.4351,-234.5 937.4351,-234.5 "/>
<text text-anchor="middle" x="883.9351" y="-222.5" font-family="Helvetica,sans-Serif" font-size="10.00" fill="#000000"> </text>
</g>
<!-- Node15&#45;&gt;Node2 -->
<g id="edge23" class="edge">
<title>Node15&#45;&gt;Node2</title>
<path fill="none" stroke="#404040" d="M886.4377,-215.3656C889.5553,-183.6847 895.7505,-131.2566 905.9351,-87 906.4293,-84.8526 906.9719,-82.6673 907.5502,-80.4682"/>
<polygon fill="none" stroke="#404040" points="907.6123,-80.251 905.4162,-73.3824 910.9118,-68.7135 913.1079,-75.5821 907.6123,-80.251"/>
<text text-anchor="middle" x="922.9351" y="-112" font-family="Helvetica,sans-Serif" font-size="10.00" fill="#000000"> +@38</text>
</g>
<!-- Node16 -->
<g id="node15" class="node">
<title>Node16</title>
<g id="a_node15"><a xlink:href="../../d6/d30/classuint64__t.html" target="_top" xlink:title="{uint64_t\n||}">
<polygon fill="none" stroke="#000000" points="955.9351,-215.5 955.9351,-272.5 1011.9351,-272.5 1011.9351,-215.5 955.9351,-215.5"/>
<text text-anchor="middle" x="983.9351" y="-260.5" font-family="Helvetica,sans-Serif" font-size="10.00" fill="#000000">uint64_t</text>
<polyline fill="none" stroke="#000000" points="955.9351,-253.5 1011.9351,-253.5 "/>
<text text-anchor="middle" x="983.9351" y="-241.5" font-family="Helvetica,sans-Serif" font-size="10.00" fill="#000000"> </text>
<polyline fill="none" stroke="#000000" points="955.9351,-234.5 1011.9351,-234.5 "/>
<text text-anchor="middle" x="983.9351" y="-222.5" font-family="Helvetica,sans-Serif" font-size="10.00" fill="#000000"> </text>
</a>
</g>
</g>
<!-- Node16&#45;&gt;Node2 -->
<g id="edge24" class="edge">
<title>Node16&#45;&gt;Node2</title>
<path fill="none" stroke="#404040" d="M976.2481,-215.2516C967.7235,-183.6927 953.3933,-131.578 939.9351,-87 939.2602,-84.7644 938.5597,-82.4786 937.8445,-80.1724"/>
<polygon fill="none" stroke="#404040" points="937.8072,-80.0538 932.1879,-75.5346 934.1981,-68.6093 939.8175,-73.1285 937.8072,-80.0538"/>
<text text-anchor="middle" x="1004.9351" y="-134" font-family="Helvetica,sans-Serif" font-size="10.00" fill="#000000"> +sectorBits</text>
<text text-anchor="middle" x="1004.9351" y="-123" font-family="Helvetica,sans-Serif" font-size="10.00" fill="#000000">+unused</text>
<text text-anchor="middle" x="1004.9351" y="-112" font-family="Helvetica,sans-Serif" font-size="10.00" fill="#000000">+flags</text>
<text text-anchor="middle" x="1004.9351" y="-101" font-family="Helvetica,sans-Serif" font-size="10.00" fill="#000000">+activeSectorsFlags</text>
<text text-anchor="middle" x="1004.9351" y="-90" font-family="Helvetica,sans-Serif" font-size="10.00" fill="#000000">+activeSectors</text>
</g>
<!-- Node17 -->
<g id="node16" class="node">
<title>Node17</title>
<polygon fill="none" stroke="#bfbfbf" points="1062.9351,-215.5 1062.9351,-272.5 1106.9351,-272.5 1106.9351,-215.5 1062.9351,-215.5"/>
<text text-anchor="middle" x="1084.9351" y="-260.5" font-family="Helvetica,sans-Serif" font-size="10.00" fill="#000000">static</text>
<polyline fill="none" stroke="#bfbfbf" points="1062.9351,-253.5 1106.9351,-253.5 "/>
<text text-anchor="middle" x="1084.9351" y="-241.5" font-family="Helvetica,sans-Serif" font-size="10.00" fill="#000000"> </text>
<polyline fill="none" stroke="#bfbfbf" points="1062.9351,-234.5 1106.9351,-234.5 "/>
<text text-anchor="middle" x="1084.9351" y="-222.5" font-family="Helvetica,sans-Serif" font-size="10.00" fill="#000000"> </text>
</g>
<!-- Node17&#45;&gt;Node2 -->
<g id="edge25" class="edge">
<title>Node17&#45;&gt;Node2</title>
<path fill="none" stroke="#404040" d="M1088.1235,-215.3848C1090.3328,-181.0437 1088.6741,-123.5318 1058.9351,-87 1045.049,-69.9421 1024.9176,-58.4154 1004.3815,-50.6303"/>
<polygon fill="none" stroke="#404040" points="1004.3077,-50.6048 997.3292,-52.4216 992.9681,-46.6788 999.9465,-44.8619 1004.3077,-50.6048"/>
<text text-anchor="middle" x="1120.4351" y="-123" font-family="Helvetica,sans-Serif" font-size="10.00" fill="#000000"> +sHeaderType</text>
<text text-anchor="middle" x="1120.4351" y="-112" font-family="Helvetica,sans-Serif" font-size="10.00" fill="#000000">+NSectors</text>
<text text-anchor="middle" x="1120.4351" y="-101" font-family="Helvetica,sans-Serif" font-size="10.00" fill="#000000">+sVersion</text>
</g>
</g>
</svg>
