<?xml version="1.0" encoding="UTF-8" standalone="no"?>
<!DOCTYPE svg PUBLIC "-//W3C//DTD SVG 1.1//EN"
 "http://www.w3.org/Graphics/SVG/1.1/DTD/svg11.dtd">
<!-- Generated by graphviz version 2.40.1 (20161225.0304)
 -->
<!-- Title: TPCPIDQASignalwTOFTask Pages: 1 -->
<!--zoomable 474 -->
<svg id="main" version="1.1" xmlns="http://www.w3.org/2000/svg" xmlns:xlink="http://www.w3.org/1999/xlink" xml:space="preserve" onload="init(evt)">
<style type="text/css"><![CDATA[
.edge:hover path { stroke: red; }
.edge:hover polygon { stroke: red; fill: red; }
]]></style>
<script type="text/javascript"><![CDATA[
var edges = document.getElementsByTagName('g');
if (edges && edges.length) {
  for (var i=0;i<edges.length;i++) {
    if (edges[i].id.substr(0,4)=='edge') {
      edges[i].setAttribute('class','edge');
    }
  }
}
]]></script>
        <defs>
                <circle id="rim" cx="0" cy="0" r="7"/>
                <circle id="rim2" cx="0" cy="0" r="3.5"/>
                <g id="zoomPlus">
                        <use xlink:href="#rim" fill="#404040">
                                <set attributeName="fill" to="#808080" begin="zoomplus.mouseover" end="zoomplus.mouseout"/>
                        </use>
                        <path d="M-4,0h8M0,-4v8" fill="none" stroke="white" stroke-width="1.5" pointer-events="none"/>
                </g>
                <g id="zoomMin">
                        <use xlink:href="#rim" fill="#404040">
                                <set attributeName="fill" to="#808080" begin="zoomminus.mouseover" end="zoomminus.mouseout"/>
                        </use>
                        <path d="M-4,0h8" fill="none" stroke="white" stroke-width="1.5" pointer-events="none"/>
                </g>
                <g id="dirArrow">
                        <path fill="none" stroke="white" stroke-width="1.5" d="M0,-3.0v7 M-2.5,-0.5L0,-3.0L2.5,-0.5"/>
                </g>
               <g id="resetDef">
                       <use xlink:href="#rim2" fill="#404040">
                               <set attributeName="fill" to="#808080" begin="reset.mouseover" end="reset.mouseout"/>
                       </use>
               </g>
        </defs>

<script type="text/javascript">
var viewWidth = 324;
var viewHeight = 474;
var sectionId = 'dynsection-0';
</script>
<script xlink:href="../../svgpan.js"/>
<svg id="graph" class="graph">
<g id="viewport">
<title>TPCPIDQASignalwTOFTask</title>
<!-- Node1 -->
<g id="node1" class="node">
<title>Node1</title>
<polygon fill="#bfbfbf" stroke="#000000" points="83,-.5 83,-68.5 228,-68.5 228,-.5 83,-.5"/>
<text text-anchor="middle" x="155.5" y="-56.5" font-family="Helvetica,sans-Serif" font-size="10.00" fill="#000000">TPCPIDQASignalwTOFTask</text>
<polyline fill="none" stroke="#000000" points="83,-49.5 228,-49.5 "/>
<text text-anchor="middle" x="155.5" y="-37.5" font-family="Helvetica,sans-Serif" font-size="10.00" fill="#000000"> </text>
<polyline fill="none" stroke="#000000" points="83,-30.5 228,-30.5 "/>
<text text-anchor="start" x="91" y="-18.5" font-family="Helvetica,sans-Serif" font-size="10.00" fill="#000000">+ init()</text>
<text text-anchor="start" x="91" y="-7.5" font-family="Helvetica,sans-Serif" font-size="10.00" fill="#000000">+ process()</text>
</g>
<!-- Node2 -->
<g id="node2" class="node">
<title>Node2</title>
<g id="a_node2"><a xlink:href="../../d8/d34/classo2_1_1framework_1_1HistogramRegistry.html" target="_top" xlink:title="{o2::framework::Histogram\lRegistry\n||+ HistogramRegistry()\l+ add()\l+ add()\l+ add()\l+ addClone()\l+ get()\l+ operator()()\l+ spec()\l+ ref()\l+ setHash()\l+ operator*()\l+ fill()\l+ fill()\l+ getSize()\l+ getSize()\l+ print()\l}">
<polygon fill="none" stroke="#000000" points="0,-116.5 0,-349.5 145,-349.5 145,-116.5 0,-116.5"/>
<text text-anchor="start" x="8" y="-337.5" font-family="Helvetica,sans-Serif" font-size="10.00" fill="#000000">o2::framework::Histogram</text>
<text text-anchor="middle" x="72.5" y="-326.5" font-family="Helvetica,sans-Serif" font-size="10.00" fill="#000000">Registry</text>
<polyline fill="none" stroke="#000000" points="0,-319.5 145,-319.5 "/>
<text text-anchor="middle" x="72.5" y="-307.5" font-family="Helvetica,sans-Serif" font-size="10.00" fill="#000000"> </text>
<polyline fill="none" stroke="#000000" points="0,-300.5 145,-300.5 "/>
<text text-anchor="start" x="8" y="-288.5" font-family="Helvetica,sans-Serif" font-size="10.00" fill="#000000">+ HistogramRegistry()</text>
<text text-anchor="start" x="8" y="-277.5" font-family="Helvetica,sans-Serif" font-size="10.00" fill="#000000">+ add()</text>
<text text-anchor="start" x="8" y="-266.5" font-family="Helvetica,sans-Serif" font-size="10.00" fill="#000000">+ add()</text>
<text text-anchor="start" x="8" y="-255.5" font-family="Helvetica,sans-Serif" font-size="10.00" fill="#000000">+ add()</text>
<text text-anchor="start" x="8" y="-244.5" font-family="Helvetica,sans-Serif" font-size="10.00" fill="#000000">+ addClone()</text>
<text text-anchor="start" x="8" y="-233.5" font-family="Helvetica,sans-Serif" font-size="10.00" fill="#000000">+ get()</text>
<text text-anchor="start" x="8" y="-222.5" font-family="Helvetica,sans-Serif" font-size="10.00" fill="#000000">+ operator()()</text>
<text text-anchor="start" x="8" y="-211.5" font-family="Helvetica,sans-Serif" font-size="10.00" fill="#000000">+ spec()</text>
<text text-anchor="start" x="8" y="-200.5" font-family="Helvetica,sans-Serif" font-size="10.00" fill="#000000">+ ref()</text>
<text text-anchor="start" x="8" y="-189.5" font-family="Helvetica,sans-Serif" font-size="10.00" fill="#000000">+ setHash()</text>
<text text-anchor="start" x="8" y="-178.5" font-family="Helvetica,sans-Serif" font-size="10.00" fill="#000000">+ operator*()</text>
<text text-anchor="start" x="8" y="-167.5" font-family="Helvetica,sans-Serif" font-size="10.00" fill="#000000">+ fill()</text>
<text text-anchor="start" x="8" y="-156.5" font-family="Helvetica,sans-Serif" font-size="10.00" fill="#000000">+ fill()</text>
<text text-anchor="start" x="8" y="-145.5" font-family="Helvetica,sans-Serif" font-size="10.00" fill="#000000">+ getSize()</text>
<text text-anchor="start" x="8" y="-134.5" font-family="Helvetica,sans-Serif" font-size="10.00" fill="#000000">+ getSize()</text>
<text text-anchor="start" x="8" y="-123.5" font-family="Helvetica,sans-Serif" font-size="10.00" fill="#000000">+ print()</text>
</a>
</g>
</g>
<!-- Node2&#45;&gt;Node1 -->
<g id="edge1" class="edge">
<title>Node2&#45;&gt;Node1</title>
<path fill="none" stroke="#404040" d="M121.2615,-116.3836C126.6565,-103.4811 131.8826,-90.9827 136.5594,-79.7976"/>
<polygon fill="none" stroke="#404040" points="136.5892,-79.7263 135.2135,-72.6476 141.2185,-68.6551 142.5942,-75.7338 136.5892,-79.7263"/>
<text text-anchor="middle" x="154" y="-90" font-family="Helvetica,sans-Serif" font-size="10.00" fill="#000000"> +histos</text>
</g>
<!-- Node3 -->
<g id="node3" class="node">
<title>Node3</title>
<polygon fill="none" stroke="#bfbfbf" points="44.5,-403 44.5,-460 100.5,-460 100.5,-403 44.5,-403"/>
<text text-anchor="middle" x="72.5" y="-448" font-family="Helvetica,sans-Serif" font-size="10.00" fill="#000000">uint32_t</text>
<polyline fill="none" stroke="#bfbfbf" points="44.5,-441 100.5,-441 "/>
<text text-anchor="middle" x="72.5" y="-429" font-family="Helvetica,sans-Serif" font-size="10.00" fill="#000000"> </text>
<polyline fill="none" stroke="#bfbfbf" points="44.5,-422 100.5,-422 "/>
<text text-anchor="middle" x="72.5" y="-410" font-family="Helvetica,sans-Serif" font-size="10.00" fill="#000000"> </text>
</g>
<!-- Node3&#45;&gt;Node2 -->
<g id="edge2" class="edge">
<title>Node3&#45;&gt;Node2</title>
<path fill="none" stroke="#404040" d="M72.5,-402.6364C72.5,-391.1823 72.5,-377.1514 72.5,-362.1118"/>
<polygon fill="none" stroke="#404040" points="72.5001,-361.8639 68.5,-355.864 72.5,-349.8639 76.5,-355.8639 72.5001,-361.8639"/>
<text text-anchor="middle" x="95" y="-371" font-family="Helvetica,sans-Serif" font-size="10.00" fill="#000000"> +lookup</text>
</g>
<!-- Node4 -->
<g id="node4" class="node">
<title>Node4</title>
<g id="a_node4"><a xlink:href="../../d1/d9a/structo2_1_1framework_1_1expressions_1_1Filter.html" target="_top" xlink:title="A struct, containing the root of the expression tree. ">
<polygon fill="none" stroke="#000000" points="163.5,-193.5 163.5,-272.5 315.5,-272.5 315.5,-193.5 163.5,-193.5"/>
<text text-anchor="start" x="171.5" y="-260.5" font-family="Helvetica,sans-Serif" font-size="10.00" fill="#000000">o2::framework::expressions</text>
<text text-anchor="middle" x="239.5" y="-249.5" font-family="Helvetica,sans-Serif" font-size="10.00" fill="#000000">::Filter</text>
<polyline fill="none" stroke="#000000" points="163.5,-242.5 315.5,-242.5 "/>
<text text-anchor="middle" x="239.5" y="-230.5" font-family="Helvetica,sans-Serif" font-size="10.00" fill="#000000"> </text>
<polyline fill="none" stroke="#000000" points="163.5,-223.5 315.5,-223.5 "/>
<text text-anchor="start" x="171.5" y="-211.5" font-family="Helvetica,sans-Serif" font-size="10.00" fill="#000000">+ Filter()</text>
<text text-anchor="start" x="171.5" y="-200.5" font-family="Helvetica,sans-Serif" font-size="10.00" fill="#000000">+ Filter()</text>
</a>
</g>
</g>
<!-- Node4&#45;&gt;Node1 -->
<g id="edge3" class="edge">
<title>Node4&#45;&gt;Node1</title>
<path fill="none" stroke="#404040" d="M223.1136,-193.2639C210.9361,-163.8613 193.8462,-122.8628 178.5,-87 177.506,-84.6771 176.4829,-82.2986 175.4463,-79.8983"/>
<polygon fill="none" stroke="#404040" points="175.3349,-79.6416 169.2761,-75.7312 170.5553,-68.6345 176.6141,-72.5448 175.3349,-79.6416"/>
<text text-anchor="middle" x="222" y="-90" font-family="Helvetica,sans-Serif" font-size="10.00" fill="#000000"> +trackFilterTOF</text>
</g>
<!-- Node5 -->
<g id="node5" class="node">
<title>Node5</title>
<polygon fill="none" stroke="#bfbfbf" points="164,-397.5 164,-465.5 315,-465.5 315,-397.5 164,-397.5"/>
<text text-anchor="start" x="172" y="-453.5" font-family="Helvetica,sans-Serif" font-size="10.00" fill="#000000">unique_ptr&lt; o2::framework</text>
<text text-anchor="middle" x="239.5" y="-442.5" font-family="Helvetica,sans-Serif" font-size="10.00" fill="#000000">::expressions::Node &gt;</text>
<polyline fill="none" stroke="#bfbfbf" points="164,-435.5 315,-435.5 "/>
<text text-anchor="middle" x="239.5" y="-423.5" font-family="Helvetica,sans-Serif" font-size="10.00" fill="#000000"> </text>
<polyline fill="none" stroke="#bfbfbf" points="164,-416.5 315,-416.5 "/>
<text text-anchor="middle" x="239.5" y="-404.5" font-family="Helvetica,sans-Serif" font-size="10.00" fill="#000000"> </text>
</g>
<!-- Node5&#45;&gt;Node4 -->
<g id="edge4" class="edge">
<title>Node5&#45;&gt;Node4</title>
<path fill="none" stroke="#404040" d="M239.5,-397.3766C239.5,-366.4397 239.5,-320.3877 239.5,-284.8919"/>
<polygon fill="none" stroke="#404040" points="239.5001,-284.8189 235.5,-278.8189 239.5,-272.8189 243.5,-278.8189 239.5001,-284.8189"/>
<text text-anchor="middle" x="257.5" y="-371" font-family="Helvetica,sans-Serif" font-size="10.00" fill="#000000"> +node</text>
</g>
</g>
</svg>
        <g id="navigator" transform="translate(0 0)" fill="#404254">
                <rect fill="#f2f5e9" fill-opacity="0.5" stroke="#606060" stroke-width=".5" x="0" y="0" width="60" height="60"/>
                <use id="zoomplus" xlink:href="#zoomPlus" x="17" y="9" onmousedown="handleZoom(evt,'in')"/>
                <use id="zoomminus" xlink:href="#zoomMin" x="42" y="9" onmousedown="handleZoom(evt,'out')"/>
                <use id="reset" xlink:href="#resetDef" x="30" y="36" onmousedown="handleReset()"/>
                <g id="arrowUp" xlink:href="#dirArrow" transform="translate(30 24)" onmousedown="handlePan(0,-1)">
                  <use xlink:href="#rim" fill="#404040">
                        <set attributeName="fill" to="#808080" begin="arrowUp.mouseover" end="arrowUp.mouseout"/>
                  </use>
                  <path fill="none" stroke="white" stroke-width="1.5" d="M0,-3.0v7 M-2.5,-0.5L0,-3.0L2.5,-0.5"/>
                </g>
                <g id="arrowRight" xlink:href="#dirArrow" transform="rotate(90) translate(36 -43)" onmousedown="handlePan(1,0)">
                  <use xlink:href="#rim" fill="#404040">
                        <set attributeName="fill" to="#808080" begin="arrowRight.mouseover" end="arrowRight.mouseout"/>
                  </use>
                  <path fill="none" stroke="white" stroke-width="1.5" d="M0,-3.0v7 M-2.5,-0.5L0,-3.0L2.5,-0.5"/>
                </g>
                <g id="arrowDown" xlink:href="#dirArrow" transform="rotate(180) translate(-30 -48)" onmousedown="handlePan(0,1)">
                  <use xlink:href="#rim" fill="#404040">
                        <set attributeName="fill" to="#808080" begin="arrowDown.mouseover" end="arrowDown.mouseout"/>
                  </use>
                  <path fill="none" stroke="white" stroke-width="1.5" d="M0,-3.0v7 M-2.5,-0.5L0,-3.0L2.5,-0.5"/>
                </g>
                <g id="arrowLeft" xlink:href="#dirArrow" transform="rotate(270) translate(-36 17)" onmousedown="handlePan(-1,0)">
                  <use xlink:href="#rim" fill="#404040">
                        <set attributeName="fill" to="#808080" begin="arrowLeft.mouseover" end="arrowLeft.mouseout"/>
                  </use>
                  <path fill="none" stroke="white" stroke-width="1.5" d="M0,-3.0v7 M-2.5,-0.5L0,-3.0L2.5,-0.5"/>
                </g>
        </g>
        <svg viewBox="0 0 15 15" width="100%" height="30px" preserveAspectRatio="xMaxYMin meet">
         <g id="arrow_out" transform="scale(0.3 0.3)">
          <a xlink:href="structTPCPIDQASignalwTOFTask__coll__graph_org.svg" target="_base">
           <rect id="button" ry="5" rx="5" y="6" x="6" height="38" width="38"
                fill="#f2f5e9" fill-opacity="0.5" stroke="#606060" stroke-width="1.0"/>
           <path id="arrow"
             d="M 11.500037,31.436501 C 11.940474,20.09759 22.043105,11.32322 32.158766,21.979434 L 37.068811,17.246167 C 37.068811,17.246167 37.088388,32 37.088388,32 L 22.160133,31.978069 C 22.160133,31.978069 26.997745,27.140456 26.997745,27.140456 C 18.528582,18.264221 13.291696,25.230495 11.500037,31.436501 z"
             style="fill:#404040;"/>
          </a>
         </g>
        </svg>
</svg>
