<?xml version="1.0" encoding="UTF-8" standalone="no"?>
<!DOCTYPE svg PUBLIC "-//W3C//DTD SVG 1.1//EN"
 "http://www.w3.org/Graphics/SVG/1.1/DTD/svg11.dtd">
<!-- Generated by graphviz version 2.40.1 (20161225.0304)
 -->
<!-- Title: /home/travis/build/AliceO2Group/AliceO2/Detectors/MUON/MCH/Tracking/src/TrackFitter.cxx Pages: 1 -->
<svg width="2517pt" height="464pt"
 viewBox="0.00 0.00 2516.74 464.00" xmlns="http://www.w3.org/2000/svg" xmlns:xlink="http://www.w3.org/1999/xlink">
<g id="graph0" class="graph" transform="scale(1 1) rotate(0) translate(4 460)">
<title>/home/travis/build/AliceO2Group/AliceO2/Detectors/MUON/MCH/Tracking/src/TrackFitter.cxx</title>
<!-- Node0 -->
<g id="node1" class="node">
<title>Node0</title>
<polygon fill="#bfbfbf" stroke="#000000" points="1035,-403.5 1035,-455.5 1205,-455.5 1205,-403.5 1035,-403.5"/>
<text text-anchor="start" x="1043" y="-443.5" font-family="Helvetica,sans-Serif" font-size="10.00" fill="#000000">/home/travis/build</text>
<text text-anchor="start" x="1043" y="-432.5" font-family="Helvetica,sans-Serif" font-size="10.00" fill="#000000">/AliceO2Group/AliceO2</text>
<text text-anchor="start" x="1043" y="-421.5" font-family="Helvetica,sans-Serif" font-size="10.00" fill="#000000">/Detectors/MUON/MCH/Tracking</text>
<text text-anchor="middle" x="1120" y="-410.5" font-family="Helvetica,sans-Serif" font-size="10.00" fill="#000000">/src/TrackFitter.cxx</text>
</g>
<!-- Node1 -->
<g id="node2" class="node">
<title>Node1</title>
<g id="a_node2"><a xlink:href="../../de/d6b/MUON_2MCH_2Tracking_2src_2TrackFitter_8h.html" target="_top" xlink:title="TrackFitter.h">
<polygon fill="none" stroke="#000000" points="797.5,-347.5 797.5,-366.5 872.5,-366.5 872.5,-347.5 797.5,-347.5"/>
<text text-anchor="middle" x="835" y="-354.5" font-family="Helvetica,sans-Serif" font-size="10.00" fill="#000000">TrackFitter.h</text>
</a>
</g>
</g>
<!-- Node0&#45;&gt;Node1 -->
<g id="edge1" class="edge">
<title>Node0&#45;&gt;Node1</title>
<path fill="none" stroke="#191970" d="M1034.8766,-407.8458C985.0235,-395.1639 923.9229,-379.6207 882.4968,-369.0825"/>
<polygon fill="#191970" stroke="#191970" points="883.2225,-365.6557 872.6683,-366.5823 881.4967,-372.4397 883.2225,-365.6557"/>
</g>
<!-- Node10 -->
<g id="node11" class="node">
<title>Node10</title>
<polygon fill="none" stroke="#bfbfbf" points="937,-179.5 937,-198.5 1007,-198.5 1007,-179.5 937,-179.5"/>
<text text-anchor="middle" x="972" y="-186.5" font-family="Helvetica,sans-Serif" font-size="10.00" fill="#000000">TMatrixD.h</text>
</g>
<!-- Node0&#45;&gt;Node10 -->
<g id="edge18" class="edge">
<title>Node0&#45;&gt;Node10</title>
<path fill="none" stroke="#191970" d="M1205.2699,-407.0683C1234.5607,-394.2132 1257.8317,-374.9308 1248,-347 1226.7971,-286.7649 1211.8252,-269.361 1158,-235 1115.0545,-207.5844 1056.9153,-196.508 1017.1368,-192.0331"/>
<polygon fill="#191970" stroke="#191970" points="1017.4944,-188.5515 1007.1883,-191.0081 1016.7769,-195.5146 1017.4944,-188.5515"/>
</g>
<!-- Node12 -->
<g id="node13" class="node">
<title>Node12</title>
<polygon fill="none" stroke="#bfbfbf" points="1031.5,-347.5 1031.5,-366.5 1096.5,-366.5 1096.5,-347.5 1031.5,-347.5"/>
<text text-anchor="middle" x="1064" y="-354.5" font-family="Helvetica,sans-Serif" font-size="10.00" fill="#000000">stdexcept</text>
</g>
<!-- Node0&#45;&gt;Node12 -->
<g id="edge16" class="edge">
<title>Node0&#45;&gt;Node12</title>
<path fill="none" stroke="#191970" d="M1099.7827,-403.3258C1092.435,-393.8132 1084.3107,-383.2951 1077.6629,-374.6886"/>
<polygon fill="#191970" stroke="#191970" points="1080.2471,-372.3085 1071.3642,-366.534 1074.7072,-376.5876 1080.2471,-372.3085"/>
</g>
<!-- Node13 -->
<g id="node14" class="node">
<title>Node13</title>
<polygon fill="none" stroke="#bfbfbf" points="1114.5,-347.5 1114.5,-366.5 1239.5,-366.5 1239.5,-347.5 1114.5,-347.5"/>
<text text-anchor="middle" x="1177" y="-354.5" font-family="Helvetica,sans-Serif" font-size="10.00" fill="#000000">TGeoGlobalMagField.h</text>
</g>
<!-- Node0&#45;&gt;Node13 -->
<g id="edge17" class="edge">
<title>Node0&#45;&gt;Node13</title>
<path fill="none" stroke="#191970" d="M1140.5783,-403.3258C1148.1359,-393.7131 1156.5008,-383.0735 1163.3063,-374.4174"/>
<polygon fill="#191970" stroke="#191970" points="1166.0751,-376.5586 1169.5043,-366.534 1160.5722,-372.2321 1166.0751,-376.5586"/>
</g>
<!-- Node14 -->
<g id="node15" class="node">
<title>Node14</title>
<g id="a_node15"><a xlink:href="../../db/d4b/MagneticField_8h.html" target="_top" xlink:title="Definition of the MagF class. ">
<polygon fill="none" stroke="#000000" points="1769,-291.5 1769,-310.5 1887,-310.5 1887,-291.5 1769,-291.5"/>
<text text-anchor="middle" x="1828" y="-298.5" font-family="Helvetica,sans-Serif" font-size="10.00" fill="#000000">Field/MagneticField.h</text>
</a>
</g>
</g>
<!-- Node0&#45;&gt;Node14 -->
<g id="edge19" class="edge">
<title>Node0&#45;&gt;Node14</title>
<path fill="none" stroke="#191970" d="M1205.0494,-414.0638C1349.2137,-387.8984 1638.2751,-335.4345 1765.4805,-312.3471"/>
<polygon fill="#191970" stroke="#191970" points="1766.2387,-315.7668 1775.4529,-310.5371 1764.9886,-308.8793 1766.2387,-315.7668"/>
</g>
<!-- Node44 -->
<g id="node45" class="node">
<title>Node44</title>
<g id="a_node45"><a xlink:href="../../d8/d9c/TrackExtrap_8h.html" target="_top" xlink:title="Definition of tools for track extrapolation. ">
<polygon fill="none" stroke="#000000" points="930.5,-347.5 930.5,-366.5 1013.5,-366.5 1013.5,-347.5 930.5,-347.5"/>
<text text-anchor="middle" x="972" y="-354.5" font-family="Helvetica,sans-Serif" font-size="10.00" fill="#000000">TrackExtrap.h</text>
</a>
</g>
</g>
<!-- Node0&#45;&gt;Node44 -->
<g id="edge64" class="edge">
<title>Node0&#45;&gt;Node44</title>
<path fill="none" stroke="#191970" d="M1066.5686,-403.3258C1044.288,-392.4114 1019.3052,-380.1731 1000.615,-371.0175"/>
<polygon fill="#191970" stroke="#191970" points="1001.9826,-367.7901 991.4625,-366.534 998.9032,-374.0764 1001.9826,-367.7901"/>
</g>
<!-- Node2 -->
<g id="node3" class="node">
<title>Node2</title>
<g id="a_node3"><a xlink:href="../../d3/d5c/Detectors_2MUON_2MCH_2Tracking_2include_2MCHTracking_2Cluster_8h.html" target="_top" xlink:title="MCHTracking/Cluster.h">
<polygon fill="none" stroke="#000000" points="818.5,-235.5 818.5,-254.5 943.5,-254.5 943.5,-235.5 818.5,-235.5"/>
<text text-anchor="middle" x="881" y="-242.5" font-family="Helvetica,sans-Serif" font-size="10.00" fill="#000000">MCHTracking/Cluster.h</text>
</a>
</g>
</g>
<!-- Node1&#45;&gt;Node2 -->
<g id="edge2" class="edge">
<title>Node1&#45;&gt;Node2</title>
<path fill="none" stroke="#191970" d="M841.2252,-347.4491C846.9468,-338.3602 855.37,-324.1567 861,-311 867.4767,-295.8648 872.7657,-277.948 876.2745,-264.604"/>
<polygon fill="#191970" stroke="#191970" points="879.7377,-265.1843 878.7901,-254.6319 872.9503,-263.472 879.7377,-265.1843"/>
</g>
<!-- Node6 -->
<g id="node7" class="node">
<title>Node6</title>
<g id="a_node7"><a xlink:href="../../df/d7a/Detectors_2MUON_2MCH_2Tracking_2include_2MCHTracking_2Track_8h.html" target="_top" xlink:title="MCHTracking/Track.h">
<polygon fill="none" stroke="#000000" points="735.5,-291.5 735.5,-310.5 852.5,-310.5 852.5,-291.5 735.5,-291.5"/>
<text text-anchor="middle" x="794" y="-298.5" font-family="Helvetica,sans-Serif" font-size="10.00" fill="#000000">MCHTracking/Track.h</text>
</a>
</g>
</g>
<!-- Node1&#45;&gt;Node6 -->
<g id="edge7" class="edge">
<title>Node1&#45;&gt;Node6</title>
<path fill="none" stroke="#191970" d="M827.8583,-347.2455C822.1556,-339.4564 814.01,-328.3308 807.1375,-318.9439"/>
<polygon fill="#191970" stroke="#191970" points="809.7913,-316.6437 801.0598,-310.6427 804.1432,-320.7789 809.7913,-316.6437"/>
</g>
<!-- Node9 -->
<g id="node10" class="node">
<title>Node9</title>
<g id="a_node10"><a xlink:href="../../de/d4b/TrackParam_8h.html" target="_top" xlink:title="Definition of the MCH track parameters for internal use. ">
<polygon fill="none" stroke="#000000" points="602,-235.5 602,-254.5 750,-254.5 750,-235.5 602,-235.5"/>
<text text-anchor="middle" x="676" y="-242.5" font-family="Helvetica,sans-Serif" font-size="10.00" fill="#000000">MCHTracking/TrackParam.h</text>
</a>
</g>
</g>
<!-- Node1&#45;&gt;Node9 -->
<g id="edge15" class="edge">
<title>Node1&#45;&gt;Node9</title>
<path fill="none" stroke="#191970" d="M800.1391,-347.4562C777.4366,-340.0575 748.0522,-328.1468 726,-311 709.2435,-297.9709 695.1828,-278.015 686.2827,-263.4573"/>
<polygon fill="#191970" stroke="#191970" points="689.2815,-261.6519 681.2027,-254.7974 683.2436,-265.1938 689.2815,-261.6519"/>
</g>
<!-- Node3 -->
<g id="node4" class="node">
<title>Node3</title>
<polygon fill="none" stroke="#bfbfbf" points="11,-118 11,-137 71,-137 71,-118 11,-118"/>
<text text-anchor="middle" x="41" y="-125" font-family="Helvetica,sans-Serif" font-size="10.00" fill="#000000">iostream</text>
</g>
<!-- Node2&#45;&gt;Node3 -->
<g id="edge3" class="edge">
<title>Node2&#45;&gt;Node3</title>
<path fill="none" stroke="#191970" d="M855.4611,-235.4713C814.1896,-220.5393 729.9745,-191.9935 656,-179 403.368,-134.6258 330.2973,-199.065 80,-143 77.1339,-142.358 74.2033,-141.5338 71.2997,-140.6008"/>
<polygon fill="#191970" stroke="#191970" points="72.2585,-137.2257 61.6642,-137.1157 69.8775,-143.8084 72.2585,-137.2257"/>
</g>
<!-- Node4 -->
<g id="node5" class="node">
<title>Node4</title>
<polygon fill="none" stroke="#bfbfbf" points="1116,-179.5 1116,-198.5 1160,-198.5 1160,-179.5 1116,-179.5"/>
<text text-anchor="middle" x="1138" y="-186.5" font-family="Helvetica,sans-Serif" font-size="10.00" fill="#000000">string</text>
</g>
<!-- Node2&#45;&gt;Node4 -->
<g id="edge4" class="edge">
<title>Node2&#45;&gt;Node4</title>
<path fill="none" stroke="#191970" d="M924.8879,-235.4369C976.2272,-224.2501 1060.0039,-205.9953 1105.7281,-196.032"/>
<polygon fill="#191970" stroke="#191970" points="1106.6615,-199.4108 1115.6871,-193.862 1105.1712,-192.5713 1106.6615,-199.4108"/>
</g>
<!-- Node5 -->
<g id="node6" class="node">
<title>Node5</title>
<g id="a_node6"><a xlink:href="../../d3/db8/ClusterBlock_8h.html" target="_top" xlink:title="Definition of the MCH cluster minimal structure. ">
<polygon fill="none" stroke="#000000" points="510.5,-179.5 510.5,-198.5 647.5,-198.5 647.5,-179.5 510.5,-179.5"/>
<text text-anchor="middle" x="579" y="-186.5" font-family="Helvetica,sans-Serif" font-size="10.00" fill="#000000">MCHBase/ClusterBlock.h</text>
</a>
</g>
</g>
<!-- Node2&#45;&gt;Node5 -->
<g id="edge5" class="edge">
<title>Node2&#45;&gt;Node5</title>
<path fill="none" stroke="#191970" d="M829.4275,-235.4369C777.091,-225.7321 696.068,-210.708 640.4388,-200.3926"/>
<polygon fill="#191970" stroke="#191970" points="640.8303,-196.9056 630.3598,-198.5237 639.554,-203.7883 640.8303,-196.9056"/>
</g>
<!-- Node5&#45;&gt;Node3 -->
<g id="edge6" class="edge">
<title>Node5&#45;&gt;Node3</title>
<path fill="none" stroke="#191970" d="M510.3162,-185.1043C393.2162,-178.0553 159.8467,-162.1264 80,-143 77.2101,-142.3317 74.3557,-141.5023 71.5228,-140.5772"/>
<polygon fill="#191970" stroke="#191970" points="72.6925,-137.2784 62.0984,-137.1579 70.3051,-143.8587 72.6925,-137.2784"/>
</g>
<!-- Node6&#45;&gt;Node2 -->
<g id="edge10" class="edge">
<title>Node6&#45;&gt;Node2</title>
<path fill="none" stroke="#191970" d="M809.1542,-291.2455C822.5027,-282.6534 842.1586,-270.0014 857.5383,-260.1018"/>
<polygon fill="#191970" stroke="#191970" points="859.5051,-262.9982 866.0194,-254.6427 855.7164,-257.1121 859.5051,-262.9982"/>
</g>
<!-- Node7 -->
<g id="node8" class="node">
<title>Node7</title>
<polygon fill="none" stroke="#bfbfbf" points="768,-235.5 768,-254.5 800,-254.5 800,-235.5 768,-235.5"/>
<text text-anchor="middle" x="784" y="-242.5" font-family="Helvetica,sans-Serif" font-size="10.00" fill="#000000">list</text>
</g>
<!-- Node6&#45;&gt;Node7 -->
<g id="edge8" class="edge">
<title>Node6&#45;&gt;Node7</title>
<path fill="none" stroke="#191970" d="M792.2581,-291.2455C790.9533,-283.9382 789.124,-273.6944 787.5187,-264.7046"/>
<polygon fill="#191970" stroke="#191970" points="790.9254,-263.8717 785.7219,-254.6427 784.0344,-265.1022 790.9254,-263.8717"/>
</g>
<!-- Node8 -->
<g id="node9" class="node">
<title>Node8</title>
<polygon fill="none" stroke="#bfbfbf" points="1091,-235.5 1091,-254.5 1149,-254.5 1149,-235.5 1091,-235.5"/>
<text text-anchor="middle" x="1120" y="-242.5" font-family="Helvetica,sans-Serif" font-size="10.00" fill="#000000">memory</text>
</g>
<!-- Node6&#45;&gt;Node8 -->
<g id="edge9" class="edge">
<title>Node6&#45;&gt;Node8</title>
<path fill="none" stroke="#191970" d="M849.671,-291.4369C915.4114,-280.1441 1023.0817,-261.6485 1080.6999,-251.7509"/>
<polygon fill="#191970" stroke="#191970" points="1081.5915,-255.1491 1090.8546,-250.0066 1080.4064,-248.2502 1081.5915,-255.1491"/>
</g>
<!-- Node6&#45;&gt;Node9 -->
<g id="edge11" class="edge">
<title>Node6&#45;&gt;Node9</title>
<path fill="none" stroke="#191970" d="M773.7151,-291.3733C754.8579,-282.4241 726.554,-268.9917 705.2545,-258.8835"/>
<polygon fill="#191970" stroke="#191970" points="706.5551,-255.6266 696.0202,-254.5011 703.5539,-261.9506 706.5551,-255.6266"/>
</g>
<!-- Node9&#45;&gt;Node10 -->
<g id="edge12" class="edge">
<title>Node9&#45;&gt;Node10</title>
<path fill="none" stroke="#191970" d="M726.5479,-235.4369C782.8571,-224.7838 873.0466,-207.7209 927.0033,-197.5129"/>
<polygon fill="#191970" stroke="#191970" points="927.7903,-200.9262 936.9654,-195.6282 926.489,-194.0482 927.7903,-200.9262"/>
</g>
<!-- Node11 -->
<g id="node12" class="node">
<title>Node11</title>
<g id="a_node12"><a xlink:href="../../d6/d45/TrackBlock_8h.html" target="_top" xlink:title="Definition of the MCH track parameters minimal structure. ">
<polygon fill="none" stroke="#000000" points="0,-179.5 0,-198.5 128,-198.5 128,-179.5 0,-179.5"/>
<text text-anchor="middle" x="64" y="-186.5" font-family="Helvetica,sans-Serif" font-size="10.00" fill="#000000">MCHBase/TrackBlock.h</text>
</a>
</g>
</g>
<!-- Node9&#45;&gt;Node11 -->
<g id="edge13" class="edge">
<title>Node9&#45;&gt;Node11</title>
<path fill="none" stroke="#191970" d="M601.8738,-238.2172C484.2145,-227.451 256.0066,-206.5692 138.2622,-195.7952"/>
<polygon fill="#191970" stroke="#191970" points="138.5313,-192.3053 128.2539,-194.8794 137.8933,-199.2762 138.5313,-192.3053"/>
</g>
<!-- Node11&#45;&gt;Node3 -->
<g id="edge14" class="edge">
<title>Node11&#45;&gt;Node3</title>
<path fill="none" stroke="#191970" d="M60.4063,-179.3906C57.1509,-170.6862 52.2575,-157.6015 48.199,-146.7494"/>
<polygon fill="#191970" stroke="#191970" points="51.4256,-145.3852 44.6444,-137.2449 44.8691,-147.8373 51.4256,-145.3852"/>
</g>
<!-- Node14&#45;&gt;Node8 -->
<g id="edge63" class="edge">
<title>Node14&#45;&gt;Node8</title>
<path fill="none" stroke="#191970" d="M1768.8541,-296.3218C1628.1969,-285.1964 1276.7218,-257.3961 1159.0689,-248.0902"/>
<polygon fill="#191970" stroke="#191970" points="1159.3123,-244.5986 1149.0674,-247.2991 1158.7603,-251.5768 1159.3123,-244.5986"/>
</g>
<!-- Node15 -->
<g id="node16" class="node">
<title>Node15</title>
<polygon fill="none" stroke="#bfbfbf" points="1880.5,-235.5 1880.5,-254.5 1945.5,-254.5 1945.5,-235.5 1880.5,-235.5"/>
<text text-anchor="middle" x="1913" y="-242.5" font-family="Helvetica,sans-Serif" font-size="10.00" fill="#000000">FairField.h</text>
</g>
<!-- Node14&#45;&gt;Node15 -->
<g id="edge20" class="edge">
<title>Node14&#45;&gt;Node15</title>
<path fill="none" stroke="#191970" d="M1842.8059,-291.2455C1855.7256,-282.7337 1874.6931,-270.2375 1889.6552,-260.3801"/>
<polygon fill="#191970" stroke="#191970" points="1891.9387,-263.067 1898.3638,-254.6427 1888.0876,-257.2216 1891.9387,-263.067"/>
</g>
<!-- Node16 -->
<g id="node17" class="node">
<title>Node16</title>
<g id="a_node17"><a xlink:href="../../d3/d91/MagFieldParam_8h.html" target="_top" xlink:title="Definition of the MagFieldParam: container for ALICE mag. field parameters. ">
<polygon fill="none" stroke="#000000" points="1963.5,-235.5 1963.5,-254.5 2088.5,-254.5 2088.5,-235.5 1963.5,-235.5"/>
<text text-anchor="middle" x="2026" y="-242.5" font-family="Helvetica,sans-Serif" font-size="10.00" fill="#000000">Field/MagFieldParam.h</text>
</a>
</g>
</g>
<!-- Node14&#45;&gt;Node16 -->
<g id="edge21" class="edge">
<title>Node14&#45;&gt;Node16</title>
<path fill="none" stroke="#191970" d="M1862.0374,-291.3733C1895.3894,-281.9404 1946.3527,-267.5265 1982.6002,-257.2747"/>
<polygon fill="#191970" stroke="#191970" points="1983.7368,-260.5906 1992.4067,-254.5011 1981.8316,-253.8548 1983.7368,-260.5906"/>
</g>
<!-- Node19 -->
<g id="node20" class="node">
<title>Node19</title>
<g id="a_node20"><a xlink:href="../../dd/dfb/MagneticWrapperChebyshev_8h.html" target="_top" xlink:title="Field/MagneticWrapperChebyshev.h">
<polygon fill="none" stroke="#000000" points="2106.5,-235.5 2106.5,-254.5 2295.5,-254.5 2295.5,-235.5 2106.5,-235.5"/>
<text text-anchor="middle" x="2201" y="-242.5" font-family="Helvetica,sans-Serif" font-size="10.00" fill="#000000">Field/MagneticWrapperChebyshev.h</text>
</a>
</g>
</g>
<!-- Node14&#45;&gt;Node19 -->
<g id="edge24" class="edge">
<title>Node14&#45;&gt;Node19</title>
<path fill="none" stroke="#191970" d="M1887.103,-292.1266C1952.204,-282.3528 2056.976,-266.6229 2127.3665,-256.0549"/>
<polygon fill="#191970" stroke="#191970" points="2128.1242,-259.4804 2137.4937,-254.5345 2127.0849,-252.558 2128.1242,-259.4804"/>
</g>
<!-- Node21 -->
<g id="node22" class="node">
<title>Node21</title>
<polygon fill="none" stroke="#bfbfbf" points="2082.5,-56.5 2082.5,-75.5 2149.5,-75.5 2149.5,-56.5 2082.5,-56.5"/>
<text text-anchor="middle" x="2116" y="-63.5" font-family="Helvetica,sans-Serif" font-size="10.00" fill="#000000">TNamed.h</text>
</g>
<!-- Node14&#45;&gt;Node21 -->
<g id="edge62" class="edge">
<title>Node14&#45;&gt;Node21</title>
<path fill="none" stroke="#191970" d="M1813.9449,-291.3132C1797.5928,-278.7692 1774.1363,-256.0172 1785,-235 1796.9793,-211.8246 1961.197,-122.6782 1985,-112 2014.2522,-98.8773 2048.4704,-86.9733 2074.598,-78.5639"/>
<polygon fill="#191970" stroke="#191970" points="2075.7176,-81.8807 2084.1882,-75.5168 2073.5979,-75.2093 2075.7176,-81.8807"/>
</g>
<!-- Node26 -->
<g id="node27" class="node">
<title>Node26</title>
<polygon fill="none" stroke="#bfbfbf" points="2215.5,-56.5 2215.5,-75.5 2274.5,-75.5 2274.5,-56.5 2215.5,-56.5"/>
<text text-anchor="middle" x="2245" y="-63.5" font-family="Helvetica,sans-Serif" font-size="10.00" fill="#000000">Rtypes.h</text>
</g>
<!-- Node14&#45;&gt;Node26 -->
<g id="edge61" class="edge">
<title>Node14&#45;&gt;Node26</title>
<path fill="none" stroke="#191970" d="M1887.0512,-297.6047C1996.4721,-290.9311 2226.6324,-274.9985 2304,-255 2402.2606,-229.601 2459.0356,-234.4734 2503,-143 2508.9684,-130.582 2511.8461,-122.5628 2503,-112 2496.0188,-103.664 2355.5686,-82.123 2284.8973,-71.7498"/>
<polygon fill="#191970" stroke="#191970" points="2284.9938,-68.2268 2274.5928,-70.2439 2283.9815,-75.1532 2284.9938,-68.2268"/>
</g>
<!-- Node27 -->
<g id="node28" class="node">
<title>Node27</title>
<g id="a_node28"><a xlink:href="../../da/df4/MagFieldFast_8h.html" target="_top" xlink:title="Definition of the fast magnetic field parametrization MagFieldFast. ">
<polygon fill="none" stroke="#000000" points="1480.5,-235.5 1480.5,-254.5 1593.5,-254.5 1593.5,-235.5 1480.5,-235.5"/>
<text text-anchor="middle" x="1537" y="-242.5" font-family="Helvetica,sans-Serif" font-size="10.00" fill="#000000">Field/MagFieldFast.h</text>
</a>
</g>
</g>
<!-- Node14&#45;&gt;Node27 -->
<g id="edge40" class="edge">
<title>Node14&#45;&gt;Node27</title>
<path fill="none" stroke="#191970" d="M1778.306,-291.4369C1727.9804,-281.7522 1650.1277,-266.7703 1596.5349,-256.4569"/>
<polygon fill="#191970" stroke="#191970" points="1596.9703,-252.9765 1586.4891,-254.5237 1595.6475,-259.8504 1596.9703,-252.9765"/>
</g>
<!-- Node43 -->
<g id="node44" class="node">
<title>Node43</title>
<polygon fill="none" stroke="#bfbfbf" points="1794,-235.5 1794,-254.5 1862,-254.5 1862,-235.5 1794,-235.5"/>
<text text-anchor="middle" x="1828" y="-242.5" font-family="Helvetica,sans-Serif" font-size="10.00" fill="#000000">TSystem.h</text>
</g>
<!-- Node14&#45;&gt;Node43 -->
<g id="edge60" class="edge">
<title>Node14&#45;&gt;Node43</title>
<path fill="none" stroke="#191970" d="M1828,-291.2455C1828,-283.9382 1828,-273.6944 1828,-264.7046"/>
<polygon fill="#191970" stroke="#191970" points="1831.5001,-264.6426 1828,-254.6427 1824.5001,-264.6427 1831.5001,-264.6426"/>
</g>
<!-- Node17 -->
<g id="node18" class="node">
<title>Node17</title>
<polygon fill="none" stroke="#bfbfbf" points="1880.5,-179.5 1880.5,-198.5 1991.5,-198.5 1991.5,-179.5 1880.5,-179.5"/>
<text text-anchor="middle" x="1936" y="-186.5" font-family="Helvetica,sans-Serif" font-size="10.00" fill="#000000">FairParGenericSet.h</text>
</g>
<!-- Node16&#45;&gt;Node17 -->
<g id="edge22" class="edge">
<title>Node16&#45;&gt;Node17</title>
<path fill="none" stroke="#191970" d="M2010.3232,-235.2455C1996.5144,-226.6534 1976.1807,-214.0014 1960.2708,-204.1018"/>
<polygon fill="#191970" stroke="#191970" points="1961.8368,-200.954 1951.4972,-198.6427 1958.1387,-206.8974 1961.8368,-200.954"/>
</g>
<!-- Node18 -->
<g id="node19" class="node">
<title>Node18</title>
<polygon fill="none" stroke="#bfbfbf" points="2009,-118 2009,-137 2069,-137 2069,-118 2009,-118"/>
<text text-anchor="middle" x="2039" y="-125" font-family="Helvetica,sans-Serif" font-size="10.00" fill="#000000">TString.h</text>
</g>
<!-- Node16&#45;&gt;Node18 -->
<g id="edge23" class="edge">
<title>Node16&#45;&gt;Node18</title>
<path fill="none" stroke="#191970" d="M1969.0773,-235.4259C1929.9616,-227.5525 1883.0042,-215.0842 1871,-199 1865.6834,-191.8764 1865.7154,-186.1474 1871,-179 1886.2696,-158.3482 1954.1346,-142.5831 1998.7997,-134.211"/>
<polygon fill="#191970" stroke="#191970" points="1999.5696,-137.6284 2008.7791,-132.3903 1998.3132,-130.7421 1999.5696,-137.6284"/>
</g>
<!-- Node20 -->
<g id="node21" class="node">
<title>Node20</title>
<polygon fill="none" stroke="#bfbfbf" points="2343,-179.5 2343,-198.5 2399,-198.5 2399,-179.5 2343,-179.5"/>
<text text-anchor="middle" x="2371" y="-186.5" font-family="Helvetica,sans-Serif" font-size="10.00" fill="#000000">TMath.h</text>
</g>
<!-- Node19&#45;&gt;Node20 -->
<g id="edge25" class="edge">
<title>Node19&#45;&gt;Node20</title>
<path fill="none" stroke="#191970" d="M2230.224,-235.3733C2258.6638,-226.0049 2302.0183,-211.7234 2333.0974,-201.4856"/>
<polygon fill="#191970" stroke="#191970" points="2334.3193,-204.7681 2342.7222,-198.315 2332.1292,-198.1196 2334.3193,-204.7681"/>
</g>
<!-- Node19&#45;&gt;Node21 -->
<g id="edge26" class="edge">
<title>Node19&#45;&gt;Node21</title>
<path fill="none" stroke="#191970" d="M2191.572,-235.277C2175.6443,-218.1984 2143.7092,-181.003 2129,-143 2121.8332,-124.4836 2118.6118,-101.9526 2117.1671,-86.0603"/>
<polygon fill="#191970" stroke="#191970" points="2120.6368,-85.524 2116.3982,-75.814 2113.6564,-86.0479 2120.6368,-85.524"/>
</g>
<!-- Node22 -->
<g id="node23" class="node">
<title>Node22</title>
<polygon fill="none" stroke="#bfbfbf" points="2421.5,-118 2421.5,-137 2494.5,-137 2494.5,-118 2421.5,-118"/>
<text text-anchor="middle" x="2458" y="-125" font-family="Helvetica,sans-Serif" font-size="10.00" fill="#000000">TObjArray.h</text>
</g>
<!-- Node19&#45;&gt;Node22 -->
<g id="edge27" class="edge">
<title>Node19&#45;&gt;Node22</title>
<path fill="none" stroke="#191970" d="M2268.0896,-235.4766C2319.4879,-227.1993 2385.3189,-214.1733 2408,-199 2427.3922,-186.0269 2441.5497,-162.7805 2449.7512,-146.3199"/>
<polygon fill="#191970" stroke="#191970" points="2452.9982,-147.6396 2454.0818,-137.1003 2446.6623,-144.6636 2452.9982,-147.6396"/>
</g>
<!-- Node23 -->
<g id="node24" class="node">
<title>Node23</title>
<g id="a_node24"><a xlink:href="../../d8/d64/Chebyshev3D_8h.html" target="_top" xlink:title="MathUtils/Chebyshev3D.h">
<polygon fill="none" stroke="#000000" points="2181.5,-179.5 2181.5,-198.5 2324.5,-198.5 2324.5,-179.5 2181.5,-179.5"/>
<text text-anchor="middle" x="2253" y="-186.5" font-family="Helvetica,sans-Serif" font-size="10.00" fill="#000000">MathUtils/Chebyshev3D.h</text>
</a>
</g>
</g>
<!-- Node19&#45;&gt;Node23 -->
<g id="edge28" class="edge">
<title>Node19&#45;&gt;Node23</title>
<path fill="none" stroke="#191970" d="M2210.0577,-235.2455C2217.5142,-227.2155 2228.2634,-215.6394 2237.1417,-206.0781"/>
<polygon fill="#191970" stroke="#191970" points="2239.8063,-208.3522 2244.0461,-198.6427 2234.6768,-203.589 2239.8063,-208.3522"/>
</g>
<!-- Node25 -->
<g id="node26" class="node">
<title>Node25</title>
<g id="a_node26"><a xlink:href="../../d4/d08/Chebyshev3DCalc_8h.html" target="_top" xlink:title="MathUtils/Chebyshev3DCalc.h">
<polygon fill="none" stroke="#000000" points="2163,-118 2163,-137 2327,-137 2327,-118 2163,-118"/>
<text text-anchor="middle" x="2245" y="-125" font-family="Helvetica,sans-Serif" font-size="10.00" fill="#000000">MathUtils/Chebyshev3DCalc.h</text>
</a>
</g>
</g>
<!-- Node19&#45;&gt;Node25 -->
<g id="edge38" class="edge">
<title>Node19&#45;&gt;Node25</title>
<path fill="none" stroke="#191970" d="M2191.3042,-235.4219C2179.3716,-222.4182 2161.8633,-198.5566 2172,-179 2180.5114,-162.579 2196.9334,-150.2816 2212.0493,-141.8292"/>
<polygon fill="#191970" stroke="#191970" points="2213.9557,-144.7827 2221.2099,-137.0608 2210.7236,-138.5735 2213.9557,-144.7827"/>
</g>
<!-- Node19&#45;&gt;Node26 -->
<g id="edge39" class="edge">
<title>Node19&#45;&gt;Node26</title>
<path fill="none" stroke="#191970" d="M2158.5494,-235.4551C2085.6143,-217.1543 1949.0339,-173.4258 2000,-112 2012.9846,-96.3506 2138.9569,-78.8859 2205.0158,-70.7063"/>
<polygon fill="#191970" stroke="#191970" points="2205.5763,-74.1639 2215.077,-69.4749 2204.7259,-67.2157 2205.5763,-74.1639"/>
</g>
<!-- Node23&#45;&gt;Node18 -->
<g id="edge37" class="edge">
<title>Node23&#45;&gt;Node18</title>
<path fill="none" stroke="#191970" d="M2219.5625,-179.3906C2181.5247,-168.4592 2119.4474,-150.6192 2078.9087,-138.9691"/>
<polygon fill="#191970" stroke="#191970" points="2079.6718,-135.5468 2069.094,-136.1485 2077.7383,-142.2745 2079.6718,-135.5468"/>
</g>
<!-- Node23&#45;&gt;Node21 -->
<g id="edge29" class="edge">
<title>Node23&#45;&gt;Node21</title>
<path fill="none" stroke="#191970" d="M2218.4158,-179.3818C2197.6579,-172.1646 2171.8961,-160.4809 2154,-143 2137.6415,-127.021 2127.2433,-102.5444 2121.5361,-85.4912"/>
<polygon fill="#191970" stroke="#191970" points="2124.7498,-84.0373 2118.4475,-75.5208 2118.0633,-86.1086 2124.7498,-84.0373"/>
</g>
<!-- Node23&#45;&gt;Node22 -->
<g id="edge30" class="edge">
<title>Node23&#45;&gt;Node22</title>
<path fill="none" stroke="#191970" d="M2285.1634,-179.4415C2316.3277,-170.1684 2364.9208,-155.6789 2407,-143 2410.2895,-142.0088 2413.6975,-140.9792 2417.1204,-139.943"/>
<polygon fill="#191970" stroke="#191970" points="2418.1662,-143.2834 2426.7205,-137.0323 2416.1351,-136.5845 2418.1662,-143.2834"/>
</g>
<!-- Node24 -->
<g id="node25" class="node">
<title>Node24</title>
<polygon fill="none" stroke="#bfbfbf" points="2331,-56.5 2331,-75.5 2377,-75.5 2377,-56.5 2331,-56.5"/>
<text text-anchor="middle" x="2354" y="-63.5" font-family="Helvetica,sans-Serif" font-size="10.00" fill="#000000">cstdio</text>
</g>
<!-- Node23&#45;&gt;Node24 -->
<g id="edge31" class="edge">
<title>Node23&#45;&gt;Node24</title>
<path fill="none" stroke="#191970" d="M2299.1723,-179.4515C2319.2553,-172.7741 2340.92,-161.5868 2353,-143 2363.9965,-126.0804 2362.3735,-102.345 2359.1893,-85.7128"/>
<polygon fill="#191970" stroke="#191970" points="2362.6023,-84.9369 2356.9883,-75.9518 2355.7738,-86.4768 2362.6023,-84.9369"/>
</g>
<!-- Node23&#45;&gt;Node25 -->
<g id="edge32" class="edge">
<title>Node23&#45;&gt;Node25</title>
<path fill="none" stroke="#191970" d="M2251.75,-179.3906C2250.6411,-170.8657 2248.9856,-158.1392 2247.5917,-147.4235"/>
<polygon fill="#191970" stroke="#191970" points="2251.0284,-146.7098 2246.2676,-137.2449 2244.0869,-147.6128 2251.0284,-146.7098"/>
</g>
<!-- Node23&#45;&gt;Node26 -->
<g id="edge36" class="edge">
<title>Node23&#45;&gt;Node26</title>
<path fill="none" stroke="#191970" d="M2286.8965,-179.4632C2304.8701,-172.4893 2325.3802,-161.0275 2336,-143 2342.9932,-131.1289 2343.2177,-123.7359 2336,-112 2324.7072,-93.6379 2303.5673,-82.3363 2284.5037,-75.5329"/>
<polygon fill="#191970" stroke="#191970" points="2285.3793,-72.1373 2274.7871,-72.3717 2283.2136,-78.7938 2285.3793,-72.1373"/>
</g>
<!-- Node25&#45;&gt;Node21 -->
<g id="edge33" class="edge">
<title>Node25&#45;&gt;Node21</title>
<path fill="none" stroke="#191970" d="M2224.8438,-117.8906C2203.449,-107.6908 2169.438,-91.4763 2145.1298,-79.8875"/>
<polygon fill="#191970" stroke="#191970" points="2146.5476,-76.686 2136.0147,-75.5419 2143.5352,-83.0047 2146.5476,-76.686"/>
</g>
<!-- Node25&#45;&gt;Node24 -->
<g id="edge34" class="edge">
<title>Node25&#45;&gt;Node24</title>
<path fill="none" stroke="#191970" d="M2262.0313,-117.8906C2279.789,-107.8713 2307.833,-92.0483 2328.2882,-80.5071"/>
<polygon fill="#191970" stroke="#191970" points="2330.0989,-83.5042 2337.0883,-75.5419 2326.6591,-77.4077 2330.0989,-83.5042"/>
</g>
<!-- Node25&#45;&gt;Node26 -->
<g id="edge35" class="edge">
<title>Node25&#45;&gt;Node26</title>
<path fill="none" stroke="#191970" d="M2245,-117.8906C2245,-109.3657 2245,-96.6392 2245,-85.9235"/>
<polygon fill="#191970" stroke="#191970" points="2248.5001,-85.7448 2245,-75.7449 2241.5001,-85.7449 2248.5001,-85.7448"/>
</g>
<!-- Node27&#45;&gt;Node4 -->
<g id="edge59" class="edge">
<title>Node27&#45;&gt;Node4</title>
<path fill="none" stroke="#191970" d="M1480.2568,-237.036C1395.2994,-225.1122 1237.8089,-203.0083 1170.1998,-193.5193"/>
<polygon fill="#191970" stroke="#191970" points="1170.5349,-190.0321 1160.1455,-192.1081 1169.562,-196.9641 1170.5349,-190.0321"/>
</g>
<!-- Node28 -->
<g id="node29" class="node">
<title>Node28</title>
<g id="a_node29"><a xlink:href="../../d2/d45/GPUCommonRtypes_8h.html" target="_top" xlink:title="GPUCommonRtypes.h">
<polygon fill="none" stroke="#000000" points="1789.5,-118 1789.5,-137 1914.5,-137 1914.5,-118 1789.5,-118"/>
<text text-anchor="middle" x="1852" y="-125" font-family="Helvetica,sans-Serif" font-size="10.00" fill="#000000">GPUCommonRtypes.h</text>
</a>
</g>
</g>
<!-- Node27&#45;&gt;Node28 -->
<g id="edge41" class="edge">
<title>Node27&#45;&gt;Node28</title>
<path fill="none" stroke="#191970" d="M1562.5109,-235.484C1618.5394,-214.5845 1752.4434,-164.6362 1816.5792,-140.7125"/>
<polygon fill="#191970" stroke="#191970" points="1818.1048,-143.8791 1826.2509,-137.1048 1815.6583,-137.3205 1818.1048,-143.8791"/>
</g>
<!-- Node29 -->
<g id="node30" class="node">
<title>Node29</title>
<g id="a_node30"><a xlink:href="../../dc/d73/Cartesian_8h.html" target="_top" xlink:title="MathUtils/Cartesian.h">
<polygon fill="none" stroke="#000000" points="1223,-179.5 1223,-198.5 1345,-198.5 1345,-179.5 1223,-179.5"/>
<text text-anchor="middle" x="1284" y="-186.5" font-family="Helvetica,sans-Serif" font-size="10.00" fill="#000000">MathUtils/Cartesian.h</text>
</a>
</g>
</g>
<!-- Node27&#45;&gt;Node29 -->
<g id="edge43" class="edge">
<title>Node27&#45;&gt;Node29</title>
<path fill="none" stroke="#191970" d="M1493.7952,-235.4369C1450.4053,-225.8328 1383.4791,-211.0191 1336.9274,-200.7152"/>
<polygon fill="#191970" stroke="#191970" points="1337.5467,-197.2676 1327.0266,-198.5237 1336.0338,-204.1022 1337.5467,-197.2676"/>
</g>
<!-- Node28&#45;&gt;Node26 -->
<g id="edge42" class="edge">
<title>Node28&#45;&gt;Node26</title>
<path fill="none" stroke="#191970" d="M1912.9751,-117.9581C1994.3883,-105.2179 2136.3172,-83.0076 2205.2128,-72.2262"/>
<polygon fill="#191970" stroke="#191970" points="2205.8889,-75.6631 2215.2275,-70.659 2204.8066,-68.7473 2205.8889,-75.6631"/>
</g>
<!-- Node29&#45;&gt;Node28 -->
<g id="edge47" class="edge">
<title>Node29&#45;&gt;Node28</title>
<path fill="none" stroke="#191970" d="M1345.3751,-185.6753C1439.3645,-180.0511 1624.4261,-166.8724 1780,-143 1787.1249,-141.9067 1794.6034,-140.5433 1801.9343,-139.0817"/>
<polygon fill="#191970" stroke="#191970" points="1802.7078,-142.4958 1811.7923,-137.0439 1801.2908,-135.6408 1802.7078,-142.4958"/>
</g>
<!-- Node30 -->
<g id="node31" class="node">
<title>Node30</title>
<g id="a_node31"><a xlink:href="../../df/d21/GPUCommonDef_8h.html" target="_top" xlink:title="GPUCommonDef.h">
<polygon fill="none" stroke="#000000" points="1416.5,-56.5 1416.5,-75.5 1523.5,-75.5 1523.5,-56.5 1416.5,-56.5"/>
<text text-anchor="middle" x="1470" y="-63.5" font-family="Helvetica,sans-Serif" font-size="10.00" fill="#000000">GPUCommonDef.h</text>
</a>
</g>
</g>
<!-- Node29&#45;&gt;Node30 -->
<g id="edge44" class="edge">
<title>Node29&#45;&gt;Node30</title>
<path fill="none" stroke="#191970" d="M1320.4235,-179.4841C1344.6647,-172.0393 1376.4462,-160.0651 1401,-143 1424.2566,-126.8365 1445.0563,-101.3475 1457.5933,-84.1682"/>
<polygon fill="#191970" stroke="#191970" points="1460.7452,-85.7738 1463.6714,-75.591 1455.0339,-81.7265 1460.7452,-85.7738"/>
</g>
<!-- Node33 -->
<g id="node34" class="node">
<title>Node33</title>
<polygon fill="none" stroke="#bfbfbf" points="1607,-112.5 1607,-142.5 1771,-142.5 1771,-112.5 1607,-112.5"/>
<text text-anchor="start" x="1615" y="-130.5" font-family="Helvetica,sans-Serif" font-size="10.00" fill="#000000">Math/GenVector/Displacement</text>
<text text-anchor="middle" x="1689" y="-119.5" font-family="Helvetica,sans-Serif" font-size="10.00" fill="#000000">Vector3D.h</text>
</g>
<!-- Node29&#45;&gt;Node33 -->
<g id="edge48" class="edge">
<title>Node29&#45;&gt;Node33</title>
<path fill="none" stroke="#191970" d="M1345.1402,-180.4721C1406.3012,-171.8441 1503.3389,-157.8927 1596.7701,-143.1758"/>
<polygon fill="#191970" stroke="#191970" points="1597.3431,-146.6288 1606.6742,-141.6107 1596.2504,-139.7146 1597.3431,-146.6288"/>
</g>
<!-- Node34 -->
<g id="node35" class="node">
<title>Node34</title>
<polygon fill="none" stroke="#bfbfbf" points="89.5,-118 89.5,-137 278.5,-137 278.5,-118 89.5,-118"/>
<text text-anchor="middle" x="184" y="-125" font-family="Helvetica,sans-Serif" font-size="10.00" fill="#000000">Math/GenVector/PositionVector3D.h</text>
</g>
<!-- Node29&#45;&gt;Node34 -->
<g id="edge49" class="edge">
<title>Node29&#45;&gt;Node34</title>
<path fill="none" stroke="#191970" d="M1222.8651,-183.159C1205.4718,-181.6398 1186.4999,-180.1178 1169,-179 777.9147,-154.0191 678.1377,-179.9367 288,-143 275.7391,-141.8392 262.7177,-140.2137 250.1882,-138.4491"/>
<polygon fill="#191970" stroke="#191970" points="250.668,-134.9822 240.2691,-137.0103 249.6631,-141.9097 250.668,-134.9822"/>
</g>
<!-- Node35 -->
<g id="node36" class="node">
<title>Node35</title>
<polygon fill="none" stroke="#bfbfbf" points="297,-118 297,-137 457,-137 457,-118 297,-118"/>
<text text-anchor="middle" x="377" y="-125" font-family="Helvetica,sans-Serif" font-size="10.00" fill="#000000">Math/GenVector/Rotation3D.h</text>
</g>
<!-- Node29&#45;&gt;Node35 -->
<g id="edge50" class="edge">
<title>Node29&#45;&gt;Node35</title>
<path fill="none" stroke="#191970" d="M1222.8573,-183.2764C1205.4639,-181.7587 1186.4939,-180.2081 1169,-179 856.8896,-157.4454 776.9008,-177.903 466,-143 456.0639,-141.8845 445.5573,-140.3634 435.3805,-138.7079"/>
<polygon fill="#191970" stroke="#191970" points="435.7895,-135.2275 425.347,-137.0176 434.6266,-142.1303 435.7895,-135.2275"/>
</g>
<!-- Node36 -->
<g id="node37" class="node">
<title>Node36</title>
<polygon fill="none" stroke="#bfbfbf" points="475,-118 475,-137 643,-137 643,-118 475,-118"/>
<text text-anchor="middle" x="559" y="-125" font-family="Helvetica,sans-Serif" font-size="10.00" fill="#000000">Math/GenVector/Transform3D.h</text>
</g>
<!-- Node29&#45;&gt;Node36 -->
<g id="edge51" class="edge">
<title>Node29&#45;&gt;Node36</title>
<path fill="none" stroke="#191970" d="M1222.842,-183.485C1205.4484,-181.9699 1186.482,-180.3686 1169,-179 939.3685,-161.0225 880.7504,-169.9642 652,-143 642.0026,-141.8215 631.4413,-140.3148 621.1641,-138.7054"/>
<polygon fill="#191970" stroke="#191970" points="621.4424,-135.2052 611.013,-137.0702 620.3291,-142.1161 621.4424,-135.2052"/>
</g>
<!-- Node37 -->
<g id="node38" class="node">
<title>Node37</title>
<polygon fill="none" stroke="#bfbfbf" points="661.5,-118 661.5,-137 834.5,-137 834.5,-118 661.5,-118"/>
<text text-anchor="middle" x="748" y="-125" font-family="Helvetica,sans-Serif" font-size="10.00" fill="#000000">Math/GenVector/Translation3D.h</text>
</g>
<!-- Node29&#45;&gt;Node37 -->
<g id="edge52" class="edge">
<title>Node29&#45;&gt;Node37</title>
<path fill="none" stroke="#191970" d="M1222.6569,-183.6784C1137.5112,-176.0433 978.7604,-160.9091 844,-143 834.1471,-141.6906 823.7485,-140.1636 813.5765,-138.5885"/>
<polygon fill="#191970" stroke="#191970" points="813.9313,-135.1013 803.5086,-137.0035 812.8426,-142.0161 813.9313,-135.1013"/>
</g>
<!-- Node38 -->
<g id="node39" class="node">
<title>Node38</title>
<polygon fill="none" stroke="#bfbfbf" points="853,-112.5 853,-142.5 1017,-142.5 1017,-112.5 853,-112.5"/>
<text text-anchor="start" x="861" y="-130.5" font-family="Helvetica,sans-Serif" font-size="10.00" fill="#000000">Math/GenVector/Displacement</text>
<text text-anchor="middle" x="935" y="-119.5" font-family="Helvetica,sans-Serif" font-size="10.00" fill="#000000">Vector2D.h</text>
</g>
<!-- Node29&#45;&gt;Node38 -->
<g id="edge53" class="edge">
<title>Node29&#45;&gt;Node38</title>
<path fill="none" stroke="#191970" d="M1229.8517,-179.4581C1175.8756,-169.9466 1091.9461,-155.1567 1027.4138,-143.7849"/>
<polygon fill="#191970" stroke="#191970" points="1027.6865,-140.2792 1017.2308,-141.9905 1026.4717,-147.1729 1027.6865,-140.2792"/>
</g>
<!-- Node39 -->
<g id="node40" class="node">
<title>Node39</title>
<polygon fill="none" stroke="#bfbfbf" points="1035.5,-118 1035.5,-137 1224.5,-137 1224.5,-118 1035.5,-118"/>
<text text-anchor="middle" x="1130" y="-125" font-family="Helvetica,sans-Serif" font-size="10.00" fill="#000000">Math/GenVector/PositionVector2D.h</text>
</g>
<!-- Node29&#45;&gt;Node39 -->
<g id="edge54" class="edge">
<title>Node29&#45;&gt;Node39</title>
<path fill="none" stroke="#191970" d="M1259.9375,-179.3906C1233.9444,-169.0103 1192.3522,-152.4004 1163.2453,-140.7766"/>
<polygon fill="#191970" stroke="#191970" points="1164.4785,-137.5003 1153.8935,-137.0419 1161.8823,-144.0011 1164.4785,-137.5003"/>
</g>
<!-- Node40 -->
<g id="node41" class="node">
<title>Node40</title>
<polygon fill="none" stroke="#bfbfbf" points="1243,-118 1243,-137 1325,-137 1325,-118 1243,-118"/>
<text text-anchor="middle" x="1284" y="-125" font-family="Helvetica,sans-Serif" font-size="10.00" fill="#000000">TGeoMatrix.h</text>
</g>
<!-- Node29&#45;&gt;Node40 -->
<g id="edge55" class="edge">
<title>Node29&#45;&gt;Node40</title>
<path fill="none" stroke="#191970" d="M1284,-179.3906C1284,-170.8657 1284,-158.1392 1284,-147.4235"/>
<polygon fill="#191970" stroke="#191970" points="1287.5001,-147.2448 1284,-137.2449 1280.5001,-147.2449 1287.5001,-147.2448"/>
</g>
<!-- Node41 -->
<g id="node42" class="node">
<title>Node41</title>
<polygon fill="none" stroke="#bfbfbf" points="1343.5,-118 1343.5,-137 1392.5,-137 1392.5,-118 1343.5,-118"/>
<text text-anchor="middle" x="1368" y="-125" font-family="Helvetica,sans-Serif" font-size="10.00" fill="#000000">iosfwd</text>
</g>
<!-- Node29&#45;&gt;Node41 -->
<g id="edge56" class="edge">
<title>Node29&#45;&gt;Node41</title>
<path fill="none" stroke="#191970" d="M1297.125,-179.3906C1310.44,-169.6421 1331.2594,-154.3994 1346.8947,-142.9521"/>
<polygon fill="#191970" stroke="#191970" points="1348.9661,-145.7734 1354.9672,-137.0419 1344.8309,-140.1253 1348.9661,-145.7734"/>
</g>
<!-- Node42 -->
<g id="node43" class="node">
<title>Node42</title>
<g id="a_node43"><a xlink:href="../../d1/da8/GPUROOTCartesianFwd_8h.html" target="_top" xlink:title="GPUROOTCartesianFwd.h">
<polygon fill="none" stroke="#000000" points="1449,-118 1449,-137 1589,-137 1589,-118 1449,-118"/>
<text text-anchor="middle" x="1519" y="-125" font-family="Helvetica,sans-Serif" font-size="10.00" fill="#000000">GPUROOTCartesianFwd.h</text>
</a>
</g>
</g>
<!-- Node29&#45;&gt;Node42 -->
<g id="edge57" class="edge">
<title>Node29&#45;&gt;Node42</title>
<path fill="none" stroke="#191970" d="M1320.4609,-179.4581C1361.4515,-168.7308 1428.0969,-151.2895 1472.726,-139.61"/>
<polygon fill="#191970" stroke="#191970" points="1473.6655,-142.9821 1482.4536,-137.0643 1471.8932,-136.2101 1473.6655,-142.9821"/>
</g>
<!-- Node31 -->
<g id="node32" class="node">
<title>Node31</title>
<g id="a_node32"><a xlink:href="../../d5/d93/GPUCommonDefSettings_8h.html" target="_top" xlink:title="GPUCommonDefSettings.h">
<polygon fill="none" stroke="#000000" points="1319,-.5 1319,-19.5 1467,-19.5 1467,-.5 1319,-.5"/>
<text text-anchor="middle" x="1393" y="-7.5" font-family="Helvetica,sans-Serif" font-size="10.00" fill="#000000">GPUCommonDefSettings.h</text>
</a>
</g>
</g>
<!-- Node30&#45;&gt;Node31 -->
<g id="edge45" class="edge">
<title>Node30&#45;&gt;Node31</title>
<path fill="none" stroke="#191970" d="M1456.5876,-56.2455C1444.9943,-47.814 1428.0252,-35.4729 1414.5322,-25.6598"/>
<polygon fill="#191970" stroke="#191970" points="1416.4047,-22.6938 1406.2587,-19.6427 1412.2874,-28.355 1416.4047,-22.6938"/>
</g>
<!-- Node32 -->
<g id="node33" class="node">
<title>Node32</title>
<g id="a_node33"><a xlink:href="../../da/d5a/GPUCommonDefAPI_8h.html" target="_top" xlink:title="GPUCommonDefAPI.h">
<polygon fill="none" stroke="#000000" points="1485,-.5 1485,-19.5 1609,-19.5 1609,-.5 1485,-.5"/>
<text text-anchor="middle" x="1547" y="-7.5" font-family="Helvetica,sans-Serif" font-size="10.00" fill="#000000">GPUCommonDefAPI.h</text>
</a>
</g>
</g>
<!-- Node30&#45;&gt;Node32 -->
<g id="edge46" class="edge">
<title>Node30&#45;&gt;Node32</title>
<path fill="none" stroke="#191970" d="M1483.4124,-56.2455C1495.0057,-47.814 1511.9748,-35.4729 1525.4678,-25.6598"/>
<polygon fill="#191970" stroke="#191970" points="1527.7126,-28.355 1533.7413,-19.6427 1523.5953,-22.6938 1527.7126,-28.355"/>
</g>
<!-- Node42&#45;&gt;Node30 -->
<g id="edge58" class="edge">
<title>Node42&#45;&gt;Node30</title>
<path fill="none" stroke="#191970" d="M1511.3438,-117.8906C1504.0511,-108.7376 1492.8993,-94.7409 1484.0148,-83.59"/>
<polygon fill="#191970" stroke="#191970" points="1486.733,-81.3849 1477.7642,-75.7449 1481.2583,-85.747 1486.733,-81.3849"/>
</g>
<!-- Node44&#45;&gt;Node10 -->
<g id="edge66" class="edge">
<title>Node44&#45;&gt;Node10</title>
<path fill="none" stroke="#191970" d="M972,-347.4862C972,-320.9293 972,-245.5651 972,-209.1655"/>
<polygon fill="#191970" stroke="#191970" points="975.5001,-208.8278 972,-198.8279 968.5001,-208.8279 975.5001,-208.8278"/>
</g>
<!-- Node45 -->
<g id="node46" class="node">
<title>Node45</title>
<polygon fill="none" stroke="#bfbfbf" points="1000.5,-291.5 1000.5,-310.5 1053.5,-310.5 1053.5,-291.5 1000.5,-291.5"/>
<text text-anchor="middle" x="1027" y="-298.5" font-family="Helvetica,sans-Serif" font-size="10.00" fill="#000000">cstddef</text>
</g>
<!-- Node44&#45;&gt;Node45 -->
<g id="edge65" class="edge">
<title>Node44&#45;&gt;Node45</title>
<path fill="none" stroke="#191970" d="M981.5803,-347.2455C989.5458,-339.1352 1001.0641,-327.4075 1010.5079,-317.7919"/>
<polygon fill="#191970" stroke="#191970" points="1013.0195,-320.2297 1017.5295,-310.6427 1008.0253,-315.3247 1013.0195,-320.2297"/>
</g>
</g>
</svg>
