<?xml version="1.0" encoding="UTF-8" standalone="no"?>
<!DOCTYPE svg PUBLIC "-//W3C//DTD SVG 1.1//EN"
 "http://www.w3.org/Graphics/SVG/1.1/DTD/svg11.dtd">
<!-- Generated by graphviz version 2.40.1 (20161225.0304)
 -->
<!-- Title: /home/travis/build/AliceO2Group/AliceO2/Framework/Core/src/DriverInfo.cxx Pages: 1 -->
<!--zoomable 352 -->
<svg id="main" version="1.1" xmlns="http://www.w3.org/2000/svg" xmlns:xlink="http://www.w3.org/1999/xlink" xml:space="preserve" onload="init(evt)">
<style type="text/css"><![CDATA[
.edge:hover path { stroke: red; }
.edge:hover polygon { stroke: red; fill: red; }
]]></style>
<script type="text/javascript"><![CDATA[
var edges = document.getElementsByTagName('g');
if (edges && edges.length) {
  for (var i=0;i<edges.length;i++) {
    if (edges[i].id.substr(0,4)=='edge') {
      edges[i].setAttribute('class','edge');
    }
  }
}
]]></script>
        <defs>
                <circle id="rim" cx="0" cy="0" r="7"/>
                <circle id="rim2" cx="0" cy="0" r="3.5"/>
                <g id="zoomPlus">
                        <use xlink:href="#rim" fill="#404040">
                                <set attributeName="fill" to="#808080" begin="zoomplus.mouseover" end="zoomplus.mouseout"/>
                        </use>
                        <path d="M-4,0h8M0,-4v8" fill="none" stroke="white" stroke-width="1.5" pointer-events="none"/>
                </g>
                <g id="zoomMin">
                        <use xlink:href="#rim" fill="#404040">
                                <set attributeName="fill" to="#808080" begin="zoomminus.mouseover" end="zoomminus.mouseout"/>
                        </use>
                        <path d="M-4,0h8" fill="none" stroke="white" stroke-width="1.5" pointer-events="none"/>
                </g>
                <g id="dirArrow">
                        <path fill="none" stroke="white" stroke-width="1.5" d="M0,-3.0v7 M-2.5,-0.5L0,-3.0L2.5,-0.5"/>
                </g>
               <g id="resetDef">
                       <use xlink:href="#rim2" fill="#404040">
                               <set attributeName="fill" to="#808080" begin="reset.mouseover" end="reset.mouseout"/>
                       </use>
               </g>
        </defs>

<script type="text/javascript">
var viewWidth = 1717;
var viewHeight = 352;
var sectionId = 'dynsection-0';
</script>
<script xlink:href="../../svgpan.js"/>
<svg id="graph" class="graph">
<g id="viewport">
<title>/home/travis/build/AliceO2Group/AliceO2/Framework/Core/src/DriverInfo.cxx</title>
<!-- Node0 -->
<g id="node1" class="node">
<title>Node0</title>
<polygon fill="#bfbfbf" stroke="#000000" points="874.5,-302.5 874.5,-343.5 1062.5,-343.5 1062.5,-302.5 874.5,-302.5"/>
<text text-anchor="start" x="882.5" y="-331.5" font-family="Helvetica,sans-Serif" font-size="10.00" fill="#000000">/home/travis/build</text>
<text text-anchor="start" x="882.5" y="-320.5" font-family="Helvetica,sans-Serif" font-size="10.00" fill="#000000">/AliceO2Group/AliceO2</text>
<text text-anchor="middle" x="968.5" y="-309.5" font-family="Helvetica,sans-Serif" font-size="10.00" fill="#000000">/Framework/Core/src/DriverInfo.cxx</text>
</g>
<!-- Node1 -->
<g id="node2" class="node">
<title>Node1</title>
<g id="a_node2"><a xlink:href="../../de/da9/DriverInfo_8h.html" target="_top" xlink:title="DriverInfo.h">
<polygon fill="none" stroke="#000000" points="931.5,-246.5 931.5,-265.5 1005.5,-265.5 1005.5,-246.5 931.5,-246.5"/>
<text text-anchor="middle" x="968.5" y="-253.5" font-family="Helvetica,sans-Serif" font-size="10.00" fill="#000000">DriverInfo.h</text>
</a>
</g>
</g>
<!-- Node0&#45;&gt;Node1 -->
<g id="edge1" class="edge">
<title>Node0&#45;&gt;Node1</title>
<path fill="none" stroke="#191970" d="M968.5,-302.168C968.5,-293.8226 968.5,-284.2471 968.5,-275.9879"/>
<polygon fill="#191970" stroke="#191970" points="972.0001,-275.7804 968.5,-265.7805 965.0001,-275.7805 972.0001,-275.7804"/>
</g>
<!-- Node2 -->
<g id="node3" class="node">
<title>Node2</title>
<polygon fill="none" stroke="#bfbfbf" points="753,-118 753,-137 806,-137 806,-118 753,-118"/>
<text text-anchor="middle" x="779.5" y="-125" font-family="Helvetica,sans-Serif" font-size="10.00" fill="#000000">cstddef</text>
</g>
<!-- Node1&#45;&gt;Node2 -->
<g id="edge2" class="edge">
<title>Node1&#45;&gt;Node2</title>
<path fill="none" stroke="#191970" d="M931.3425,-252.4322C881.2877,-246.7702 796.2847,-233.8458 777.5,-210 763.4927,-192.2187 767.5366,-164.9623 772.686,-146.6986"/>
<polygon fill="#191970" stroke="#191970" points="776.0356,-147.7141 775.7175,-137.124 769.3621,-145.6011 776.0356,-147.7141"/>
</g>
<!-- Node3 -->
<g id="node4" class="node">
<title>Node3</title>
<polygon fill="none" stroke="#bfbfbf" points="901,-118 901,-137 948,-137 948,-118 901,-118"/>
<text text-anchor="middle" x="924.5" y="-125" font-family="Helvetica,sans-Serif" font-size="10.00" fill="#000000">vector</text>
</g>
<!-- Node1&#45;&gt;Node3 -->
<g id="edge3" class="edge">
<title>Node1&#45;&gt;Node3</title>
<path fill="none" stroke="#191970" d="M966.7909,-246.3254C964.0291,-231.5427 958.0205,-202.5666 949.5,-179 945.437,-167.7621 939.6758,-155.7202 934.7079,-146.1084"/>
<polygon fill="#191970" stroke="#191970" points="937.7071,-144.2938 929.9224,-137.1071 931.5263,-147.5798 937.7071,-144.2938"/>
</g>
<!-- Node4 -->
<g id="node5" class="node">
<title>Node4</title>
<polygon fill="none" stroke="#bfbfbf" points="1379,-185 1379,-204 1430,-204 1430,-185 1379,-185"/>
<text text-anchor="middle" x="1404.5" y="-192" font-family="Helvetica,sans-Serif" font-size="10.00" fill="#000000">csignal</text>
</g>
<!-- Node1&#45;&gt;Node4 -->
<g id="edge4" class="edge">
<title>Node1&#45;&gt;Node4</title>
<path fill="none" stroke="#191970" d="M1005.8085,-253.2323C1091.8876,-246.6046 1302.2213,-228.958 1370.5,-210 1372.469,-209.4533 1374.4682,-208.8065 1376.4604,-208.0924"/>
<polygon fill="#191970" stroke="#191970" points="1378.2586,-211.1385 1386.1903,-204.1144 1375.6095,-204.6591 1378.2586,-211.1385"/>
</g>
<!-- Node5 -->
<g id="node6" class="node">
<title>Node5</title>
<polygon fill="none" stroke="#bfbfbf" points="1448.5,-185 1448.5,-204 1522.5,-204 1522.5,-185 1448.5,-185"/>
<text text-anchor="middle" x="1485.5" y="-192" font-family="Helvetica,sans-Serif" font-size="10.00" fill="#000000">sys/select.h</text>
</g>
<!-- Node1&#45;&gt;Node5 -->
<g id="edge5" class="edge">
<title>Node1&#45;&gt;Node5</title>
<path fill="none" stroke="#191970" d="M1005.5807,-255.2374C1085.67,-252.9688 1280.4375,-244.0996 1439.5,-210 1443.1771,-209.2117 1446.9701,-208.2272 1450.7267,-207.139"/>
<polygon fill="#191970" stroke="#191970" points="1451.9873,-210.4118 1460.4814,-204.0792 1449.8922,-203.7326 1451.9873,-210.4118"/>
</g>
<!-- Node6 -->
<g id="node7" class="node">
<title>Node6</title>
<g id="a_node7"><a xlink:href="../../dd/d0f/ChannelConfigurationPolicy_8h.html" target="_top" xlink:title="Framework/ChannelConfiguration\lPolicy.h">
<polygon fill="none" stroke="#000000" points="997,-179.5 997,-209.5 1176,-209.5 1176,-179.5 997,-179.5"/>
<text text-anchor="start" x="1005" y="-197.5" font-family="Helvetica,sans-Serif" font-size="10.00" fill="#000000">Framework/ChannelConfiguration</text>
<text text-anchor="middle" x="1086.5" y="-186.5" font-family="Helvetica,sans-Serif" font-size="10.00" fill="#000000">Policy.h</text>
</a>
</g>
</g>
<!-- Node1&#45;&gt;Node6 -->
<g id="edge6" class="edge">
<title>Node1&#45;&gt;Node6</title>
<path fill="none" stroke="#191970" d="M986.9375,-246.3906C1003.4249,-237.7976 1028.1032,-224.9356 1048.7648,-214.1671"/>
<polygon fill="#191970" stroke="#191970" points="1050.3837,-217.2702 1057.634,-209.5446 1047.1484,-211.0627 1050.3837,-217.2702"/>
</g>
<!-- Node11 -->
<g id="node12" class="node">
<title>Node11</title>
<g id="a_node12"><a xlink:href="../../d0/d1c/ConfigParamSpec_8h.html" target="_top" xlink:title="Framework/ConfigParamSpec.h">
<polygon fill="none" stroke="#000000" points="280,-118 280,-137 447,-137 447,-118 280,-118"/>
<text text-anchor="middle" x="363.5" y="-125" font-family="Helvetica,sans-Serif" font-size="10.00" fill="#000000">Framework/ConfigParamSpec.h</text>
</a>
</g>
</g>
<!-- Node1&#45;&gt;Node11 -->
<g id="edge14" class="edge">
<title>Node1&#45;&gt;Node11</title>
<path fill="none" stroke="#191970" d="M931.2406,-254.8834C813.7699,-251.0933 456.337,-237.404 412.5,-210 389.6163,-195.6946 376.0726,-166.4572 369.2119,-146.9148"/>
<polygon fill="#191970" stroke="#191970" points="372.4806,-145.6477 366.071,-137.2117 365.8208,-147.8035 372.4806,-145.6477"/>
</g>
<!-- Node21 -->
<g id="node22" class="node">
<title>Node21</title>
<g id="a_node22"><a xlink:href="../../d7/df1/TerminationPolicy_8h.html" target="_top" xlink:title="Framework/TerminationPolicy.h">
<polygon fill="none" stroke="#000000" points="1540.5,-185 1540.5,-204 1708.5,-204 1708.5,-185 1540.5,-185"/>
<text text-anchor="middle" x="1624.5" y="-192" font-family="Helvetica,sans-Serif" font-size="10.00" fill="#000000">Framework/TerminationPolicy.h</text>
</a>
</g>
</g>
<!-- Node1&#45;&gt;Node21 -->
<g id="edge26" class="edge">
<title>Node1&#45;&gt;Node21</title>
<path fill="none" stroke="#191970" d="M1005.8315,-254.0322C1096.2675,-249.0299 1334.176,-234.4614 1531.5,-210 1541.3684,-208.7767 1551.7903,-207.2611 1561.9473,-205.6608"/>
<polygon fill="#191970" stroke="#191970" points="1562.6714,-209.0893 1571.9856,-204.0401 1561.5556,-202.1788 1562.6714,-209.0893"/>
</g>
<!-- Node22 -->
<g id="node23" class="node">
<title>Node22</title>
<g id="a_node23"><a xlink:href="../../df/dd6/CompletionPolicy_8h.html" target="_top" xlink:title="Framework/CompletionPolicy.h">
<polygon fill="none" stroke="#000000" points="1194,-185 1194,-204 1361,-204 1361,-185 1194,-185"/>
<text text-anchor="middle" x="1277.5" y="-192" font-family="Helvetica,sans-Serif" font-size="10.00" fill="#000000">Framework/CompletionPolicy.h</text>
</a>
</g>
</g>
<!-- Node1&#45;&gt;Node22 -->
<g id="edge27" class="edge">
<title>Node1&#45;&gt;Node22</title>
<path fill="none" stroke="#191970" d="M1005.7726,-248.5817C1058.9148,-238.0048 1156.9453,-218.4939 1219.5931,-206.0252"/>
<polygon fill="#191970" stroke="#191970" points="1220.5887,-209.3957 1229.7131,-204.011 1219.2222,-202.5304 1220.5887,-209.3957"/>
</g>
<!-- Node25 -->
<g id="node26" class="node">
<title>Node25</title>
<g id="a_node26"><a xlink:href="../../da/de6/DispatchPolicy_8h.html" target="_top" xlink:title="Framework/DispatchPolicy.h">
<polygon fill="none" stroke="#000000" points="787,-185 787,-204 940,-204 940,-185 787,-185"/>
<text text-anchor="middle" x="863.5" y="-192" font-family="Helvetica,sans-Serif" font-size="10.00" fill="#000000">Framework/DispatchPolicy.h</text>
</a>
</g>
</g>
<!-- Node1&#45;&gt;Node25 -->
<g id="edge35" class="edge">
<title>Node1&#45;&gt;Node25</title>
<path fill="none" stroke="#191970" d="M952.0938,-246.3906C935.0647,-236.4165 908.2159,-220.6908 888.5349,-209.1633"/>
<polygon fill="#191970" stroke="#191970" points="890.1888,-206.0759 879.791,-204.0419 886.651,-212.1161 890.1888,-206.0759"/>
</g>
<!-- Node26 -->
<g id="node27" class="node">
<title>Node26</title>
<g id="a_node27"><a xlink:href="../../dc/df0/DeviceMetricsInfo_8h.html" target="_top" xlink:title="Framework/DeviceMetricsInfo.h">
<polygon fill="none" stroke="#000000" points="560.5,-185 560.5,-204 730.5,-204 730.5,-185 560.5,-185"/>
<text text-anchor="middle" x="645.5" y="-192" font-family="Helvetica,sans-Serif" font-size="10.00" fill="#000000">Framework/DeviceMetricsInfo.h</text>
</a>
</g>
</g>
<!-- Node1&#45;&gt;Node26 -->
<g id="edge39" class="edge">
<title>Node1&#45;&gt;Node26</title>
<path fill="none" stroke="#191970" d="M931.4478,-248.9452C876.2037,-238.4265 771.6647,-218.5221 705.4499,-205.9146"/>
<polygon fill="#191970" stroke="#191970" points="706.0456,-202.4652 695.5674,-204.0329 704.7362,-209.3417 706.0456,-202.4652"/>
</g>
<!-- Node28 -->
<g id="node29" class="node">
<title>Node28</title>
<g id="a_node29"><a xlink:href="../../d3/db3/DataProcessorInfo_8h.html" target="_top" xlink:title="DataProcessorInfo.h">
<polygon fill="none" stroke="#000000" points="422,-185 422,-204 537,-204 537,-185 422,-185"/>
<text text-anchor="middle" x="479.5" y="-192" font-family="Helvetica,sans-Serif" font-size="10.00" fill="#000000">DataProcessorInfo.h</text>
</a>
</g>
</g>
<!-- Node1&#45;&gt;Node28 -->
<g id="edge48" class="edge">
<title>Node1&#45;&gt;Node28</title>
<path fill="none" stroke="#191970" d="M931.23,-253.1747C858.1004,-247.3474 690.7938,-232.6156 551.5,-210 544.7162,-208.8986 537.607,-207.5764 530.6081,-206.1747"/>
<polygon fill="#191970" stroke="#191970" points="530.9854,-202.6787 520.4837,-204.0805 529.5675,-209.5336 530.9854,-202.6787"/>
</g>
<!-- Node6&#45;&gt;Node3 -->
<g id="edge12" class="edge">
<title>Node6&#45;&gt;Node3</title>
<path fill="none" stroke="#191970" d="M1050.144,-179.4639C1022.2279,-167.9183 984.0231,-152.1176 957.093,-140.9798"/>
<polygon fill="#191970" stroke="#191970" points="958.3,-137.6915 947.7214,-137.1039 955.6246,-144.1601 958.3,-137.6915"/>
</g>
<!-- Node7 -->
<g id="node8" class="node">
<title>Node7</title>
<g id="a_node8"><a xlink:href="../../d6/d05/ChannelConfigurationPolicyHelpers_8h.html" target="_top" xlink:title="Framework/ChannelConfiguration\lPolicyHelpers.h">
<polygon fill="none" stroke="#000000" points="1005,-112.5 1005,-142.5 1184,-142.5 1184,-112.5 1005,-112.5"/>
<text text-anchor="start" x="1013" y="-130.5" font-family="Helvetica,sans-Serif" font-size="10.00" fill="#000000">Framework/ChannelConfiguration</text>
<text text-anchor="middle" x="1094.5" y="-119.5" font-family="Helvetica,sans-Serif" font-size="10.00" fill="#000000">PolicyHelpers.h</text>
</a>
</g>
</g>
<!-- Node6&#45;&gt;Node7 -->
<g id="edge7" class="edge">
<title>Node6&#45;&gt;Node7</title>
<path fill="none" stroke="#191970" d="M1088.3153,-179.2967C1089.2563,-171.4156 1090.4301,-161.5857 1091.5014,-152.6135"/>
<polygon fill="#191970" stroke="#191970" points="1094.9815,-152.9876 1092.6919,-142.6432 1088.0309,-152.1576 1094.9815,-152.9876"/>
</g>
<!-- Node8 -->
<g id="node9" class="node">
<title>Node8</title>
<g id="a_node9"><a xlink:href="../../d6/d72/ChannelSpec_8h.html" target="_top" xlink:title="Framework/ChannelSpec.h">
<polygon fill="none" stroke="#000000" points="1027.5,-56.5 1027.5,-75.5 1173.5,-75.5 1173.5,-56.5 1027.5,-56.5"/>
<text text-anchor="middle" x="1100.5" y="-63.5" font-family="Helvetica,sans-Serif" font-size="10.00" fill="#000000">Framework/ChannelSpec.h</text>
</a>
</g>
</g>
<!-- Node6&#45;&gt;Node8 -->
<g id="edge11" class="edge">
<title>Node6&#45;&gt;Node8</title>
<path fill="none" stroke="#191970" d="M1146.1785,-179.4109C1164.549,-171.6621 1182.7491,-160.1059 1193.5,-143 1200.8315,-131.3348 1200.7686,-123.7044 1193.5,-112 1183.9673,-96.6499 1167.6258,-86.2666 1151.2752,-79.3145"/>
<polygon fill="#191970" stroke="#191970" points="1152.2877,-75.9534 1141.6985,-75.6061 1149.7599,-82.481 1152.2877,-75.9534"/>
</g>
<!-- Node10 -->
<g id="node11" class="node">
<title>Node10</title>
<polygon fill="none" stroke="#bfbfbf" points="944,-56.5 944,-75.5 1009,-75.5 1009,-56.5 944,-56.5"/>
<text text-anchor="middle" x="976.5" y="-63.5" font-family="Helvetica,sans-Serif" font-size="10.00" fill="#000000">functional</text>
</g>
<!-- Node6&#45;&gt;Node10 -->
<g id="edge13" class="edge">
<title>Node6&#45;&gt;Node10</title>
<path fill="none" stroke="#191970" d="M1045.1894,-179.3737C1027.8361,-171.0907 1008.8529,-159.1625 996.5,-143 983.8251,-126.4162 979.1451,-102.5784 977.4379,-85.8305"/>
<polygon fill="#191970" stroke="#191970" points="980.9048,-85.2561 976.6692,-75.5448 973.9243,-85.7778 980.9048,-85.2561"/>
</g>
<!-- Node7&#45;&gt;Node8 -->
<g id="edge8" class="edge">
<title>Node7&#45;&gt;Node8</title>
<path fill="none" stroke="#191970" d="M1095.9831,-112.2977C1096.7553,-104.3834 1097.7093,-94.6043 1098.5414,-86.0759"/>
<polygon fill="#191970" stroke="#191970" points="1102.0517,-86.1396 1099.5393,-75.8469 1095.0848,-85.4598 1102.0517,-86.1396"/>
</g>
<!-- Node7&#45;&gt;Node10 -->
<g id="edge10" class="edge">
<title>Node7&#45;&gt;Node10</title>
<path fill="none" stroke="#191970" d="M1065.634,-112.4554C1046.8089,-102.644 1022.389,-89.9167 1003.8708,-80.2653"/>
<polygon fill="#191970" stroke="#191970" points="1005.2713,-77.0484 994.7858,-75.5303 1002.036,-83.2559 1005.2713,-77.0484"/>
</g>
<!-- Node9 -->
<g id="node10" class="node">
<title>Node9</title>
<polygon fill="none" stroke="#bfbfbf" points="714.5,-.5 714.5,-19.5 758.5,-19.5 758.5,-.5 714.5,-.5"/>
<text text-anchor="middle" x="736.5" y="-7.5" font-family="Helvetica,sans-Serif" font-size="10.00" fill="#000000">string</text>
</g>
<!-- Node8&#45;&gt;Node9 -->
<g id="edge9" class="edge">
<title>Node8&#45;&gt;Node9</title>
<path fill="none" stroke="#191970" d="M1038.3398,-56.4369C960.1869,-44.4134 828.9619,-24.2249 768.6227,-14.942"/>
<polygon fill="#191970" stroke="#191970" points="768.9636,-11.4533 758.5476,-13.3919 767.8991,-18.3719 768.9636,-11.4533"/>
</g>
<!-- Node11&#45;&gt;Node9 -->
<g id="edge25" class="edge">
<title>Node11&#45;&gt;Node9</title>
<path fill="none" stroke="#191970" d="M394.1811,-117.9406C452.4957,-99.7533 583.5916,-58.7794 704.6773,-20.2468"/>
<polygon fill="#191970" stroke="#191970" points="706.0243,-23.4911 714.4911,-17.1221 703.9005,-16.821 706.0243,-23.4911"/>
</g>
<!-- Node12 -->
<g id="node13" class="node">
<title>Node12</title>
<g id="a_node13"><a xlink:href="../../de/d56/Variant_8h.html" target="_top" xlink:title="Framework/Variant.h">
<polygon fill="none" stroke="#000000" points="295,-56.5 295,-75.5 412,-75.5 412,-56.5 295,-56.5"/>
<text text-anchor="middle" x="353.5" y="-63.5" font-family="Helvetica,sans-Serif" font-size="10.00" fill="#000000">Framework/Variant.h</text>
</a>
</g>
</g>
<!-- Node11&#45;&gt;Node12 -->
<g id="edge15" class="edge">
<title>Node11&#45;&gt;Node12</title>
<path fill="none" stroke="#191970" d="M361.9375,-117.8906C360.5513,-109.3657 358.482,-96.6392 356.7396,-85.9235"/>
<polygon fill="#191970" stroke="#191970" points="360.1442,-85.0535 355.0845,-75.7449 353.2349,-86.177 360.1442,-85.0535"/>
</g>
<!-- Node12&#45;&gt;Node9 -->
<g id="edge24" class="edge">
<title>Node12&#45;&gt;Node9</title>
<path fill="none" stroke="#191970" d="M412.1642,-58.9265C498.1571,-48.475 653.0307,-29.3117 704.2759,-19.7523"/>
<polygon fill="#191970" stroke="#191970" points="705.1893,-23.1379 714.2833,-17.7019 703.7842,-16.2804 705.1893,-23.1379"/>
</g>
<!-- Node13 -->
<g id="node14" class="node">
<title>Node13</title>
<g id="a_node14"><a xlink:href="../../d1/d76/RuntimeError_8h.html" target="_top" xlink:title="Framework/RuntimeError.h">
<polygon fill="none" stroke="#000000" points="482.5,-.5 482.5,-19.5 628.5,-19.5 628.5,-.5 482.5,-.5"/>
<text text-anchor="middle" x="555.5" y="-7.5" font-family="Helvetica,sans-Serif" font-size="10.00" fill="#000000">Framework/RuntimeError.h</text>
</a>
</g>
</g>
<!-- Node12&#45;&gt;Node13 -->
<g id="edge16" class="edge">
<title>Node12&#45;&gt;Node13</title>
<path fill="none" stroke="#191970" d="M388.225,-56.3733C422.2508,-46.9404 474.2437,-32.5265 511.2234,-22.2747"/>
<polygon fill="#191970" stroke="#191970" points="512.5266,-25.5455 521.2281,-19.5011 510.6565,-18.7999 512.5266,-25.5455"/>
</g>
<!-- Node14 -->
<g id="node15" class="node">
<title>Node14</title>
<polygon fill="none" stroke="#bfbfbf" points="101,-.5 101,-19.5 170,-19.5 170,-.5 101,-.5"/>
<text text-anchor="middle" x="135.5" y="-7.5" font-family="Helvetica,sans-Serif" font-size="10.00" fill="#000000">type_traits</text>
</g>
<!-- Node12&#45;&gt;Node14 -->
<g id="edge17" class="edge">
<title>Node12&#45;&gt;Node14</title>
<path fill="none" stroke="#191970" d="M316.0245,-56.3733C278.3164,-46.6868 220.1614,-31.7479 180.1007,-21.4571"/>
<polygon fill="#191970" stroke="#191970" points="180.8854,-18.0451 170.3291,-18.9469 179.1438,-24.825 180.8854,-18.0451"/>
</g>
<!-- Node15 -->
<g id="node16" class="node">
<title>Node15</title>
<polygon fill="none" stroke="#bfbfbf" points="646.5,-.5 646.5,-19.5 696.5,-19.5 696.5,-.5 646.5,-.5"/>
<text text-anchor="middle" x="671.5" y="-7.5" font-family="Helvetica,sans-Serif" font-size="10.00" fill="#000000">cstring</text>
</g>
<!-- Node12&#45;&gt;Node15 -->
<g id="edge18" class="edge">
<title>Node12&#45;&gt;Node15</title>
<path fill="none" stroke="#191970" d="M412.1113,-58.6947C467.6285,-51.2819 553.4542,-38.5493 636.4931,-20.0111"/>
<polygon fill="#191970" stroke="#191970" points="637.361,-23.4033 646.3415,-17.7818 635.8155,-16.5761 637.361,-23.4033"/>
</g>
<!-- Node16 -->
<g id="node17" class="node">
<title>Node16</title>
<polygon fill="none" stroke="#bfbfbf" points="188.5,-.5 188.5,-19.5 238.5,-19.5 238.5,-.5 188.5,-.5"/>
<text text-anchor="middle" x="213.5" y="-7.5" font-family="Helvetica,sans-Serif" font-size="10.00" fill="#000000">cstdint</text>
</g>
<!-- Node12&#45;&gt;Node16 -->
<g id="edge19" class="edge">
<title>Node12&#45;&gt;Node16</title>
<path fill="none" stroke="#191970" d="M329.4331,-56.3733C306.6572,-47.2629 272.2656,-33.5062 246.851,-23.3404"/>
<polygon fill="#191970" stroke="#191970" points="247.8375,-19.9654 237.2528,-19.5011 245.2377,-26.4648 247.8375,-19.9654"/>
</g>
<!-- Node17 -->
<g id="node18" class="node">
<title>Node17</title>
<polygon fill="none" stroke="#bfbfbf" points="257,-.5 257,-19.5 306,-19.5 306,-.5 257,-.5"/>
<text text-anchor="middle" x="281.5" y="-7.5" font-family="Helvetica,sans-Serif" font-size="10.00" fill="#000000">cstdlib</text>
</g>
<!-- Node12&#45;&gt;Node17 -->
<g id="edge20" class="edge">
<title>Node12&#45;&gt;Node17</title>
<path fill="none" stroke="#191970" d="M340.9586,-56.2455C330.2213,-47.8943 314.5527,-35.7076 301.9953,-25.9408"/>
<polygon fill="#191970" stroke="#191970" points="303.9401,-23.0194 293.8977,-19.6427 299.6425,-28.5449 303.9401,-23.0194"/>
</g>
<!-- Node18 -->
<g id="node19" class="node">
<title>Node18</title>
<polygon fill="none" stroke="#bfbfbf" points="324,-.5 324,-19.5 373,-19.5 373,-.5 324,-.5"/>
<text text-anchor="middle" x="348.5" y="-7.5" font-family="Helvetica,sans-Serif" font-size="10.00" fill="#000000">iosfwd</text>
</g>
<!-- Node12&#45;&gt;Node18 -->
<g id="edge21" class="edge">
<title>Node12&#45;&gt;Node18</title>
<path fill="none" stroke="#191970" d="M352.6291,-56.2455C351.9766,-48.9382 351.062,-38.6944 350.2593,-29.7046"/>
<polygon fill="#191970" stroke="#191970" points="353.7365,-29.2918 349.361,-19.6427 346.7642,-29.9143 353.7365,-29.2918"/>
</g>
<!-- Node19 -->
<g id="node20" class="node">
<title>Node19</title>
<polygon fill="none" stroke="#bfbfbf" points="0,-.5 0,-19.5 83,-19.5 83,-.5 0,-.5"/>
<text text-anchor="middle" x="41.5" y="-7.5" font-family="Helvetica,sans-Serif" font-size="10.00" fill="#000000">initializer_list</text>
</g>
<!-- Node12&#45;&gt;Node19 -->
<g id="edge22" class="edge">
<title>Node12&#45;&gt;Node19</title>
<path fill="none" stroke="#191970" d="M296.9558,-56.4687C246.128,-47.8112 169.1573,-34.4798 93.4191,-20.3322"/>
<polygon fill="#191970" stroke="#191970" points="93.7012,-16.8242 83.2276,-18.422 92.4117,-23.7044 93.7012,-16.8242"/>
</g>
<!-- Node20 -->
<g id="node21" class="node">
<title>Node20</title>
<polygon fill="none" stroke="#bfbfbf" points="391,-.5 391,-19.5 464,-19.5 464,-.5 391,-.5"/>
<text text-anchor="middle" x="427.5" y="-7.5" font-family="Helvetica,sans-Serif" font-size="10.00" fill="#000000">string_view</text>
</g>
<!-- Node12&#45;&gt;Node20 -->
<g id="edge23" class="edge">
<title>Node12&#45;&gt;Node20</title>
<path fill="none" stroke="#191970" d="M366.3898,-56.2455C377.4254,-47.8943 393.5292,-35.7076 406.4353,-25.9408"/>
<polygon fill="#191970" stroke="#191970" points="408.8959,-28.4681 414.7579,-19.6427 404.6717,-22.8862 408.8959,-28.4681"/>
</g>
<!-- Node22&#45;&gt;Node3 -->
<g id="edge34" class="edge">
<title>Node22&#45;&gt;Node3</title>
<path fill="none" stroke="#191970" d="M1222.7476,-184.9795C1166.0471,-174.9998 1074.9342,-158.6262 996.5,-143 983.9885,-140.5074 970.2928,-137.6033 958.2365,-134.9871"/>
<polygon fill="#191970" stroke="#191970" points="958.6513,-131.4952 948.1346,-132.7797 957.1569,-138.3338 958.6513,-131.4952"/>
</g>
<!-- Node22&#45;&gt;Node9 -->
<g id="edge33" class="edge">
<title>Node22&#45;&gt;Node9</title>
<path fill="none" stroke="#191970" d="M1326.9493,-184.9615C1368.2782,-175.866 1422.493,-160.9202 1435.5,-143 1458.2131,-111.7074 1461.9285,-84.2249 1435.5,-56 1412.4089,-31.3393 902.6525,-14.8293 768.573,-10.9027"/>
<polygon fill="#191970" stroke="#191970" points="768.6208,-7.4027 758.5236,-10.6115 768.4179,-14.3998 768.6208,-7.4027"/>
</g>
<!-- Node22&#45;&gt;Node10 -->
<g id="edge32" class="edge">
<title>Node22&#45;&gt;Node10</title>
<path fill="none" stroke="#191970" d="M1270.6676,-184.7962C1257.7555,-167.2483 1227.9544,-130.3615 1193.5,-112 1126.1609,-76.1135 1098.2275,-91.8347 1018.9634,-75.9508"/>
<polygon fill="#191970" stroke="#191970" points="1019.5443,-72.4963 1009.0365,-73.8515 1018.0959,-79.3448 1019.5443,-72.4963"/>
</g>
<!-- Node23 -->
<g id="node24" class="node">
<title>Node23</title>
<g id="a_node24"><a xlink:href="../../d5/dfb/DataRef_8h.html" target="_top" xlink:title="Framework/DataRef.h">
<polygon fill="none" stroke="#000000" points="1305,-56.5 1305,-75.5 1426,-75.5 1426,-56.5 1305,-56.5"/>
<text text-anchor="middle" x="1365.5" y="-63.5" font-family="Helvetica,sans-Serif" font-size="10.00" fill="#000000">Framework/DataRef.h</text>
</a>
</g>
</g>
<!-- Node22&#45;&gt;Node23 -->
<g id="edge28" class="edge">
<title>Node22&#45;&gt;Node23</title>
<path fill="none" stroke="#191970" d="M1319.4821,-184.9139C1356.952,-175.4071 1407.6828,-159.8562 1419.5,-143 1427.4091,-131.7184 1425.2763,-124.5085 1419.5,-112 1413.6741,-99.384 1402.4931,-88.9528 1391.8095,-81.2314"/>
<polygon fill="#191970" stroke="#191970" points="1393.7142,-78.2946 1383.4599,-75.6299 1389.8144,-84.1076 1393.7142,-78.2946"/>
</g>
<!-- Node24 -->
<g id="node25" class="node">
<title>Node24</title>
<g id="a_node25"><a xlink:href="../../da/d0f/InputSpan_8h.html" target="_top" xlink:title="Framework/InputSpan.h">
<polygon fill="none" stroke="#000000" points="1279,-118 1279,-137 1410,-137 1410,-118 1279,-118"/>
<text text-anchor="middle" x="1344.5" y="-125" font-family="Helvetica,sans-Serif" font-size="10.00" fill="#000000">Framework/InputSpan.h</text>
</a>
</g>
</g>
<!-- Node22&#45;&gt;Node24 -->
<g id="edge29" class="edge">
<title>Node22&#45;&gt;Node24</title>
<path fill="none" stroke="#191970" d="M1287.0995,-184.9005C1297.647,-174.353 1314.7904,-157.2096 1327.6002,-144.3998"/>
<polygon fill="#191970" stroke="#191970" points="1330.3221,-146.6276 1334.9183,-137.0817 1325.3724,-141.6779 1330.3221,-146.6276"/>
</g>
<!-- Node24&#45;&gt;Node10 -->
<g id="edge31" class="edge">
<title>Node24&#45;&gt;Node10</title>
<path fill="none" stroke="#191970" d="M1297.1872,-117.959C1286.4568,-115.8994 1275.0999,-113.8015 1264.5,-112 1158.7557,-94.0284 1128.7608,-96.6407 1019.5633,-76.0651"/>
<polygon fill="#191970" stroke="#191970" points="1019.9342,-72.5728 1009.4555,-74.1375 1018.6229,-79.4489 1019.9342,-72.5728"/>
</g>
<!-- Node24&#45;&gt;Node23 -->
<g id="edge30" class="edge">
<title>Node24&#45;&gt;Node23</title>
<path fill="none" stroke="#191970" d="M1347.7813,-117.8906C1350.7535,-109.1862 1355.2214,-96.1015 1358.927,-85.2494"/>
<polygon fill="#191970" stroke="#191970" points="1362.2532,-86.3394 1362.1725,-75.7449 1355.6288,-84.0773 1362.2532,-86.3394"/>
</g>
<!-- Node25&#45;&gt;Node3 -->
<g id="edge38" class="edge">
<title>Node25&#45;&gt;Node3</title>
<path fill="none" stroke="#191970" d="M872.2398,-184.9005C881.7522,-174.4525 897.157,-157.5325 908.7825,-144.7635"/>
<polygon fill="#191970" stroke="#191970" points="911.6322,-146.8324 915.7764,-137.0817 906.4561,-142.1198 911.6322,-146.8324"/>
</g>
<!-- Node25&#45;&gt;Node9 -->
<g id="edge37" class="edge">
<title>Node25&#45;&gt;Node9</title>
<path fill="none" stroke="#191970" d="M858.1258,-184.6195C849.4691,-168.9042 831.6655,-137.3948 814.5,-112 793.7291,-81.2713 767.0103,-47.4008 750.8484,-27.4518"/>
<polygon fill="#191970" stroke="#191970" points="753.4513,-25.1056 744.4204,-19.5655 748.0254,-29.5282 753.4513,-25.1056"/>
</g>
<!-- Node25&#45;&gt;Node10 -->
<g id="edge36" class="edge">
<title>Node25&#45;&gt;Node10</title>
<path fill="none" stroke="#191970" d="M864.6034,-184.9999C866.9727,-168.4171 873.9293,-133.8741 892.5,-112 904.6438,-97.6961 922.4045,-87.0642 938.4701,-79.6465"/>
<polygon fill="#191970" stroke="#191970" points="939.9004,-82.8412 947.6782,-75.647 937.1116,-76.4207 939.9004,-82.8412"/>
</g>
<!-- Node26&#45;&gt;Node2 -->
<g id="edge42" class="edge">
<title>Node26&#45;&gt;Node2</title>
<path fill="none" stroke="#191970" d="M664.6989,-184.9005C687.3862,-173.5569 725.3313,-154.5844 751.3435,-141.5783"/>
<polygon fill="#191970" stroke="#191970" points="752.9577,-144.6843 760.3367,-137.0817 749.8271,-138.4234 752.9577,-144.6843"/>
</g>
<!-- Node26&#45;&gt;Node3 -->
<g id="edge47" class="edge">
<title>Node26&#45;&gt;Node3</title>
<path fill="none" stroke="#191970" d="M685.1776,-184.9717C740.3503,-171.7223 839.2704,-147.9673 890.9607,-135.5542"/>
<polygon fill="#191970" stroke="#191970" points="892.0356,-138.8957 900.9418,-133.1573 890.401,-132.0892 892.0356,-138.8957"/>
</g>
<!-- Node26&#45;&gt;Node9 -->
<g id="edge45" class="edge">
<title>Node26&#45;&gt;Node9</title>
<path fill="none" stroke="#191970" d="M650.2644,-184.8402C664.6997,-155.5732 708.1325,-67.5142 727.2718,-28.7099"/>
<polygon fill="#191970" stroke="#191970" points="730.4982,-30.0808 731.7827,-19.5641 724.2203,-26.9844 730.4982,-30.0808"/>
</g>
<!-- Node26&#45;&gt;Node10 -->
<g id="edge44" class="edge">
<title>Node26&#45;&gt;Node10</title>
<path fill="none" stroke="#191970" d="M655.5694,-184.8836C676.3626,-165.2225 723.749,-121.4758 743.5,-112 805.3216,-82.3403 885.1461,-71.8034 933.4966,-68.0608"/>
<polygon fill="#191970" stroke="#191970" points="933.8852,-71.5421 943.6118,-67.3418 933.3888,-64.5597 933.8852,-71.5421"/>
</g>
<!-- Node26&#45;&gt;Node13 -->
<g id="edge40" class="edge">
<title>Node26&#45;&gt;Node13</title>
<path fill="none" stroke="#191970" d="M634.8791,-184.7853C624.8055,-175.0662 609.8572,-159.2596 600.5,-143 579.0099,-105.6573 565.7434,-56.4794 559.5891,-29.6101"/>
<polygon fill="#191970" stroke="#191970" points="562.9458,-28.5774 557.3837,-19.5601 556.1085,-30.0779 562.9458,-28.5774"/>
</g>
<!-- Node26&#45;&gt;Node15 -->
<g id="edge43" class="edge">
<title>Node26&#45;&gt;Node15</title>
<path fill="none" stroke="#191970" d="M635.4695,-184.9687C626.1757,-175.3855 612.9866,-159.6767 607.5,-143 603.1942,-129.9123 603.6901,-125.2405 607.5,-112 616.9749,-79.0722 640.5507,-46.498 656.2881,-27.3215"/>
<polygon fill="#191970" stroke="#191970" points="659.1139,-29.4 662.8885,-19.5003 653.7642,-24.8854 659.1139,-29.4"/>
</g>
<!-- Node26&#45;&gt;Node20 -->
<g id="edge46" class="edge">
<title>Node26&#45;&gt;Node20</title>
<path fill="none" stroke="#191970" d="M633.3521,-184.7122C620.6128,-174.4147 600.0447,-157.6947 582.5,-143 533.018,-101.5558 475.5364,-51.8047 446.45,-26.5144"/>
<polygon fill="#191970" stroke="#191970" points="448.5428,-23.6959 438.7015,-19.7716 443.9475,-28.9765 448.5428,-23.6959"/>
</g>
<!-- Node27 -->
<g id="node28" class="node">
<title>Node27</title>
<polygon fill="none" stroke="#bfbfbf" points="616.5,-118 616.5,-137 658.5,-137 658.5,-118 616.5,-118"/>
<text text-anchor="middle" x="637.5" y="-125" font-family="Helvetica,sans-Serif" font-size="10.00" fill="#000000">array</text>
</g>
<!-- Node26&#45;&gt;Node27 -->
<g id="edge41" class="edge">
<title>Node26&#45;&gt;Node27</title>
<path fill="none" stroke="#191970" d="M644.3538,-184.9005C643.1894,-175.149 641.3519,-159.7597 639.8725,-147.3695"/>
<polygon fill="#191970" stroke="#191970" points="643.3051,-146.5961 638.6441,-137.0817 636.3545,-147.4261 643.3051,-146.5961"/>
</g>
<!-- Node28&#45;&gt;Node3 -->
<g id="edge51" class="edge">
<title>Node28&#45;&gt;Node3</title>
<path fill="none" stroke="#191970" d="M521.2742,-184.9448C531.1562,-182.8406 541.6773,-180.727 551.5,-179 667.6966,-158.5706 697.6429,-159.2309 814.5,-143 840.1093,-139.443 869.063,-135.3607 890.8352,-132.2788"/>
<polygon fill="#191970" stroke="#191970" points="891.4902,-135.721 900.9003,-130.8529 890.5082,-128.7902 891.4902,-135.721"/>
</g>
<!-- Node28&#45;&gt;Node9 -->
<g id="edge50" class="edge">
<title>Node28&#45;&gt;Node9</title>
<path fill="none" stroke="#191970" d="M492.9556,-184.8402C534.8508,-154.7637 663.2335,-62.5979 714.7625,-25.6053"/>
<polygon fill="#191970" stroke="#191970" points="717.0953,-28.2392 723.1776,-19.5641 713.013,-22.5528 717.0953,-28.2392"/>
</g>
<!-- Node28&#45;&gt;Node11 -->
<g id="edge49" class="edge">
<title>Node28&#45;&gt;Node11</title>
<path fill="none" stroke="#191970" d="M462.88,-184.9005C443.4988,-173.7062 411.2545,-155.0823 388.7685,-142.0947"/>
<polygon fill="#191970" stroke="#191970" points="390.4991,-139.0525 380.0891,-137.0817 386.998,-145.114 390.4991,-139.0525"/>
</g>
</g>
</svg>
        <g id="navigator" transform="translate(0 0)" fill="#404254">
                <rect fill="#f2f5e9" fill-opacity="0.5" stroke="#606060" stroke-width=".5" x="0" y="0" width="60" height="60"/>
                <use id="zoomplus" xlink:href="#zoomPlus" x="17" y="9" onmousedown="handleZoom(evt,'in')"/>
                <use id="zoomminus" xlink:href="#zoomMin" x="42" y="9" onmousedown="handleZoom(evt,'out')"/>
                <use id="reset" xlink:href="#resetDef" x="30" y="36" onmousedown="handleReset()"/>
                <g id="arrowUp" xlink:href="#dirArrow" transform="translate(30 24)" onmousedown="handlePan(0,-1)">
                  <use xlink:href="#rim" fill="#404040">
                        <set attributeName="fill" to="#808080" begin="arrowUp.mouseover" end="arrowUp.mouseout"/>
                  </use>
                  <path fill="none" stroke="white" stroke-width="1.5" d="M0,-3.0v7 M-2.5,-0.5L0,-3.0L2.5,-0.5"/>
                </g>
                <g id="arrowRight" xlink:href="#dirArrow" transform="rotate(90) translate(36 -43)" onmousedown="handlePan(1,0)">
                  <use xlink:href="#rim" fill="#404040">
                        <set attributeName="fill" to="#808080" begin="arrowRight.mouseover" end="arrowRight.mouseout"/>
                  </use>
                  <path fill="none" stroke="white" stroke-width="1.5" d="M0,-3.0v7 M-2.5,-0.5L0,-3.0L2.5,-0.5"/>
                </g>
                <g id="arrowDown" xlink:href="#dirArrow" transform="rotate(180) translate(-30 -48)" onmousedown="handlePan(0,1)">
                  <use xlink:href="#rim" fill="#404040">
                        <set attributeName="fill" to="#808080" begin="arrowDown.mouseover" end="arrowDown.mouseout"/>
                  </use>
                  <path fill="none" stroke="white" stroke-width="1.5" d="M0,-3.0v7 M-2.5,-0.5L0,-3.0L2.5,-0.5"/>
                </g>
                <g id="arrowLeft" xlink:href="#dirArrow" transform="rotate(270) translate(-36 17)" onmousedown="handlePan(-1,0)">
                  <use xlink:href="#rim" fill="#404040">
                        <set attributeName="fill" to="#808080" begin="arrowLeft.mouseover" end="arrowLeft.mouseout"/>
                  </use>
                  <path fill="none" stroke="white" stroke-width="1.5" d="M0,-3.0v7 M-2.5,-0.5L0,-3.0L2.5,-0.5"/>
                </g>
        </g>
        <svg viewBox="0 0 15 15" width="100%" height="30px" preserveAspectRatio="xMaxYMin meet">
         <g id="arrow_out" transform="scale(0.3 0.3)">
          <a xlink:href="DriverInfo_8cxx__incl_org.svg" target="_base">
           <rect id="button" ry="5" rx="5" y="6" x="6" height="38" width="38"
                fill="#f2f5e9" fill-opacity="0.5" stroke="#606060" stroke-width="1.0"/>
           <path id="arrow"
             d="M 11.500037,31.436501 C 11.940474,20.09759 22.043105,11.32322 32.158766,21.979434 L 37.068811,17.246167 C 37.068811,17.246167 37.088388,32 37.088388,32 L 22.160133,31.978069 C 22.160133,31.978069 26.997745,27.140456 26.997745,27.140456 C 18.528582,18.264221 13.291696,25.230495 11.500037,31.436501 z"
             style="fill:#404040;"/>
          </a>
         </g>
        </svg>
</svg>
