<?xml version="1.0" encoding="UTF-8" standalone="no"?>
<!DOCTYPE svg PUBLIC "-//W3C//DTD SVG 1.1//EN"
 "http://www.w3.org/Graphics/SVG/1.1/DTD/svg11.dtd">
<!-- Generated by graphviz version 2.40.1 (20161225.0304)
 -->
<!-- Title: o2::ft0::EventHeader Pages: 1 -->
<svg width="380pt" height="292pt"
 viewBox="0.00 0.00 379.50 292.00" xmlns="http://www.w3.org/2000/svg" xmlns:xlink="http://www.w3.org/1999/xlink">
<g id="graph0" class="graph" transform="scale(1 1) rotate(0) translate(4 288)">
<title>o2::ft0::EventHeader</title>
<!-- Node1 -->
<g id="node1" class="node">
<title>Node1</title>
<polygon fill="#bfbfbf" stroke="#000000" points="95,-.5 95,-68.5 212,-68.5 212,-.5 95,-.5"/>
<text text-anchor="middle" x="153.5" y="-56.5" font-family="Helvetica,sans-Serif" font-size="10.00" fill="#000000">o2::ft0::EventHeader</text>
<polyline fill="none" stroke="#000000" points="95,-49.5 212,-49.5 "/>
<text text-anchor="middle" x="153.5" y="-37.5" font-family="Helvetica,sans-Serif" font-size="10.00" fill="#000000"> </text>
<polyline fill="none" stroke="#000000" points="95,-30.5 212,-30.5 "/>
<text text-anchor="start" x="103" y="-18.5" font-family="Helvetica,sans-Serif" font-size="10.00" fill="#000000">+ getIntRec()</text>
<text text-anchor="start" x="103" y="-7.5" font-family="Helvetica,sans-Serif" font-size="10.00" fill="#000000">+ print()</text>
</g>
<!-- Node2 -->
<g id="node2" class="node">
<title>Node2</title>
<polygon fill="none" stroke="#bfbfbf" points="0,-226.5 0,-283.5 107,-283.5 107,-226.5 0,-226.5"/>
<text text-anchor="middle" x="53.5" y="-271.5" font-family="Helvetica,sans-Serif" font-size="10.00" fill="#000000">anonymous:+@10</text>
<polyline fill="none" stroke="#bfbfbf" points="0,-264.5 107,-264.5 "/>
<text text-anchor="middle" x="53.5" y="-252.5" font-family="Helvetica,sans-Serif" font-size="10.00" fill="#000000"> </text>
<polyline fill="none" stroke="#bfbfbf" points="0,-245.5 107,-245.5 "/>
<text text-anchor="middle" x="53.5" y="-233.5" font-family="Helvetica,sans-Serif" font-size="10.00" fill="#000000"> </text>
</g>
<!-- Node2&#45;&gt;Node1 -->
<g id="edge1" class="edge">
<title>Node2&#45;&gt;Node1</title>
<path fill="none" stroke="#404040" d="M61.4571,-226.3452C71.5591,-192.0699 90.698,-133.4951 115.5,-87 116.9364,-84.3072 118.4951,-81.5956 120.134,-78.8994"/>
<polygon fill="none" stroke="#404040" points="120.2465,-78.7254 120.1464,-71.515 126.7636,-68.6493 126.8638,-75.8597 120.2465,-78.7254"/>
<text text-anchor="middle" x="132.5" y="-145" font-family="Helvetica,sans-Serif" font-size="10.00" fill="#000000"> +@10</text>
</g>
<!-- Node3 -->
<g id="node3" class="node">
<title>Node3</title>
<g id="a_node3"><a xlink:href="../../d6/d30/classuint64__t.html" target="_top" xlink:title="{uint64_t\n||}">
<polygon fill="none" stroke="#000000" points="125.5,-226.5 125.5,-283.5 181.5,-283.5 181.5,-226.5 125.5,-226.5"/>
<text text-anchor="middle" x="153.5" y="-271.5" font-family="Helvetica,sans-Serif" font-size="10.00" fill="#000000">uint64_t</text>
<polyline fill="none" stroke="#000000" points="125.5,-264.5 181.5,-264.5 "/>
<text text-anchor="middle" x="153.5" y="-252.5" font-family="Helvetica,sans-Serif" font-size="10.00" fill="#000000"> </text>
<polyline fill="none" stroke="#000000" points="125.5,-245.5 181.5,-245.5 "/>
<text text-anchor="middle" x="153.5" y="-233.5" font-family="Helvetica,sans-Serif" font-size="10.00" fill="#000000"> </text>
</a>
</g>
</g>
<!-- Node3&#45;&gt;Node1 -->
<g id="edge2" class="edge">
<title>Node3&#45;&gt;Node1</title>
<path fill="none" stroke="#404040" d="M153.5,-226.1735C153.5,-189.2261 153.5,-124.7136 153.5,-80.8345"/>
<polygon fill="none" stroke="#404040" points="153.5001,-80.7678 149.5,-74.7679 153.5,-68.7678 157.5,-74.7678 153.5001,-80.7678"/>
<text text-anchor="middle" x="194.5" y="-200" font-family="Helvetica,sans-Serif" font-size="10.00" fill="#000000"> +word</text>
<text text-anchor="middle" x="194.5" y="-189" font-family="Helvetica,sans-Serif" font-size="10.00" fill="#000000">+nGBTWords</text>
<text text-anchor="middle" x="194.5" y="-178" font-family="Helvetica,sans-Serif" font-size="10.00" fill="#000000">+startDescriptor</text>
<text text-anchor="middle" x="194.5" y="-167" font-family="Helvetica,sans-Serif" font-size="10.00" fill="#000000">+reservedField1</text>
<text text-anchor="middle" x="194.5" y="-156" font-family="Helvetica,sans-Serif" font-size="10.00" fill="#000000">+reservedField2</text>
<text text-anchor="middle" x="194.5" y="-145" font-family="Helvetica,sans-Serif" font-size="10.00" fill="#000000">+bc</text>
<text text-anchor="middle" x="194.5" y="-134" font-family="Helvetica,sans-Serif" font-size="10.00" fill="#000000">+reservedField3</text>
<text text-anchor="middle" x="194.5" y="-123" font-family="Helvetica,sans-Serif" font-size="10.00" fill="#000000">+orbit</text>
<text text-anchor="middle" x="194.5" y="-112" font-family="Helvetica,sans-Serif" font-size="10.00" fill="#000000">+errorPhase</text>
<text text-anchor="middle" x="194.5" y="-101" font-family="Helvetica,sans-Serif" font-size="10.00" fill="#000000">+phase</text>
<text text-anchor="middle" x="194.5" y="-90" font-family="Helvetica,sans-Serif" font-size="10.00" fill="#000000">...</text>
</g>
<!-- Node4 -->
<g id="node4" class="node">
<title>Node4</title>
<polygon fill="none" stroke="#bfbfbf" points="236.5,-226.5 236.5,-283.5 280.5,-283.5 280.5,-226.5 236.5,-226.5"/>
<text text-anchor="middle" x="258.5" y="-271.5" font-family="Helvetica,sans-Serif" font-size="10.00" fill="#000000">static</text>
<polyline fill="none" stroke="#bfbfbf" points="236.5,-264.5 280.5,-264.5 "/>
<text text-anchor="middle" x="258.5" y="-252.5" font-family="Helvetica,sans-Serif" font-size="10.00" fill="#000000"> </text>
<polyline fill="none" stroke="#bfbfbf" points="236.5,-245.5 280.5,-245.5 "/>
<text text-anchor="middle" x="258.5" y="-233.5" font-family="Helvetica,sans-Serif" font-size="10.00" fill="#000000"> </text>
</g>
<!-- Node4&#45;&gt;Node1 -->
<g id="edge3" class="edge">
<title>Node4&#45;&gt;Node1</title>
<path fill="none" stroke="#404040" d="M261.7466,-226.3781C264.3067,-190.8182 263.739,-129.6367 236.5,-87 232.56,-80.8328 227.608,-75.2578 222.094,-70.2497"/>
<polygon fill="none" stroke="#404040" points="221.6809,-69.9145 214.5015,-69.2393 212.3634,-62.3524 219.5429,-63.0276 221.6809,-69.9145"/>
<text text-anchor="middle" x="317" y="-161.5" font-family="Helvetica,sans-Serif" font-size="10.00" fill="#000000"> +PayloadPerGBTword</text>
<text text-anchor="middle" x="317" y="-150.5" font-family="Helvetica,sans-Serif" font-size="10.00" fill="#000000">+MaxNelements</text>
<text text-anchor="middle" x="317" y="-139.5" font-family="Helvetica,sans-Serif" font-size="10.00" fill="#000000">+MinNelements</text>
<text text-anchor="middle" x="317" y="-128.5" font-family="Helvetica,sans-Serif" font-size="10.00" fill="#000000">+PayloadSize</text>
</g>
</g>
</svg>
