<?xml version="1.0" encoding="UTF-8" standalone="no"?>
<!DOCTYPE svg PUBLIC "-//W3C//DTD SVG 1.1//EN"
 "http://www.w3.org/Graphics/SVG/1.1/DTD/svg11.dtd">
<!-- Generated by graphviz version 2.40.1 (20161225.0304)
 -->
<!-- Title: /home/travis/build/AliceO2Group/AliceO2/Analysis/DataModel/include/Analysis/TrackSelectionTables.h Pages: 1 -->
<svg width="3304pt" height="150pt"
 viewBox="0.00 0.00 3304.00 150.00" xmlns="http://www.w3.org/2000/svg" xmlns:xlink="http://www.w3.org/1999/xlink">
<g id="graph0" class="graph" transform="scale(1 1) rotate(0) translate(4 146)">
<title>/home/travis/build/AliceO2Group/AliceO2/Analysis/DataModel/include/Analysis/TrackSelectionTables.h</title>
<!-- Node67 -->
<g id="node1" class="node">
<title>Node67</title>
<polygon fill="#bfbfbf" stroke="#000000" points="1500,-89.5 1500,-141.5 1674,-141.5 1674,-89.5 1500,-89.5"/>
<text text-anchor="start" x="1508" y="-129.5" font-family="Helvetica,sans-Serif" font-size="10.00" fill="#000000">/home/travis/build</text>
<text text-anchor="start" x="1508" y="-118.5" font-family="Helvetica,sans-Serif" font-size="10.00" fill="#000000">/AliceO2Group/AliceO2</text>
<text text-anchor="start" x="1508" y="-107.5" font-family="Helvetica,sans-Serif" font-size="10.00" fill="#000000">/Analysis/DataModel/include</text>
<text text-anchor="middle" x="1587" y="-96.5" font-family="Helvetica,sans-Serif" font-size="10.00" fill="#000000">/Analysis/TrackSelectionTables.h</text>
</g>
<!-- Node68 -->
<g id="node2" class="node">
<title>Node68</title>
<g id="a_node2"><a xlink:href="../../d5/d51/aodDataModelGraph_8cxx.html" target="_top" xlink:title="/home/travis/build\l/AliceO2Group/AliceO2\l/Analysis/DataModel/src\l/aodDataModelGraph.cxx">
<polygon fill="none" stroke="#000000" points="0,-.5 0,-52.5 140,-52.5 140,-.5 0,-.5"/>
<text text-anchor="start" x="8" y="-40.5" font-family="Helvetica,sans-Serif" font-size="10.00" fill="#000000">/home/travis/build</text>
<text text-anchor="start" x="8" y="-29.5" font-family="Helvetica,sans-Serif" font-size="10.00" fill="#000000">/AliceO2Group/AliceO2</text>
<text text-anchor="start" x="8" y="-18.5" font-family="Helvetica,sans-Serif" font-size="10.00" fill="#000000">/Analysis/DataModel/src</text>
<text text-anchor="middle" x="70" y="-7.5" font-family="Helvetica,sans-Serif" font-size="10.00" fill="#000000">/aodDataModelGraph.cxx</text>
</a>
</g>
</g>
<!-- Node67&#45;&gt;Node68 -->
<g id="edge1" class="edge">
<title>Node67&#45;&gt;Node68</title>
<path fill="none" stroke="#191970" d="M1489.5031,-114.811C1209.5836,-112.2701 407.012,-100.8951 149,-53 146.1553,-52.4719 143.273,-51.8646 140.3761,-51.1937"/>
<polygon fill="#191970" stroke="#191970" points="1489.6085,-118.3119 1499.6392,-114.9012 1489.6708,-111.3122 1489.6085,-118.3119"/>
</g>
<!-- Node69 -->
<g id="node3" class="node">
<title>Node69</title>
<g id="a_node3"><a xlink:href="../../d0/df9/alice3-trackselection_8cxx.html" target="_top" xlink:title="/home/travis/build\l/AliceO2Group/AliceO2\l/Analysis/Tasks/ALICE3\l/alice3&#45;trackselection.cxx">
<polygon fill="none" stroke="#000000" points="158,-.5 158,-52.5 300,-52.5 300,-.5 158,-.5"/>
<text text-anchor="start" x="166" y="-40.5" font-family="Helvetica,sans-Serif" font-size="10.00" fill="#000000">/home/travis/build</text>
<text text-anchor="start" x="166" y="-29.5" font-family="Helvetica,sans-Serif" font-size="10.00" fill="#000000">/AliceO2Group/AliceO2</text>
<text text-anchor="start" x="166" y="-18.5" font-family="Helvetica,sans-Serif" font-size="10.00" fill="#000000">/Analysis/Tasks/ALICE3</text>
<text text-anchor="middle" x="229" y="-7.5" font-family="Helvetica,sans-Serif" font-size="10.00" fill="#000000">/alice3&#45;trackselection.cxx</text>
</a>
</g>
</g>
<!-- Node67&#45;&gt;Node69 -->
<g id="edge2" class="edge">
<title>Node67&#45;&gt;Node69</title>
<path fill="none" stroke="#191970" d="M1489.7056,-114.1463C1231.8367,-110.0149 535.1365,-95.1717 309,-53 306.1234,-52.4635 303.208,-51.8492 300.2773,-51.1723"/>
<polygon fill="#191970" stroke="#191970" points="1489.7494,-117.6474 1499.8036,-114.3062 1489.8603,-110.6483 1489.7494,-117.6474"/>
</g>
<!-- Node70 -->
<g id="node4" class="node">
<title>Node70</title>
<g id="a_node4"><a xlink:href="../../d9/d61/correlations_8cxx.html" target="_top" xlink:title="/home/travis/build\l/AliceO2Group/AliceO2\l/Analysis/Tasks/PWGCF\l/correlations.cxx">
<polygon fill="none" stroke="#000000" points="318.5,-.5 318.5,-52.5 447.5,-52.5 447.5,-.5 318.5,-.5"/>
<text text-anchor="start" x="326.5" y="-40.5" font-family="Helvetica,sans-Serif" font-size="10.00" fill="#000000">/home/travis/build</text>
<text text-anchor="start" x="326.5" y="-29.5" font-family="Helvetica,sans-Serif" font-size="10.00" fill="#000000">/AliceO2Group/AliceO2</text>
<text text-anchor="start" x="326.5" y="-18.5" font-family="Helvetica,sans-Serif" font-size="10.00" fill="#000000">/Analysis/Tasks/PWGCF</text>
<text text-anchor="middle" x="383" y="-7.5" font-family="Helvetica,sans-Serif" font-size="10.00" fill="#000000">/correlations.cxx</text>
</a>
</g>
</g>
<!-- Node67&#45;&gt;Node70 -->
<g id="edge3" class="edge">
<title>Node67&#45;&gt;Node70</title>
<path fill="none" stroke="#191970" d="M1489.4156,-113.709C1252.7213,-108.7845 653.1642,-92.6759 457,-53 453.9237,-52.3778 450.8028,-51.6535 447.6702,-50.8504"/>
<polygon fill="#191970" stroke="#191970" points="1489.6588,-117.2147 1499.7287,-113.9213 1489.8029,-110.2162 1489.6588,-117.2147"/>
</g>
<!-- Node71 -->
<g id="node5" class="node">
<title>Node71</title>
<g id="a_node5"><a xlink:href="../../d8/dc5/correlationsFiltered_8cxx.html" target="_top" xlink:title="/home/travis/build\l/AliceO2Group/AliceO2\l/Analysis/Tasks/PWGCF\l/correlationsFiltered.cxx">
<polygon fill="none" stroke="#000000" points="466,-.5 466,-52.5 600,-52.5 600,-.5 466,-.5"/>
<text text-anchor="start" x="474" y="-40.5" font-family="Helvetica,sans-Serif" font-size="10.00" fill="#000000">/home/travis/build</text>
<text text-anchor="start" x="474" y="-29.5" font-family="Helvetica,sans-Serif" font-size="10.00" fill="#000000">/AliceO2Group/AliceO2</text>
<text text-anchor="start" x="474" y="-18.5" font-family="Helvetica,sans-Serif" font-size="10.00" fill="#000000">/Analysis/Tasks/PWGCF</text>
<text text-anchor="middle" x="533" y="-7.5" font-family="Helvetica,sans-Serif" font-size="10.00" fill="#000000">/correlationsFiltered.cxx</text>
</a>
</g>
</g>
<!-- Node67&#45;&gt;Node71 -->
<g id="edge4" class="edge">
<title>Node67&#45;&gt;Node71</title>
<path fill="none" stroke="#191970" d="M1489.7599,-112.6403C1276.8996,-105.8347 775.4296,-86.6781 609,-53 606.1239,-52.418 603.2082,-51.7531 600.2788,-51.023"/>
<polygon fill="#191970" stroke="#191970" points="1489.877,-116.1457 1499.983,-112.9648 1490.0991,-109.1492 1489.877,-116.1457"/>
</g>
<!-- Node72 -->
<g id="node6" class="node">
<title>Node72</title>
<g id="a_node6"><a xlink:href="../../d4/d39/correlationsMixed_8cxx.html" target="_top" xlink:title="/home/travis/build\l/AliceO2Group/AliceO2\l/Analysis/Tasks/PWGCF\l/correlationsMixed.cxx">
<polygon fill="none" stroke="#000000" points="618.5,-.5 618.5,-52.5 747.5,-52.5 747.5,-.5 618.5,-.5"/>
<text text-anchor="start" x="626.5" y="-40.5" font-family="Helvetica,sans-Serif" font-size="10.00" fill="#000000">/home/travis/build</text>
<text text-anchor="start" x="626.5" y="-29.5" font-family="Helvetica,sans-Serif" font-size="10.00" fill="#000000">/AliceO2Group/AliceO2</text>
<text text-anchor="start" x="626.5" y="-18.5" font-family="Helvetica,sans-Serif" font-size="10.00" fill="#000000">/Analysis/Tasks/PWGCF</text>
<text text-anchor="middle" x="683" y="-7.5" font-family="Helvetica,sans-Serif" font-size="10.00" fill="#000000">/correlationsMixed.cxx</text>
</a>
</g>
</g>
<!-- Node67&#45;&gt;Node72 -->
<g id="edge5" class="edge">
<title>Node67&#45;&gt;Node72</title>
<path fill="none" stroke="#191970" d="M1489.7583,-111.5195C1301.4592,-103.2623 893.5056,-82.5449 756,-53 753.2318,-52.4052 750.4265,-51.7297 747.6089,-50.9907"/>
<polygon fill="#191970" stroke="#191970" points="1489.7826,-115.0238 1499.9256,-111.9626 1490.0875,-108.0304 1489.7826,-115.0238"/>
</g>
<!-- Node73 -->
<g id="node7" class="node">
<title>Node73</title>
<g id="a_node7"><a xlink:href="../../dc/db0/dptdptcorrelations_8cxx.html" target="_top" xlink:title="/home/travis/build\l/AliceO2Group/AliceO2\l/Analysis/Tasks/PWGCF\l/dptdptcorrelations.cxx">
<polygon fill="none" stroke="#000000" points="765.5,-.5 765.5,-52.5 894.5,-52.5 894.5,-.5 765.5,-.5"/>
<text text-anchor="start" x="773.5" y="-40.5" font-family="Helvetica,sans-Serif" font-size="10.00" fill="#000000">/home/travis/build</text>
<text text-anchor="start" x="773.5" y="-29.5" font-family="Helvetica,sans-Serif" font-size="10.00" fill="#000000">/AliceO2Group/AliceO2</text>
<text text-anchor="start" x="773.5" y="-18.5" font-family="Helvetica,sans-Serif" font-size="10.00" fill="#000000">/Analysis/Tasks/PWGCF</text>
<text text-anchor="middle" x="830" y="-7.5" font-family="Helvetica,sans-Serif" font-size="10.00" fill="#000000">/dptdptcorrelations.cxx</text>
</a>
</g>
</g>
<!-- Node67&#45;&gt;Node73 -->
<g id="edge6" class="edge">
<title>Node67&#45;&gt;Node73</title>
<path fill="none" stroke="#191970" d="M1489.429,-109.6841C1327.9294,-99.5372 1012.039,-77.3456 903,-53 900.2366,-52.383 897.4354,-51.6889 894.6212,-50.9346"/>
<polygon fill="#191970" stroke="#191970" points="1489.6407,-113.204 1499.8396,-110.3349 1490.0775,-106.2177 1489.6407,-113.204"/>
</g>
<!-- Node74 -->
<g id="node8" class="node">
<title>Node74</title>
<g id="a_node8"><a xlink:href="../../d9/d63/filterCF_8cxx.html" target="_top" xlink:title="/home/travis/build\l/AliceO2Group/AliceO2\l/Analysis/Tasks/PWGCF\l/filterCF.cxx">
<polygon fill="none" stroke="#000000" points="912.5,-.5 912.5,-52.5 1041.5,-52.5 1041.5,-.5 912.5,-.5"/>
<text text-anchor="start" x="920.5" y="-40.5" font-family="Helvetica,sans-Serif" font-size="10.00" fill="#000000">/home/travis/build</text>
<text text-anchor="start" x="920.5" y="-29.5" font-family="Helvetica,sans-Serif" font-size="10.00" fill="#000000">/AliceO2Group/AliceO2</text>
<text text-anchor="start" x="920.5" y="-18.5" font-family="Helvetica,sans-Serif" font-size="10.00" fill="#000000">/Analysis/Tasks/PWGCF</text>
<text text-anchor="middle" x="977" y="-7.5" font-family="Helvetica,sans-Serif" font-size="10.00" fill="#000000">/filterCF.cxx</text>
</a>
</g>
</g>
<!-- Node67&#45;&gt;Node74 -->
<g id="edge7" class="edge">
<title>Node67&#45;&gt;Node74</title>
<path fill="none" stroke="#191970" d="M1489.3601,-110.8014C1381.0433,-104.0488 1201.6688,-88.2749 1051,-53 1047.944,-52.2845 1044.8398,-51.4837 1041.7208,-50.6187"/>
<polygon fill="#191970" stroke="#191970" points="1489.4227,-114.3116 1499.6173,-111.4271 1489.8489,-107.3246 1489.4227,-114.3116"/>
</g>
<!-- Node75 -->
<g id="node9" class="node">
<title>Node75</title>
<g id="a_node9"><a xlink:href="../../d2/d15/cascadeconsumer_8cxx.html" target="_top" xlink:title="/home/travis/build\l/AliceO2Group/AliceO2\l/Analysis/Tasks/PWGLF\l/cascadeconsumer.cxx">
<polygon fill="none" stroke="#000000" points="1060,-.5 1060,-52.5 1188,-52.5 1188,-.5 1060,-.5"/>
<text text-anchor="start" x="1068" y="-40.5" font-family="Helvetica,sans-Serif" font-size="10.00" fill="#000000">/home/travis/build</text>
<text text-anchor="start" x="1068" y="-29.5" font-family="Helvetica,sans-Serif" font-size="10.00" fill="#000000">/AliceO2Group/AliceO2</text>
<text text-anchor="start" x="1068" y="-18.5" font-family="Helvetica,sans-Serif" font-size="10.00" fill="#000000">/Analysis/Tasks/PWGLF</text>
<text text-anchor="middle" x="1124" y="-7.5" font-family="Helvetica,sans-Serif" font-size="10.00" fill="#000000">/cascadeconsumer.cxx</text>
</a>
</g>
</g>
<!-- Node67&#45;&gt;Node75 -->
<g id="edge8" class="edge">
<title>Node67&#45;&gt;Node75</title>
<path fill="none" stroke="#191970" d="M1489.6624,-105.0927C1410.1216,-95.3524 1295.191,-78.4453 1197,-53 1194.1286,-52.2559 1191.2116,-51.444 1188.2781,-50.5814"/>
<polygon fill="#191970" stroke="#191970" points="1489.322,-108.5769 1499.6699,-106.3032 1490.1627,-101.6276 1489.322,-108.5769"/>
</g>
<!-- Node76 -->
<g id="node10" class="node">
<title>Node76</title>
<g id="a_node10"><a xlink:href="../../d0/dd5/cascadefinder_8cxx.html" target="_top" xlink:title="/home/travis/build\l/AliceO2Group/AliceO2\l/Analysis/Tasks/PWGLF\l/cascadefinder.cxx">
<polygon fill="none" stroke="#000000" points="1206,-.5 1206,-52.5 1334,-52.5 1334,-.5 1206,-.5"/>
<text text-anchor="start" x="1214" y="-40.5" font-family="Helvetica,sans-Serif" font-size="10.00" fill="#000000">/home/travis/build</text>
<text text-anchor="start" x="1214" y="-29.5" font-family="Helvetica,sans-Serif" font-size="10.00" fill="#000000">/AliceO2Group/AliceO2</text>
<text text-anchor="start" x="1214" y="-18.5" font-family="Helvetica,sans-Serif" font-size="10.00" fill="#000000">/Analysis/Tasks/PWGLF</text>
<text text-anchor="middle" x="1270" y="-7.5" font-family="Helvetica,sans-Serif" font-size="10.00" fill="#000000">/cascadefinder.cxx</text>
</a>
</g>
</g>
<!-- Node67&#45;&gt;Node76 -->
<g id="edge9" class="edge">
<title>Node67&#45;&gt;Node76</title>
<path fill="none" stroke="#191970" d="M1490.0009,-92.9575C1445.0032,-81.9127 1390.9763,-67.8139 1343,-53 1340.1658,-52.1249 1337.2796,-51.2044 1334.3713,-50.253"/>
<polygon fill="#191970" stroke="#191970" points="1489.2095,-96.367 1499.7543,-95.3385 1490.8696,-89.5667 1489.2095,-96.367"/>
</g>
<!-- Node77 -->
<g id="node11" class="node">
<title>Node77</title>
<g id="a_node11"><a xlink:href="../../d4/d77/lambdakzeroconsumer_8cxx.html" target="_top" xlink:title="/home/travis/build\l/AliceO2Group/AliceO2\l/Analysis/Tasks/PWGLF\l/lambdakzeroconsumer.cxx">
<polygon fill="none" stroke="#000000" points="1352.5,-.5 1352.5,-52.5 1503.5,-52.5 1503.5,-.5 1352.5,-.5"/>
<text text-anchor="start" x="1360.5" y="-40.5" font-family="Helvetica,sans-Serif" font-size="10.00" fill="#000000">/home/travis/build</text>
<text text-anchor="start" x="1360.5" y="-29.5" font-family="Helvetica,sans-Serif" font-size="10.00" fill="#000000">/AliceO2Group/AliceO2</text>
<text text-anchor="start" x="1360.5" y="-18.5" font-family="Helvetica,sans-Serif" font-size="10.00" fill="#000000">/Analysis/Tasks/PWGLF</text>
<text text-anchor="middle" x="1428" y="-7.5" font-family="Helvetica,sans-Serif" font-size="10.00" fill="#000000">/lambdakzeroconsumer.cxx</text>
</a>
</g>
</g>
<!-- Node67&#45;&gt;Node77 -->
<g id="edge10" class="edge">
<title>Node67&#45;&gt;Node77</title>
<path fill="none" stroke="#191970" d="M1531.2288,-84.2821C1512.6955,-73.9082 1492.2682,-62.4741 1474.5104,-52.5341"/>
<polygon fill="#191970" stroke="#191970" points="1529.7192,-87.4481 1540.1547,-89.2784 1533.1383,-81.3399 1529.7192,-87.4481"/>
</g>
<!-- Node78 -->
<g id="node12" class="node">
<title>Node78</title>
<g id="a_node12"><a xlink:href="../../d5/d6e/lambdakzerofinder_8cxx.html" target="_top" xlink:title="/home/travis/build\l/AliceO2Group/AliceO2\l/Analysis/Tasks/PWGLF\l/lambdakzerofinder.cxx">
<polygon fill="none" stroke="#000000" points="1521.5,-.5 1521.5,-52.5 1652.5,-52.5 1652.5,-.5 1521.5,-.5"/>
<text text-anchor="start" x="1529.5" y="-40.5" font-family="Helvetica,sans-Serif" font-size="10.00" fill="#000000">/home/travis/build</text>
<text text-anchor="start" x="1529.5" y="-29.5" font-family="Helvetica,sans-Serif" font-size="10.00" fill="#000000">/AliceO2Group/AliceO2</text>
<text text-anchor="start" x="1529.5" y="-18.5" font-family="Helvetica,sans-Serif" font-size="10.00" fill="#000000">/Analysis/Tasks/PWGLF</text>
<text text-anchor="middle" x="1587" y="-7.5" font-family="Helvetica,sans-Serif" font-size="10.00" fill="#000000">/lambdakzerofinder.cxx</text>
</a>
</g>
</g>
<!-- Node67&#45;&gt;Node78 -->
<g id="edge11" class="edge">
<title>Node67&#45;&gt;Node78</title>
<path fill="none" stroke="#191970" d="M1587,-79.1155C1587,-70.2061 1587,-60.8475 1587,-52.5341"/>
<polygon fill="#191970" stroke="#191970" points="1583.5001,-79.2784 1587,-89.2784 1590.5001,-79.2785 1583.5001,-79.2784"/>
</g>
<!-- Node79 -->
<g id="node13" class="node">
<title>Node79</title>
<g id="a_node13"><a xlink:href="../../d0/d42/mcspectraefficiency_8cxx.html" target="_top" xlink:title="/home/travis/build\l/AliceO2Group/AliceO2\l/Analysis/Tasks/PWGLF\l/mcspectraefficiency.cxx">
<polygon fill="none" stroke="#000000" points="1670.5,-.5 1670.5,-52.5 1807.5,-52.5 1807.5,-.5 1670.5,-.5"/>
<text text-anchor="start" x="1678.5" y="-40.5" font-family="Helvetica,sans-Serif" font-size="10.00" fill="#000000">/home/travis/build</text>
<text text-anchor="start" x="1678.5" y="-29.5" font-family="Helvetica,sans-Serif" font-size="10.00" fill="#000000">/AliceO2Group/AliceO2</text>
<text text-anchor="start" x="1678.5" y="-18.5" font-family="Helvetica,sans-Serif" font-size="10.00" fill="#000000">/Analysis/Tasks/PWGLF</text>
<text text-anchor="middle" x="1739" y="-7.5" font-family="Helvetica,sans-Serif" font-size="10.00" fill="#000000">/mcspectraefficiency.cxx</text>
</a>
</g>
</g>
<!-- Node67&#45;&gt;Node79 -->
<g id="edge12" class="edge">
<title>Node67&#45;&gt;Node79</title>
<path fill="none" stroke="#191970" d="M1640.7996,-83.9989C1658.388,-73.7004 1677.7155,-62.3837 1694.5372,-52.5341"/>
<polygon fill="#191970" stroke="#191970" points="1638.6439,-81.2052 1631.7829,-89.2784 1642.181,-87.2459 1638.6439,-81.2052"/>
</g>
<!-- Node80 -->
<g id="node14" class="node">
<title>Node80</title>
<g id="a_node14"><a xlink:href="../../df/dc5/raacharged_8cxx.html" target="_top" xlink:title="/home/travis/build\l/AliceO2Group/AliceO2\l/Analysis/Tasks/PWGLF\l/raacharged.cxx">
<polygon fill="none" stroke="#000000" points="1826,-.5 1826,-52.5 1954,-52.5 1954,-.5 1826,-.5"/>
<text text-anchor="start" x="1834" y="-40.5" font-family="Helvetica,sans-Serif" font-size="10.00" fill="#000000">/home/travis/build</text>
<text text-anchor="start" x="1834" y="-29.5" font-family="Helvetica,sans-Serif" font-size="10.00" fill="#000000">/AliceO2Group/AliceO2</text>
<text text-anchor="start" x="1834" y="-18.5" font-family="Helvetica,sans-Serif" font-size="10.00" fill="#000000">/Analysis/Tasks/PWGLF</text>
<text text-anchor="middle" x="1890" y="-7.5" font-family="Helvetica,sans-Serif" font-size="10.00" fill="#000000">/raacharged.cxx</text>
</a>
</g>
</g>
<!-- Node67&#45;&gt;Node80 -->
<g id="edge13" class="edge">
<title>Node67&#45;&gt;Node80</title>
<path fill="none" stroke="#191970" d="M1683.8294,-91.0951C1725.0976,-80.2022 1773.6337,-66.7375 1817,-53 1819.8277,-52.1042 1822.7086,-51.1667 1825.6125,-50.2013"/>
<polygon fill="#191970" stroke="#191970" points="1682.8332,-87.738 1674.0507,-93.6641 1684.6119,-94.5083 1682.8332,-87.738"/>
</g>
<!-- Node81 -->
<g id="node15" class="node">
<title>Node81</title>
<g id="a_node15"><a xlink:href="../../df/d80/spectraTOF_8cxx.html" target="_top" xlink:title="/home/travis/build\l/AliceO2Group/AliceO2\l/Analysis/Tasks/PWGLF\l/spectraTOF.cxx">
<polygon fill="none" stroke="#000000" points="1972,-.5 1972,-52.5 2100,-52.5 2100,-.5 1972,-.5"/>
<text text-anchor="start" x="1980" y="-40.5" font-family="Helvetica,sans-Serif" font-size="10.00" fill="#000000">/home/travis/build</text>
<text text-anchor="start" x="1980" y="-29.5" font-family="Helvetica,sans-Serif" font-size="10.00" fill="#000000">/AliceO2Group/AliceO2</text>
<text text-anchor="start" x="1980" y="-18.5" font-family="Helvetica,sans-Serif" font-size="10.00" fill="#000000">/Analysis/Tasks/PWGLF</text>
<text text-anchor="middle" x="2036" y="-7.5" font-family="Helvetica,sans-Serif" font-size="10.00" fill="#000000">/spectraTOF.cxx</text>
</a>
</g>
</g>
<!-- Node67&#45;&gt;Node81 -->
<g id="edge14" class="edge">
<title>Node67&#45;&gt;Node81</title>
<path fill="none" stroke="#191970" d="M1684.3017,-104.313C1760.8288,-94.3222 1869.7337,-77.4586 1963,-53 1965.8692,-52.2476 1968.7844,-51.4288 1971.7165,-50.5605"/>
<polygon fill="#191970" stroke="#191970" points="1683.6639,-100.8661 1674.1941,-105.6172 1684.5598,-107.8086 1683.6639,-100.8661"/>
</g>
<!-- Node82 -->
<g id="node16" class="node">
<title>Node82</title>
<g id="a_node16"><a xlink:href="../../da/db2/spectraTPC_8cxx.html" target="_top" xlink:title="/home/travis/build\l/AliceO2Group/AliceO2\l/Analysis/Tasks/PWGLF\l/spectraTPC.cxx">
<polygon fill="none" stroke="#000000" points="2118,-.5 2118,-52.5 2246,-52.5 2246,-.5 2118,-.5"/>
<text text-anchor="start" x="2126" y="-40.5" font-family="Helvetica,sans-Serif" font-size="10.00" fill="#000000">/home/travis/build</text>
<text text-anchor="start" x="2126" y="-29.5" font-family="Helvetica,sans-Serif" font-size="10.00" fill="#000000">/AliceO2Group/AliceO2</text>
<text text-anchor="start" x="2126" y="-18.5" font-family="Helvetica,sans-Serif" font-size="10.00" fill="#000000">/Analysis/Tasks/PWGLF</text>
<text text-anchor="middle" x="2182" y="-7.5" font-family="Helvetica,sans-Serif" font-size="10.00" fill="#000000">/spectraTPC.cxx</text>
</a>
</g>
</g>
<!-- Node67&#45;&gt;Node82 -->
<g id="edge15" class="edge">
<title>Node67&#45;&gt;Node82</title>
<path fill="none" stroke="#191970" d="M1684.4497,-110.5113C1790.1908,-103.5566 1963.4169,-87.6549 2109,-53 2111.8856,-52.3131 2114.8144,-51.5486 2117.7575,-50.7248"/>
<polygon fill="#191970" stroke="#191970" points="1684.1848,-107.021 1674.4306,-111.1567 1684.6349,-114.0065 1684.1848,-107.021"/>
</g>
<!-- Node83 -->
<g id="node17" class="node">
<title>Node83</title>
<g id="a_node17"><a xlink:href="../../de/d8c/trackchecks_8cxx.html" target="_top" xlink:title="/home/travis/build\l/AliceO2Group/AliceO2\l/Analysis/Tasks/PWGLF\l/trackchecks.cxx">
<polygon fill="none" stroke="#000000" points="2264,-.5 2264,-52.5 2392,-52.5 2392,-.5 2264,-.5"/>
<text text-anchor="start" x="2272" y="-40.5" font-family="Helvetica,sans-Serif" font-size="10.00" fill="#000000">/home/travis/build</text>
<text text-anchor="start" x="2272" y="-29.5" font-family="Helvetica,sans-Serif" font-size="10.00" fill="#000000">/AliceO2Group/AliceO2</text>
<text text-anchor="start" x="2272" y="-18.5" font-family="Helvetica,sans-Serif" font-size="10.00" fill="#000000">/Analysis/Tasks/PWGLF</text>
<text text-anchor="middle" x="2328" y="-7.5" font-family="Helvetica,sans-Serif" font-size="10.00" fill="#000000">/trackchecks.cxx</text>
</a>
</g>
</g>
<!-- Node67&#45;&gt;Node83 -->
<g id="edge16" class="edge">
<title>Node67&#45;&gt;Node83</title>
<path fill="none" stroke="#191970" d="M1684.461,-109.4454C1842.8279,-99.0917 2149.0027,-76.7872 2255,-53 2257.8942,-52.3505 2260.8302,-51.6169 2263.7792,-50.8185"/>
<polygon fill="#191970" stroke="#191970" points="1683.9987,-105.968 1674.2471,-110.11 1684.4533,-112.9532 1683.9987,-105.968"/>
</g>
<!-- Node84 -->
<g id="node18" class="node">
<title>Node84</title>
<g id="a_node18"><a xlink:href="../../d2/d9d/upcAnalysis_8cxx.html" target="_top" xlink:title="/home/travis/build\l/AliceO2Group/AliceO2\l/Analysis/Tasks/PWGUD\l/upcAnalysis.cxx">
<polygon fill="none" stroke="#000000" points="2410,-.5 2410,-52.5 2542,-52.5 2542,-.5 2410,-.5"/>
<text text-anchor="start" x="2418" y="-40.5" font-family="Helvetica,sans-Serif" font-size="10.00" fill="#000000">/home/travis/build</text>
<text text-anchor="start" x="2418" y="-29.5" font-family="Helvetica,sans-Serif" font-size="10.00" fill="#000000">/AliceO2Group/AliceO2</text>
<text text-anchor="start" x="2418" y="-18.5" font-family="Helvetica,sans-Serif" font-size="10.00" fill="#000000">/Analysis/Tasks/PWGUD</text>
<text text-anchor="middle" x="2476" y="-7.5" font-family="Helvetica,sans-Serif" font-size="10.00" fill="#000000">/upcAnalysis.cxx</text>
</a>
</g>
</g>
<!-- Node67&#45;&gt;Node84 -->
<g id="edge17" class="edge">
<title>Node67&#45;&gt;Node84</title>
<path fill="none" stroke="#191970" d="M1684.337,-111.235C1869.6664,-102.5844 2266.7013,-81.3632 2401,-53 2403.8375,-52.4007 2406.7141,-51.7215 2409.6043,-50.9794"/>
<polygon fill="#191970" stroke="#191970" points="1684.1524,-107.7397 1674.3254,-111.6997 1684.477,-114.7322 1684.1524,-107.7397"/>
</g>
<!-- Node85 -->
<g id="node19" class="node">
<title>Node85</title>
<g id="a_node19"><a xlink:href="../../d4/d30/trackextension_8cxx.html" target="_top" xlink:title="/home/travis/build\l/AliceO2Group/AliceO2\l/Analysis/Tasks/trackextension.cxx">
<polygon fill="none" stroke="#000000" points="2560.5,-6 2560.5,-47 2747.5,-47 2747.5,-6 2560.5,-6"/>
<text text-anchor="start" x="2568.5" y="-35" font-family="Helvetica,sans-Serif" font-size="10.00" fill="#000000">/home/travis/build</text>
<text text-anchor="start" x="2568.5" y="-24" font-family="Helvetica,sans-Serif" font-size="10.00" fill="#000000">/AliceO2Group/AliceO2</text>
<text text-anchor="middle" x="2654" y="-13" font-family="Helvetica,sans-Serif" font-size="10.00" fill="#000000">/Analysis/Tasks/trackextension.cxx</text>
</a>
</g>
</g>
<!-- Node67&#45;&gt;Node85 -->
<g id="edge18" class="edge">
<title>Node67&#45;&gt;Node85</title>
<path fill="none" stroke="#191970" d="M1684.221,-111.5118C1894.5449,-102.5061 2386.1176,-79.318 2551,-53 2560.8461,-51.4284 2571.1213,-49.3407 2581.2065,-47.0246"/>
<polygon fill="#191970" stroke="#191970" points="1683.9582,-108.0197 1674.1165,-111.9428 1684.2566,-115.0134 1683.9582,-108.0197"/>
</g>
<!-- Node86 -->
<g id="node20" class="node">
<title>Node86</title>
<g id="a_node20"><a xlink:href="../../d6/db1/trackqa_8cxx.html" target="_top" xlink:title="/home/travis/build\l/AliceO2Group/AliceO2\l/Analysis/Tasks/trackqa.cxx">
<polygon fill="none" stroke="#000000" points="2765.5,-6 2765.5,-47 2916.5,-47 2916.5,-6 2765.5,-6"/>
<text text-anchor="start" x="2773.5" y="-35" font-family="Helvetica,sans-Serif" font-size="10.00" fill="#000000">/home/travis/build</text>
<text text-anchor="start" x="2773.5" y="-24" font-family="Helvetica,sans-Serif" font-size="10.00" fill="#000000">/AliceO2Group/AliceO2</text>
<text text-anchor="middle" x="2841" y="-13" font-family="Helvetica,sans-Serif" font-size="10.00" fill="#000000">/Analysis/Tasks/trackqa.cxx</text>
</a>
</g>
</g>
<!-- Node67&#45;&gt;Node86 -->
<g id="edge19" class="edge">
<title>Node67&#45;&gt;Node86</title>
<path fill="none" stroke="#191970" d="M1684.4942,-113.4528C1926.9225,-107.8541 2552.1645,-90.164 2757,-53 2765.2754,-51.4986 2773.8722,-49.4191 2782.2704,-47.0793"/>
<polygon fill="#191970" stroke="#191970" points="1684.2043,-109.9584 1674.2871,-113.6865 1684.3647,-116.9566 1684.2043,-109.9584"/>
</g>
<!-- Node87 -->
<g id="node21" class="node">
<title>Node87</title>
<g id="a_node21"><a xlink:href="../../db/d90/trackselection_8cxx.html" target="_top" xlink:title="/home/travis/build\l/AliceO2Group/AliceO2\l/Analysis/Tasks/trackselection.cxx">
<polygon fill="none" stroke="#000000" points="2934.5,-6 2934.5,-47 3117.5,-47 3117.5,-6 2934.5,-6"/>
<text text-anchor="start" x="2942.5" y="-35" font-family="Helvetica,sans-Serif" font-size="10.00" fill="#000000">/home/travis/build</text>
<text text-anchor="start" x="2942.5" y="-24" font-family="Helvetica,sans-Serif" font-size="10.00" fill="#000000">/AliceO2Group/AliceO2</text>
<text text-anchor="middle" x="3026" y="-13" font-family="Helvetica,sans-Serif" font-size="10.00" fill="#000000">/Analysis/Tasks/trackselection.cxx</text>
</a>
</g>
</g>
<!-- Node67&#45;&gt;Node87 -->
<g id="edge20" class="edge">
<title>Node67&#45;&gt;Node87</title>
<path fill="none" stroke="#191970" d="M1684.1072,-113.6441C1950.0786,-108.1343 2686.4249,-89.9055 2926,-53 2935.8518,-51.4824 2946.132,-49.3773 2956.1918,-47.0107"/>
<polygon fill="#191970" stroke="#191970" points="1684.0084,-110.1453 1674.0825,-113.8504 1684.1524,-117.1438 1684.0084,-110.1453"/>
</g>
<!-- Node88 -->
<g id="node22" class="node">
<title>Node88</title>
<g id="a_node22"><a xlink:href="../../dd/d06/histogramTrackSelection_8cxx.html" target="_top" xlink:title="/home/travis/build\l/AliceO2Group/AliceO2\l/Analysis/Tutorials/src\l/histogramTrackSelection.cxx">
<polygon fill="none" stroke="#000000" points="3136,-.5 3136,-52.5 3296,-52.5 3296,-.5 3136,-.5"/>
<text text-anchor="start" x="3144" y="-40.5" font-family="Helvetica,sans-Serif" font-size="10.00" fill="#000000">/home/travis/build</text>
<text text-anchor="start" x="3144" y="-29.5" font-family="Helvetica,sans-Serif" font-size="10.00" fill="#000000">/AliceO2Group/AliceO2</text>
<text text-anchor="start" x="3144" y="-18.5" font-family="Helvetica,sans-Serif" font-size="10.00" fill="#000000">/Analysis/Tutorials/src</text>
<text text-anchor="middle" x="3216" y="-7.5" font-family="Helvetica,sans-Serif" font-size="10.00" fill="#000000">/histogramTrackSelection.cxx</text>
</a>
</g>
</g>
<!-- Node67&#45;&gt;Node88 -->
<g id="edge21" class="edge">
<title>Node67&#45;&gt;Node88</title>
<path fill="none" stroke="#191970" d="M1684.6376,-114.7084C1977.8669,-111.8297 2847.7223,-99.4973 3127,-53 3129.8625,-52.5234 3132.7625,-51.9828 3135.6805,-51.3896"/>
<polygon fill="#191970" stroke="#191970" points="1684.4173,-111.2102 1674.4517,-114.8068 1684.4851,-118.2099 1684.4173,-111.2102"/>
</g>
</g>
</svg>
