<?xml version="1.0" encoding="UTF-8" standalone="no"?>
<!DOCTYPE svg PUBLIC "-//W3C//DTD SVG 1.1//EN"
 "http://www.w3.org/Graphics/SVG/1.1/DTD/svg11.dtd">
<!-- Generated by graphviz version 2.40.1 (20161225.0304)
 -->
<!-- Title: o2::tof::Digitizer Pages: 1 -->
<svg width="1663pt" height="1599pt"
 viewBox="0.00 0.00 1663.00 1599.00" xmlns="http://www.w3.org/2000/svg" xmlns:xlink="http://www.w3.org/1999/xlink">
<g id="graph0" class="graph" transform="scale(1 1) rotate(0) translate(4 1595)">
<title>o2::tof::Digitizer</title>
<!-- Node2 -->
<g id="node1" class="node">
<title>Node2</title>
<polygon fill="#bfbfbf" stroke="#000000" points="716.5,-.5 716.5,-332.5 877.5,-332.5 877.5,-.5 716.5,-.5"/>
<text text-anchor="middle" x="797" y="-320.5" font-family="Helvetica,sans-Serif" font-size="10.00" fill="#000000">o2::tof::Digitizer</text>
<polyline fill="none" stroke="#000000" points="716.5,-313.5 877.5,-313.5 "/>
<text text-anchor="middle" x="797" y="-301.5" font-family="Helvetica,sans-Serif" font-size="10.00" fill="#000000"> </text>
<polyline fill="none" stroke="#000000" points="716.5,-294.5 877.5,-294.5 "/>
<text text-anchor="start" x="724.5" y="-282.5" font-family="Helvetica,sans-Serif" font-size="10.00" fill="#000000">+ Digitizer()</text>
<text text-anchor="start" x="724.5" y="-271.5" font-family="Helvetica,sans-Serif" font-size="10.00" fill="#000000">+ ~Digitizer()</text>
<text text-anchor="start" x="724.5" y="-260.5" font-family="Helvetica,sans-Serif" font-size="10.00" fill="#000000">+ init()</text>
<text text-anchor="start" x="724.5" y="-249.5" font-family="Helvetica,sans-Serif" font-size="10.00" fill="#000000">+ process()</text>
<text text-anchor="start" x="724.5" y="-238.5" font-family="Helvetica,sans-Serif" font-size="10.00" fill="#000000">+ setCalibApi()</text>
<text text-anchor="start" x="724.5" y="-227.5" font-family="Helvetica,sans-Serif" font-size="10.00" fill="#000000">+ setMCTruthContainer()</text>
<text text-anchor="start" x="724.5" y="-216.5" font-family="Helvetica,sans-Serif" font-size="10.00" fill="#000000">+ getMCTruthPerTimeFrame()</text>
<text text-anchor="start" x="724.5" y="-205.5" font-family="Helvetica,sans-Serif" font-size="10.00" fill="#000000">+ fillOutputContainer()</text>
<text text-anchor="start" x="724.5" y="-194.5" font-family="Helvetica,sans-Serif" font-size="10.00" fill="#000000">+ flushOutputContainer()</text>
<text text-anchor="start" x="724.5" y="-183.5" font-family="Helvetica,sans-Serif" font-size="10.00" fill="#000000">+ initParameters()</text>
<text text-anchor="start" x="724.5" y="-172.5" font-family="Helvetica,sans-Serif" font-size="10.00" fill="#000000">+ printParameters()</text>
<text text-anchor="start" x="724.5" y="-161.5" font-family="Helvetica,sans-Serif" font-size="10.00" fill="#000000">+ getShowerTimeSmeared()</text>
<text text-anchor="start" x="724.5" y="-150.5" font-family="Helvetica,sans-Serif" font-size="10.00" fill="#000000">+ getDigitTimeSmeared()</text>
<text text-anchor="start" x="724.5" y="-139.5" font-family="Helvetica,sans-Serif" font-size="10.00" fill="#000000">+ getCharge()</text>
<text text-anchor="start" x="724.5" y="-128.5" font-family="Helvetica,sans-Serif" font-size="10.00" fill="#000000">+ isFired()</text>
<text text-anchor="start" x="724.5" y="-117.5" font-family="Helvetica,sans-Serif" font-size="10.00" fill="#000000">+ getEffX()</text>
<text text-anchor="start" x="724.5" y="-106.5" font-family="Helvetica,sans-Serif" font-size="10.00" fill="#000000">+ getEffZ()</text>
<text text-anchor="start" x="724.5" y="-95.5" font-family="Helvetica,sans-Serif" font-size="10.00" fill="#000000">+ getFractionOfCharge()</text>
<text text-anchor="start" x="724.5" y="-84.5" font-family="Helvetica,sans-Serif" font-size="10.00" fill="#000000">+ getTimeLastHit()</text>
<text text-anchor="start" x="724.5" y="-73.5" font-family="Helvetica,sans-Serif" font-size="10.00" fill="#000000">+ getTotLastHit()</text>
<text text-anchor="start" x="724.5" y="-62.5" font-family="Helvetica,sans-Serif" font-size="10.00" fill="#000000">+ getXshift()</text>
<text text-anchor="start" x="724.5" y="-51.5" font-family="Helvetica,sans-Serif" font-size="10.00" fill="#000000">+ getZshift()</text>
<text text-anchor="start" x="724.5" y="-40.5" font-family="Helvetica,sans-Serif" font-size="10.00" fill="#000000">+ setEventID()</text>
<text text-anchor="start" x="724.5" y="-29.5" font-family="Helvetica,sans-Serif" font-size="10.00" fill="#000000">+ setSrcID()</text>
<text text-anchor="start" x="724.5" y="-18.5" font-family="Helvetica,sans-Serif" font-size="10.00" fill="#000000">+ test()</text>
<text text-anchor="start" x="724.5" y="-7.5" font-family="Helvetica,sans-Serif" font-size="10.00" fill="#000000">+ testFromHits()</text>
</g>
<!-- Node3 -->
<g id="node2" class="node">
<title>Node3</title>
<g id="a_node2"><a xlink:href="../../db/d26/classo2_1_1tof_1_1WindowFiller.html" target="_top" xlink:title="{o2::tof::WindowFiller\n||+ WindowFiller()\l+ ~WindowFiller()\l+ initObj()\l+ reset()\l+ getCurrentReadoutWindow()\l+ setCurrentReadoutWindow()\l+ setEventTime()\l+ getDigitPerTimeFrame()\l+ getReadoutWindowData()\l+ getReadoutWindowDataFiltered()\l+ fillOutputContainer()\l+ flushOutputContainer()\l+ setContinuous()\l+ isContinuous()\l+ resizeVectorFutureDigit()\l+ setFirstIR()\l+ maskNoiseRate()\l+ clearCounts()\l+ getPatterns()\l+ addPattern()\l# fillDigitsInStrip()\l# checkIfReuseFutureDigits()\l# checkIfReuseFutureDigitsRO()\l# insertDigitInFuture()\l# isMergable()\l# ClassDefNV()\l}">
<polygon fill="none" stroke="#000000" points="702.5,-370.5 702.5,-702.5 891.5,-702.5 891.5,-370.5 702.5,-370.5"/>
<text text-anchor="middle" x="797" y="-690.5" font-family="Helvetica,sans-Serif" font-size="10.00" fill="#000000">o2::tof::WindowFiller</text>
<polyline fill="none" stroke="#000000" points="702.5,-683.5 891.5,-683.5 "/>
<text text-anchor="middle" x="797" y="-671.5" font-family="Helvetica,sans-Serif" font-size="10.00" fill="#000000"> </text>
<polyline fill="none" stroke="#000000" points="702.5,-664.5 891.5,-664.5 "/>
<text text-anchor="start" x="710.5" y="-652.5" font-family="Helvetica,sans-Serif" font-size="10.00" fill="#000000">+ WindowFiller()</text>
<text text-anchor="start" x="710.5" y="-641.5" font-family="Helvetica,sans-Serif" font-size="10.00" fill="#000000">+ ~WindowFiller()</text>
<text text-anchor="start" x="710.5" y="-630.5" font-family="Helvetica,sans-Serif" font-size="10.00" fill="#000000">+ initObj()</text>
<text text-anchor="start" x="710.5" y="-619.5" font-family="Helvetica,sans-Serif" font-size="10.00" fill="#000000">+ reset()</text>
<text text-anchor="start" x="710.5" y="-608.5" font-family="Helvetica,sans-Serif" font-size="10.00" fill="#000000">+ getCurrentReadoutWindow()</text>
<text text-anchor="start" x="710.5" y="-597.5" font-family="Helvetica,sans-Serif" font-size="10.00" fill="#000000">+ setCurrentReadoutWindow()</text>
<text text-anchor="start" x="710.5" y="-586.5" font-family="Helvetica,sans-Serif" font-size="10.00" fill="#000000">+ setEventTime()</text>
<text text-anchor="start" x="710.5" y="-575.5" font-family="Helvetica,sans-Serif" font-size="10.00" fill="#000000">+ getDigitPerTimeFrame()</text>
<text text-anchor="start" x="710.5" y="-564.5" font-family="Helvetica,sans-Serif" font-size="10.00" fill="#000000">+ getReadoutWindowData()</text>
<text text-anchor="start" x="710.5" y="-553.5" font-family="Helvetica,sans-Serif" font-size="10.00" fill="#000000">+ getReadoutWindowDataFiltered()</text>
<text text-anchor="start" x="710.5" y="-542.5" font-family="Helvetica,sans-Serif" font-size="10.00" fill="#000000">+ fillOutputContainer()</text>
<text text-anchor="start" x="710.5" y="-531.5" font-family="Helvetica,sans-Serif" font-size="10.00" fill="#000000">+ flushOutputContainer()</text>
<text text-anchor="start" x="710.5" y="-520.5" font-family="Helvetica,sans-Serif" font-size="10.00" fill="#000000">+ setContinuous()</text>
<text text-anchor="start" x="710.5" y="-509.5" font-family="Helvetica,sans-Serif" font-size="10.00" fill="#000000">+ isContinuous()</text>
<text text-anchor="start" x="710.5" y="-498.5" font-family="Helvetica,sans-Serif" font-size="10.00" fill="#000000">+ resizeVectorFutureDigit()</text>
<text text-anchor="start" x="710.5" y="-487.5" font-family="Helvetica,sans-Serif" font-size="10.00" fill="#000000">+ setFirstIR()</text>
<text text-anchor="start" x="710.5" y="-476.5" font-family="Helvetica,sans-Serif" font-size="10.00" fill="#000000">+ maskNoiseRate()</text>
<text text-anchor="start" x="710.5" y="-465.5" font-family="Helvetica,sans-Serif" font-size="10.00" fill="#000000">+ clearCounts()</text>
<text text-anchor="start" x="710.5" y="-454.5" font-family="Helvetica,sans-Serif" font-size="10.00" fill="#000000">+ getPatterns()</text>
<text text-anchor="start" x="710.5" y="-443.5" font-family="Helvetica,sans-Serif" font-size="10.00" fill="#000000">+ addPattern()</text>
<text text-anchor="start" x="710.5" y="-432.5" font-family="Helvetica,sans-Serif" font-size="10.00" fill="#000000"># fillDigitsInStrip()</text>
<text text-anchor="start" x="710.5" y="-421.5" font-family="Helvetica,sans-Serif" font-size="10.00" fill="#000000"># checkIfReuseFutureDigits()</text>
<text text-anchor="start" x="710.5" y="-410.5" font-family="Helvetica,sans-Serif" font-size="10.00" fill="#000000"># checkIfReuseFutureDigitsRO()</text>
<text text-anchor="start" x="710.5" y="-399.5" font-family="Helvetica,sans-Serif" font-size="10.00" fill="#000000"># insertDigitInFuture()</text>
<text text-anchor="start" x="710.5" y="-388.5" font-family="Helvetica,sans-Serif" font-size="10.00" fill="#000000"># isMergable()</text>
<text text-anchor="start" x="710.5" y="-377.5" font-family="Helvetica,sans-Serif" font-size="10.00" fill="#000000"># ClassDefNV()</text>
</a>
</g>
</g>
<!-- Node3&#45;&gt;Node2 -->
<g id="edge1" class="edge">
<title>Node3&#45;&gt;Node2</title>
<path fill="none" stroke="#191970" d="M797,-360.3922C797,-351.1175 797,-341.8129 797,-332.5719"/>
<polygon fill="none" stroke="#191970" points="793.5001,-360.4401 797,-370.4402 800.5001,-360.4402 793.5001,-360.4401"/>
</g>
<!-- Node4 -->
<g id="node3" class="node">
<title>Node4</title>
<polygon fill="none" stroke="#bfbfbf" points="0,-855 0,-912 138,-912 138,-855 0,-855"/>
<text text-anchor="middle" x="69" y="-900" font-family="Helvetica,sans-Serif" font-size="10.00" fill="#000000">vector&lt; o2::tof::Strip &gt; *</text>
<polyline fill="none" stroke="#bfbfbf" points="0,-893 138,-893 "/>
<text text-anchor="middle" x="69" y="-881" font-family="Helvetica,sans-Serif" font-size="10.00" fill="#000000"> </text>
<polyline fill="none" stroke="#bfbfbf" points="0,-874 138,-874 "/>
<text text-anchor="middle" x="69" y="-862" font-family="Helvetica,sans-Serif" font-size="10.00" fill="#000000"> </text>
</g>
<!-- Node4&#45;&gt;Node3 -->
<g id="edge2" class="edge">
<title>Node4&#45;&gt;Node3</title>
<path fill="none" stroke="#404040" d="M74.8755,-854.963C83.8621,-818.5485 104.5314,-756.0868 146,-721 228.404,-651.2775 527.9858,-586.578 690.4658,-555.6209"/>
<polygon fill="none" stroke="#404040" points="690.6105,-555.5935 695.7614,-550.5469 702.4009,-553.3606 697.25,-558.4072 690.6105,-555.5935"/>
<text text-anchor="middle" x="187" y="-740.5" font-family="Helvetica,sans-Serif" font-size="10.00" fill="#000000"> #mStripsNext</text>
<text text-anchor="middle" x="187" y="-729.5" font-family="Helvetica,sans-Serif" font-size="10.00" fill="#000000">#mStripsCurrent</text>
</g>
<!-- Node5 -->
<g id="node4" class="node">
<title>Node5</title>
<g id="a_node4"><a xlink:href="../../d1/d21/structo2_1_1InteractionRecord.html" target="_top" xlink:title="{o2::InteractionRecord\n||+ InteractionRecord()\l+ InteractionRecord()\l+ InteractionRecord()\l+ InteractionRecord()\l+ clear()\l+ isDummy()\l+ setFromNS()\l+ bc2ns()\l+ operator==()\l+ operator!=()\l+ differenceInBC()\l+ differenceInBCNS()\l+ differenceInBCMS()\l+ toLong()\l+ setFromLong()\l+ operator\&gt;()\l+ operator\&gt;=()\l+ operator\&lt;()\l+ operator\&lt;=()\l+ operator&#45;&#45;()\l+ operator&#45;&#45;()\l+ operator++()\l+ operator++()\l+ operator+=()\l+ operator&#45;=()\l+ operator+=()\l+ operator&#45;=()\l+ operator+()\l+ operator&#45;()\l+ operator+()\l+ operator&#45;()\l+ print()\l+ asString()\l+ ClassDefNV()\l+ bc2ns()\l+ ns2bc()\l}">
<polygon fill="none" stroke="#000000" points="277.5,-1032.5 277.5,-1474.5 398.5,-1474.5 398.5,-1032.5 277.5,-1032.5"/>
<text text-anchor="middle" x="338" y="-1462.5" font-family="Helvetica,sans-Serif" font-size="10.00" fill="#000000">o2::InteractionRecord</text>
<polyline fill="none" stroke="#000000" points="277.5,-1455.5 398.5,-1455.5 "/>
<text text-anchor="middle" x="338" y="-1443.5" font-family="Helvetica,sans-Serif" font-size="10.00" fill="#000000"> </text>
<polyline fill="none" stroke="#000000" points="277.5,-1436.5 398.5,-1436.5 "/>
<text text-anchor="start" x="285.5" y="-1424.5" font-family="Helvetica,sans-Serif" font-size="10.00" fill="#000000">+ InteractionRecord()</text>
<text text-anchor="start" x="285.5" y="-1413.5" font-family="Helvetica,sans-Serif" font-size="10.00" fill="#000000">+ InteractionRecord()</text>
<text text-anchor="start" x="285.5" y="-1402.5" font-family="Helvetica,sans-Serif" font-size="10.00" fill="#000000">+ InteractionRecord()</text>
<text text-anchor="start" x="285.5" y="-1391.5" font-family="Helvetica,sans-Serif" font-size="10.00" fill="#000000">+ InteractionRecord()</text>
<text text-anchor="start" x="285.5" y="-1380.5" font-family="Helvetica,sans-Serif" font-size="10.00" fill="#000000">+ clear()</text>
<text text-anchor="start" x="285.5" y="-1369.5" font-family="Helvetica,sans-Serif" font-size="10.00" fill="#000000">+ isDummy()</text>
<text text-anchor="start" x="285.5" y="-1358.5" font-family="Helvetica,sans-Serif" font-size="10.00" fill="#000000">+ setFromNS()</text>
<text text-anchor="start" x="285.5" y="-1347.5" font-family="Helvetica,sans-Serif" font-size="10.00" fill="#000000">+ bc2ns()</text>
<text text-anchor="start" x="285.5" y="-1336.5" font-family="Helvetica,sans-Serif" font-size="10.00" fill="#000000">+ operator==()</text>
<text text-anchor="start" x="285.5" y="-1325.5" font-family="Helvetica,sans-Serif" font-size="10.00" fill="#000000">+ operator!=()</text>
<text text-anchor="start" x="285.5" y="-1314.5" font-family="Helvetica,sans-Serif" font-size="10.00" fill="#000000">+ differenceInBC()</text>
<text text-anchor="start" x="285.5" y="-1303.5" font-family="Helvetica,sans-Serif" font-size="10.00" fill="#000000">+ differenceInBCNS()</text>
<text text-anchor="start" x="285.5" y="-1292.5" font-family="Helvetica,sans-Serif" font-size="10.00" fill="#000000">+ differenceInBCMS()</text>
<text text-anchor="start" x="285.5" y="-1281.5" font-family="Helvetica,sans-Serif" font-size="10.00" fill="#000000">+ toLong()</text>
<text text-anchor="start" x="285.5" y="-1270.5" font-family="Helvetica,sans-Serif" font-size="10.00" fill="#000000">+ setFromLong()</text>
<text text-anchor="start" x="285.5" y="-1259.5" font-family="Helvetica,sans-Serif" font-size="10.00" fill="#000000">+ operator&gt;()</text>
<text text-anchor="start" x="285.5" y="-1248.5" font-family="Helvetica,sans-Serif" font-size="10.00" fill="#000000">+ operator&gt;=()</text>
<text text-anchor="start" x="285.5" y="-1237.5" font-family="Helvetica,sans-Serif" font-size="10.00" fill="#000000">+ operator&lt;()</text>
<text text-anchor="start" x="285.5" y="-1226.5" font-family="Helvetica,sans-Serif" font-size="10.00" fill="#000000">+ operator&lt;=()</text>
<text text-anchor="start" x="285.5" y="-1215.5" font-family="Helvetica,sans-Serif" font-size="10.00" fill="#000000">+ operator&#45;&#45;()</text>
<text text-anchor="start" x="285.5" y="-1204.5" font-family="Helvetica,sans-Serif" font-size="10.00" fill="#000000">+ operator&#45;&#45;()</text>
<text text-anchor="start" x="285.5" y="-1193.5" font-family="Helvetica,sans-Serif" font-size="10.00" fill="#000000">+ operator++()</text>
<text text-anchor="start" x="285.5" y="-1182.5" font-family="Helvetica,sans-Serif" font-size="10.00" fill="#000000">+ operator++()</text>
<text text-anchor="start" x="285.5" y="-1171.5" font-family="Helvetica,sans-Serif" font-size="10.00" fill="#000000">+ operator+=()</text>
<text text-anchor="start" x="285.5" y="-1160.5" font-family="Helvetica,sans-Serif" font-size="10.00" fill="#000000">+ operator&#45;=()</text>
<text text-anchor="start" x="285.5" y="-1149.5" font-family="Helvetica,sans-Serif" font-size="10.00" fill="#000000">+ operator+=()</text>
<text text-anchor="start" x="285.5" y="-1138.5" font-family="Helvetica,sans-Serif" font-size="10.00" fill="#000000">+ operator&#45;=()</text>
<text text-anchor="start" x="285.5" y="-1127.5" font-family="Helvetica,sans-Serif" font-size="10.00" fill="#000000">+ operator+()</text>
<text text-anchor="start" x="285.5" y="-1116.5" font-family="Helvetica,sans-Serif" font-size="10.00" fill="#000000">+ operator&#45;()</text>
<text text-anchor="start" x="285.5" y="-1105.5" font-family="Helvetica,sans-Serif" font-size="10.00" fill="#000000">+ operator+()</text>
<text text-anchor="start" x="285.5" y="-1094.5" font-family="Helvetica,sans-Serif" font-size="10.00" fill="#000000">+ operator&#45;()</text>
<text text-anchor="start" x="285.5" y="-1083.5" font-family="Helvetica,sans-Serif" font-size="10.00" fill="#000000">+ print()</text>
<text text-anchor="start" x="285.5" y="-1072.5" font-family="Helvetica,sans-Serif" font-size="10.00" fill="#000000">+ asString()</text>
<text text-anchor="start" x="285.5" y="-1061.5" font-family="Helvetica,sans-Serif" font-size="10.00" fill="#000000">+ ClassDefNV()</text>
<text text-anchor="start" x="285.5" y="-1050.5" font-family="Helvetica,sans-Serif" font-size="10.00" fill="#000000">+ bc2ns()</text>
<text text-anchor="start" x="285.5" y="-1039.5" font-family="Helvetica,sans-Serif" font-size="10.00" fill="#000000">+ ns2bc()</text>
</a>
</g>
</g>
<!-- Node5&#45;&gt;Node3 -->
<g id="edge3" class="edge">
<title>Node5&#45;&gt;Node3</title>
<path fill="none" stroke="#404040" d="M320.8096,-1032.458C316.8617,-927.4547 320.1004,-815.5148 347,-772 422.1899,-650.3671 582.7004,-588.3329 690.2605,-559.199"/>
<polygon fill="none" stroke="#404040" points="690.5255,-559.129 695.3029,-553.7275 702.1264,-556.0599 697.349,-561.4614 690.5255,-559.129"/>
<text text-anchor="middle" x="373" y="-881" font-family="Helvetica,sans-Serif" font-size="10.00" fill="#000000"> #mFirstIR</text>
</g>
<!-- Node19 -->
<g id="node18" class="node">
<title>Node19</title>
<g id="a_node18"><a xlink:href="../../d8/d98/structo2_1_1InteractionTimeRecord.html" target="_top" xlink:title="{o2::InteractionTimeRecord\n||+ InteractionTimeRecord()\l+ InteractionTimeRecord()\l+ InteractionTimeRecord()\l+ setFromNS()\l+ clear()\l+ getTimeOffsetWrtBC()\l+ getTimeNS()\l+ operator==()\l+ operator!=()\l+ operator\&gt;()\l+ operator\&gt;=()\l+ operator\&lt;()\l+ operator\&lt;=()\l+ print()\l+ asString()\l+ ClassDefNV()\l}">
<polygon fill="none" stroke="#000000" points="156,-772.5 156,-994.5 302,-994.5 302,-772.5 156,-772.5"/>
<text text-anchor="middle" x="229" y="-982.5" font-family="Helvetica,sans-Serif" font-size="10.00" fill="#000000">o2::InteractionTimeRecord</text>
<polyline fill="none" stroke="#000000" points="156,-975.5 302,-975.5 "/>
<text text-anchor="middle" x="229" y="-963.5" font-family="Helvetica,sans-Serif" font-size="10.00" fill="#000000"> </text>
<polyline fill="none" stroke="#000000" points="156,-956.5 302,-956.5 "/>
<text text-anchor="start" x="164" y="-944.5" font-family="Helvetica,sans-Serif" font-size="10.00" fill="#000000">+ InteractionTimeRecord()</text>
<text text-anchor="start" x="164" y="-933.5" font-family="Helvetica,sans-Serif" font-size="10.00" fill="#000000">+ InteractionTimeRecord()</text>
<text text-anchor="start" x="164" y="-922.5" font-family="Helvetica,sans-Serif" font-size="10.00" fill="#000000">+ InteractionTimeRecord()</text>
<text text-anchor="start" x="164" y="-911.5" font-family="Helvetica,sans-Serif" font-size="10.00" fill="#000000">+ setFromNS()</text>
<text text-anchor="start" x="164" y="-900.5" font-family="Helvetica,sans-Serif" font-size="10.00" fill="#000000">+ clear()</text>
<text text-anchor="start" x="164" y="-889.5" font-family="Helvetica,sans-Serif" font-size="10.00" fill="#000000">+ getTimeOffsetWrtBC()</text>
<text text-anchor="start" x="164" y="-878.5" font-family="Helvetica,sans-Serif" font-size="10.00" fill="#000000">+ getTimeNS()</text>
<text text-anchor="start" x="164" y="-867.5" font-family="Helvetica,sans-Serif" font-size="10.00" fill="#000000">+ operator==()</text>
<text text-anchor="start" x="164" y="-856.5" font-family="Helvetica,sans-Serif" font-size="10.00" fill="#000000">+ operator!=()</text>
<text text-anchor="start" x="164" y="-845.5" font-family="Helvetica,sans-Serif" font-size="10.00" fill="#000000">+ operator&gt;()</text>
<text text-anchor="start" x="164" y="-834.5" font-family="Helvetica,sans-Serif" font-size="10.00" fill="#000000">+ operator&gt;=()</text>
<text text-anchor="start" x="164" y="-823.5" font-family="Helvetica,sans-Serif" font-size="10.00" fill="#000000">+ operator&lt;()</text>
<text text-anchor="start" x="164" y="-812.5" font-family="Helvetica,sans-Serif" font-size="10.00" fill="#000000">+ operator&lt;=()</text>
<text text-anchor="start" x="164" y="-801.5" font-family="Helvetica,sans-Serif" font-size="10.00" fill="#000000">+ print()</text>
<text text-anchor="start" x="164" y="-790.5" font-family="Helvetica,sans-Serif" font-size="10.00" fill="#000000">+ asString()</text>
<text text-anchor="start" x="164" y="-779.5" font-family="Helvetica,sans-Serif" font-size="10.00" fill="#000000">+ ClassDefNV()</text>
</a>
</g>
</g>
<!-- Node5&#45;&gt;Node19 -->
<g id="edge18" class="edge">
<title>Node5&#45;&gt;Node19</title>
<path fill="none" stroke="#191970" d="M274.5471,-1038.1096C270.1548,-1023.1998 265.8423,-1008.5609 261.7278,-994.5945"/>
<polygon fill="none" stroke="#191970" points="271.2605,-1039.3388 277.4438,-1047.9421 277.9752,-1037.3606 271.2605,-1039.3388"/>
</g>
<!-- Node6 -->
<g id="node5" class="node">
<title>Node6</title>
<polygon fill="none" stroke="#bfbfbf" points="189,-1533.5 189,-1590.5 239,-1590.5 239,-1533.5 189,-1533.5"/>
<text text-anchor="middle" x="214" y="-1578.5" font-family="Helvetica,sans-Serif" font-size="10.00" fill="#000000">double</text>
<polyline fill="none" stroke="#bfbfbf" points="189,-1571.5 239,-1571.5 "/>
<text text-anchor="middle" x="214" y="-1559.5" font-family="Helvetica,sans-Serif" font-size="10.00" fill="#000000"> </text>
<polyline fill="none" stroke="#bfbfbf" points="189,-1552.5 239,-1552.5 "/>
<text text-anchor="middle" x="214" y="-1540.5" font-family="Helvetica,sans-Serif" font-size="10.00" fill="#000000"> </text>
</g>
<!-- Node6&#45;&gt;Node5 -->
<g id="edge4" class="edge">
<title>Node6&#45;&gt;Node5</title>
<path fill="none" stroke="#404040" d="M230.2739,-1533.2523C244.2664,-1508.5122 262.3113,-1476.5435 263,-1475 266.3734,-1467.44 269.6853,-1459.6791 272.924,-1451.7972"/>
<polygon fill="none" stroke="#404040" points="272.9597,-1451.7087 271.4973,-1444.6475 277.4529,-1440.5817 278.9153,-1447.6429 272.9597,-1451.7087"/>
<text text-anchor="middle" x="289" y="-1501.5" font-family="Helvetica,sans-Serif" font-size="10.00" fill="#000000"> +DummyTime</text>
</g>
<!-- Node6&#45;&gt;Node19 -->
<g id="edge19" class="edge">
<title>Node6&#45;&gt;Node19</title>
<path fill="none" stroke="#404040" d="M207.7546,-1533.1604C204.4228,-1516.2971 200.6728,-1494.5471 199,-1475 182.2125,-1278.8281 179.4088,-1227.9118 199,-1032 199.8272,-1023.7284 200.9073,-1015.2357 202.1655,-1006.7026"/>
<polygon fill="none" stroke="#404040" points="202.1992,-1006.4863 199.1752,-999.9399 204.0549,-994.6306 207.079,-1001.177 202.1992,-1006.4863"/>
<text text-anchor="middle" x="234" y="-1251" font-family="Helvetica,sans-Serif" font-size="10.00" fill="#000000"> +timeInBCNS</text>
</g>
<!-- Node7 -->
<g id="node6" class="node">
<title>Node7</title>
<polygon fill="none" stroke="#bfbfbf" points="305,-1533.5 305,-1590.5 361,-1590.5 361,-1533.5 305,-1533.5"/>
<text text-anchor="middle" x="333" y="-1578.5" font-family="Helvetica,sans-Serif" font-size="10.00" fill="#000000">uint16_t</text>
<polyline fill="none" stroke="#bfbfbf" points="305,-1571.5 361,-1571.5 "/>
<text text-anchor="middle" x="333" y="-1559.5" font-family="Helvetica,sans-Serif" font-size="10.00" fill="#000000"> </text>
<polyline fill="none" stroke="#bfbfbf" points="305,-1552.5 361,-1552.5 "/>
<text text-anchor="middle" x="333" y="-1540.5" font-family="Helvetica,sans-Serif" font-size="10.00" fill="#000000"> </text>
</g>
<!-- Node7&#45;&gt;Node5 -->
<g id="edge5" class="edge">
<title>Node7&#45;&gt;Node5</title>
<path fill="none" stroke="#404040" d="M333.3994,-1533.4647C333.5771,-1521.0349 333.7926,-1506.2967 334,-1493 334.0323,-1490.9275 334.0649,-1488.8448 334.0977,-1486.7533"/>
<polygon fill="none" stroke="#404040" points="334.0987,-1486.6839 330.1939,-1480.6215 334.2881,-1474.6854 338.1929,-1480.7477 334.0987,-1486.6839"/>
<text text-anchor="middle" x="366" y="-1507" font-family="Helvetica,sans-Serif" font-size="10.00" fill="#000000"> +DummyBC</text>
<text text-anchor="middle" x="366" y="-1496" font-family="Helvetica,sans-Serif" font-size="10.00" fill="#000000">+bc</text>
</g>
<!-- Node8 -->
<g id="node7" class="node">
<title>Node8</title>
<g id="a_node7"><a xlink:href="../../d3/d87/classuint32__t.html" target="_top" xlink:title="{uint32_t\n||}">
<polygon fill="none" stroke="#000000" points="392,-1533.5 392,-1590.5 448,-1590.5 448,-1533.5 392,-1533.5"/>
<text text-anchor="middle" x="420" y="-1578.5" font-family="Helvetica,sans-Serif" font-size="10.00" fill="#000000">uint32_t</text>
<polyline fill="none" stroke="#000000" points="392,-1571.5 448,-1571.5 "/>
<text text-anchor="middle" x="420" y="-1559.5" font-family="Helvetica,sans-Serif" font-size="10.00" fill="#000000"> </text>
<polyline fill="none" stroke="#000000" points="392,-1552.5 448,-1552.5 "/>
<text text-anchor="middle" x="420" y="-1540.5" font-family="Helvetica,sans-Serif" font-size="10.00" fill="#000000"> </text>
</a>
</g>
</g>
<!-- Node8&#45;&gt;Node5 -->
<g id="edge6" class="edge">
<title>Node8&#45;&gt;Node5</title>
<path fill="none" stroke="#404040" d="M412.3593,-1533.2541C409.0004,-1520.6172 404.7254,-1504.5338 399.9281,-1486.4855"/>
<polygon fill="none" stroke="#404040" points="399.8739,-1486.2815 394.4668,-1481.5104 396.7912,-1474.6841 402.1984,-1479.4553 399.8739,-1486.2815"/>
<text text-anchor="middle" x="442" y="-1507" font-family="Helvetica,sans-Serif" font-size="10.00" fill="#000000"> +orbit</text>
<text text-anchor="middle" x="442" y="-1496" font-family="Helvetica,sans-Serif" font-size="10.00" fill="#000000">+DummyOrbit</text>
</g>
<!-- Node9 -->
<g id="node8" class="node">
<title>Node9</title>
<g id="a_node8"><a xlink:href="../../d6/d30/classuint64__t.html" target="_top" xlink:title="{uint64_t\n||}">
<polygon fill="none" stroke="#000000" points="408,-855 408,-912 464,-912 464,-855 408,-855"/>
<text text-anchor="middle" x="436" y="-900" font-family="Helvetica,sans-Serif" font-size="10.00" fill="#000000">uint64_t</text>
<polyline fill="none" stroke="#000000" points="408,-893 464,-893 "/>
<text text-anchor="middle" x="436" y="-881" font-family="Helvetica,sans-Serif" font-size="10.00" fill="#000000"> </text>
<polyline fill="none" stroke="#000000" points="408,-874 464,-874 "/>
<text text-anchor="middle" x="436" y="-862" font-family="Helvetica,sans-Serif" font-size="10.00" fill="#000000"> </text>
</a>
</g>
</g>
<!-- Node9&#45;&gt;Node3 -->
<g id="edge7" class="edge">
<title>Node9&#45;&gt;Node3</title>
<path fill="none" stroke="#404040" d="M435.5607,-854.7968C436.4409,-819.8968 442.6405,-760.7436 472,-721 526.067,-647.8101 618.4358,-599.4391 690.9127,-570.6599"/>
<polygon fill="none" stroke="#404040" points="691.1803,-570.556 695.3235,-564.6539 702.3651,-566.2084 698.2218,-572.1105 691.1803,-570.556"/>
<text text-anchor="middle" x="540" y="-735" font-family="Helvetica,sans-Serif" font-size="10.00" fill="#000000"> #mReadoutWindowCurrent</text>
</g>
<!-- Node10 -->
<g id="node9" class="node">
<title>Node10</title>
<polygon fill="none" stroke="#bfbfbf" points="482,-849.5 482,-917.5 640,-917.5 640,-849.5 482,-849.5"/>
<text text-anchor="start" x="490" y="-905.5" font-family="Helvetica,sans-Serif" font-size="10.00" fill="#000000">vector&lt; o2::tof::WindowFiller</text>
<text text-anchor="middle" x="561" y="-894.5" font-family="Helvetica,sans-Serif" font-size="10.00" fill="#000000">::PatternData &gt;</text>
<polyline fill="none" stroke="#bfbfbf" points="482,-887.5 640,-887.5 "/>
<text text-anchor="middle" x="561" y="-875.5" font-family="Helvetica,sans-Serif" font-size="10.00" fill="#000000"> </text>
<polyline fill="none" stroke="#bfbfbf" points="482,-868.5 640,-868.5 "/>
<text text-anchor="middle" x="561" y="-856.5" font-family="Helvetica,sans-Serif" font-size="10.00" fill="#000000"> </text>
</g>
<!-- Node10&#45;&gt;Node3 -->
<g id="edge8" class="edge">
<title>Node10&#45;&gt;Node3</title>
<path fill="none" stroke="#404040" d="M571.4199,-849.4915C582.7119,-815.4233 602.6991,-762.2623 629,-721 647.538,-691.9166 670.7937,-663.0786 694.04,-637.1463"/>
<polygon fill="none" stroke="#404040" points="694.1878,-636.9835 695.2597,-629.8525 702.2544,-628.0992 701.1825,-635.2302 694.1878,-636.9835"/>
<text text-anchor="middle" x="673" y="-735" font-family="Helvetica,sans-Serif" font-size="10.00" fill="#000000"> #mCratePatterns</text>
</g>
<!-- Node11 -->
<g id="node10" class="node">
<title>Node11</title>
<polygon fill="none" stroke="#bfbfbf" points="658,-855 658,-912 788,-912 788,-855 658,-855"/>
<text text-anchor="middle" x="723" y="-900" font-family="Helvetica,sans-Serif" font-size="10.00" fill="#000000">vector&lt; o2::tof::Strip &gt;</text>
<polyline fill="none" stroke="#bfbfbf" points="658,-893 788,-893 "/>
<text text-anchor="middle" x="723" y="-881" font-family="Helvetica,sans-Serif" font-size="10.00" fill="#000000"> </text>
<polyline fill="none" stroke="#bfbfbf" points="658,-874 788,-874 "/>
<text text-anchor="middle" x="723" y="-862" font-family="Helvetica,sans-Serif" font-size="10.00" fill="#000000"> </text>
</g>
<!-- Node11&#45;&gt;Node3 -->
<g id="edge9" class="edge">
<title>Node11&#45;&gt;Node3</title>
<path fill="none" stroke="#404040" d="M720.541,-854.7096C718.4332,-821.9792 716.9932,-767.1092 726,-721 726.4256,-718.821 726.8751,-716.6344 727.3469,-714.4418"/>
<polygon fill="none" stroke="#404040" points="727.3657,-714.3604 724.8234,-707.6123 730.0747,-702.6702 732.6169,-709.4183 727.3657,-714.3604"/>
<text text-anchor="middle" x="750.5" y="-735" font-family="Helvetica,sans-Serif" font-size="10.00" fill="#000000"> #mStrips</text>
</g>
<!-- Node12 -->
<g id="node11" class="node">
<title>Node12</title>
<polygon fill="none" stroke="#bfbfbf" points="806,-849.5 806,-917.5 942,-917.5 942,-849.5 806,-849.5"/>
<text text-anchor="start" x="814" y="-905.5" font-family="Helvetica,sans-Serif" font-size="10.00" fill="#000000">vector&lt; o2::tof::Readout</text>
<text text-anchor="middle" x="874" y="-894.5" font-family="Helvetica,sans-Serif" font-size="10.00" fill="#000000">WindowData &gt;</text>
<polyline fill="none" stroke="#bfbfbf" points="806,-887.5 942,-887.5 "/>
<text text-anchor="middle" x="874" y="-875.5" font-family="Helvetica,sans-Serif" font-size="10.00" fill="#000000"> </text>
<polyline fill="none" stroke="#bfbfbf" points="806,-868.5 942,-868.5 "/>
<text text-anchor="middle" x="874" y="-856.5" font-family="Helvetica,sans-Serif" font-size="10.00" fill="#000000"> </text>
</g>
<!-- Node12&#45;&gt;Node3 -->
<g id="edge10" class="edge">
<title>Node12&#45;&gt;Node3</title>
<path fill="none" stroke="#404040" d="M847.0826,-849.2416C829.3209,-824.3734 807.6176,-789.0706 798,-754 794.5402,-741.3837 791.9985,-728.1989 790.1898,-714.8303"/>
<polygon fill="none" stroke="#404040" points="790.1423,-714.429 785.4637,-708.9417 788.7295,-702.5125 793.4081,-707.9998 790.1423,-714.429"/>
<text text-anchor="middle" x="878" y="-740.5" font-family="Helvetica,sans-Serif" font-size="10.00" fill="#000000"> #mReadoutWindowDataFiltered</text>
<text text-anchor="middle" x="878" y="-729.5" font-family="Helvetica,sans-Serif" font-size="10.00" fill="#000000">#mReadoutWindowData</text>
</g>
<!-- Node13 -->
<g id="node12" class="node">
<title>Node13</title>
<polygon fill="none" stroke="#bfbfbf" points="960.5,-855 960.5,-912 1091.5,-912 1091.5,-855 960.5,-855"/>
<text text-anchor="middle" x="1026" y="-900" font-family="Helvetica,sans-Serif" font-size="10.00" fill="#000000">vector&lt; o2::tof::Digit &gt;</text>
<polyline fill="none" stroke="#bfbfbf" points="960.5,-893 1091.5,-893 "/>
<text text-anchor="middle" x="1026" y="-881" font-family="Helvetica,sans-Serif" font-size="10.00" fill="#000000"> </text>
<polyline fill="none" stroke="#bfbfbf" points="960.5,-874 1091.5,-874 "/>
<text text-anchor="middle" x="1026" y="-862" font-family="Helvetica,sans-Serif" font-size="10.00" fill="#000000"> </text>
</g>
<!-- Node13&#45;&gt;Node3 -->
<g id="edge11" class="edge">
<title>Node13&#45;&gt;Node3</title>
<path fill="none" stroke="#404040" d="M1017.1442,-854.8566C1006.079,-821.3037 985.2373,-764.7446 958,-721 941.2632,-694.1198 920.6364,-667.2626 899.7999,-642.6907"/>
<polygon fill="none" stroke="#404040" points="899.6302,-642.4931 892.6865,-640.5477 891.8115,-633.3898 898.7553,-635.3352 899.6302,-642.4931"/>
<text text-anchor="middle" x="1033" y="-740.5" font-family="Helvetica,sans-Serif" font-size="10.00" fill="#000000"> #mFutureDigits</text>
<text text-anchor="middle" x="1033" y="-729.5" font-family="Helvetica,sans-Serif" font-size="10.00" fill="#000000">#mDigitsPerTimeFrame</text>
</g>
<!-- Node14 -->
<g id="node13" class="node">
<title>Node14</title>
<polygon fill="none" stroke="#bfbfbf" points="1109.5,-855 1109.5,-912 1138.5,-912 1138.5,-855 1109.5,-855"/>
<text text-anchor="middle" x="1124" y="-900" font-family="Helvetica,sans-Serif" font-size="10.00" fill="#000000">int</text>
<polyline fill="none" stroke="#bfbfbf" points="1109.5,-893 1138.5,-893 "/>
<text text-anchor="middle" x="1124" y="-881" font-family="Helvetica,sans-Serif" font-size="10.00" fill="#000000"> </text>
<polyline fill="none" stroke="#bfbfbf" points="1109.5,-874 1138.5,-874 "/>
<text text-anchor="middle" x="1124" y="-862" font-family="Helvetica,sans-Serif" font-size="10.00" fill="#000000"> </text>
</g>
<!-- Node14&#45;&gt;Node3 -->
<g id="edge12" class="edge">
<title>Node14&#45;&gt;Node3</title>
<path fill="none" stroke="#404040" d="M1125.8618,-854.7625C1126.6753,-820.0949 1123.3293,-761.4416 1096,-721 1049.8322,-652.6815 969.0509,-605.069 903.0843,-575.3445"/>
<polygon fill="none" stroke="#404040" points="902.7734,-575.2074 895.6694,-576.4459 891.7939,-570.3648 898.8978,-569.1263 902.7734,-575.2074"/>
<text text-anchor="middle" x="1178.5" y="-746" font-family="Helvetica,sans-Serif" font-size="10.00" fill="#000000"> #mMaskNoiseRate</text>
<text text-anchor="middle" x="1178.5" y="-735" font-family="Helvetica,sans-Serif" font-size="10.00" fill="#000000">#mIcurrentReadoutWindow</text>
<text text-anchor="middle" x="1178.5" y="-724" font-family="Helvetica,sans-Serif" font-size="10.00" fill="#000000">#mChannelCounts</text>
</g>
<!-- Node15 -->
<g id="node14" class="node">
<title>Node15</title>
<polygon fill="none" stroke="#bfbfbf" points="1220,-855 1220,-912 1330,-912 1330,-855 1220,-855"/>
<text text-anchor="middle" x="1275" y="-900" font-family="Helvetica,sans-Serif" font-size="10.00" fill="#000000">vector&lt; uint32_t &gt;</text>
<polyline fill="none" stroke="#bfbfbf" points="1220,-893 1330,-893 "/>
<text text-anchor="middle" x="1275" y="-881" font-family="Helvetica,sans-Serif" font-size="10.00" fill="#000000"> </text>
<polyline fill="none" stroke="#bfbfbf" points="1220,-874 1330,-874 "/>
<text text-anchor="middle" x="1275" y="-862" font-family="Helvetica,sans-Serif" font-size="10.00" fill="#000000"> </text>
</g>
<!-- Node15&#45;&gt;Node3 -->
<g id="edge13" class="edge">
<title>Node15&#45;&gt;Node3</title>
<path fill="none" stroke="#404040" d="M1278.5181,-854.9403C1281.2508,-819.6421 1280.4234,-759.5325 1250,-721 1165.5082,-613.9877 1008.8037,-568.6331 903.7063,-549.6892"/>
<polygon fill="none" stroke="#404040" points="903.6143,-549.6733 897.017,-552.5847 891.7921,-547.6146 898.3894,-544.7033 903.6143,-549.6733"/>
<text text-anchor="middle" x="1297.5" y="-735" font-family="Helvetica,sans-Serif" font-size="10.00" fill="#000000"> #mPatterns</text>
</g>
<!-- Node16 -->
<g id="node15" class="node">
<title>Node16</title>
<polygon fill="none" stroke="#bfbfbf" points="1348,-855 1348,-912 1386,-912 1386,-855 1348,-855"/>
<text text-anchor="middle" x="1367" y="-900" font-family="Helvetica,sans-Serif" font-size="10.00" fill="#000000">bool</text>
<polyline fill="none" stroke="#bfbfbf" points="1348,-893 1386,-893 "/>
<text text-anchor="middle" x="1367" y="-881" font-family="Helvetica,sans-Serif" font-size="10.00" fill="#000000"> </text>
<polyline fill="none" stroke="#bfbfbf" points="1348,-874 1386,-874 "/>
<text text-anchor="middle" x="1367" y="-862" font-family="Helvetica,sans-Serif" font-size="10.00" fill="#000000"> </text>
</g>
<!-- Node16&#45;&gt;Node3 -->
<g id="edge14" class="edge">
<title>Node16&#45;&gt;Node3</title>
<path fill="none" stroke="#404040" d="M1368.7996,-854.8016C1369.4369,-819.0802 1365.0277,-758.2473 1332,-721 1274.5205,-656.1769 1042.3307,-593.1058 903.4277,-560.1372"/>
<polygon fill="none" stroke="#404040" points="903.2067,-560.0851 896.449,-562.6018 891.5268,-557.3319 898.2845,-554.8152 903.2067,-560.0851"/>
<text text-anchor="middle" x="1404" y="-740.5" font-family="Helvetica,sans-Serif" font-size="10.00" fill="#000000"> #mFutureToBeSorted</text>
<text text-anchor="middle" x="1404" y="-729.5" font-family="Helvetica,sans-Serif" font-size="10.00" fill="#000000">#mContinuous</text>
</g>
<!-- Node17 -->
<g id="node16" class="node">
<title>Node17</title>
<polygon fill="none" stroke="#bfbfbf" points="1470,-855 1470,-912 1514,-912 1514,-855 1470,-855"/>
<text text-anchor="middle" x="1492" y="-900" font-family="Helvetica,sans-Serif" font-size="10.00" fill="#000000">static</text>
<polyline fill="none" stroke="#bfbfbf" points="1470,-893 1514,-893 "/>
<text text-anchor="middle" x="1492" y="-881" font-family="Helvetica,sans-Serif" font-size="10.00" fill="#000000"> </text>
<polyline fill="none" stroke="#bfbfbf" points="1470,-874 1514,-874 "/>
<text text-anchor="middle" x="1492" y="-862" font-family="Helvetica,sans-Serif" font-size="10.00" fill="#000000"> </text>
</g>
<!-- Node17&#45;&gt;Node3 -->
<g id="edge15" class="edge">
<title>Node17&#45;&gt;Node3</title>
<path fill="none" stroke="#404040" d="M1494.9502,-854.8586C1496.98,-818.9129 1494.6546,-757.553 1461,-721 1385.9032,-639.4357 1071.5315,-579.2709 903.6915,-552.2696"/>
<polygon fill="none" stroke="#404040" points="903.4691,-552.2342 896.9139,-555.2392 891.6189,-550.344 898.1741,-547.3391 903.4691,-552.2342"/>
<text text-anchor="middle" x="1521.5" y="-735" font-family="Helvetica,sans-Serif" font-size="10.00" fill="#000000"> #MAXWINDOWS</text>
</g>
<!-- Node18 -->
<g id="node17" class="node">
<title>Node18</title>
<polygon fill="none" stroke="#bfbfbf" points="1545,-855 1545,-912 1655,-912 1655,-855 1545,-855"/>
<text text-anchor="middle" x="1600" y="-900" font-family="Helvetica,sans-Serif" font-size="10.00" fill="#000000">vector&lt; uint64_t &gt;</text>
<polyline fill="none" stroke="#bfbfbf" points="1545,-893 1655,-893 "/>
<text text-anchor="middle" x="1600" y="-881" font-family="Helvetica,sans-Serif" font-size="10.00" fill="#000000"> </text>
<polyline fill="none" stroke="#bfbfbf" points="1545,-874 1655,-874 "/>
<text text-anchor="middle" x="1600" y="-862" font-family="Helvetica,sans-Serif" font-size="10.00" fill="#000000"> </text>
</g>
<!-- Node18&#45;&gt;Node3 -->
<g id="edge16" class="edge">
<title>Node18&#45;&gt;Node3</title>
<path fill="none" stroke="#404040" d="M1602.9381,-854.9588C1604.9703,-818.8316 1602.5552,-756.9819 1568,-721 1477.0468,-626.2915 1093.3475,-570.2663 903.8301,-547.8744"/>
<polygon fill="none" stroke="#404040" points="903.5517,-547.842 897.1277,-551.118 891.6329,-546.4481 898.057,-543.1721 903.5517,-547.842"/>
<text text-anchor="middle" x="1612" y="-735" font-family="Helvetica,sans-Serif" font-size="10.00" fill="#000000"> #mErrors</text>
</g>
<!-- Node19&#45;&gt;Node3 -->
<g id="edge17" class="edge">
<title>Node19&#45;&gt;Node3</title>
<path fill="none" stroke="#404040" d="M226.7631,-772.241C230.8211,-753.6179 238.0025,-735.6256 250,-721 306.4538,-652.1798 547.9222,-590.0353 690.4719,-558.4364"/>
<polygon fill="none" stroke="#404040" points="690.5336,-558.4229 695.534,-553.2271 702.2533,-555.8444 697.253,-561.0402 690.5336,-558.4229"/>
<text text-anchor="middle" x="287" y="-735" font-family="Helvetica,sans-Serif" font-size="10.00" fill="#000000"> #mEventTime</text>
</g>
</g>
</svg>
