<?xml version="1.0" encoding="UTF-8" standalone="no"?>
<!DOCTYPE svg PUBLIC "-//W3C//DTD SVG 1.1//EN"
 "http://www.w3.org/Graphics/SVG/1.1/DTD/svg11.dtd">
<!-- Generated by graphviz version 2.40.1 (20161225.0304)
 -->
<!-- Title: /home/travis/build/AliceO2Group/AliceO2/Detectors/PHOS/simulation/include/PHOSSimulation/Digitizer.h Pages: 1 -->
<!--zoomable 419 -->
<svg id="main" version="1.1" xmlns="http://www.w3.org/2000/svg" xmlns:xlink="http://www.w3.org/1999/xlink" xml:space="preserve" onload="init(evt)">
<style type="text/css"><![CDATA[
.edge:hover path { stroke: red; }
.edge:hover polygon { stroke: red; fill: red; }
]]></style>
<script type="text/javascript"><![CDATA[
var edges = document.getElementsByTagName('g');
if (edges && edges.length) {
  for (var i=0;i<edges.length;i++) {
    if (edges[i].id.substr(0,4)=='edge') {
      edges[i].setAttribute('class','edge');
    }
  }
}
]]></script>
        <defs>
                <circle id="rim" cx="0" cy="0" r="7"/>
                <circle id="rim2" cx="0" cy="0" r="3.5"/>
                <g id="zoomPlus">
                        <use xlink:href="#rim" fill="#404040">
                                <set attributeName="fill" to="#808080" begin="zoomplus.mouseover" end="zoomplus.mouseout"/>
                        </use>
                        <path d="M-4,0h8M0,-4v8" fill="none" stroke="white" stroke-width="1.5" pointer-events="none"/>
                </g>
                <g id="zoomMin">
                        <use xlink:href="#rim" fill="#404040">
                                <set attributeName="fill" to="#808080" begin="zoomminus.mouseover" end="zoomminus.mouseout"/>
                        </use>
                        <path d="M-4,0h8" fill="none" stroke="white" stroke-width="1.5" pointer-events="none"/>
                </g>
                <g id="dirArrow">
                        <path fill="none" stroke="white" stroke-width="1.5" d="M0,-3.0v7 M-2.5,-0.5L0,-3.0L2.5,-0.5"/>
                </g>
               <g id="resetDef">
                       <use xlink:href="#rim2" fill="#404040">
                               <set attributeName="fill" to="#808080" begin="reset.mouseover" end="reset.mouseout"/>
                       </use>
               </g>
        </defs>

<script type="text/javascript">
var viewWidth = 2674;
var viewHeight = 419;
var sectionId = 'dynsection-0';
</script>
<script xlink:href="../../svgpan.js"/>
<svg id="graph" class="graph">
<g id="viewport">
<title>/home/travis/build/AliceO2Group/AliceO2/Detectors/PHOS/simulation/include/PHOSSimulation/Digitizer.h</title>
<!-- Node0 -->
<g id="node1" class="node">
<title>Node0</title>
<polygon fill="#bfbfbf" stroke="#000000" points="2068.5,-358.5 2068.5,-410.5 2258.5,-410.5 2258.5,-358.5 2068.5,-358.5"/>
<text text-anchor="start" x="2076.5" y="-398.5" font-family="Helvetica,sans-Serif" font-size="10.00" fill="#000000">/home/travis/build</text>
<text text-anchor="start" x="2076.5" y="-387.5" font-family="Helvetica,sans-Serif" font-size="10.00" fill="#000000">/AliceO2Group/AliceO2</text>
<text text-anchor="start" x="2076.5" y="-376.5" font-family="Helvetica,sans-Serif" font-size="10.00" fill="#000000">/Detectors/PHOS/simulation</text>
<text text-anchor="middle" x="2163.5" y="-365.5" font-family="Helvetica,sans-Serif" font-size="10.00" fill="#000000">/include/PHOSSimulation/Digitizer.h</text>
</g>
<!-- Node1 -->
<g id="node2" class="node">
<title>Node1</title>
<g id="a_node2"><a xlink:href="../../d3/d98/DataFormats_2Detectors_2PHOS_2include_2DataFormatsPHOS_2Digit_8h.html" target="_top" xlink:title="DataFormatsPHOS/Digit.h">
<polygon fill="none" stroke="#000000" points="87.5,-241 87.5,-260 229.5,-260 229.5,-241 87.5,-241"/>
<text text-anchor="middle" x="158.5" y="-248" font-family="Helvetica,sans-Serif" font-size="10.00" fill="#000000">DataFormatsPHOS/Digit.h</text>
</a>
</g>
</g>
<!-- Node0&#45;&gt;Node1 -->
<g id="edge1" class="edge">
<title>Node0&#45;&gt;Node1</title>
<path fill="none" stroke="#191970" d="M2068.4794,-378.1495C1726.0379,-355.2631 558.5997,-277.2398 239.6127,-255.921"/>
<polygon fill="#191970" stroke="#191970" points="239.7347,-252.4214 229.5235,-255.2467 239.2678,-259.4059 239.7347,-252.4214"/>
</g>
<!-- Node9 -->
<g id="node10" class="node">
<title>Node9</title>
<g id="a_node10"><a xlink:href="../../d7/d7f/PHOS_2base_2include_2PHOSBase_2Geometry_8h.html" target="_top" xlink:title="PHOSBase/Geometry.h">
<polygon fill="none" stroke="#000000" points="2304,-302.5 2304,-321.5 2431,-321.5 2431,-302.5 2304,-302.5"/>
<text text-anchor="middle" x="2367.5" y="-309.5" font-family="Helvetica,sans-Serif" font-size="10.00" fill="#000000">PHOSBase/Geometry.h</text>
</a>
</g>
</g>
<!-- Node0&#45;&gt;Node9 -->
<g id="edge9" class="edge">
<title>Node0&#45;&gt;Node9</title>
<path fill="none" stroke="#191970" d="M2236.8605,-358.4283C2268.8675,-347.0532 2304.9689,-334.2231 2331.0968,-324.9374"/>
<polygon fill="#191970" stroke="#191970" points="2332.3423,-328.2093 2340.5929,-321.5626 2329.9982,-321.6135 2332.3423,-328.2093"/>
</g>
<!-- Node13 -->
<g id="node14" class="node">
<title>Node13</title>
<g id="a_node14"><a xlink:href="../../d2/d37/PHOS_2calib_2include_2PHOSCalib_2CalibParams_8h.html" target="_top" xlink:title="PHOSCalib/CalibParams.h">
<polygon fill="none" stroke="#000000" points="2493,-302.5 2493,-321.5 2634,-321.5 2634,-302.5 2493,-302.5"/>
<text text-anchor="middle" x="2563.5" y="-309.5" font-family="Helvetica,sans-Serif" font-size="10.00" fill="#000000">PHOSCalib/CalibParams.h</text>
</a>
</g>
</g>
<!-- Node0&#45;&gt;Node13 -->
<g id="edge13" class="edge">
<title>Node0&#45;&gt;Node13</title>
<path fill="none" stroke="#191970" d="M2258.548,-367.2726C2333.4455,-353.6974 2435.7424,-335.1561 2500.7222,-323.3785"/>
<polygon fill="#191970" stroke="#191970" points="2501.6054,-326.7755 2510.8208,-321.5481 2500.3569,-319.8877 2501.6054,-326.7755"/>
</g>
<!-- Node16 -->
<g id="node17" class="node">
<title>Node16</title>
<g id="a_node17"><a xlink:href="../../db/dad/Detectors_2PHOS_2base_2include_2PHOSBase_2Hit_8h.html" target="_top" xlink:title="PHOSBase/Hit.h">
<polygon fill="none" stroke="#000000" points="1910.5,-302.5 1910.5,-321.5 2004.5,-321.5 2004.5,-302.5 1910.5,-302.5"/>
<text text-anchor="middle" x="1957.5" y="-309.5" font-family="Helvetica,sans-Serif" font-size="10.00" fill="#000000">PHOSBase/Hit.h</text>
</a>
</g>
</g>
<!-- Node0&#45;&gt;Node16 -->
<g id="edge16" class="edge">
<title>Node0&#45;&gt;Node16</title>
<path fill="none" stroke="#191970" d="M2089.4203,-358.4283C2057.0994,-347.0532 2020.6442,-334.2231 1994.2601,-324.9374"/>
<polygon fill="#191970" stroke="#191970" points="1995.2657,-321.581 1984.6709,-321.5626 1992.9418,-328.184 1995.2657,-321.581"/>
</g>
<!-- Node37 -->
<g id="node38" class="node">
<title>Node37</title>
<g id="a_node38"><a xlink:href="../../de/d0d/DataFormats_2Detectors_2PHOS_2include_2DataFormatsPHOS_2MCLabel_8h.html" target="_top" xlink:title="DataFormatsPHOS/MCLabel.h">
<polygon fill="none" stroke="#000000" points="2029.5,-302.5 2029.5,-321.5 2189.5,-321.5 2189.5,-302.5 2029.5,-302.5"/>
<text text-anchor="middle" x="2109.5" y="-309.5" font-family="Helvetica,sans-Serif" font-size="10.00" fill="#000000">DataFormatsPHOS/MCLabel.h</text>
</a>
</g>
</g>
<!-- Node0&#45;&gt;Node37 -->
<g id="edge40" class="edge">
<title>Node0&#45;&gt;Node37</title>
<path fill="none" stroke="#191970" d="M2144.0048,-358.3258C2136.9195,-348.8132 2129.0853,-338.2951 2122.6749,-329.6886"/>
<polygon fill="#191970" stroke="#191970" points="2125.3816,-327.4632 2116.6012,-321.534 2119.7677,-331.6446 2125.3816,-327.4632"/>
</g>
<!-- Node39 -->
<g id="node40" class="node">
<title>Node39</title>
<g id="a_node40"><a xlink:href="../../db/d14/MCTruthContainer_8h.html" target="_top" xlink:title="Definition of a container to keep Monte Carlo truth external to simulation objects. ">
<polygon fill="none" stroke="#000000" points="2159,-235.5 2159,-265.5 2286,-265.5 2286,-235.5 2159,-235.5"/>
<text text-anchor="start" x="2167" y="-253.5" font-family="Helvetica,sans-Serif" font-size="10.00" fill="#000000">SimulationDataFormat</text>
<text text-anchor="middle" x="2222.5" y="-242.5" font-family="Helvetica,sans-Serif" font-size="10.00" fill="#000000">/MCTruthContainer.h</text>
</a>
</g>
</g>
<!-- Node0&#45;&gt;Node39 -->
<g id="edge43" class="edge">
<title>Node0&#45;&gt;Node39</title>
<path fill="none" stroke="#191970" d="M2179.6116,-358.2977C2185.9785,-347.3216 2193.0581,-334.2793 2198.5,-322 2205.1797,-306.9279 2211.0942,-289.3863 2215.3806,-275.4502"/>
<polygon fill="#191970" stroke="#191970" points="2218.8154,-276.18 2218.3267,-265.5965 2212.1087,-274.1748 2218.8154,-276.18"/>
</g>
<!-- Node2 -->
<g id="node3" class="node">
<title>Node2</title>
<polygon fill="none" stroke="#bfbfbf" points="0,-179.5 0,-198.5 47,-198.5 47,-179.5 0,-179.5"/>
<text text-anchor="middle" x="23.5" y="-186.5" font-family="Helvetica,sans-Serif" font-size="10.00" fill="#000000">cmath</text>
</g>
<!-- Node1&#45;&gt;Node2 -->
<g id="edge2" class="edge">
<title>Node1&#45;&gt;Node2</title>
<path fill="none" stroke="#191970" d="M137.4063,-240.8906C114.9173,-230.6457 79.1082,-214.3326 53.6476,-202.7339"/>
<polygon fill="#191970" stroke="#191970" points="54.9968,-199.5025 44.4456,-198.5419 52.0948,-205.8727 54.9968,-199.5025"/>
</g>
<!-- Node3 -->
<g id="node4" class="node">
<title>Node3</title>
<g id="a_node4"><a xlink:href="../../df/d5d/common_2include_2CommonDataFormat_2TimeStamp_8h.html" target="_top" xlink:title="CommonDataFormat/TimeStamp.h">
<polygon fill="none" stroke="#000000" points="65,-179.5 65,-198.5 252,-198.5 252,-179.5 65,-179.5"/>
<text text-anchor="middle" x="158.5" y="-186.5" font-family="Helvetica,sans-Serif" font-size="10.00" fill="#000000">CommonDataFormat/TimeStamp.h</text>
</a>
</g>
</g>
<!-- Node1&#45;&gt;Node3 -->
<g id="edge3" class="edge">
<title>Node1&#45;&gt;Node3</title>
<path fill="none" stroke="#191970" d="M158.5,-240.8906C158.5,-232.3657 158.5,-219.6392 158.5,-208.9235"/>
<polygon fill="#191970" stroke="#191970" points="162.0001,-208.7448 158.5,-198.7449 155.0001,-208.7449 162.0001,-208.7448"/>
</g>
<!-- Node4 -->
<g id="node5" class="node">
<title>Node4</title>
<g id="a_node5"><a xlink:href="../../d2/d45/GPUCommonRtypes_8h.html" target="_top" xlink:title="GPUCommonRtypes.h">
<polygon fill="none" stroke="#000000" points="96,-118 96,-137 221,-137 221,-118 96,-118"/>
<text text-anchor="middle" x="158.5" y="-125" font-family="Helvetica,sans-Serif" font-size="10.00" fill="#000000">GPUCommonRtypes.h</text>
</a>
</g>
</g>
<!-- Node3&#45;&gt;Node4 -->
<g id="edge4" class="edge">
<title>Node3&#45;&gt;Node4</title>
<path fill="none" stroke="#191970" d="M158.5,-179.3906C158.5,-170.8657 158.5,-158.1392 158.5,-147.4235"/>
<polygon fill="#191970" stroke="#191970" points="162.0001,-147.2448 158.5,-137.2449 155.0001,-147.2449 162.0001,-147.2448"/>
</g>
<!-- Node6 -->
<g id="node7" class="node">
<title>Node6</title>
<g id="a_node7"><a xlink:href="../../df/d21/GPUCommonDef_8h.html" target="_top" xlink:title="GPUCommonDef.h">
<polygon fill="none" stroke="#000000" points="201,-56.5 201,-75.5 308,-75.5 308,-56.5 201,-56.5"/>
<text text-anchor="middle" x="254.5" y="-63.5" font-family="Helvetica,sans-Serif" font-size="10.00" fill="#000000">GPUCommonDef.h</text>
</a>
</g>
</g>
<!-- Node3&#45;&gt;Node6 -->
<g id="edge6" class="edge">
<title>Node3&#45;&gt;Node6</title>
<path fill="none" stroke="#191970" d="M131.5356,-179.4934C115.3286,-172.2188 96.0492,-160.4326 86.5,-143 79.8809,-130.9164 78.1425,-122.9535 86.5,-112 93.5495,-102.7609 152.708,-88.0314 198.8538,-77.7364"/>
<polygon fill="#191970" stroke="#191970" points="199.7656,-81.1195 208.7758,-75.5458 198.2563,-74.2841 199.7656,-81.1195"/>
</g>
<!-- Node5 -->
<g id="node6" class="node">
<title>Node5</title>
<polygon fill="none" stroke="#bfbfbf" points="124,-56.5 124,-75.5 183,-75.5 183,-56.5 124,-56.5"/>
<text text-anchor="middle" x="153.5" y="-63.5" font-family="Helvetica,sans-Serif" font-size="10.00" fill="#000000">Rtypes.h</text>
</g>
<!-- Node4&#45;&gt;Node5 -->
<g id="edge5" class="edge">
<title>Node4&#45;&gt;Node5</title>
<path fill="none" stroke="#191970" d="M157.7188,-117.8906C157.0257,-109.3657 155.991,-96.6392 155.1198,-85.9235"/>
<polygon fill="#191970" stroke="#191970" points="158.5912,-85.4283 154.2923,-75.7449 151.6142,-85.9956 158.5912,-85.4283"/>
</g>
<!-- Node7 -->
<g id="node8" class="node">
<title>Node7</title>
<g id="a_node8"><a xlink:href="../../d5/d93/GPUCommonDefSettings_8h.html" target="_top" xlink:title="GPUCommonDefSettings.h">
<polygon fill="none" stroke="#000000" points="103.5,-.5 103.5,-19.5 251.5,-19.5 251.5,-.5 103.5,-.5"/>
<text text-anchor="middle" x="177.5" y="-7.5" font-family="Helvetica,sans-Serif" font-size="10.00" fill="#000000">GPUCommonDefSettings.h</text>
</a>
</g>
</g>
<!-- Node6&#45;&gt;Node7 -->
<g id="edge7" class="edge">
<title>Node6&#45;&gt;Node7</title>
<path fill="none" stroke="#191970" d="M241.0876,-56.2455C229.4943,-47.814 212.5252,-35.4729 199.0322,-25.6598"/>
<polygon fill="#191970" stroke="#191970" points="200.9047,-22.6938 190.7587,-19.6427 196.7874,-28.355 200.9047,-22.6938"/>
</g>
<!-- Node8 -->
<g id="node9" class="node">
<title>Node8</title>
<g id="a_node9"><a xlink:href="../../da/d5a/GPUCommonDefAPI_8h.html" target="_top" xlink:title="GPUCommonDefAPI.h">
<polygon fill="none" stroke="#000000" points="269.5,-.5 269.5,-19.5 393.5,-19.5 393.5,-.5 269.5,-.5"/>
<text text-anchor="middle" x="331.5" y="-7.5" font-family="Helvetica,sans-Serif" font-size="10.00" fill="#000000">GPUCommonDefAPI.h</text>
</a>
</g>
</g>
<!-- Node6&#45;&gt;Node8 -->
<g id="edge8" class="edge">
<title>Node6&#45;&gt;Node8</title>
<path fill="none" stroke="#191970" d="M267.9124,-56.2455C279.5057,-47.814 296.4748,-35.4729 309.9678,-25.6598"/>
<polygon fill="#191970" stroke="#191970" points="312.2126,-28.355 318.2413,-19.6427 308.0953,-22.6938 312.2126,-28.355"/>
</g>
<!-- Node10 -->
<g id="node11" class="node">
<title>Node10</title>
<polygon fill="none" stroke="#bfbfbf" points="2304.5,-241 2304.5,-260 2348.5,-260 2348.5,-241 2304.5,-241"/>
<text text-anchor="middle" x="2326.5" y="-248" font-family="Helvetica,sans-Serif" font-size="10.00" fill="#000000">string</text>
</g>
<!-- Node9&#45;&gt;Node10 -->
<g id="edge10" class="edge">
<title>Node9&#45;&gt;Node10</title>
<path fill="none" stroke="#191970" d="M2361.0938,-302.3906C2355.1114,-293.417 2346.0253,-279.7879 2338.6661,-268.7491"/>
<polygon fill="#191970" stroke="#191970" points="2341.4558,-266.6239 2332.9966,-260.2449 2335.6314,-270.5068 2341.4558,-266.6239"/>
</g>
<!-- Node11 -->
<g id="node12" class="node">
<title>Node11</title>
<polygon fill="none" stroke="#bfbfbf" points="2366.5,-241 2366.5,-260 2450.5,-260 2450.5,-241 2366.5,-241"/>
<text text-anchor="middle" x="2408.5" y="-248" font-family="Helvetica,sans-Serif" font-size="10.00" fill="#000000">RStringView.h</text>
</g>
<!-- Node9&#45;&gt;Node11 -->
<g id="edge11" class="edge">
<title>Node9&#45;&gt;Node11</title>
<path fill="none" stroke="#191970" d="M2373.9063,-302.3906C2379.8886,-293.417 2388.9747,-279.7879 2396.3339,-268.7491"/>
<polygon fill="#191970" stroke="#191970" points="2399.3686,-270.5068 2402.0034,-260.2449 2393.5442,-266.6239 2399.3686,-270.5068"/>
</g>
<!-- Node12 -->
<g id="node13" class="node">
<title>Node12</title>
<polygon fill="none" stroke="#bfbfbf" points="2468.5,-241 2468.5,-260 2524.5,-260 2524.5,-241 2468.5,-241"/>
<text text-anchor="middle" x="2496.5" y="-248" font-family="Helvetica,sans-Serif" font-size="10.00" fill="#000000">TMath.h</text>
</g>
<!-- Node9&#45;&gt;Node12 -->
<g id="edge12" class="edge">
<title>Node9&#45;&gt;Node12</title>
<path fill="none" stroke="#191970" d="M2387.6563,-302.3906C2409.051,-292.1908 2443.062,-275.9763 2467.3702,-264.3875"/>
<polygon fill="#191970" stroke="#191970" points="2468.9648,-267.5047 2476.4853,-260.0419 2465.9524,-261.186 2468.9648,-267.5047"/>
</g>
<!-- Node14 -->
<g id="node15" class="node">
<title>Node14</title>
<polygon fill="none" stroke="#bfbfbf" points="2542.5,-241 2542.5,-260 2584.5,-260 2584.5,-241 2542.5,-241"/>
<text text-anchor="middle" x="2563.5" y="-248" font-family="Helvetica,sans-Serif" font-size="10.00" fill="#000000">array</text>
</g>
<!-- Node13&#45;&gt;Node14 -->
<g id="edge14" class="edge">
<title>Node13&#45;&gt;Node14</title>
<path fill="none" stroke="#191970" d="M2563.5,-302.3906C2563.5,-293.8657 2563.5,-281.1392 2563.5,-270.4235"/>
<polygon fill="#191970" stroke="#191970" points="2567.0001,-270.2448 2563.5,-260.2449 2560.0001,-270.2449 2567.0001,-270.2448"/>
</g>
<!-- Node15 -->
<g id="node16" class="node">
<title>Node15</title>
<polygon fill="none" stroke="#bfbfbf" points="2603,-241 2603,-260 2666,-260 2666,-241 2603,-241"/>
<text text-anchor="middle" x="2634.5" y="-248" font-family="Helvetica,sans-Serif" font-size="10.00" fill="#000000">TObject.h</text>
</g>
<!-- Node13&#45;&gt;Node15 -->
<g id="edge15" class="edge">
<title>Node13&#45;&gt;Node15</title>
<path fill="none" stroke="#191970" d="M2574.5938,-302.3906C2585.4715,-292.9683 2602.2748,-278.4134 2615.32,-267.1137"/>
<polygon fill="#191970" stroke="#191970" points="2617.9827,-269.4377 2623.2498,-260.2449 2613.3996,-264.1466 2617.9827,-269.4377"/>
</g>
<!-- Node17 -->
<g id="node18" class="node">
<title>Node17</title>
<g id="a_node18"><a xlink:href="../../d4/d25/BaseHits_8h.html" target="_top" xlink:title="SimulationDataFormat\l/BaseHits.h">
<polygon fill="none" stroke="#000000" points="1165,-235.5 1165,-265.5 1292,-265.5 1292,-235.5 1165,-235.5"/>
<text text-anchor="start" x="1173" y="-253.5" font-family="Helvetica,sans-Serif" font-size="10.00" fill="#000000">SimulationDataFormat</text>
<text text-anchor="middle" x="1228.5" y="-242.5" font-family="Helvetica,sans-Serif" font-size="10.00" fill="#000000">/BaseHits.h</text>
</a>
</g>
</g>
<!-- Node16&#45;&gt;Node17 -->
<g id="edge17" class="edge">
<title>Node16&#45;&gt;Node17</title>
<path fill="none" stroke="#191970" d="M1910.23,-308.0122C1786.3198,-297.5589 1451.3988,-269.3042 1302.0793,-256.7073"/>
<polygon fill="#191970" stroke="#191970" points="1302.3441,-253.2173 1292.0853,-255.8642 1301.7556,-260.1925 1302.3441,-253.2173"/>
</g>
<!-- Node29 -->
<g id="node30" class="node">
<title>Node29</title>
<g id="a_node30"><a xlink:href="../../d0/d91/ShmAllocator_8h.html" target="_top" xlink:title="CommonUtils/ShmAllocator.h">
<polygon fill="none" stroke="#000000" points="1877.5,-241 1877.5,-260 2037.5,-260 2037.5,-241 1877.5,-241"/>
<text text-anchor="middle" x="1957.5" y="-248" font-family="Helvetica,sans-Serif" font-size="10.00" fill="#000000">CommonUtils/ShmAllocator.h</text>
</a>
</g>
</g>
<!-- Node16&#45;&gt;Node29 -->
<g id="edge32" class="edge">
<title>Node16&#45;&gt;Node29</title>
<path fill="none" stroke="#191970" d="M1957.5,-302.3906C1957.5,-293.8657 1957.5,-281.1392 1957.5,-270.4235"/>
<polygon fill="#191970" stroke="#191970" points="1961.0001,-270.2448 1957.5,-260.2449 1954.0001,-270.2449 1961.0001,-270.2448"/>
</g>
<!-- Node18 -->
<g id="node19" class="node">
<title>Node18</title>
<g id="a_node19"><a xlink:href="../../dc/d73/Cartesian_8h.html" target="_top" xlink:title="MathUtils/Cartesian.h">
<polygon fill="none" stroke="#000000" points="1026.5,-179.5 1026.5,-198.5 1148.5,-198.5 1148.5,-179.5 1026.5,-179.5"/>
<text text-anchor="middle" x="1087.5" y="-186.5" font-family="Helvetica,sans-Serif" font-size="10.00" fill="#000000">MathUtils/Cartesian.h</text>
</a>
</g>
</g>
<!-- Node17&#45;&gt;Node18 -->
<g id="edge18" class="edge">
<title>Node17&#45;&gt;Node18</title>
<path fill="none" stroke="#191970" d="M1194.0075,-235.4554C1170.9972,-225.419 1140.9914,-212.3314 1118.6945,-202.6061"/>
<polygon fill="#191970" stroke="#191970" points="1119.9154,-199.3202 1109.35,-198.5303 1117.1167,-205.7364 1119.9154,-199.3202"/>
</g>
<!-- Node18&#45;&gt;Node4 -->
<g id="edge20" class="edge">
<title>Node18&#45;&gt;Node4</title>
<path fill="none" stroke="#191970" d="M1026.261,-186.2077C844.0544,-177.8275 313.2011,-152.8655 235.5,-143 227.3253,-141.9621 218.7194,-140.5505 210.3414,-138.9995"/>
<polygon fill="#191970" stroke="#191970" points="210.7619,-135.5161 200.2793,-137.0542 209.4332,-142.3888 210.7619,-135.5161"/>
</g>
<!-- Node18&#45;&gt;Node6 -->
<g id="edge19" class="edge">
<title>Node18&#45;&gt;Node6</title>
<path fill="none" stroke="#191970" d="M1026.4849,-186.5782C838.9393,-179.0059 282.6923,-155.5364 268.5,-143 252.6367,-128.9876 250.8953,-103.517 251.9632,-85.7214"/>
<polygon fill="#191970" stroke="#191970" points="255.4662,-85.8528 252.92,-75.5685 248.4971,-85.196 255.4662,-85.8528"/>
</g>
<!-- Node19 -->
<g id="node20" class="node">
<title>Node19</title>
<polygon fill="none" stroke="#bfbfbf" points="435.5,-112.5 435.5,-142.5 599.5,-142.5 599.5,-112.5 435.5,-112.5"/>
<text text-anchor="start" x="443.5" y="-130.5" font-family="Helvetica,sans-Serif" font-size="10.00" fill="#000000">Math/GenVector/Displacement</text>
<text text-anchor="middle" x="517.5" y="-119.5" font-family="Helvetica,sans-Serif" font-size="10.00" fill="#000000">Vector3D.h</text>
</g>
<!-- Node18&#45;&gt;Node19 -->
<g id="edge21" class="edge">
<title>Node18&#45;&gt;Node19</title>
<path fill="none" stroke="#191970" d="M1026.4689,-184.5733C937.245,-177.7845 765.7548,-163.5374 610.0323,-143.1467"/>
<polygon fill="#191970" stroke="#191970" points="610.1713,-139.6347 599.799,-141.7947 609.2544,-146.5744 610.1713,-139.6347"/>
</g>
<!-- Node20 -->
<g id="node21" class="node">
<title>Node20</title>
<polygon fill="none" stroke="#bfbfbf" points="618,-118 618,-137 807,-137 807,-118 618,-118"/>
<text text-anchor="middle" x="712.5" y="-125" font-family="Helvetica,sans-Serif" font-size="10.00" fill="#000000">Math/GenVector/PositionVector3D.h</text>
</g>
<!-- Node18&#45;&gt;Node20 -->
<g id="edge22" class="edge">
<title>Node18&#45;&gt;Node20</title>
<path fill="none" stroke="#191970" d="M1029.3177,-179.4581C962.1602,-168.4443 851.8479,-150.3531 780.7117,-138.6867"/>
<polygon fill="#191970" stroke="#191970" points="780.9449,-135.1783 770.5102,-137.0137 779.812,-142.086 780.9449,-135.1783"/>
</g>
<!-- Node21 -->
<g id="node22" class="node">
<title>Node21</title>
<polygon fill="none" stroke="#bfbfbf" points="825.5,-118 825.5,-137 985.5,-137 985.5,-118 825.5,-118"/>
<text text-anchor="middle" x="905.5" y="-125" font-family="Helvetica,sans-Serif" font-size="10.00" fill="#000000">Math/GenVector/Rotation3D.h</text>
</g>
<!-- Node18&#45;&gt;Node21 -->
<g id="edge23" class="edge">
<title>Node18&#45;&gt;Node21</title>
<path fill="none" stroke="#191970" d="M1059.0625,-179.3906C1027.9428,-168.8749 977.9036,-151.966 943.4515,-140.3243"/>
<polygon fill="#191970" stroke="#191970" points="944.332,-136.9274 933.7378,-137.0419 942.0911,-143.5591 944.332,-136.9274"/>
</g>
<!-- Node22 -->
<g id="node23" class="node">
<title>Node22</title>
<polygon fill="none" stroke="#bfbfbf" points="1003.5,-118 1003.5,-137 1171.5,-137 1171.5,-118 1003.5,-118"/>
<text text-anchor="middle" x="1087.5" y="-125" font-family="Helvetica,sans-Serif" font-size="10.00" fill="#000000">Math/GenVector/Transform3D.h</text>
</g>
<!-- Node18&#45;&gt;Node22 -->
<g id="edge24" class="edge">
<title>Node18&#45;&gt;Node22</title>
<path fill="none" stroke="#191970" d="M1087.5,-179.3906C1087.5,-170.8657 1087.5,-158.1392 1087.5,-147.4235"/>
<polygon fill="#191970" stroke="#191970" points="1091.0001,-147.2448 1087.5,-137.2449 1084.0001,-147.2449 1091.0001,-147.2448"/>
</g>
<!-- Node23 -->
<g id="node24" class="node">
<title>Node23</title>
<polygon fill="none" stroke="#bfbfbf" points="1190,-118 1190,-137 1363,-137 1363,-118 1190,-118"/>
<text text-anchor="middle" x="1276.5" y="-125" font-family="Helvetica,sans-Serif" font-size="10.00" fill="#000000">Math/GenVector/Translation3D.h</text>
</g>
<!-- Node18&#45;&gt;Node23 -->
<g id="edge25" class="edge">
<title>Node18&#45;&gt;Node23</title>
<path fill="none" stroke="#191970" d="M1117.0313,-179.3906C1149.4866,-168.8298 1201.7581,-151.8208 1237.5486,-140.1747"/>
<polygon fill="#191970" stroke="#191970" points="1238.7499,-143.4645 1247.1761,-137.0419 1236.5839,-136.808 1238.7499,-143.4645"/>
</g>
<!-- Node24 -->
<g id="node25" class="node">
<title>Node24</title>
<polygon fill="none" stroke="#bfbfbf" points="1381.5,-112.5 1381.5,-142.5 1545.5,-142.5 1545.5,-112.5 1381.5,-112.5"/>
<text text-anchor="start" x="1389.5" y="-130.5" font-family="Helvetica,sans-Serif" font-size="10.00" fill="#000000">Math/GenVector/Displacement</text>
<text text-anchor="middle" x="1463.5" y="-119.5" font-family="Helvetica,sans-Serif" font-size="10.00" fill="#000000">Vector2D.h</text>
</g>
<!-- Node18&#45;&gt;Node24 -->
<g id="edge26" class="edge">
<title>Node18&#45;&gt;Node24</title>
<path fill="none" stroke="#191970" d="M1147.0813,-179.462C1202.3696,-170.5856 1287.2401,-156.8953 1371.2702,-143.0319"/>
<polygon fill="#191970" stroke="#191970" points="1371.9494,-146.4672 1381.2456,-141.3846 1370.8089,-139.5607 1371.9494,-146.4672"/>
</g>
<!-- Node25 -->
<g id="node26" class="node">
<title>Node25</title>
<polygon fill="none" stroke="#bfbfbf" points="1564,-118 1564,-137 1753,-137 1753,-118 1564,-118"/>
<text text-anchor="middle" x="1658.5" y="-125" font-family="Helvetica,sans-Serif" font-size="10.00" fill="#000000">Math/GenVector/PositionVector2D.h</text>
</g>
<!-- Node18&#45;&gt;Node25 -->
<g id="edge27" class="edge">
<title>Node18&#45;&gt;Node25</title>
<path fill="none" stroke="#191970" d="M1148.8035,-183.9409C1238.1651,-176.3443 1409.3696,-160.9515 1554.5,-143 1565.3192,-141.6618 1576.7501,-140.1044 1587.9186,-138.503"/>
<polygon fill="#191970" stroke="#191970" points="1588.6848,-141.9284 1598.0766,-137.0249 1587.6768,-135.0014 1588.6848,-141.9284"/>
</g>
<!-- Node26 -->
<g id="node27" class="node">
<title>Node26</title>
<polygon fill="none" stroke="#bfbfbf" points="1771.5,-118 1771.5,-137 1853.5,-137 1853.5,-118 1771.5,-118"/>
<text text-anchor="middle" x="1812.5" y="-125" font-family="Helvetica,sans-Serif" font-size="10.00" fill="#000000">TGeoMatrix.h</text>
</g>
<!-- Node18&#45;&gt;Node26 -->
<g id="edge28" class="edge">
<title>Node18&#45;&gt;Node26</title>
<path fill="none" stroke="#191970" d="M1148.7324,-186.6008C1291.8289,-180.7063 1644.8447,-164.4202 1761.5,-143 1766.0253,-142.1691 1770.7166,-141.0762 1775.3386,-139.8546"/>
<polygon fill="#191970" stroke="#191970" points="1776.5987,-143.1348 1785.2551,-137.0261 1774.6786,-136.4033 1776.5987,-143.1348"/>
</g>
<!-- Node27 -->
<g id="node28" class="node">
<title>Node27</title>
<polygon fill="none" stroke="#bfbfbf" points="1872,-118 1872,-137 1921,-137 1921,-118 1872,-118"/>
<text text-anchor="middle" x="1896.5" y="-125" font-family="Helvetica,sans-Serif" font-size="10.00" fill="#000000">iosfwd</text>
</g>
<!-- Node18&#45;&gt;Node27 -->
<g id="edge29" class="edge">
<title>Node18&#45;&gt;Node27</title>
<path fill="none" stroke="#191970" d="M1148.6473,-188.2605C1307.0211,-185.8842 1727.6033,-176.5138 1862.5,-143 1864.6996,-142.4535 1866.9321,-141.7675 1869.1475,-140.9902"/>
<polygon fill="#191970" stroke="#191970" points="1870.6511,-144.1572 1878.596,-137.148 1868.0142,-137.6728 1870.6511,-144.1572"/>
</g>
<!-- Node28 -->
<g id="node29" class="node">
<title>Node28</title>
<g id="a_node29"><a xlink:href="../../d1/da8/GPUROOTCartesianFwd_8h.html" target="_top" xlink:title="GPUROOTCartesianFwd.h">
<polygon fill="none" stroke="#000000" points="277.5,-118 277.5,-137 417.5,-137 417.5,-118 277.5,-118"/>
<text text-anchor="middle" x="347.5" y="-125" font-family="Helvetica,sans-Serif" font-size="10.00" fill="#000000">GPUROOTCartesianFwd.h</text>
</a>
</g>
</g>
<!-- Node18&#45;&gt;Node28 -->
<g id="edge30" class="edge">
<title>Node18&#45;&gt;Node28</title>
<path fill="none" stroke="#191970" d="M1026.2655,-185.7155C885.3631,-177.9993 541.4662,-158.2187 426.5,-143 418.1345,-141.8926 409.3208,-140.4454 400.7357,-138.8803"/>
<polygon fill="#191970" stroke="#191970" points="401.2791,-135.4212 390.8029,-137.0022 399.9785,-142.2993 401.2791,-135.4212"/>
</g>
<!-- Node28&#45;&gt;Node6 -->
<g id="edge31" class="edge">
<title>Node28&#45;&gt;Node6</title>
<path fill="none" stroke="#191970" d="M332.9688,-117.8906C318.0906,-108.0519 294.7496,-92.6167 277.3872,-81.1351"/>
<polygon fill="#191970" stroke="#191970" points="279.201,-78.1385 268.9292,-75.5419 275.3398,-83.9773 279.201,-78.1385"/>
</g>
<!-- Node30 -->
<g id="node31" class="node">
<title>Node30</title>
<g id="a_node31"><a xlink:href="../../de/d61/ShmManager_8h.html" target="_top" xlink:title="CommonUtils/ShmManager.h">
<polygon fill="none" stroke="#000000" points="1876.5,-179.5 1876.5,-198.5 2034.5,-198.5 2034.5,-179.5 1876.5,-179.5"/>
<text text-anchor="middle" x="1955.5" y="-186.5" font-family="Helvetica,sans-Serif" font-size="10.00" fill="#000000">CommonUtils/ShmManager.h</text>
</a>
</g>
</g>
<!-- Node29&#45;&gt;Node30 -->
<g id="edge33" class="edge">
<title>Node29&#45;&gt;Node30</title>
<path fill="none" stroke="#191970" d="M1957.1875,-240.8906C1956.9103,-232.3657 1956.4964,-219.6392 1956.1479,-208.9235"/>
<polygon fill="#191970" stroke="#191970" points="1959.6402,-208.6258 1955.8169,-198.7449 1952.6439,-208.8534 1959.6402,-208.6258"/>
</g>
<!-- Node36 -->
<g id="node37" class="node">
<title>Node36</title>
<polygon fill="none" stroke="#bfbfbf" points="2052.5,-179.5 2052.5,-198.5 2104.5,-198.5 2104.5,-179.5 2052.5,-179.5"/>
<text text-anchor="middle" x="2078.5" y="-186.5" font-family="Helvetica,sans-Serif" font-size="10.00" fill="#000000">cassert</text>
</g>
<!-- Node29&#45;&gt;Node36 -->
<g id="edge39" class="edge">
<title>Node29&#45;&gt;Node36</title>
<path fill="none" stroke="#191970" d="M1976.4063,-240.8906C1996.2966,-230.7811 2027.8123,-214.7628 2050.5692,-203.1962"/>
<polygon fill="#191970" stroke="#191970" points="2052.3978,-206.193 2059.7265,-198.5419 2049.226,-199.9528 2052.3978,-206.193"/>
</g>
<!-- Node31 -->
<g id="node32" class="node">
<title>Node31</title>
<polygon fill="none" stroke="#bfbfbf" points="1939.5,-118 1939.5,-137 1971.5,-137 1971.5,-118 1939.5,-118"/>
<text text-anchor="middle" x="1955.5" y="-125" font-family="Helvetica,sans-Serif" font-size="10.00" fill="#000000">list</text>
</g>
<!-- Node30&#45;&gt;Node31 -->
<g id="edge34" class="edge">
<title>Node30&#45;&gt;Node31</title>
<path fill="none" stroke="#191970" d="M1955.5,-179.3906C1955.5,-170.8657 1955.5,-158.1392 1955.5,-147.4235"/>
<polygon fill="#191970" stroke="#191970" points="1959.0001,-147.2448 1955.5,-137.2449 1952.0001,-147.2449 1959.0001,-147.2448"/>
</g>
<!-- Node32 -->
<g id="node33" class="node">
<title>Node32</title>
<polygon fill="none" stroke="#bfbfbf" points="1990,-118 1990,-137 2043,-137 2043,-118 1990,-118"/>
<text text-anchor="middle" x="2016.5" y="-125" font-family="Helvetica,sans-Serif" font-size="10.00" fill="#000000">cstddef</text>
</g>
<!-- Node30&#45;&gt;Node32 -->
<g id="edge35" class="edge">
<title>Node30&#45;&gt;Node32</title>
<path fill="none" stroke="#191970" d="M1965.0313,-179.3906C1974.2879,-170.0581 1988.539,-155.6902 1999.7003,-144.4374"/>
<polygon fill="#191970" stroke="#191970" points="2002.2772,-146.8095 2006.8344,-137.2449 1997.3072,-141.88 2002.2772,-146.8095"/>
</g>
<!-- Node33 -->
<g id="node34" class="node">
<title>Node33</title>
<polygon fill="none" stroke="#bfbfbf" points="2061.5,-118 2061.5,-137 2111.5,-137 2111.5,-118 2061.5,-118"/>
<text text-anchor="middle" x="2086.5" y="-125" font-family="Helvetica,sans-Serif" font-size="10.00" fill="#000000">atomic</text>
</g>
<!-- Node30&#45;&gt;Node33 -->
<g id="edge36" class="edge">
<title>Node30&#45;&gt;Node33</title>
<path fill="none" stroke="#191970" d="M1975.9688,-179.3906C1997.6952,-169.1908 2032.2335,-152.9763 2056.9185,-141.3875"/>
<polygon fill="#191970" stroke="#191970" points="2058.6103,-144.4598 2066.175,-137.0419 2055.6355,-138.1234 2058.6103,-144.4598"/>
</g>
<!-- Node34 -->
<g id="node35" class="node">
<title>Node34</title>
<polygon fill="none" stroke="#bfbfbf" points="2130,-112.5 2130,-142.5 2295,-142.5 2295,-112.5 2130,-112.5"/>
<text text-anchor="start" x="2138" y="-130.5" font-family="Helvetica,sans-Serif" font-size="10.00" fill="#000000">boost/interprocess</text>
<text text-anchor="middle" x="2212.5" y="-119.5" font-family="Helvetica,sans-Serif" font-size="10.00" fill="#000000">/managed_external_buffer.hpp</text>
</g>
<!-- Node30&#45;&gt;Node34 -->
<g id="edge37" class="edge">
<title>Node30&#45;&gt;Node34</title>
<path fill="none" stroke="#191970" d="M1995.3743,-179.4581C2033.8093,-170.2606 2092.8691,-156.1276 2139.6948,-144.9223"/>
<polygon fill="#191970" stroke="#191970" points="2140.5785,-148.3097 2149.4894,-142.5784 2138.9494,-141.5019 2140.5785,-148.3097"/>
</g>
<!-- Node35 -->
<g id="node36" class="node">
<title>Node35</title>
<polygon fill="none" stroke="#bfbfbf" points="2313.5,-112.5 2313.5,-142.5 2447.5,-142.5 2447.5,-112.5 2313.5,-112.5"/>
<text text-anchor="start" x="2321.5" y="-130.5" font-family="Helvetica,sans-Serif" font-size="10.00" fill="#000000">boost/interprocess</text>
<text text-anchor="middle" x="2380.5" y="-119.5" font-family="Helvetica,sans-Serif" font-size="10.00" fill="#000000">/allocators/allocator.hpp</text>
</g>
<!-- Node30&#45;&gt;Node35 -->
<g id="edge38" class="edge">
<title>Node30&#45;&gt;Node35</title>
<path fill="none" stroke="#191970" d="M2032.3075,-179.4598C2118.5137,-168.6436 2252.929,-151.4225 2303.5,-143 2303.6009,-142.9832 2303.7018,-142.9664 2303.8029,-142.9495"/>
<polygon fill="#191970" stroke="#191970" points="2304.1027,-146.4498 2313.3573,-141.2921 2302.9062,-139.5528 2304.1027,-146.4498"/>
</g>
<!-- Node38 -->
<g id="node39" class="node">
<title>Node38</title>
<g id="a_node39"><a xlink:href="../../d7/dcd/MCCompLabel_8h.html" target="_top" xlink:title="SimulationDataFormat\l/MCCompLabel.h">
<polygon fill="none" stroke="#000000" points="1452,-235.5 1452,-265.5 1579,-265.5 1579,-235.5 1452,-235.5"/>
<text text-anchor="start" x="1460" y="-253.5" font-family="Helvetica,sans-Serif" font-size="10.00" fill="#000000">SimulationDataFormat</text>
<text text-anchor="middle" x="1515.5" y="-242.5" font-family="Helvetica,sans-Serif" font-size="10.00" fill="#000000">/MCCompLabel.h</text>
</a>
</g>
</g>
<!-- Node37&#45;&gt;Node38 -->
<g id="edge41" class="edge">
<title>Node37&#45;&gt;Node38</title>
<path fill="none" stroke="#191970" d="M2029.3561,-303.6472C2023.9901,-303.0893 2018.6669,-302.5363 2013.5,-302 1862.7825,-286.357 1686.3973,-268.1369 1589.1952,-258.1038"/>
<polygon fill="#191970" stroke="#191970" points="1589.4841,-254.6151 1579.1776,-257.0698 1588.7654,-261.5781 1589.4841,-254.6151"/>
</g>
<!-- Node38&#45;&gt;Node4 -->
<g id="edge42" class="edge">
<title>Node38&#45;&gt;Node4</title>
<path fill="none" stroke="#191970" d="M1451.7184,-245.9076C1290.8548,-234.3118 876.9606,-204.3889 814.5,-199 563.0924,-177.3094 499.5878,-176.6505 249.5,-143 240.1873,-141.7469 230.367,-140.2548 220.7599,-138.6988"/>
<polygon fill="#191970" stroke="#191970" points="221.2928,-135.2395 210.8559,-137.0615 220.1511,-142.1457 221.2928,-135.2395"/>
</g>
<!-- Node39&#45;&gt;Node4 -->
<g id="edge44" class="edge">
<title>Node39&#45;&gt;Node4</title>
<path fill="none" stroke="#191970" d="M2158.6069,-244.0541C2125.2321,-240.8947 2083.6984,-237.2871 2046.5,-235 1589.7494,-206.9173 1474.4491,-223.644 1017.5,-199 932.0643,-194.3923 334.4369,-153.3062 249.5,-143 239.7157,-141.8128 229.3806,-140.3014 219.324,-138.6902"/>
<polygon fill="#191970" stroke="#191970" points="219.8269,-135.226 209.391,-137.054 218.6891,-142.1329 219.8269,-135.226"/>
</g>
<!-- Node39&#45;&gt;Node36 -->
<g id="edge46" class="edge">
<title>Node39&#45;&gt;Node36</title>
<path fill="none" stroke="#191970" d="M2187.2736,-235.4554C2163.6684,-225.374 2132.8546,-212.2139 2110.0524,-202.4755"/>
<polygon fill="#191970" stroke="#191970" points="2111.386,-199.2393 2100.8149,-198.5303 2108.6366,-205.6767 2111.386,-199.2393"/>
</g>
<!-- Node40 -->
<g id="node41" class="node">
<title>Node40</title>
<polygon fill="none" stroke="#bfbfbf" points="2122.5,-179.5 2122.5,-198.5 2172.5,-198.5 2172.5,-179.5 2122.5,-179.5"/>
<text text-anchor="middle" x="2147.5" y="-186.5" font-family="Helvetica,sans-Serif" font-size="10.00" fill="#000000">cstdint</text>
</g>
<!-- Node39&#45;&gt;Node40 -->
<g id="edge45" class="edge">
<title>Node39&#45;&gt;Node40</title>
<path fill="none" stroke="#191970" d="M2203.9607,-235.2977C2192.8992,-226.2274 2178.8509,-214.7077 2167.5347,-205.4285"/>
<polygon fill="#191970" stroke="#191970" points="2169.4604,-202.4813 2159.5084,-198.8469 2165.0219,-207.8942 2169.4604,-202.4813"/>
</g>
<!-- Node41 -->
<g id="node42" class="node">
<title>Node41</title>
<polygon fill="none" stroke="#bfbfbf" points="2191,-179.5 2191,-198.5 2256,-198.5 2256,-179.5 2191,-179.5"/>
<text text-anchor="middle" x="2223.5" y="-186.5" font-family="Helvetica,sans-Serif" font-size="10.00" fill="#000000">stdexcept</text>
</g>
<!-- Node39&#45;&gt;Node41 -->
<g id="edge47" class="edge">
<title>Node39&#45;&gt;Node41</title>
<path fill="none" stroke="#191970" d="M2222.7472,-235.2977C2222.8759,-227.3834 2223.0349,-217.6043 2223.1736,-209.0759"/>
<polygon fill="#191970" stroke="#191970" points="2226.6767,-208.9025 2223.3399,-198.8469 2219.6777,-208.7887 2226.6767,-208.9025"/>
</g>
<!-- Node42 -->
<g id="node43" class="node">
<title>Node42</title>
<polygon fill="none" stroke="#bfbfbf" points="2274.5,-179.5 2274.5,-198.5 2322.5,-198.5 2322.5,-179.5 2274.5,-179.5"/>
<text text-anchor="middle" x="2298.5" y="-186.5" font-family="Helvetica,sans-Serif" font-size="10.00" fill="#000000">gsl/gsl</text>
</g>
<!-- Node39&#45;&gt;Node42 -->
<g id="edge48" class="edge">
<title>Node39&#45;&gt;Node42</title>
<path fill="none" stroke="#191970" d="M2241.2865,-235.2977C2252.6053,-226.1384 2267.0105,-214.4816 2278.5346,-205.1562"/>
<polygon fill="#191970" stroke="#191970" points="2280.7595,-207.8583 2286.3314,-198.8469 2276.3561,-202.4167 2280.7595,-207.8583"/>
</g>
<!-- Node43 -->
<g id="node44" class="node">
<title>Node43</title>
<polygon fill="none" stroke="#bfbfbf" points="2341,-179.5 2341,-198.5 2410,-198.5 2410,-179.5 2341,-179.5"/>
<text text-anchor="middle" x="2375.5" y="-186.5" font-family="Helvetica,sans-Serif" font-size="10.00" fill="#000000">type_traits</text>
</g>
<!-- Node39&#45;&gt;Node43 -->
<g id="edge49" class="edge">
<title>Node39&#45;&gt;Node43</title>
<path fill="none" stroke="#191970" d="M2259.928,-235.4554C2285.1206,-225.329 2318.0407,-212.0964 2342.2996,-202.3453"/>
<polygon fill="#191970" stroke="#191970" points="2343.8173,-205.5074 2351.7904,-198.5303 2341.2066,-199.0125 2343.8173,-205.5074"/>
</g>
<!-- Node44 -->
<g id="node45" class="node">
<title>Node44</title>
<polygon fill="none" stroke="#bfbfbf" points="2428.5,-179.5 2428.5,-198.5 2478.5,-198.5 2478.5,-179.5 2428.5,-179.5"/>
<text text-anchor="middle" x="2453.5" y="-186.5" font-family="Helvetica,sans-Serif" font-size="10.00" fill="#000000">cstring</text>
</g>
<!-- Node39&#45;&gt;Node44 -->
<g id="edge50" class="edge">
<title>Node39&#45;&gt;Node44</title>
<path fill="none" stroke="#191970" d="M2281.3373,-235.39C2320.3078,-225.2959 2372.5243,-211.6066 2418.5,-199 2418.599,-198.9728 2418.6982,-198.9456 2418.7976,-198.9184"/>
<polygon fill="#191970" stroke="#191970" points="2419.59,-202.331 2428.283,-196.2744 2417.7104,-195.588 2419.59,-202.331"/>
</g>
<!-- Node45 -->
<g id="node46" class="node">
<title>Node45</title>
<polygon fill="none" stroke="#bfbfbf" points="2496.5,-179.5 2496.5,-198.5 2554.5,-198.5 2554.5,-179.5 2496.5,-179.5"/>
<text text-anchor="middle" x="2525.5" y="-186.5" font-family="Helvetica,sans-Serif" font-size="10.00" fill="#000000">memory</text>
</g>
<!-- Node39&#45;&gt;Node45 -->
<g id="edge51" class="edge">
<title>Node39&#45;&gt;Node45</title>
<path fill="none" stroke="#191970" d="M2286.1828,-236.8848C2289.3318,-236.2409 2292.4508,-235.6095 2295.5,-235 2377.5601,-218.5974 2401.1139,-218.0767 2486.252,-199.168"/>
<polygon fill="#191970" stroke="#191970" points="2487.1005,-202.5648 2496.0928,-196.9622 2485.5694,-195.7343 2487.1005,-202.5648"/>
</g>
<!-- Node46 -->
<g id="node47" class="node">
<title>Node46</title>
<polygon fill="none" stroke="#bfbfbf" points="2573,-179.5 2573,-198.5 2620,-198.5 2620,-179.5 2573,-179.5"/>
<text text-anchor="middle" x="2596.5" y="-186.5" font-family="Helvetica,sans-Serif" font-size="10.00" fill="#000000">vector</text>
</g>
<!-- Node39&#45;&gt;Node46 -->
<g id="edge52" class="edge">
<title>Node39&#45;&gt;Node46</title>
<path fill="none" stroke="#191970" d="M2286.1464,-236.6897C2289.305,-236.0974 2292.4361,-235.5303 2295.5,-235 2410.798,-215.045 2444.3028,-224.0026 2562.9931,-198.7954"/>
<polygon fill="#191970" stroke="#191970" points="2563.7913,-202.2038 2572.8267,-196.6711 2562.3131,-195.3617 2563.7913,-202.2038"/>
</g>
</g>
</svg>
        <g id="navigator" transform="translate(0 0)" fill="#404254">
                <rect fill="#f2f5e9" fill-opacity="0.5" stroke="#606060" stroke-width=".5" x="0" y="0" width="60" height="60"/>
                <use id="zoomplus" xlink:href="#zoomPlus" x="17" y="9" onmousedown="handleZoom(evt,'in')"/>
                <use id="zoomminus" xlink:href="#zoomMin" x="42" y="9" onmousedown="handleZoom(evt,'out')"/>
                <use id="reset" xlink:href="#resetDef" x="30" y="36" onmousedown="handleReset()"/>
                <g id="arrowUp" xlink:href="#dirArrow" transform="translate(30 24)" onmousedown="handlePan(0,-1)">
                  <use xlink:href="#rim" fill="#404040">
                        <set attributeName="fill" to="#808080" begin="arrowUp.mouseover" end="arrowUp.mouseout"/>
                  </use>
                  <path fill="none" stroke="white" stroke-width="1.5" d="M0,-3.0v7 M-2.5,-0.5L0,-3.0L2.5,-0.5"/>
                </g>
                <g id="arrowRight" xlink:href="#dirArrow" transform="rotate(90) translate(36 -43)" onmousedown="handlePan(1,0)">
                  <use xlink:href="#rim" fill="#404040">
                        <set attributeName="fill" to="#808080" begin="arrowRight.mouseover" end="arrowRight.mouseout"/>
                  </use>
                  <path fill="none" stroke="white" stroke-width="1.5" d="M0,-3.0v7 M-2.5,-0.5L0,-3.0L2.5,-0.5"/>
                </g>
                <g id="arrowDown" xlink:href="#dirArrow" transform="rotate(180) translate(-30 -48)" onmousedown="handlePan(0,1)">
                  <use xlink:href="#rim" fill="#404040">
                        <set attributeName="fill" to="#808080" begin="arrowDown.mouseover" end="arrowDown.mouseout"/>
                  </use>
                  <path fill="none" stroke="white" stroke-width="1.5" d="M0,-3.0v7 M-2.5,-0.5L0,-3.0L2.5,-0.5"/>
                </g>
                <g id="arrowLeft" xlink:href="#dirArrow" transform="rotate(270) translate(-36 17)" onmousedown="handlePan(-1,0)">
                  <use xlink:href="#rim" fill="#404040">
                        <set attributeName="fill" to="#808080" begin="arrowLeft.mouseover" end="arrowLeft.mouseout"/>
                  </use>
                  <path fill="none" stroke="white" stroke-width="1.5" d="M0,-3.0v7 M-2.5,-0.5L0,-3.0L2.5,-0.5"/>
                </g>
        </g>
        <svg viewBox="0 0 15 15" width="100%" height="30px" preserveAspectRatio="xMaxYMin meet">
         <g id="arrow_out" transform="scale(0.3 0.3)">
          <a xlink:href="PHOS_2simulation_2include_2PHOSSimulation_2Digitizer_8h__incl_org.svg" target="_base">
           <rect id="button" ry="5" rx="5" y="6" x="6" height="38" width="38"
                fill="#f2f5e9" fill-opacity="0.5" stroke="#606060" stroke-width="1.0"/>
           <path id="arrow"
             d="M 11.500037,31.436501 C 11.940474,20.09759 22.043105,11.32322 32.158766,21.979434 L 37.068811,17.246167 C 37.068811,17.246167 37.088388,32 37.088388,32 L 22.160133,31.978069 C 22.160133,31.978069 26.997745,27.140456 26.997745,27.140456 C 18.528582,18.264221 13.291696,25.230495 11.500037,31.436501 z"
             style="fill:#404040;"/>
          </a>
         </g>
        </svg>
</svg>
