<?xml version="1.0" encoding="UTF-8" standalone="no"?>
<!DOCTYPE svg PUBLIC "-//W3C//DTD SVG 1.1//EN"
 "http://www.w3.org/Graphics/SVG/1.1/DTD/svg11.dtd">
<!-- Generated by graphviz version 2.40.1 (20161225.0304)
 -->
<!-- Title: pidTOFTaskQA Pages: 1 -->
<svg width="633pt" height="833pt"
 viewBox="0.00 0.00 633.00 833.00" xmlns="http://www.w3.org/2000/svg" xmlns:xlink="http://www.w3.org/1999/xlink">
<g id="graph0" class="graph" transform="scale(1 1) rotate(0) translate(4 829)">
<title>pidTOFTaskQA</title>
<!-- Node1 -->
<g id="node1" class="node">
<title>Node1</title>
<polygon fill="#bfbfbf" stroke="#000000" points="197.5,-.5 197.5,-68.5 283.5,-68.5 283.5,-.5 197.5,-.5"/>
<text text-anchor="middle" x="240.5" y="-56.5" font-family="Helvetica,sans-Serif" font-size="10.00" fill="#000000">pidTOFTaskQA</text>
<polyline fill="none" stroke="#000000" points="197.5,-49.5 283.5,-49.5 "/>
<text text-anchor="middle" x="240.5" y="-37.5" font-family="Helvetica,sans-Serif" font-size="10.00" fill="#000000"> </text>
<polyline fill="none" stroke="#000000" points="197.5,-30.5 283.5,-30.5 "/>
<text text-anchor="start" x="205.5" y="-18.5" font-family="Helvetica,sans-Serif" font-size="10.00" fill="#000000">+ init()</text>
<text text-anchor="start" x="205.5" y="-7.5" font-family="Helvetica,sans-Serif" font-size="10.00" fill="#000000">+ process()</text>
</g>
<!-- Node2 -->
<g id="node2" class="node">
<title>Node2</title>
<g id="a_node2"><a xlink:href="../../d8/d34/classo2_1_1framework_1_1HistogramRegistry.html" target="_top" xlink:title="{o2::framework::Histogram\lRegistry\n||+ HistogramRegistry()\l+ add()\l+ add()\l+ add()\l+ addClone()\l+ get()\l+ operator()()\l+ spec()\l+ ref()\l+ setHash()\l+ operator*()\l+ fill()\l+ fill()\l+ getSize()\l+ getSize()\l+ print()\l}">
<polygon fill="none" stroke="#000000" points="0,-127.5 0,-360.5 145,-360.5 145,-127.5 0,-127.5"/>
<text text-anchor="start" x="8" y="-348.5" font-family="Helvetica,sans-Serif" font-size="10.00" fill="#000000">o2::framework::Histogram</text>
<text text-anchor="middle" x="72.5" y="-337.5" font-family="Helvetica,sans-Serif" font-size="10.00" fill="#000000">Registry</text>
<polyline fill="none" stroke="#000000" points="0,-330.5 145,-330.5 "/>
<text text-anchor="middle" x="72.5" y="-318.5" font-family="Helvetica,sans-Serif" font-size="10.00" fill="#000000"> </text>
<polyline fill="none" stroke="#000000" points="0,-311.5 145,-311.5 "/>
<text text-anchor="start" x="8" y="-299.5" font-family="Helvetica,sans-Serif" font-size="10.00" fill="#000000">+ HistogramRegistry()</text>
<text text-anchor="start" x="8" y="-288.5" font-family="Helvetica,sans-Serif" font-size="10.00" fill="#000000">+ add()</text>
<text text-anchor="start" x="8" y="-277.5" font-family="Helvetica,sans-Serif" font-size="10.00" fill="#000000">+ add()</text>
<text text-anchor="start" x="8" y="-266.5" font-family="Helvetica,sans-Serif" font-size="10.00" fill="#000000">+ add()</text>
<text text-anchor="start" x="8" y="-255.5" font-family="Helvetica,sans-Serif" font-size="10.00" fill="#000000">+ addClone()</text>
<text text-anchor="start" x="8" y="-244.5" font-family="Helvetica,sans-Serif" font-size="10.00" fill="#000000">+ get()</text>
<text text-anchor="start" x="8" y="-233.5" font-family="Helvetica,sans-Serif" font-size="10.00" fill="#000000">+ operator()()</text>
<text text-anchor="start" x="8" y="-222.5" font-family="Helvetica,sans-Serif" font-size="10.00" fill="#000000">+ spec()</text>
<text text-anchor="start" x="8" y="-211.5" font-family="Helvetica,sans-Serif" font-size="10.00" fill="#000000">+ ref()</text>
<text text-anchor="start" x="8" y="-200.5" font-family="Helvetica,sans-Serif" font-size="10.00" fill="#000000">+ setHash()</text>
<text text-anchor="start" x="8" y="-189.5" font-family="Helvetica,sans-Serif" font-size="10.00" fill="#000000">+ operator*()</text>
<text text-anchor="start" x="8" y="-178.5" font-family="Helvetica,sans-Serif" font-size="10.00" fill="#000000">+ fill()</text>
<text text-anchor="start" x="8" y="-167.5" font-family="Helvetica,sans-Serif" font-size="10.00" fill="#000000">+ fill()</text>
<text text-anchor="start" x="8" y="-156.5" font-family="Helvetica,sans-Serif" font-size="10.00" fill="#000000">+ getSize()</text>
<text text-anchor="start" x="8" y="-145.5" font-family="Helvetica,sans-Serif" font-size="10.00" fill="#000000">+ getSize()</text>
<text text-anchor="start" x="8" y="-134.5" font-family="Helvetica,sans-Serif" font-size="10.00" fill="#000000">+ print()</text>
</a>
</g>
</g>
<!-- Node2&#45;&gt;Node1 -->
<g id="edge1" class="edge">
<title>Node2&#45;&gt;Node1</title>
<path fill="none" stroke="#404040" d="M145.1031,-137.6188C147.8993,-134.007 150.7032,-130.4574 153.5,-127 167.1766,-110.0928 183.2303,-92.4815 197.7987,-77.2189"/>
<polygon fill="none" stroke="#404040" points="197.8482,-77.1675 199.1317,-70.0715 206.1755,-68.527 204.892,-75.623 197.8482,-77.1675"/>
<text text-anchor="middle" x="209" y="-95.5" font-family="Helvetica,sans-Serif" font-size="10.00" fill="#000000"> +histos</text>
</g>
<!-- Node3 -->
<g id="node3" class="node">
<title>Node3</title>
<polygon fill="none" stroke="#bfbfbf" points="44.5,-414 44.5,-471 100.5,-471 100.5,-414 44.5,-414"/>
<text text-anchor="middle" x="72.5" y="-459" font-family="Helvetica,sans-Serif" font-size="10.00" fill="#000000">uint32_t</text>
<polyline fill="none" stroke="#bfbfbf" points="44.5,-452 100.5,-452 "/>
<text text-anchor="middle" x="72.5" y="-440" font-family="Helvetica,sans-Serif" font-size="10.00" fill="#000000"> </text>
<polyline fill="none" stroke="#bfbfbf" points="44.5,-433 100.5,-433 "/>
<text text-anchor="middle" x="72.5" y="-421" font-family="Helvetica,sans-Serif" font-size="10.00" fill="#000000"> </text>
</g>
<!-- Node3&#45;&gt;Node2 -->
<g id="edge2" class="edge">
<title>Node3&#45;&gt;Node2</title>
<path fill="none" stroke="#404040" d="M72.5,-413.6364C72.5,-402.1823 72.5,-388.1514 72.5,-373.1118"/>
<polygon fill="none" stroke="#404040" points="72.5001,-372.8639 68.5,-366.864 72.5,-360.8639 76.5,-366.8639 72.5001,-372.8639"/>
<text text-anchor="middle" x="95" y="-382" font-family="Helvetica,sans-Serif" font-size="10.00" fill="#000000"> +lookup</text>
</g>
<!-- Node4 -->
<g id="node4" class="node">
<title>Node4</title>
<g id="a_node4"><a xlink:href="../../d8/d71/structo2_1_1framework_1_1Configurable.html" target="_top" xlink:title="{o2::framework::Configurable\l\&lt; int \&gt;\n||+ Configurable()\l}">
<polygon fill="none" stroke="#000000" points="163,-210 163,-278 318,-278 318,-210 163,-210"/>
<text text-anchor="start" x="171" y="-266" font-family="Helvetica,sans-Serif" font-size="10.00" fill="#000000">o2::framework::Configurable</text>
<text text-anchor="middle" x="240.5" y="-255" font-family="Helvetica,sans-Serif" font-size="10.00" fill="#000000">&lt; int &gt;</text>
<polyline fill="none" stroke="#000000" points="163,-248 318,-248 "/>
<text text-anchor="middle" x="240.5" y="-236" font-family="Helvetica,sans-Serif" font-size="10.00" fill="#000000"> </text>
<polyline fill="none" stroke="#000000" points="163,-229 318,-229 "/>
<text text-anchor="start" x="171" y="-217" font-family="Helvetica,sans-Serif" font-size="10.00" fill="#000000">+ Configurable()</text>
</a>
</g>
</g>
<!-- Node4&#45;&gt;Node1 -->
<g id="edge3" class="edge">
<title>Node4&#45;&gt;Node1</title>
<path fill="none" stroke="#404040" d="M240.5,-209.8739C240.5,-174.7206 240.5,-119.7042 240.5,-80.6758"/>
<polygon fill="none" stroke="#404040" points="240.5001,-80.6115 236.5,-74.6115 240.5,-68.6115 244.5,-74.6114 240.5001,-80.6115"/>
<text text-anchor="middle" x="263" y="-95.5" font-family="Helvetica,sans-Serif" font-size="10.00" fill="#000000"> +nBinsP</text>
</g>
<!-- Node5 -->
<g id="node5" class="node">
<title>Node5</title>
<g id="a_node5"><a xlink:href="../../da/def/structo2_1_1framework_1_1ConfigurablePolicyConst.html" target="_top" xlink:title="{o2::framework::Configurable\lPolicyConst\&lt; int \&gt;\n||+ ConfigurablePolicyConst()\l}">
<polygon fill="none" stroke="#000000" points="124,-408.5 124,-476.5 279,-476.5 279,-408.5 124,-408.5"/>
<text text-anchor="start" x="132" y="-464.5" font-family="Helvetica,sans-Serif" font-size="10.00" fill="#000000">o2::framework::Configurable</text>
<text text-anchor="middle" x="201.5" y="-453.5" font-family="Helvetica,sans-Serif" font-size="10.00" fill="#000000">PolicyConst&lt; int &gt;</text>
<polyline fill="none" stroke="#000000" points="124,-446.5 279,-446.5 "/>
<text text-anchor="middle" x="201.5" y="-434.5" font-family="Helvetica,sans-Serif" font-size="10.00" fill="#000000"> </text>
<polyline fill="none" stroke="#000000" points="124,-427.5 279,-427.5 "/>
<text text-anchor="start" x="132" y="-415.5" font-family="Helvetica,sans-Serif" font-size="10.00" fill="#000000">+ ConfigurablePolicyConst()</text>
</a>
</g>
</g>
<!-- Node5&#45;&gt;Node4 -->
<g id="edge4" class="edge">
<title>Node5&#45;&gt;Node4</title>
<path fill="none" stroke="#191970" d="M210.1378,-398.5358C217.2798,-362.185 227.2764,-311.3046 233.818,-278.0096"/>
<polygon fill="none" stroke="#191970" points="206.698,-397.8894 208.2043,-408.3766 213.5666,-399.239 206.698,-397.8894"/>
</g>
<!-- Node6 -->
<g id="node6" class="node">
<title>Node6</title>
<g id="a_node6"><a xlink:href="../../da/d2f/structo2_1_1framework_1_1ConfigurableBase.html" target="_top" xlink:title="{o2::framework::Configurable\lBase\&lt; int \&gt;\n||+ ConfigurableBase()\l}">
<polygon fill="none" stroke="#000000" points="77,-524.5 77,-592.5 232,-592.5 232,-524.5 77,-524.5"/>
<text text-anchor="start" x="85" y="-580.5" font-family="Helvetica,sans-Serif" font-size="10.00" fill="#000000">o2::framework::Configurable</text>
<text text-anchor="middle" x="154.5" y="-569.5" font-family="Helvetica,sans-Serif" font-size="10.00" fill="#000000">Base&lt; int &gt;</text>
<polyline fill="none" stroke="#000000" points="77,-562.5 232,-562.5 "/>
<text text-anchor="middle" x="154.5" y="-550.5" font-family="Helvetica,sans-Serif" font-size="10.00" fill="#000000"> </text>
<polyline fill="none" stroke="#000000" points="77,-543.5 232,-543.5 "/>
<text text-anchor="start" x="85" y="-531.5" font-family="Helvetica,sans-Serif" font-size="10.00" fill="#000000">+ ConfigurableBase()</text>
</a>
</g>
</g>
<!-- Node6&#45;&gt;Node5 -->
<g id="edge5" class="edge">
<title>Node6&#45;&gt;Node5</title>
<path fill="none" stroke="#191970" d="M172.1546,-514.9268C177.2561,-502.3359 182.7501,-488.7764 187.5892,-476.833"/>
<polygon fill="none" stroke="#191970" points="168.8587,-513.7411 168.3473,-524.3236 175.3465,-516.3698 168.8587,-513.7411"/>
</g>
<!-- Node7 -->
<g id="node7" class="node">
<title>Node7</title>
<polygon fill="none" stroke="#bfbfbf" points="313,-767.5 313,-824.5 342,-824.5 342,-767.5 313,-767.5"/>
<text text-anchor="middle" x="327.5" y="-812.5" font-family="Helvetica,sans-Serif" font-size="10.00" fill="#000000">int</text>
<polyline fill="none" stroke="#bfbfbf" points="313,-805.5 342,-805.5 "/>
<text text-anchor="middle" x="327.5" y="-793.5" font-family="Helvetica,sans-Serif" font-size="10.00" fill="#000000"> </text>
<polyline fill="none" stroke="#bfbfbf" points="313,-786.5 342,-786.5 "/>
<text text-anchor="middle" x="327.5" y="-774.5" font-family="Helvetica,sans-Serif" font-size="10.00" fill="#000000"> </text>
</g>
<!-- Node7&#45;&gt;Node6 -->
<g id="edge6" class="edge">
<title>Node7&#45;&gt;Node6</title>
<path fill="none" stroke="#404040" d="M312.6644,-789.7443C286.3457,-777.896 231.4434,-749.6744 201.5,-709 178.936,-678.3497 167.0178,-636.5969 160.8375,-604.8437"/>
<polygon fill="none" stroke="#404040" points="160.7915,-604.5872 155.7929,-599.3897 158.6681,-592.7766 163.6667,-597.9741 160.7915,-604.5872"/>
<text text-anchor="middle" x="221" y="-683" font-family="Helvetica,sans-Serif" font-size="10.00" fill="#000000"> +value</text>
<text text-anchor="middle" x="221" y="-672" font-family="Helvetica,sans-Serif" font-size="10.00" fill="#000000">+name</text>
<text text-anchor="middle" x="221" y="-661" font-family="Helvetica,sans-Serif" font-size="10.00" fill="#000000">+help</text>
</g>
<!-- Node8 -->
<g id="node8" class="node">
<title>Node8</title>
<g id="a_node8"><a xlink:href="../../da/d2f/structo2_1_1framework_1_1ConfigurableBase.html" target="_top" xlink:title="{o2::framework::Configurable\lBase\&lt; T \&gt;\n||+ ConfigurableBase()\l}">
<polygon fill="none" stroke="#000000" points="250,-640.5 250,-708.5 405,-708.5 405,-640.5 250,-640.5"/>
<text text-anchor="start" x="258" y="-696.5" font-family="Helvetica,sans-Serif" font-size="10.00" fill="#000000">o2::framework::Configurable</text>
<text text-anchor="middle" x="327.5" y="-685.5" font-family="Helvetica,sans-Serif" font-size="10.00" fill="#000000">Base&lt; T &gt;</text>
<polyline fill="none" stroke="#000000" points="250,-678.5 405,-678.5 "/>
<text text-anchor="middle" x="327.5" y="-666.5" font-family="Helvetica,sans-Serif" font-size="10.00" fill="#000000"> </text>
<polyline fill="none" stroke="#000000" points="250,-659.5 405,-659.5 "/>
<text text-anchor="start" x="258" y="-647.5" font-family="Helvetica,sans-Serif" font-size="10.00" fill="#000000">+ ConfigurableBase()</text>
</a>
</g>
</g>
<!-- Node7&#45;&gt;Node8 -->
<g id="edge8" class="edge">
<title>Node7&#45;&gt;Node8</title>
<path fill="none" stroke="#404040" d="M327.5,-767.2062C327.5,-753.3632 327.5,-736.4255 327.5,-720.8327"/>
<polygon fill="none" stroke="#404040" points="327.5001,-720.7007 323.5,-714.7008 327.5,-708.7007 331.5,-714.7007 327.5001,-720.7007"/>
<text text-anchor="middle" x="347.5" y="-741" font-family="Helvetica,sans-Serif" font-size="10.00" fill="#000000"> +name</text>
<text text-anchor="middle" x="347.5" y="-730" font-family="Helvetica,sans-Serif" font-size="10.00" fill="#000000">+help</text>
</g>
<!-- Node15 -->
<g id="node15" class="node">
<title>Node15</title>
<g id="a_node15"><a xlink:href="../../da/d2f/structo2_1_1framework_1_1ConfigurableBase.html" target="_top" xlink:title="{o2::framework::Configurable\lBase\&lt; float \&gt;\n||+ ConfigurableBase()\l}">
<polygon fill="none" stroke="#000000" points="470,-524.5 470,-592.5 625,-592.5 625,-524.5 470,-524.5"/>
<text text-anchor="start" x="478" y="-580.5" font-family="Helvetica,sans-Serif" font-size="10.00" fill="#000000">o2::framework::Configurable</text>
<text text-anchor="middle" x="547.5" y="-569.5" font-family="Helvetica,sans-Serif" font-size="10.00" fill="#000000">Base&lt; float &gt;</text>
<polyline fill="none" stroke="#000000" points="470,-562.5 625,-562.5 "/>
<text text-anchor="middle" x="547.5" y="-550.5" font-family="Helvetica,sans-Serif" font-size="10.00" fill="#000000"> </text>
<polyline fill="none" stroke="#000000" points="470,-543.5 625,-543.5 "/>
<text text-anchor="start" x="478" y="-531.5" font-family="Helvetica,sans-Serif" font-size="10.00" fill="#000000">+ ConfigurableBase()</text>
</a>
</g>
</g>
<!-- Node7&#45;&gt;Node15 -->
<g id="edge18" class="edge">
<title>Node7&#45;&gt;Node15</title>
<path fill="none" stroke="#404040" d="M342.1773,-794.0494C378.743,-788.3624 474.2744,-768.2662 520.5,-709 543.4163,-679.6189 549.3195,-637.2108 549.9769,-604.8947"/>
<polygon fill="none" stroke="#404040" points="549.9771,-604.613 545.983,-598.609 549.9889,-592.613 553.983,-598.6169 549.9771,-604.613"/>
<text text-anchor="middle" x="566.5" y="-677.5" font-family="Helvetica,sans-Serif" font-size="10.00" fill="#000000"> +name</text>
<text text-anchor="middle" x="566.5" y="-666.5" font-family="Helvetica,sans-Serif" font-size="10.00" fill="#000000">+help</text>
</g>
<!-- Node8&#45;&gt;Node6 -->
<g id="edge7" class="edge">
<title>Node8&#45;&gt;Node6</title>
<path fill="none" stroke="#ffa500" d="M267.9547,-634.5737C247.5943,-620.9216 225.0202,-605.7852 205.4044,-592.6324"/>
<polygon fill="#ffa500" stroke="#ffa500" points="266.2751,-637.6614 276.53,-640.3236 270.1735,-631.8474 266.2751,-637.6614"/>
<text text-anchor="middle" x="266" y="-614" font-family="Helvetica,sans-Serif" font-size="10.00" fill="#000000"> &lt; int &gt;</text>
</g>
<!-- Node10 -->
<g id="node10" class="node">
<title>Node10</title>
<g id="a_node10"><a xlink:href="../../da/def/structo2_1_1framework_1_1ConfigurablePolicyConst.html" target="_top" xlink:title="{o2::framework::Configurable\lPolicyConst\&lt; T \&gt;\n||+ ConfigurablePolicyConst()\l}">
<polygon fill="none" stroke="#000000" points="250,-524.5 250,-592.5 405,-592.5 405,-524.5 250,-524.5"/>
<text text-anchor="start" x="258" y="-580.5" font-family="Helvetica,sans-Serif" font-size="10.00" fill="#000000">o2::framework::Configurable</text>
<text text-anchor="middle" x="327.5" y="-569.5" font-family="Helvetica,sans-Serif" font-size="10.00" fill="#000000">PolicyConst&lt; T &gt;</text>
<polyline fill="none" stroke="#000000" points="250,-562.5 405,-562.5 "/>
<text text-anchor="middle" x="327.5" y="-550.5" font-family="Helvetica,sans-Serif" font-size="10.00" fill="#000000"> </text>
<polyline fill="none" stroke="#000000" points="250,-543.5 405,-543.5 "/>
<text text-anchor="start" x="258" y="-531.5" font-family="Helvetica,sans-Serif" font-size="10.00" fill="#000000">+ ConfigurablePolicyConst()</text>
</a>
</g>
</g>
<!-- Node8&#45;&gt;Node10 -->
<g id="edge11" class="edge">
<title>Node8&#45;&gt;Node10</title>
<path fill="none" stroke="#191970" d="M327.5,-630.1851C327.5,-617.8048 327.5,-604.5422 327.5,-592.833"/>
<polygon fill="none" stroke="#191970" points="324.0001,-630.3235 327.5,-640.3236 331.0001,-630.3236 324.0001,-630.3235"/>
</g>
<!-- Node8&#45;&gt;Node15 -->
<g id="edge19" class="edge">
<title>Node8&#45;&gt;Node15</title>
<path fill="none" stroke="#ffa500" d="M394.1657,-635.3479C408.6746,-627.1125 424.0182,-618.6177 438.5,-611 450.2113,-604.8396 462.7597,-598.5318 475.0239,-592.5222"/>
<polygon fill="#ffa500" stroke="#ffa500" points="392.2061,-632.4362 385.2549,-640.4319 395.6751,-638.5163 392.2061,-632.4362"/>
<text text-anchor="middle" x="462.5" y="-614" font-family="Helvetica,sans-Serif" font-size="10.00" fill="#000000"> &lt; float &gt;</text>
</g>
<!-- Node9 -->
<g id="node9" class="node">
<title>Node9</title>
<polygon fill="none" stroke="#bfbfbf" points="124,-767.5 124,-824.5 153,-824.5 153,-767.5 124,-767.5"/>
<text text-anchor="middle" x="138.5" y="-812.5" font-family="Helvetica,sans-Serif" font-size="10.00" fill="#000000">T</text>
<polyline fill="none" stroke="#bfbfbf" points="124,-805.5 153,-805.5 "/>
<text text-anchor="middle" x="138.5" y="-793.5" font-family="Helvetica,sans-Serif" font-size="10.00" fill="#000000"> </text>
<polyline fill="none" stroke="#bfbfbf" points="124,-786.5 153,-786.5 "/>
<text text-anchor="middle" x="138.5" y="-774.5" font-family="Helvetica,sans-Serif" font-size="10.00" fill="#000000"> </text>
</g>
<!-- Node9&#45;&gt;Node8 -->
<g id="edge9" class="edge">
<title>Node9&#45;&gt;Node8</title>
<path fill="none" stroke="#404040" d="M153.0167,-786.6678C176.5537,-771.5369 224.4067,-740.7742 264.0545,-715.2864"/>
<polygon fill="none" stroke="#404040" points="264.1063,-715.2531 266.9903,-708.6439 274.2004,-708.764 271.3164,-715.3733 264.1063,-715.2531"/>
<text text-anchor="middle" x="264" y="-735.5" font-family="Helvetica,sans-Serif" font-size="10.00" fill="#000000"> +value</text>
</g>
<!-- Node10&#45;&gt;Node5 -->
<g id="edge10" class="edge">
<title>Node10&#45;&gt;Node5</title>
<path fill="none" stroke="#ffa500" d="M282.9705,-517.5046C268.524,-504.2046 252.656,-489.596 238.7927,-476.833"/>
<polygon fill="#ffa500" stroke="#ffa500" points="280.6497,-520.1254 290.3773,-524.3236 285.3909,-514.9755 280.6497,-520.1254"/>
<text text-anchor="middle" x="288" y="-498" font-family="Helvetica,sans-Serif" font-size="10.00" fill="#000000"> &lt; int &gt;</text>
</g>
<!-- Node14 -->
<g id="node14" class="node">
<title>Node14</title>
<g id="a_node14"><a xlink:href="../../da/def/structo2_1_1framework_1_1ConfigurablePolicyConst.html" target="_top" xlink:title="{o2::framework::Configurable\lPolicyConst\&lt; float \&gt;\n||+ ConfigurablePolicyConst()\l}">
<polygon fill="none" stroke="#000000" points="470,-408.5 470,-476.5 625,-476.5 625,-408.5 470,-408.5"/>
<text text-anchor="start" x="478" y="-464.5" font-family="Helvetica,sans-Serif" font-size="10.00" fill="#000000">o2::framework::Configurable</text>
<text text-anchor="middle" x="547.5" y="-453.5" font-family="Helvetica,sans-Serif" font-size="10.00" fill="#000000">PolicyConst&lt; float &gt;</text>
<polyline fill="none" stroke="#000000" points="470,-446.5 625,-446.5 "/>
<text text-anchor="middle" x="547.5" y="-434.5" font-family="Helvetica,sans-Serif" font-size="10.00" fill="#000000"> </text>
<polyline fill="none" stroke="#000000" points="470,-427.5 625,-427.5 "/>
<text text-anchor="start" x="478" y="-415.5" font-family="Helvetica,sans-Serif" font-size="10.00" fill="#000000">+ ConfigurablePolicyConst()</text>
</a>
</g>
</g>
<!-- Node10&#45;&gt;Node14 -->
<g id="edge20" class="edge">
<title>Node10&#45;&gt;Node14</title>
<path fill="none" stroke="#ffa500" d="M400.8955,-519.8006C427.4588,-505.7944 457.2365,-490.0935 482.9804,-476.5194"/>
<polygon fill="#ffa500" stroke="#ffa500" points="399.234,-516.7198 392.0208,-524.48 402.4989,-522.9118 399.234,-516.7198"/>
<text text-anchor="middle" x="467.5" y="-498" font-family="Helvetica,sans-Serif" font-size="10.00" fill="#000000"> &lt; float &gt;</text>
</g>
<!-- Node11 -->
<g id="node11" class="node">
<title>Node11</title>
<g id="a_node11"><a xlink:href="../../d8/d71/structo2_1_1framework_1_1Configurable.html" target="_top" xlink:title="{o2::framework::Configurable\l\&lt; T, IP \&gt;\n||+ Configurable()\l}">
<polygon fill="none" stroke="#000000" points="297,-408.5 297,-476.5 452,-476.5 452,-408.5 297,-408.5"/>
<text text-anchor="start" x="305" y="-464.5" font-family="Helvetica,sans-Serif" font-size="10.00" fill="#000000">o2::framework::Configurable</text>
<text text-anchor="middle" x="374.5" y="-453.5" font-family="Helvetica,sans-Serif" font-size="10.00" fill="#000000">&lt; T, IP &gt;</text>
<polyline fill="none" stroke="#000000" points="297,-446.5 452,-446.5 "/>
<text text-anchor="middle" x="374.5" y="-434.5" font-family="Helvetica,sans-Serif" font-size="10.00" fill="#000000"> </text>
<polyline fill="none" stroke="#000000" points="297,-427.5 452,-427.5 "/>
<text text-anchor="start" x="305" y="-415.5" font-family="Helvetica,sans-Serif" font-size="10.00" fill="#000000">+ Configurable()</text>
</a>
</g>
</g>
<!-- Node11&#45;&gt;Node4 -->
<g id="edge12" class="edge">
<title>Node11&#45;&gt;Node4</title>
<path fill="none" stroke="#ffa500" d="M345.7603,-399.9267C321.165,-363.4925 286.223,-311.7314 263.4587,-278.0096"/>
<polygon fill="#ffa500" stroke="#ffa500" points="342.9686,-402.0467 351.4646,-408.3766 348.7703,-398.1301 342.9686,-402.0467"/>
<text text-anchor="middle" x="359" y="-382" font-family="Helvetica,sans-Serif" font-size="10.00" fill="#000000"> &lt; int &gt;</text>
</g>
<!-- Node13 -->
<g id="node13" class="node">
<title>Node13</title>
<g id="a_node13"><a xlink:href="../../d8/d71/structo2_1_1framework_1_1Configurable.html" target="_top" xlink:title="{o2::framework::Configurable\l\&lt; float \&gt;\n||+ Configurable()\l}">
<polygon fill="none" stroke="#000000" points="336,-210 336,-278 491,-278 491,-210 336,-210"/>
<text text-anchor="start" x="344" y="-266" font-family="Helvetica,sans-Serif" font-size="10.00" fill="#000000">o2::framework::Configurable</text>
<text text-anchor="middle" x="413.5" y="-255" font-family="Helvetica,sans-Serif" font-size="10.00" fill="#000000">&lt; float &gt;</text>
<polyline fill="none" stroke="#000000" points="336,-248 491,-248 "/>
<text text-anchor="middle" x="413.5" y="-236" font-family="Helvetica,sans-Serif" font-size="10.00" fill="#000000"> </text>
<polyline fill="none" stroke="#000000" points="336,-229 491,-229 "/>
<text text-anchor="start" x="344" y="-217" font-family="Helvetica,sans-Serif" font-size="10.00" fill="#000000">+ Configurable()</text>
</a>
</g>
</g>
<!-- Node11&#45;&gt;Node13 -->
<g id="edge21" class="edge">
<title>Node11&#45;&gt;Node13</title>
<path fill="none" stroke="#ffa500" d="M383.1378,-398.5358C390.2798,-362.185 400.2764,-311.3046 406.818,-278.0096"/>
<polygon fill="#ffa500" stroke="#ffa500" points="379.698,-397.8894 381.2043,-408.3766 386.5666,-399.239 379.698,-397.8894"/>
<text text-anchor="middle" x="409.5" y="-382" font-family="Helvetica,sans-Serif" font-size="10.00" fill="#000000"> &lt; float &gt;</text>
</g>
<!-- Node12 -->
<g id="node12" class="node">
<title>Node12</title>
<polygon fill="none" stroke="#bfbfbf" points="423,-530 423,-587 452,-587 452,-530 423,-530"/>
<text text-anchor="middle" x="437.5" y="-575" font-family="Helvetica,sans-Serif" font-size="10.00" fill="#000000">IP</text>
<polyline fill="none" stroke="#bfbfbf" points="423,-568 452,-568 "/>
<text text-anchor="middle" x="437.5" y="-556" font-family="Helvetica,sans-Serif" font-size="10.00" fill="#000000"> </text>
<polyline fill="none" stroke="#bfbfbf" points="423,-549 452,-549 "/>
<text text-anchor="middle" x="437.5" y="-537" font-family="Helvetica,sans-Serif" font-size="10.00" fill="#000000"> </text>
</g>
<!-- Node12&#45;&gt;Node11 -->
<g id="edge13" class="edge">
<title>Node12&#45;&gt;Node11</title>
<path fill="none" stroke="#191970" d="M418.1127,-522.8028C410.1544,-508.1493 400.9792,-491.2553 393.1038,-476.7547"/>
<polygon fill="none" stroke="#191970" points="415.0399,-524.4785 422.8882,-531.5957 421.1912,-521.1376 415.0399,-524.4785"/>
</g>
<!-- Node13&#45;&gt;Node1 -->
<g id="edge14" class="edge">
<title>Node13&#45;&gt;Node1</title>
<path fill="none" stroke="#404040" d="M389.6775,-209.9857C372.693,-186.2375 348.9755,-154.0705 326.5,-127 311.0304,-108.3678 305.9842,-104.741 289.5,-87 286.6557,-83.9388 283.7163,-80.7793 280.7554,-77.5997"/>
<polygon fill="none" stroke="#404040" points="280.5967,-77.4294 273.5797,-75.7671 272.4153,-68.6507 279.4323,-70.3129 280.5967,-77.4294"/>
<text text-anchor="middle" x="329.5" y="-101" font-family="Helvetica,sans-Serif" font-size="10.00" fill="#000000"> +MaxP</text>
<text text-anchor="middle" x="329.5" y="-90" font-family="Helvetica,sans-Serif" font-size="10.00" fill="#000000">+MinP</text>
</g>
<!-- Node14&#45;&gt;Node13 -->
<g id="edge15" class="edge">
<title>Node14&#45;&gt;Node13</title>
<path fill="none" stroke="#191970" d="M518.7603,-399.9267C494.165,-363.4925 459.223,-311.7314 436.4587,-278.0096"/>
<polygon fill="none" stroke="#191970" points="515.9686,-402.0467 524.4646,-408.3766 521.7703,-398.1301 515.9686,-402.0467"/>
</g>
<!-- Node15&#45;&gt;Node14 -->
<g id="edge16" class="edge">
<title>Node15&#45;&gt;Node14</title>
<path fill="none" stroke="#191970" d="M547.5,-514.1851C547.5,-501.8048 547.5,-488.5422 547.5,-476.833"/>
<polygon fill="none" stroke="#191970" points="544.0001,-514.3235 547.5,-524.3236 551.0001,-514.3236 544.0001,-514.3235"/>
</g>
<!-- Node16 -->
<g id="node16" class="node">
<title>Node16</title>
<g id="a_node16"><a xlink:href="../../d4/dc3/classfloat.html" target="_top" xlink:title="{float\n||}">
<polygon fill="none" stroke="#000000" points="473.5,-646 473.5,-703 511.5,-703 511.5,-646 473.5,-646"/>
<text text-anchor="middle" x="492.5" y="-691" font-family="Helvetica,sans-Serif" font-size="10.00" fill="#000000">float</text>
<polyline fill="none" stroke="#000000" points="473.5,-684 511.5,-684 "/>
<text text-anchor="middle" x="492.5" y="-672" font-family="Helvetica,sans-Serif" font-size="10.00" fill="#000000"> </text>
<polyline fill="none" stroke="#000000" points="473.5,-665 511.5,-665 "/>
<text text-anchor="middle" x="492.5" y="-653" font-family="Helvetica,sans-Serif" font-size="10.00" fill="#000000"> </text>
</a>
</g>
</g>
<!-- Node16&#45;&gt;Node15 -->
<g id="edge17" class="edge">
<title>Node16&#45;&gt;Node15</title>
<path fill="none" stroke="#404040" d="M488.9463,-645.6851C488.6855,-634.448 489.8309,-621.7188 494.5,-611 495.7446,-608.1428 497.2234,-605.359 498.8815,-602.6598"/>
<polygon fill="none" stroke="#404040" points="499.0426,-602.4358 499.2984,-595.2292 506.049,-592.6936 505.7932,-599.9001 499.0426,-602.4358"/>
<text text-anchor="middle" x="514" y="-614" font-family="Helvetica,sans-Serif" font-size="10.00" fill="#000000"> +value</text>
</g>
</g>
</svg>
