<?xml version="1.0" encoding="UTF-8" standalone="no"?>
<!DOCTYPE svg PUBLIC "-//W3C//DTD SVG 1.1//EN"
 "http://www.w3.org/Graphics/SVG/1.1/DTD/svg11.dtd">
<!-- Generated by graphviz version 2.40.1 (20161225.0304)
 -->
<!-- Title: o2::header::RAWDataHeaderV5 Pages: 1 -->
<!--zoomable 380 -->
<svg id="main" version="1.1" xmlns="http://www.w3.org/2000/svg" xmlns:xlink="http://www.w3.org/1999/xlink" xml:space="preserve" onload="init(evt)">
<style type="text/css"><![CDATA[
.edge:hover path { stroke: red; }
.edge:hover polygon { stroke: red; fill: red; }
]]></style>
<script type="text/javascript"><![CDATA[
var edges = document.getElementsByTagName('g');
if (edges && edges.length) {
  for (var i=0;i<edges.length;i++) {
    if (edges[i].id.substr(0,4)=='edge') {
      edges[i].setAttribute('class','edge');
    }
  }
}
]]></script>
        <defs>
                <circle id="rim" cx="0" cy="0" r="7"/>
                <circle id="rim2" cx="0" cy="0" r="3.5"/>
                <g id="zoomPlus">
                        <use xlink:href="#rim" fill="#404040">
                                <set attributeName="fill" to="#808080" begin="zoomplus.mouseover" end="zoomplus.mouseout"/>
                        </use>
                        <path d="M-4,0h8M0,-4v8" fill="none" stroke="white" stroke-width="1.5" pointer-events="none"/>
                </g>
                <g id="zoomMin">
                        <use xlink:href="#rim" fill="#404040">
                                <set attributeName="fill" to="#808080" begin="zoomminus.mouseover" end="zoomminus.mouseout"/>
                        </use>
                        <path d="M-4,0h8" fill="none" stroke="white" stroke-width="1.5" pointer-events="none"/>
                </g>
                <g id="dirArrow">
                        <path fill="none" stroke="white" stroke-width="1.5" d="M0,-3.0v7 M-2.5,-0.5L0,-3.0L2.5,-0.5"/>
                </g>
               <g id="resetDef">
                       <use xlink:href="#rim2" fill="#404040">
                               <set attributeName="fill" to="#808080" begin="reset.mouseover" end="reset.mouseout"/>
                       </use>
               </g>
        </defs>

<script type="text/javascript">
var viewWidth = 1262;
var viewHeight = 380;
var sectionId = 'dynsection-0';
</script>
<script xlink:href="../../svgpan.js"/>
<svg id="graph" class="graph">
<g id="viewport">
<title>o2::header::RAWDataHeaderV5</title>
<!-- Node1 -->
<g id="node1" class="node">
<title>Node1</title>
<polygon fill="#bfbfbf" stroke="#000000" points="515,-.5 515,-156.5 682,-156.5 682,-.5 515,-.5"/>
<text text-anchor="middle" x="598.5" y="-144.5" font-family="Helvetica,sans-Serif" font-size="10.00" fill="#000000">o2::header::RAWDataHeaderV5</text>
<polyline fill="none" stroke="#000000" points="515,-137.5 682,-137.5 "/>
<text text-anchor="start" x="523" y="-125.5" font-family="Helvetica,sans-Serif" font-size="10.00" fill="#000000">+ zero0</text>
<text text-anchor="start" x="523" y="-114.5" font-family="Helvetica,sans-Serif" font-size="10.00" fill="#000000">+ word1</text>
<text text-anchor="start" x="523" y="-103.5" font-family="Helvetica,sans-Serif" font-size="10.00" fill="#000000">+ word2</text>
<text text-anchor="start" x="523" y="-92.5" font-family="Helvetica,sans-Serif" font-size="10.00" fill="#000000">+ word3</text>
<text text-anchor="start" x="523" y="-81.5" font-family="Helvetica,sans-Serif" font-size="10.00" fill="#000000">+ word4</text>
<text text-anchor="start" x="523" y="-70.5" font-family="Helvetica,sans-Serif" font-size="10.00" fill="#000000">+ pageCnt</text>
<text text-anchor="start" x="523" y="-59.5" font-family="Helvetica,sans-Serif" font-size="10.00" fill="#000000">+ zero4</text>
<text text-anchor="start" x="523" y="-48.5" font-family="Helvetica,sans-Serif" font-size="10.00" fill="#000000">+ word5</text>
<text text-anchor="start" x="523" y="-37.5" font-family="Helvetica,sans-Serif" font-size="10.00" fill="#000000">+ word6</text>
<text text-anchor="start" x="523" y="-26.5" font-family="Helvetica,sans-Serif" font-size="10.00" fill="#000000">+ detectorField</text>
<polyline fill="none" stroke="#000000" points="515,-19.5 682,-19.5 "/>
<text text-anchor="middle" x="598.5" y="-7.5" font-family="Helvetica,sans-Serif" font-size="10.00" fill="#000000"> </text>
</g>
<!-- Node2 -->
<g id="node2" class="node">
<title>Node2</title>
<polygon fill="none" stroke="#bfbfbf" points="0,-314.5 0,-371.5 113,-371.5 113,-314.5 0,-314.5"/>
<text text-anchor="middle" x="56.5" y="-359.5" font-family="Helvetica,sans-Serif" font-size="10.00" fill="#000000">anonymous:+@124</text>
<polyline fill="none" stroke="#bfbfbf" points="0,-352.5 113,-352.5 "/>
<text text-anchor="middle" x="56.5" y="-340.5" font-family="Helvetica,sans-Serif" font-size="10.00" fill="#000000"> </text>
<polyline fill="none" stroke="#bfbfbf" points="0,-333.5 113,-333.5 "/>
<text text-anchor="middle" x="56.5" y="-321.5" font-family="Helvetica,sans-Serif" font-size="10.00" fill="#000000"> </text>
</g>
<!-- Node2&#45;&gt;Node1 -->
<g id="edge1" class="edge">
<title>Node2&#45;&gt;Node1</title>
<path fill="none" stroke="#404040" d="M65.8432,-314.2653C79.7526,-276.2305 109.6416,-209.9189 158.5,-175 212.8288,-136.1715 390.4815,-106.2034 502.7421,-90.5536"/>
<polygon fill="none" stroke="#404040" points="502.8562,-90.538 508.2542,-85.7565 514.7439,-88.9002 509.346,-93.6817 502.8562,-90.538"/>
<text text-anchor="middle" x="178.5" y="-233" font-family="Helvetica,sans-Serif" font-size="10.00" fill="#000000"> +@124</text>
</g>
<!-- Node3 -->
<g id="node3" class="node">
<title>Node3</title>
<polygon fill="none" stroke="#bfbfbf" points="131,-314.5 131,-371.5 244,-371.5 244,-314.5 131,-314.5"/>
<text text-anchor="middle" x="187.5" y="-359.5" font-family="Helvetica,sans-Serif" font-size="10.00" fill="#000000">anonymous:+@134</text>
<polyline fill="none" stroke="#bfbfbf" points="131,-352.5 244,-352.5 "/>
<text text-anchor="middle" x="187.5" y="-340.5" font-family="Helvetica,sans-Serif" font-size="10.00" fill="#000000"> </text>
<polyline fill="none" stroke="#bfbfbf" points="131,-333.5 244,-333.5 "/>
<text text-anchor="middle" x="187.5" y="-321.5" font-family="Helvetica,sans-Serif" font-size="10.00" fill="#000000"> </text>
</g>
<!-- Node3&#45;&gt;Node1 -->
<g id="edge2" class="edge">
<title>Node3&#45;&gt;Node1</title>
<path fill="none" stroke="#404040" d="M195.7319,-314.2003C207.9146,-276.7129 234.3148,-211.6719 279.5,-175 343.1784,-123.3191 434.133,-99.2844 502.639,-88.125"/>
<polygon fill="none" stroke="#404040" points="502.8667,-88.0897 508.1829,-83.2176 514.725,-86.2509 509.4088,-91.1231 502.8667,-88.0897"/>
<text text-anchor="middle" x="299.5" y="-233" font-family="Helvetica,sans-Serif" font-size="10.00" fill="#000000"> +@134</text>
</g>
<!-- Node4 -->
<g id="node4" class="node">
<title>Node4</title>
<polygon fill="none" stroke="#bfbfbf" points="262,-314.5 262,-371.5 375,-371.5 375,-314.5 262,-314.5"/>
<text text-anchor="middle" x="318.5" y="-359.5" font-family="Helvetica,sans-Serif" font-size="10.00" fill="#000000">anonymous:+@126</text>
<polyline fill="none" stroke="#bfbfbf" points="262,-352.5 375,-352.5 "/>
<text text-anchor="middle" x="318.5" y="-340.5" font-family="Helvetica,sans-Serif" font-size="10.00" fill="#000000"> </text>
<polyline fill="none" stroke="#bfbfbf" points="262,-333.5 375,-333.5 "/>
<text text-anchor="middle" x="318.5" y="-321.5" font-family="Helvetica,sans-Serif" font-size="10.00" fill="#000000"> </text>
</g>
<!-- Node4&#45;&gt;Node1 -->
<g id="edge3" class="edge">
<title>Node4&#45;&gt;Node1</title>
<path fill="none" stroke="#404040" d="M320.5189,-314.4584C324.5487,-277.8507 336.5903,-214.3973 372.5,-175 406.7374,-137.4374 458.0506,-113.9372 503.133,-99.5457"/>
<polygon fill="none" stroke="#404040" points="503.2743,-99.5025 507.8413,-93.9219 514.7491,-95.9912 510.1822,-101.5718 503.2743,-99.5025"/>
<text text-anchor="middle" x="392.5" y="-233" font-family="Helvetica,sans-Serif" font-size="10.00" fill="#000000"> +@126</text>
</g>
<!-- Node5 -->
<g id="node5" class="node">
<title>Node5</title>
<g id="a_node5"><a xlink:href="../../d6/d30/classuint64__t.html" target="_top" xlink:title="{uint64_t\n||}">
<polygon fill="none" stroke="#000000" points="393.5,-314.5 393.5,-371.5 449.5,-371.5 449.5,-314.5 393.5,-314.5"/>
<text text-anchor="middle" x="421.5" y="-359.5" font-family="Helvetica,sans-Serif" font-size="10.00" fill="#000000">uint64_t</text>
<polyline fill="none" stroke="#000000" points="393.5,-352.5 449.5,-352.5 "/>
<text text-anchor="middle" x="421.5" y="-340.5" font-family="Helvetica,sans-Serif" font-size="10.00" fill="#000000"> </text>
<polyline fill="none" stroke="#000000" points="393.5,-333.5 449.5,-333.5 "/>
<text text-anchor="middle" x="421.5" y="-321.5" font-family="Helvetica,sans-Serif" font-size="10.00" fill="#000000"> </text>
</a>
</g>
</g>
<!-- Node5&#45;&gt;Node1 -->
<g id="edge4" class="edge">
<title>Node5&#45;&gt;Node1</title>
<path fill="none" stroke="#404040" d="M417.5282,-314.3568C414.1123,-278.7751 413.3597,-217.571 440.5,-175 455.9213,-150.8108 479.794,-131.7589 504.3508,-117.2022"/>
<polygon fill="none" stroke="#404040" points="504.4501,-117.146 507.7025,-110.7101 514.8943,-111.2369 511.6419,-117.6729 504.4501,-117.146"/>
<text text-anchor="middle" x="474.5" y="-288" font-family="Helvetica,sans-Serif" font-size="10.00" fill="#000000"> +word7</text>
<text text-anchor="middle" x="474.5" y="-277" font-family="Helvetica,sans-Serif" font-size="10.00" fill="#000000">+triggerType</text>
<text text-anchor="middle" x="474.5" y="-266" font-family="Helvetica,sans-Serif" font-size="10.00" fill="#000000">+zero6</text>
<text text-anchor="middle" x="474.5" y="-255" font-family="Helvetica,sans-Serif" font-size="10.00" fill="#000000">+detectorPAR</text>
<text text-anchor="middle" x="474.5" y="-244" font-family="Helvetica,sans-Serif" font-size="10.00" fill="#000000">+feeId</text>
<text text-anchor="middle" x="474.5" y="-233" font-family="Helvetica,sans-Serif" font-size="10.00" fill="#000000">+priority</text>
<text text-anchor="middle" x="474.5" y="-222" font-family="Helvetica,sans-Serif" font-size="10.00" fill="#000000">+headerSize</text>
<text text-anchor="middle" x="474.5" y="-211" font-family="Helvetica,sans-Serif" font-size="10.00" fill="#000000">+version</text>
<text text-anchor="middle" x="474.5" y="-200" font-family="Helvetica,sans-Serif" font-size="10.00" fill="#000000">+word0</text>
<text text-anchor="middle" x="474.5" y="-189" font-family="Helvetica,sans-Serif" font-size="10.00" fill="#000000">+stop</text>
<text text-anchor="middle" x="474.5" y="-178" font-family="Helvetica,sans-Serif" font-size="10.00" fill="#000000">...</text>
</g>
<!-- Node6 -->
<g id="node6" class="node">
<title>Node6</title>
<polygon fill="none" stroke="#bfbfbf" points="467.5,-314.5 467.5,-371.5 523.5,-371.5 523.5,-314.5 467.5,-314.5"/>
<text text-anchor="middle" x="495.5" y="-359.5" font-family="Helvetica,sans-Serif" font-size="10.00" fill="#000000">uint16_t</text>
<polyline fill="none" stroke="#bfbfbf" points="467.5,-352.5 523.5,-352.5 "/>
<text text-anchor="middle" x="495.5" y="-340.5" font-family="Helvetica,sans-Serif" font-size="10.00" fill="#000000"> </text>
<polyline fill="none" stroke="#bfbfbf" points="467.5,-333.5 523.5,-333.5 "/>
<text text-anchor="middle" x="495.5" y="-321.5" font-family="Helvetica,sans-Serif" font-size="10.00" fill="#000000"> </text>
</g>
<!-- Node6&#45;&gt;Node1 -->
<g id="edge5" class="edge">
<title>Node6&#45;&gt;Node1</title>
<path fill="none" stroke="#404040" d="M505.6145,-314.3038C517.558,-280.7296 538.2407,-223.5498 557.5,-175 558.4308,-172.6536 559.381,-170.2783 560.3459,-167.8841"/>
<polygon fill="none" stroke="#404040" points="560.4238,-167.6926 558.9823,-160.627 564.9499,-156.5788 566.3915,-163.6444 560.4238,-167.6926"/>
<text text-anchor="middle" x="576" y="-233" font-family="Helvetica,sans-Serif" font-size="10.00" fill="#000000"> +cruID</text>
</g>
<!-- Node7 -->
<g id="node7" class="node">
<title>Node7</title>
<polygon fill="none" stroke="#bfbfbf" points="542,-314.5 542,-371.5 655,-371.5 655,-314.5 542,-314.5"/>
<text text-anchor="middle" x="598.5" y="-359.5" font-family="Helvetica,sans-Serif" font-size="10.00" fill="#000000">anonymous:+@128</text>
<polyline fill="none" stroke="#bfbfbf" points="542,-352.5 655,-352.5 "/>
<text text-anchor="middle" x="598.5" y="-340.5" font-family="Helvetica,sans-Serif" font-size="10.00" fill="#000000"> </text>
<polyline fill="none" stroke="#bfbfbf" points="542,-333.5 655,-333.5 "/>
<text text-anchor="middle" x="598.5" y="-321.5" font-family="Helvetica,sans-Serif" font-size="10.00" fill="#000000"> </text>
</g>
<!-- Node7&#45;&gt;Node1 -->
<g id="edge6" class="edge">
<title>Node7&#45;&gt;Node1</title>
<path fill="none" stroke="#404040" d="M598.5,-314.4426C598.5,-279.7538 598.5,-219.5583 598.5,-168.6529"/>
<polygon fill="none" stroke="#404040" points="598.5001,-168.6069 594.5,-162.607 598.5,-156.6069 602.5,-162.6069 598.5001,-168.6069"/>
<text text-anchor="middle" x="618.5" y="-233" font-family="Helvetica,sans-Serif" font-size="10.00" fill="#000000"> +@128</text>
</g>
<!-- Node8 -->
<g id="node8" class="node">
<title>Node8</title>
<polygon fill="none" stroke="#bfbfbf" points="673,-314.5 673,-371.5 786,-371.5 786,-314.5 673,-314.5"/>
<text text-anchor="middle" x="729.5" y="-359.5" font-family="Helvetica,sans-Serif" font-size="10.00" fill="#000000">anonymous:+@120</text>
<polyline fill="none" stroke="#bfbfbf" points="673,-352.5 786,-352.5 "/>
<text text-anchor="middle" x="729.5" y="-340.5" font-family="Helvetica,sans-Serif" font-size="10.00" fill="#000000"> </text>
<polyline fill="none" stroke="#bfbfbf" points="673,-333.5 786,-333.5 "/>
<text text-anchor="middle" x="729.5" y="-321.5" font-family="Helvetica,sans-Serif" font-size="10.00" fill="#000000"> </text>
</g>
<!-- Node8&#45;&gt;Node1 -->
<g id="edge7" class="edge">
<title>Node8&#45;&gt;Node1</title>
<path fill="none" stroke="#404040" d="M715.3562,-314.4426C698.0308,-279.4611 667.8584,-218.5405 642.5131,-167.3662"/>
<polygon fill="none" stroke="#404040" points="642.5103,-167.3603 636.2628,-163.7589 637.1843,-156.6069 643.4318,-160.2083 642.5103,-167.3603"/>
<text text-anchor="middle" x="723.5" y="-233" font-family="Helvetica,sans-Serif" font-size="10.00" fill="#000000"> +@120</text>
</g>
<!-- Node9 -->
<g id="node9" class="node">
<title>Node9</title>
<polygon fill="none" stroke="#bfbfbf" points="804,-314.5 804,-371.5 917,-371.5 917,-314.5 804,-314.5"/>
<text text-anchor="middle" x="860.5" y="-359.5" font-family="Helvetica,sans-Serif" font-size="10.00" fill="#000000">anonymous:+@130</text>
<polyline fill="none" stroke="#bfbfbf" points="804,-352.5 917,-352.5 "/>
<text text-anchor="middle" x="860.5" y="-340.5" font-family="Helvetica,sans-Serif" font-size="10.00" fill="#000000"> </text>
<polyline fill="none" stroke="#bfbfbf" points="804,-333.5 917,-333.5 "/>
<text text-anchor="middle" x="860.5" y="-321.5" font-family="Helvetica,sans-Serif" font-size="10.00" fill="#000000"> </text>
</g>
<!-- Node9&#45;&gt;Node1 -->
<g id="edge8" class="edge">
<title>Node9&#45;&gt;Node1</title>
<path fill="none" stroke="#404040" d="M845.9133,-314.2944C826.8082,-278.6482 790.6211,-217.3776 747.5,-175 731.1214,-158.9038 711.6543,-144.0023 692.2843,-130.9638"/>
<polygon fill="none" stroke="#404040" points="692.2067,-130.9128 684.9957,-130.9579 682.1807,-124.3189 689.3916,-124.2739 692.2067,-130.9128"/>
<text text-anchor="middle" x="854.5" y="-233" font-family="Helvetica,sans-Serif" font-size="10.00" fill="#000000"> +@130</text>
</g>
<!-- Node10 -->
<g id="node10" class="node">
<title>Node10</title>
<g id="a_node10"><a xlink:href="../../d3/d87/classuint32__t.html" target="_top" xlink:title="{uint32_t\n||}">
<polygon fill="none" stroke="#000000" points="935.5,-314.5 935.5,-371.5 991.5,-371.5 991.5,-314.5 935.5,-314.5"/>
<text text-anchor="middle" x="963.5" y="-359.5" font-family="Helvetica,sans-Serif" font-size="10.00" fill="#000000">uint32_t</text>
<polyline fill="none" stroke="#000000" points="935.5,-352.5 991.5,-352.5 "/>
<text text-anchor="middle" x="963.5" y="-340.5" font-family="Helvetica,sans-Serif" font-size="10.00" fill="#000000"> </text>
<polyline fill="none" stroke="#000000" points="935.5,-333.5 991.5,-333.5 "/>
<text text-anchor="middle" x="963.5" y="-321.5" font-family="Helvetica,sans-Serif" font-size="10.00" fill="#000000"> </text>
</a>
</g>
</g>
<!-- Node10&#45;&gt;Node1 -->
<g id="edge9" class="edge">
<title>Node10&#45;&gt;Node1</title>
<path fill="none" stroke="#404040" d="M956.3047,-314.4778C945.5029,-277.2976 921.6129,-212.5958 878.5,-175 826.8372,-129.9484 753.0482,-105.649 694.1886,-92.7056"/>
<polygon fill="none" stroke="#404040" points="693.9902,-92.6638 687.2942,-95.3404 682.2481,-90.189 688.9441,-87.5124 693.9902,-92.6638"/>
<text text-anchor="middle" x="989.5" y="-271.5" font-family="Helvetica,sans-Serif" font-size="10.00" fill="#000000"> +linkID</text>
<text text-anchor="middle" x="989.5" y="-260.5" font-family="Helvetica,sans-Serif" font-size="10.00" fill="#000000">+endPointID</text>
<text text-anchor="middle" x="989.5" y="-249.5" font-family="Helvetica,sans-Serif" font-size="10.00" fill="#000000">+reserved2</text>
<text text-anchor="middle" x="989.5" y="-238.5" font-family="Helvetica,sans-Serif" font-size="10.00" fill="#000000">+memorySize</text>
<text text-anchor="middle" x="989.5" y="-227.5" font-family="Helvetica,sans-Serif" font-size="10.00" fill="#000000">+offsetToNext</text>
<text text-anchor="middle" x="989.5" y="-216.5" font-family="Helvetica,sans-Serif" font-size="10.00" fill="#000000">+orbit</text>
<text text-anchor="middle" x="989.5" y="-205.5" font-family="Helvetica,sans-Serif" font-size="10.00" fill="#000000">+packetCounter</text>
<text text-anchor="middle" x="989.5" y="-194.5" font-family="Helvetica,sans-Serif" font-size="10.00" fill="#000000">+bunchCrossing</text>
</g>
<!-- Node11 -->
<g id="node11" class="node">
<title>Node11</title>
<polygon fill="none" stroke="#bfbfbf" points="1010,-314.5 1010,-371.5 1123,-371.5 1123,-314.5 1010,-314.5"/>
<text text-anchor="middle" x="1066.5" y="-359.5" font-family="Helvetica,sans-Serif" font-size="10.00" fill="#000000">anonymous:+@122</text>
<polyline fill="none" stroke="#bfbfbf" points="1010,-352.5 1123,-352.5 "/>
<text text-anchor="middle" x="1066.5" y="-340.5" font-family="Helvetica,sans-Serif" font-size="10.00" fill="#000000"> </text>
<polyline fill="none" stroke="#bfbfbf" points="1010,-333.5 1123,-333.5 "/>
<text text-anchor="middle" x="1066.5" y="-321.5" font-family="Helvetica,sans-Serif" font-size="10.00" fill="#000000"> </text>
</g>
<!-- Node11&#45;&gt;Node1 -->
<g id="edge10" class="edge">
<title>Node11&#45;&gt;Node1</title>
<path fill="none" stroke="#404040" d="M1069.5911,-314.3669C1071.9117,-277.0639 1069.8312,-212.2266 1033.5,-175 987.1693,-127.5274 807.6867,-100.3518 694.2491,-87.584"/>
<polygon fill="none" stroke="#404040" points="694.0493,-87.562 687.6467,-90.8795 682.1218,-86.2454 688.5244,-82.9278 694.0493,-87.562"/>
<text text-anchor="middle" x="1089.5" y="-233" font-family="Helvetica,sans-Serif" font-size="10.00" fill="#000000"> +@122</text>
</g>
<!-- Node12 -->
<g id="node12" class="node">
<title>Node12</title>
<polygon fill="none" stroke="#bfbfbf" points="1141,-314.5 1141,-371.5 1254,-371.5 1254,-314.5 1141,-314.5"/>
<text text-anchor="middle" x="1197.5" y="-359.5" font-family="Helvetica,sans-Serif" font-size="10.00" fill="#000000">anonymous:+@132</text>
<polyline fill="none" stroke="#bfbfbf" points="1141,-352.5 1254,-352.5 "/>
<text text-anchor="middle" x="1197.5" y="-340.5" font-family="Helvetica,sans-Serif" font-size="10.00" fill="#000000"> </text>
<polyline fill="none" stroke="#bfbfbf" points="1141,-333.5 1254,-333.5 "/>
<text text-anchor="middle" x="1197.5" y="-321.5" font-family="Helvetica,sans-Serif" font-size="10.00" fill="#000000"> </text>
</g>
<!-- Node12&#45;&gt;Node1 -->
<g id="edge11" class="edge">
<title>Node12&#45;&gt;Node1</title>
<path fill="none" stroke="#404040" d="M1191.5233,-314.4843C1181.9691,-276.3833 1159.4514,-209.6569 1113.5,-175 1048.8164,-126.215 824.8062,-98.5993 694.5106,-86.3128"/>
<polygon fill="none" stroke="#404040" points="694.1511,-86.2796 687.8074,-89.7084 682.2024,-85.1715 688.5461,-81.7426 694.1511,-86.2796"/>
<text text-anchor="middle" x="1205.5" y="-233" font-family="Helvetica,sans-Serif" font-size="10.00" fill="#000000"> +@132</text>
</g>
</g>
</svg>
        <g id="navigator" transform="translate(0 0)" fill="#404254">
                <rect fill="#f2f5e9" fill-opacity="0.5" stroke="#606060" stroke-width=".5" x="0" y="0" width="60" height="60"/>
                <use id="zoomplus" xlink:href="#zoomPlus" x="17" y="9" onmousedown="handleZoom(evt,'in')"/>
                <use id="zoomminus" xlink:href="#zoomMin" x="42" y="9" onmousedown="handleZoom(evt,'out')"/>
                <use id="reset" xlink:href="#resetDef" x="30" y="36" onmousedown="handleReset()"/>
                <g id="arrowUp" xlink:href="#dirArrow" transform="translate(30 24)" onmousedown="handlePan(0,-1)">
                  <use xlink:href="#rim" fill="#404040">
                        <set attributeName="fill" to="#808080" begin="arrowUp.mouseover" end="arrowUp.mouseout"/>
                  </use>
                  <path fill="none" stroke="white" stroke-width="1.5" d="M0,-3.0v7 M-2.5,-0.5L0,-3.0L2.5,-0.5"/>
                </g>
                <g id="arrowRight" xlink:href="#dirArrow" transform="rotate(90) translate(36 -43)" onmousedown="handlePan(1,0)">
                  <use xlink:href="#rim" fill="#404040">
                        <set attributeName="fill" to="#808080" begin="arrowRight.mouseover" end="arrowRight.mouseout"/>
                  </use>
                  <path fill="none" stroke="white" stroke-width="1.5" d="M0,-3.0v7 M-2.5,-0.5L0,-3.0L2.5,-0.5"/>
                </g>
                <g id="arrowDown" xlink:href="#dirArrow" transform="rotate(180) translate(-30 -48)" onmousedown="handlePan(0,1)">
                  <use xlink:href="#rim" fill="#404040">
                        <set attributeName="fill" to="#808080" begin="arrowDown.mouseover" end="arrowDown.mouseout"/>
                  </use>
                  <path fill="none" stroke="white" stroke-width="1.5" d="M0,-3.0v7 M-2.5,-0.5L0,-3.0L2.5,-0.5"/>
                </g>
                <g id="arrowLeft" xlink:href="#dirArrow" transform="rotate(270) translate(-36 17)" onmousedown="handlePan(-1,0)">
                  <use xlink:href="#rim" fill="#404040">
                        <set attributeName="fill" to="#808080" begin="arrowLeft.mouseover" end="arrowLeft.mouseout"/>
                  </use>
                  <path fill="none" stroke="white" stroke-width="1.5" d="M0,-3.0v7 M-2.5,-0.5L0,-3.0L2.5,-0.5"/>
                </g>
        </g>
        <svg viewBox="0 0 15 15" width="100%" height="30px" preserveAspectRatio="xMaxYMin meet">
         <g id="arrow_out" transform="scale(0.3 0.3)">
          <a xlink:href="structo2_1_1header_1_1RAWDataHeaderV5__coll__graph_org.svg" target="_base">
           <rect id="button" ry="5" rx="5" y="6" x="6" height="38" width="38"
                fill="#f2f5e9" fill-opacity="0.5" stroke="#606060" stroke-width="1.0"/>
           <path id="arrow"
             d="M 11.500037,31.436501 C 11.940474,20.09759 22.043105,11.32322 32.158766,21.979434 L 37.068811,17.246167 C 37.068811,17.246167 37.088388,32 37.088388,32 L 22.160133,31.978069 C 22.160133,31.978069 26.997745,27.140456 26.997745,27.140456 C 18.528582,18.264221 13.291696,25.230495 11.500037,31.436501 z"
             style="fill:#404040;"/>
          </a>
         </g>
        </svg>
</svg>
