<?xml version="1.0" encoding="UTF-8" standalone="no"?>
<!DOCTYPE svg PUBLIC "-//W3C//DTD SVG 1.1//EN"
 "http://www.w3.org/Graphics/SVG/1.1/DTD/svg11.dtd">
<!-- Generated by graphviz version 2.40.1 (20161225.0304)
 -->
<!-- Title: /home/travis/build/AliceO2Group/AliceO2/Detectors/CPV/simulation/include/CPVSimulation/Digitizer.h Pages: 1 -->
<svg width="2671pt" height="430pt"
 viewBox="0.00 0.00 2671.00 430.00" xmlns="http://www.w3.org/2000/svg" xmlns:xlink="http://www.w3.org/1999/xlink">
<g id="graph0" class="graph" transform="scale(1 1) rotate(0) translate(4 426)">
<title>/home/travis/build/AliceO2Group/AliceO2/Detectors/CPV/simulation/include/CPVSimulation/Digitizer.h</title>
<!-- Node0 -->
<g id="node1" class="node">
<title>Node0</title>
<polygon fill="#bfbfbf" stroke="#000000" points="2063.5,-369.5 2063.5,-421.5 2245.5,-421.5 2245.5,-369.5 2063.5,-369.5"/>
<text text-anchor="start" x="2071.5" y="-409.5" font-family="Helvetica,sans-Serif" font-size="10.00" fill="#000000">/home/travis/build</text>
<text text-anchor="start" x="2071.5" y="-398.5" font-family="Helvetica,sans-Serif" font-size="10.00" fill="#000000">/AliceO2Group/AliceO2</text>
<text text-anchor="start" x="2071.5" y="-387.5" font-family="Helvetica,sans-Serif" font-size="10.00" fill="#000000">/Detectors/CPV/simulation</text>
<text text-anchor="middle" x="2154.5" y="-376.5" font-family="Helvetica,sans-Serif" font-size="10.00" fill="#000000">/include/CPVSimulation/Digitizer.h</text>
</g>
<!-- Node1 -->
<g id="node2" class="node">
<title>Node1</title>
<g id="a_node2"><a xlink:href="../../de/dfb/DataFormats_2Detectors_2CPV_2include_2DataFormatsCPV_2Digit_8h.html" target="_top" xlink:title="DataFormatsCPV/Digit.h">
<polygon fill="none" stroke="#000000" points="91.5,-241 91.5,-260 225.5,-260 225.5,-241 91.5,-241"/>
<text text-anchor="middle" x="158.5" y="-248" font-family="Helvetica,sans-Serif" font-size="10.00" fill="#000000">DataFormatsCPV/Digit.h</text>
</a>
</g>
</g>
<!-- Node0&#45;&gt;Node1 -->
<g id="edge1" class="edge">
<title>Node0&#45;&gt;Node1</title>
<path fill="none" stroke="#191970" d="M2063.2208,-388.869C1725.5076,-364.3357 550.2157,-278.9563 236.1614,-256.1417"/>
<polygon fill="#191970" stroke="#191970" points="236.0235,-252.6226 225.7961,-255.3887 235.5162,-259.6042 236.0235,-252.6226"/>
</g>
<!-- Node9 -->
<g id="node10" class="node">
<title>Node9</title>
<g id="a_node10"><a xlink:href="../../de/ddd/CPV_2base_2include_2CPVBase_2Geometry_8h.html" target="_top" xlink:title="CPVBase/Geometry.h">
<polygon fill="none" stroke="#000000" points="2305,-308 2305,-327 2424,-327 2424,-308 2305,-308"/>
<text text-anchor="middle" x="2364.5" y="-315" font-family="Helvetica,sans-Serif" font-size="10.00" fill="#000000">CPVBase/Geometry.h</text>
</a>
</g>
</g>
<!-- Node0&#45;&gt;Node9 -->
<g id="edge9" class="edge">
<title>Node0&#45;&gt;Node9</title>
<path fill="none" stroke="#191970" d="M2224.7189,-369.4187C2259.81,-356.3849 2300.7439,-341.1808 2329.2095,-330.6079"/>
<polygon fill="#191970" stroke="#191970" points="2330.5725,-333.8353 2338.7281,-327.0724 2328.1352,-327.2734 2330.5725,-333.8353"/>
</g>
<!-- Node13 -->
<g id="node14" class="node">
<title>Node13</title>
<g id="a_node14"><a xlink:href="../../dc/d40/CPV_2calib_2include_2CPVCalib_2CalibParams_8h.html" target="_top" xlink:title="CPVCalib/CalibParams.h">
<polygon fill="none" stroke="#000000" points="2493.5,-308 2493.5,-327 2627.5,-327 2627.5,-308 2493.5,-308"/>
<text text-anchor="middle" x="2560.5" y="-315" font-family="Helvetica,sans-Serif" font-size="10.00" fill="#000000">CPVCalib/CalibParams.h</text>
</a>
</g>
</g>
<!-- Node0&#45;&gt;Node13 -->
<g id="edge13" class="edge">
<title>Node0&#45;&gt;Node13</title>
<path fill="none" stroke="#191970" d="M2245.6143,-377.9953C2323.669,-362.9996 2433.8181,-341.8379 2501.017,-328.9278"/>
<polygon fill="#191970" stroke="#191970" points="2501.8562,-332.3306 2511.0162,-327.0067 2500.5354,-325.4564 2501.8562,-332.3306"/>
</g>
<!-- Node16 -->
<g id="node17" class="node">
<title>Node16</title>
<g id="a_node17"><a xlink:href="../../db/dd0/Detectors_2CPV_2base_2include_2CPVBase_2Hit_8h.html" target="_top" xlink:title="CPVBase/Hit.h">
<polygon fill="none" stroke="#000000" points="1915.5,-308 1915.5,-327 2001.5,-327 2001.5,-308 1915.5,-308"/>
<text text-anchor="middle" x="1958.5" y="-315" font-family="Helvetica,sans-Serif" font-size="10.00" fill="#000000">CPVBase/Hit.h</text>
</a>
</g>
</g>
<!-- Node0&#45;&gt;Node16 -->
<g id="edge16" class="edge">
<title>Node0&#45;&gt;Node16</title>
<path fill="none" stroke="#191970" d="M2088.9623,-369.4187C2056.5954,-356.538 2018.9025,-341.5377 1992.3789,-330.9824"/>
<polygon fill="#191970" stroke="#191970" points="1993.3801,-327.6139 1982.7947,-327.1683 1990.7918,-334.1179 1993.3801,-327.6139"/>
</g>
<!-- Node37 -->
<g id="node38" class="node">
<title>Node37</title>
<g id="a_node38"><a xlink:href="../../d7/dcd/MCCompLabel_8h.html" target="_top" xlink:title="SimulationDataFormat\l/MCCompLabel.h">
<polygon fill="none" stroke="#000000" points="2045,-302.5 2045,-332.5 2172,-332.5 2172,-302.5 2045,-302.5"/>
<text text-anchor="start" x="2053" y="-320.5" font-family="Helvetica,sans-Serif" font-size="10.00" fill="#000000">SimulationDataFormat</text>
<text text-anchor="middle" x="2108.5" y="-309.5" font-family="Helvetica,sans-Serif" font-size="10.00" fill="#000000">/MCCompLabel.h</text>
</a>
</g>
</g>
<!-- Node0&#45;&gt;Node37 -->
<g id="edge40" class="edge">
<title>Node0&#45;&gt;Node37</title>
<path fill="none" stroke="#191970" d="M2138.9265,-369.0928C2133.5874,-360.0395 2127.6501,-349.972 2122.448,-341.151"/>
<polygon fill="#191970" stroke="#191970" points="2125.4435,-339.3403 2117.3488,-332.5046 2119.414,-342.8962 2125.4435,-339.3403"/>
</g>
<!-- Node38 -->
<g id="node39" class="node">
<title>Node38</title>
<g id="a_node39"><a xlink:href="../../db/d14/MCTruthContainer_8h.html" target="_top" xlink:title="Definition of a container to keep Monte Carlo truth external to simulation objects. ">
<polygon fill="none" stroke="#000000" points="2156,-235.5 2156,-265.5 2283,-265.5 2283,-235.5 2156,-235.5"/>
<text text-anchor="start" x="2164" y="-253.5" font-family="Helvetica,sans-Serif" font-size="10.00" fill="#000000">SimulationDataFormat</text>
<text text-anchor="middle" x="2219.5" y="-242.5" font-family="Helvetica,sans-Serif" font-size="10.00" fill="#000000">/MCTruthContainer.h</text>
</a>
</g>
</g>
<!-- Node0&#45;&gt;Node38 -->
<g id="edge42" class="edge">
<title>Node0&#45;&gt;Node38</title>
<path fill="none" stroke="#191970" d="M2166.271,-369.2416C2178.2738,-342.4661 2196.7507,-301.2485 2208.476,-275.0921"/>
<polygon fill="#191970" stroke="#191970" points="2211.7148,-276.4232 2212.6116,-265.8663 2205.3272,-273.5597 2211.7148,-276.4232"/>
</g>
<!-- Node2 -->
<g id="node3" class="node">
<title>Node2</title>
<polygon fill="none" stroke="#bfbfbf" points="0,-179.5 0,-198.5 47,-198.5 47,-179.5 0,-179.5"/>
<text text-anchor="middle" x="23.5" y="-186.5" font-family="Helvetica,sans-Serif" font-size="10.00" fill="#000000">cmath</text>
</g>
<!-- Node1&#45;&gt;Node2 -->
<g id="edge2" class="edge">
<title>Node1&#45;&gt;Node2</title>
<path fill="none" stroke="#191970" d="M137.4063,-240.8906C114.9173,-230.6457 79.1082,-214.3326 53.6476,-202.7339"/>
<polygon fill="#191970" stroke="#191970" points="54.9968,-199.5025 44.4456,-198.5419 52.0948,-205.8727 54.9968,-199.5025"/>
</g>
<!-- Node3 -->
<g id="node4" class="node">
<title>Node3</title>
<g id="a_node4"><a xlink:href="../../df/d5d/common_2include_2CommonDataFormat_2TimeStamp_8h.html" target="_top" xlink:title="CommonDataFormat/TimeStamp.h">
<polygon fill="none" stroke="#000000" points="65,-179.5 65,-198.5 252,-198.5 252,-179.5 65,-179.5"/>
<text text-anchor="middle" x="158.5" y="-186.5" font-family="Helvetica,sans-Serif" font-size="10.00" fill="#000000">CommonDataFormat/TimeStamp.h</text>
</a>
</g>
</g>
<!-- Node1&#45;&gt;Node3 -->
<g id="edge3" class="edge">
<title>Node1&#45;&gt;Node3</title>
<path fill="none" stroke="#191970" d="M158.5,-240.8906C158.5,-232.3657 158.5,-219.6392 158.5,-208.9235"/>
<polygon fill="#191970" stroke="#191970" points="162.0001,-208.7448 158.5,-198.7449 155.0001,-208.7449 162.0001,-208.7448"/>
</g>
<!-- Node4 -->
<g id="node5" class="node">
<title>Node4</title>
<g id="a_node5"><a xlink:href="../../d2/d45/GPUCommonRtypes_8h.html" target="_top" xlink:title="GPUCommonRtypes.h">
<polygon fill="none" stroke="#000000" points="96,-118 96,-137 221,-137 221,-118 96,-118"/>
<text text-anchor="middle" x="158.5" y="-125" font-family="Helvetica,sans-Serif" font-size="10.00" fill="#000000">GPUCommonRtypes.h</text>
</a>
</g>
</g>
<!-- Node3&#45;&gt;Node4 -->
<g id="edge4" class="edge">
<title>Node3&#45;&gt;Node4</title>
<path fill="none" stroke="#191970" d="M158.5,-179.3906C158.5,-170.8657 158.5,-158.1392 158.5,-147.4235"/>
<polygon fill="#191970" stroke="#191970" points="162.0001,-147.2448 158.5,-137.2449 155.0001,-147.2449 162.0001,-147.2448"/>
</g>
<!-- Node6 -->
<g id="node7" class="node">
<title>Node6</title>
<g id="a_node7"><a xlink:href="../../df/d21/GPUCommonDef_8h.html" target="_top" xlink:title="GPUCommonDef.h">
<polygon fill="none" stroke="#000000" points="201,-56.5 201,-75.5 308,-75.5 308,-56.5 201,-56.5"/>
<text text-anchor="middle" x="254.5" y="-63.5" font-family="Helvetica,sans-Serif" font-size="10.00" fill="#000000">GPUCommonDef.h</text>
</a>
</g>
</g>
<!-- Node3&#45;&gt;Node6 -->
<g id="edge6" class="edge">
<title>Node3&#45;&gt;Node6</title>
<path fill="none" stroke="#191970" d="M131.5356,-179.4934C115.3286,-172.2188 96.0492,-160.4326 86.5,-143 79.8809,-130.9164 78.1425,-122.9535 86.5,-112 93.5495,-102.7609 152.708,-88.0314 198.8538,-77.7364"/>
<polygon fill="#191970" stroke="#191970" points="199.7656,-81.1195 208.7758,-75.5458 198.2563,-74.2841 199.7656,-81.1195"/>
</g>
<!-- Node5 -->
<g id="node6" class="node">
<title>Node5</title>
<polygon fill="none" stroke="#bfbfbf" points="124,-56.5 124,-75.5 183,-75.5 183,-56.5 124,-56.5"/>
<text text-anchor="middle" x="153.5" y="-63.5" font-family="Helvetica,sans-Serif" font-size="10.00" fill="#000000">Rtypes.h</text>
</g>
<!-- Node4&#45;&gt;Node5 -->
<g id="edge5" class="edge">
<title>Node4&#45;&gt;Node5</title>
<path fill="none" stroke="#191970" d="M157.7188,-117.8906C157.0257,-109.3657 155.991,-96.6392 155.1198,-85.9235"/>
<polygon fill="#191970" stroke="#191970" points="158.5912,-85.4283 154.2923,-75.7449 151.6142,-85.9956 158.5912,-85.4283"/>
</g>
<!-- Node7 -->
<g id="node8" class="node">
<title>Node7</title>
<g id="a_node8"><a xlink:href="../../d5/d93/GPUCommonDefSettings_8h.html" target="_top" xlink:title="GPUCommonDefSettings.h">
<polygon fill="none" stroke="#000000" points="103.5,-.5 103.5,-19.5 251.5,-19.5 251.5,-.5 103.5,-.5"/>
<text text-anchor="middle" x="177.5" y="-7.5" font-family="Helvetica,sans-Serif" font-size="10.00" fill="#000000">GPUCommonDefSettings.h</text>
</a>
</g>
</g>
<!-- Node6&#45;&gt;Node7 -->
<g id="edge7" class="edge">
<title>Node6&#45;&gt;Node7</title>
<path fill="none" stroke="#191970" d="M241.0876,-56.2455C229.4943,-47.814 212.5252,-35.4729 199.0322,-25.6598"/>
<polygon fill="#191970" stroke="#191970" points="200.9047,-22.6938 190.7587,-19.6427 196.7874,-28.355 200.9047,-22.6938"/>
</g>
<!-- Node8 -->
<g id="node9" class="node">
<title>Node8</title>
<g id="a_node9"><a xlink:href="../../da/d5a/GPUCommonDefAPI_8h.html" target="_top" xlink:title="GPUCommonDefAPI.h">
<polygon fill="none" stroke="#000000" points="269.5,-.5 269.5,-19.5 393.5,-19.5 393.5,-.5 269.5,-.5"/>
<text text-anchor="middle" x="331.5" y="-7.5" font-family="Helvetica,sans-Serif" font-size="10.00" fill="#000000">GPUCommonDefAPI.h</text>
</a>
</g>
</g>
<!-- Node6&#45;&gt;Node8 -->
<g id="edge8" class="edge">
<title>Node6&#45;&gt;Node8</title>
<path fill="none" stroke="#191970" d="M267.9124,-56.2455C279.5057,-47.814 296.4748,-35.4729 309.9678,-25.6598"/>
<polygon fill="#191970" stroke="#191970" points="312.2126,-28.355 318.2413,-19.6427 308.0953,-22.6938 312.2126,-28.355"/>
</g>
<!-- Node10 -->
<g id="node11" class="node">
<title>Node10</title>
<polygon fill="none" stroke="#bfbfbf" points="2301.5,-241 2301.5,-260 2345.5,-260 2345.5,-241 2301.5,-241"/>
<text text-anchor="middle" x="2323.5" y="-248" font-family="Helvetica,sans-Serif" font-size="10.00" fill="#000000">string</text>
</g>
<!-- Node9&#45;&gt;Node10 -->
<g id="edge10" class="edge">
<title>Node9&#45;&gt;Node10</title>
<path fill="none" stroke="#191970" d="M2358.6257,-307.9005C2352.4148,-297.751 2342.4665,-281.4941 2334.7401,-268.8679"/>
<polygon fill="#191970" stroke="#191970" points="2337.5685,-266.7844 2329.3634,-260.0817 2331.5977,-270.4382 2337.5685,-266.7844"/>
</g>
<!-- Node11 -->
<g id="node12" class="node">
<title>Node11</title>
<polygon fill="none" stroke="#bfbfbf" points="2363.5,-241 2363.5,-260 2447.5,-260 2447.5,-241 2363.5,-241"/>
<text text-anchor="middle" x="2405.5" y="-248" font-family="Helvetica,sans-Serif" font-size="10.00" fill="#000000">RStringView.h</text>
</g>
<!-- Node9&#45;&gt;Node11 -->
<g id="edge11" class="edge">
<title>Node9&#45;&gt;Node11</title>
<path fill="none" stroke="#191970" d="M2370.3743,-307.9005C2376.5852,-297.751 2386.5335,-281.4941 2394.2599,-268.8679"/>
<polygon fill="#191970" stroke="#191970" points="2397.4023,-270.4382 2399.6366,-260.0817 2391.4315,-266.7844 2397.4023,-270.4382"/>
</g>
<!-- Node12 -->
<g id="node13" class="node">
<title>Node12</title>
<polygon fill="none" stroke="#bfbfbf" points="2465.5,-241 2465.5,-260 2521.5,-260 2521.5,-241 2465.5,-241"/>
<text text-anchor="middle" x="2493.5" y="-248" font-family="Helvetica,sans-Serif" font-size="10.00" fill="#000000">TMath.h</text>
</g>
<!-- Node9&#45;&gt;Node12 -->
<g id="edge12" class="edge">
<title>Node9&#45;&gt;Node12</title>
<path fill="none" stroke="#191970" d="M2382.9826,-307.9005C2404.7275,-296.6067 2441.0323,-277.7506 2466.064,-264.7497"/>
<polygon fill="#191970" stroke="#191970" points="2467.7905,-267.797 2475.0517,-260.0817 2464.5641,-261.5849 2467.7905,-267.797"/>
</g>
<!-- Node14 -->
<g id="node15" class="node">
<title>Node14</title>
<polygon fill="none" stroke="#bfbfbf" points="2539.5,-241 2539.5,-260 2581.5,-260 2581.5,-241 2539.5,-241"/>
<text text-anchor="middle" x="2560.5" y="-248" font-family="Helvetica,sans-Serif" font-size="10.00" fill="#000000">array</text>
</g>
<!-- Node13&#45;&gt;Node14 -->
<g id="edge14" class="edge">
<title>Node13&#45;&gt;Node14</title>
<path fill="none" stroke="#191970" d="M2560.5,-307.9005C2560.5,-298.149 2560.5,-282.7597 2560.5,-270.3695"/>
<polygon fill="#191970" stroke="#191970" points="2564.0001,-270.0816 2560.5,-260.0817 2557.0001,-270.0817 2564.0001,-270.0816"/>
</g>
<!-- Node15 -->
<g id="node16" class="node">
<title>Node15</title>
<polygon fill="none" stroke="#bfbfbf" points="2600,-241 2600,-260 2663,-260 2663,-241 2600,-241"/>
<text text-anchor="middle" x="2631.5" y="-248" font-family="Helvetica,sans-Serif" font-size="10.00" fill="#000000">TObject.h</text>
</g>
<!-- Node13&#45;&gt;Node15 -->
<g id="edge15" class="edge">
<title>Node13&#45;&gt;Node15</title>
<path fill="none" stroke="#191970" d="M2570.6726,-307.9005C2581.9553,-297.2535 2600.3601,-279.8856 2613.9742,-267.0385"/>
<polygon fill="#191970" stroke="#191970" points="2616.4754,-269.4905 2621.3463,-260.0817 2611.6712,-264.3994 2616.4754,-269.4905"/>
</g>
<!-- Node17 -->
<g id="node18" class="node">
<title>Node17</title>
<g id="a_node18"><a xlink:href="../../d4/d25/BaseHits_8h.html" target="_top" xlink:title="SimulationDataFormat\l/BaseHits.h">
<polygon fill="none" stroke="#000000" points="805,-235.5 805,-265.5 932,-265.5 932,-235.5 805,-235.5"/>
<text text-anchor="start" x="813" y="-253.5" font-family="Helvetica,sans-Serif" font-size="10.00" fill="#000000">SimulationDataFormat</text>
<text text-anchor="middle" x="868.5" y="-242.5" font-family="Helvetica,sans-Serif" font-size="10.00" fill="#000000">/BaseHits.h</text>
</a>
</g>
</g>
<!-- Node16&#45;&gt;Node17 -->
<g id="edge17" class="edge">
<title>Node16&#45;&gt;Node17</title>
<path fill="none" stroke="#191970" d="M1915.4835,-316.1454C1747.8989,-310.7388 1138.54,-289.839 946.5,-266 945.1898,-265.8374 943.8687,-265.6652 942.5392,-265.4846"/>
<polygon fill="#191970" stroke="#191970" points="942.635,-261.9603 932.2283,-263.9478 941.603,-268.8838 942.635,-261.9603"/>
</g>
<!-- Node29 -->
<g id="node30" class="node">
<title>Node29</title>
<g id="a_node30"><a xlink:href="../../d0/d91/ShmAllocator_8h.html" target="_top" xlink:title="CommonUtils/ShmAllocator.h">
<polygon fill="none" stroke="#000000" points="1878.5,-241 1878.5,-260 2038.5,-260 2038.5,-241 1878.5,-241"/>
<text text-anchor="middle" x="1958.5" y="-248" font-family="Helvetica,sans-Serif" font-size="10.00" fill="#000000">CommonUtils/ShmAllocator.h</text>
</a>
</g>
</g>
<!-- Node16&#45;&gt;Node29 -->
<g id="edge32" class="edge">
<title>Node16&#45;&gt;Node29</title>
<path fill="none" stroke="#191970" d="M1958.5,-307.9005C1958.5,-298.149 1958.5,-282.7597 1958.5,-270.3695"/>
<polygon fill="#191970" stroke="#191970" points="1962.0001,-270.0816 1958.5,-260.0817 1955.0001,-270.0817 1962.0001,-270.0816"/>
</g>
<!-- Node18 -->
<g id="node19" class="node">
<title>Node18</title>
<g id="a_node19"><a xlink:href="../../dc/d73/Cartesian_8h.html" target="_top" xlink:title="MathUtils/Cartesian.h">
<polygon fill="none" stroke="#000000" points="1026.5,-179.5 1026.5,-198.5 1148.5,-198.5 1148.5,-179.5 1026.5,-179.5"/>
<text text-anchor="middle" x="1087.5" y="-186.5" font-family="Helvetica,sans-Serif" font-size="10.00" fill="#000000">MathUtils/Cartesian.h</text>
</a>
</g>
</g>
<!-- Node17&#45;&gt;Node18 -->
<g id="edge18" class="edge">
<title>Node17&#45;&gt;Node18</title>
<path fill="none" stroke="#191970" d="M922.0734,-235.4554C959.4155,-224.9689 1008.6192,-211.1515 1043.6336,-201.3187"/>
<polygon fill="#191970" stroke="#191970" points="1044.8815,-204.6037 1053.5628,-198.5303 1042.9889,-197.8644 1044.8815,-204.6037"/>
</g>
<!-- Node18&#45;&gt;Node4 -->
<g id="edge20" class="edge">
<title>Node18&#45;&gt;Node4</title>
<path fill="none" stroke="#191970" d="M1026.1532,-180.3822C1021.5382,-179.8682 1016.9484,-179.3989 1012.5,-179 668.1776,-148.1265 578.6144,-185.2331 235.5,-143 227.1343,-141.9703 218.3193,-140.5342 209.7597,-138.9479"/>
<polygon fill="#191970" stroke="#191970" points="210.3543,-135.4981 199.8711,-137.0322 209.0229,-142.3704 210.3543,-135.4981"/>
</g>
<!-- Node18&#45;&gt;Node6 -->
<g id="edge19" class="edge">
<title>Node18&#45;&gt;Node6</title>
<path fill="none" stroke="#191970" d="M1026.1523,-180.3925C1021.5374,-179.8761 1016.948,-179.4034 1012.5,-179 930.0749,-171.5242 330.7413,-197.5509 268.5,-143 252.5825,-129.0492 250.8529,-103.5652 251.9382,-85.7497"/>
<polygon fill="#191970" stroke="#191970" points="255.4424,-85.8707 252.9064,-75.5839 248.474,-85.2069 255.4424,-85.8707"/>
</g>
<!-- Node19 -->
<g id="node20" class="node">
<title>Node19</title>
<polygon fill="none" stroke="#bfbfbf" points="435.5,-112.5 435.5,-142.5 599.5,-142.5 599.5,-112.5 435.5,-112.5"/>
<text text-anchor="start" x="443.5" y="-130.5" font-family="Helvetica,sans-Serif" font-size="10.00" fill="#000000">Math/GenVector/Displacement</text>
<text text-anchor="middle" x="517.5" y="-119.5" font-family="Helvetica,sans-Serif" font-size="10.00" fill="#000000">Vector3D.h</text>
</g>
<!-- Node18&#45;&gt;Node19 -->
<g id="edge21" class="edge">
<title>Node18&#45;&gt;Node19</title>
<path fill="none" stroke="#191970" d="M1026.1318,-180.5956C1021.5217,-180.0322 1016.9389,-179.4935 1012.5,-179 836.5735,-159.4427 788.9818,-165.9062 609.82,-143.1086"/>
<polygon fill="#191970" stroke="#191970" points="610.1602,-139.6236 599.7956,-141.8202 609.2678,-146.5665 610.1602,-139.6236"/>
</g>
<!-- Node20 -->
<g id="node21" class="node">
<title>Node20</title>
<polygon fill="none" stroke="#bfbfbf" points="618,-118 618,-137 807,-137 807,-118 618,-118"/>
<text text-anchor="middle" x="712.5" y="-125" font-family="Helvetica,sans-Serif" font-size="10.00" fill="#000000">Math/GenVector/PositionVector3D.h</text>
</g>
<!-- Node18&#45;&gt;Node20 -->
<g id="edge22" class="edge">
<title>Node18&#45;&gt;Node20</title>
<path fill="none" stroke="#191970" d="M1029.3177,-179.4581C962.1602,-168.4443 851.8479,-150.3531 780.7117,-138.6867"/>
<polygon fill="#191970" stroke="#191970" points="780.9449,-135.1783 770.5102,-137.0137 779.812,-142.086 780.9449,-135.1783"/>
</g>
<!-- Node21 -->
<g id="node22" class="node">
<title>Node21</title>
<polygon fill="none" stroke="#bfbfbf" points="825.5,-118 825.5,-137 985.5,-137 985.5,-118 825.5,-118"/>
<text text-anchor="middle" x="905.5" y="-125" font-family="Helvetica,sans-Serif" font-size="10.00" fill="#000000">Math/GenVector/Rotation3D.h</text>
</g>
<!-- Node18&#45;&gt;Node21 -->
<g id="edge23" class="edge">
<title>Node18&#45;&gt;Node21</title>
<path fill="none" stroke="#191970" d="M1059.0625,-179.3906C1027.9428,-168.8749 977.9036,-151.966 943.4515,-140.3243"/>
<polygon fill="#191970" stroke="#191970" points="944.332,-136.9274 933.7378,-137.0419 942.0911,-143.5591 944.332,-136.9274"/>
</g>
<!-- Node22 -->
<g id="node23" class="node">
<title>Node22</title>
<polygon fill="none" stroke="#bfbfbf" points="1003.5,-118 1003.5,-137 1171.5,-137 1171.5,-118 1003.5,-118"/>
<text text-anchor="middle" x="1087.5" y="-125" font-family="Helvetica,sans-Serif" font-size="10.00" fill="#000000">Math/GenVector/Transform3D.h</text>
</g>
<!-- Node18&#45;&gt;Node22 -->
<g id="edge24" class="edge">
<title>Node18&#45;&gt;Node22</title>
<path fill="none" stroke="#191970" d="M1087.5,-179.3906C1087.5,-170.8657 1087.5,-158.1392 1087.5,-147.4235"/>
<polygon fill="#191970" stroke="#191970" points="1091.0001,-147.2448 1087.5,-137.2449 1084.0001,-147.2449 1091.0001,-147.2448"/>
</g>
<!-- Node23 -->
<g id="node24" class="node">
<title>Node23</title>
<polygon fill="none" stroke="#bfbfbf" points="1190,-118 1190,-137 1363,-137 1363,-118 1190,-118"/>
<text text-anchor="middle" x="1276.5" y="-125" font-family="Helvetica,sans-Serif" font-size="10.00" fill="#000000">Math/GenVector/Translation3D.h</text>
</g>
<!-- Node18&#45;&gt;Node23 -->
<g id="edge25" class="edge">
<title>Node18&#45;&gt;Node23</title>
<path fill="none" stroke="#191970" d="M1117.0313,-179.3906C1149.4866,-168.8298 1201.7581,-151.8208 1237.5486,-140.1747"/>
<polygon fill="#191970" stroke="#191970" points="1238.7499,-143.4645 1247.1761,-137.0419 1236.5839,-136.808 1238.7499,-143.4645"/>
</g>
<!-- Node24 -->
<g id="node25" class="node">
<title>Node24</title>
<polygon fill="none" stroke="#bfbfbf" points="1381.5,-112.5 1381.5,-142.5 1545.5,-142.5 1545.5,-112.5 1381.5,-112.5"/>
<text text-anchor="start" x="1389.5" y="-130.5" font-family="Helvetica,sans-Serif" font-size="10.00" fill="#000000">Math/GenVector/Displacement</text>
<text text-anchor="middle" x="1463.5" y="-119.5" font-family="Helvetica,sans-Serif" font-size="10.00" fill="#000000">Vector2D.h</text>
</g>
<!-- Node18&#45;&gt;Node24 -->
<g id="edge26" class="edge">
<title>Node18&#45;&gt;Node24</title>
<path fill="none" stroke="#191970" d="M1147.0813,-179.462C1202.3696,-170.5856 1287.2401,-156.8953 1371.2702,-143.0319"/>
<polygon fill="#191970" stroke="#191970" points="1371.9494,-146.4672 1381.2456,-141.3846 1370.8089,-139.5607 1371.9494,-146.4672"/>
</g>
<!-- Node25 -->
<g id="node26" class="node">
<title>Node25</title>
<polygon fill="none" stroke="#bfbfbf" points="1564,-118 1564,-137 1753,-137 1753,-118 1564,-118"/>
<text text-anchor="middle" x="1658.5" y="-125" font-family="Helvetica,sans-Serif" font-size="10.00" fill="#000000">Math/GenVector/PositionVector2D.h</text>
</g>
<!-- Node18&#45;&gt;Node25 -->
<g id="edge27" class="edge">
<title>Node18&#45;&gt;Node25</title>
<path fill="none" stroke="#191970" d="M1148.8035,-183.9409C1238.1651,-176.3443 1409.3696,-160.9515 1554.5,-143 1565.3192,-141.6618 1576.7501,-140.1044 1587.9186,-138.503"/>
<polygon fill="#191970" stroke="#191970" points="1588.6848,-141.9284 1598.0766,-137.0249 1587.6768,-135.0014 1588.6848,-141.9284"/>
</g>
<!-- Node26 -->
<g id="node27" class="node">
<title>Node26</title>
<polygon fill="none" stroke="#bfbfbf" points="1771.5,-118 1771.5,-137 1853.5,-137 1853.5,-118 1771.5,-118"/>
<text text-anchor="middle" x="1812.5" y="-125" font-family="Helvetica,sans-Serif" font-size="10.00" fill="#000000">TGeoMatrix.h</text>
</g>
<!-- Node18&#45;&gt;Node26 -->
<g id="edge28" class="edge">
<title>Node18&#45;&gt;Node26</title>
<path fill="none" stroke="#191970" d="M1148.7324,-186.6008C1291.8289,-180.7063 1644.8447,-164.4202 1761.5,-143 1766.0253,-142.1691 1770.7166,-141.0762 1775.3386,-139.8546"/>
<polygon fill="#191970" stroke="#191970" points="1776.5987,-143.1348 1785.2551,-137.0261 1774.6786,-136.4033 1776.5987,-143.1348"/>
</g>
<!-- Node27 -->
<g id="node28" class="node">
<title>Node27</title>
<polygon fill="none" stroke="#bfbfbf" points="1872,-118 1872,-137 1921,-137 1921,-118 1872,-118"/>
<text text-anchor="middle" x="1896.5" y="-125" font-family="Helvetica,sans-Serif" font-size="10.00" fill="#000000">iosfwd</text>
</g>
<!-- Node18&#45;&gt;Node27 -->
<g id="edge29" class="edge">
<title>Node18&#45;&gt;Node27</title>
<path fill="none" stroke="#191970" d="M1148.6473,-188.2605C1307.0211,-185.8842 1727.6033,-176.5138 1862.5,-143 1864.6996,-142.4535 1866.9321,-141.7675 1869.1475,-140.9902"/>
<polygon fill="#191970" stroke="#191970" points="1870.6511,-144.1572 1878.596,-137.148 1868.0142,-137.6728 1870.6511,-144.1572"/>
</g>
<!-- Node28 -->
<g id="node29" class="node">
<title>Node28</title>
<g id="a_node29"><a xlink:href="../../d1/da8/GPUROOTCartesianFwd_8h.html" target="_top" xlink:title="GPUROOTCartesianFwd.h">
<polygon fill="none" stroke="#000000" points="277.5,-118 277.5,-137 417.5,-137 417.5,-118 277.5,-118"/>
<text text-anchor="middle" x="347.5" y="-125" font-family="Helvetica,sans-Serif" font-size="10.00" fill="#000000">GPUROOTCartesianFwd.h</text>
</a>
</g>
</g>
<!-- Node18&#45;&gt;Node28 -->
<g id="edge30" class="edge">
<title>Node18&#45;&gt;Node28</title>
<path fill="none" stroke="#191970" d="M1026.1462,-180.4577C1021.5327,-179.9262 1016.9453,-179.4323 1012.5,-179 752.79,-153.7409 685.3158,-176.1919 426.5,-143 418.1301,-141.9266 409.3141,-140.4974 400.7279,-138.9399"/>
<polygon fill="#191970" stroke="#191970" points="401.2701,-135.4805 390.7946,-137.0662 399.9725,-142.3592 401.2701,-135.4805"/>
</g>
<!-- Node28&#45;&gt;Node6 -->
<g id="edge31" class="edge">
<title>Node28&#45;&gt;Node6</title>
<path fill="none" stroke="#191970" d="M332.9688,-117.8906C318.0906,-108.0519 294.7496,-92.6167 277.3872,-81.1351"/>
<polygon fill="#191970" stroke="#191970" points="279.201,-78.1385 268.9292,-75.5419 275.3398,-83.9773 279.201,-78.1385"/>
</g>
<!-- Node30 -->
<g id="node31" class="node">
<title>Node30</title>
<g id="a_node31"><a xlink:href="../../de/d61/ShmManager_8h.html" target="_top" xlink:title="CommonUtils/ShmManager.h">
<polygon fill="none" stroke="#000000" points="1876.5,-179.5 1876.5,-198.5 2034.5,-198.5 2034.5,-179.5 1876.5,-179.5"/>
<text text-anchor="middle" x="1955.5" y="-186.5" font-family="Helvetica,sans-Serif" font-size="10.00" fill="#000000">CommonUtils/ShmManager.h</text>
</a>
</g>
</g>
<!-- Node29&#45;&gt;Node30 -->
<g id="edge33" class="edge">
<title>Node29&#45;&gt;Node30</title>
<path fill="none" stroke="#191970" d="M1958.0313,-240.8906C1957.6154,-232.3657 1956.9946,-219.6392 1956.4719,-208.9235"/>
<polygon fill="#191970" stroke="#191970" points="1959.9585,-208.5624 1955.9754,-198.7449 1952.9668,-208.9035 1959.9585,-208.5624"/>
</g>
<!-- Node36 -->
<g id="node37" class="node">
<title>Node36</title>
<polygon fill="none" stroke="#bfbfbf" points="2052.5,-179.5 2052.5,-198.5 2104.5,-198.5 2104.5,-179.5 2052.5,-179.5"/>
<text text-anchor="middle" x="2078.5" y="-186.5" font-family="Helvetica,sans-Serif" font-size="10.00" fill="#000000">cassert</text>
</g>
<!-- Node29&#45;&gt;Node36 -->
<g id="edge39" class="edge">
<title>Node29&#45;&gt;Node36</title>
<path fill="none" stroke="#191970" d="M1977.25,-240.8906C1996.976,-230.7811 2028.2312,-214.7628 2050.8,-203.1962"/>
<polygon fill="#191970" stroke="#191970" points="2052.5787,-206.2176 2059.8817,-198.5419 2049.386,-199.9881 2052.5787,-206.2176"/>
</g>
<!-- Node31 -->
<g id="node32" class="node">
<title>Node31</title>
<polygon fill="none" stroke="#bfbfbf" points="1939.5,-118 1939.5,-137 1971.5,-137 1971.5,-118 1939.5,-118"/>
<text text-anchor="middle" x="1955.5" y="-125" font-family="Helvetica,sans-Serif" font-size="10.00" fill="#000000">list</text>
</g>
<!-- Node30&#45;&gt;Node31 -->
<g id="edge34" class="edge">
<title>Node30&#45;&gt;Node31</title>
<path fill="none" stroke="#191970" d="M1955.5,-179.3906C1955.5,-170.8657 1955.5,-158.1392 1955.5,-147.4235"/>
<polygon fill="#191970" stroke="#191970" points="1959.0001,-147.2448 1955.5,-137.2449 1952.0001,-147.2449 1959.0001,-147.2448"/>
</g>
<!-- Node32 -->
<g id="node33" class="node">
<title>Node32</title>
<polygon fill="none" stroke="#bfbfbf" points="1990,-118 1990,-137 2043,-137 2043,-118 1990,-118"/>
<text text-anchor="middle" x="2016.5" y="-125" font-family="Helvetica,sans-Serif" font-size="10.00" fill="#000000">cstddef</text>
</g>
<!-- Node30&#45;&gt;Node32 -->
<g id="edge35" class="edge">
<title>Node30&#45;&gt;Node32</title>
<path fill="none" stroke="#191970" d="M1965.0313,-179.3906C1974.2879,-170.0581 1988.539,-155.6902 1999.7003,-144.4374"/>
<polygon fill="#191970" stroke="#191970" points="2002.2772,-146.8095 2006.8344,-137.2449 1997.3072,-141.88 2002.2772,-146.8095"/>
</g>
<!-- Node33 -->
<g id="node34" class="node">
<title>Node33</title>
<polygon fill="none" stroke="#bfbfbf" points="2061.5,-118 2061.5,-137 2111.5,-137 2111.5,-118 2061.5,-118"/>
<text text-anchor="middle" x="2086.5" y="-125" font-family="Helvetica,sans-Serif" font-size="10.00" fill="#000000">atomic</text>
</g>
<!-- Node30&#45;&gt;Node33 -->
<g id="edge36" class="edge">
<title>Node30&#45;&gt;Node33</title>
<path fill="none" stroke="#191970" d="M1975.9688,-179.3906C1997.6952,-169.1908 2032.2335,-152.9763 2056.9185,-141.3875"/>
<polygon fill="#191970" stroke="#191970" points="2058.6103,-144.4598 2066.175,-137.0419 2055.6355,-138.1234 2058.6103,-144.4598"/>
</g>
<!-- Node34 -->
<g id="node35" class="node">
<title>Node34</title>
<polygon fill="none" stroke="#bfbfbf" points="2130,-112.5 2130,-142.5 2295,-142.5 2295,-112.5 2130,-112.5"/>
<text text-anchor="start" x="2138" y="-130.5" font-family="Helvetica,sans-Serif" font-size="10.00" fill="#000000">boost/interprocess</text>
<text text-anchor="middle" x="2212.5" y="-119.5" font-family="Helvetica,sans-Serif" font-size="10.00" fill="#000000">/managed_external_buffer.hpp</text>
</g>
<!-- Node30&#45;&gt;Node34 -->
<g id="edge37" class="edge">
<title>Node30&#45;&gt;Node34</title>
<path fill="none" stroke="#191970" d="M1995.3743,-179.4581C2033.8093,-170.2606 2092.8691,-156.1276 2139.6948,-144.9223"/>
<polygon fill="#191970" stroke="#191970" points="2140.5785,-148.3097 2149.4894,-142.5784 2138.9494,-141.5019 2140.5785,-148.3097"/>
</g>
<!-- Node35 -->
<g id="node36" class="node">
<title>Node35</title>
<polygon fill="none" stroke="#bfbfbf" points="2313.5,-112.5 2313.5,-142.5 2447.5,-142.5 2447.5,-112.5 2313.5,-112.5"/>
<text text-anchor="start" x="2321.5" y="-130.5" font-family="Helvetica,sans-Serif" font-size="10.00" fill="#000000">boost/interprocess</text>
<text text-anchor="middle" x="2380.5" y="-119.5" font-family="Helvetica,sans-Serif" font-size="10.00" fill="#000000">/allocators/allocator.hpp</text>
</g>
<!-- Node30&#45;&gt;Node35 -->
<g id="edge38" class="edge">
<title>Node30&#45;&gt;Node35</title>
<path fill="none" stroke="#191970" d="M2032.3075,-179.4598C2118.5137,-168.6436 2252.929,-151.4225 2303.5,-143 2303.6009,-142.9832 2303.7018,-142.9664 2303.8029,-142.9495"/>
<polygon fill="#191970" stroke="#191970" points="2304.1027,-146.4498 2313.3573,-141.2921 2302.9062,-139.5528 2304.1027,-146.4498"/>
</g>
<!-- Node37&#45;&gt;Node4 -->
<g id="edge41" class="edge">
<title>Node37&#45;&gt;Node4</title>
<path fill="none" stroke="#191970" d="M2044.8009,-306.7928C2033.398,-305.0566 2021.6113,-303.3788 2010.5,-302 1230.6306,-205.2294 1028.7825,-244.3884 249.5,-143 240.064,-141.7723 230.1099,-140.2803 220.3855,-138.7127"/>
<polygon fill="#191970" stroke="#191970" points="220.8027,-135.2343 210.3663,-137.0595 219.6631,-142.1409 220.8027,-135.2343"/>
</g>
<!-- Node38&#45;&gt;Node4 -->
<g id="edge43" class="edge">
<title>Node38&#45;&gt;Node4</title>
<path fill="none" stroke="#191970" d="M2155.851,-243.9242C2123.4458,-240.7898 2083.4085,-237.2438 2047.5,-235 1818.9172,-220.7167 1240.2259,-252.3601 1017.5,-199 997.0029,-194.0894 994.9605,-184.0609 974.5,-179 817.9096,-140.2672 409.8494,-160.574 249.5,-143 239.2384,-141.8753 228.3794,-140.3353 217.8734,-138.6602"/>
<polygon fill="#191970" stroke="#191970" points="218.3761,-135.1959 207.9398,-137.0218 217.2369,-142.1026 218.3761,-135.1959"/>
</g>
<!-- Node38&#45;&gt;Node36 -->
<g id="edge45" class="edge">
<title>Node38&#45;&gt;Node36</title>
<path fill="none" stroke="#191970" d="M2185.0075,-235.4554C2161.9972,-225.419 2131.9914,-212.3314 2109.6945,-202.6061"/>
<polygon fill="#191970" stroke="#191970" points="2110.9154,-199.3202 2100.35,-198.5303 2108.1167,-205.7364 2110.9154,-199.3202"/>
</g>
<!-- Node39 -->
<g id="node40" class="node">
<title>Node39</title>
<polygon fill="none" stroke="#bfbfbf" points="2122.5,-179.5 2122.5,-198.5 2172.5,-198.5 2172.5,-179.5 2122.5,-179.5"/>
<text text-anchor="middle" x="2147.5" y="-186.5" font-family="Helvetica,sans-Serif" font-size="10.00" fill="#000000">cstdint</text>
</g>
<!-- Node38&#45;&gt;Node39 -->
<g id="edge44" class="edge">
<title>Node38&#45;&gt;Node39</title>
<path fill="none" stroke="#191970" d="M2201.7022,-235.2977C2191.0833,-226.2274 2177.5969,-214.7077 2166.7333,-205.4285"/>
<polygon fill="#191970" stroke="#191970" points="2168.9051,-202.6805 2159.0281,-198.8469 2164.3587,-208.0031 2168.9051,-202.6805"/>
</g>
<!-- Node40 -->
<g id="node41" class="node">
<title>Node40</title>
<polygon fill="none" stroke="#bfbfbf" points="2191,-179.5 2191,-198.5 2256,-198.5 2256,-179.5 2191,-179.5"/>
<text text-anchor="middle" x="2223.5" y="-186.5" font-family="Helvetica,sans-Serif" font-size="10.00" fill="#000000">stdexcept</text>
</g>
<!-- Node38&#45;&gt;Node40 -->
<g id="edge46" class="edge">
<title>Node38&#45;&gt;Node40</title>
<path fill="none" stroke="#191970" d="M2220.4888,-235.2977C2221.0035,-227.3834 2221.6396,-217.6043 2222.1943,-209.0759"/>
<polygon fill="#191970" stroke="#191970" points="2225.703,-209.053 2222.8595,-198.8469 2218.7178,-208.5986 2225.703,-209.053"/>
</g>
<!-- Node41 -->
<g id="node42" class="node">
<title>Node41</title>
<polygon fill="none" stroke="#bfbfbf" points="2274.5,-179.5 2274.5,-198.5 2322.5,-198.5 2322.5,-179.5 2274.5,-179.5"/>
<text text-anchor="middle" x="2298.5" y="-186.5" font-family="Helvetica,sans-Serif" font-size="10.00" fill="#000000">gsl/gsl</text>
</g>
<!-- Node38&#45;&gt;Node41 -->
<g id="edge47" class="edge">
<title>Node38&#45;&gt;Node41</title>
<path fill="none" stroke="#191970" d="M2239.0281,-235.2977C2250.7937,-226.1384 2265.7675,-214.4816 2277.7465,-205.1562"/>
<polygon fill="#191970" stroke="#191970" points="2280.1103,-207.7516 2285.8511,-198.8469 2275.8102,-202.228 2280.1103,-207.7516"/>
</g>
<!-- Node42 -->
<g id="node43" class="node">
<title>Node42</title>
<polygon fill="none" stroke="#bfbfbf" points="2341,-179.5 2341,-198.5 2410,-198.5 2410,-179.5 2341,-179.5"/>
<text text-anchor="middle" x="2375.5" y="-186.5" font-family="Helvetica,sans-Serif" font-size="10.00" fill="#000000">type_traits</text>
</g>
<!-- Node38&#45;&gt;Node42 -->
<g id="edge48" class="edge">
<title>Node38&#45;&gt;Node42</title>
<path fill="none" stroke="#191970" d="M2257.6619,-235.4554C2283.4626,-225.284 2317.2126,-211.9787 2341.9778,-202.2155"/>
<polygon fill="#191970" stroke="#191970" points="2343.306,-205.4541 2351.3255,-198.5303 2340.7387,-198.9419 2343.306,-205.4541"/>
</g>
<!-- Node43 -->
<g id="node44" class="node">
<title>Node43</title>
<polygon fill="none" stroke="#bfbfbf" points="2428.5,-179.5 2428.5,-198.5 2478.5,-198.5 2478.5,-179.5 2428.5,-179.5"/>
<text text-anchor="middle" x="2453.5" y="-186.5" font-family="Helvetica,sans-Serif" font-size="10.00" fill="#000000">cstring</text>
</g>
<!-- Node38&#45;&gt;Node43 -->
<g id="edge49" class="edge">
<title>Node38&#45;&gt;Node43</title>
<path fill="none" stroke="#191970" d="M2279.2521,-235.4525C2318.8251,-225.3845 2371.8421,-211.7007 2418.5,-199 2418.5991,-198.973 2418.6983,-198.946 2418.7977,-198.9189"/>
<polygon fill="#191970" stroke="#191970" points="2419.5863,-202.3324 2428.2861,-196.2856 2417.7142,-195.5874 2419.5863,-202.3324"/>
</g>
<!-- Node44 -->
<g id="node45" class="node">
<title>Node44</title>
<polygon fill="none" stroke="#bfbfbf" points="2496.5,-179.5 2496.5,-198.5 2554.5,-198.5 2554.5,-179.5 2496.5,-179.5"/>
<text text-anchor="middle" x="2525.5" y="-186.5" font-family="Helvetica,sans-Serif" font-size="10.00" fill="#000000">memory</text>
</g>
<!-- Node38&#45;&gt;Node44 -->
<g id="edge50" class="edge">
<title>Node38&#45;&gt;Node44</title>
<path fill="none" stroke="#191970" d="M2283.1807,-236.8744C2286.3303,-236.2332 2289.45,-235.6052 2292.5,-235 2375.8222,-218.4659 2399.7791,-218.2231 2486.1157,-199.1917"/>
<polygon fill="#191970" stroke="#191970" points="2487.0941,-202.5597 2496.0946,-196.9704 2485.573,-195.7269 2487.0941,-202.5597"/>
</g>
<!-- Node45 -->
<g id="node46" class="node">
<title>Node45</title>
<polygon fill="none" stroke="#bfbfbf" points="2573,-179.5 2573,-198.5 2620,-198.5 2620,-179.5 2573,-179.5"/>
<text text-anchor="middle" x="2596.5" y="-186.5" font-family="Helvetica,sans-Serif" font-size="10.00" fill="#000000">vector</text>
</g>
<!-- Node38&#45;&gt;Node45 -->
<g id="edge51" class="edge">
<title>Node38&#45;&gt;Node45</title>
<path fill="none" stroke="#191970" d="M2283.1454,-236.6842C2286.3043,-236.0933 2289.4357,-235.528 2292.5,-235 2409.0806,-214.9107 2442.9722,-224.1792 2562.8922,-198.8136"/>
<polygon fill="#191970" stroke="#191970" points="2563.7879,-202.2011 2572.8276,-196.6753 2562.315,-195.3578 2563.7879,-202.2011"/>
</g>
</g>
</svg>
